Note: ['note_on channel=0 note=74 velocity=92 time=786', 'note_on channel=0 note=74 velocity=0 time=48', 'note_on channel=0 note=81 velocity=93 time=353', 'note_on channel=0 note=57 velocity=79 time=373', 'note_on channel=0 note=57 velocity=0 time=49', 'note_on channel=0 note=62 velocity=86 time=337', 'note_on channel=0 note=62 velocity=0 time=12', 'note_on channel=0 note=81 velocity=0 time=0', 'note_on channel=0 note=78 velocity=97 time=304', 'note_on channel=0 note=74 velocity=82 time=7', 'note_on channel=0 note=74 velocity=0 time=319', 'note_on channel=0 note=73 velocity=73 time=36', 'note_on channel=0 note=76 velocity=79 time=7', 'note_on channel=0 note=78 velocity=0 time=2', 'note_on channel=0 note=73 velocity=0 time=25', 'note_on channel=0 note=76 velocity=0 time=11', 'note_on channel=0 note=71 velocity=78 time=65', 'note_on channel=0 note=74 velocity=72 time=4', 'note_on channel=0 note=71 velocity=0 time=26', 'note_on channel=0 note=74 velocity=0 time=11', 'note_on channel=0 note=73 velocity=79 time=54', 'note_on channel=0 note=69 velocity=76 time=9', 'note_on channel=0 note=69 velocity=0 time=24', 'note_on channel=0 note=73 velocity=0 time=22', 'note_on channel=0 note=71 velocity=83 time=54', 'note_on channel=0 note=67 velocity=78 time=1', 'note_on channel=0 note=67 velocity=0 time=29', 'note_on channel=0 note=71 velocity=0 time=14', 'note_on channel=0 note=69 velocity=77 time=60', 'note_on channel=0 note=66 velocity=76 time=1', 'note_on channel=0 note=66 velocity=0 time=27', 'note_on channel=0 note=69 velocity=0 time=11', 'note_on channel=0 note=64 velocity=73 time=63', 'note_on channel=0 note=67 velocity=72 time=0', 'note_on channel=0 note=64 velocity=0 time=37', 'note_on channel=0 note=67 velocity=0 time=22', 'note_on channel=0 note=62 velocity=80 time=66', 'note_on channel=0 note=66 velocity=85 time=0', 'note_on channel=0 note=62 velocity=0 time=21', 'note_on channel=0 note=66 velocity=0 time=7', 'note_on channel=0 note=81 velocity=96 time=1', 'note_on channel=0 note=78 velocity=81 time=7', 'note_on channel=0 note=78 velocity=0 time=338', 'note_on channel=0 note=81 velocity=0 time=12', 'note_on channel=0 note=79 velocity=84 time=13', 'note_on channel=0 note=76 velocity=70 time=15', 'note_on channel=0 note=76 velocity=0 time=27', 'note_on channel=0 note=79 velocity=0 time=17', 'note_on channel=0 note=78 velocity=89 time=50', 'note_on channel=0 note=74 velocity=81 time=7', 'note_on channel=0 note=74 velocity=0 time=34', 'note_on channel=0 note=78 velocity=0 time=19', 'note_on channel=0 note=76 velocity=92 time=47', 'note_on channel=0 note=73 velocity=83 time=1', 'note_on channel=0 note=76 velocity=0 time=46', 'note_on channel=0 note=73 velocity=0 time=4', 'note_on channel=0 note=74 velocity=89 time=48', 'note_on channel=0 note=71 velocity=79 time=8', 'note_on channel=0 note=71 velocity=0 time=38', 'note_on channel=0 note=74 velocity=0 time=10', 'note_on channel=0 note=73 velocity=90 time=48', 'note_on channel=0 note=69 velocity=81 time=6', 'note_on channel=0 note=69 velocity=0 time=25', 'note_on channel=0 note=73 velocity=0 time=28', 'note_on channel=0 note=67 velocity=79 time=42', 'note_on channel=0 note=71 velocity=88 time=5', 'note_on channel=0 note=67 velocity=0 time=25', 'note_on channel=0 note=71 velocity=0 time=19', 'note_on channel=0 note=66 velocity=80 time=70', 'note_on channel=0 note=69 velocity=82 time=6', 'note_on channel=0 note=66 velocity=0 time=23', 'note_on channel=0 note=69 velocity=0 time=6', 'note_on channel=0 note=86 velocity=87 time=2', 'note_on channel=0 note=66 velocity=61 time=9', 'note_on channel=0 note=66 velocity=0 time=37', 'note_on channel=0 note=81 velocity=90 time=34', 'note_on channel=0 note=86 velocity=0 time=23', 'note_on channel=0 note=81 velocity=0 time=64', 'note_on channel=0 note=74 velocity=92 time=6', 'note_on channel=0 note=67 velocity=60 time=141', 'note_on channel=0 note=74 velocity=0 time=0', 'note_on channel=0 note=78 velocity=75 time=2', 'note_on channel=0 note=78 velocity=0 time=72', 'note_on channel=0 note=76 velocity=74 time=4', 'note_on channel=0 note=67 velocity=0 time=18', 'note_on channel=0 note=76 velocity=0 time=39', 'note_on channel=0 note=78 velocity=74 time=2', 'note_on channel=0 note=76 velocity=71 time=11', 'note_on channel=0 note=78 velocity=0 time=3', 'note_on channel=0 note=76 velocity=0 time=15', 'note_on channel=0 note=78 velocity=72 time=2', 'note_on channel=0 note=76 velocity=71 time=11', 'note_on channel=0 note=78 velocity=0 time=0', 'note_on channel=0 note=76 velocity=0 time=15', 'note_on channel=0 note=78 velocity=70 time=2', 'note_on channel=0 note=69 velocity=62 time=8', 'note_on channel=0 note=69 velocity=0 time=10', 'note_on channel=0 note=76 velocity=67 time=3', 'note_on channel=0 note=78 velocity=0 time=2', 'note_on channel=0 note=76 velocity=0 time=51', 'note_on channel=0 note=78 velocity=72 time=8', 'note_on channel=0 note=76 velocity=68 time=10', 'note_on channel=0 note=78 velocity=0 time=0', 'note_on channel=0 note=76 velocity=0 time=0', 'note_on channel=0 note=74 velocity=71 time=7', 'note_on channel=0 note=74 velocity=0 time=11', 'note_on channel=0 note=76 velocity=70 time=3', 'note_on channel=0 note=76 velocity=0 time=0', 'note_on channel=0 note=62 velocity=46 time=5', 'note_on channel=0 note=78 velocity=70 time=0', 'note_on channel=0 note=78 velocity=0 time=8', 'note_on channel=0 note=62 velocity=0 time=6', 'note_on channel=0 note=62 velocity=67 time=0', 'note_on channel=0 note=81 velocity=73 time=1', 'note_on channel=0 note=62 velocity=0 time=13', 'note_on channel=0 note=81 velocity=0 time=14', 'note_on channel=0 note=74 velocity=68 time=3', 'note_on channel=0 note=74 velocity=0 time=36', 'note_on channel=0 note=69 velocity=59 time=33', 'note_on channel=0 note=55 velocity=61 time=60', 'note_on channel=0 note=71 velocity=66 time=4', 'note_on channel=0 note=69 velocity=0 time=3', 'note_on channel=0 note=55 velocity=0 time=14', 'note_on channel=0 note=71 velocity=0 time=13', 'note_on channel=0 note=73 velocity=68 time=10', 'note_on channel=0 note=73 velocity=0 time=8', 'note_on channel=0 note=71 velocity=65 time=1', 'note_on channel=0 note=64 velocity=59 time=16', 'note_on channel=0 note=71 velocity=0 time=12', 'note_on channel=0 note=64 velocity=0 time=9', 'note_on channel=0 note=69 velocity=68 time=23', 'note_on channel=0 note=69 velocity=0 time=11', 'note_on channel=0 note=71 velocity=62 time=1', 'note_on channel=0 note=57 velocity=61 time=9', 'note_on channel=0 note=73 velocity=73 time=3', 'note_on channel=0 note=71 velocity=0 time=3', 'note_on channel=0 note=57 velocity=0 time=6', 'note_on channel=0 note=73 velocity=0 time=10', 'note_on channel=0 note=74 velocity=68 time=5', 'note_on channel=0 note=73 velocity=67 time=12', 'note_on channel=0 note=74 velocity=0 time=10', 'note_on channel=0 note=66 velocity=59 time=24', 'note_on channel=0 note=73 velocity=0 time=13', 'note_on channel=0 note=66 velocity=0 time=2', 'note_on channel=0 note=71 velocity=68 time=11', 'note_on channel=0 note=73 velocity=59 time=3', 'note_on channel=0 note=71 velocity=0 time=8', 'note_on channel=0 note=59 velocity=65 time=13', 'note_on channel=0 note=74 velocity=80 time=1', 'note_on channel=0 note=73 velocity=0 time=8', 'note_on channel=0 note=59 velocity=0 time=4', 'note_on channel=0 note=74 velocity=0 time=6', 'note_on channel=0 note=76 velocity=67 time=15', 'note_on channel=0 note=74 velocity=71 time=60', 'note_on channel=0 note=76 velocity=0 time=2', 'note_on channel=0 note=67 velocity=61 time=26', 'note_on channel=0 note=74 velocity=0 time=19', 'note_on channel=0 note=67 velocity=0 time=9', 'note_on channel=0 note=73 velocity=75 time=3', 'note_on channel=0 note=73 velocity=0 time=48', 'note_on channel=0 note=74 velocity=69 time=19', 'note_on channel=0 note=76 velocity=80 time=49', 'note_on channel=0 note=61 velocity=61 time=6', 'note_on channel=0 note=74 velocity=0 time=3', 'note_on channel=0 note=61 velocity=0 time=28', 'note_on channel=0 note=76 velocity=0 time=30', 'note_on channel=0 note=78 velocity=77 time=5', 'note_on channel=0 note=76 velocity=74 time=67', 'note_on channel=0 note=78 velocity=0 time=26', 'note_on channel=0 note=69 velocity=66 time=2', 'note_on channel=0 note=76 velocity=0 time=19', 'note_on channel=0 note=69 velocity=0 time=6', 'note_on channel=0 note=74 velocity=79 time=16', 'note_on channel=0 note=76 velocity=73 time=54', 'note_on channel=0 note=74 velocity=0 time=7', 'note_on channel=0 note=62 velocity=66 time=55', 'note_on channel=0 note=78 velocity=86 time=5', 'note_on channel=0 note=76 velocity=0 time=16', 'note_on channel=0 note=62 velocity=0 time=11', 'note_on channel=0 note=79 velocity=73 time=24', 'note_on channel=0 note=78 velocity=0 time=6', 'note_on channel=0 note=78 velocity=72 time=56', 'note_on channel=0 note=79 velocity=0 time=18', 'note_on channel=0 note=71 velocity=61 time=26', 'note_on channel=0 note=78 velocity=0 time=15', 'note_on channel=0 note=76 velocity=75 time=10', 'note_on channel=0 note=71 velocity=0 time=1', 'note_on channel=0 note=78 velocity=79 time=54', 'note_on channel=0 note=76 velocity=0 time=6', 'note_on channel=0 note=79 velocity=86 time=60', 'note_on channel=0 note=64 velocity=67 time=5', 'note_on channel=0 note=78 velocity=0 time=3', 'note_on channel=0 note=64 velocity=0 time=28', 'note_on channel=0 note=81 velocity=77 time=11', 'note_on channel=0 note=79 velocity=0 time=2', 'note_on channel=0 note=79 velocity=78 time=65', 'note_on channel=0 note=81 velocity=0 time=13', 'note_on channel=0 note=73 velocity=71 time=23', 'note_on channel=0 note=79 velocity=0 time=22', 'note_on channel=0 note=78 velocity=80 time=3', 'note_on channel=0 note=73 velocity=0 time=12', 'note_on channel=0 note=78 velocity=0 time=49', 'note_on channel=0 note=79 velocity=78 time=8', 'note_on channel=0 note=81 velocity=89 time=61', 'note_on channel=0 note=66 velocity=77 time=1', 'note_on channel=0 note=79 velocity=0 time=10', 'note_on channel=0 note=66 velocity=0 time=42', 'note_on channel=0 note=81 velocity=0 time=11', 'note_on channel=0 note=83 velocity=79 time=1', 'note_on channel=0 note=81 velocity=85 time=70', 'note_on channel=0 note=83 velocity=0 time=15', 'note_on channel=0 note=74 velocity=82 time=3', 'note_on channel=0 note=81 velocity=0 time=34', 'note_on channel=0 note=74 velocity=0 time=6', 'note_on channel=0 note=79 velocity=81 time=3', 'note_on channel=0 note=81 velocity=85 time=53', 'note_on channel=0 note=79 velocity=0 time=8', 'note_on channel=0 note=67 velocity=83 time=36', 'note_on channel=0 note=83 velocity=87 time=14', 'note_on channel=0 note=81 velocity=0 time=12', 'note_on channel=0 note=83 velocity=0 time=15', 'note_on channel=0 note=67 velocity=0 time=4', 'note_on channel=0 note=69 velocity=79 time=147', 'note_on channel=0 note=85 velocity=87 time=2', 'note_on channel=0 note=69 velocity=0 time=47', 'note_on channel=0 note=85 velocity=0 time=25', 'note_on channel=0 note=86 velocity=87 time=95', 'note_on channel=0 note=71 velocity=89 time=2', 'note_on channel=0 note=71 velocity=0 time=48', 'note_on channel=0 note=85 velocity=82 time=31', 'note_on channel=0 note=86 velocity=0 time=31', 'note_on channel=0 note=83 velocity=79 time=47', 'note_on channel=0 note=85 velocity=0 time=29', 'note_on channel=0 note=81 velocity=89 time=50', 'note_on channel=0 note=83 velocity=0 time=30', 'note_on channel=0 note=81 velocity=0 time=47', 'note_on channel=0 note=67 velocity=81 time=1', 'note_on channel=0 note=79 velocity=87 time=5', 'note_on channel=0 note=67 velocity=0 time=41', 'note_on channel=0 note=69 velocity=16 time=5', 'note_on channel=0 note=78 velocity=87 time=31', 'note_on channel=0 note=79 velocity=0 time=8', 'note_on channel=0 note=69 velocity=0 time=8', 'note_on channel=0 note=76 velocity=84 time=58', 'note_on channel=0 note=78 velocity=0 time=18', 'note_on channel=0 note=76 velocity=0 time=59', 'note_on channel=0 note=74 velocity=88 time=4', 'note_on channel=0 note=69 velocity=71 time=68', 'note_on channel=0 note=76 velocity=85 time=17', 'note_on channel=0 note=74 velocity=0 time=23', 'note_on channel=0 note=69 velocity=0 time=35', 'note_on channel=0 note=81 velocity=86 time=29', 'note_on channel=0 note=76 velocity=0 time=11', 'note_on channel=0 note=79 velocity=81 time=73', 'note_on channel=0 note=81 velocity=0 time=30', 'note_on channel=0 note=78 velocity=79 time=46', 'note_on channel=0 note=79 velocity=0 time=27', 'note_on channel=0 note=57 velocity=59 time=62', 'note_on channel=0 note=76 velocity=74 time=0', 'note_on channel=0 note=78 velocity=0 time=33', 'note_on channel=0 note=76 velocity=0 time=28', 'note_on channel=0 note=74 velocity=74 time=13', 'note_on channel=0 note=57 velocity=0 time=4', 'note_on channel=0 note=73 velocity=78 time=5', 'note_on channel=0 note=74 velocity=0 time=0', 'note_on channel=0 note=71 velocity=79 time=18', 'note_on channel=0 note=73 velocity=0 time=33', 'note_on channel=0 note=69 velocity=79 time=6', 'note_on channel=0 note=71 velocity=0 time=22', 'note_on channel=0 note=69 velocity=0 time=24', 'note_on channel=0 note=71 velocity=65 time=12', 'note_on channel=0 note=71 velocity=0 time=7', 'note_on channel=0 note=69 velocity=68 time=4', 'note_on channel=0 note=69 velocity=0 time=14', 'note_on channel=0 note=71 velocity=61 time=6', 'note_on channel=0 note=69 velocity=60 time=55', 'note_on channel=0 note=71 velocity=0 time=3', 'note_on channel=0 note=71 velocity=64 time=48', 'note_on channel=0 note=54 velocity=57 time=3', 'note_on channel=0 note=69 velocity=0 time=0', 'note_on channel=0 note=69 velocity=61 time=55', 'note_on channel=0 note=71 velocity=0 time=2', 'note_on channel=0 note=69 velocity=0 time=51', 'note_on channel=0 note=71 velocity=65 time=0', 'note_on channel=0 note=62 velocity=70 time=33', 'note_on channel=0 note=69 velocity=69 time=25', 'note_on channel=0 note=71 velocity=0 time=8', 'note_on channel=0 note=62 velocity=0 time=14', 'note_on channel=0 note=54 velocity=0 time=30', 'note_on channel=0 note=69 velocity=0 time=1', 'note_on channel=0 note=67 velocity=79 time=2', 'note_on channel=0 note=69 velocity=73 time=54', 'note_on channel=0 note=67 velocity=0 time=21', 'note_on channel=0 note=55 velocity=75 time=65', 'note_on channel=0 note=71 velocity=71 time=96', 'note_on channel=0 note=69 velocity=0 time=11', 'note_on channel=0 note=71 velocity=0 time=15', 'note_on channel=0 note=73 velocity=69 time=7', 'note_on channel=0 note=71 velocity=67 time=3', 'note_on channel=0 note=64 velocity=64 time=1', 'note_on channel=0 note=73 velocity=0 time=0', 'note_on channel=0 note=71 velocity=0 time=15', 'note_on channel=0 note=64 velocity=0 time=7', 'note_on channel=0 note=55 velocity=0 time=5', 'note_on channel=0 note=69 velocity=71 time=4']
Note: ('note_on channel=0 note=74 velocity=92 time=786', 'note_on channel=0 note=74 velocity=0 time=48', 'note_on channel=0 note=81 velocity=93 time=353', 'note_on channel=0 note=57 velocity=79 time=373', 'note_on channel=0 note=57 velocity=0 time=49')
Note: ('note_on channel=0 note=74 velocity=0 time=48', 'note_on channel=0 note=81 velocity=93 time=353', 'note_on channel=0 note=57 velocity=79 time=373', 'note_on channel=0 note=57 velocity=0 time=49', 'note_on channel=0 note=62 velocity=86 time=337')
Note: ('note_on channel=0 note=81 velocity=93 time=353', 'note_on channel=0 note=57 velocity=79 time=373', 'note_on channel=0 note=57 velocity=0 time=49', 'note_on channel=0 note=62 velocity=86 time=337', 'note_on channel=0 note=62 velocity=0 time=12')
Note: ('note_on channel=0 note=57 velocity=79 time=373', 'note_on channel=0 note=57 velocity=0 time=49', 'note_on channel=0 note=62 velocity=86 time=337', 'note_on channel=0 note=62 velocity=0 time=12', 'note_on channel=0 note=81 velocity=0 time=0')
Note: ('note_on channel=0 note=57 velocity=0 time=49', 'note_on channel=0 note=62 velocity=86 time=337', 'note_on channel=0 note=62 velocity=0 time=12', 'note_on channel=0 note=81 velocity=0 time=0', 'note_on channel=0 note=78 velocity=97 time=304')
Note: ('note_on channel=0 note=62 velocity=86 time=337', 'note_on channel=0 note=62 velocity=0 time=12', 'note_on channel=0 note=81 velocity=0 time=0', 'note_on channel=0 note=78 velocity=97 time=304', 'note_on channel=0 note=74 velocity=82 time=7')
Note: ('note_on channel=0 note=62 velocity=0 time=12', 'note_on channel=0 note=81 velocity=0 time=0', 'note_on channel=0 note=78 velocity=97 time=304', 'note_on channel=0 note=74 velocity=82 time=7', 'note_on channel=0 note=74 velocity=0 time=319')
Note: ('note_on channel=0 note=81 velocity=0 time=0', 'note_on channel=0 note=78 velocity=97 time=304', 'note_on channel=0 note=74 velocity=82 time=7', 'note_on channel=0 note=74 velocity=0 time=319', 'note_on channel=0 note=73 velocity=73 time=36')
Note: ('note_on channel=0 note=78 velocity=97 time=304', 'note_on channel=0 note=74 velocity=82 time=7', 'note_on channel=0 note=74 velocity=0 time=319', 'note_on channel=0 note=73 velocity=73 time=36', 'note_on channel=0 note=76 velocity=79 time=7')
Note: ('note_on channel=0 note=74 velocity=82 time=7', 'note_on channel=0 note=74 velocity=0 time=319', 'note_on channel=0 note=73 velocity=73 time=36', 'note_on channel=0 note=76 velocity=79 time=7', 'note_on channel=0 note=78 velocity=0 time=2')
Note: ('note_on channel=0 note=74 velocity=0 time=319', 'note_on channel=0 note=73 velocity=73 time=36', 'note_on channel=0 note=76 velocity=79 time=7', 'note_on channel=0 note=78 velocity=0 time=2', 'note_on channel=0 note=73 velocity=0 time=25')
Note: ('note_on channel=0 note=73 velocity=73 time=36', 'note_on channel=0 note=76 velocity=79 time=7', 'note_on channel=0 note=78 velocity=0 time=2', 'note_on channel=0 note=73 velocity=0 time=25', 'note_on channel=0 note=76 velocity=0 time=11')
Note: ('note_on channel=0 note=76 velocity=79 time=7', 'note_on channel=0 note=78 velocity=0 time=2', 'note_on channel=0 note=73 velocity=0 time=25', 'note_on channel=0 note=76 velocity=0 time=11', 'note_on channel=0 note=71 velocity=78 time=65')
Note: ('note_on channel=0 note=78 velocity=0 time=2', 'note_on channel=0 note=73 velocity=0 time=25', 'note_on channel=0 note=76 velocity=0 time=11', 'note_on channel=0 note=71 velocity=78 time=65', 'note_on channel=0 note=74 velocity=72 time=4')
Note: ('note_on channel=0 note=73 velocity=0 time=25', 'note_on channel=0 note=76 velocity=0 time=11', 'note_on channel=0 note=71 velocity=78 time=65', 'note_on channel=0 note=74 velocity=72 time=4', 'note_on channel=0 note=71 velocity=0 time=26')
Note: ('note_on channel=0 note=76 velocity=0 time=11', 'note_on channel=0 note=71 velocity=78 time=65', 'note_on channel=0 note=74 velocity=72 time=4', 'note_on channel=0 note=71 velocity=0 time=26', 'note_on channel=0 note=74 velocity=0 time=11')
Note: ('note_on channel=0 note=71 velocity=78 time=65', 'note_on channel=0 note=74 velocity=72 time=4', 'note_on channel=0 note=71 velocity=0 time=26', 'note_on channel=0 note=74 velocity=0 time=11', 'note_on channel=0 note=73 velocity=79 time=54')
Note: ('note_on channel=0 note=74 velocity=72 time=4', 'note_on channel=0 note=71 velocity=0 time=26', 'note_on channel=0 note=74 velocity=0 time=11', 'note_on channel=0 note=73 velocity=79 time=54', 'note_on channel=0 note=69 velocity=76 time=9')
Note: ('note_on channel=0 note=71 velocity=0 time=26', 'note_on channel=0 note=74 velocity=0 time=11', 'note_on channel=0 note=73 velocity=79 time=54', 'note_on channel=0 note=69 velocity=76 time=9', 'note_on channel=0 note=69 velocity=0 time=24')
Note: ('note_on channel=0 note=74 velocity=0 time=11', 'note_on channel=0 note=73 velocity=79 time=54', 'note_on channel=0 note=69 velocity=76 time=9', 'note_on channel=0 note=69 velocity=0 time=24', 'note_on channel=0 note=73 velocity=0 time=22')
Note: ('note_on channel=0 note=73 velocity=79 time=54', 'note_on channel=0 note=69 velocity=76 time=9', 'note_on channel=0 note=69 velocity=0 time=24', 'note_on channel=0 note=73 velocity=0 time=22', 'note_on channel=0 note=71 velocity=83 time=54')
Note: ('note_on channel=0 note=69 velocity=76 time=9', 'note_on channel=0 note=69 velocity=0 time=24', 'note_on channel=0 note=73 velocity=0 time=22', 'note_on channel=0 note=71 velocity=83 time=54', 'note_on channel=0 note=67 velocity=78 time=1')
Note: ('note_on channel=0 note=69 velocity=0 time=24', 'note_on channel=0 note=73 velocity=0 time=22', 'note_on channel=0 note=71 velocity=83 time=54', 'note_on channel=0 note=67 velocity=78 time=1', 'note_on channel=0 note=67 velocity=0 time=29')
Note: ('note_on channel=0 note=73 velocity=0 time=22', 'note_on channel=0 note=71 velocity=83 time=54', 'note_on channel=0 note=67 velocity=78 time=1', 'note_on channel=0 note=67 velocity=0 time=29', 'note_on channel=0 note=71 velocity=0 time=14')
Note: ('note_on channel=0 note=71 velocity=83 time=54', 'note_on channel=0 note=67 velocity=78 time=1', 'note_on channel=0 note=67 velocity=0 time=29', 'note_on channel=0 note=71 velocity=0 time=14', 'note_on channel=0 note=69 velocity=77 time=60')
Note: ('note_on channel=0 note=67 velocity=78 time=1', 'note_on channel=0 note=67 velocity=0 time=29', 'note_on channel=0 note=71 velocity=0 time=14', 'note_on channel=0 note=69 velocity=77 time=60', 'note_on channel=0 note=66 velocity=76 time=1')
Note: ('note_on channel=0 note=67 velocity=0 time=29', 'note_on channel=0 note=71 velocity=0 time=14', 'note_on channel=0 note=69 velocity=77 time=60', 'note_on channel=0 note=66 velocity=76 time=1', 'note_on channel=0 note=66 velocity=0 time=27')
Note: ('note_on channel=0 note=71 velocity=0 time=14', 'note_on channel=0 note=69 velocity=77 time=60', 'note_on channel=0 note=66 velocity=76 time=1', 'note_on channel=0 note=66 velocity=0 time=27', 'note_on channel=0 note=69 velocity=0 time=11')
Note: ('note_on channel=0 note=69 velocity=77 time=60', 'note_on channel=0 note=66 velocity=76 time=1', 'note_on channel=0 note=66 velocity=0 time=27', 'note_on channel=0 note=69 velocity=0 time=11', 'note_on channel=0 note=64 velocity=73 time=63')
Note: ('note_on channel=0 note=66 velocity=76 time=1', 'note_on channel=0 note=66 velocity=0 time=27', 'note_on channel=0 note=69 velocity=0 time=11', 'note_on channel=0 note=64 velocity=73 time=63', 'note_on channel=0 note=67 velocity=72 time=0')
Note: ('note_on channel=0 note=66 velocity=0 time=27', 'note_on channel=0 note=69 velocity=0 time=11', 'note_on channel=0 note=64 velocity=73 time=63', 'note_on channel=0 note=67 velocity=72 time=0', 'note_on channel=0 note=64 velocity=0 time=37')
Note: ('note_on channel=0 note=69 velocity=0 time=11', 'note_on channel=0 note=64 velocity=73 time=63', 'note_on channel=0 note=67 velocity=72 time=0', 'note_on channel=0 note=64 velocity=0 time=37', 'note_on channel=0 note=67 velocity=0 time=22')
Note: ('note_on channel=0 note=64 velocity=73 time=63', 'note_on channel=0 note=67 velocity=72 time=0', 'note_on channel=0 note=64 velocity=0 time=37', 'note_on channel=0 note=67 velocity=0 time=22', 'note_on channel=0 note=62 velocity=80 time=66')
Note: ('note_on channel=0 note=67 velocity=72 time=0', 'note_on channel=0 note=64 velocity=0 time=37', 'note_on channel=0 note=67 velocity=0 time=22', 'note_on channel=0 note=62 velocity=80 time=66', 'note_on channel=0 note=66 velocity=85 time=0')
Note: ('note_on channel=0 note=64 velocity=0 time=37', 'note_on channel=0 note=67 velocity=0 time=22', 'note_on channel=0 note=62 velocity=80 time=66', 'note_on channel=0 note=66 velocity=85 time=0', 'note_on channel=0 note=62 velocity=0 time=21')
Note: ('note_on channel=0 note=67 velocity=0 time=22', 'note_on channel=0 note=62 velocity=80 time=66', 'note_on channel=0 note=66 velocity=85 time=0', 'note_on channel=0 note=62 velocity=0 time=21', 'note_on channel=0 note=66 velocity=0 time=7')
Note: ('note_on channel=0 note=62 velocity=80 time=66', 'note_on channel=0 note=66 velocity=85 time=0', 'note_on channel=0 note=62 velocity=0 time=21', 'note_on channel=0 note=66 velocity=0 time=7', 'note_on channel=0 note=81 velocity=96 time=1')
Note: ('note_on channel=0 note=66 velocity=85 time=0', 'note_on channel=0 note=62 velocity=0 time=21', 'note_on channel=0 note=66 velocity=0 time=7', 'note_on channel=0 note=81 velocity=96 time=1', 'note_on channel=0 note=78 velocity=81 time=7')
Note: ('note_on channel=0 note=62 velocity=0 time=21', 'note_on channel=0 note=66 velocity=0 time=7', 'note_on channel=0 note=81 velocity=96 time=1', 'note_on channel=0 note=78 velocity=81 time=7', 'note_on channel=0 note=78 velocity=0 time=338')
Note: ('note_on channel=0 note=66 velocity=0 time=7', 'note_on channel=0 note=81 velocity=96 time=1', 'note_on channel=0 note=78 velocity=81 time=7', 'note_on channel=0 note=78 velocity=0 time=338', 'note_on channel=0 note=81 velocity=0 time=12')
Note: ('note_on channel=0 note=81 velocity=96 time=1', 'note_on channel=0 note=78 velocity=81 time=7', 'note_on channel=0 note=78 velocity=0 time=338', 'note_on channel=0 note=81 velocity=0 time=12', 'note_on channel=0 note=79 velocity=84 time=13')
Note: ('note_on channel=0 note=78 velocity=81 time=7', 'note_on channel=0 note=78 velocity=0 time=338', 'note_on channel=0 note=81 velocity=0 time=12', 'note_on channel=0 note=79 velocity=84 time=13', 'note_on channel=0 note=76 velocity=70 time=15')
Note: ('note_on channel=0 note=78 velocity=0 time=338', 'note_on channel=0 note=81 velocity=0 time=12', 'note_on channel=0 note=79 velocity=84 time=13', 'note_on channel=0 note=76 velocity=70 time=15', 'note_on channel=0 note=76 velocity=0 time=27')
Note: ('note_on channel=0 note=81 velocity=0 time=12', 'note_on channel=0 note=79 velocity=84 time=13', 'note_on channel=0 note=76 velocity=70 time=15', 'note_on channel=0 note=76 velocity=0 time=27', 'note_on channel=0 note=79 velocity=0 time=17')
Note: ('note_on channel=0 note=79 velocity=84 time=13', 'note_on channel=0 note=76 velocity=70 time=15', 'note_on channel=0 note=76 velocity=0 time=27', 'note_on channel=0 note=79 velocity=0 time=17', 'note_on channel=0 note=78 velocity=89 time=50')
Note: ('note_on channel=0 note=76 velocity=70 time=15', 'note_on channel=0 note=76 velocity=0 time=27', 'note_on channel=0 note=79 velocity=0 time=17', 'note_on channel=0 note=78 velocity=89 time=50', 'note_on channel=0 note=74 velocity=81 time=7')
Note: ('note_on channel=0 note=76 velocity=0 time=27', 'note_on channel=0 note=79 velocity=0 time=17', 'note_on channel=0 note=78 velocity=89 time=50', 'note_on channel=0 note=74 velocity=81 time=7', 'note_on channel=0 note=74 velocity=0 time=34')
Note: ('note_on channel=0 note=79 velocity=0 time=17', 'note_on channel=0 note=78 velocity=89 time=50', 'note_on channel=0 note=74 velocity=81 time=7', 'note_on channel=0 note=74 velocity=0 time=34', 'note_on channel=0 note=78 velocity=0 time=19')
Note: ('note_on channel=0 note=78 velocity=89 time=50', 'note_on channel=0 note=74 velocity=81 time=7', 'note_on channel=0 note=74 velocity=0 time=34', 'note_on channel=0 note=78 velocity=0 time=19', 'note_on channel=0 note=76 velocity=92 time=47')
Note: ('note_on channel=0 note=74 velocity=81 time=7', 'note_on channel=0 note=74 velocity=0 time=34', 'note_on channel=0 note=78 velocity=0 time=19', 'note_on channel=0 note=76 velocity=92 time=47', 'note_on channel=0 note=73 velocity=83 time=1')
Note: ('note_on channel=0 note=74 velocity=0 time=34', 'note_on channel=0 note=78 velocity=0 time=19', 'note_on channel=0 note=76 velocity=92 time=47', 'note_on channel=0 note=73 velocity=83 time=1', 'note_on channel=0 note=76 velocity=0 time=46')
Note: ('note_on channel=0 note=78 velocity=0 time=19', 'note_on channel=0 note=76 velocity=92 time=47', 'note_on channel=0 note=73 velocity=83 time=1', 'note_on channel=0 note=76 velocity=0 time=46', 'note_on channel=0 note=73 velocity=0 time=4')
Note: ('note_on channel=0 note=76 velocity=92 time=47', 'note_on channel=0 note=73 velocity=83 time=1', 'note_on channel=0 note=76 velocity=0 time=46', 'note_on channel=0 note=73 velocity=0 time=4', 'note_on channel=0 note=74 velocity=89 time=48')
Note: ('note_on channel=0 note=73 velocity=83 time=1', 'note_on channel=0 note=76 velocity=0 time=46', 'note_on channel=0 note=73 velocity=0 time=4', 'note_on channel=0 note=74 velocity=89 time=48', 'note_on channel=0 note=71 velocity=79 time=8')
Note: ('note_on channel=0 note=76 velocity=0 time=46', 'note_on channel=0 note=73 velocity=0 time=4', 'note_on channel=0 note=74 velocity=89 time=48', 'note_on channel=0 note=71 velocity=79 time=8', 'note_on channel=0 note=71 velocity=0 time=38')
Note: ('note_on channel=0 note=73 velocity=0 time=4', 'note_on channel=0 note=74 velocity=89 time=48', 'note_on channel=0 note=71 velocity=79 time=8', 'note_on channel=0 note=71 velocity=0 time=38', 'note_on channel=0 note=74 velocity=0 time=10')
Note: ('note_on channel=0 note=74 velocity=89 time=48', 'note_on channel=0 note=71 velocity=79 time=8', 'note_on channel=0 note=71 velocity=0 time=38', 'note_on channel=0 note=74 velocity=0 time=10', 'note_on channel=0 note=73 velocity=90 time=48')
Note: ('note_on channel=0 note=71 velocity=79 time=8', 'note_on channel=0 note=71 velocity=0 time=38', 'note_on channel=0 note=74 velocity=0 time=10', 'note_on channel=0 note=73 velocity=90 time=48', 'note_on channel=0 note=69 velocity=81 time=6')
Note: ('note_on channel=0 note=71 velocity=0 time=38', 'note_on channel=0 note=74 velocity=0 time=10', 'note_on channel=0 note=73 velocity=90 time=48', 'note_on channel=0 note=69 velocity=81 time=6', 'note_on channel=0 note=69 velocity=0 time=25')
Note: ('note_on channel=0 note=74 velocity=0 time=10', 'note_on channel=0 note=73 velocity=90 time=48', 'note_on channel=0 note=69 velocity=81 time=6', 'note_on channel=0 note=69 velocity=0 time=25', 'note_on channel=0 note=73 velocity=0 time=28')
Note: ('note_on channel=0 note=73 velocity=90 time=48', 'note_on channel=0 note=69 velocity=81 time=6', 'note_on channel=0 note=69 velocity=0 time=25', 'note_on channel=0 note=73 velocity=0 time=28', 'note_on channel=0 note=67 velocity=79 time=42')
Note: ('note_on channel=0 note=69 velocity=81 time=6', 'note_on channel=0 note=69 velocity=0 time=25', 'note_on channel=0 note=73 velocity=0 time=28', 'note_on channel=0 note=67 velocity=79 time=42', 'note_on channel=0 note=71 velocity=88 time=5')
Note: ('note_on channel=0 note=69 velocity=0 time=25', 'note_on channel=0 note=73 velocity=0 time=28', 'note_on channel=0 note=67 velocity=79 time=42', 'note_on channel=0 note=71 velocity=88 time=5', 'note_on channel=0 note=67 velocity=0 time=25')
Note: ('note_on channel=0 note=73 velocity=0 time=28', 'note_on channel=0 note=67 velocity=79 time=42', 'note_on channel=0 note=71 velocity=88 time=5', 'note_on channel=0 note=67 velocity=0 time=25', 'note_on channel=0 note=71 velocity=0 time=19')
Note: ('note_on channel=0 note=67 velocity=79 time=42', 'note_on channel=0 note=71 velocity=88 time=5', 'note_on channel=0 note=67 velocity=0 time=25', 'note_on channel=0 note=71 velocity=0 time=19', 'note_on channel=0 note=66 velocity=80 time=70')
Note: ('note_on channel=0 note=71 velocity=88 time=5', 'note_on channel=0 note=67 velocity=0 time=25', 'note_on channel=0 note=71 velocity=0 time=19', 'note_on channel=0 note=66 velocity=80 time=70', 'note_on channel=0 note=69 velocity=82 time=6')
Note: ('note_on channel=0 note=67 velocity=0 time=25', 'note_on channel=0 note=71 velocity=0 time=19', 'note_on channel=0 note=66 velocity=80 time=70', 'note_on channel=0 note=69 velocity=82 time=6', 'note_on channel=0 note=66 velocity=0 time=23')
Note: ('note_on channel=0 note=71 velocity=0 time=19', 'note_on channel=0 note=66 velocity=80 time=70', 'note_on channel=0 note=69 velocity=82 time=6', 'note_on channel=0 note=66 velocity=0 time=23', 'note_on channel=0 note=69 velocity=0 time=6')
Note: ('note_on channel=0 note=66 velocity=80 time=70', 'note_on channel=0 note=69 velocity=82 time=6', 'note_on channel=0 note=66 velocity=0 time=23', 'note_on channel=0 note=69 velocity=0 time=6', 'note_on channel=0 note=86 velocity=87 time=2')
Note: ('note_on channel=0 note=69 velocity=82 time=6', 'note_on channel=0 note=66 velocity=0 time=23', 'note_on channel=0 note=69 velocity=0 time=6', 'note_on channel=0 note=86 velocity=87 time=2', 'note_on channel=0 note=66 velocity=61 time=9')
Note: ('note_on channel=0 note=66 velocity=0 time=23', 'note_on channel=0 note=69 velocity=0 time=6', 'note_on channel=0 note=86 velocity=87 time=2', 'note_on channel=0 note=66 velocity=61 time=9', 'note_on channel=0 note=66 velocity=0 time=37')
Note: ('note_on channel=0 note=69 velocity=0 time=6', 'note_on channel=0 note=86 velocity=87 time=2', 'note_on channel=0 note=66 velocity=61 time=9', 'note_on channel=0 note=66 velocity=0 time=37', 'note_on channel=0 note=81 velocity=90 time=34')
Note: ('note_on channel=0 note=86 velocity=87 time=2', 'note_on channel=0 note=66 velocity=61 time=9', 'note_on channel=0 note=66 velocity=0 time=37', 'note_on channel=0 note=81 velocity=90 time=34', 'note_on channel=0 note=86 velocity=0 time=23')
Note: ('note_on channel=0 note=66 velocity=61 time=9', 'note_on channel=0 note=66 velocity=0 time=37', 'note_on channel=0 note=81 velocity=90 time=34', 'note_on channel=0 note=86 velocity=0 time=23', 'note_on channel=0 note=81 velocity=0 time=64')
Note: ('note_on channel=0 note=66 velocity=0 time=37', 'note_on channel=0 note=81 velocity=90 time=34', 'note_on channel=0 note=86 velocity=0 time=23', 'note_on channel=0 note=81 velocity=0 time=64', 'note_on channel=0 note=74 velocity=92 time=6')
Note: ('note_on channel=0 note=81 velocity=90 time=34', 'note_on channel=0 note=86 velocity=0 time=23', 'note_on channel=0 note=81 velocity=0 time=64', 'note_on channel=0 note=74 velocity=92 time=6', 'note_on channel=0 note=67 velocity=60 time=141')
Note: ('note_on channel=0 note=86 velocity=0 time=23', 'note_on channel=0 note=81 velocity=0 time=64', 'note_on channel=0 note=74 velocity=92 time=6', 'note_on channel=0 note=67 velocity=60 time=141', 'note_on channel=0 note=74 velocity=0 time=0')
Note: ('note_on channel=0 note=81 velocity=0 time=64', 'note_on channel=0 note=74 velocity=92 time=6', 'note_on channel=0 note=67 velocity=60 time=141', 'note_on channel=0 note=74 velocity=0 time=0', 'note_on channel=0 note=78 velocity=75 time=2')
Note: ('note_on channel=0 note=74 velocity=92 time=6', 'note_on channel=0 note=67 velocity=60 time=141', 'note_on channel=0 note=74 velocity=0 time=0', 'note_on channel=0 note=78 velocity=75 time=2', 'note_on channel=0 note=78 velocity=0 time=72')
Note: ('note_on channel=0 note=67 velocity=60 time=141', 'note_on channel=0 note=74 velocity=0 time=0', 'note_on channel=0 note=78 velocity=75 time=2', 'note_on channel=0 note=78 velocity=0 time=72', 'note_on channel=0 note=76 velocity=74 time=4')
Note: ('note_on channel=0 note=74 velocity=0 time=0', 'note_on channel=0 note=78 velocity=75 time=2', 'note_on channel=0 note=78 velocity=0 time=72', 'note_on channel=0 note=76 velocity=74 time=4', 'note_on channel=0 note=67 velocity=0 time=18')
Note: ('note_on channel=0 note=78 velocity=75 time=2', 'note_on channel=0 note=78 velocity=0 time=72', 'note_on channel=0 note=76 velocity=74 time=4', 'note_on channel=0 note=67 velocity=0 time=18', 'note_on channel=0 note=76 velocity=0 time=39')
Note: ('note_on channel=0 note=78 velocity=0 time=72', 'note_on channel=0 note=76 velocity=74 time=4', 'note_on channel=0 note=67 velocity=0 time=18', 'note_on channel=0 note=76 velocity=0 time=39', 'note_on channel=0 note=78 velocity=74 time=2')
Note: ('note_on channel=0 note=76 velocity=74 time=4', 'note_on channel=0 note=67 velocity=0 time=18', 'note_on channel=0 note=76 velocity=0 time=39', 'note_on channel=0 note=78 velocity=74 time=2', 'note_on channel=0 note=76 velocity=71 time=11')
Note: ('note_on channel=0 note=67 velocity=0 time=18', 'note_on channel=0 note=76 velocity=0 time=39', 'note_on channel=0 note=78 velocity=74 time=2', 'note_on channel=0 note=76 velocity=71 time=11', 'note_on channel=0 note=78 velocity=0 time=3')
Note: ('note_on channel=0 note=76 velocity=0 time=39', 'note_on channel=0 note=78 velocity=74 time=2', 'note_on channel=0 note=76 velocity=71 time=11', 'note_on channel=0 note=78 velocity=0 time=3', 'note_on channel=0 note=76 velocity=0 time=15')
Note: ('note_on channel=0 note=78 velocity=74 time=2', 'note_on channel=0 note=76 velocity=71 time=11', 'note_on channel=0 note=78 velocity=0 time=3', 'note_on channel=0 note=76 velocity=0 time=15', 'note_on channel=0 note=78 velocity=72 time=2')
Note: ('note_on channel=0 note=76 velocity=71 time=11', 'note_on channel=0 note=78 velocity=0 time=3', 'note_on channel=0 note=76 velocity=0 time=15', 'note_on channel=0 note=78 velocity=72 time=2', 'note_on channel=0 note=76 velocity=71 time=11')
Note: ('note_on channel=0 note=78 velocity=0 time=3', 'note_on channel=0 note=76 velocity=0 time=15', 'note_on channel=0 note=78 velocity=72 time=2', 'note_on channel=0 note=76 velocity=71 time=11', 'note_on channel=0 note=78 velocity=0 time=0')
Note: ('note_on channel=0 note=76 velocity=0 time=15', 'note_on channel=0 note=78 velocity=72 time=2', 'note_on channel=0 note=76 velocity=71 time=11', 'note_on channel=0 note=78 velocity=0 time=0', 'note_on channel=0 note=76 velocity=0 time=15')
Note: ('note_on channel=0 note=78 velocity=72 time=2', 'note_on channel=0 note=76 velocity=71 time=11', 'note_on channel=0 note=78 velocity=0 time=0', 'note_on channel=0 note=76 velocity=0 time=15', 'note_on channel=0 note=78 velocity=70 time=2')
Note: ('note_on channel=0 note=76 velocity=71 time=11', 'note_on channel=0 note=78 velocity=0 time=0', 'note_on channel=0 note=76 velocity=0 time=15', 'note_on channel=0 note=78 velocity=70 time=2', 'note_on channel=0 note=69 velocity=62 time=8')
Note: ('note_on channel=0 note=78 velocity=0 time=0', 'note_on channel=0 note=76 velocity=0 time=15', 'note_on channel=0 note=78 velocity=70 time=2', 'note_on channel=0 note=69 velocity=62 time=8', 'note_on channel=0 note=69 velocity=0 time=10')
Note: ('note_on channel=0 note=76 velocity=0 time=15', 'note_on channel=0 note=78 velocity=70 time=2', 'note_on channel=0 note=69 velocity=62 time=8', 'note_on channel=0 note=69 velocity=0 time=10', 'note_on channel=0 note=76 velocity=67 time=3')
Note: ('note_on channel=0 note=78 velocity=70 time=2', 'note_on channel=0 note=69 velocity=62 time=8', 'note_on channel=0 note=69 velocity=0 time=10', 'note_on channel=0 note=76 velocity=67 time=3', 'note_on channel=0 note=78 velocity=0 time=2')
Note: ('note_on channel=0 note=69 velocity=62 time=8', 'note_on channel=0 note=69 velocity=0 time=10', 'note_on channel=0 note=76 velocity=67 time=3', 'note_on channel=0 note=78 velocity=0 time=2', 'note_on channel=0 note=76 velocity=0 time=51')
Note: ('note_on channel=0 note=69 velocity=0 time=10', 'note_on channel=0 note=76 velocity=67 time=3', 'note_on channel=0 note=78 velocity=0 time=2', 'note_on channel=0 note=76 velocity=0 time=51', 'note_on channel=0 note=78 velocity=72 time=8')
Note: ('note_on channel=0 note=76 velocity=67 time=3', 'note_on channel=0 note=78 velocity=0 time=2', 'note_on channel=0 note=76 velocity=0 time=51', 'note_on channel=0 note=78 velocity=72 time=8', 'note_on channel=0 note=76 velocity=68 time=10')
Note: ('note_on channel=0 note=78 velocity=0 time=2', 'note_on channel=0 note=76 velocity=0 time=51', 'note_on channel=0 note=78 velocity=72 time=8', 'note_on channel=0 note=76 velocity=68 time=10', 'note_on channel=0 note=78 velocity=0 time=0')
Note: ('note_on channel=0 note=76 velocity=0 time=51', 'note_on channel=0 note=78 velocity=72 time=8', 'note_on channel=0 note=76 velocity=68 time=10', 'note_on channel=0 note=78 velocity=0 time=0', 'note_on channel=0 note=76 velocity=0 time=0')
Note: ('note_on channel=0 note=78 velocity=72 time=8', 'note_on channel=0 note=76 velocity=68 time=10', 'note_on channel=0 note=78 velocity=0 time=0', 'note_on channel=0 note=76 velocity=0 time=0', 'note_on channel=0 note=74 velocity=71 time=7')
Note: ('note_on channel=0 note=76 velocity=68 time=10', 'note_on channel=0 note=78 velocity=0 time=0', 'note_on channel=0 note=76 velocity=0 time=0', 'note_on channel=0 note=74 velocity=71 time=7', 'note_on channel=0 note=74 velocity=0 time=11')
Note: ('note_on channel=0 note=78 velocity=0 time=0', 'note_on channel=0 note=76 velocity=0 time=0', 'note_on channel=0 note=74 velocity=71 time=7', 'note_on channel=0 note=74 velocity=0 time=11', 'note_on channel=0 note=76 velocity=70 time=3')
Note: ('note_on channel=0 note=76 velocity=0 time=0', 'note_on channel=0 note=74 velocity=71 time=7', 'note_on channel=0 note=74 velocity=0 time=11', 'note_on channel=0 note=76 velocity=70 time=3', 'note_on channel=0 note=76 velocity=0 time=0')
Note: ('note_on channel=0 note=74 velocity=71 time=7', 'note_on channel=0 note=74 velocity=0 time=11', 'note_on channel=0 note=76 velocity=70 time=3', 'note_on channel=0 note=76 velocity=0 time=0', 'note_on channel=0 note=62 velocity=46 time=5')
Note: ('note_on channel=0 note=74 velocity=0 time=11', 'note_on channel=0 note=76 velocity=70 time=3', 'note_on channel=0 note=76 velocity=0 time=0', 'note_on channel=0 note=62 velocity=46 time=5', 'note_on channel=0 note=78 velocity=70 time=0')
Note: ('note_on channel=0 note=76 velocity=70 time=3', 'note_on channel=0 note=76 velocity=0 time=0', 'note_on channel=0 note=62 velocity=46 time=5', 'note_on channel=0 note=78 velocity=70 time=0', 'note_on channel=0 note=78 velocity=0 time=8')
Note: ('note_on channel=0 note=76 velocity=0 time=0', 'note_on channel=0 note=62 velocity=46 time=5', 'note_on channel=0 note=78 velocity=70 time=0', 'note_on channel=0 note=78 velocity=0 time=8', 'note_on channel=0 note=62 velocity=0 time=6')
Note: ('note_on channel=0 note=62 velocity=46 time=5', 'note_on channel=0 note=78 velocity=70 time=0', 'note_on channel=0 note=78 velocity=0 time=8', 'note_on channel=0 note=62 velocity=0 time=6', 'note_on channel=0 note=62 velocity=67 time=0')
Note: ('note_on channel=0 note=78 velocity=70 time=0', 'note_on channel=0 note=78 velocity=0 time=8', 'note_on channel=0 note=62 velocity=0 time=6', 'note_on channel=0 note=62 velocity=67 time=0', 'note_on channel=0 note=81 velocity=73 time=1')
Note: ('note_on channel=0 note=78 velocity=0 time=8', 'note_on channel=0 note=62 velocity=0 time=6', 'note_on channel=0 note=62 velocity=67 time=0', 'note_on channel=0 note=81 velocity=73 time=1', 'note_on channel=0 note=62 velocity=0 time=13')
Note: ('note_on channel=0 note=62 velocity=0 time=6', 'note_on channel=0 note=62 velocity=67 time=0', 'note_on channel=0 note=81 velocity=73 time=1', 'note_on channel=0 note=62 velocity=0 time=13', 'note_on channel=0 note=81 velocity=0 time=14')
Note: ('note_on channel=0 note=62 velocity=67 time=0', 'note_on channel=0 note=81 velocity=73 time=1', 'note_on channel=0 note=62 velocity=0 time=13', 'note_on channel=0 note=81 velocity=0 time=14', 'note_on channel=0 note=74 velocity=68 time=3')
Note: ('note_on channel=0 note=81 velocity=73 time=1', 'note_on channel=0 note=62 velocity=0 time=13', 'note_on channel=0 note=81 velocity=0 time=14', 'note_on channel=0 note=74 velocity=68 time=3', 'note_on channel=0 note=74 velocity=0 time=36')
Note: ('note_on channel=0 note=62 velocity=0 time=13', 'note_on channel=0 note=81 velocity=0 time=14', 'note_on channel=0 note=74 velocity=68 time=3', 'note_on channel=0 note=74 velocity=0 time=36', 'note_on channel=0 note=69 velocity=59 time=33')
Note: ('note_on channel=0 note=81 velocity=0 time=14', 'note_on channel=0 note=74 velocity=68 time=3', 'note_on channel=0 note=74 velocity=0 time=36', 'note_on channel=0 note=69 velocity=59 time=33', 'note_on channel=0 note=55 velocity=61 time=60')
Note: ('note_on channel=0 note=74 velocity=68 time=3', 'note_on channel=0 note=74 velocity=0 time=36', 'note_on channel=0 note=69 velocity=59 time=33', 'note_on channel=0 note=55 velocity=61 time=60', 'note_on channel=0 note=71 velocity=66 time=4')
Note: ('note_on channel=0 note=74 velocity=0 time=36', 'note_on channel=0 note=69 velocity=59 time=33', 'note_on channel=0 note=55 velocity=61 time=60', 'note_on channel=0 note=71 velocity=66 time=4', 'note_on channel=0 note=69 velocity=0 time=3')
Note: ('note_on channel=0 note=69 velocity=59 time=33', 'note_on channel=0 note=55 velocity=61 time=60', 'note_on channel=0 note=71 velocity=66 time=4', 'note_on channel=0 note=69 velocity=0 time=3', 'note_on channel=0 note=55 velocity=0 time=14')
Note: ('note_on channel=0 note=55 velocity=61 time=60', 'note_on channel=0 note=71 velocity=66 time=4', 'note_on channel=0 note=69 velocity=0 time=3', 'note_on channel=0 note=55 velocity=0 time=14', 'note_on channel=0 note=71 velocity=0 time=13')
Note: ('note_on channel=0 note=71 velocity=66 time=4', 'note_on channel=0 note=69 velocity=0 time=3', 'note_on channel=0 note=55 velocity=0 time=14', 'note_on channel=0 note=71 velocity=0 time=13', 'note_on channel=0 note=73 velocity=68 time=10')
Note: ('note_on channel=0 note=69 velocity=0 time=3', 'note_on channel=0 note=55 velocity=0 time=14', 'note_on channel=0 note=71 velocity=0 time=13', 'note_on channel=0 note=73 velocity=68 time=10', 'note_on channel=0 note=73 velocity=0 time=8')
Note: ('note_on channel=0 note=55 velocity=0 time=14', 'note_on channel=0 note=71 velocity=0 time=13', 'note_on channel=0 note=73 velocity=68 time=10', 'note_on channel=0 note=73 velocity=0 time=8', 'note_on channel=0 note=71 velocity=65 time=1')
Note: ('note_on channel=0 note=71 velocity=0 time=13', 'note_on channel=0 note=73 velocity=68 time=10', 'note_on channel=0 note=73 velocity=0 time=8', 'note_on channel=0 note=71 velocity=65 time=1', 'note_on channel=0 note=64 velocity=59 time=16')
Note: ('note_on channel=0 note=73 velocity=68 time=10', 'note_on channel=0 note=73 velocity=0 time=8', 'note_on channel=0 note=71 velocity=65 time=1', 'note_on channel=0 note=64 velocity=59 time=16', 'note_on channel=0 note=71 velocity=0 time=12')
Note: ('note_on channel=0 note=73 velocity=0 time=8', 'note_on channel=0 note=71 velocity=65 time=1', 'note_on channel=0 note=64 velocity=59 time=16', 'note_on channel=0 note=71 velocity=0 time=12', 'note_on channel=0 note=64 velocity=0 time=9')
Note: ('note_on channel=0 note=71 velocity=65 time=1', 'note_on channel=0 note=64 velocity=59 time=16', 'note_on channel=0 note=71 velocity=0 time=12', 'note_on channel=0 note=64 velocity=0 time=9', 'note_on channel=0 note=69 velocity=68 time=23')
Note: ('note_on channel=0 note=64 velocity=59 time=16', 'note_on channel=0 note=71 velocity=0 time=12', 'note_on channel=0 note=64 velocity=0 time=9', 'note_on channel=0 note=69 velocity=68 time=23', 'note_on channel=0 note=69 velocity=0 time=11')
Note: ('note_on channel=0 note=71 velocity=0 time=12', 'note_on channel=0 note=64 velocity=0 time=9', 'note_on channel=0 note=69 velocity=68 time=23', 'note_on channel=0 note=69 velocity=0 time=11', 'note_on channel=0 note=71 velocity=62 time=1')
Note: ('note_on channel=0 note=64 velocity=0 time=9', 'note_on channel=0 note=69 velocity=68 time=23', 'note_on channel=0 note=69 velocity=0 time=11', 'note_on channel=0 note=71 velocity=62 time=1', 'note_on channel=0 note=57 velocity=61 time=9')
Note: ('note_on channel=0 note=69 velocity=68 time=23', 'note_on channel=0 note=69 velocity=0 time=11', 'note_on channel=0 note=71 velocity=62 time=1', 'note_on channel=0 note=57 velocity=61 time=9', 'note_on channel=0 note=73 velocity=73 time=3')
Note: ('note_on channel=0 note=69 velocity=0 time=11', 'note_on channel=0 note=71 velocity=62 time=1', 'note_on channel=0 note=57 velocity=61 time=9', 'note_on channel=0 note=73 velocity=73 time=3', 'note_on channel=0 note=71 velocity=0 time=3')
Note: ('note_on channel=0 note=71 velocity=62 time=1', 'note_on channel=0 note=57 velocity=61 time=9', 'note_on channel=0 note=73 velocity=73 time=3', 'note_on channel=0 note=71 velocity=0 time=3', 'note_on channel=0 note=57 velocity=0 time=6')
Note: ('note_on channel=0 note=57 velocity=61 time=9', 'note_on channel=0 note=73 velocity=73 time=3', 'note_on channel=0 note=71 velocity=0 time=3', 'note_on channel=0 note=57 velocity=0 time=6', 'note_on channel=0 note=73 velocity=0 time=10')
Note: ('note_on channel=0 note=73 velocity=73 time=3', 'note_on channel=0 note=71 velocity=0 time=3', 'note_on channel=0 note=57 velocity=0 time=6', 'note_on channel=0 note=73 velocity=0 time=10', 'note_on channel=0 note=74 velocity=68 time=5')
Note: ('note_on channel=0 note=71 velocity=0 time=3', 'note_on channel=0 note=57 velocity=0 time=6', 'note_on channel=0 note=73 velocity=0 time=10', 'note_on channel=0 note=74 velocity=68 time=5', 'note_on channel=0 note=73 velocity=67 time=12')
Note: ('note_on channel=0 note=57 velocity=0 time=6', 'note_on channel=0 note=73 velocity=0 time=10', 'note_on channel=0 note=74 velocity=68 time=5', 'note_on channel=0 note=73 velocity=67 time=12', 'note_on channel=0 note=74 velocity=0 time=10')
Note: ('note_on channel=0 note=73 velocity=0 time=10', 'note_on channel=0 note=74 velocity=68 time=5', 'note_on channel=0 note=73 velocity=67 time=12', 'note_on channel=0 note=74 velocity=0 time=10', 'note_on channel=0 note=66 velocity=59 time=24')
Note: ('note_on channel=0 note=74 velocity=68 time=5', 'note_on channel=0 note=73 velocity=67 time=12', 'note_on channel=0 note=74 velocity=0 time=10', 'note_on channel=0 note=66 velocity=59 time=24', 'note_on channel=0 note=73 velocity=0 time=13')
Note: ('note_on channel=0 note=73 velocity=67 time=12', 'note_on channel=0 note=74 velocity=0 time=10', 'note_on channel=0 note=66 velocity=59 time=24', 'note_on channel=0 note=73 velocity=0 time=13', 'note_on channel=0 note=66 velocity=0 time=2')
Note: ('note_on channel=0 note=74 velocity=0 time=10', 'note_on channel=0 note=66 velocity=59 time=24', 'note_on channel=0 note=73 velocity=0 time=13', 'note_on channel=0 note=66 velocity=0 time=2', 'note_on channel=0 note=71 velocity=68 time=11')
Note: ('note_on channel=0 note=66 velocity=59 time=24', 'note_on channel=0 note=73 velocity=0 time=13', 'note_on channel=0 note=66 velocity=0 time=2', 'note_on channel=0 note=71 velocity=68 time=11', 'note_on channel=0 note=73 velocity=59 time=3')
Note: ('note_on channel=0 note=73 velocity=0 time=13', 'note_on channel=0 note=66 velocity=0 time=2', 'note_on channel=0 note=71 velocity=68 time=11', 'note_on channel=0 note=73 velocity=59 time=3', 'note_on channel=0 note=71 velocity=0 time=8')
Note: ('note_on channel=0 note=66 velocity=0 time=2', 'note_on channel=0 note=71 velocity=68 time=11', 'note_on channel=0 note=73 velocity=59 time=3', 'note_on channel=0 note=71 velocity=0 time=8', 'note_on channel=0 note=59 velocity=65 time=13')
Note: ('note_on channel=0 note=71 velocity=68 time=11', 'note_on channel=0 note=73 velocity=59 time=3', 'note_on channel=0 note=71 velocity=0 time=8', 'note_on channel=0 note=59 velocity=65 time=13', 'note_on channel=0 note=74 velocity=80 time=1')
Note: ('note_on channel=0 note=73 velocity=59 time=3', 'note_on channel=0 note=71 velocity=0 time=8', 'note_on channel=0 note=59 velocity=65 time=13', 'note_on channel=0 note=74 velocity=80 time=1', 'note_on channel=0 note=73 velocity=0 time=8')
Note: ('note_on channel=0 note=71 velocity=0 time=8', 'note_on channel=0 note=59 velocity=65 time=13', 'note_on channel=0 note=74 velocity=80 time=1', 'note_on channel=0 note=73 velocity=0 time=8', 'note_on channel=0 note=59 velocity=0 time=4')
Note: ('note_on channel=0 note=59 velocity=65 time=13', 'note_on channel=0 note=74 velocity=80 time=1', 'note_on channel=0 note=73 velocity=0 time=8', 'note_on channel=0 note=59 velocity=0 time=4', 'note_on channel=0 note=74 velocity=0 time=6')
Note: ('note_on channel=0 note=74 velocity=80 time=1', 'note_on channel=0 note=73 velocity=0 time=8', 'note_on channel=0 note=59 velocity=0 time=4', 'note_on channel=0 note=74 velocity=0 time=6', 'note_on channel=0 note=76 velocity=67 time=15')
Note: ('note_on channel=0 note=73 velocity=0 time=8', 'note_on channel=0 note=59 velocity=0 time=4', 'note_on channel=0 note=74 velocity=0 time=6', 'note_on channel=0 note=76 velocity=67 time=15', 'note_on channel=0 note=74 velocity=71 time=60')
Note: ('note_on channel=0 note=59 velocity=0 time=4', 'note_on channel=0 note=74 velocity=0 time=6', 'note_on channel=0 note=76 velocity=67 time=15', 'note_on channel=0 note=74 velocity=71 time=60', 'note_on channel=0 note=76 velocity=0 time=2')
Note: ('note_on channel=0 note=74 velocity=0 time=6', 'note_on channel=0 note=76 velocity=67 time=15', 'note_on channel=0 note=74 velocity=71 time=60', 'note_on channel=0 note=76 velocity=0 time=2', 'note_on channel=0 note=67 velocity=61 time=26')
Note: ('note_on channel=0 note=76 velocity=67 time=15', 'note_on channel=0 note=74 velocity=71 time=60', 'note_on channel=0 note=76 velocity=0 time=2', 'note_on channel=0 note=67 velocity=61 time=26', 'note_on channel=0 note=74 velocity=0 time=19')
Note: ('note_on channel=0 note=74 velocity=71 time=60', 'note_on channel=0 note=76 velocity=0 time=2', 'note_on channel=0 note=67 velocity=61 time=26', 'note_on channel=0 note=74 velocity=0 time=19', 'note_on channel=0 note=67 velocity=0 time=9')
Note: ('note_on channel=0 note=76 velocity=0 time=2', 'note_on channel=0 note=67 velocity=61 time=26', 'note_on channel=0 note=74 velocity=0 time=19', 'note_on channel=0 note=67 velocity=0 time=9', 'note_on channel=0 note=73 velocity=75 time=3')
Note: ('note_on channel=0 note=67 velocity=61 time=26', 'note_on channel=0 note=74 velocity=0 time=19', 'note_on channel=0 note=67 velocity=0 time=9', 'note_on channel=0 note=73 velocity=75 time=3', 'note_on channel=0 note=73 velocity=0 time=48')
Note: ('note_on channel=0 note=74 velocity=0 time=19', 'note_on channel=0 note=67 velocity=0 time=9', 'note_on channel=0 note=73 velocity=75 time=3', 'note_on channel=0 note=73 velocity=0 time=48', 'note_on channel=0 note=74 velocity=69 time=19')
Note: ('note_on channel=0 note=67 velocity=0 time=9', 'note_on channel=0 note=73 velocity=75 time=3', 'note_on channel=0 note=73 velocity=0 time=48', 'note_on channel=0 note=74 velocity=69 time=19', 'note_on channel=0 note=76 velocity=80 time=49')
Note: ('note_on channel=0 note=73 velocity=75 time=3', 'note_on channel=0 note=73 velocity=0 time=48', 'note_on channel=0 note=74 velocity=69 time=19', 'note_on channel=0 note=76 velocity=80 time=49', 'note_on channel=0 note=61 velocity=61 time=6')
Note: ('note_on channel=0 note=73 velocity=0 time=48', 'note_on channel=0 note=74 velocity=69 time=19', 'note_on channel=0 note=76 velocity=80 time=49', 'note_on channel=0 note=61 velocity=61 time=6', 'note_on channel=0 note=74 velocity=0 time=3')
Note: ('note_on channel=0 note=74 velocity=69 time=19', 'note_on channel=0 note=76 velocity=80 time=49', 'note_on channel=0 note=61 velocity=61 time=6', 'note_on channel=0 note=74 velocity=0 time=3', 'note_on channel=0 note=61 velocity=0 time=28')
Note: ('note_on channel=0 note=76 velocity=80 time=49', 'note_on channel=0 note=61 velocity=61 time=6', 'note_on channel=0 note=74 velocity=0 time=3', 'note_on channel=0 note=61 velocity=0 time=28', 'note_on channel=0 note=76 velocity=0 time=30')
Note: ('note_on channel=0 note=61 velocity=61 time=6', 'note_on channel=0 note=74 velocity=0 time=3', 'note_on channel=0 note=61 velocity=0 time=28', 'note_on channel=0 note=76 velocity=0 time=30', 'note_on channel=0 note=78 velocity=77 time=5')
Note: ('note_on channel=0 note=74 velocity=0 time=3', 'note_on channel=0 note=61 velocity=0 time=28', 'note_on channel=0 note=76 velocity=0 time=30', 'note_on channel=0 note=78 velocity=77 time=5', 'note_on channel=0 note=76 velocity=74 time=67')
Note: ('note_on channel=0 note=61 velocity=0 time=28', 'note_on channel=0 note=76 velocity=0 time=30', 'note_on channel=0 note=78 velocity=77 time=5', 'note_on channel=0 note=76 velocity=74 time=67', 'note_on channel=0 note=78 velocity=0 time=26')
Note: ('note_on channel=0 note=76 velocity=0 time=30', 'note_on channel=0 note=78 velocity=77 time=5', 'note_on channel=0 note=76 velocity=74 time=67', 'note_on channel=0 note=78 velocity=0 time=26', 'note_on channel=0 note=69 velocity=66 time=2')
Note: ('note_on channel=0 note=78 velocity=77 time=5', 'note_on channel=0 note=76 velocity=74 time=67', 'note_on channel=0 note=78 velocity=0 time=26', 'note_on channel=0 note=69 velocity=66 time=2', 'note_on channel=0 note=76 velocity=0 time=19')
Note: ('note_on channel=0 note=76 velocity=74 time=67', 'note_on channel=0 note=78 velocity=0 time=26', 'note_on channel=0 note=69 velocity=66 time=2', 'note_on channel=0 note=76 velocity=0 time=19', 'note_on channel=0 note=69 velocity=0 time=6')
Note: ('note_on channel=0 note=78 velocity=0 time=26', 'note_on channel=0 note=69 velocity=66 time=2', 'note_on channel=0 note=76 velocity=0 time=19', 'note_on channel=0 note=69 velocity=0 time=6', 'note_on channel=0 note=74 velocity=79 time=16')
Note: ('note_on channel=0 note=69 velocity=66 time=2', 'note_on channel=0 note=76 velocity=0 time=19', 'note_on channel=0 note=69 velocity=0 time=6', 'note_on channel=0 note=74 velocity=79 time=16', 'note_on channel=0 note=76 velocity=73 time=54')
Note: ('note_on channel=0 note=76 velocity=0 time=19', 'note_on channel=0 note=69 velocity=0 time=6', 'note_on channel=0 note=74 velocity=79 time=16', 'note_on channel=0 note=76 velocity=73 time=54', 'note_on channel=0 note=74 velocity=0 time=7')
Note: ('note_on channel=0 note=69 velocity=0 time=6', 'note_on channel=0 note=74 velocity=79 time=16', 'note_on channel=0 note=76 velocity=73 time=54', 'note_on channel=0 note=74 velocity=0 time=7', 'note_on channel=0 note=62 velocity=66 time=55')
Note: ('note_on channel=0 note=74 velocity=79 time=16', 'note_on channel=0 note=76 velocity=73 time=54', 'note_on channel=0 note=74 velocity=0 time=7', 'note_on channel=0 note=62 velocity=66 time=55', 'note_on channel=0 note=78 velocity=86 time=5')
Note: ('note_on channel=0 note=76 velocity=73 time=54', 'note_on channel=0 note=74 velocity=0 time=7', 'note_on channel=0 note=62 velocity=66 time=55', 'note_on channel=0 note=78 velocity=86 time=5', 'note_on channel=0 note=76 velocity=0 time=16')
Note: ('note_on channel=0 note=74 velocity=0 time=7', 'note_on channel=0 note=62 velocity=66 time=55', 'note_on channel=0 note=78 velocity=86 time=5', 'note_on channel=0 note=76 velocity=0 time=16', 'note_on channel=0 note=62 velocity=0 time=11')
Note: ('note_on channel=0 note=62 velocity=66 time=55', 'note_on channel=0 note=78 velocity=86 time=5', 'note_on channel=0 note=76 velocity=0 time=16', 'note_on channel=0 note=62 velocity=0 time=11', 'note_on channel=0 note=79 velocity=73 time=24')
Note: ('note_on channel=0 note=78 velocity=86 time=5', 'note_on channel=0 note=76 velocity=0 time=16', 'note_on channel=0 note=62 velocity=0 time=11', 'note_on channel=0 note=79 velocity=73 time=24', 'note_on channel=0 note=78 velocity=0 time=6')
Note: ('note_on channel=0 note=76 velocity=0 time=16', 'note_on channel=0 note=62 velocity=0 time=11', 'note_on channel=0 note=79 velocity=73 time=24', 'note_on channel=0 note=78 velocity=0 time=6', 'note_on channel=0 note=78 velocity=72 time=56')
Note: ('note_on channel=0 note=62 velocity=0 time=11', 'note_on channel=0 note=79 velocity=73 time=24', 'note_on channel=0 note=78 velocity=0 time=6', 'note_on channel=0 note=78 velocity=72 time=56', 'note_on channel=0 note=79 velocity=0 time=18')
Note: ('note_on channel=0 note=79 velocity=73 time=24', 'note_on channel=0 note=78 velocity=0 time=6', 'note_on channel=0 note=78 velocity=72 time=56', 'note_on channel=0 note=79 velocity=0 time=18', 'note_on channel=0 note=71 velocity=61 time=26')
Note: ('note_on channel=0 note=78 velocity=0 time=6', 'note_on channel=0 note=78 velocity=72 time=56', 'note_on channel=0 note=79 velocity=0 time=18', 'note_on channel=0 note=71 velocity=61 time=26', 'note_on channel=0 note=78 velocity=0 time=15')
Note: ('note_on channel=0 note=78 velocity=72 time=56', 'note_on channel=0 note=79 velocity=0 time=18', 'note_on channel=0 note=71 velocity=61 time=26', 'note_on channel=0 note=78 velocity=0 time=15', 'note_on channel=0 note=76 velocity=75 time=10')
Note: ('note_on channel=0 note=79 velocity=0 time=18', 'note_on channel=0 note=71 velocity=61 time=26', 'note_on channel=0 note=78 velocity=0 time=15', 'note_on channel=0 note=76 velocity=75 time=10', 'note_on channel=0 note=71 velocity=0 time=1')
Note: ('note_on channel=0 note=71 velocity=61 time=26', 'note_on channel=0 note=78 velocity=0 time=15', 'note_on channel=0 note=76 velocity=75 time=10', 'note_on channel=0 note=71 velocity=0 time=1', 'note_on channel=0 note=78 velocity=79 time=54')
Note: ('note_on channel=0 note=78 velocity=0 time=15', 'note_on channel=0 note=76 velocity=75 time=10', 'note_on channel=0 note=71 velocity=0 time=1', 'note_on channel=0 note=78 velocity=79 time=54', 'note_on channel=0 note=76 velocity=0 time=6')
Note: ('note_on channel=0 note=76 velocity=75 time=10', 'note_on channel=0 note=71 velocity=0 time=1', 'note_on channel=0 note=78 velocity=79 time=54', 'note_on channel=0 note=76 velocity=0 time=6', 'note_on channel=0 note=79 velocity=86 time=60')
Note: ('note_on channel=0 note=71 velocity=0 time=1', 'note_on channel=0 note=78 velocity=79 time=54', 'note_on channel=0 note=76 velocity=0 time=6', 'note_on channel=0 note=79 velocity=86 time=60', 'note_on channel=0 note=64 velocity=67 time=5')
Note: ('note_on channel=0 note=78 velocity=79 time=54', 'note_on channel=0 note=76 velocity=0 time=6', 'note_on channel=0 note=79 velocity=86 time=60', 'note_on channel=0 note=64 velocity=67 time=5', 'note_on channel=0 note=78 velocity=0 time=3')
Note: ('note_on channel=0 note=76 velocity=0 time=6', 'note_on channel=0 note=79 velocity=86 time=60', 'note_on channel=0 note=64 velocity=67 time=5', 'note_on channel=0 note=78 velocity=0 time=3', 'note_on channel=0 note=64 velocity=0 time=28')
Note: ('note_on channel=0 note=79 velocity=86 time=60', 'note_on channel=0 note=64 velocity=67 time=5', 'note_on channel=0 note=78 velocity=0 time=3', 'note_on channel=0 note=64 velocity=0 time=28', 'note_on channel=0 note=81 velocity=77 time=11')
Note: ('note_on channel=0 note=64 velocity=67 time=5', 'note_on channel=0 note=78 velocity=0 time=3', 'note_on channel=0 note=64 velocity=0 time=28', 'note_on channel=0 note=81 velocity=77 time=11', 'note_on channel=0 note=79 velocity=0 time=2')
Note: ('note_on channel=0 note=78 velocity=0 time=3', 'note_on channel=0 note=64 velocity=0 time=28', 'note_on channel=0 note=81 velocity=77 time=11', 'note_on channel=0 note=79 velocity=0 time=2', 'note_on channel=0 note=79 velocity=78 time=65')
Note: ('note_on channel=0 note=64 velocity=0 time=28', 'note_on channel=0 note=81 velocity=77 time=11', 'note_on channel=0 note=79 velocity=0 time=2', 'note_on channel=0 note=79 velocity=78 time=65', 'note_on channel=0 note=81 velocity=0 time=13')
Note: ('note_on channel=0 note=81 velocity=77 time=11', 'note_on channel=0 note=79 velocity=0 time=2', 'note_on channel=0 note=79 velocity=78 time=65', 'note_on channel=0 note=81 velocity=0 time=13', 'note_on channel=0 note=73 velocity=71 time=23')
Note: ('note_on channel=0 note=79 velocity=0 time=2', 'note_on channel=0 note=79 velocity=78 time=65', 'note_on channel=0 note=81 velocity=0 time=13', 'note_on channel=0 note=73 velocity=71 time=23', 'note_on channel=0 note=79 velocity=0 time=22')
Note: ('note_on channel=0 note=79 velocity=78 time=65', 'note_on channel=0 note=81 velocity=0 time=13', 'note_on channel=0 note=73 velocity=71 time=23', 'note_on channel=0 note=79 velocity=0 time=22', 'note_on channel=0 note=78 velocity=80 time=3')
Note: ('note_on channel=0 note=81 velocity=0 time=13', 'note_on channel=0 note=73 velocity=71 time=23', 'note_on channel=0 note=79 velocity=0 time=22', 'note_on channel=0 note=78 velocity=80 time=3', 'note_on channel=0 note=73 velocity=0 time=12')
Note: ('note_on channel=0 note=73 velocity=71 time=23', 'note_on channel=0 note=79 velocity=0 time=22', 'note_on channel=0 note=78 velocity=80 time=3', 'note_on channel=0 note=73 velocity=0 time=12', 'note_on channel=0 note=78 velocity=0 time=49')
Note: ('note_on channel=0 note=79 velocity=0 time=22', 'note_on channel=0 note=78 velocity=80 time=3', 'note_on channel=0 note=73 velocity=0 time=12', 'note_on channel=0 note=78 velocity=0 time=49', 'note_on channel=0 note=79 velocity=78 time=8')
Note: ('note_on channel=0 note=78 velocity=80 time=3', 'note_on channel=0 note=73 velocity=0 time=12', 'note_on channel=0 note=78 velocity=0 time=49', 'note_on channel=0 note=79 velocity=78 time=8', 'note_on channel=0 note=81 velocity=89 time=61')
Note: ('note_on channel=0 note=73 velocity=0 time=12', 'note_on channel=0 note=78 velocity=0 time=49', 'note_on channel=0 note=79 velocity=78 time=8', 'note_on channel=0 note=81 velocity=89 time=61', 'note_on channel=0 note=66 velocity=77 time=1')
Note: ('note_on channel=0 note=78 velocity=0 time=49', 'note_on channel=0 note=79 velocity=78 time=8', 'note_on channel=0 note=81 velocity=89 time=61', 'note_on channel=0 note=66 velocity=77 time=1', 'note_on channel=0 note=79 velocity=0 time=10')
Note: ('note_on channel=0 note=79 velocity=78 time=8', 'note_on channel=0 note=81 velocity=89 time=61', 'note_on channel=0 note=66 velocity=77 time=1', 'note_on channel=0 note=79 velocity=0 time=10', 'note_on channel=0 note=66 velocity=0 time=42')
Note: ('note_on channel=0 note=81 velocity=89 time=61', 'note_on channel=0 note=66 velocity=77 time=1', 'note_on channel=0 note=79 velocity=0 time=10', 'note_on channel=0 note=66 velocity=0 time=42', 'note_on channel=0 note=81 velocity=0 time=11')
Note: ('note_on channel=0 note=66 velocity=77 time=1', 'note_on channel=0 note=79 velocity=0 time=10', 'note_on channel=0 note=66 velocity=0 time=42', 'note_on channel=0 note=81 velocity=0 time=11', 'note_on channel=0 note=83 velocity=79 time=1')
Note: ('note_on channel=0 note=79 velocity=0 time=10', 'note_on channel=0 note=66 velocity=0 time=42', 'note_on channel=0 note=81 velocity=0 time=11', 'note_on channel=0 note=83 velocity=79 time=1', 'note_on channel=0 note=81 velocity=85 time=70')
Note: ('note_on channel=0 note=66 velocity=0 time=42', 'note_on channel=0 note=81 velocity=0 time=11', 'note_on channel=0 note=83 velocity=79 time=1', 'note_on channel=0 note=81 velocity=85 time=70', 'note_on channel=0 note=83 velocity=0 time=15')
Note: ('note_on channel=0 note=81 velocity=0 time=11', 'note_on channel=0 note=83 velocity=79 time=1', 'note_on channel=0 note=81 velocity=85 time=70', 'note_on channel=0 note=83 velocity=0 time=15', 'note_on channel=0 note=74 velocity=82 time=3')
Note: ('note_on channel=0 note=83 velocity=79 time=1', 'note_on channel=0 note=81 velocity=85 time=70', 'note_on channel=0 note=83 velocity=0 time=15', 'note_on channel=0 note=74 velocity=82 time=3', 'note_on channel=0 note=81 velocity=0 time=34')
Note: ('note_on channel=0 note=81 velocity=85 time=70', 'note_on channel=0 note=83 velocity=0 time=15', 'note_on channel=0 note=74 velocity=82 time=3', 'note_on channel=0 note=81 velocity=0 time=34', 'note_on channel=0 note=74 velocity=0 time=6')
Note: ('note_on channel=0 note=83 velocity=0 time=15', 'note_on channel=0 note=74 velocity=82 time=3', 'note_on channel=0 note=81 velocity=0 time=34', 'note_on channel=0 note=74 velocity=0 time=6', 'note_on channel=0 note=79 velocity=81 time=3')
Note: ('note_on channel=0 note=74 velocity=82 time=3', 'note_on channel=0 note=81 velocity=0 time=34', 'note_on channel=0 note=74 velocity=0 time=6', 'note_on channel=0 note=79 velocity=81 time=3', 'note_on channel=0 note=81 velocity=85 time=53')
Note: ('note_on channel=0 note=81 velocity=0 time=34', 'note_on channel=0 note=74 velocity=0 time=6', 'note_on channel=0 note=79 velocity=81 time=3', 'note_on channel=0 note=81 velocity=85 time=53', 'note_on channel=0 note=79 velocity=0 time=8')
Note: ('note_on channel=0 note=74 velocity=0 time=6', 'note_on channel=0 note=79 velocity=81 time=3', 'note_on channel=0 note=81 velocity=85 time=53', 'note_on channel=0 note=79 velocity=0 time=8', 'note_on channel=0 note=67 velocity=83 time=36')
Note: ('note_on channel=0 note=79 velocity=81 time=3', 'note_on channel=0 note=81 velocity=85 time=53', 'note_on channel=0 note=79 velocity=0 time=8', 'note_on channel=0 note=67 velocity=83 time=36', 'note_on channel=0 note=83 velocity=87 time=14')
Note: ('note_on channel=0 note=81 velocity=85 time=53', 'note_on channel=0 note=79 velocity=0 time=8', 'note_on channel=0 note=67 velocity=83 time=36', 'note_on channel=0 note=83 velocity=87 time=14', 'note_on channel=0 note=81 velocity=0 time=12')
Note: ('note_on channel=0 note=79 velocity=0 time=8', 'note_on channel=0 note=67 velocity=83 time=36', 'note_on channel=0 note=83 velocity=87 time=14', 'note_on channel=0 note=81 velocity=0 time=12', 'note_on channel=0 note=83 velocity=0 time=15')
Note: ('note_on channel=0 note=67 velocity=83 time=36', 'note_on channel=0 note=83 velocity=87 time=14', 'note_on channel=0 note=81 velocity=0 time=12', 'note_on channel=0 note=83 velocity=0 time=15', 'note_on channel=0 note=67 velocity=0 time=4')
Note: ('note_on channel=0 note=83 velocity=87 time=14', 'note_on channel=0 note=81 velocity=0 time=12', 'note_on channel=0 note=83 velocity=0 time=15', 'note_on channel=0 note=67 velocity=0 time=4', 'note_on channel=0 note=69 velocity=79 time=147')
Note: ('note_on channel=0 note=81 velocity=0 time=12', 'note_on channel=0 note=83 velocity=0 time=15', 'note_on channel=0 note=67 velocity=0 time=4', 'note_on channel=0 note=69 velocity=79 time=147', 'note_on channel=0 note=85 velocity=87 time=2')
Note: ('note_on channel=0 note=83 velocity=0 time=15', 'note_on channel=0 note=67 velocity=0 time=4', 'note_on channel=0 note=69 velocity=79 time=147', 'note_on channel=0 note=85 velocity=87 time=2', 'note_on channel=0 note=69 velocity=0 time=47')
Note: ('note_on channel=0 note=67 velocity=0 time=4', 'note_on channel=0 note=69 velocity=79 time=147', 'note_on channel=0 note=85 velocity=87 time=2', 'note_on channel=0 note=69 velocity=0 time=47', 'note_on channel=0 note=85 velocity=0 time=25')
Note: ('note_on channel=0 note=69 velocity=79 time=147', 'note_on channel=0 note=85 velocity=87 time=2', 'note_on channel=0 note=69 velocity=0 time=47', 'note_on channel=0 note=85 velocity=0 time=25', 'note_on channel=0 note=86 velocity=87 time=95')
Note: ('note_on channel=0 note=85 velocity=87 time=2', 'note_on channel=0 note=69 velocity=0 time=47', 'note_on channel=0 note=85 velocity=0 time=25', 'note_on channel=0 note=86 velocity=87 time=95', 'note_on channel=0 note=71 velocity=89 time=2')
Note: ('note_on channel=0 note=69 velocity=0 time=47', 'note_on channel=0 note=85 velocity=0 time=25', 'note_on channel=0 note=86 velocity=87 time=95', 'note_on channel=0 note=71 velocity=89 time=2', 'note_on channel=0 note=71 velocity=0 time=48')
Note: ('note_on channel=0 note=85 velocity=0 time=25', 'note_on channel=0 note=86 velocity=87 time=95', 'note_on channel=0 note=71 velocity=89 time=2', 'note_on channel=0 note=71 velocity=0 time=48', 'note_on channel=0 note=85 velocity=82 time=31')
Note: ('note_on channel=0 note=86 velocity=87 time=95', 'note_on channel=0 note=71 velocity=89 time=2', 'note_on channel=0 note=71 velocity=0 time=48', 'note_on channel=0 note=85 velocity=82 time=31', 'note_on channel=0 note=86 velocity=0 time=31')
Note: ('note_on channel=0 note=71 velocity=89 time=2', 'note_on channel=0 note=71 velocity=0 time=48', 'note_on channel=0 note=85 velocity=82 time=31', 'note_on channel=0 note=86 velocity=0 time=31', 'note_on channel=0 note=83 velocity=79 time=47')
Note: ('note_on channel=0 note=71 velocity=0 time=48', 'note_on channel=0 note=85 velocity=82 time=31', 'note_on channel=0 note=86 velocity=0 time=31', 'note_on channel=0 note=83 velocity=79 time=47', 'note_on channel=0 note=85 velocity=0 time=29')
Note: ('note_on channel=0 note=85 velocity=82 time=31', 'note_on channel=0 note=86 velocity=0 time=31', 'note_on channel=0 note=83 velocity=79 time=47', 'note_on channel=0 note=85 velocity=0 time=29', 'note_on channel=0 note=81 velocity=89 time=50')
Note: ('note_on channel=0 note=86 velocity=0 time=31', 'note_on channel=0 note=83 velocity=79 time=47', 'note_on channel=0 note=85 velocity=0 time=29', 'note_on channel=0 note=81 velocity=89 time=50', 'note_on channel=0 note=83 velocity=0 time=30')
Note: ('note_on channel=0 note=83 velocity=79 time=47', 'note_on channel=0 note=85 velocity=0 time=29', 'note_on channel=0 note=81 velocity=89 time=50', 'note_on channel=0 note=83 velocity=0 time=30', 'note_on channel=0 note=81 velocity=0 time=47')
Note: ('note_on channel=0 note=85 velocity=0 time=29', 'note_on channel=0 note=81 velocity=89 time=50', 'note_on channel=0 note=83 velocity=0 time=30', 'note_on channel=0 note=81 velocity=0 time=47', 'note_on channel=0 note=67 velocity=81 time=1')
Note: ('note_on channel=0 note=81 velocity=89 time=50', 'note_on channel=0 note=83 velocity=0 time=30', 'note_on channel=0 note=81 velocity=0 time=47', 'note_on channel=0 note=67 velocity=81 time=1', 'note_on channel=0 note=79 velocity=87 time=5')
Note: ('note_on channel=0 note=83 velocity=0 time=30', 'note_on channel=0 note=81 velocity=0 time=47', 'note_on channel=0 note=67 velocity=81 time=1', 'note_on channel=0 note=79 velocity=87 time=5', 'note_on channel=0 note=67 velocity=0 time=41')
Note: ('note_on channel=0 note=81 velocity=0 time=47', 'note_on channel=0 note=67 velocity=81 time=1', 'note_on channel=0 note=79 velocity=87 time=5', 'note_on channel=0 note=67 velocity=0 time=41', 'note_on channel=0 note=69 velocity=16 time=5')
Note: ('note_on channel=0 note=67 velocity=81 time=1', 'note_on channel=0 note=79 velocity=87 time=5', 'note_on channel=0 note=67 velocity=0 time=41', 'note_on channel=0 note=69 velocity=16 time=5', 'note_on channel=0 note=78 velocity=87 time=31')
Note: ('note_on channel=0 note=79 velocity=87 time=5', 'note_on channel=0 note=67 velocity=0 time=41', 'note_on channel=0 note=69 velocity=16 time=5', 'note_on channel=0 note=78 velocity=87 time=31', 'note_on channel=0 note=79 velocity=0 time=8')
Note: ('note_on channel=0 note=67 velocity=0 time=41', 'note_on channel=0 note=69 velocity=16 time=5', 'note_on channel=0 note=78 velocity=87 time=31', 'note_on channel=0 note=79 velocity=0 time=8', 'note_on channel=0 note=69 velocity=0 time=8')
Note: ('note_on channel=0 note=69 velocity=16 time=5', 'note_on channel=0 note=78 velocity=87 time=31', 'note_on channel=0 note=79 velocity=0 time=8', 'note_on channel=0 note=69 velocity=0 time=8', 'note_on channel=0 note=76 velocity=84 time=58')
Note: ('note_on channel=0 note=78 velocity=87 time=31', 'note_on channel=0 note=79 velocity=0 time=8', 'note_on channel=0 note=69 velocity=0 time=8', 'note_on channel=0 note=76 velocity=84 time=58', 'note_on channel=0 note=78 velocity=0 time=18')
Note: ('note_on channel=0 note=79 velocity=0 time=8', 'note_on channel=0 note=69 velocity=0 time=8', 'note_on channel=0 note=76 velocity=84 time=58', 'note_on channel=0 note=78 velocity=0 time=18', 'note_on channel=0 note=76 velocity=0 time=59')
Note: ('note_on channel=0 note=69 velocity=0 time=8', 'note_on channel=0 note=76 velocity=84 time=58', 'note_on channel=0 note=78 velocity=0 time=18', 'note_on channel=0 note=76 velocity=0 time=59', 'note_on channel=0 note=74 velocity=88 time=4')
Note: ('note_on channel=0 note=76 velocity=84 time=58', 'note_on channel=0 note=78 velocity=0 time=18', 'note_on channel=0 note=76 velocity=0 time=59', 'note_on channel=0 note=74 velocity=88 time=4', 'note_on channel=0 note=69 velocity=71 time=68')
Note: ('note_on channel=0 note=78 velocity=0 time=18', 'note_on channel=0 note=76 velocity=0 time=59', 'note_on channel=0 note=74 velocity=88 time=4', 'note_on channel=0 note=69 velocity=71 time=68', 'note_on channel=0 note=76 velocity=85 time=17')
Note: ('note_on channel=0 note=76 velocity=0 time=59', 'note_on channel=0 note=74 velocity=88 time=4', 'note_on channel=0 note=69 velocity=71 time=68', 'note_on channel=0 note=76 velocity=85 time=17', 'note_on channel=0 note=74 velocity=0 time=23')
Note: ('note_on channel=0 note=74 velocity=88 time=4', 'note_on channel=0 note=69 velocity=71 time=68', 'note_on channel=0 note=76 velocity=85 time=17', 'note_on channel=0 note=74 velocity=0 time=23', 'note_on channel=0 note=69 velocity=0 time=35')
Note: ('note_on channel=0 note=69 velocity=71 time=68', 'note_on channel=0 note=76 velocity=85 time=17', 'note_on channel=0 note=74 velocity=0 time=23', 'note_on channel=0 note=69 velocity=0 time=35', 'note_on channel=0 note=81 velocity=86 time=29')
Note: ('note_on channel=0 note=76 velocity=85 time=17', 'note_on channel=0 note=74 velocity=0 time=23', 'note_on channel=0 note=69 velocity=0 time=35', 'note_on channel=0 note=81 velocity=86 time=29', 'note_on channel=0 note=76 velocity=0 time=11')
Note: ('note_on channel=0 note=74 velocity=0 time=23', 'note_on channel=0 note=69 velocity=0 time=35', 'note_on channel=0 note=81 velocity=86 time=29', 'note_on channel=0 note=76 velocity=0 time=11', 'note_on channel=0 note=79 velocity=81 time=73')
Note: ('note_on channel=0 note=69 velocity=0 time=35', 'note_on channel=0 note=81 velocity=86 time=29', 'note_on channel=0 note=76 velocity=0 time=11', 'note_on channel=0 note=79 velocity=81 time=73', 'note_on channel=0 note=81 velocity=0 time=30')
Note: ('note_on channel=0 note=81 velocity=86 time=29', 'note_on channel=0 note=76 velocity=0 time=11', 'note_on channel=0 note=79 velocity=81 time=73', 'note_on channel=0 note=81 velocity=0 time=30', 'note_on channel=0 note=78 velocity=79 time=46')
Note: ('note_on channel=0 note=76 velocity=0 time=11', 'note_on channel=0 note=79 velocity=81 time=73', 'note_on channel=0 note=81 velocity=0 time=30', 'note_on channel=0 note=78 velocity=79 time=46', 'note_on channel=0 note=79 velocity=0 time=27')
Note: ('note_on channel=0 note=79 velocity=81 time=73', 'note_on channel=0 note=81 velocity=0 time=30', 'note_on channel=0 note=78 velocity=79 time=46', 'note_on channel=0 note=79 velocity=0 time=27', 'note_on channel=0 note=57 velocity=59 time=62')
Note: ('note_on channel=0 note=81 velocity=0 time=30', 'note_on channel=0 note=78 velocity=79 time=46', 'note_on channel=0 note=79 velocity=0 time=27', 'note_on channel=0 note=57 velocity=59 time=62', 'note_on channel=0 note=76 velocity=74 time=0')
Note: ('note_on channel=0 note=78 velocity=79 time=46', 'note_on channel=0 note=79 velocity=0 time=27', 'note_on channel=0 note=57 velocity=59 time=62', 'note_on channel=0 note=76 velocity=74 time=0', 'note_on channel=0 note=78 velocity=0 time=33')
Note: ('note_on channel=0 note=79 velocity=0 time=27', 'note_on channel=0 note=57 velocity=59 time=62', 'note_on channel=0 note=76 velocity=74 time=0', 'note_on channel=0 note=78 velocity=0 time=33', 'note_on channel=0 note=76 velocity=0 time=28')
Note: ('note_on channel=0 note=57 velocity=59 time=62', 'note_on channel=0 note=76 velocity=74 time=0', 'note_on channel=0 note=78 velocity=0 time=33', 'note_on channel=0 note=76 velocity=0 time=28', 'note_on channel=0 note=74 velocity=74 time=13')
Note: ('note_on channel=0 note=76 velocity=74 time=0', 'note_on channel=0 note=78 velocity=0 time=33', 'note_on channel=0 note=76 velocity=0 time=28', 'note_on channel=0 note=74 velocity=74 time=13', 'note_on channel=0 note=57 velocity=0 time=4')
Note: ('note_on channel=0 note=78 velocity=0 time=33', 'note_on channel=0 note=76 velocity=0 time=28', 'note_on channel=0 note=74 velocity=74 time=13', 'note_on channel=0 note=57 velocity=0 time=4', 'note_on channel=0 note=73 velocity=78 time=5')
Note: ('note_on channel=0 note=76 velocity=0 time=28', 'note_on channel=0 note=74 velocity=74 time=13', 'note_on channel=0 note=57 velocity=0 time=4', 'note_on channel=0 note=73 velocity=78 time=5', 'note_on channel=0 note=74 velocity=0 time=0')
Note: ('note_on channel=0 note=74 velocity=74 time=13', 'note_on channel=0 note=57 velocity=0 time=4', 'note_on channel=0 note=73 velocity=78 time=5', 'note_on channel=0 note=74 velocity=0 time=0', 'note_on channel=0 note=71 velocity=79 time=18')
Note: ('note_on channel=0 note=57 velocity=0 time=4', 'note_on channel=0 note=73 velocity=78 time=5', 'note_on channel=0 note=74 velocity=0 time=0', 'note_on channel=0 note=71 velocity=79 time=18', 'note_on channel=0 note=73 velocity=0 time=33')
Note: ('note_on channel=0 note=73 velocity=78 time=5', 'note_on channel=0 note=74 velocity=0 time=0', 'note_on channel=0 note=71 velocity=79 time=18', 'note_on channel=0 note=73 velocity=0 time=33', 'note_on channel=0 note=69 velocity=79 time=6')
Note: ('note_on channel=0 note=74 velocity=0 time=0', 'note_on channel=0 note=71 velocity=79 time=18', 'note_on channel=0 note=73 velocity=0 time=33', 'note_on channel=0 note=69 velocity=79 time=6', 'note_on channel=0 note=71 velocity=0 time=22')
Note: ('note_on channel=0 note=71 velocity=79 time=18', 'note_on channel=0 note=73 velocity=0 time=33', 'note_on channel=0 note=69 velocity=79 time=6', 'note_on channel=0 note=71 velocity=0 time=22', 'note_on channel=0 note=69 velocity=0 time=24')
Note: ('note_on channel=0 note=73 velocity=0 time=33', 'note_on channel=0 note=69 velocity=79 time=6', 'note_on channel=0 note=71 velocity=0 time=22', 'note_on channel=0 note=69 velocity=0 time=24', 'note_on channel=0 note=71 velocity=65 time=12')
Note: ('note_on channel=0 note=69 velocity=79 time=6', 'note_on channel=0 note=71 velocity=0 time=22', 'note_on channel=0 note=69 velocity=0 time=24', 'note_on channel=0 note=71 velocity=65 time=12', 'note_on channel=0 note=71 velocity=0 time=7')
Note: ('note_on channel=0 note=71 velocity=0 time=22', 'note_on channel=0 note=69 velocity=0 time=24', 'note_on channel=0 note=71 velocity=65 time=12', 'note_on channel=0 note=71 velocity=0 time=7', 'note_on channel=0 note=69 velocity=68 time=4')
Note: ('note_on channel=0 note=69 velocity=0 time=24', 'note_on channel=0 note=71 velocity=65 time=12', 'note_on channel=0 note=71 velocity=0 time=7', 'note_on channel=0 note=69 velocity=68 time=4', 'note_on channel=0 note=69 velocity=0 time=14')
Note: ('note_on channel=0 note=71 velocity=65 time=12', 'note_on channel=0 note=71 velocity=0 time=7', 'note_on channel=0 note=69 velocity=68 time=4', 'note_on channel=0 note=69 velocity=0 time=14', 'note_on channel=0 note=71 velocity=61 time=6')
Note: ('note_on channel=0 note=71 velocity=0 time=7', 'note_on channel=0 note=69 velocity=68 time=4', 'note_on channel=0 note=69 velocity=0 time=14', 'note_on channel=0 note=71 velocity=61 time=6', 'note_on channel=0 note=69 velocity=60 time=55')
Note: ('note_on channel=0 note=69 velocity=68 time=4', 'note_on channel=0 note=69 velocity=0 time=14', 'note_on channel=0 note=71 velocity=61 time=6', 'note_on channel=0 note=69 velocity=60 time=55', 'note_on channel=0 note=71 velocity=0 time=3')
Note: ('note_on channel=0 note=69 velocity=0 time=14', 'note_on channel=0 note=71 velocity=61 time=6', 'note_on channel=0 note=69 velocity=60 time=55', 'note_on channel=0 note=71 velocity=0 time=3', 'note_on channel=0 note=71 velocity=64 time=48')
Note: ('note_on channel=0 note=71 velocity=61 time=6', 'note_on channel=0 note=69 velocity=60 time=55', 'note_on channel=0 note=71 velocity=0 time=3', 'note_on channel=0 note=71 velocity=64 time=48', 'note_on channel=0 note=54 velocity=57 time=3')
Note: ('note_on channel=0 note=69 velocity=60 time=55', 'note_on channel=0 note=71 velocity=0 time=3', 'note_on channel=0 note=71 velocity=64 time=48', 'note_on channel=0 note=54 velocity=57 time=3', 'note_on channel=0 note=69 velocity=0 time=0')
Note: ('note_on channel=0 note=71 velocity=0 time=3', 'note_on channel=0 note=71 velocity=64 time=48', 'note_on channel=0 note=54 velocity=57 time=3', 'note_on channel=0 note=69 velocity=0 time=0', 'note_on channel=0 note=69 velocity=61 time=55')
Note: ('note_on channel=0 note=71 velocity=64 time=48', 'note_on channel=0 note=54 velocity=57 time=3', 'note_on channel=0 note=69 velocity=0 time=0', 'note_on channel=0 note=69 velocity=61 time=55', 'note_on channel=0 note=71 velocity=0 time=2')
Note: ('note_on channel=0 note=54 velocity=57 time=3', 'note_on channel=0 note=69 velocity=0 time=0', 'note_on channel=0 note=69 velocity=61 time=55', 'note_on channel=0 note=71 velocity=0 time=2', 'note_on channel=0 note=69 velocity=0 time=51')
Note: ('note_on channel=0 note=69 velocity=0 time=0', 'note_on channel=0 note=69 velocity=61 time=55', 'note_on channel=0 note=71 velocity=0 time=2', 'note_on channel=0 note=69 velocity=0 time=51', 'note_on channel=0 note=71 velocity=65 time=0')
Note: ('note_on channel=0 note=69 velocity=61 time=55', 'note_on channel=0 note=71 velocity=0 time=2', 'note_on channel=0 note=69 velocity=0 time=51', 'note_on channel=0 note=71 velocity=65 time=0', 'note_on channel=0 note=62 velocity=70 time=33')
Note: ('note_on channel=0 note=71 velocity=0 time=2', 'note_on channel=0 note=69 velocity=0 time=51', 'note_on channel=0 note=71 velocity=65 time=0', 'note_on channel=0 note=62 velocity=70 time=33', 'note_on channel=0 note=69 velocity=69 time=25')
Note: ('note_on channel=0 note=69 velocity=0 time=51', 'note_on channel=0 note=71 velocity=65 time=0', 'note_on channel=0 note=62 velocity=70 time=33', 'note_on channel=0 note=69 velocity=69 time=25', 'note_on channel=0 note=71 velocity=0 time=8')
Note: ('note_on channel=0 note=71 velocity=65 time=0', 'note_on channel=0 note=62 velocity=70 time=33', 'note_on channel=0 note=69 velocity=69 time=25', 'note_on channel=0 note=71 velocity=0 time=8', 'note_on channel=0 note=62 velocity=0 time=14')
Note: ('note_on channel=0 note=62 velocity=70 time=33', 'note_on channel=0 note=69 velocity=69 time=25', 'note_on channel=0 note=71 velocity=0 time=8', 'note_on channel=0 note=62 velocity=0 time=14', 'note_on channel=0 note=54 velocity=0 time=30')
Note: ('note_on channel=0 note=69 velocity=69 time=25', 'note_on channel=0 note=71 velocity=0 time=8', 'note_on channel=0 note=62 velocity=0 time=14', 'note_on channel=0 note=54 velocity=0 time=30', 'note_on channel=0 note=69 velocity=0 time=1')
Note: ('note_on channel=0 note=71 velocity=0 time=8', 'note_on channel=0 note=62 velocity=0 time=14', 'note_on channel=0 note=54 velocity=0 time=30', 'note_on channel=0 note=69 velocity=0 time=1', 'note_on channel=0 note=67 velocity=79 time=2')
Note: ('note_on channel=0 note=62 velocity=0 time=14', 'note_on channel=0 note=54 velocity=0 time=30', 'note_on channel=0 note=69 velocity=0 time=1', 'note_on channel=0 note=67 velocity=79 time=2', 'note_on channel=0 note=69 velocity=73 time=54')
Note: ('note_on channel=0 note=54 velocity=0 time=30', 'note_on channel=0 note=69 velocity=0 time=1', 'note_on channel=0 note=67 velocity=79 time=2', 'note_on channel=0 note=69 velocity=73 time=54', 'note_on channel=0 note=67 velocity=0 time=21')
Note: ('note_on channel=0 note=69 velocity=0 time=1', 'note_on channel=0 note=67 velocity=79 time=2', 'note_on channel=0 note=69 velocity=73 time=54', 'note_on channel=0 note=67 velocity=0 time=21', 'note_on channel=0 note=55 velocity=75 time=65')
Note: ('note_on channel=0 note=67 velocity=79 time=2', 'note_on channel=0 note=69 velocity=73 time=54', 'note_on channel=0 note=67 velocity=0 time=21', 'note_on channel=0 note=55 velocity=75 time=65', 'note_on channel=0 note=71 velocity=71 time=96')
Note: ('note_on channel=0 note=69 velocity=73 time=54', 'note_on channel=0 note=67 velocity=0 time=21', 'note_on channel=0 note=55 velocity=75 time=65', 'note_on channel=0 note=71 velocity=71 time=96', 'note_on channel=0 note=69 velocity=0 time=11')
Note: ('note_on channel=0 note=67 velocity=0 time=21', 'note_on channel=0 note=55 velocity=75 time=65', 'note_on channel=0 note=71 velocity=71 time=96', 'note_on channel=0 note=69 velocity=0 time=11', 'note_on channel=0 note=71 velocity=0 time=15')
Note: ('note_on channel=0 note=55 velocity=75 time=65', 'note_on channel=0 note=71 velocity=71 time=96', 'note_on channel=0 note=69 velocity=0 time=11', 'note_on channel=0 note=71 velocity=0 time=15', 'note_on channel=0 note=73 velocity=69 time=7')
Note: ('note_on channel=0 note=71 velocity=71 time=96', 'note_on channel=0 note=69 velocity=0 time=11', 'note_on channel=0 note=71 velocity=0 time=15', 'note_on channel=0 note=73 velocity=69 time=7', 'note_on channel=0 note=71 velocity=67 time=3')
Note: ('note_on channel=0 note=69 velocity=0 time=11', 'note_on channel=0 note=71 velocity=0 time=15', 'note_on channel=0 note=73 velocity=69 time=7', 'note_on channel=0 note=71 velocity=67 time=3', 'note_on channel=0 note=64 velocity=64 time=1')
Note: ('note_on channel=0 note=71 velocity=0 time=15', 'note_on channel=0 note=73 velocity=69 time=7', 'note_on channel=0 note=71 velocity=67 time=3', 'note_on channel=0 note=64 velocity=64 time=1', 'note_on channel=0 note=73 velocity=0 time=0')
Note: ('note_on channel=0 note=73 velocity=69 time=7', 'note_on channel=0 note=71 velocity=67 time=3', 'note_on channel=0 note=64 velocity=64 time=1', 'note_on channel=0 note=73 velocity=0 time=0', 'note_on channel=0 note=71 velocity=0 time=15')
Note: ('note_on channel=0 note=71 velocity=67 time=3', 'note_on channel=0 note=64 velocity=64 time=1', 'note_on channel=0 note=73 velocity=0 time=0', 'note_on channel=0 note=71 velocity=0 time=15', 'note_on channel=0 note=64 velocity=0 time=7')
Note: ('note_on channel=0 note=64 velocity=64 time=1', 'note_on channel=0 note=73 velocity=0 time=0', 'note_on channel=0 note=71 velocity=0 time=15', 'note_on channel=0 note=64 velocity=0 time=7', 'note_on channel=0 note=55 velocity=0 time=5')
