
Note: note_on channel=0 note=62 velocity=86 time=337
Note: note_on channel=0 note=62 velocity=0 time=12
Note: note_on channel=0 note=81 velocity=0 time=0
Note: note_on channel=0 note=78 velocity=97 time=304
Note: note_on channel=0 note=74 velocity=82 time=7
Note: note_on channel=0 note=74 velocity=0 time=319
Note: note_on channel=0 note=73 velocity=73 time=36
Note: note_on channel=0 note=76 velocity=79 time=7
Note: note_on channel=0 note=78 velocity=0 time=2
Note: note_on channel=0 note=73 velocity=0 time=25
Note: note_on channel=0 note=76 velocity=0 time=11
Note: note_on channel=0 note=71 velocity=78 time=65
Note: note_on channel=0 note=74 velocity=72 time=4
Note: note_on channel=0 note=71 velocity=0 time=26
Note: note_on channel=0 note=74 velocity=0 time=11
Note: note_on channel=0 note=73 velocity=79 time=54
Note: note_on channel=0 note=69 velocity=76 time=9
Note: note_on channel=0 note=69 velocity=0 time=24
Note: note_on channel=0 note=73 velocity=0 time=22
Note: note_on channel=0 note=71 velocity=83 time=54
Note: note_on channel=0 note=67 velocity=78 time=1
Note: note_on channel=0 note=67 velocity=0 time=29
Note: note_on channel=0 note=71 velocity=0 time=14
Note: note_on channel=0 note=69 velocity=77 time=60
Note: note_on channel=0 note=66 velocity=76 time=1
Note: note_on channel=0 note=66 velocity=0 time=27
Note: note_on channel=0 note=69 velocity=0 time=11
Note: note_on channel=0 note=64 velocity=73 time=63
Note: note_on channel=0 note=67 velocity=72 time=0
Note: note_on channel=0 note=64 velocity=0 time=37
Note: note_on channel=0 note=67 velocity=0 time=22
Note: note_on channel=0 note=62 velocity=80 time=66
Note: note_on channel=0 note=66 velocity=85 time=0
Note: note_on channel=0 note=62 velocity=0 time=21
Note: note_on channel=0 note=66 velocity=0 time=7
Note: note_on channel=0 note=81 velocity=96 time=1
Note: note_on channel=0 note=78 velocity=81 time=7
Note: note_on channel=0 note=78 velocity=0 time=338
Note: note_on channel=0 note=81 velocity=0 time=12
Note: note_on channel=0 note=79 velocity=84 time=13
Note: note_on channel=0 note=76 velocity=70 time=15
Note: note_on channel=0 note=76 velocity=0 time=27
Note: note_on channel=0 note=79 velocity=0 time=17
Note: note_on channel=0 note=78 velocity=89 time=50
Note: note_on channel=0 note=74 velocity=81 time=7
Note: note_on channel=0 note=74 velocity=0 time=34
Note: note_on channel=0 note=78 velocity=0 time=19
Note: note_on channel=0 note=76 velocity=92 time=47
Note: note_on channel=0 note=73 velocity=83 time=1
Note: note_on channel=0 note=76 velocity=0 time=46
Note: note_on channel=0 note=73 velocity=0 time=4
Note: note_on channel=0 note=74 velocity=89 time=48
Note: note_on channel=0 note=71 velocity=79 time=8
Note: note_on channel=0 note=71 velocity=0 time=38
Note: note_on channel=0 note=74 velocity=0 time=10
Note: note_on channel=0 note=73 velocity=90 time=48
Note: note_on channel=0 note=69 velocity=81 time=6
Note: note_on channel=0 note=69 velocity=0 time=25
Note: note_on channel=0 note=73 velocity=0 time=28
Note: note_on channel=0 note=67 velocity=79 time=42
Note: note_on channel=0 note=71 velocity=88 time=5
Note: note_on channel=0 note=67 velocity=0 time=25
Note: note_on channel=0 note=71 velocity=0 time=19
Note: note_on channel=0 note=66 velocity=80 time=70
Note: note_on channel=0 note=69 velocity=82 time=6
Note: note_on channel=0 note=66 velocity=0 time=23
Note: note_on channel=0 note=69 velocity=0 time=6
Note: note_on channel=0 note=86 velocity=87 time=2
Note: note_on channel=0 note=66 velocity=61 time=9
Note: note_on channel=0 note=66 velocity=0 time=37
Note: note_on channel=0 note=81 velocity=90 time=34
Note: note_on channel=0 note=86 velocity=0 time=23
Note: note_on channel=0 note=81 velocity=0 time=64
Note: note_on channel=0 note=74 velocity=92 time=6
Note: note_on channel=0 note=67 velocity=60 time=141
Note: note_on channel=0 note=74 velocity=0 time=0
Note: note_on channel=0 note=78 velocity=75 time=2
Note: note_on channel=0 note=78 velocity=0 time=72
Note: note_on channel=0 note=76 velocity=74 time=4
Note: note_on channel=0 note=67 velocity=0 time=18
Note: note_on channel=0 note=76 velocity=0 time=39
Note: note_on channel=0 note=78 velocity=74 time=2
Note: note_on channel=0 note=76 velocity=71 time=11
Note: note_on channel=0 note=78 velocity=0 time=3
Note: note_on channel=0 note=76 velocity=0 time=15
Note: note_on channel=0 note=78 velocity=72 time=2
Note: note_on channel=0 note=76 velocity=71 time=11
Note: note_on channel=0 note=78 velocity=0 time=0
Note: note_on channel=0 note=76 velocity=0 time=15
Note: note_on channel=0 note=78 velocity=70 time=2
Note: note_on channel=0 note=69 velocity=62 time=8
Note: note_on channel=0 note=69 velocity=0 time=10
Note: note_on channel=0 note=76 velocity=67 time=3
Note: note_on channel=0 note=78 velocity=0 time=2
Note: note_on channel=0 note=76 velocity=0 time=51
Note: note_on channel=0 note=78 velocity=72 time=8
Note: note_on channel=0 note=76 velocity=68 time=10
Note: note_on channel=0 note=78 velocity=0 time=0
Note: note_on channel=0 note=76 velocity=0 time=0
Note: note_on channel=0 note=74 velocity=71 time=7
Note: note_on channel=0 note=74 velocity=0 time=11
Note: note_on channel=0 note=76 velocity=70 time=3
Note: note_on channel=0 note=76 velocity=0 time=0
Note: note_on channel=0 note=62 velocity=46 time=5
Note: note_on channel=0 note=78 velocity=70 time=0
Note: note_on channel=0 note=78 velocity=0 time=8
Note: note_on channel=0 note=62 velocity=0 time=6
Note: note_on channel=0 note=62 velocity=67 time=0
Note: note_on channel=0 note=81 velocity=73 time=1
Note: note_on channel=0 note=62 velocity=0 time=13
Note: note_on channel=0 note=81 velocity=0 time=14
Note: note_on channel=0 note=74 velocity=68 time=3
Note: note_on channel=0 note=74 velocity=0 time=36
Note: note_on channel=0 note=69 velocity=59 time=33
Note: note_on channel=0 note=55 velocity=61 time=60
Note: note_on channel=0 note=71 velocity=66 time=4
Note: note_on channel=0 note=69 velocity=0 time=3
Note: note_on channel=0 note=55 velocity=0 time=14
Note: note_on channel=0 note=71 velocity=0 time=13
Note: note_on channel=0 note=73 velocity=68 time=10
Note: note_on channel=0 note=73 velocity=0 time=8
Note: note_on channel=0 note=71 velocity=65 time=1
Note: note_on channel=0 note=64 velocity=59 time=16
Note: note_on channel=0 note=71 velocity=0 time=12
Note: note_on channel=0 note=64 velocity=0 time=9
Note: note_on channel=0 note=69 velocity=68 time=23
Note: note_on channel=0 note=69 velocity=0 time=11
Note: note_on channel=0 note=71 velocity=62 time=1
Note: note_on channel=0 note=57 velocity=61 time=9
Note: note_on channel=0 note=73 velocity=73 time=3
Note: note_on channel=0 note=71 velocity=0 time=3
Note: note_on channel=0 note=57 velocity=0 time=6
Note: note_on channel=0 note=73 velocity=0 time=10
Note: note_on channel=0 note=74 velocity=68 time=5
Note: note_on channel=0 note=73 velocity=67 time=12
Note: note_on channel=0 note=74 velocity=0 time=10
Note: note_on channel=0 note=66 velocity=59 time=24
Note: note_on channel=0 note=73 velocity=0 time=13
Note: note_on channel=0 note=66 velocity=0 time=2
Note: note_on channel=0 note=71 velocity=68 time=11
Note: note_on channel=0 note=73 velocity=59 time=3
Note: note_on channel=0 note=71 velocity=0 time=8
Note: note_on channel=0 note=59 velocity=65 time=13
Note: note_on channel=0 note=74 velocity=80 time=1
Note: note_on channel=0 note=73 velocity=0 time=8
Note: note_on channel=0 note=59 velocity=0 time=4
Note: note_on channel=0 note=74 velocity=0 time=6
Note: note_on channel=0 note=76 velocity=67 time=15
Note: note_on channel=0 note=74 velocity=71 time=60
Note: note_on channel=0 note=76 velocity=0 time=2
Note: note_on channel=0 note=67 velocity=61 time=26
Note: note_on channel=0 note=74 velocity=0 time=19
Note: note_on channel=0 note=67 velocity=0 time=9
Note: note_on channel=0 note=73 velocity=75 time=3
Note: note_on channel=0 note=73 velocity=0 time=48
Note: note_on channel=0 note=74 velocity=69 time=19
Note: note_on channel=0 note=76 velocity=80 time=49
Note: note_on channel=0 note=61 velocity=61 time=6
Note: note_on channel=0 note=74 velocity=0 time=3
Note: note_on channel=0 note=61 velocity=0 time=28
Note: note_on channel=0 note=76 velocity=0 time=30
Note: note_on channel=0 note=78 velocity=77 time=5
Note: note_on channel=0 note=76 velocity=74 time=67
Note: note_on channel=0 note=78 velocity=0 time=26
Note: note_on channel=0 note=69 velocity=66 time=2
Note: note_on channel=0 note=76 velocity=0 time=19
Note: note_on channel=0 note=69 velocity=0 time=6
Note: note_on channel=0 note=74 velocity=79 time=16
Note: note_on channel=0 note=76 velocity=73 time=54
Note: note_on channel=0 note=74 velocity=0 time=7
Note: note_on channel=0 note=62 velocity=66 time=55
Note: note_on channel=0 note=78 velocity=86 time=5
Note: note_on channel=0 note=76 velocity=0 time=16
Note: note_on channel=0 note=62 velocity=0 time=11
Note: note_on channel=0 note=79 velocity=73 time=24
Note: note_on channel=0 note=78 velocity=0 time=6
Note: note_on channel=0 note=78 velocity=72 time=56
Note: note_on channel=0 note=79 velocity=0 time=18
Note: note_on channel=0 note=71 velocity=61 time=26
Note: note_on channel=0 note=78 velocity=0 time=15
Note: note_on channel=0 note=76 velocity=75 time=10
Note: note_on channel=0 note=71 velocity=0 time=1
Note: note_on channel=0 note=78 velocity=79 time=54
Note: note_on channel=0 note=76 velocity=0 time=6
Note: note_on channel=0 note=79 velocity=86 time=60
Note: note_on channel=0 note=64 velocity=67 time=5
Note: note_on channel=0 note=78 velocity=0 time=3
Note: note_on channel=0 note=64 velocity=0 time=28
Note: note_on channel=0 note=81 velocity=77 time=11
Note: note_on channel=0 note=79 velocity=0 time=2
Note: note_on channel=0 note=79 velocity=78 time=65
Note: note_on channel=0 note=81 velocity=0 time=13
Note: note_on channel=0 note=73 velocity=71 time=23
Note: note_on channel=0 note=79 velocity=0 time=22
Note: note_on channel=0 note=78 velocity=80 time=3
Note: note_on channel=0 note=73 velocity=0 time=12
Note: note_on channel=0 note=78 velocity=0 time=49
Note: note_on channel=0 note=79 velocity=78 time=8
Note: note_on channel=0 note=81 velocity=89 time=61
Note: note_on channel=0 note=66 velocity=77 time=1
Note: note_on channel=0 note=79 velocity=0 time=10
Note: note_on channel=0 note=66 velocity=0 time=42
Note: note_on channel=0 note=81 velocity=0 time=11
Note: note_on channel=0 note=83 velocity=79 time=1
Note: note_on channel=0 note=81 velocity=85 time=70
Note: note_on channel=0 note=83 velocity=0 time=15
Note: note_on channel=0 note=74 velocity=82 time=3
Note: note_on channel=0 note=81 velocity=0 time=34
Note: note_on channel=0 note=74 velocity=0 time=6
Note: note_on channel=0 note=79 velocity=81 time=3
Note: note_on channel=0 note=81 velocity=85 time=53
Note: note_on channel=0 note=79 velocity=0 time=8
Note: note_on channel=0 note=67 velocity=83 time=36
Note: note_on channel=0 note=83 velocity=87 time=14
Note: note_on channel=0 note=81 velocity=0 time=12
Note: note_on channel=0 note=83 velocity=0 time=15
Note: note_on channel=0 note=67 velocity=0 time=4
Note: note_on channel=0 note=69 velocity=79 time=147
Note: note_on channel=0 note=85 velocity=87 time=2
Note: note_on channel=0 note=69 velocity=0 time=47
Note: note_on channel=0 note=85 velocity=0 time=25
Note: note_on channel=0 note=86 velocity=87 time=95
Note: note_on channel=0 note=71 velocity=89 time=2
Note: note_on channel=0 note=71 velocity=0 time=48
Note: note_on channel=0 note=85 velocity=82 time=31
Note: note_on channel=0 note=86 velocity=0 time=31
Note: note_on channel=0 note=83 velocity=79 time=47
Note: note_on channel=0 note=85 velocity=0 time=29
Note: note_on channel=0 note=81 velocity=89 time=50
Note: note_on channel=0 note=83 velocity=0 time=30
Note: note_on channel=0 note=81 velocity=0 time=47
Note: note_on channel=0 note=67 velocity=81 time=1
Note: note_on channel=0 note=79 velocity=87 time=5
Note: note_on channel=0 note=67 velocity=0 time=41
Note: note_on channel=0 note=69 velocity=16 time=5
Note: note_on channel=0 note=78 velocity=87 time=31
Note: note_on channel=0 note=79 velocity=0 time=8
Note: note_on channel=0 note=69 velocity=0 time=8
Note: note_on channel=0 note=76 velocity=84 time=58
Note: note_on channel=0 note=78 velocity=0 time=18
Note: note_on channel=0 note=76 velocity=0 time=59
Note: note_on channel=0 note=74 velocity=88 time=4
Note: note_on channel=0 note=69 velocity=71 time=68
Note: note_on channel=0 note=76 velocity=85 time=17
Note: note_on channel=0 note=74 velocity=0 time=23
Note: note_on channel=0 note=69 velocity=0 time=35
Note: note_on channel=0 note=81 velocity=86 time=29
Note: note_on channel=0 note=76 velocity=0 time=11
Note: note_on channel=0 note=79 velocity=81 time=73
Note: note_on channel=0 note=81 velocity=0 time=30
Note: note_on channel=0 note=78 velocity=79 time=46
Note: note_on channel=0 note=79 velocity=0 time=27
Note: note_on channel=0 note=57 velocity=59 time=62
Note: note_on channel=0 note=76 velocity=74 time=0
Note: note_on channel=0 note=78 velocity=0 time=33
Note: note_on channel=0 note=76 velocity=0 time=28
Note: note_on channel=0 note=74 velocity=74 time=13
Note: note_on channel=0 note=57 velocity=0 time=4
Note: note_on channel=0 note=73 velocity=78 time=5
Note: note_on channel=0 note=74 velocity=0 time=0
Note: note_on channel=0 note=71 velocity=79 time=18
Note: note_on channel=0 note=73 velocity=0 time=33
Note: note_on channel=0 note=69 velocity=79 time=6
Note: note_on channel=0 note=71 velocity=0 time=22
Note: note_on channel=0 note=69 velocity=0 time=24
Note: note_on channel=0 note=71 velocity=65 time=12
Note: note_on channel=0 note=71 velocity=0 time=7
Note: note_on channel=0 note=69 velocity=68 time=4
Note: note_on channel=0 note=69 velocity=0 time=14
Note: note_on channel=0 note=71 velocity=61 time=6
Note: note_on channel=0 note=69 velocity=60 time=55
Note: note_on channel=0 note=71 velocity=0 time=3
Note: note_on channel=0 note=71 velocity=64 time=48
Note: note_on channel=0 note=54 velocity=57 time=3
Note: note_on channel=0 note=69 velocity=0 time=0
Note: note_on channel=0 note=69 velocity=61 time=55
Note: note_on channel=0 note=71 velocity=0 time=2
Note: note_on channel=0 note=69 velocity=0 time=51
Note: note_on channel=0 note=71 velocity=65 time=0
Note: note_on channel=0 note=62 velocity=70 time=33
Note: note_on channel=0 note=69 velocity=69 time=25
Note: note_on channel=0 note=71 velocity=0 time=8
Note: note_on channel=0 note=62 velocity=0 time=14
Note: note_on channel=0 note=54 velocity=0 time=30
Note: note_on channel=0 note=69 velocity=0 time=1
Note: note_on channel=0 note=67 velocity=79 time=2
Note: note_on channel=0 note=69 velocity=73 time=54
Note: note_on channel=0 note=67 velocity=0 time=21
Note: note_on channel=0 note=55 velocity=75 time=65
Note: note_on channel=0 note=71 velocity=71 time=96
Note: note_on channel=0 note=69 velocity=0 time=11
Note: note_on channel=0 note=71 velocity=0 time=15
Note: note_on channel=0 note=73 velocity=69 time=7
Note: note_on channel=0 note=71 velocity=67 time=3
Note: note_on channel=0 note=64 velocity=64 time=1
Note: note_on channel=0 note=73 velocity=0 time=0
Note: note_on channel=0 note=71 velocity=0 time=15
Note: note_on channel=0 note=64 velocity=0 time=7
Note: note_on channel=0 note=55 velocity=0 time=5
Note: note_on channel=0 note=69 velocity=71 time=4
Note: note_on channel=0 note=71 velocity=70 time=0
Note: note_on channel=0 note=69 velocity=0 time=6
Note: note_on channel=0 note=57 velocity=82 time=6
Note: note_on channel=0 note=73 velocity=79 time=2
Note: note_on channel=0 note=71 velocity=0 time=7
Note: note_on channel=0 note=73 velocity=0 time=3
Note: note_on channel=0 note=74 velocity=70 time=3
Note: note_on channel=0 note=73 velocity=73 time=8
Note: note_on channel=0 note=74 velocity=0 time=8
Note: note_on channel=0 note=66 velocity=69 time=4
Note: note_on channel=0 note=73 velocity=0 time=11
Note: note_on channel=0 note=57 velocity=0 time=1
Note: note_on channel=0 note=71 velocity=74 time=5
Note: note_on channel=0 note=66 velocity=0 time=2
Note: note_on channel=0 note=73 velocity=68 time=4
Note: note_on channel=0 note=71 velocity=0 time=7
Note: note_on channel=0 note=74 velocity=79 time=13
Note: note_on channel=0 note=59 velocity=82 time=3
Note: note_on channel=0 note=73 velocity=0 time=11
Note: note_on channel=0 note=74 velocity=0 time=0
Note: note_on channel=0 note=76 velocity=74 time=6
Note: note_on channel=0 note=74 velocity=73 time=2
Note: note_on channel=0 note=76 velocity=0 time=7
Note: note_on channel=0 note=59 velocity=0 time=9
Note: note_on channel=0 note=67 velocity=67 time=5
Note: note_on channel=0 note=73 velocity=74 time=12
Note: note_on channel=0 note=74 velocity=0 time=0
Note: note_on channel=0 note=67 velocity=0 time=0
Note: note_on channel=0 note=73 velocity=0 time=6
Note: note_on channel=0 note=74 velocity=70 time=6
Note: note_on channel=0 note=76 velocity=76 time=3
Note: note_on channel=0 note=61 velocity=66 time=3
Note: note_on channel=0 note=74 velocity=0 time=3
Note: note_on channel=0 note=76 velocity=0 time=15
Note: note_on channel=0 note=78 velocity=75 time=6
Note: note_on channel=0 note=78 velocity=0 time=0
Note: note_on channel=0 note=76 velocity=70 time=1
Note: note_on channel=0 note=69 velocity=60 time=8
Note: note_on channel=0 note=76 velocity=0 time=7
Note: note_on channel=0 note=61 velocity=0 time=5
Note: note_on channel=0 note=69 velocity=0 time=4
Note: note_on channel=0 note=74 velocity=72 time=7
Note: note_on channel=0 note=74 velocity=0 time=13
Note: note_on channel=0 note=76 velocity=62 time=5
Note: note_on channel=0 note=78 velocity=73 time=12
Note: note_on channel=0 note=62 velocity=57 time=8
Note: note_on channel=0 note=76 velocity=0 time=5
Note: note_on channel=0 note=78 velocity=0 time=27
Note: note_on channel=0 note=79 velocity=63 time=13
Note: note_on channel=0 note=78 velocity=67 time=10
Note: note_on channel=0 note=62 velocity=0 time=2
Note: note_on channel=0 note=79 velocity=0 time=2
Note: note_on channel=0 note=71 velocity=61 time=0
Note: note_on channel=0 note=71 velocity=0 time=8
Note: note_on channel=0 note=78 velocity=0 time=2
Note: note_on channel=0 note=76 velocity=64 time=7
Note: note_on channel=0 note=78 velocity=61 time=13
Note: note_on channel=0 note=76 velocity=0 time=0
Note: note_on channel=0 note=79 velocity=72 time=3
Note: note_on channel=0 note=78 velocity=0 time=10
Note: note_on channel=0 note=64 velocity=51 time=1
Note: note_on channel=0 note=79 velocity=0 time=1
Note: note_on channel=0 note=81 velocity=64 time=20
Note: note_on channel=0 note=81 velocity=0 time=8
Note: note_on channel=0 note=79 velocity=65 time=5
Note: note_on channel=0 note=64 velocity=0 time=1
Note: note_on channel=0 note=73 velocity=55 time=5
Note: note_on channel=0 note=79 velocity=0 time=9
Note: note_on channel=0 note=73 velocity=0 time=5
Note: note_on channel=0 note=78 velocity=64 time=3
Note: note_on channel=0 note=78 velocity=0 time=11
Note: note_on channel=0 note=79 velocity=75 time=32
Note: note_on channel=0 note=79 velocity=0 time=0
Note: note_on channel=0 note=81 velocity=75 time=3
Note: note_on channel=0 note=66 velocity=56 time=5
Note: note_on channel=0 note=81 velocity=0 time=11
Note: note_on channel=0 note=83 velocity=68 time=14
Note: note_on channel=0 note=66 velocity=0 time=0
Note: note_on channel=0 note=81 velocity=71 time=14
Note: note_on channel=0 note=83 velocity=0 time=0
Note: note_on channel=0 note=74 velocity=63 time=10
Note: note_on channel=0 note=81 velocity=0 time=1
Note: note_on channel=0 note=74 velocity=0 time=9
Note: note_on channel=0 note=79 velocity=71 time=2
Note: note_on channel=0 note=79 velocity=0 time=14
Note: note_on channel=0 note=81 velocity=67 time=7
Note: note_on channel=0 note=83 velocity=81 time=13
Note: note_on channel=0 note=81 velocity=0 time=12
Note: note_on channel=0 note=67 velocity=56 time=6
Note: note_on channel=0 note=83 velocity=0 time=9
Note: note_on channel=0 note=67 velocity=0 time=22
Note: note_on channel=0 note=85 velocity=76 time=93
Note: note_on channel=0 note=69 velocity=60 time=7
Note: note_on channel=0 note=69 velocity=0 time=31
Note: note_on channel=0 note=85 velocity=0 time=0
Note: note_on channel=0 note=86 velocity=74 time=108
Note: note_on channel=0 note=71 velocity=66 time=2
Note: note_on channel=0 note=71 velocity=0 time=25
Note: note_on channel=0 note=85 velocity=74 time=34
Note: note_on channel=0 note=86 velocity=0 time=20
Note: note_on channel=0 note=83 velocity=72 time=12
Note: note_on channel=0 note=85 velocity=0 time=10
Note: note_on channel=0 note=81 velocity=77 time=13
Note: note_on channel=0 note=83 velocity=0 time=6
Note: note_on channel=0 note=81 velocity=0 time=8
Note: note_on channel=0 note=67 velocity=60 time=12
Note: note_on channel=0 note=79 velocity=73 time=6
Note: note_on channel=0 note=67 velocity=0 time=13
Note: note_on channel=0 note=79 velocity=0 time=4
Note: note_on channel=0 note=78 velocity=73 time=4
Note: note_on channel=0 note=76 velocity=64 time=12
Note: note_on channel=0 note=78 velocity=0 time=18
Note: note_on channel=0 note=76 velocity=0 time=6
Note: note_on channel=0 note=74 velocity=72 time=8
Note: note_on channel=0 note=74 velocity=0 time=12
Note: note_on channel=0 note=69 velocity=58 time=11
Note: note_on channel=0 note=78 velocity=74 time=7
Note: note_on channel=0 note=69 velocity=0 time=18
Note: note_on channel=0 note=78 velocity=0 time=19
Note: note_on channel=0 note=76 velocity=68 time=14
Note: note_on channel=0 note=76 velocity=0 time=18
Note: note_on channel=0 note=78 velocity=71 time=4
Note: note_on channel=0 note=78 velocity=0 time=10
Note: note_on channel=0 note=76 velocity=62 time=4
Note: note_on channel=0 note=76 velocity=0 time=29
Note: note_on channel=0 note=78 velocity=65 time=14
Note: note_on channel=0 note=78 velocity=0 time=52
Note: note_on channel=0 note=76 velocity=68 time=3
Note: note_on channel=0 note=76 velocity=0 time=20
Note: note_on channel=0 note=57 velocity=53 time=3
Note: note_on channel=0 note=78 velocity=69 time=13
Note: note_on channel=0 note=57 velocity=0 time=19
Note: note_on channel=0 note=78 velocity=0 time=35
Note: note_on channel=0 note=76 velocity=61 time=9
Note: note_on channel=0 note=76 velocity=0 time=34
Note: note_on channel=0 note=78 velocity=70 time=12
Note: note_on channel=0 note=78 velocity=0 time=56
Note: note_on channel=0 note=76 velocity=67 time=7
Note: note_on channel=0 note=76 velocity=0 time=28
Note: note_on channel=0 note=74 velocity=56 time=23
Note: note_on channel=0 note=74 velocity=0 time=34
Note: note_on channel=0 note=76 velocity=56 time=30
Note: note_on channel=0 note=74 velocity=61 time=64
Note: note_on channel=0 note=76 velocity=0 time=5
Note: note_on channel=0 note=72 velocity=0 time=12
Note: note_on channel=0 note=65 velocity=66 time=2
Note: note_on channel=0 note=53 velocity=58 time=9
Note: note_on channel=0 note=51 velocity=61 time=70
Note: note_on channel=0 note=63 velocity=68 time=9
Note: note_on channel=0 note=69 velocity=0 time=0
Note: note_on channel=0 note=46 velocity=0 time=4
Note: note_on channel=0 note=64 velocity=59 time=5
Note: note_on channel=0 note=61 velocity=63 time=3
Note: note_on channel=0 note=38 velocity=0 time=97
Note: note_on channel=0 note=49 velocity=73 time=10
Note: note_on channel=0 note=67 velocity=83 time=8
Note: note_on channel=0 note=61 velocity=0 time=0
Note: note_on channel=0 note=64 velocity=50 time=1
Note: note_on channel=0 note=64 velocity=0 time=18
Note: note_on channel=0 note=79 velocity=0 time=8
Note: note_on channel=0 note=60 velocity=88 time=13
Note: note_on channel=0 note=72 velocity=88 time=24
Note: note_on channel=0 note=55 velocity=0 time=10
Note: note_on channel=0 note=52 velocity=0 time=0
Note: note_on channel=0 note=79 velocity=0 time=3
Note: note_on channel=0 note=34 velocity=0 time=41
Note: note_on channel=0 note=46 velocity=0 time=14
Note: note_on channel=0 note=39 velocity=76 time=122
Note: note_on channel=0 note=39 velocity=0 time=58
Note: note_on channel=0 note=47 velocity=0 time=39
Note: note_on channel=0 note=51 velocity=44 time=295
Note: note_on channel=0 note=68 velocity=53 time=487
Note: note_on channel=0 note=59 velocity=39 time=39
Note: note_on channel=0 note=51 velocity=0 time=160
Note: note_on channel=0 note=70 velocity=0 time=9
Note: note_on channel=0 note=59 velocity=0 time=63
Note: note_on channel=0 note=63 velocity=43 time=276
Note: note_on channel=0 note=63 velocity=0 time=243
Note: note_on channel=0 note=71 velocity=42 time=627
Note: note_on channel=0 note=71 velocity=0 time=378
Note: note_on channel=0 note=80 velocity=45 time=154
Note: note_on channel=0 note=78 velocity=65 time=305
Note: note_on channel=0 note=80 velocity=0 time=101
Note: note_on channel=0 note=69 velocity=51 time=0
Note: note_on channel=0 note=73 velocity=34 time=10
Note: note_on channel=0 note=66 velocity=42 time=11
Note: note_on channel=0 note=78 velocity=0 time=2
Note: note_on channel=0 note=68 velocity=0 time=8
Note: note_on channel=0 note=76 velocity=57 time=6
Note: note_on channel=0 note=69 velocity=0 time=9
Note: note_on channel=0 note=73 velocity=0 time=10
Note: note_on channel=0 note=75 velocity=61 time=73
Note: note_on channel=0 note=76 velocity=0 time=51
Note: note_on channel=0 note=68 velocity=46 time=362
Note: note_on channel=0 note=72 velocity=44 time=6
Note: note_on channel=0 note=66 velocity=0 time=100
Note: note_on channel=0 note=75 velocity=0 time=57
Note: note_on channel=0 note=72 velocity=0 time=2
Note: note_on channel=0 note=80 velocity=51 time=9
Note: note_on channel=0 note=78 velocity=64 time=59
Note: note_on channel=0 note=80 velocity=0 time=70
Note: note_on channel=0 note=69 velocity=50 time=220
Note: note_on channel=0 note=78 velocity=0 time=52
Note: note_on channel=0 note=73 velocity=38 time=1
Note: note_on channel=0 note=66 velocity=45 time=10
Note: note_on channel=0 note=68 velocity=0 time=94
Note: note_on channel=0 note=76 velocity=65 time=84
Note: note_on channel=0 note=75 velocity=69 time=94
Note: note_on channel=0 note=76 velocity=0 time=40
Note: note_on channel=0 note=85 velocity=65 time=169
Note: note_on channel=0 note=73 velocity=0 time=8
Note: note_on channel=0 note=85 velocity=0 time=4
Note: note_on channel=0 note=69 velocity=0 time=2
Note: note_on channel=0 note=83 velocity=76 time=6
Note: note_on channel=0 note=83 velocity=0 time=33
Note: note_on channel=0 note=81 velocity=83 time=138
Note: note_on channel=0 note=81 velocity=0 time=99
Note: note_on channel=0 note=80 velocity=67 time=195
Note: note_on channel=0 note=72 velocity=43 time=30
Note: note_on channel=0 note=68 velocity=37 time=16
Note: note_on channel=0 note=66 velocity=0 time=17
Note: note_on channel=0 note=68 velocity=0 time=11
Note: note_on channel=0 note=66 velocity=54 time=24
Note: note_on channel=0 note=78 velocity=74 time=217
Note: note_on channel=0 note=66 velocity=0 time=15
Note: note_on channel=0 note=68 velocity=52 time=3
Note: note_on channel=0 note=75 velocity=0 time=0
Note: note_on channel=0 note=80 velocity=0 time=45
Note: note_on channel=0 note=72 velocity=0 time=10
Note: note_on channel=0 note=76 velocity=68 time=1
Note: note_on channel=0 note=69 velocity=45 time=9
Note: note_on channel=0 note=73 velocity=56 time=7
Note: note_on channel=0 note=68 velocity=0 time=11
Note: note_on channel=0 note=78 velocity=0 time=5
Note: note_on channel=0 note=64 velocity=42 time=15
Note: note_on channel=0 note=69 velocity=0 time=8
Note: note_on channel=0 note=73 velocity=0 time=14
Note: note_on channel=0 note=81 velocity=69 time=10
Note: note_on channel=0 note=66 velocity=47 time=21
Note: note_on channel=0 note=64 velocity=0 time=26
Note: note_on channel=0 note=76 velocity=0 time=0
Note: note_on channel=0 note=80 velocity=63 time=75
Note: note_on channel=0 note=75 velocity=53 time=13
Note: note_on channel=0 note=66 velocity=0 time=13
Note: note_on channel=0 note=68 velocity=41 time=0
Note: note_on channel=0 note=72 velocity=41 time=3
Note: note_on channel=0 note=81 velocity=0 time=8
Note: note_on channel=0 note=68 velocity=0 time=11
Note: note_on channel=0 note=81 velocity=70 time=5
Note: note_on channel=0 note=66 velocity=52 time=3
Note: note_on channel=0 note=80 velocity=0 time=11
Note: note_on channel=0 note=75 velocity=0 time=3
Note: note_on channel=0 note=78 velocity=80 time=2
Note: note_on channel=0 note=68 velocity=56 time=8
Note: note_on channel=0 note=66 velocity=0 time=5
Note: note_on channel=0 note=72 velocity=0 time=2
Note: note_on channel=0 note=81 velocity=0 time=10
Note: note_on channel=0 note=76 velocity=73 time=14
Note: note_on channel=0 note=69 velocity=55 time=9
Note: note_on channel=0 note=73 velocity=51 time=4
Note: note_on channel=0 note=68 velocity=0 time=1
Note: note_on channel=0 note=78 velocity=0 time=3
Note: note_on channel=0 note=85 velocity=79 time=37
Note: note_on channel=0 note=64 velocity=55 time=12
Note: note_on channel=0 note=73 velocity=0 time=6
Note: note_on channel=0 note=69 velocity=0 time=3
Note: note_on channel=0 note=76 velocity=0 time=24
Note: note_on channel=0 note=81 velocity=82 time=160
Note: note_on channel=0 note=66 velocity=54 time=27
Note: note_on channel=0 note=85 velocity=0 time=12
Note: note_on channel=0 note=64 velocity=0 time=7
Note: note_on channel=0 note=68 velocity=50 time=179
Note: note_on channel=0 note=75 velocity=72 time=32
Note: note_on channel=0 note=66 velocity=0 time=9
Note: note_on channel=0 note=71 velocity=53 time=2
Note: note_on channel=0 note=81 velocity=0 time=10
Note: note_on channel=0 note=83 velocity=73 time=47
Note: note_on channel=0 note=63 velocity=58 time=8
Note: note_on channel=0 note=68 velocity=0 time=8
Note: note_on channel=0 note=75 velocity=0 time=73
Note: note_on channel=0 note=71 velocity=0 time=4
Note: note_on channel=0 note=80 velocity=78 time=113
Note: note_on channel=0 note=83 velocity=0 time=1
Note: note_on channel=0 note=64 velocity=63 time=19
Note: note_on channel=0 note=63 velocity=0 time=31
Note: note_on channel=0 note=80 velocity=0 time=2
Note: note_on channel=0 note=73 velocity=66 time=180
Note: note_on channel=0 note=70 velocity=58 time=13
Note: note_on channel=0 note=66 velocity=58 time=11
Note: note_on channel=0 note=64 velocity=0 time=44
Note: note_on channel=0 note=75 velocity=75 time=3
Note: note_on channel=0 note=70 velocity=0 time=32
Note: note_on channel=0 note=78 velocity=68 time=208
Note: note_on channel=0 note=68 velocity=50 time=31
Note: note_on channel=0 note=61 velocity=51 time=2
Note: note_on channel=0 note=73 velocity=0 time=53
Note: note_on channel=0 note=75 velocity=0 time=4
Note: note_on channel=0 note=66 velocity=0 time=24
Note: note_on channel=0 note=76 velocity=67 time=12
Note: note_on channel=0 note=78 velocity=0 time=72
Note: note_on channel=0 note=68 velocity=0 time=9
Note: note_on channel=0 note=67 velocity=55 time=157
Note: note_on channel=0 note=63 velocity=49 time=29
Note: note_on channel=0 note=61 velocity=0 time=0
Note: note_on channel=0 note=73 velocity=74 time=13
Note: note_on channel=0 note=67 velocity=0 time=0
Note: note_on channel=0 note=76 velocity=0 time=172
Note: note_on channel=0 note=71 velocity=65 time=32
Note: note_on channel=0 note=68 velocity=55 time=8
Note: note_on channel=0 note=64 velocity=52 time=13
Note: note_on channel=0 note=73 velocity=0 time=48
Note: note_on channel=0 note=63 velocity=0 time=16
Note: note_on channel=0 note=73 velocity=73 time=30
Note: note_on channel=0 note=68 velocity=0 time=14
Note: note_on channel=0 note=59 velocity=41 time=168
Note: note_on channel=0 note=76 velocity=63 time=48
Note: note_on channel=0 note=66 velocity=47 time=17
Note: note_on channel=0 note=64 velocity=0 time=8
Note: note_on channel=0 note=71 velocity=0 time=14
Note: note_on channel=0 note=73 velocity=0 time=1
Note: note_on channel=0 note=75 velocity=72 time=1
Note: note_on channel=0 note=76 velocity=0 time=8
Note: note_on channel=0 note=66 velocity=0 time=42
Note: note_on channel=0 note=65 velocity=55 time=173
Note: note_on channel=0 note=61 velocity=45 time=35
Note: note_on channel=0 note=59 velocity=0 time=10
Note: note_on channel=0 note=71 velocity=63 time=21
Note: note_on channel=0 note=65 velocity=0 time=57
Note: note_on channel=0 note=75 velocity=0 time=241
Note: note_on channel=0 note=70 velocity=57 time=3
Note: note_on channel=0 note=67 velocity=38 time=17
Note: note_on channel=0 note=63 velocity=39 time=32
Note: note_on channel=0 note=71 velocity=0 time=17
Note: note_on channel=0 note=61 velocity=0 time=6
Note: note_on channel=0 note=71 velocity=59 time=11
Note: note_on channel=0 note=67 velocity=0 time=6
Note: note_on channel=0 note=68 velocity=59 time=24
Note: note_on channel=0 note=64 velocity=39 time=15
Note: note_on channel=0 note=70 velocity=0 time=3
Note: note_on channel=0 note=63 velocity=0 time=22
Note: note_on channel=0 note=70 velocity=66 time=8
Note: note_on channel=0 note=71 velocity=0 time=13
Note: note_on channel=0 note=67 velocity=49 time=86
Note: note_on channel=0 note=63 velocity=38 time=46
Note: note_on channel=0 note=68 velocity=0 time=80
Note: note_on channel=0 note=64 velocity=0 time=21
Note: note_on channel=0 note=71 velocity=54 time=4
Note: note_on channel=0 note=67 velocity=0 time=7
Note: note_on channel=0 note=68 velocity=44 time=13
Note: note_on channel=0 note=64 velocity=36 time=0
Note: note_on channel=0 note=70 velocity=0 time=3
Note: note_on channel=0 note=63 velocity=0 time=3
Note: note_on channel=0 note=70 velocity=48 time=10
Note: note_on channel=0 note=71 velocity=0 time=73
Note: note_on channel=0 note=67 velocity=39 time=326
Note: note_on channel=0 note=63 velocity=39 time=2
Note: note_on channel=0 note=64 velocity=0 time=10
Note: note_on channel=0 note=68 velocity=0 time=12
Note: note_on channel=0 note=61 velocity=36 time=574
Note: note_on channel=0 note=63 velocity=0 time=5
Note: note_on channel=0 note=67 velocity=0 time=8
Note: note_on channel=0 note=70 velocity=0 time=13
Note: note_on channel=0 note=61 velocity=0 time=7
Note: note_on channel=0 note=44 velocity=58 time=0
Note: note_on channel=0 note=59 velocity=58 time=13
Note: note_on channel=0 note=56 velocity=54 time=6
Note: note_on channel=0 note=51 velocity=72 time=102
Note: note_on channel=0 note=59 velocity=0 time=53
Note: note_on channel=0 note=56 velocity=0 time=8
Note: note_on channel=0 note=59 velocity=71 time=202
Note: note_on channel=0 note=56 velocity=68 time=4
Note: note_on channel=0 note=59 velocity=0 time=117
Note: note_on channel=0 note=60 velocity=62 time=285
Note: note_on channel=0 note=37 velocity=63 time=13
Note: note_on channel=0 note=54 velocity=60 time=10
Note: note_on channel=0 note=44 velocity=0 time=3
Note: note_on channel=0 note=38 velocity=103 time=80
Note: note_on channel=0 note=26 velocity=97 time=1
Note: note_on channel=0 note=26 velocity=0 time=1
Note: note_on channel=0 note=38 velocity=0 time=9
Note: note_on channel=0 note=77 velocity=93 time=147
Note: note_on channel=0 note=65 velocity=88 time=2
Note: note_on channel=0 note=68 velocity=83 time=5
Note: note_on channel=0 note=74 velocity=84 time=0
Note: note_on channel=0 note=71 velocity=39 time=19
Note: note_on channel=0 note=71 velocity=0 time=32
Note: note_on channel=0 note=65 velocity=0 time=1
Note: note_on channel=0 note=73 velocity=0 time=3
Note: note_on channel=0 note=57 velocity=0 time=6
Note: note_on channel=0 note=49 velocity=0 time=26
Note: note_on channel=0 note=52 velocity=0 time=3
Note: note_on channel=0 note=74 velocity=0 time=7
Note: note_on channel=0 note=38 velocity=0 time=30
Note: note_on channel=0 note=65 velocity=0 time=3
Note: note_on channel=0 note=76 velocity=83 time=11
Note: note_on channel=0 note=69 velocity=0 time=10
Note: note_on channel=0 note=57 velocity=0 time=11
Note: note_on channel=0 note=65 velocity=0 time=8
Note: note_on channel=0 note=82 velocity=77 time=23
Note: note_on channel=0 note=70 velocity=61 time=6
Note: note_on channel=0 note=82 velocity=0 time=2
Note: note_on channel=0 note=70 velocity=0 time=3
Note: note_on channel=0 note=85 velocity=88 time=8
Note: note_on channel=0 note=73 velocity=73 time=2
Note: note_on channel=0 note=73 velocity=0 time=15
Note: note_on channel=0 note=85 velocity=0 time=11
Note: note_on channel=0 note=84 velocity=77 time=22
Note: note_on channel=0 note=72 velocity=63 time=4
Note: note_on channel=0 note=66 velocity=51 time=8
Note: note_on channel=0 note=54 velocity=50 time=5
Note: note_on channel=0 note=66 velocity=0 time=18
Note: note_on channel=0 note=54 velocity=0 time=9
Note: note_on channel=0 note=63 velocity=68 time=0
Note: note_on channel=0 note=51 velocity=72 time=5
Note: note_on channel=0 note=63 velocity=0 time=22
Note: note_on channel=0 note=51 velocity=0 time=1
Note: note_on channel=0 note=48 velocity=80 time=1
Note: note_on channel=0 note=60 velocity=57 time=13
Note: note_on channel=0 note=48 velocity=0 time=14
Note: note_on channel=0 note=60 velocity=0 time=4
Note: note_on channel=0 note=45 velocity=78 time=13
Note: note_on channel=0 note=57 velocity=66 time=0
Note: note_on channel=0 note=57 velocity=0 time=6
Note: note_on channel=0 note=45 velocity=0 time=2
Note: note_on channel=0 note=42 velocity=73 time=13
Note: note_on channel=0 note=54 velocity=63 time=0
Note: note_on channel=0 note=54 velocity=0 time=21
Note: note_on channel=0 note=42 velocity=0 time=7
Note: note_on channel=0 note=39 velocity=75 time=88
Note: note_on channel=0 note=51 velocity=64 time=3
Note: note_on channel=0 note=51 velocity=0 time=24
Note: note_on channel=0 note=39 velocity=0 time=6
Note: note_on channel=0 note=36 velocity=75 time=9
Note: note_on channel=0 note=48 velocity=60 time=5
Note: note_on channel=0 note=36 velocity=0 time=6
Note: note_on channel=0 note=48 velocity=0 time=8
Note: note_on channel=0 note=33 velocity=76 time=14
Note: note_on channel=0 note=45 velocity=52 time=5
Note: note_on channel=0 note=33 velocity=0 time=10
Note: note_on channel=0 note=72 velocity=0 time=7
Note: note_on channel=0 note=45 velocity=0 time=1
Note: note_on channel=0 note=84 velocity=0 time=23
Note: note_on channel=0 note=34 velocity=72 time=109
Note: note_on channel=0 note=22 velocity=68 time=8
Note: note_on channel=0 note=87 velocity=74 time=6
Note: note_on channel=0 note=22 velocity=0 time=7
Note: note_on channel=0 note=75 velocity=70 time=1
Note: note_on channel=0 note=34 velocity=0 time=2
Note: note_on channel=0 note=87 velocity=0 time=2
Note: note_on channel=0 note=75 velocity=0 time=9
Note: note_on channel=0 note=85 velocity=88 time=11
Note: note_on channel=0 note=73 velocity=69 time=10
Note: note_on channel=0 note=73 velocity=0 time=5
Note: note_on channel=0 note=85 velocity=0 time=2
Note: note_on channel=0 note=84 velocity=89 time=2
Note: note_on channel=0 note=72 velocity=82 time=8
Note: note_on channel=0 note=84 velocity=0 time=26
Note: note_on channel=0 note=72 velocity=0 time=10
Note: note_on channel=0 note=55 velocity=72 time=13
Note: note_on channel=0 note=67 velocity=72 time=1
Note: note_on channel=0 note=82 velocity=75 time=6
Note: note_on channel=0 note=70 velocity=75 time=3
Note: note_on channel=0 note=67 velocity=0 time=10
Note: note_on channel=0 note=55 velocity=0 time=5
Note: note_on channel=0 note=64 velocity=79 time=9
Note: note_on channel=0 note=52 velocity=74 time=1
Note: note_on channel=0 note=64 velocity=0 time=16
Note: note_on channel=0 note=52 velocity=0 time=11
Note: note_on channel=0 note=61 velocity=75 time=80
Note: note_on channel=0 note=49 velocity=77 time=4
Note: note_on channel=0 note=61 velocity=0 time=18
Note: note_on channel=0 note=49 velocity=0 time=9
Note: note_on channel=0 note=46 velocity=77 time=85
Note: note_on channel=0 note=58 velocity=71 time=1
Note: note_on channel=0 note=58 velocity=0 time=25
Note: note_on channel=0 note=46 velocity=0 time=2
Note: note_on channel=0 note=55 velocity=71 time=89
Note: note_on channel=0 note=43 velocity=73 time=3
Note: note_on channel=0 note=55 velocity=0 time=33
Note: note_on channel=0 note=70 velocity=0 time=4
Note: note_on channel=0 note=67 velocity=0 time=1
Note: note_on channel=0 note=55 velocity=54 time=2
Note: note_on channel=0 note=71 velocity=71 time=3
Note: note_on channel=0 note=71 velocity=0 time=29
Note: note_on channel=0 note=73 velocity=58 time=28
Note: note_on channel=0 note=73 velocity=0 time=44
Note: note_on channel=0 note=71 velocity=69 time=61
Note: note_on channel=0 note=40 velocity=65 time=5
Note: note_on channel=0 note=40 velocity=0 time=28
Note: note_on channel=0 note=71 velocity=0 time=3
Note: note_on channel=0 note=71 velocity=73 time=214
Note: note_on channel=0 note=68 velocity=67 time=11
Note: note_on channel=0 note=42 velocity=65 time=6
Note: note_on channel=0 note=30 velocity=60 time=6
Note: note_on channel=0 note=65 velocity=0 time=48
Note: note_on channel=0 note=30 velocity=0 time=10
Note: note_on channel=0 note=42 velocity=0 time=23
Note: note_on channel=0 note=66 velocity=76 time=30
Note: note_on channel=0 note=71 velocity=0 time=27
Note: note_on channel=0 note=68 velocity=0 time=13
Note: note_on channel=0 note=60 velocity=0 time=1
Note: note_on channel=0 note=82 velocity=77 time=272
Note: note_on channel=0 note=70 velocity=62 time=6
Note: note_on channel=0 note=58 velocity=66 time=10
Note: note_on channel=0 note=46 velocity=58 time=27
Note: note_on channel=0 note=50 velocity=57 time=0
Note: note_on channel=0 note=82 velocity=0 time=14
Note: note_on channel=0 note=67 velocity=0 time=85
Note: note_on channel=0 note=66 velocity=65 time=19
Note: note_on channel=0 note=50 velocity=56 time=29
Note: note_on channel=0 note=52 velocity=62 time=2
Note: note_on channel=0 note=66 velocity=0 time=3
Note: note_on channel=0 note=69 velocity=54 time=215
Note: note_on channel=0 note=66 velocity=55 time=17
Note: note_on channel=0 note=28 velocity=45 time=3
Note: note_on channel=0 note=40 velocity=35 time=6
Note: note_on channel=0 note=63 velocity=0 time=7
Note: note_on channel=0 note=28 velocity=0 time=0
Note: note_on channel=0 note=40 velocity=0 time=70
Note: note_on channel=0 note=64 velocity=52 time=25
Note: note_on channel=0 note=69 velocity=0 time=21
Note: note_on channel=0 note=66 velocity=0 time=32
Note: note_on channel=0 note=68 velocity=55 time=223
Note: note_on channel=0 note=59 velocity=45 time=13
Note: note_on channel=0 note=40 velocity=36 time=3
Note: note_on channel=0 note=52 velocity=37 time=2
Note: note_on channel=0 note=64 velocity=0 time=17
Note: note_on channel=0 note=68 velocity=0 time=1
Note: note_on channel=0 note=52 velocity=0 time=31
Note: note_on channel=0 note=40 velocity=0 time=46
Note: note_on channel=0 note=56 velocity=48 time=50
Note: note_on channel=0 note=59 velocity=0 time=34
Note: note_on channel=0 note=56 velocity=0 time=4
Note: note_on channel=0 note=68 velocity=58 time=295
Note: note_on channel=0 note=64 velocity=47 time=11
Note: note_on channel=0 note=56 velocity=39 time=7
Note: note_on channel=0 note=35 velocity=40 time=34
Note: note_on channel=0 note=47 velocity=33 time=2
Note: note_on channel=0 note=64 velocity=0 time=11
Note: note_on channel=0 note=56 velocity=0 time=19
Note: note_on channel=0 note=35 velocity=0 time=18
Note: note_on channel=0 note=68 velocity=0 time=8
Note: note_on channel=0 note=47 velocity=0 time=5
Note: note_on channel=0 note=68 velocity=53 time=283
Note: note_on channel=0 note=64 velocity=42 time=15
Note: note_on channel=0 note=57 velocity=42 time=8
Note: note_on channel=0 note=36 velocity=40 time=10
Note: note_on channel=0 note=48 velocity=31 time=12
Note: note_on channel=0 note=48 velocity=0 time=27
Note: note_on channel=0 note=64 velocity=0 time=17
Note: note_on channel=0 note=57 velocity=0 time=6
Note: note_on channel=0 note=36 velocity=0 time=17
Note: note_on channel=0 note=66 velocity=55 time=320
Note: note_on channel=0 note=58 velocity=36 time=33
Note: note_on channel=0 note=64 velocity=35 time=3
Note: note_on channel=0 note=37 velocity=37 time=6
Note: note_on channel=0 note=49 velocity=36 time=1
Note: note_on channel=0 note=68 velocity=0 time=10
Note: note_on channel=0 note=49 velocity=0 time=20
Note: note_on channel=0 note=64 velocity=0 time=16
Note: note_on channel=0 note=58 velocity=0 time=15
Note: note_on channel=0 note=66 velocity=0 time=30
Note: note_on channel=0 note=37 velocity=0 time=24
Note: note_on channel=0 note=64 velocity=52 time=225
Note: note_on channel=0 note=65 velocity=54 time=3
Note: note_on channel=0 note=58 velocity=38 time=17
Note: note_on channel=0 note=30 velocity=45 time=51
Note: note_on channel=0 note=42 velocity=40 time=9
Note: note_on channel=0 note=30 velocity=0 time=43
Note: note_on channel=0 note=66 velocity=67 time=67
Note: note_on channel=0 note=58 velocity=0 time=35
Note: note_on channel=0 note=42 velocity=0 time=4
Note: note_on channel=0 note=64 velocity=0 time=6
Note: note_on channel=0 note=65 velocity=0 time=1
Note: note_on channel=0 note=69 velocity=56 time=256
Note: note_on channel=0 note=35 velocity=44 time=5
Note: note_on channel=0 note=63 velocity=46 time=7
Note: note_on channel=0 note=57 velocity=41 time=10
Note: note_on channel=0 note=66 velocity=0 time=49
Note: note_on channel=0 note=35 velocity=0 time=8
Note: note_on channel=0 note=66 velocity=62 time=109
Note: note_on channel=0 note=63 velocity=0 time=50
Note: note_on channel=0 note=57 velocity=0 time=12
Note: note_on channel=0 note=64 velocity=61 time=178
Note: note_on channel=0 note=47 velocity=44 time=16
Note: note_on channel=0 note=54 velocity=40 time=7
Note: note_on channel=0 note=57 velocity=43 time=4
Note: note_on channel=0 note=69 velocity=0 time=8
Note: note_on channel=0 note=66 velocity=0 time=3
Note: note_on channel=0 note=54 velocity=0 time=13
Note: note_on channel=0 note=57 velocity=0 time=72
Note: note_on channel=0 note=63 velocity=60 time=12
Note: note_on channel=0 note=47 velocity=0 time=1
Note: note_on channel=0 note=64 velocity=0 time=24
Note: note_on channel=0 note=63 velocity=0 time=41
Note: note_on channel=0 note=73 velocity=64 time=324
Note: note_on channel=0 note=61 velocity=51 time=5
Note: note_on channel=0 note=69 velocity=53 time=6
Note: note_on channel=0 note=42 velocity=43 time=41
Note: note_on channel=0 note=30 velocity=46 time=8
Note: note_on channel=0 note=61 velocity=0 time=24
Note: note_on channel=0 note=69 velocity=0 time=31
Note: note_on channel=0 note=30 velocity=0 time=13
Note: note_on channel=0 note=73 velocity=0 time=19
Note: note_on channel=0 note=42 velocity=0 time=10
Note: note_on channel=0 note=73 velocity=70 time=235
Note: note_on channel=0 note=62 velocity=62 time=11
Note: note_on channel=0 note=69 velocity=55 time=8
Note: note_on channel=0 note=47 velocity=60 time=3
Note: note_on channel=0 note=35 velocity=54 time=6
Note: note_on channel=0 note=47 velocity=0 time=44
Note: note_on channel=0 note=35 velocity=0 time=2
Note: note_on channel=0 note=69 velocity=0 time=10
Note: note_on channel=0 note=62 velocity=0 time=3
Note: note_on channel=0 note=71 velocity=68 time=249
Note: note_on channel=0 note=69 velocity=67 time=3
Note: note_on channel=0 note=63 velocity=63 time=6
Note: note_on channel=0 note=44 velocity=68 time=10
Note: note_on channel=0 note=32 velocity=62 time=3
Note: note_on channel=0 note=73 velocity=0 time=9
Note: note_on channel=0 note=32 velocity=0 time=23
Note: note_on channel=0 note=44 velocity=0 time=19
Note: note_on channel=0 note=69 velocity=0 time=4
Note: note_on channel=0 note=71 velocity=0 time=3
Note: note_on channel=0 note=63 velocity=0 time=37
Note: note_on channel=0 note=71 velocity=72 time=213
Note: note_on channel=0 note=49 velocity=65 time=9
Note: note_on channel=0 note=68 velocity=66 time=3
Note: note_on channel=0 note=37 velocity=62 time=2
Note: note_on channel=0 note=64 velocity=63 time=7
Note: note_on channel=0 note=49 velocity=0 time=6
Note: note_on channel=0 note=37 velocity=0 time=31
Note: note_on channel=0 note=65 velocity=76 time=60
Note: note_on channel=0 note=68 velocity=0 time=33
Note: note_on channel=0 note=64 velocity=0 time=16
Note: note_on channel=0 note=71 velocity=0 time=4
Note: note_on channel=0 note=71 velocity=69 time=227
Note: note_on channel=0 note=68 velocity=67 time=12
Note: note_on channel=0 note=42 velocity=60 time=56
Note: note_on channel=0 note=30 velocity=56 time=7
Note: note_on channel=0 note=65 velocity=0 time=4
Note: note_on channel=0 note=30 velocity=0 time=8
Note: note_on channel=0 note=42 velocity=0 time=36
Note: note_on channel=0 note=66 velocity=73 time=16
Note: note_on channel=0 note=71 velocity=0 time=20
Note: note_on channel=0 note=68 velocity=0 time=17
Note: note_on channel=0 note=69 velocity=79 time=193
Note: note_on channel=0 note=54 velocity=65 time=7
Note: note_on channel=0 note=61 velocity=70 time=2
Note: note_on channel=0 note=42 velocity=60 time=7
Note: note_on channel=0 note=66 velocity=0 time=6
Note: note_on channel=0 note=54 velocity=0 time=19
Note: note_on channel=0 note=42 velocity=0 time=23
Note: note_on channel=0 note=57 velocity=72 time=26
Note: note_on channel=0 note=61 velocity=0 time=60
Note: note_on channel=0 note=69 velocity=0 time=12
Note: note_on channel=0 note=69 velocity=71 time=257
Note: note_on channel=0 note=60 velocity=61 time=3
Note: note_on channel=0 note=66 velocity=64 time=15
Note: note_on channel=0 note=38 velocity=47 time=17
Note: note_on channel=0 note=50 velocity=49 time=0
Note: note_on channel=0 note=57 velocity=0 time=75
Note: note_on channel=0 note=69 velocity=0 time=20
Note: note_on channel=0 note=66 velocity=0 time=3
Note: note_on channel=0 note=38 velocity=0 time=7
Note: note_on channel=0 note=50 velocity=0 time=18
Note: note_on channel=0 note=69 velocity=64 time=343
