Note: ('note_on channel=0 note=74 velocity=92 time=786', 'note_on channel=0 note=74 velocity=0 time=48', 'note_on channel=0 note=81 velocity=93 time=353', 'note_on channel=0 note=57 velocity=79 time=373', 'note_on channel=0 note=57 velocity=0 time=49')
Note: ('note_on channel=0 note=74 velocity=0 time=48', 'note_on channel=0 note=81 velocity=93 time=353', 'note_on channel=0 note=57 velocity=79 time=373', 'note_on channel=0 note=57 velocity=0 time=49', 'note_on channel=0 note=62 velocity=86 time=337')
Note: ('note_on channel=0 note=81 velocity=93 time=353', 'note_on channel=0 note=57 velocity=79 time=373', 'note_on channel=0 note=57 velocity=0 time=49', 'note_on channel=0 note=62 velocity=86 time=337', 'note_on channel=0 note=62 velocity=0 time=12')
Note: ('note_on channel=0 note=57 velocity=79 time=373', 'note_on channel=0 note=57 velocity=0 time=49', 'note_on channel=0 note=62 velocity=86 time=337', 'note_on channel=0 note=62 velocity=0 time=12', 'note_on channel=0 note=81 velocity=0 time=0')
Note: ('note_on channel=0 note=57 velocity=0 time=49', 'note_on channel=0 note=62 velocity=86 time=337', 'note_on channel=0 note=62 velocity=0 time=12', 'note_on channel=0 note=81 velocity=0 time=0', 'note_on channel=0 note=78 velocity=97 time=304')
Note: ('note_on channel=0 note=62 velocity=86 time=337', 'note_on channel=0 note=62 velocity=0 time=12', 'note_on channel=0 note=81 velocity=0 time=0', 'note_on channel=0 note=78 velocity=97 time=304', 'note_on channel=0 note=74 velocity=82 time=7')
Note: ('note_on channel=0 note=62 velocity=0 time=12', 'note_on channel=0 note=81 velocity=0 time=0', 'note_on channel=0 note=78 velocity=97 time=304', 'note_on channel=0 note=74 velocity=82 time=7', 'note_on channel=0 note=74 velocity=0 time=319')
Note: ('note_on channel=0 note=81 velocity=0 time=0', 'note_on channel=0 note=78 velocity=97 time=304', 'note_on channel=0 note=74 velocity=82 time=7', 'note_on channel=0 note=74 velocity=0 time=319', 'note_on channel=0 note=73 velocity=73 time=36')
Note: ('note_on channel=0 note=78 velocity=97 time=304', 'note_on channel=0 note=74 velocity=82 time=7', 'note_on channel=0 note=74 velocity=0 time=319', 'note_on channel=0 note=73 velocity=73 time=36', 'note_on channel=0 note=76 velocity=79 time=7')
Note: ('note_on channel=0 note=74 velocity=82 time=7', 'note_on channel=0 note=74 velocity=0 time=319', 'note_on channel=0 note=73 velocity=73 time=36', 'note_on channel=0 note=76 velocity=79 time=7', 'note_on channel=0 note=78 velocity=0 time=2')
Note: ('note_on channel=0 note=74 velocity=0 time=319', 'note_on channel=0 note=73 velocity=73 time=36', 'note_on channel=0 note=76 velocity=79 time=7', 'note_on channel=0 note=78 velocity=0 time=2', 'note_on channel=0 note=73 velocity=0 time=25')
Note: ('note_on channel=0 note=73 velocity=73 time=36', 'note_on channel=0 note=76 velocity=79 time=7', 'note_on channel=0 note=78 velocity=0 time=2', 'note_on channel=0 note=73 velocity=0 time=25', 'note_on channel=0 note=76 velocity=0 time=11')
Note: ('note_on channel=0 note=76 velocity=79 time=7', 'note_on channel=0 note=78 velocity=0 time=2', 'note_on channel=0 note=73 velocity=0 time=25', 'note_on channel=0 note=76 velocity=0 time=11', 'note_on channel=0 note=71 velocity=78 time=65')
Note: ('note_on channel=0 note=78 velocity=0 time=2', 'note_on channel=0 note=73 velocity=0 time=25', 'note_on channel=0 note=76 velocity=0 time=11', 'note_on channel=0 note=71 velocity=78 time=65', 'note_on channel=0 note=74 velocity=72 time=4')
Note: ('note_on channel=0 note=73 velocity=0 time=25', 'note_on channel=0 note=76 velocity=0 time=11', 'note_on channel=0 note=71 velocity=78 time=65', 'note_on channel=0 note=74 velocity=72 time=4', 'note_on channel=0 note=71 velocity=0 time=26')
Note: ('note_on channel=0 note=76 velocity=0 time=11', 'note_on channel=0 note=71 velocity=78 time=65', 'note_on channel=0 note=74 velocity=72 time=4', 'note_on channel=0 note=71 velocity=0 time=26', 'note_on channel=0 note=74 velocity=0 time=11')
Note: ('note_on channel=0 note=71 velocity=78 time=65', 'note_on channel=0 note=74 velocity=72 time=4', 'note_on channel=0 note=71 velocity=0 time=26', 'note_on channel=0 note=74 velocity=0 time=11', 'note_on channel=0 note=73 velocity=79 time=54')
Note: ('note_on channel=0 note=74 velocity=72 time=4', 'note_on channel=0 note=71 velocity=0 time=26', 'note_on channel=0 note=74 velocity=0 time=11', 'note_on channel=0 note=73 velocity=79 time=54', 'note_on channel=0 note=69 velocity=76 time=9')
Note: ('note_on channel=0 note=71 velocity=0 time=26', 'note_on channel=0 note=74 velocity=0 time=11', 'note_on channel=0 note=73 velocity=79 time=54', 'note_on channel=0 note=69 velocity=76 time=9', 'note_on channel=0 note=69 velocity=0 time=24')
Note: ('note_on channel=0 note=74 velocity=0 time=11', 'note_on channel=0 note=73 velocity=79 time=54', 'note_on channel=0 note=69 velocity=76 time=9', 'note_on channel=0 note=69 velocity=0 time=24', 'note_on channel=0 note=73 velocity=0 time=22')
Note: ('note_on channel=0 note=73 velocity=79 time=54', 'note_on channel=0 note=69 velocity=76 time=9', 'note_on channel=0 note=69 velocity=0 time=24', 'note_on channel=0 note=73 velocity=0 time=22', 'note_on channel=0 note=71 velocity=83 time=54')
Note: ('note_on channel=0 note=69 velocity=76 time=9', 'note_on channel=0 note=69 velocity=0 time=24', 'note_on channel=0 note=73 velocity=0 time=22', 'note_on channel=0 note=71 velocity=83 time=54', 'note_on channel=0 note=67 velocity=78 time=1')
Note: ('note_on channel=0 note=69 velocity=0 time=24', 'note_on channel=0 note=73 velocity=0 time=22', 'note_on channel=0 note=71 velocity=83 time=54', 'note_on channel=0 note=67 velocity=78 time=1', 'note_on channel=0 note=67 velocity=0 time=29')
Note: ('note_on channel=0 note=73 velocity=0 time=22', 'note_on channel=0 note=71 velocity=83 time=54', 'note_on channel=0 note=67 velocity=78 time=1', 'note_on channel=0 note=67 velocity=0 time=29', 'note_on channel=0 note=71 velocity=0 time=14')
Note: ('note_on channel=0 note=71 velocity=83 time=54', 'note_on channel=0 note=67 velocity=78 time=1', 'note_on channel=0 note=67 velocity=0 time=29', 'note_on channel=0 note=71 velocity=0 time=14', 'note_on channel=0 note=69 velocity=77 time=60')
Note: ('note_on channel=0 note=67 velocity=78 time=1', 'note_on channel=0 note=67 velocity=0 time=29', 'note_on channel=0 note=71 velocity=0 time=14', 'note_on channel=0 note=69 velocity=77 time=60', 'note_on channel=0 note=66 velocity=76 time=1')
Note: ('note_on channel=0 note=67 velocity=0 time=29', 'note_on channel=0 note=71 velocity=0 time=14', 'note_on channel=0 note=69 velocity=77 time=60', 'note_on channel=0 note=66 velocity=76 time=1', 'note_on channel=0 note=66 velocity=0 time=27')
Note: ('note_on channel=0 note=71 velocity=0 time=14', 'note_on channel=0 note=69 velocity=77 time=60', 'note_on channel=0 note=66 velocity=76 time=1', 'note_on channel=0 note=66 velocity=0 time=27', 'note_on channel=0 note=69 velocity=0 time=11')
Note: ('note_on channel=0 note=69 velocity=77 time=60', 'note_on channel=0 note=66 velocity=76 time=1', 'note_on channel=0 note=66 velocity=0 time=27', 'note_on channel=0 note=69 velocity=0 time=11', 'note_on channel=0 note=64 velocity=73 time=63')
Note: ('note_on channel=0 note=66 velocity=76 time=1', 'note_on channel=0 note=66 velocity=0 time=27', 'note_on channel=0 note=69 velocity=0 time=11', 'note_on channel=0 note=64 velocity=73 time=63', 'note_on channel=0 note=67 velocity=72 time=0')
Note: ('note_on channel=0 note=66 velocity=0 time=27', 'note_on channel=0 note=69 velocity=0 time=11', 'note_on channel=0 note=64 velocity=73 time=63', 'note_on channel=0 note=67 velocity=72 time=0', 'note_on channel=0 note=64 velocity=0 time=37')
Note: ('note_on channel=0 note=69 velocity=0 time=11', 'note_on channel=0 note=64 velocity=73 time=63', 'note_on channel=0 note=67 velocity=72 time=0', 'note_on channel=0 note=64 velocity=0 time=37', 'note_on channel=0 note=67 velocity=0 time=22')
Note: ('note_on channel=0 note=64 velocity=73 time=63', 'note_on channel=0 note=67 velocity=72 time=0', 'note_on channel=0 note=64 velocity=0 time=37', 'note_on channel=0 note=67 velocity=0 time=22', 'note_on channel=0 note=62 velocity=80 time=66')
Note: ('note_on channel=0 note=67 velocity=72 time=0', 'note_on channel=0 note=64 velocity=0 time=37', 'note_on channel=0 note=67 velocity=0 time=22', 'note_on channel=0 note=62 velocity=80 time=66', 'note_on channel=0 note=66 velocity=85 time=0')
Note: ('note_on channel=0 note=64 velocity=0 time=37', 'note_on channel=0 note=67 velocity=0 time=22', 'note_on channel=0 note=62 velocity=80 time=66', 'note_on channel=0 note=66 velocity=85 time=0', 'note_on channel=0 note=62 velocity=0 time=21')
Note: ('note_on channel=0 note=67 velocity=0 time=22', 'note_on channel=0 note=62 velocity=80 time=66', 'note_on channel=0 note=66 velocity=85 time=0', 'note_on channel=0 note=62 velocity=0 time=21', 'note_on channel=0 note=66 velocity=0 time=7')
Note: ('note_on channel=0 note=62 velocity=80 time=66', 'note_on channel=0 note=66 velocity=85 time=0', 'note_on channel=0 note=62 velocity=0 time=21', 'note_on channel=0 note=66 velocity=0 time=7', 'note_on channel=0 note=81 velocity=96 time=1')
Note: ('note_on channel=0 note=66 velocity=85 time=0', 'note_on channel=0 note=62 velocity=0 time=21', 'note_on channel=0 note=66 velocity=0 time=7', 'note_on channel=0 note=81 velocity=96 time=1', 'note_on channel=0 note=78 velocity=81 time=7')
Note: ('note_on channel=0 note=74 velocity=92 time=786', 'note_on channel=0 note=74 velocity=0 time=48', 'note_on channel=0 note=81 velocity=93 time=353', 'note_on channel=0 note=57 velocity=79 time=373', 'note_on channel=0 note=57 velocity=0 time=49')
Note: ('note_on channel=0 note=74 velocity=0 time=48', 'note_on channel=0 note=81 velocity=93 time=353', 'note_on channel=0 note=57 velocity=79 time=373', 'note_on channel=0 note=57 velocity=0 time=49', 'note_on channel=0 note=62 velocity=86 time=337')
Note: ('note_on channel=0 note=81 velocity=93 time=353', 'note_on channel=0 note=57 velocity=79 time=373', 'note_on channel=0 note=57 velocity=0 time=49', 'note_on channel=0 note=62 velocity=86 time=337', 'note_on channel=0 note=62 velocity=0 time=12')
Note: ('note_on channel=0 note=57 velocity=79 time=373', 'note_on channel=0 note=57 velocity=0 time=49', 'note_on channel=0 note=62 velocity=86 time=337', 'note_on channel=0 note=62 velocity=0 time=12', 'note_on channel=0 note=81 velocity=0 time=0')
Note: ('note_on channel=0 note=62 velocity=86 time=337', 'note_on channel=0 note=62 velocity=0 time=12', 'note_on channel=0 note=81 velocity=0 time=0', 'note_on channel=0 note=78 velocity=97 time=304')
Note: ('note_on channel=0 note=62 velocity=0 time=12', 'note_on channel=0 note=81 velocity=0 time=0', 'note_on channel=0 note=78 velocity=97 time=304', 'note_on channel=0 note=74 velocity=82 time=7')
Note: ('note_on channel=0 note=81 velocity=0 time=0', 'note_on channel=0 note=78 velocity=97 time=304', 'note_on channel=0 note=74 velocity=82 time=7', 'note_on channel=0 note=74 velocity=0 time=319')
Note: ('note_on channel=0 note=78 velocity=97 time=304', 'note_on channel=0 note=74 velocity=82 time=7', 'note_on channel=0 note=74 velocity=0 time=319', 'note_on channel=0 note=73 velocity=73 time=36')
Note: ('note_on channel=0 note=74 velocity=82 time=7', 'note_on channel=0 note=74 velocity=0 time=319', 'note_on channel=0 note=73 velocity=73 time=36', 'note_on channel=0 note=76 velocity=79 time=7')
Note: ('note_on channel=0 note=74 velocity=0 time=319', 'note_on channel=0 note=73 velocity=73 time=36', 'note_on channel=0 note=76 velocity=79 time=7', 'note_on channel=0 note=78 velocity=0 time=2')
Note: ('note_on channel=0 note=73 velocity=73 time=36', 'note_on channel=0 note=76 velocity=79 time=7', 'note_on channel=0 note=78 velocity=0 time=2', 'note_on channel=0 note=73 velocity=0 time=25')
Note: ('note_on channel=0 note=76 velocity=79 time=7', 'note_on channel=0 note=78 velocity=0 time=2', 'note_on channel=0 note=73 velocity=0 time=25', 'note_on channel=0 note=76 velocity=0 time=11')
Note: ('note_on channel=0 note=78 velocity=0 time=2', 'note_on channel=0 note=73 velocity=0 time=25', 'note_on channel=0 note=76 velocity=0 time=11', 'note_on channel=0 note=71 velocity=78 time=65')
Note: ('note_on channel=0 note=73 velocity=0 time=25', 'note_on channel=0 note=76 velocity=0 time=11', 'note_on channel=0 note=71 velocity=78 time=65', 'note_on channel=0 note=74 velocity=72 time=4')
Note: ('note_on channel=0 note=76 velocity=0 time=11', 'note_on channel=0 note=71 velocity=78 time=65', 'note_on channel=0 note=74 velocity=72 time=4', 'note_on channel=0 note=71 velocity=0 time=26')
Note: ('note_on channel=0 note=71 velocity=78 time=65', 'note_on channel=0 note=74 velocity=72 time=4', 'note_on channel=0 note=71 velocity=0 time=26', 'note_on channel=0 note=74 velocity=0 time=11')
Note: ('note_on channel=0 note=74 velocity=72 time=4', 'note_on channel=0 note=71 velocity=0 time=26', 'note_on channel=0 note=74 velocity=0 time=11', 'note_on channel=0 note=73 velocity=79 time=54')
Note: ('note_on channel=0 note=71 velocity=0 time=26', 'note_on channel=0 note=74 velocity=0 time=11', 'note_on channel=0 note=73 velocity=79 time=54', 'note_on channel=0 note=69 velocity=76 time=9')
Note: ('note_on channel=0 note=74 velocity=0 time=11', 'note_on channel=0 note=73 velocity=79 time=54', 'note_on channel=0 note=69 velocity=76 time=9', 'note_on channel=0 note=69 velocity=0 time=24')
Note: ('note_on channel=0 note=73 velocity=79 time=54', 'note_on channel=0 note=69 velocity=76 time=9', 'note_on channel=0 note=69 velocity=0 time=24', 'note_on channel=0 note=73 velocity=0 time=22')
Note: ('note_on channel=0 note=69 velocity=76 time=9', 'note_on channel=0 note=69 velocity=0 time=24', 'note_on channel=0 note=73 velocity=0 time=22', 'note_on channel=0 note=71 velocity=83 time=54')
Note: ('note_on channel=0 note=69 velocity=0 time=24', 'note_on channel=0 note=73 velocity=0 time=22', 'note_on channel=0 note=71 velocity=83 time=54', 'note_on channel=0 note=67 velocity=78 time=1')
Note: ('note_on channel=0 note=73 velocity=0 time=22', 'note_on channel=0 note=71 velocity=83 time=54', 'note_on channel=0 note=67 velocity=78 time=1', 'note_on channel=0 note=67 velocity=0 time=29')
Note: ('note_on channel=0 note=71 velocity=83 time=54', 'note_on channel=0 note=67 velocity=78 time=1', 'note_on channel=0 note=67 velocity=0 time=29', 'note_on channel=0 note=71 velocity=0 time=14')
Note: ('note_on channel=0 note=67 velocity=78 time=1', 'note_on channel=0 note=67 velocity=0 time=29', 'note_on channel=0 note=71 velocity=0 time=14', 'note_on channel=0 note=69 velocity=77 time=60')
Note: ('note_on channel=0 note=67 velocity=0 time=29', 'note_on channel=0 note=71 velocity=0 time=14', 'note_on channel=0 note=69 velocity=77 time=60', 'note_on channel=0 note=66 velocity=76 time=1')
Note: ('note_on channel=0 note=71 velocity=0 time=14', 'note_on channel=0 note=69 velocity=77 time=60', 'note_on channel=0 note=66 velocity=76 time=1', 'note_on channel=0 note=66 velocity=0 time=27')
Note: ('note_on channel=0 note=69 velocity=77 time=60', 'note_on channel=0 note=66 velocity=76 time=1', 'note_on channel=0 note=66 velocity=0 time=27', 'note_on channel=0 note=69 velocity=0 time=11')
Note: ('note_on channel=0 note=66 velocity=76 time=1', 'note_on channel=0 note=66 velocity=0 time=27', 'note_on channel=0 note=69 velocity=0 time=11', 'note_on channel=0 note=64 velocity=73 time=63')
Note: ('note_on channel=0 note=66 velocity=0 time=27', 'note_on channel=0 note=69 velocity=0 time=11', 'note_on channel=0 note=64 velocity=73 time=63', 'note_on channel=0 note=67 velocity=72 time=0')
Note: ('note_on channel=0 note=69 velocity=0 time=11', 'note_on channel=0 note=64 velocity=73 time=63', 'note_on channel=0 note=67 velocity=72 time=0', 'note_on channel=0 note=64 velocity=0 time=37')
Note: ('note_on channel=0 note=64 velocity=73 time=63', 'note_on channel=0 note=67 velocity=72 time=0', 'note_on channel=0 note=64 velocity=0 time=37', 'note_on channel=0 note=67 velocity=0 time=22')
Note: ('note_on channel=0 note=67 velocity=72 time=0', 'note_on channel=0 note=64 velocity=0 time=37', 'note_on channel=0 note=67 velocity=0 time=22', 'note_on channel=0 note=62 velocity=80 time=66')
Note: ('note_on channel=0 note=64 velocity=0 time=37', 'note_on channel=0 note=67 velocity=0 time=22', 'note_on channel=0 note=62 velocity=80 time=66', 'note_on channel=0 note=66 velocity=85 time=0')
Note: ('note_on channel=0 note=67 velocity=0 time=22', 'note_on channel=0 note=62 velocity=80 time=66', 'note_on channel=0 note=66 velocity=85 time=0', 'note_on channel=0 note=62 velocity=0 time=21')
Note: ('note_on channel=0 note=67 velocity=0 time=22', 'note_on channel=0 note=62 velocity=80 time=66', 'note_on channel=0 note=66 velocity=85 time=0', 'note_on channel=0 note=62 velocity=0 time=21', 'note_on channel=0 note=66 velocity=0 time=7')
Note: ('note_on channel=0 note=62 velocity=80 time=66', 'note_on channel=0 note=66 velocity=85 time=0', 'note_on channel=0 note=62 velocity=0 time=21', 'note_on channel=0 note=66 velocity=0 time=7', 'note_on channel=0 note=81 velocity=96 time=1')
Note: ('note_on channel=0 note=66 velocity=85 time=0', 'note_on channel=0 note=62 velocity=0 time=21', 'note_on channel=0 note=66 velocity=0 time=7', 'note_on channel=0 note=81 velocity=96 time=1', 'note_on channel=0 note=78 velocity=81 time=7')
Note: ('note_on channel=0 note=62 velocity=0 time=21', 'note_on channel=0 note=66 velocity=0 time=7', 'note_on channel=0 note=81 velocity=96 time=1', 'note_on channel=0 note=78 velocity=81 time=7', 'note_on channel=0 note=78 velocity=0 time=338')
Note: ('note_on channel=0 note=66 velocity=0 time=7', 'note_on channel=0 note=81 velocity=96 time=1', 'note_on channel=0 note=78 velocity=81 time=7', 'note_on channel=0 note=78 velocity=0 time=338', 'note_on channel=0 note=81 velocity=0 time=12')
Note: ('note_on channel=0 note=81 velocity=96 time=1', 'note_on channel=0 note=78 velocity=81 time=7', 'note_on channel=0 note=78 velocity=0 time=338', 'note_on channel=0 note=81 velocity=0 time=12', 'note_on channel=0 note=79 velocity=84 time=13')
Note: ('note_on channel=0 note=78 velocity=81 time=7', 'note_on channel=0 note=78 velocity=0 time=338', 'note_on channel=0 note=81 velocity=0 time=12', 'note_on channel=0 note=79 velocity=84 time=13', 'note_on channel=0 note=76 velocity=70 time=15')
Note: ('note_on channel=0 note=78 velocity=0 time=338', 'note_on channel=0 note=81 velocity=0 time=12', 'note_on channel=0 note=79 velocity=84 time=13', 'note_on channel=0 note=76 velocity=70 time=15', 'note_on channel=0 note=76 velocity=0 time=27')
Note: ('note_on channel=0 note=81 velocity=0 time=12', 'note_on channel=0 note=79 velocity=84 time=13', 'note_on channel=0 note=76 velocity=70 time=15', 'note_on channel=0 note=76 velocity=0 time=27', 'note_on channel=0 note=79 velocity=0 time=17')
Note: ('note_on channel=0 note=79 velocity=84 time=13', 'note_on channel=0 note=76 velocity=70 time=15', 'note_on channel=0 note=76 velocity=0 time=27', 'note_on channel=0 note=79 velocity=0 time=17', 'note_on channel=0 note=78 velocity=89 time=50')
Note: ('note_on channel=0 note=76 velocity=70 time=15', 'note_on channel=0 note=76 velocity=0 time=27', 'note_on channel=0 note=79 velocity=0 time=17', 'note_on channel=0 note=78 velocity=89 time=50', 'note_on channel=0 note=74 velocity=81 time=7')
Note: ('note_on channel=0 note=76 velocity=0 time=27', 'note_on channel=0 note=79 velocity=0 time=17', 'note_on channel=0 note=78 velocity=89 time=50', 'note_on channel=0 note=74 velocity=81 time=7', 'note_on channel=0 note=74 velocity=0 time=34')
Note: ('note_on channel=0 note=79 velocity=0 time=17', 'note_on channel=0 note=78 velocity=89 time=50', 'note_on channel=0 note=74 velocity=81 time=7', 'note_on channel=0 note=74 velocity=0 time=34', 'note_on channel=0 note=78 velocity=0 time=19')
Note: ('note_on channel=0 note=78 velocity=89 time=50', 'note_on channel=0 note=74 velocity=81 time=7', 'note_on channel=0 note=74 velocity=0 time=34', 'note_on channel=0 note=78 velocity=0 time=19', 'note_on channel=0 note=76 velocity=92 time=47')
Note: ('note_on channel=0 note=74 velocity=81 time=7', 'note_on channel=0 note=74 velocity=0 time=34', 'note_on channel=0 note=78 velocity=0 time=19', 'note_on channel=0 note=76 velocity=92 time=47', 'note_on channel=0 note=73 velocity=83 time=1')
Note: ('note_on channel=0 note=74 velocity=0 time=34', 'note_on channel=0 note=78 velocity=0 time=19', 'note_on channel=0 note=76 velocity=92 time=47', 'note_on channel=0 note=73 velocity=83 time=1', 'note_on channel=0 note=76 velocity=0 time=46')
Note: ('note_on channel=0 note=78 velocity=0 time=19', 'note_on channel=0 note=76 velocity=92 time=47', 'note_on channel=0 note=73 velocity=83 time=1', 'note_on channel=0 note=76 velocity=0 time=46', 'note_on channel=0 note=73 velocity=0 time=4')
Note: ('note_on channel=0 note=76 velocity=92 time=47', 'note_on channel=0 note=73 velocity=83 time=1', 'note_on channel=0 note=76 velocity=0 time=46', 'note_on channel=0 note=73 velocity=0 time=4', 'note_on channel=0 note=74 velocity=89 time=48')
Note: ('note_on channel=0 note=73 velocity=83 time=1', 'note_on channel=0 note=76 velocity=0 time=46', 'note_on channel=0 note=73 velocity=0 time=4', 'note_on channel=0 note=74 velocity=89 time=48', 'note_on channel=0 note=71 velocity=79 time=8')
Note: ('note_on channel=0 note=76 velocity=0 time=46', 'note_on channel=0 note=73 velocity=0 time=4', 'note_on channel=0 note=74 velocity=89 time=48', 'note_on channel=0 note=71 velocity=79 time=8', 'note_on channel=0 note=71 velocity=0 time=38')
Note: ('note_on channel=0 note=73 velocity=0 time=4', 'note_on channel=0 note=74 velocity=89 time=48', 'note_on channel=0 note=71 velocity=79 time=8', 'note_on channel=0 note=71 velocity=0 time=38', 'note_on channel=0 note=74 velocity=0 time=10')
Note: ('note_on channel=0 note=74 velocity=89 time=48', 'note_on channel=0 note=71 velocity=79 time=8', 'note_on channel=0 note=71 velocity=0 time=38', 'note_on channel=0 note=74 velocity=0 time=10', 'note_on channel=0 note=73 velocity=90 time=48')
Note: ('note_on channel=0 note=71 velocity=79 time=8', 'note_on channel=0 note=71 velocity=0 time=38', 'note_on channel=0 note=74 velocity=0 time=10', 'note_on channel=0 note=73 velocity=90 time=48', 'note_on channel=0 note=69 velocity=81 time=6')
Note: ('note_on channel=0 note=71 velocity=0 time=38', 'note_on channel=0 note=74 velocity=0 time=10', 'note_on channel=0 note=73 velocity=90 time=48', 'note_on channel=0 note=69 velocity=81 time=6', 'note_on channel=0 note=69 velocity=0 time=25')
Note: ('note_on channel=0 note=74 velocity=0 time=10', 'note_on channel=0 note=73 velocity=90 time=48', 'note_on channel=0 note=69 velocity=81 time=6', 'note_on channel=0 note=69 velocity=0 time=25', 'note_on channel=0 note=73 velocity=0 time=28')
Note: ('note_on channel=0 note=73 velocity=90 time=48', 'note_on channel=0 note=69 velocity=81 time=6', 'note_on channel=0 note=69 velocity=0 time=25', 'note_on channel=0 note=73 velocity=0 time=28', 'note_on channel=0 note=67 velocity=79 time=42')
Note: ('note_on channel=0 note=69 velocity=81 time=6', 'note_on channel=0 note=69 velocity=0 time=25', 'note_on channel=0 note=73 velocity=0 time=28', 'note_on channel=0 note=67 velocity=79 time=42', 'note_on channel=0 note=71 velocity=88 time=5')
Note: ('note_on channel=0 note=69 velocity=0 time=25', 'note_on channel=0 note=73 velocity=0 time=28', 'note_on channel=0 note=67 velocity=79 time=42', 'note_on channel=0 note=71 velocity=88 time=5', 'note_on channel=0 note=67 velocity=0 time=25')
Note: ('note_on channel=0 note=73 velocity=0 time=28', 'note_on channel=0 note=67 velocity=79 time=42', 'note_on channel=0 note=71 velocity=88 time=5', 'note_on channel=0 note=67 velocity=0 time=25', 'note_on channel=0 note=71 velocity=0 time=19')
Note: ('note_on channel=0 note=67 velocity=79 time=42', 'note_on channel=0 note=71 velocity=88 time=5', 'note_on channel=0 note=67 velocity=0 time=25', 'note_on channel=0 note=71 velocity=0 time=19', 'note_on channel=0 note=66 velocity=80 time=70')
Note: ('note_on channel=0 note=71 velocity=88 time=5', 'note_on channel=0 note=67 velocity=0 time=25', 'note_on channel=0 note=71 velocity=0 time=19', 'note_on channel=0 note=66 velocity=80 time=70', 'note_on channel=0 note=69 velocity=82 time=6')
Note: ('note_on channel=0 note=67 velocity=0 time=25', 'note_on channel=0 note=71 velocity=0 time=19', 'note_on channel=0 note=66 velocity=80 time=70', 'note_on channel=0 note=69 velocity=82 time=6', 'note_on channel=0 note=66 velocity=0 time=23')
Note: ('note_on channel=0 note=71 velocity=0 time=19', 'note_on channel=0 note=66 velocity=80 time=70', 'note_on channel=0 note=69 velocity=82 time=6', 'note_on channel=0 note=66 velocity=0 time=23', 'note_on channel=0 note=69 velocity=0 time=6')
Note: ('note_on channel=0 note=66 velocity=80 time=70', 'note_on channel=0 note=69 velocity=82 time=6', 'note_on channel=0 note=66 velocity=0 time=23', 'note_on channel=0 note=69 velocity=0 time=6', 'note_on channel=0 note=86 velocity=87 time=2')
Note: ('note_on channel=0 note=69 velocity=82 time=6', 'note_on channel=0 note=66 velocity=0 time=23', 'note_on channel=0 note=69 velocity=0 time=6', 'note_on channel=0 note=86 velocity=87 time=2', 'note_on channel=0 note=66 velocity=61 time=9')
Note: ('note_on channel=0 note=66 velocity=0 time=23', 'note_on channel=0 note=69 velocity=0 time=6', 'note_on channel=0 note=86 velocity=87 time=2', 'note_on channel=0 note=66 velocity=61 time=9', 'note_on channel=0 note=66 velocity=0 time=37')
Note: ('note_on channel=0 note=66 velocity=0 time=37', 'note_on channel=0 note=81 velocity=90 time=34')
Note: ('note_on channel=0 note=81 velocity=90 time=34', 'note_on channel=0 note=86 velocity=0 time=23')
Note: ('note_on channel=0 note=86 velocity=0 time=23', 'note_on channel=0 note=81 velocity=0 time=64')
Note: ('note_on channel=0 note=81 velocity=0 time=64', 'note_on channel=0 note=74 velocity=92 time=6')
Note: ('note_on channel=0 note=74 velocity=92 time=6', 'note_on channel=0 note=67 velocity=60 time=141')
Note: ('note_on channel=0 note=67 velocity=60 time=141', 'note_on channel=0 note=74 velocity=0 time=0')
Note: ('note_on channel=0 note=74 velocity=0 time=0', 'note_on channel=0 note=78 velocity=75 time=2')
Note: ('note_on channel=0 note=78 velocity=75 time=2', 'note_on channel=0 note=78 velocity=0 time=72')
Note: ('note_on channel=0 note=78 velocity=0 time=72', 'note_on channel=0 note=76 velocity=74 time=4')
Note: ('note_on channel=0 note=76 velocity=74 time=4', 'note_on channel=0 note=67 velocity=0 time=18')
Note: ('note_on channel=0 note=67 velocity=0 time=18', 'note_on channel=0 note=76 velocity=0 time=39')
Note: ('note_on channel=0 note=76 velocity=0 time=39', 'note_on channel=0 note=78 velocity=74 time=2')
Note: ('note_on channel=0 note=78 velocity=74 time=2', 'note_on channel=0 note=76 velocity=71 time=11')
Note: ('note_on channel=0 note=76 velocity=71 time=11', 'note_on channel=0 note=78 velocity=0 time=3')
Note: ('note_on channel=0 note=78 velocity=0 time=3', 'note_on channel=0 note=76 velocity=0 time=15')
Note: ('note_on channel=0 note=76 velocity=0 time=15', 'note_on channel=0 note=78 velocity=72 time=2')
Note: ('note_on channel=0 note=78 velocity=72 time=2', 'note_on channel=0 note=76 velocity=71 time=11')
Note: ('note_on channel=0 note=76 velocity=71 time=11', 'note_on channel=0 note=78 velocity=0 time=0')
Note: ('note_on channel=0 note=78 velocity=0 time=0', 'note_on channel=0 note=76 velocity=0 time=15')
Note: ('note_on channel=0 note=76 velocity=0 time=15', 'note_on channel=0 note=78 velocity=70 time=2')
Note: ('note_on channel=0 note=78 velocity=70 time=2', 'note_on channel=0 note=69 velocity=62 time=8')
Note: ('note_on channel=0 note=69 velocity=62 time=8', 'note_on channel=0 note=69 velocity=0 time=10')
Note: ('note_on channel=0 note=69 velocity=0 time=10', 'note_on channel=0 note=76 velocity=67 time=3')
Note: ('note_on channel=0 note=76 velocity=67 time=3', 'note_on channel=0 note=78 velocity=0 time=2')
Note: ('note_on channel=0 note=78 velocity=0 time=2', 'note_on channel=0 note=76 velocity=0 time=51')
Note: ('note_on channel=0 note=76 velocity=0 time=51', 'note_on channel=0 note=78 velocity=72 time=8')
Note: ('note_on channel=0 note=78 velocity=72 time=8', 'note_on channel=0 note=76 velocity=68 time=10')
Note: ('note_on channel=0 note=76 velocity=68 time=10', 'note_on channel=0 note=78 velocity=0 time=0')
Note: ('note_on channel=0 note=78 velocity=0 time=0', 'note_on channel=0 note=76 velocity=0 time=0')
Note: ('note_on channel=0 note=76 velocity=0 time=0', 'note_on channel=0 note=74 velocity=71 time=7')
Note: ('note_on channel=0 note=74 velocity=71 time=7', 'note_on channel=0 note=74 velocity=0 time=11')
Note: ('note_on channel=0 note=74 velocity=0 time=11', 'note_on channel=0 note=76 velocity=70 time=3')
Note: ('note_on channel=0 note=76 velocity=70 time=3', 'note_on channel=0 note=76 velocity=0 time=0')
Note: ('note_on channel=0 note=76 velocity=0 time=0', 'note_on channel=0 note=62 velocity=46 time=5')
Note: ('note_on channel=0 note=62 velocity=46 time=5', 'note_on channel=0 note=78 velocity=70 time=0')
Note: ('note_on channel=0 note=78 velocity=70 time=0', 'note_on channel=0 note=78 velocity=0 time=8')
Note: ('note_on channel=0 note=78 velocity=0 time=8', 'note_on channel=0 note=62 velocity=0 time=6')
Note: ('note_on channel=0 note=62 velocity=0 time=6', 'note_on channel=0 note=62 velocity=67 time=0')
Note: ('note_on channel=0 note=62 velocity=67 time=0', 'note_on channel=0 note=81 velocity=73 time=1')
Note: ('note_on channel=0 note=81 velocity=73 time=1', 'note_on channel=0 note=62 velocity=0 time=13')
Note: ('note_on channel=0 note=62 velocity=0 time=13', 'note_on channel=0 note=81 velocity=0 time=14')
Note: ('note_on channel=0 note=81 velocity=0 time=14', 'note_on channel=0 note=74 velocity=68 time=3')
Note: ('note_on channel=0 note=74 velocity=68 time=3', 'note_on channel=0 note=74 velocity=0 time=36')
Note: ('note_on channel=0 note=74 velocity=0 time=36', 'note_on channel=0 note=69 velocity=59 time=33')
Note: ('note_on channel=0 note=69 velocity=59 time=33', 'note_on channel=0 note=55 velocity=61 time=60')
Note: ('note_on channel=0 note=55 velocity=61 time=60', 'note_on channel=0 note=71 velocity=66 time=4')
Note: ('note_on channel=0 note=71 velocity=66 time=4', 'note_on channel=0 note=69 velocity=0 time=3')
Note: ('note_on channel=0 note=69 velocity=0 time=3', 'note_on channel=0 note=55 velocity=0 time=14')
Note: ('note_on channel=0 note=55 velocity=0 time=14', 'note_on channel=0 note=71 velocity=0 time=13')
Note: ('note_on channel=0 note=71 velocity=0 time=13', 'note_on channel=0 note=73 velocity=68 time=10')
Note: ('note_on channel=0 note=73 velocity=68 time=10', 'note_on channel=0 note=73 velocity=0 time=8')
Note: ('note_on channel=0 note=73 velocity=0 time=8', 'note_on channel=0 note=71 velocity=65 time=1')
Note: ('note_on channel=0 note=71 velocity=65 time=1', 'note_on channel=0 note=64 velocity=59 time=16')
Note: ('note_on channel=0 note=64 velocity=59 time=16', 'note_on channel=0 note=71 velocity=0 time=12')
Note: ('note_on channel=0 note=71 velocity=0 time=12', 'note_on channel=0 note=64 velocity=0 time=9')
Note: ('note_on channel=0 note=64 velocity=0 time=9', 'note_on channel=0 note=69 velocity=68 time=23')
Note: ('note_on channel=0 note=69 velocity=68 time=23', 'note_on channel=0 note=69 velocity=0 time=11')
Note: ('note_on channel=0 note=69 velocity=0 time=11', 'note_on channel=0 note=71 velocity=62 time=1')
Note: ('note_on channel=0 note=71 velocity=62 time=1', 'note_on channel=0 note=57 velocity=61 time=9')
Note: ('note_on channel=0 note=57 velocity=61 time=9', 'note_on channel=0 note=73 velocity=73 time=3')
Note: ('note_on channel=0 note=73 velocity=73 time=3', 'note_on channel=0 note=71 velocity=0 time=3')
Note: ('note_on channel=0 note=71 velocity=0 time=3', 'note_on channel=0 note=57 velocity=0 time=6')
Note: ('note_on channel=0 note=57 velocity=0 time=6', 'note_on channel=0 note=73 velocity=0 time=10')
Note: ('note_on channel=0 note=73 velocity=0 time=10', 'note_on channel=0 note=74 velocity=68 time=5')
Note: ('note_on channel=0 note=74 velocity=68 time=5', 'note_on channel=0 note=73 velocity=67 time=12')
Note: ('note_on channel=0 note=73 velocity=67 time=12', 'note_on channel=0 note=74 velocity=0 time=10')
Note: ('note_on channel=0 note=74 velocity=0 time=10', 'note_on channel=0 note=66 velocity=59 time=24')
Note: ('note_on channel=0 note=66 velocity=59 time=24', 'note_on channel=0 note=73 velocity=0 time=13')
Note: ('note_on channel=0 note=73 velocity=0 time=13', 'note_on channel=0 note=66 velocity=0 time=2')
Note: ('note_on channel=0 note=66 velocity=0 time=2', 'note_on channel=0 note=71 velocity=68 time=11')
Note: ('note_on channel=0 note=71 velocity=68 time=11', 'note_on channel=0 note=73 velocity=59 time=3')
Note: ('note_on channel=0 note=73 velocity=59 time=3', 'note_on channel=0 note=71 velocity=0 time=8')
Note: ('note_on channel=0 note=71 velocity=0 time=8', 'note_on channel=0 note=59 velocity=65 time=13')
Note: ('note_on channel=0 note=59 velocity=65 time=13', 'note_on channel=0 note=74 velocity=80 time=1')
Note: ('note_on channel=0 note=74 velocity=80 time=1', 'note_on channel=0 note=73 velocity=0 time=8')
Note: ('note_on channel=0 note=73 velocity=0 time=8', 'note_on channel=0 note=59 velocity=0 time=4')
Note: ('note_on channel=0 note=59 velocity=0 time=4', 'note_on channel=0 note=74 velocity=0 time=6')
Note: ('note_on channel=0 note=74 velocity=0 time=6', 'note_on channel=0 note=76 velocity=67 time=15')
Note: ('note_on channel=0 note=76 velocity=67 time=15', 'note_on channel=0 note=74 velocity=71 time=60')
Note: ('note_on channel=0 note=74 velocity=71 time=60', 'note_on channel=0 note=76 velocity=0 time=2')
Note: ('note_on channel=0 note=59 velocity=0 time=4', 'note_on channel=0 note=74 velocity=0 time=6', 'note_on channel=0 note=76 velocity=67 time=15', 'note_on channel=0 note=74 velocity=71 time=60', 'note_on channel=0 note=76 velocity=0 time=2', 'note_on channel=0 note=67 velocity=61 time=26')
Note: ('note_on channel=0 note=74 velocity=0 time=6', 'note_on channel=0 note=76 velocity=67 time=15', 'note_on channel=0 note=74 velocity=71 time=60', 'note_on channel=0 note=76 velocity=0 time=2', 'note_on channel=0 note=67 velocity=61 time=26', 'note_on channel=0 note=67 velocity=61 time=26')
Note: ('note_on channel=0 note=76 velocity=67 time=15', 'note_on channel=0 note=74 velocity=71 time=60', 'note_on channel=0 note=76 velocity=0 time=2', 'note_on channel=0 note=67 velocity=61 time=26', 'note_on channel=0 note=67 velocity=61 time=26', 'note_on channel=0 note=74 velocity=0 time=19')
Note: ('note_on channel=0 note=74 velocity=71 time=60', 'note_on channel=0 note=76 velocity=0 time=2', 'note_on channel=0 note=67 velocity=61 time=26', 'note_on channel=0 note=67 velocity=61 time=26', 'note_on channel=0 note=74 velocity=0 time=19', 'note_on channel=0 note=74 velocity=0 time=19')
Note: ('note_on channel=0 note=76 velocity=0 time=2', 'note_on channel=0 note=67 velocity=61 time=26', 'note_on channel=0 note=67 velocity=61 time=26', 'note_on channel=0 note=74 velocity=0 time=19', 'note_on channel=0 note=74 velocity=0 time=19', 'note_on channel=0 note=74 velocity=0 time=19')
Note: ('note_on channel=0 note=67 velocity=61 time=26', 'note_on channel=0 note=67 velocity=61 time=26', 'note_on channel=0 note=74 velocity=0 time=19', 'note_on channel=0 note=74 velocity=0 time=19', 'note_on channel=0 note=74 velocity=0 time=19', 'note_on channel=0 note=74 velocity=0 time=19')
Note: ('note_on channel=0 note=67 velocity=61 time=26', 'note_on channel=0 note=74 velocity=0 time=19', 'note_on channel=0 note=74 velocity=0 time=19', 'note_on channel=0 note=74 velocity=0 time=19', 'note_on channel=0 note=74 velocity=0 time=19', 'note_on channel=0 note=73 velocity=77 time=1')
Note: ('note_on channel=0 note=74 velocity=0 time=19', 'note_on channel=0 note=74 velocity=0 time=19', 'note_on channel=0 note=74 velocity=0 time=19', 'note_on channel=0 note=74 velocity=0 time=19', 'note_on channel=0 note=73 velocity=77 time=1', 'note_on channel=0 note=63 velocity=42 time=10')
Note: ('note_on channel=0 note=74 velocity=0 time=19', 'note_on channel=0 note=74 velocity=0 time=19', 'note_on channel=0 note=74 velocity=0 time=19', 'note_on channel=0 note=73 velocity=77 time=1', 'note_on channel=0 note=63 velocity=42 time=10', 'note_on channel=0 note=73 velocity=77 time=1')
Note: ('note_on channel=0 note=74 velocity=0 time=19', 'note_on channel=0 note=74 velocity=0 time=19', 'note_on channel=0 note=73 velocity=77 time=1', 'note_on channel=0 note=63 velocity=42 time=10', 'note_on channel=0 note=73 velocity=77 time=1', 'note_on channel=0 note=67 velocity=0 time=9')
Note: ('note_on channel=0 note=74 velocity=0 time=19', 'note_on channel=0 note=73 velocity=77 time=1', 'note_on channel=0 note=63 velocity=42 time=10', 'note_on channel=0 note=73 velocity=77 time=1', 'note_on channel=0 note=67 velocity=0 time=9', 'note_on channel=0 note=73 velocity=0 time=28')
Note: ('note_on channel=0 note=73 velocity=77 time=1', 'note_on channel=0 note=63 velocity=42 time=10', 'note_on channel=0 note=73 velocity=77 time=1', 'note_on channel=0 note=67 velocity=0 time=9', 'note_on channel=0 note=73 velocity=0 time=28', 'note_on channel=0 note=72 velocity=58 time=3')
Note: ('note_on channel=0 note=63 velocity=42 time=10', 'note_on channel=0 note=73 velocity=77 time=1', 'note_on channel=0 note=67 velocity=0 time=9', 'note_on channel=0 note=73 velocity=0 time=28', 'note_on channel=0 note=72 velocity=58 time=3', 'note_on channel=0 note=73 velocity=0 time=28')
Note: ('note_on channel=0 note=73 velocity=77 time=1', 'note_on channel=0 note=67 velocity=0 time=9', 'note_on channel=0 note=73 velocity=0 time=28', 'note_on channel=0 note=72 velocity=58 time=3', 'note_on channel=0 note=73 velocity=0 time=28', 'note_on channel=0 note=50 velocity=76 time=2')
Note: ('note_on channel=0 note=67 velocity=0 time=9', 'note_on channel=0 note=73 velocity=0 time=28', 'note_on channel=0 note=72 velocity=58 time=3', 'note_on channel=0 note=73 velocity=0 time=28', 'note_on channel=0 note=50 velocity=76 time=2', 'note_on channel=0 note=67 velocity=79 time=42')
Note: ('note_on channel=0 note=73 velocity=0 time=28', 'note_on channel=0 note=72 velocity=58 time=3', 'note_on channel=0 note=73 velocity=0 time=28', 'note_on channel=0 note=50 velocity=76 time=2', 'note_on channel=0 note=67 velocity=79 time=42', 'note_on channel=0 note=66 velocity=0 time=19')
Note: ('note_on channel=0 note=72 velocity=58 time=3', 'note_on channel=0 note=73 velocity=0 time=28', 'note_on channel=0 note=50 velocity=76 time=2', 'note_on channel=0 note=67 velocity=79 time=42', 'note_on channel=0 note=66 velocity=0 time=19', 'note_on channel=0 note=57 velocity=50 time=2')
Note: ('note_on channel=0 note=73 velocity=0 time=28', 'note_on channel=0 note=50 velocity=76 time=2', 'note_on channel=0 note=67 velocity=79 time=42', 'note_on channel=0 note=66 velocity=0 time=19', 'note_on channel=0 note=57 velocity=50 time=2', 'note_on channel=0 note=61 velocity=52 time=1')
Note: ('note_on channel=0 note=50 velocity=76 time=2', 'note_on channel=0 note=67 velocity=79 time=42', 'note_on channel=0 note=66 velocity=0 time=19', 'note_on channel=0 note=57 velocity=50 time=2', 'note_on channel=0 note=61 velocity=52 time=1', 'note_on channel=0 note=71 velocity=88 time=5')
Note: ('note_on channel=0 note=67 velocity=79 time=42', 'note_on channel=0 note=66 velocity=0 time=19', 'note_on channel=0 note=57 velocity=50 time=2', 'note_on channel=0 note=61 velocity=52 time=1', 'note_on channel=0 note=71 velocity=88 time=5', 'note_on channel=0 note=68 velocity=55 time=216')
Note: ('note_on channel=0 note=66 velocity=0 time=19', 'note_on channel=0 note=57 velocity=50 time=2', 'note_on channel=0 note=61 velocity=52 time=1', 'note_on channel=0 note=71 velocity=88 time=5', 'note_on channel=0 note=68 velocity=55 time=216', 'note_on channel=0 note=69 velocity=34 time=2')
Note: ('note_on channel=0 note=57 velocity=50 time=2', 'note_on channel=0 note=61 velocity=52 time=1', 'note_on channel=0 note=71 velocity=88 time=5', 'note_on channel=0 note=68 velocity=55 time=216', 'note_on channel=0 note=69 velocity=34 time=2', 'note_on channel=0 note=61 velocity=0 time=26')
Note: ('note_on channel=0 note=61 velocity=52 time=1', 'note_on channel=0 note=71 velocity=88 time=5', 'note_on channel=0 note=68 velocity=55 time=216', 'note_on channel=0 note=69 velocity=34 time=2', 'note_on channel=0 note=61 velocity=0 time=26', 'note_on channel=0 note=67 velocity=0 time=25')
Note: ('note_on channel=0 note=71 velocity=88 time=5', 'note_on channel=0 note=68 velocity=55 time=216', 'note_on channel=0 note=69 velocity=34 time=2', 'note_on channel=0 note=61 velocity=0 time=26', 'note_on channel=0 note=67 velocity=0 time=25', 'note_on channel=0 note=59 velocity=44 time=22')
Note: ('note_on channel=0 note=68 velocity=55 time=216', 'note_on channel=0 note=69 velocity=34 time=2', 'note_on channel=0 note=61 velocity=0 time=26', 'note_on channel=0 note=67 velocity=0 time=25', 'note_on channel=0 note=59 velocity=44 time=22', 'note_on channel=0 note=69 velocity=0 time=62')
Note: ('note_on channel=0 note=69 velocity=34 time=2', 'note_on channel=0 note=61 velocity=0 time=26', 'note_on channel=0 note=67 velocity=0 time=25', 'note_on channel=0 note=59 velocity=44 time=22', 'note_on channel=0 note=69 velocity=0 time=62', 'note_on channel=0 note=74 velocity=88 time=47')
Note: ('note_on channel=0 note=61 velocity=0 time=26', 'note_on channel=0 note=67 velocity=0 time=25', 'note_on channel=0 note=59 velocity=44 time=22', 'note_on channel=0 note=69 velocity=0 time=62', 'note_on channel=0 note=74 velocity=88 time=47', 'note_on channel=0 note=73 velocity=0 time=9')
Note: ('note_on channel=0 note=67 velocity=0 time=25', 'note_on channel=0 note=59 velocity=44 time=22', 'note_on channel=0 note=69 velocity=0 time=62', 'note_on channel=0 note=74 velocity=88 time=47', 'note_on channel=0 note=73 velocity=0 time=9', 'note_on channel=0 note=40 velocity=35 time=3')
Note: ('note_on channel=0 note=59 velocity=44 time=22', 'note_on channel=0 note=69 velocity=0 time=62', 'note_on channel=0 note=74 velocity=88 time=47', 'note_on channel=0 note=73 velocity=0 time=9', 'note_on channel=0 note=40 velocity=35 time=3', 'note_on channel=0 note=64 velocity=0 time=2')
Note: ('note_on channel=0 note=69 velocity=0 time=62', 'note_on channel=0 note=74 velocity=88 time=47', 'note_on channel=0 note=73 velocity=0 time=9', 'note_on channel=0 note=40 velocity=35 time=3', 'note_on channel=0 note=64 velocity=0 time=2', 'note_on channel=0 note=73 velocity=0 time=3')
Note: ('note_on channel=0 note=74 velocity=88 time=47', 'note_on channel=0 note=73 velocity=0 time=9', 'note_on channel=0 note=40 velocity=35 time=3', 'note_on channel=0 note=64 velocity=0 time=2', 'note_on channel=0 note=73 velocity=0 time=3', 'note_on channel=0 note=71 velocity=47 time=19')
Note: ('note_on channel=0 note=73 velocity=0 time=9', 'note_on channel=0 note=40 velocity=35 time=3', 'note_on channel=0 note=64 velocity=0 time=2', 'note_on channel=0 note=73 velocity=0 time=3', 'note_on channel=0 note=71 velocity=47 time=19', 'note_on channel=0 note=52 velocity=33 time=14')
Note: ('note_on channel=0 note=40 velocity=35 time=3', 'note_on channel=0 note=64 velocity=0 time=2', 'note_on channel=0 note=73 velocity=0 time=3', 'note_on channel=0 note=71 velocity=47 time=19', 'note_on channel=0 note=52 velocity=33 time=14', 'note_on channel=0 note=49 velocity=0 time=22')
Note: ('note_on channel=0 note=64 velocity=0 time=2', 'note_on channel=0 note=73 velocity=0 time=3', 'note_on channel=0 note=71 velocity=47 time=19', 'note_on channel=0 note=52 velocity=33 time=14', 'note_on channel=0 note=49 velocity=0 time=22', 'note_on channel=0 note=52 velocity=59 time=19')
Note: ('note_on channel=0 note=73 velocity=0 time=3', 'note_on channel=0 note=71 velocity=47 time=19', 'note_on channel=0 note=52 velocity=33 time=14', 'note_on channel=0 note=49 velocity=0 time=22', 'note_on channel=0 note=52 velocity=59 time=19', 'note_on channel=0 note=71 velocity=0 time=37')
Note: ('note_on channel=0 note=71 velocity=47 time=19', 'note_on channel=0 note=52 velocity=33 time=14', 'note_on channel=0 note=49 velocity=0 time=22', 'note_on channel=0 note=52 velocity=59 time=19', 'note_on channel=0 note=71 velocity=0 time=37', 'note_on channel=0 note=64 velocity=0 time=0')
Note: ('note_on channel=0 note=52 velocity=33 time=14', 'note_on channel=0 note=49 velocity=0 time=22', 'note_on channel=0 note=52 velocity=59 time=19', 'note_on channel=0 note=71 velocity=0 time=37', 'note_on channel=0 note=64 velocity=0 time=0', 'note_on channel=0 note=38 velocity=59 time=6')
Note: ('note_on channel=0 note=49 velocity=0 time=22', 'note_on channel=0 note=52 velocity=59 time=19', 'note_on channel=0 note=71 velocity=0 time=37', 'note_on channel=0 note=64 velocity=0 time=0', 'note_on channel=0 note=38 velocity=59 time=6', 'note_on channel=0 note=45 velocity=0 time=1')
Note: ('note_on channel=0 note=52 velocity=59 time=19', 'note_on channel=0 note=71 velocity=0 time=37', 'note_on channel=0 note=64 velocity=0 time=0', 'note_on channel=0 note=38 velocity=59 time=6', 'note_on channel=0 note=45 velocity=0 time=1', 'note_on channel=0 note=34 velocity=57 time=155')
Note: ('note_on channel=0 note=71 velocity=0 time=37', 'note_on channel=0 note=64 velocity=0 time=0', 'note_on channel=0 note=38 velocity=59 time=6', 'note_on channel=0 note=45 velocity=0 time=1', 'note_on channel=0 note=34 velocity=57 time=155', 'note_on channel=0 note=92 velocity=88 time=1')
Note: ('note_on channel=0 note=64 velocity=0 time=0', 'note_on channel=0 note=38 velocity=59 time=6', 'note_on channel=0 note=45 velocity=0 time=1', 'note_on channel=0 note=34 velocity=57 time=155', 'note_on channel=0 note=92 velocity=88 time=1', 'note_on channel=0 note=58 velocity=48 time=8')
Note: ('note_on channel=0 note=38 velocity=59 time=6', 'note_on channel=0 note=45 velocity=0 time=1', 'note_on channel=0 note=34 velocity=57 time=155', 'note_on channel=0 note=92 velocity=88 time=1', 'note_on channel=0 note=58 velocity=48 time=8', 'note_on channel=0 note=76 velocity=92 time=17')
Note: ('note_on channel=0 note=45 velocity=0 time=1', 'note_on channel=0 note=34 velocity=57 time=155', 'note_on channel=0 note=92 velocity=88 time=1', 'note_on channel=0 note=58 velocity=48 time=8', 'note_on channel=0 note=76 velocity=92 time=17', 'note_on channel=0 note=73 velocity=67 time=103')
Note: ('note_on channel=0 note=34 velocity=57 time=155', 'note_on channel=0 note=92 velocity=88 time=1', 'note_on channel=0 note=58 velocity=48 time=8', 'note_on channel=0 note=76 velocity=92 time=17', 'note_on channel=0 note=73 velocity=67 time=103', 'note_on channel=0 note=80 velocity=74 time=0')
Note: ('note_on channel=0 note=92 velocity=88 time=1', 'note_on channel=0 note=58 velocity=48 time=8', 'note_on channel=0 note=76 velocity=92 time=17', 'note_on channel=0 note=73 velocity=67 time=103', 'note_on channel=0 note=80 velocity=74 time=0', 'note_on channel=0 note=64 velocity=54 time=4')
Note: ('note_on channel=0 note=58 velocity=48 time=8', 'note_on channel=0 note=76 velocity=92 time=17', 'note_on channel=0 note=73 velocity=67 time=103', 'note_on channel=0 note=80 velocity=74 time=0', 'note_on channel=0 note=64 velocity=54 time=4', 'note_on channel=0 note=64 velocity=84 time=8')
Note: ('note_on channel=0 note=92 velocity=88 time=1', 'note_on channel=0 note=58 velocity=48 time=8', 'note_on channel=0 note=76 velocity=92 time=17', 'note_on channel=0 note=73 velocity=67 time=103', 'note_on channel=0 note=80 velocity=74 time=0', 'note_on channel=0 note=64 velocity=54 time=4', 'note_on channel=0 note=64 velocity=84 time=8', 'note_on channel=0 note=64 velocity=57 time=9')
Note: ('note_on channel=0 note=58 velocity=48 time=8', 'note_on channel=0 note=76 velocity=92 time=17', 'note_on channel=0 note=73 velocity=67 time=103', 'note_on channel=0 note=80 velocity=74 time=0', 'note_on channel=0 note=64 velocity=54 time=4', 'note_on channel=0 note=64 velocity=84 time=8', 'note_on channel=0 note=64 velocity=57 time=9', 'note_on channel=0 note=64 velocity=84 time=8')
Note: ('note_on channel=0 note=76 velocity=92 time=17', 'note_on channel=0 note=73 velocity=67 time=103', 'note_on channel=0 note=80 velocity=74 time=0', 'note_on channel=0 note=64 velocity=54 time=4', 'note_on channel=0 note=64 velocity=84 time=8', 'note_on channel=0 note=64 velocity=57 time=9', 'note_on channel=0 note=64 velocity=84 time=8', 'note_on channel=0 note=64 velocity=57 time=9')
Note: ('note_on channel=0 note=73 velocity=67 time=103', 'note_on channel=0 note=80 velocity=74 time=0', 'note_on channel=0 note=64 velocity=54 time=4', 'note_on channel=0 note=64 velocity=84 time=8', 'note_on channel=0 note=64 velocity=57 time=9', 'note_on channel=0 note=64 velocity=84 time=8', 'note_on channel=0 note=64 velocity=57 time=9', 'note_on channel=0 note=68 velocity=0 time=13')
Note: ('note_on channel=0 note=80 velocity=74 time=0', 'note_on channel=0 note=64 velocity=54 time=4', 'note_on channel=0 note=64 velocity=84 time=8', 'note_on channel=0 note=64 velocity=57 time=9', 'note_on channel=0 note=64 velocity=84 time=8', 'note_on channel=0 note=64 velocity=57 time=9', 'note_on channel=0 note=68 velocity=0 time=13', 'note_on channel=0 note=58 velocity=0 time=69')
Note: ('note_on channel=0 note=64 velocity=54 time=4', 'note_on channel=0 note=64 velocity=84 time=8', 'note_on channel=0 note=64 velocity=57 time=9', 'note_on channel=0 note=64 velocity=84 time=8', 'note_on channel=0 note=64 velocity=57 time=9', 'note_on channel=0 note=68 velocity=0 time=13', 'note_on channel=0 note=58 velocity=0 time=69', 'note_on channel=0 note=64 velocity=0 time=28')
Note: ('note_on channel=0 note=64 velocity=84 time=8', 'note_on channel=0 note=64 velocity=57 time=9', 'note_on channel=0 note=64 velocity=84 time=8', 'note_on channel=0 note=64 velocity=57 time=9', 'note_on channel=0 note=68 velocity=0 time=13', 'note_on channel=0 note=58 velocity=0 time=69', 'note_on channel=0 note=64 velocity=0 time=28', 'note_on channel=0 note=64 velocity=0 time=6')
Note: ('note_on channel=0 note=64 velocity=57 time=9', 'note_on channel=0 note=64 velocity=84 time=8', 'note_on channel=0 note=64 velocity=57 time=9', 'note_on channel=0 note=68 velocity=0 time=13', 'note_on channel=0 note=58 velocity=0 time=69', 'note_on channel=0 note=64 velocity=0 time=28', 'note_on channel=0 note=64 velocity=0 time=6', 'note_on channel=0 note=64 velocity=0 time=28')
Note: ('note_on channel=0 note=64 velocity=84 time=8', 'note_on channel=0 note=64 velocity=57 time=9', 'note_on channel=0 note=68 velocity=0 time=13', 'note_on channel=0 note=58 velocity=0 time=69', 'note_on channel=0 note=64 velocity=0 time=28', 'note_on channel=0 note=64 velocity=0 time=6', 'note_on channel=0 note=64 velocity=0 time=28', 'note_on channel=0 note=64 velocity=0 time=6')
Note: ('note_on channel=0 note=64 velocity=57 time=9', 'note_on channel=0 note=68 velocity=0 time=13', 'note_on channel=0 note=58 velocity=0 time=69', 'note_on channel=0 note=64 velocity=0 time=28', 'note_on channel=0 note=64 velocity=0 time=6', 'note_on channel=0 note=64 velocity=0 time=28', 'note_on channel=0 note=64 velocity=0 time=6', 'note_on channel=0 note=64 velocity=49 time=56')
Note: ('note_on channel=0 note=68 velocity=0 time=13', 'note_on channel=0 note=58 velocity=0 time=69', 'note_on channel=0 note=64 velocity=0 time=28', 'note_on channel=0 note=64 velocity=0 time=6', 'note_on channel=0 note=64 velocity=0 time=28', 'note_on channel=0 note=64 velocity=0 time=6', 'note_on channel=0 note=64 velocity=49 time=56', 'note_on channel=0 note=38 velocity=0 time=54')
Note: ('note_on channel=0 note=58 velocity=0 time=69', 'note_on channel=0 note=64 velocity=0 time=28', 'note_on channel=0 note=64 velocity=0 time=6', 'note_on channel=0 note=64 velocity=0 time=28', 'note_on channel=0 note=64 velocity=0 time=6', 'note_on channel=0 note=64 velocity=49 time=56', 'note_on channel=0 note=38 velocity=0 time=54', 'note_on channel=0 note=76 velocity=0 time=4')
Note: ('note_on channel=0 note=64 velocity=0 time=28', 'note_on channel=0 note=64 velocity=0 time=6', 'note_on channel=0 note=64 velocity=0 time=28', 'note_on channel=0 note=64 velocity=0 time=6', 'note_on channel=0 note=64 velocity=49 time=56', 'note_on channel=0 note=38 velocity=0 time=54', 'note_on channel=0 note=76 velocity=0 time=4', 'note_on channel=0 note=50 velocity=77 time=14')
Note: ('note_on channel=0 note=64 velocity=0 time=6', 'note_on channel=0 note=64 velocity=0 time=28', 'note_on channel=0 note=64 velocity=0 time=6', 'note_on channel=0 note=64 velocity=49 time=56', 'note_on channel=0 note=38 velocity=0 time=54', 'note_on channel=0 note=76 velocity=0 time=4', 'note_on channel=0 note=50 velocity=77 time=14', 'note_on channel=0 note=76 velocity=0 time=17')
Note: ('note_on channel=0 note=64 velocity=0 time=28', 'note_on channel=0 note=64 velocity=0 time=6', 'note_on channel=0 note=64 velocity=49 time=56', 'note_on channel=0 note=38 velocity=0 time=54', 'note_on channel=0 note=76 velocity=0 time=4', 'note_on channel=0 note=50 velocity=77 time=14', 'note_on channel=0 note=76 velocity=0 time=17', 'note_on channel=0 note=66 velocity=70 time=5')
Note: ('note_on channel=0 note=64 velocity=0 time=6', 'note_on channel=0 note=64 velocity=49 time=56', 'note_on channel=0 note=38 velocity=0 time=54', 'note_on channel=0 note=76 velocity=0 time=4', 'note_on channel=0 note=50 velocity=77 time=14', 'note_on channel=0 note=76 velocity=0 time=17', 'note_on channel=0 note=66 velocity=70 time=5', 'note_on channel=0 note=66 velocity=0 time=58')
Note: ('note_on channel=0 note=64 velocity=49 time=56', 'note_on channel=0 note=38 velocity=0 time=54', 'note_on channel=0 note=76 velocity=0 time=4', 'note_on channel=0 note=50 velocity=77 time=14', 'note_on channel=0 note=76 velocity=0 time=17', 'note_on channel=0 note=66 velocity=70 time=5', 'note_on channel=0 note=66 velocity=0 time=58', 'note_on channel=0 note=66 velocity=61 time=0')
Note: ('note_on channel=0 note=38 velocity=0 time=54', 'note_on channel=0 note=76 velocity=0 time=4', 'note_on channel=0 note=50 velocity=77 time=14', 'note_on channel=0 note=76 velocity=0 time=17', 'note_on channel=0 note=66 velocity=70 time=5', 'note_on channel=0 note=66 velocity=0 time=58', 'note_on channel=0 note=66 velocity=61 time=0', 'note_on channel=0 note=69 velocity=0 time=12')
Note: ('note_on channel=0 note=76 velocity=0 time=4', 'note_on channel=0 note=50 velocity=77 time=14', 'note_on channel=0 note=76 velocity=0 time=17', 'note_on channel=0 note=66 velocity=70 time=5', 'note_on channel=0 note=66 velocity=0 time=58', 'note_on channel=0 note=66 velocity=61 time=0', 'note_on channel=0 note=69 velocity=0 time=12', 'note_on channel=0 note=74 velocity=90 time=204')
Note: ('note_on channel=0 note=50 velocity=77 time=14', 'note_on channel=0 note=76 velocity=0 time=17', 'note_on channel=0 note=66 velocity=70 time=5', 'note_on channel=0 note=66 velocity=0 time=58', 'note_on channel=0 note=66 velocity=61 time=0', 'note_on channel=0 note=69 velocity=0 time=12', 'note_on channel=0 note=74 velocity=90 time=204', 'note_on channel=0 note=67 velocity=72 time=13')
Note: ('note_on channel=0 note=76 velocity=0 time=17', 'note_on channel=0 note=66 velocity=70 time=5', 'note_on channel=0 note=66 velocity=0 time=58', 'note_on channel=0 note=66 velocity=61 time=0', 'note_on channel=0 note=69 velocity=0 time=12', 'note_on channel=0 note=74 velocity=90 time=204', 'note_on channel=0 note=67 velocity=72 time=13', 'note_on channel=0 note=64 velocity=67 time=12')
Note: ('note_on channel=0 note=66 velocity=70 time=5', 'note_on channel=0 note=66 velocity=0 time=58', 'note_on channel=0 note=66 velocity=61 time=0', 'note_on channel=0 note=69 velocity=0 time=12', 'note_on channel=0 note=74 velocity=90 time=204', 'note_on channel=0 note=67 velocity=72 time=13', 'note_on channel=0 note=64 velocity=67 time=12', 'note_on channel=0 note=52 velocity=0 time=17')
Note: ('note_on channel=0 note=66 velocity=0 time=58', 'note_on channel=0 note=66 velocity=61 time=0', 'note_on channel=0 note=69 velocity=0 time=12', 'note_on channel=0 note=74 velocity=90 time=204', 'note_on channel=0 note=67 velocity=72 time=13', 'note_on channel=0 note=64 velocity=67 time=12', 'note_on channel=0 note=52 velocity=0 time=17', 'note_on channel=0 note=50 velocity=52 time=12')
Note: ('note_on channel=0 note=66 velocity=61 time=0', 'note_on channel=0 note=69 velocity=0 time=12', 'note_on channel=0 note=74 velocity=90 time=204', 'note_on channel=0 note=67 velocity=72 time=13', 'note_on channel=0 note=64 velocity=67 time=12', 'note_on channel=0 note=52 velocity=0 time=17', 'note_on channel=0 note=50 velocity=52 time=12', 'note_on channel=0 note=36 velocity=79 time=85')
Note: ('note_on channel=0 note=69 velocity=0 time=12', 'note_on channel=0 note=74 velocity=90 time=204', 'note_on channel=0 note=67 velocity=72 time=13', 'note_on channel=0 note=64 velocity=67 time=12', 'note_on channel=0 note=52 velocity=0 time=17', 'note_on channel=0 note=50 velocity=52 time=12', 'note_on channel=0 note=36 velocity=79 time=85', 'note_on channel=0 note=62 velocity=81 time=7')
Note: ('note_on channel=0 note=74 velocity=90 time=204', 'note_on channel=0 note=67 velocity=72 time=13', 'note_on channel=0 note=64 velocity=67 time=12', 'note_on channel=0 note=52 velocity=0 time=17', 'note_on channel=0 note=50 velocity=52 time=12', 'note_on channel=0 note=36 velocity=79 time=85', 'note_on channel=0 note=62 velocity=81 time=7', 'note_on channel=0 note=59 velocity=0 time=4')
Note: ('note_on channel=0 note=67 velocity=72 time=13', 'note_on channel=0 note=64 velocity=67 time=12', 'note_on channel=0 note=52 velocity=0 time=17', 'note_on channel=0 note=50 velocity=52 time=12', 'note_on channel=0 note=36 velocity=79 time=85', 'note_on channel=0 note=62 velocity=81 time=7', 'note_on channel=0 note=59 velocity=0 time=4', 'note_on channel=0 note=66 velocity=0 time=3')
Note: ('note_on channel=0 note=64 velocity=67 time=12', 'note_on channel=0 note=52 velocity=0 time=17', 'note_on channel=0 note=50 velocity=52 time=12', 'note_on channel=0 note=36 velocity=79 time=85', 'note_on channel=0 note=62 velocity=81 time=7', 'note_on channel=0 note=59 velocity=0 time=4', 'note_on channel=0 note=66 velocity=0 time=3', 'note_on channel=0 note=59 velocity=0 time=9')
Note: ('note_on channel=0 note=52 velocity=0 time=17', 'note_on channel=0 note=50 velocity=52 time=12', 'note_on channel=0 note=36 velocity=79 time=85', 'note_on channel=0 note=62 velocity=81 time=7', 'note_on channel=0 note=59 velocity=0 time=4', 'note_on channel=0 note=66 velocity=0 time=3', 'note_on channel=0 note=59 velocity=0 time=9', 'note_on channel=0 note=64 velocity=0 time=3')
Note: ('note_on channel=0 note=50 velocity=52 time=12', 'note_on channel=0 note=36 velocity=79 time=85', 'note_on channel=0 note=62 velocity=81 time=7', 'note_on channel=0 note=59 velocity=0 time=4', 'note_on channel=0 note=66 velocity=0 time=3', 'note_on channel=0 note=59 velocity=0 time=9', 'note_on channel=0 note=64 velocity=0 time=3', 'note_on channel=0 note=45 velocity=77 time=10')
Note: ('note_on channel=0 note=36 velocity=79 time=85', 'note_on channel=0 note=62 velocity=81 time=7', 'note_on channel=0 note=59 velocity=0 time=4', 'note_on channel=0 note=66 velocity=0 time=3', 'note_on channel=0 note=59 velocity=0 time=9', 'note_on channel=0 note=64 velocity=0 time=3', 'note_on channel=0 note=45 velocity=77 time=10', 'note_on channel=0 note=70 velocity=75 time=0')
Note: ('note_on channel=0 note=62 velocity=81 time=7', 'note_on channel=0 note=59 velocity=0 time=4', 'note_on channel=0 note=66 velocity=0 time=3', 'note_on channel=0 note=59 velocity=0 time=9', 'note_on channel=0 note=64 velocity=0 time=3', 'note_on channel=0 note=45 velocity=77 time=10', 'note_on channel=0 note=70 velocity=75 time=0', 'note_on channel=0 note=73 velocity=0 time=10')
Note: ('note_on channel=0 note=59 velocity=0 time=4', 'note_on channel=0 note=66 velocity=0 time=3', 'note_on channel=0 note=59 velocity=0 time=9', 'note_on channel=0 note=64 velocity=0 time=3', 'note_on channel=0 note=45 velocity=77 time=10', 'note_on channel=0 note=70 velocity=75 time=0', 'note_on channel=0 note=73 velocity=0 time=10', 'note_on channel=0 note=73 velocity=73 time=27')
Note: ('note_on channel=0 note=66 velocity=0 time=3', 'note_on channel=0 note=59 velocity=0 time=9', 'note_on channel=0 note=64 velocity=0 time=3', 'note_on channel=0 note=45 velocity=77 time=10', 'note_on channel=0 note=70 velocity=75 time=0', 'note_on channel=0 note=73 velocity=0 time=10', 'note_on channel=0 note=73 velocity=73 time=27', 'note_on channel=0 note=60 velocity=68 time=214')
Note: ('note_on channel=0 note=59 velocity=0 time=9', 'note_on channel=0 note=64 velocity=0 time=3', 'note_on channel=0 note=45 velocity=77 time=10', 'note_on channel=0 note=70 velocity=75 time=0', 'note_on channel=0 note=73 velocity=0 time=10', 'note_on channel=0 note=73 velocity=73 time=27', 'note_on channel=0 note=60 velocity=68 time=214', 'note_on channel=0 note=61 velocity=0 time=8')
Note: ('note_on channel=0 note=64 velocity=0 time=3', 'note_on channel=0 note=45 velocity=77 time=10', 'note_on channel=0 note=70 velocity=75 time=0', 'note_on channel=0 note=73 velocity=0 time=10', 'note_on channel=0 note=73 velocity=73 time=27', 'note_on channel=0 note=60 velocity=68 time=214', 'note_on channel=0 note=61 velocity=0 time=8', 'note_on channel=0 note=64 velocity=76 time=3')
Note: ('note_on channel=0 note=45 velocity=77 time=10', 'note_on channel=0 note=70 velocity=75 time=0', 'note_on channel=0 note=73 velocity=0 time=10', 'note_on channel=0 note=73 velocity=73 time=27', 'note_on channel=0 note=60 velocity=68 time=214', 'note_on channel=0 note=61 velocity=0 time=8', 'note_on channel=0 note=64 velocity=76 time=3', 'note_on channel=0 note=52 velocity=78 time=13')
Note: ('note_on channel=0 note=70 velocity=75 time=0', 'note_on channel=0 note=73 velocity=0 time=10', 'note_on channel=0 note=73 velocity=73 time=27', 'note_on channel=0 note=60 velocity=68 time=214', 'note_on channel=0 note=61 velocity=0 time=8', 'note_on channel=0 note=64 velocity=76 time=3', 'note_on channel=0 note=52 velocity=78 time=13', 'note_on channel=0 note=79 velocity=0 time=2')
Note: ('note_on channel=0 note=73 velocity=0 time=10', 'note_on channel=0 note=73 velocity=73 time=27', 'note_on channel=0 note=60 velocity=68 time=214', 'note_on channel=0 note=61 velocity=0 time=8', 'note_on channel=0 note=64 velocity=76 time=3', 'note_on channel=0 note=52 velocity=78 time=13', 'note_on channel=0 note=79 velocity=0 time=2', 'note_on channel=0 note=71 velocity=0 time=31')
Note: ('note_on channel=0 note=73 velocity=73 time=27', 'note_on channel=0 note=60 velocity=68 time=214', 'note_on channel=0 note=61 velocity=0 time=8', 'note_on channel=0 note=64 velocity=76 time=3', 'note_on channel=0 note=52 velocity=78 time=13', 'note_on channel=0 note=79 velocity=0 time=2', 'note_on channel=0 note=71 velocity=0 time=31', 'note_on channel=0 note=63 velocity=74 time=0')
Note: ('note_on channel=0 note=60 velocity=68 time=214', 'note_on channel=0 note=61 velocity=0 time=8', 'note_on channel=0 note=64 velocity=76 time=3', 'note_on channel=0 note=52 velocity=78 time=13', 'note_on channel=0 note=79 velocity=0 time=2', 'note_on channel=0 note=71 velocity=0 time=31', 'note_on channel=0 note=63 velocity=74 time=0', 'note_on channel=0 note=88 velocity=0 time=10')
Note: ('note_on channel=0 note=61 velocity=0 time=8', 'note_on channel=0 note=64 velocity=76 time=3', 'note_on channel=0 note=52 velocity=78 time=13', 'note_on channel=0 note=79 velocity=0 time=2', 'note_on channel=0 note=71 velocity=0 time=31', 'note_on channel=0 note=63 velocity=74 time=0', 'note_on channel=0 note=88 velocity=0 time=10', 'note_on channel=0 note=63 velocity=0 time=21')
Note: ('note_on channel=0 note=64 velocity=76 time=3', 'note_on channel=0 note=52 velocity=78 time=13', 'note_on channel=0 note=79 velocity=0 time=2', 'note_on channel=0 note=71 velocity=0 time=31', 'note_on channel=0 note=63 velocity=74 time=0', 'note_on channel=0 note=88 velocity=0 time=10', 'note_on channel=0 note=63 velocity=0 time=21', 'note_on channel=0 note=74 velocity=0 time=61')
Note: ('note_on channel=0 note=52 velocity=78 time=13', 'note_on channel=0 note=79 velocity=0 time=2', 'note_on channel=0 note=71 velocity=0 time=31', 'note_on channel=0 note=63 velocity=74 time=0', 'note_on channel=0 note=88 velocity=0 time=10', 'note_on channel=0 note=63 velocity=0 time=21', 'note_on channel=0 note=74 velocity=0 time=61', 'note_on channel=0 note=38 velocity=0 time=15')
Note: ('note_on channel=0 note=79 velocity=0 time=2', 'note_on channel=0 note=71 velocity=0 time=31', 'note_on channel=0 note=63 velocity=74 time=0', 'note_on channel=0 note=88 velocity=0 time=10', 'note_on channel=0 note=63 velocity=0 time=21', 'note_on channel=0 note=74 velocity=0 time=61', 'note_on channel=0 note=38 velocity=0 time=15', 'note_on channel=0 note=73 velocity=69 time=13')
Note: ('note_on channel=0 note=71 velocity=0 time=31', 'note_on channel=0 note=63 velocity=74 time=0', 'note_on channel=0 note=88 velocity=0 time=10', 'note_on channel=0 note=63 velocity=0 time=21', 'note_on channel=0 note=74 velocity=0 time=61', 'note_on channel=0 note=38 velocity=0 time=15', 'note_on channel=0 note=73 velocity=69 time=13', 'note_on channel=0 note=51 velocity=61 time=6')
Note: ('note_on channel=0 note=63 velocity=74 time=0', 'note_on channel=0 note=88 velocity=0 time=10', 'note_on channel=0 note=63 velocity=0 time=21', 'note_on channel=0 note=74 velocity=0 time=61', 'note_on channel=0 note=38 velocity=0 time=15', 'note_on channel=0 note=73 velocity=69 time=13', 'note_on channel=0 note=51 velocity=61 time=6', 'note_on channel=0 note=70 velocity=85 time=44')
Note: ('note_on channel=0 note=88 velocity=0 time=10', 'note_on channel=0 note=63 velocity=0 time=21', 'note_on channel=0 note=74 velocity=0 time=61', 'note_on channel=0 note=38 velocity=0 time=15', 'note_on channel=0 note=73 velocity=69 time=13', 'note_on channel=0 note=51 velocity=61 time=6', 'note_on channel=0 note=70 velocity=85 time=44', 'note_on channel=0 note=69 velocity=0 time=39')
Note: ('note_on channel=0 note=63 velocity=0 time=21', 'note_on channel=0 note=74 velocity=0 time=61', 'note_on channel=0 note=38 velocity=0 time=15', 'note_on channel=0 note=73 velocity=69 time=13', 'note_on channel=0 note=51 velocity=61 time=6', 'note_on channel=0 note=70 velocity=85 time=44', 'note_on channel=0 note=69 velocity=0 time=39', 'note_on channel=0 note=70 velocity=0 time=10')
Note: ('note_on channel=0 note=74 velocity=0 time=61', 'note_on channel=0 note=38 velocity=0 time=15', 'note_on channel=0 note=73 velocity=69 time=13', 'note_on channel=0 note=51 velocity=61 time=6', 'note_on channel=0 note=70 velocity=85 time=44', 'note_on channel=0 note=69 velocity=0 time=39', 'note_on channel=0 note=70 velocity=0 time=10', 'note_on channel=0 note=77 velocity=0 time=76')
Note: ('note_on channel=0 note=38 velocity=0 time=15', 'note_on channel=0 note=73 velocity=69 time=13', 'note_on channel=0 note=51 velocity=61 time=6', 'note_on channel=0 note=70 velocity=85 time=44', 'note_on channel=0 note=69 velocity=0 time=39', 'note_on channel=0 note=70 velocity=0 time=10', 'note_on channel=0 note=77 velocity=0 time=76', 'note_on channel=0 note=73 velocity=0 time=56')
Note: ('note_on channel=0 note=73 velocity=69 time=13', 'note_on channel=0 note=51 velocity=61 time=6', 'note_on channel=0 note=70 velocity=85 time=44', 'note_on channel=0 note=69 velocity=0 time=39', 'note_on channel=0 note=70 velocity=0 time=10', 'note_on channel=0 note=77 velocity=0 time=76', 'note_on channel=0 note=73 velocity=0 time=56', 'note_on channel=0 note=43 velocity=53 time=6')
Note: ('note_on channel=0 note=51 velocity=61 time=6', 'note_on channel=0 note=70 velocity=85 time=44', 'note_on channel=0 note=69 velocity=0 time=39', 'note_on channel=0 note=70 velocity=0 time=10', 'note_on channel=0 note=77 velocity=0 time=76', 'note_on channel=0 note=73 velocity=0 time=56', 'note_on channel=0 note=43 velocity=53 time=6', 'note_on channel=0 note=58 velocity=88 time=4')
Note: ('note_on channel=0 note=70 velocity=85 time=44', 'note_on channel=0 note=69 velocity=0 time=39', 'note_on channel=0 note=70 velocity=0 time=10', 'note_on channel=0 note=77 velocity=0 time=76', 'note_on channel=0 note=73 velocity=0 time=56', 'note_on channel=0 note=43 velocity=53 time=6', 'note_on channel=0 note=58 velocity=88 time=4', 'note_on channel=0 note=38 velocity=76 time=10')
Note: ('note_on channel=0 note=69 velocity=0 time=39', 'note_on channel=0 note=70 velocity=0 time=10', 'note_on channel=0 note=77 velocity=0 time=76', 'note_on channel=0 note=73 velocity=0 time=56', 'note_on channel=0 note=43 velocity=53 time=6', 'note_on channel=0 note=58 velocity=88 time=4', 'note_on channel=0 note=38 velocity=76 time=10', 'note_on channel=0 note=60 velocity=0 time=24')
Note: ('note_on channel=0 note=70 velocity=0 time=10', 'note_on channel=0 note=77 velocity=0 time=76', 'note_on channel=0 note=73 velocity=0 time=56', 'note_on channel=0 note=43 velocity=53 time=6', 'note_on channel=0 note=58 velocity=88 time=4', 'note_on channel=0 note=38 velocity=76 time=10', 'note_on channel=0 note=60 velocity=0 time=24', 'note_on channel=0 note=74 velocity=0 time=5')
Note: ('note_on channel=0 note=77 velocity=0 time=76', 'note_on channel=0 note=73 velocity=0 time=56', 'note_on channel=0 note=43 velocity=53 time=6', 'note_on channel=0 note=58 velocity=88 time=4', 'note_on channel=0 note=38 velocity=76 time=10', 'note_on channel=0 note=60 velocity=0 time=24', 'note_on channel=0 note=74 velocity=0 time=5', 'note_on channel=0 note=69 velocity=58 time=9')
Note: ('note_on channel=0 note=73 velocity=0 time=56', 'note_on channel=0 note=43 velocity=53 time=6', 'note_on channel=0 note=58 velocity=88 time=4', 'note_on channel=0 note=38 velocity=76 time=10', 'note_on channel=0 note=60 velocity=0 time=24', 'note_on channel=0 note=74 velocity=0 time=5', 'note_on channel=0 note=69 velocity=58 time=9', 'note_on channel=0 note=47 velocity=55 time=3')
Note: ('note_on channel=0 note=43 velocity=53 time=6', 'note_on channel=0 note=58 velocity=88 time=4', 'note_on channel=0 note=38 velocity=76 time=10', 'note_on channel=0 note=60 velocity=0 time=24', 'note_on channel=0 note=74 velocity=0 time=5', 'note_on channel=0 note=69 velocity=58 time=9', 'note_on channel=0 note=47 velocity=55 time=3', 'note_on channel=0 note=70 velocity=0 time=28')
Note: ('note_on channel=0 note=58 velocity=88 time=4', 'note_on channel=0 note=38 velocity=76 time=10', 'note_on channel=0 note=60 velocity=0 time=24', 'note_on channel=0 note=74 velocity=0 time=5', 'note_on channel=0 note=69 velocity=58 time=9', 'note_on channel=0 note=47 velocity=55 time=3', 'note_on channel=0 note=70 velocity=0 time=28', 'note_on channel=0 note=74 velocity=68 time=2')
Note: ('note_on channel=0 note=38 velocity=76 time=10', 'note_on channel=0 note=60 velocity=0 time=24', 'note_on channel=0 note=74 velocity=0 time=5', 'note_on channel=0 note=69 velocity=58 time=9', 'note_on channel=0 note=47 velocity=55 time=3', 'note_on channel=0 note=70 velocity=0 time=28', 'note_on channel=0 note=74 velocity=68 time=2', 'note_on channel=0 note=63 velocity=0 time=2')
Note: ('note_on channel=0 note=60 velocity=0 time=24', 'note_on channel=0 note=74 velocity=0 time=5', 'note_on channel=0 note=69 velocity=58 time=9', 'note_on channel=0 note=47 velocity=55 time=3', 'note_on channel=0 note=70 velocity=0 time=28', 'note_on channel=0 note=74 velocity=68 time=2', 'note_on channel=0 note=63 velocity=0 time=2', 'note_on channel=0 note=76 velocity=0 time=41')
Note: ('note_on channel=0 note=74 velocity=0 time=5', 'note_on channel=0 note=69 velocity=58 time=9', 'note_on channel=0 note=47 velocity=55 time=3', 'note_on channel=0 note=70 velocity=0 time=28', 'note_on channel=0 note=74 velocity=68 time=2', 'note_on channel=0 note=63 velocity=0 time=2', 'note_on channel=0 note=76 velocity=0 time=41', 'note_on channel=0 note=64 velocity=55 time=15')
Note: ('note_on channel=0 note=69 velocity=58 time=9', 'note_on channel=0 note=47 velocity=55 time=3', 'note_on channel=0 note=70 velocity=0 time=28', 'note_on channel=0 note=74 velocity=68 time=2', 'note_on channel=0 note=63 velocity=0 time=2', 'note_on channel=0 note=76 velocity=0 time=41', 'note_on channel=0 note=64 velocity=55 time=15', 'note_on channel=0 note=62 velocity=0 time=40')
Note: ('note_on channel=0 note=47 velocity=55 time=3', 'note_on channel=0 note=70 velocity=0 time=28', 'note_on channel=0 note=74 velocity=68 time=2', 'note_on channel=0 note=63 velocity=0 time=2', 'note_on channel=0 note=76 velocity=0 time=41', 'note_on channel=0 note=64 velocity=55 time=15', 'note_on channel=0 note=62 velocity=0 time=40', 'note_on channel=0 note=77 velocity=81 time=136')
Note: ('note_on channel=0 note=70 velocity=0 time=28', 'note_on channel=0 note=74 velocity=68 time=2', 'note_on channel=0 note=63 velocity=0 time=2', 'note_on channel=0 note=76 velocity=0 time=41', 'note_on channel=0 note=64 velocity=55 time=15', 'note_on channel=0 note=62 velocity=0 time=40', 'note_on channel=0 note=77 velocity=81 time=136', 'note_on channel=0 note=64 velocity=0 time=5')
Note: ('note_on channel=0 note=74 velocity=68 time=2', 'note_on channel=0 note=63 velocity=0 time=2', 'note_on channel=0 note=76 velocity=0 time=41', 'note_on channel=0 note=64 velocity=55 time=15', 'note_on channel=0 note=62 velocity=0 time=40', 'note_on channel=0 note=77 velocity=81 time=136', 'note_on channel=0 note=64 velocity=0 time=5', 'note_on channel=0 note=60 velocity=0 time=4')
Note: ('note_on channel=0 note=63 velocity=0 time=2', 'note_on channel=0 note=76 velocity=0 time=41', 'note_on channel=0 note=64 velocity=55 time=15', 'note_on channel=0 note=62 velocity=0 time=40', 'note_on channel=0 note=77 velocity=81 time=136', 'note_on channel=0 note=64 velocity=0 time=5', 'note_on channel=0 note=60 velocity=0 time=4', 'note_on channel=0 note=76 velocity=49 time=3')
Note: ('note_on channel=0 note=76 velocity=0 time=41', 'note_on channel=0 note=64 velocity=55 time=15', 'note_on channel=0 note=62 velocity=0 time=40', 'note_on channel=0 note=77 velocity=81 time=136', 'note_on channel=0 note=64 velocity=0 time=5', 'note_on channel=0 note=60 velocity=0 time=4', 'note_on channel=0 note=76 velocity=49 time=3', 'note_on channel=0 note=69 velocity=0 time=39')
Note: ('note_on channel=0 note=64 velocity=55 time=15', 'note_on channel=0 note=62 velocity=0 time=40', 'note_on channel=0 note=77 velocity=81 time=136', 'note_on channel=0 note=64 velocity=0 time=5', 'note_on channel=0 note=60 velocity=0 time=4', 'note_on channel=0 note=76 velocity=49 time=3', 'note_on channel=0 note=69 velocity=0 time=39', 'note_on channel=0 note=74 velocity=0 time=5')
Note: ('note_on channel=0 note=62 velocity=0 time=40', 'note_on channel=0 note=77 velocity=81 time=136', 'note_on channel=0 note=64 velocity=0 time=5', 'note_on channel=0 note=60 velocity=0 time=4', 'note_on channel=0 note=76 velocity=49 time=3', 'note_on channel=0 note=69 velocity=0 time=39', 'note_on channel=0 note=74 velocity=0 time=5', 'note_on channel=0 note=62 velocity=56 time=10')
Note: ('note_on channel=0 note=77 velocity=81 time=136', 'note_on channel=0 note=64 velocity=0 time=5', 'note_on channel=0 note=60 velocity=0 time=4', 'note_on channel=0 note=76 velocity=49 time=3', 'note_on channel=0 note=69 velocity=0 time=39', 'note_on channel=0 note=74 velocity=0 time=5', 'note_on channel=0 note=62 velocity=56 time=10', 'note_on channel=0 note=40 velocity=0 time=654')
Note: ('note_on channel=0 note=64 velocity=0 time=5', 'note_on channel=0 note=60 velocity=0 time=4', 'note_on channel=0 note=76 velocity=49 time=3', 'note_on channel=0 note=69 velocity=0 time=39', 'note_on channel=0 note=74 velocity=0 time=5', 'note_on channel=0 note=62 velocity=56 time=10', 'note_on channel=0 note=40 velocity=0 time=654', 'note_on channel=0 note=72 velocity=0 time=45')
Note: ('note_on channel=0 note=60 velocity=0 time=4', 'note_on channel=0 note=76 velocity=49 time=3', 'note_on channel=0 note=69 velocity=0 time=39', 'note_on channel=0 note=74 velocity=0 time=5', 'note_on channel=0 note=62 velocity=56 time=10', 'note_on channel=0 note=40 velocity=0 time=654', 'note_on channel=0 note=72 velocity=0 time=45', 'note_on channel=0 note=57 velocity=34 time=11')
Note: ('note_on channel=0 note=76 velocity=49 time=3', 'note_on channel=0 note=69 velocity=0 time=39', 'note_on channel=0 note=74 velocity=0 time=5', 'note_on channel=0 note=62 velocity=56 time=10', 'note_on channel=0 note=40 velocity=0 time=654', 'note_on channel=0 note=72 velocity=0 time=45', 'note_on channel=0 note=57 velocity=34 time=11', 'note_on channel=0 note=57 velocity=87 time=6')
Note: ('note_on channel=0 note=69 velocity=0 time=39', 'note_on channel=0 note=74 velocity=0 time=5', 'note_on channel=0 note=62 velocity=56 time=10', 'note_on channel=0 note=40 velocity=0 time=654', 'note_on channel=0 note=72 velocity=0 time=45', 'note_on channel=0 note=57 velocity=34 time=11', 'note_on channel=0 note=57 velocity=87 time=6', 'note_on channel=0 note=68 velocity=0 time=4')
Note: ('note_on channel=0 note=74 velocity=0 time=5', 'note_on channel=0 note=62 velocity=56 time=10', 'note_on channel=0 note=40 velocity=0 time=654', 'note_on channel=0 note=72 velocity=0 time=45', 'note_on channel=0 note=57 velocity=34 time=11', 'note_on channel=0 note=57 velocity=87 time=6', 'note_on channel=0 note=68 velocity=0 time=4', 'note_on channel=0 note=74 velocity=75 time=0')
Note: ('note_on channel=0 note=62 velocity=56 time=10', 'note_on channel=0 note=40 velocity=0 time=654', 'note_on channel=0 note=72 velocity=0 time=45', 'note_on channel=0 note=57 velocity=34 time=11', 'note_on channel=0 note=57 velocity=87 time=6', 'note_on channel=0 note=68 velocity=0 time=4', 'note_on channel=0 note=74 velocity=75 time=0', 'note_on channel=0 note=28 velocity=0 time=22')
Note: ('note_on channel=0 note=40 velocity=0 time=654', 'note_on channel=0 note=72 velocity=0 time=45', 'note_on channel=0 note=57 velocity=34 time=11', 'note_on channel=0 note=57 velocity=87 time=6', 'note_on channel=0 note=68 velocity=0 time=4', 'note_on channel=0 note=74 velocity=75 time=0', 'note_on channel=0 note=28 velocity=0 time=22', 'note_on channel=0 note=75 velocity=0 time=40')
Note: ('note_on channel=0 note=72 velocity=0 time=45', 'note_on channel=0 note=57 velocity=34 time=11', 'note_on channel=0 note=57 velocity=87 time=6', 'note_on channel=0 note=68 velocity=0 time=4', 'note_on channel=0 note=74 velocity=75 time=0', 'note_on channel=0 note=28 velocity=0 time=22', 'note_on channel=0 note=75 velocity=0 time=40', 'note_on channel=0 note=50 velocity=27 time=10')
Note: ('note_on channel=0 note=57 velocity=34 time=11', 'note_on channel=0 note=57 velocity=87 time=6', 'note_on channel=0 note=68 velocity=0 time=4', 'note_on channel=0 note=74 velocity=75 time=0', 'note_on channel=0 note=28 velocity=0 time=22', 'note_on channel=0 note=75 velocity=0 time=40', 'note_on channel=0 note=50 velocity=27 time=10', 'note_on channel=0 note=54 velocity=0 time=15')
Note: ('note_on channel=0 note=57 velocity=87 time=6', 'note_on channel=0 note=68 velocity=0 time=4', 'note_on channel=0 note=74 velocity=75 time=0', 'note_on channel=0 note=28 velocity=0 time=22', 'note_on channel=0 note=75 velocity=0 time=40', 'note_on channel=0 note=50 velocity=27 time=10', 'note_on channel=0 note=54 velocity=0 time=15', 'note_on channel=0 note=66 velocity=64 time=1')
Note: ('note_on channel=0 note=68 velocity=0 time=4', 'note_on channel=0 note=74 velocity=75 time=0', 'note_on channel=0 note=28 velocity=0 time=22', 'note_on channel=0 note=75 velocity=0 time=40', 'note_on channel=0 note=50 velocity=27 time=10', 'note_on channel=0 note=54 velocity=0 time=15', 'note_on channel=0 note=66 velocity=64 time=1', 'note_on channel=0 note=65 velocity=56 time=3')
Note: ('note_on channel=0 note=74 velocity=75 time=0', 'note_on channel=0 note=28 velocity=0 time=22', 'note_on channel=0 note=75 velocity=0 time=40', 'note_on channel=0 note=50 velocity=27 time=10', 'note_on channel=0 note=54 velocity=0 time=15', 'note_on channel=0 note=66 velocity=64 time=1', 'note_on channel=0 note=65 velocity=56 time=3', 'note_on channel=0 note=71 velocity=49 time=0')
Note: ('note_on channel=0 note=28 velocity=0 time=22', 'note_on channel=0 note=75 velocity=0 time=40', 'note_on channel=0 note=50 velocity=27 time=10', 'note_on channel=0 note=54 velocity=0 time=15', 'note_on channel=0 note=66 velocity=64 time=1', 'note_on channel=0 note=65 velocity=56 time=3', 'note_on channel=0 note=71 velocity=49 time=0', 'note_on channel=0 note=87 velocity=0 time=36')
Note: ('note_on channel=0 note=75 velocity=0 time=40', 'note_on channel=0 note=50 velocity=27 time=10', 'note_on channel=0 note=54 velocity=0 time=15', 'note_on channel=0 note=66 velocity=64 time=1', 'note_on channel=0 note=65 velocity=56 time=3', 'note_on channel=0 note=71 velocity=49 time=0', 'note_on channel=0 note=87 velocity=0 time=36', 'note_on channel=0 note=77 velocity=53 time=59')
Note: ('note_on channel=0 note=50 velocity=27 time=10', 'note_on channel=0 note=54 velocity=0 time=15', 'note_on channel=0 note=66 velocity=64 time=1', 'note_on channel=0 note=65 velocity=56 time=3', 'note_on channel=0 note=71 velocity=49 time=0', 'note_on channel=0 note=87 velocity=0 time=36', 'note_on channel=0 note=77 velocity=53 time=59', 'note_on channel=0 note=51 velocity=0 time=33')
Note: ('note_on channel=0 note=54 velocity=0 time=15', 'note_on channel=0 note=66 velocity=64 time=1', 'note_on channel=0 note=65 velocity=56 time=3', 'note_on channel=0 note=71 velocity=49 time=0', 'note_on channel=0 note=87 velocity=0 time=36', 'note_on channel=0 note=77 velocity=53 time=59', 'note_on channel=0 note=51 velocity=0 time=33', 'note_on channel=0 note=66 velocity=0 time=7')
Note: ('note_on channel=0 note=66 velocity=64 time=1', 'note_on channel=0 note=65 velocity=56 time=3', 'note_on channel=0 note=71 velocity=49 time=0', 'note_on channel=0 note=87 velocity=0 time=36', 'note_on channel=0 note=77 velocity=53 time=59', 'note_on channel=0 note=51 velocity=0 time=33', 'note_on channel=0 note=66 velocity=0 time=7', 'note_on channel=0 note=71 velocity=53 time=2')
Note: ('note_on channel=0 note=65 velocity=56 time=3', 'note_on channel=0 note=71 velocity=49 time=0', 'note_on channel=0 note=87 velocity=0 time=36', 'note_on channel=0 note=77 velocity=53 time=59', 'note_on channel=0 note=51 velocity=0 time=33', 'note_on channel=0 note=66 velocity=0 time=7', 'note_on channel=0 note=71 velocity=53 time=2', 'note_on channel=0 note=68 velocity=36 time=13')
Note: ('note_on channel=0 note=71 velocity=49 time=0', 'note_on channel=0 note=87 velocity=0 time=36', 'note_on channel=0 note=77 velocity=53 time=59', 'note_on channel=0 note=51 velocity=0 time=33', 'note_on channel=0 note=66 velocity=0 time=7', 'note_on channel=0 note=71 velocity=53 time=2', 'note_on channel=0 note=68 velocity=36 time=13', 'note_on channel=0 note=51 velocity=80 time=12')
Note: ('note_on channel=0 note=87 velocity=0 time=36', 'note_on channel=0 note=77 velocity=53 time=59', 'note_on channel=0 note=51 velocity=0 time=33', 'note_on channel=0 note=66 velocity=0 time=7', 'note_on channel=0 note=71 velocity=53 time=2', 'note_on channel=0 note=68 velocity=36 time=13', 'note_on channel=0 note=51 velocity=80 time=12', 'note_on channel=0 note=76 velocity=0 time=1')
Note: ('note_on channel=0 note=77 velocity=53 time=59', 'note_on channel=0 note=51 velocity=0 time=33', 'note_on channel=0 note=66 velocity=0 time=7', 'note_on channel=0 note=71 velocity=53 time=2', 'note_on channel=0 note=68 velocity=36 time=13', 'note_on channel=0 note=51 velocity=80 time=12', 'note_on channel=0 note=76 velocity=0 time=1', 'note_on channel=0 note=63 velocity=0 time=33')
Note: ('note_on channel=0 note=51 velocity=0 time=33', 'note_on channel=0 note=66 velocity=0 time=7', 'note_on channel=0 note=71 velocity=53 time=2', 'note_on channel=0 note=68 velocity=36 time=13', 'note_on channel=0 note=51 velocity=80 time=12', 'note_on channel=0 note=76 velocity=0 time=1', 'note_on channel=0 note=63 velocity=0 time=33', 'note_on channel=0 note=81 velocity=96 time=1')
Note: ('note_on channel=0 note=66 velocity=0 time=7', 'note_on channel=0 note=71 velocity=53 time=2', 'note_on channel=0 note=68 velocity=36 time=13', 'note_on channel=0 note=51 velocity=80 time=12', 'note_on channel=0 note=76 velocity=0 time=1', 'note_on channel=0 note=63 velocity=0 time=33', 'note_on channel=0 note=81 velocity=96 time=1', 'note_on channel=0 note=81 velocity=0 time=10')
Note: ('note_on channel=0 note=71 velocity=53 time=2', 'note_on channel=0 note=68 velocity=36 time=13', 'note_on channel=0 note=51 velocity=80 time=12', 'note_on channel=0 note=76 velocity=0 time=1', 'note_on channel=0 note=63 velocity=0 time=33', 'note_on channel=0 note=81 velocity=96 time=1', 'note_on channel=0 note=81 velocity=0 time=10', 'note_on channel=0 note=59 velocity=23 time=3')
Note: ('note_on channel=0 note=68 velocity=36 time=13', 'note_on channel=0 note=51 velocity=80 time=12', 'note_on channel=0 note=76 velocity=0 time=1', 'note_on channel=0 note=63 velocity=0 time=33', 'note_on channel=0 note=81 velocity=96 time=1', 'note_on channel=0 note=81 velocity=0 time=10', 'note_on channel=0 note=59 velocity=23 time=3', 'note_on channel=0 note=39 velocity=81 time=5')
Note: ('note_on channel=0 note=51 velocity=80 time=12', 'note_on channel=0 note=76 velocity=0 time=1', 'note_on channel=0 note=63 velocity=0 time=33', 'note_on channel=0 note=81 velocity=96 time=1', 'note_on channel=0 note=81 velocity=0 time=10', 'note_on channel=0 note=59 velocity=23 time=3', 'note_on channel=0 note=39 velocity=81 time=5', 'note_on channel=0 note=73 velocity=0 time=45')
Note: ('note_on channel=0 note=76 velocity=0 time=1', 'note_on channel=0 note=63 velocity=0 time=33', 'note_on channel=0 note=81 velocity=96 time=1', 'note_on channel=0 note=81 velocity=0 time=10', 'note_on channel=0 note=59 velocity=23 time=3', 'note_on channel=0 note=39 velocity=81 time=5', 'note_on channel=0 note=73 velocity=0 time=45', 'note_on channel=0 note=86 velocity=92 time=16')
Note: ('note_on channel=0 note=63 velocity=0 time=33', 'note_on channel=0 note=81 velocity=96 time=1', 'note_on channel=0 note=81 velocity=0 time=10', 'note_on channel=0 note=59 velocity=23 time=3', 'note_on channel=0 note=39 velocity=81 time=5', 'note_on channel=0 note=73 velocity=0 time=45', 'note_on channel=0 note=86 velocity=92 time=16', 'note_on channel=0 note=78 velocity=81 time=7')
Note: ('note_on channel=0 note=81 velocity=96 time=1', 'note_on channel=0 note=81 velocity=0 time=10', 'note_on channel=0 note=59 velocity=23 time=3', 'note_on channel=0 note=39 velocity=81 time=5', 'note_on channel=0 note=73 velocity=0 time=45', 'note_on channel=0 note=86 velocity=92 time=16', 'note_on channel=0 note=78 velocity=81 time=7', 'note_on channel=0 note=64 velocity=79 time=24')
Note: ('note_on channel=0 note=81 velocity=0 time=10', 'note_on channel=0 note=59 velocity=23 time=3', 'note_on channel=0 note=39 velocity=81 time=5', 'note_on channel=0 note=73 velocity=0 time=45', 'note_on channel=0 note=86 velocity=92 time=16', 'note_on channel=0 note=78 velocity=81 time=7', 'note_on channel=0 note=64 velocity=79 time=24', 'note_on channel=0 note=28 velocity=33 time=5')
Note: ('note_on channel=0 note=59 velocity=23 time=3', 'note_on channel=0 note=39 velocity=81 time=5', 'note_on channel=0 note=73 velocity=0 time=45', 'note_on channel=0 note=86 velocity=92 time=16', 'note_on channel=0 note=78 velocity=81 time=7', 'note_on channel=0 note=64 velocity=79 time=24', 'note_on channel=0 note=28 velocity=33 time=5', 'note_on channel=0 note=51 velocity=0 time=22')
Note: ('note_on channel=0 note=74 velocity=92 time=786', 'note_on channel=0 note=74 velocity=0 time=48', 'note_on channel=0 note=81 velocity=93 time=353', 'note_on channel=0 note=57 velocity=79 time=373', 'note_on channel=0 note=57 velocity=0 time=49')
Note: ('note_on channel=0 note=74 velocity=0 time=48', 'note_on channel=0 note=81 velocity=93 time=353', 'note_on channel=0 note=57 velocity=79 time=373', 'note_on channel=0 note=57 velocity=0 time=49', 'note_on channel=0 note=62 velocity=86 time=337')
Note: ('note_on channel=0 note=81 velocity=93 time=353', 'note_on channel=0 note=57 velocity=79 time=373', 'note_on channel=0 note=57 velocity=0 time=49', 'note_on channel=0 note=62 velocity=86 time=337', 'note_on channel=0 note=62 velocity=0 time=12')
Note: ('note_on channel=0 note=57 velocity=79 time=373', 'note_on channel=0 note=57 velocity=0 time=49', 'note_on channel=0 note=62 velocity=86 time=337', 'note_on channel=0 note=62 velocity=0 time=12', 'note_on channel=0 note=81 velocity=0 time=0')
Note: ('note_on channel=0 note=78 velocity=97 time=304',)
Note: ('note_on channel=0 note=74 velocity=82 time=7',)
Note: ('note_on channel=0 note=74 velocity=0 time=319',)
Note: ('note_on channel=0 note=73 velocity=73 time=36',)
Note: ('note_on channel=0 note=76 velocity=79 time=7',)
Note: ('note_on channel=0 note=78 velocity=0 time=2',)
Note: ('note_on channel=0 note=60 velocity=86 time=50',)
Note: ('note_on channel=0 note=69 velocity=82 time=20',)
Note: ('note_on channel=0 note=57 velocity=0 time=3',)
Note: ('note_on channel=0 note=60 velocity=0 time=1',)
Note: ('note_on channel=0 note=56 velocity=0 time=18',)
Note: ('note_on channel=0 note=77 velocity=0 time=12',)
Note: ('note_on channel=0 note=69 velocity=73 time=194',)
Note: ('note_on channel=0 note=77 velocity=0 time=12', 'note_on channel=0 note=69 velocity=73 time=194', 'note_on channel=0 note=79 velocity=86 time=263')
Note: ('note_on channel=0 note=69 velocity=73 time=194', 'note_on channel=0 note=79 velocity=86 time=263', 'note_on channel=0 note=73 velocity=69 time=15')
Note: ('note_on channel=0 note=79 velocity=86 time=263', 'note_on channel=0 note=73 velocity=69 time=15', 'note_on channel=0 note=64 velocity=57 time=47')
Note: ('note_on channel=0 note=73 velocity=69 time=15', 'note_on channel=0 note=64 velocity=57 time=47', 'note_on channel=0 note=69 velocity=0 time=207')
Note: ('note_on channel=0 note=64 velocity=57 time=47', 'note_on channel=0 note=69 velocity=0 time=207', 'note_on channel=0 note=57 velocity=0 time=24')
Note: ('note_on channel=0 note=69 velocity=0 time=207', 'note_on channel=0 note=57 velocity=0 time=24', 'note_on channel=0 note=64 velocity=0 time=37')
Note: ('note_on channel=0 note=57 velocity=0 time=24', 'note_on channel=0 note=64 velocity=0 time=37', 'note_on channel=0 note=73 velocity=0 time=148')
Note: ('note_on channel=0 note=64 velocity=0 time=37', 'note_on channel=0 note=73 velocity=0 time=148', 'note_on channel=0 note=79 velocity=0 time=76')
Note: ('note_on channel=0 note=73 velocity=0 time=148', 'note_on channel=0 note=79 velocity=0 time=76', 'note_on channel=0 note=77 velocity=70 time=362')
Note: ('note_on channel=0 note=79 velocity=0 time=76', 'note_on channel=0 note=77 velocity=70 time=362', 'note_on channel=0 note=74 velocity=57 time=21')
Note: ('note_on channel=0 note=77 velocity=70 time=362', 'note_on channel=0 note=74 velocity=57 time=21', 'note_on channel=0 note=38 velocity=48 time=17')
Note: ('note_on channel=0 note=74 velocity=57 time=21', 'note_on channel=0 note=38 velocity=48 time=17', 'note_on channel=0 note=38 velocity=0 time=4')
Note: ('note_on channel=0 note=38 velocity=48 time=17', 'note_on channel=0 note=38 velocity=0 time=4', 'note_on channel=0 note=77 velocity=0 time=38')
Note: ('note_on channel=0 note=38 velocity=0 time=4', 'note_on channel=0 note=77 velocity=0 time=38', 'note_on channel=0 note=74 velocity=0 time=6')
Note: ('note_on channel=0 note=77 velocity=70 time=362', 'note_on channel=0 note=74 velocity=57 time=21', 'note_on channel=0 note=38 velocity=48 time=17', 'note_on channel=0 note=38 velocity=0 time=4', 'note_on channel=0 note=77 velocity=0 time=38', 'note_on channel=0 note=74 velocity=0 time=6', 'note_on channel=0 note=50 velocity=53 time=129')
Note: ('note_on channel=0 note=74 velocity=57 time=21', 'note_on channel=0 note=38 velocity=48 time=17', 'note_on channel=0 note=38 velocity=0 time=4', 'note_on channel=0 note=77 velocity=0 time=38', 'note_on channel=0 note=74 velocity=0 time=6', 'note_on channel=0 note=50 velocity=53 time=129', 'note_on channel=0 note=74 velocity=0 time=6')
Note: ('note_on channel=0 note=38 velocity=48 time=17', 'note_on channel=0 note=38 velocity=0 time=4', 'note_on channel=0 note=77 velocity=0 time=38', 'note_on channel=0 note=74 velocity=0 time=6', 'note_on channel=0 note=50 velocity=53 time=129', 'note_on channel=0 note=74 velocity=0 time=6', 'note_on channel=0 note=50 velocity=53 time=129')
Note: ('note_on channel=0 note=38 velocity=0 time=4', 'note_on channel=0 note=77 velocity=0 time=38', 'note_on channel=0 note=74 velocity=0 time=6', 'note_on channel=0 note=50 velocity=53 time=129', 'note_on channel=0 note=74 velocity=0 time=6', 'note_on channel=0 note=50 velocity=53 time=129', 'note_on channel=0 note=77 velocity=75 time=78')
Note: ('note_on channel=0 note=77 velocity=0 time=38', 'note_on channel=0 note=74 velocity=0 time=6', 'note_on channel=0 note=50 velocity=53 time=129', 'note_on channel=0 note=74 velocity=0 time=6', 'note_on channel=0 note=50 velocity=53 time=129', 'note_on channel=0 note=77 velocity=75 time=78', 'note_on channel=0 note=77 velocity=75 time=78')
Note: ('note_on channel=0 note=74 velocity=0 time=6', 'note_on channel=0 note=50 velocity=53 time=129', 'note_on channel=0 note=74 velocity=0 time=6', 'note_on channel=0 note=50 velocity=53 time=129', 'note_on channel=0 note=77 velocity=75 time=78', 'note_on channel=0 note=77 velocity=75 time=78', 'note_on channel=0 note=77 velocity=75 time=78')
Note: ('note_on channel=0 note=50 velocity=53 time=129', 'note_on channel=0 note=74 velocity=0 time=6', 'note_on channel=0 note=50 velocity=53 time=129', 'note_on channel=0 note=77 velocity=75 time=78', 'note_on channel=0 note=77 velocity=75 time=78', 'note_on channel=0 note=77 velocity=75 time=78', 'note_on channel=0 note=34 velocity=0 time=7')
Note: ('note_on channel=0 note=74 velocity=0 time=6', 'note_on channel=0 note=50 velocity=53 time=129', 'note_on channel=0 note=77 velocity=75 time=78', 'note_on channel=0 note=77 velocity=75 time=78', 'note_on channel=0 note=77 velocity=75 time=78', 'note_on channel=0 note=34 velocity=0 time=7', 'note_on channel=0 note=74 velocity=80 time=9')
Note: ('note_on channel=0 note=50 velocity=53 time=129', 'note_on channel=0 note=77 velocity=75 time=78', 'note_on channel=0 note=77 velocity=75 time=78', 'note_on channel=0 note=77 velocity=75 time=78', 'note_on channel=0 note=34 velocity=0 time=7', 'note_on channel=0 note=74 velocity=80 time=9', 'note_on channel=0 note=74 velocity=80 time=9')
Note: ('note_on channel=0 note=77 velocity=75 time=78', 'note_on channel=0 note=77 velocity=75 time=78', 'note_on channel=0 note=77 velocity=75 time=78', 'note_on channel=0 note=34 velocity=0 time=7', 'note_on channel=0 note=74 velocity=80 time=9', 'note_on channel=0 note=74 velocity=80 time=9', 'note_on channel=0 note=74 velocity=80 time=9')
Note: ('note_on channel=0 note=77 velocity=75 time=78', 'note_on channel=0 note=77 velocity=75 time=78', 'note_on channel=0 note=34 velocity=0 time=7', 'note_on channel=0 note=74 velocity=80 time=9', 'note_on channel=0 note=74 velocity=80 time=9', 'note_on channel=0 note=74 velocity=80 time=9', 'note_on channel=0 note=74 velocity=80 time=9')
Note: ('note_on channel=0 note=77 velocity=75 time=78', 'note_on channel=0 note=34 velocity=0 time=7', 'note_on channel=0 note=74 velocity=80 time=9', 'note_on channel=0 note=74 velocity=80 time=9', 'note_on channel=0 note=74 velocity=80 time=9', 'note_on channel=0 note=74 velocity=80 time=9', 'note_on channel=0 note=45 velocity=99 time=150')
Note: ('note_on channel=0 note=34 velocity=0 time=7', 'note_on channel=0 note=74 velocity=80 time=9', 'note_on channel=0 note=74 velocity=80 time=9', 'note_on channel=0 note=74 velocity=80 time=9', 'note_on channel=0 note=74 velocity=80 time=9', 'note_on channel=0 note=45 velocity=99 time=150', 'note_on channel=0 note=77 velocity=0 time=87')
Note: ('note_on channel=0 note=74 velocity=80 time=9', 'note_on channel=0 note=74 velocity=80 time=9', 'note_on channel=0 note=74 velocity=80 time=9', 'note_on channel=0 note=74 velocity=80 time=9', 'note_on channel=0 note=45 velocity=99 time=150', 'note_on channel=0 note=77 velocity=0 time=87', 'note_on channel=0 note=77 velocity=0 time=87')
Note: ('note_on channel=0 note=74 velocity=80 time=9', 'note_on channel=0 note=74 velocity=80 time=9', 'note_on channel=0 note=74 velocity=80 time=9', 'note_on channel=0 note=45 velocity=99 time=150', 'note_on channel=0 note=77 velocity=0 time=87', 'note_on channel=0 note=77 velocity=0 time=87', 'note_on channel=0 note=77 velocity=0 time=87')
Note: ('note_on channel=0 note=74 velocity=80 time=9', 'note_on channel=0 note=74 velocity=80 time=9', 'note_on channel=0 note=45 velocity=99 time=150', 'note_on channel=0 note=77 velocity=0 time=87', 'note_on channel=0 note=77 velocity=0 time=87', 'note_on channel=0 note=77 velocity=0 time=87', 'note_on channel=0 note=77 velocity=0 time=87')
Note: ('note_on channel=0 note=74 velocity=80 time=9', 'note_on channel=0 note=45 velocity=99 time=150', 'note_on channel=0 note=77 velocity=0 time=87', 'note_on channel=0 note=77 velocity=0 time=87', 'note_on channel=0 note=77 velocity=0 time=87', 'note_on channel=0 note=77 velocity=0 time=87', 'note_on channel=0 note=33 velocity=92 time=5')
Note: ('note_on channel=0 note=45 velocity=99 time=150', 'note_on channel=0 note=77 velocity=0 time=87', 'note_on channel=0 note=77 velocity=0 time=87', 'note_on channel=0 note=77 velocity=0 time=87', 'note_on channel=0 note=77 velocity=0 time=87', 'note_on channel=0 note=33 velocity=92 time=5', 'note_on channel=0 note=57 velocity=67 time=6')
Note: ('note_on channel=0 note=77 velocity=0 time=87', 'note_on channel=0 note=77 velocity=0 time=87', 'note_on channel=0 note=77 velocity=0 time=87', 'note_on channel=0 note=77 velocity=0 time=87', 'note_on channel=0 note=33 velocity=92 time=5', 'note_on channel=0 note=57 velocity=67 time=6', 'note_on channel=0 note=57 velocity=67 time=6')
Note: ('note_on channel=0 note=77 velocity=0 time=87', 'note_on channel=0 note=77 velocity=0 time=87', 'note_on channel=0 note=77 velocity=0 time=87', 'note_on channel=0 note=33 velocity=92 time=5', 'note_on channel=0 note=57 velocity=67 time=6', 'note_on channel=0 note=57 velocity=67 time=6', 'note_on channel=0 note=81 velocity=0 time=23')
Note: ('note_on channel=0 note=77 velocity=0 time=87', 'note_on channel=0 note=77 velocity=0 time=87', 'note_on channel=0 note=33 velocity=92 time=5', 'note_on channel=0 note=57 velocity=67 time=6', 'note_on channel=0 note=57 velocity=67 time=6', 'note_on channel=0 note=81 velocity=0 time=23', 'note_on channel=0 note=57 velocity=67 time=6')
Note: ('note_on channel=0 note=77 velocity=0 time=87', 'note_on channel=0 note=33 velocity=92 time=5', 'note_on channel=0 note=57 velocity=67 time=6', 'note_on channel=0 note=57 velocity=67 time=6', 'note_on channel=0 note=81 velocity=0 time=23', 'note_on channel=0 note=57 velocity=67 time=6', 'note_on channel=0 note=60 velocity=74 time=44')
Note: ('note_on channel=0 note=33 velocity=92 time=5', 'note_on channel=0 note=57 velocity=67 time=6', 'note_on channel=0 note=57 velocity=67 time=6', 'note_on channel=0 note=81 velocity=0 time=23', 'note_on channel=0 note=57 velocity=67 time=6', 'note_on channel=0 note=60 velocity=74 time=44', 'note_on channel=0 note=50 velocity=0 time=9')
Note: ('note_on channel=0 note=57 velocity=67 time=6', 'note_on channel=0 note=57 velocity=67 time=6', 'note_on channel=0 note=81 velocity=0 time=23', 'note_on channel=0 note=57 velocity=67 time=6', 'note_on channel=0 note=60 velocity=74 time=44', 'note_on channel=0 note=50 velocity=0 time=9', 'note_on channel=0 note=50 velocity=0 time=9')
Note: ('note_on channel=0 note=50 velocity=0 time=9', 'note_on channel=0 note=64 velocity=55 time=99')
Note: ('note_on channel=0 note=64 velocity=55 time=99', 'note_on channel=0 note=84 velocity=90 time=0')
Note: ('note_on channel=0 note=84 velocity=90 time=0', 'note_on channel=0 note=76 velocity=0 time=46')
Note: ('note_on channel=0 note=76 velocity=0 time=46', 'note_on channel=0 note=38 velocity=0 time=124')
Note: ('note_on channel=0 note=38 velocity=0 time=124', 'note_on channel=0 note=67 velocity=56 time=6')
Note: ('note_on channel=0 note=67 velocity=56 time=6', 'note_on channel=0 note=81 velocity=0 time=46')
Note: ('note_on channel=0 note=81 velocity=0 time=46', 'note_on channel=0 note=66 velocity=80 time=85')
Note: ('note_on channel=0 note=66 velocity=80 time=85', 'note_on channel=0 note=69 velocity=55 time=3')
Note: ('note_on channel=0 note=69 velocity=55 time=3', 'note_on channel=0 note=57 velocity=52 time=2')
Note: ('note_on channel=0 note=57 velocity=52 time=2', 'note_on channel=0 note=76 velocity=94 time=13')
Note: ('note_on channel=0 note=76 velocity=94 time=13', 'note_on channel=0 note=71 velocity=44 time=192')
Note: ('note_on channel=0 note=71 velocity=44 time=192', 'note_on channel=0 note=69 velocity=87 time=4')
Note: ('note_on channel=0 note=69 velocity=87 time=4', 'note_on channel=0 note=51 velocity=99 time=60')
Note: ('note_on channel=0 note=51 velocity=99 time=60', 'note_on channel=0 note=66 velocity=60 time=48')
Note: ('note_on channel=0 note=66 velocity=60 time=48', 'note_on channel=0 note=45 velocity=0 time=17')
Note: ('note_on channel=0 note=45 velocity=0 time=17', 'note_on channel=0 note=58 velocity=50 time=16')
Note: ('note_on channel=0 note=58 velocity=50 time=16', 'note_on channel=0 note=76 velocity=0 time=10')
Note: ('note_on channel=0 note=76 velocity=0 time=10', 'note_on channel=0 note=71 velocity=67 time=0')
Note: ('note_on channel=0 note=71 velocity=67 time=0', 'note_on channel=0 note=91 velocity=79 time=125')
Note: ('note_on channel=0 note=91 velocity=79 time=125', 'note_on channel=0 note=44 velocity=0 time=88')
Note: ('note_on channel=0 note=44 velocity=0 time=88', 'note_on channel=0 note=78 velocity=0 time=22')
Note: ('note_on channel=0 note=78 velocity=0 time=22', 'note_on channel=0 note=53 velocity=0 time=1')
Note: ('note_on channel=0 note=53 velocity=0 time=1', 'note_on channel=0 note=79 velocity=75 time=79')
Note: ('note_on channel=0 note=79 velocity=75 time=79', 'note_on channel=0 note=44 velocity=91 time=4')
Note: ('note_on channel=0 note=44 velocity=91 time=4', 'note_on channel=0 note=46 velocity=0 time=17')
Note: ('note_on channel=0 note=46 velocity=0 time=17', 'note_on channel=0 note=64 velocity=0 time=20')
Note: ('note_on channel=0 note=64 velocity=0 time=20', 'note_on channel=0 note=64 velocity=0 time=6')
Note: ('note_on channel=0 note=64 velocity=0 time=6', 'note_on channel=0 note=47 velocity=0 time=15')
Note: ('note_on channel=0 note=44 velocity=91 time=4', 'note_on channel=0 note=46 velocity=0 time=17', 'note_on channel=0 note=64 velocity=0 time=20', 'note_on channel=0 note=64 velocity=0 time=6', 'note_on channel=0 note=47 velocity=0 time=15', 'note_on channel=0 note=64 velocity=85 time=65')
Note: ('note_on channel=0 note=46 velocity=0 time=17', 'note_on channel=0 note=64 velocity=0 time=20', 'note_on channel=0 note=64 velocity=0 time=6', 'note_on channel=0 note=47 velocity=0 time=15', 'note_on channel=0 note=64 velocity=85 time=65', 'note_on channel=0 note=50 velocity=90 time=224')
Note: ('note_on channel=0 note=64 velocity=0 time=20', 'note_on channel=0 note=64 velocity=0 time=6', 'note_on channel=0 note=47 velocity=0 time=15', 'note_on channel=0 note=64 velocity=85 time=65', 'note_on channel=0 note=50 velocity=90 time=224', 'note_on channel=0 note=52 velocity=0 time=11')
Note: ('note_on channel=0 note=64 velocity=0 time=6', 'note_on channel=0 note=47 velocity=0 time=15', 'note_on channel=0 note=64 velocity=85 time=65', 'note_on channel=0 note=50 velocity=90 time=224', 'note_on channel=0 note=52 velocity=0 time=11', 'note_on channel=0 note=54 velocity=0 time=51')
Note: ('note_on channel=0 note=47 velocity=0 time=15', 'note_on channel=0 note=64 velocity=85 time=65', 'note_on channel=0 note=50 velocity=90 time=224', 'note_on channel=0 note=52 velocity=0 time=11', 'note_on channel=0 note=54 velocity=0 time=51', 'note_on channel=0 note=52 velocity=90 time=3')
Note: ('note_on channel=0 note=64 velocity=85 time=65', 'note_on channel=0 note=50 velocity=90 time=224', 'note_on channel=0 note=52 velocity=0 time=11', 'note_on channel=0 note=54 velocity=0 time=51', 'note_on channel=0 note=52 velocity=90 time=3', 'note_on channel=0 note=38 velocity=86 time=6')
Note: ('note_on channel=0 note=50 velocity=90 time=224', 'note_on channel=0 note=52 velocity=0 time=11', 'note_on channel=0 note=54 velocity=0 time=51', 'note_on channel=0 note=52 velocity=90 time=3', 'note_on channel=0 note=38 velocity=86 time=6', 'note_on channel=0 note=73 velocity=83 time=0')
Note: ('note_on channel=0 note=52 velocity=0 time=11', 'note_on channel=0 note=54 velocity=0 time=51', 'note_on channel=0 note=52 velocity=90 time=3', 'note_on channel=0 note=38 velocity=86 time=6', 'note_on channel=0 note=73 velocity=83 time=0', 'note_on channel=0 note=64 velocity=76 time=111')
Note: ('note_on channel=0 note=54 velocity=0 time=51', 'note_on channel=0 note=52 velocity=90 time=3', 'note_on channel=0 note=38 velocity=86 time=6', 'note_on channel=0 note=73 velocity=83 time=0', 'note_on channel=0 note=64 velocity=76 time=111', 'note_on channel=0 note=68 velocity=84 time=0')
Note: ('note_on channel=0 note=52 velocity=90 time=3', 'note_on channel=0 note=38 velocity=86 time=6', 'note_on channel=0 note=73 velocity=83 time=0', 'note_on channel=0 note=64 velocity=76 time=111', 'note_on channel=0 note=68 velocity=84 time=0', 'note_on channel=0 note=38 velocity=0 time=9')
Note: ('note_on channel=0 note=38 velocity=86 time=6', 'note_on channel=0 note=73 velocity=83 time=0', 'note_on channel=0 note=64 velocity=76 time=111', 'note_on channel=0 note=68 velocity=84 time=0', 'note_on channel=0 note=38 velocity=0 time=9', 'note_on channel=0 note=57 velocity=91 time=1')
Note: ('note_on channel=0 note=73 velocity=83 time=0', 'note_on channel=0 note=64 velocity=76 time=111', 'note_on channel=0 note=68 velocity=84 time=0', 'note_on channel=0 note=38 velocity=0 time=9', 'note_on channel=0 note=57 velocity=91 time=1', 'note_on channel=0 note=64 velocity=0 time=25')
Note: ('note_on channel=0 note=64 velocity=76 time=111', 'note_on channel=0 note=68 velocity=84 time=0', 'note_on channel=0 note=38 velocity=0 time=9', 'note_on channel=0 note=57 velocity=91 time=1', 'note_on channel=0 note=64 velocity=0 time=25', 'note_on channel=0 note=68 velocity=0 time=14')
Note: ('note_on channel=0 note=68 velocity=84 time=0', 'note_on channel=0 note=38 velocity=0 time=9', 'note_on channel=0 note=57 velocity=91 time=1', 'note_on channel=0 note=64 velocity=0 time=25', 'note_on channel=0 note=68 velocity=0 time=14', 'note_on channel=0 note=50 velocity=0 time=1')
Note: ('note_on channel=0 note=38 velocity=0 time=9', 'note_on channel=0 note=57 velocity=91 time=1', 'note_on channel=0 note=64 velocity=0 time=25', 'note_on channel=0 note=68 velocity=0 time=14', 'note_on channel=0 note=50 velocity=0 time=1', 'note_on channel=0 note=49 velocity=83 time=1')
Note: ('note_on channel=0 note=57 velocity=91 time=1', 'note_on channel=0 note=64 velocity=0 time=25', 'note_on channel=0 note=68 velocity=0 time=14', 'note_on channel=0 note=50 velocity=0 time=1', 'note_on channel=0 note=49 velocity=83 time=1', 'note_on channel=0 note=63 velocity=80 time=184')
Note: ('note_on channel=0 note=64 velocity=0 time=25', 'note_on channel=0 note=68 velocity=0 time=14', 'note_on channel=0 note=50 velocity=0 time=1', 'note_on channel=0 note=49 velocity=83 time=1', 'note_on channel=0 note=63 velocity=80 time=184', 'note_on channel=0 note=59 velocity=41 time=168')
Note: ('note_on channel=0 note=68 velocity=0 time=14', 'note_on channel=0 note=50 velocity=0 time=1', 'note_on channel=0 note=49 velocity=83 time=1', 'note_on channel=0 note=63 velocity=80 time=184', 'note_on channel=0 note=59 velocity=41 time=168', 'note_on channel=0 note=73 velocity=89 time=8')
Note: ('note_on channel=0 note=50 velocity=0 time=1', 'note_on channel=0 note=49 velocity=83 time=1', 'note_on channel=0 note=63 velocity=80 time=184', 'note_on channel=0 note=59 velocity=41 time=168', 'note_on channel=0 note=73 velocity=89 time=8', 'note_on channel=0 note=77 velocity=93 time=0')
Note: ('note_on channel=0 note=49 velocity=83 time=1', 'note_on channel=0 note=63 velocity=80 time=184', 'note_on channel=0 note=59 velocity=41 time=168', 'note_on channel=0 note=73 velocity=89 time=8', 'note_on channel=0 note=77 velocity=93 time=0', 'note_on channel=0 note=35 velocity=80 time=29')
Note: ('note_on channel=0 note=63 velocity=80 time=184', 'note_on channel=0 note=59 velocity=41 time=168', 'note_on channel=0 note=73 velocity=89 time=8', 'note_on channel=0 note=77 velocity=93 time=0', 'note_on channel=0 note=35 velocity=80 time=29', 'note_on channel=0 note=76 velocity=63 time=48')
Note: ('note_on channel=0 note=59 velocity=41 time=168', 'note_on channel=0 note=73 velocity=89 time=8', 'note_on channel=0 note=77 velocity=93 time=0', 'note_on channel=0 note=35 velocity=80 time=29', 'note_on channel=0 note=76 velocity=63 time=48', 'note_on channel=0 note=55 velocity=87 time=11')
Note: ('note_on channel=0 note=73 velocity=89 time=8', 'note_on channel=0 note=77 velocity=93 time=0', 'note_on channel=0 note=35 velocity=80 time=29', 'note_on channel=0 note=76 velocity=63 time=48', 'note_on channel=0 note=55 velocity=87 time=11', 'note_on channel=0 note=65 velocity=86 time=6')
Note: ('note_on channel=0 note=77 velocity=93 time=0', 'note_on channel=0 note=35 velocity=80 time=29', 'note_on channel=0 note=76 velocity=63 time=48', 'note_on channel=0 note=55 velocity=87 time=11', 'note_on channel=0 note=65 velocity=86 time=6', 'note_on channel=0 note=57 velocity=80 time=9')
Note: ('note_on channel=0 note=35 velocity=80 time=29', 'note_on channel=0 note=76 velocity=63 time=48', 'note_on channel=0 note=55 velocity=87 time=11', 'note_on channel=0 note=65 velocity=86 time=6', 'note_on channel=0 note=57 velocity=80 time=9', 'note_on channel=0 note=66 velocity=47 time=17')
Note: ('note_on channel=0 note=76 velocity=63 time=48', 'note_on channel=0 note=55 velocity=87 time=11', 'note_on channel=0 note=65 velocity=86 time=6', 'note_on channel=0 note=57 velocity=80 time=9', 'note_on channel=0 note=66 velocity=47 time=17', 'note_on channel=0 note=64 velocity=71 time=71')
Note: ('note_on channel=0 note=55 velocity=87 time=11', 'note_on channel=0 note=65 velocity=86 time=6', 'note_on channel=0 note=57 velocity=80 time=9', 'note_on channel=0 note=66 velocity=47 time=17', 'note_on channel=0 note=64 velocity=71 time=71', 'note_on channel=0 note=77 velocity=0 time=38')
Note: ('note_on channel=0 note=65 velocity=86 time=6', 'note_on channel=0 note=57 velocity=80 time=9', 'note_on channel=0 note=66 velocity=47 time=17', 'note_on channel=0 note=64 velocity=71 time=71', 'note_on channel=0 note=77 velocity=0 time=38', 'note_on channel=0 note=35 velocity=0 time=3')
Note: ('note_on channel=0 note=57 velocity=80 time=9', 'note_on channel=0 note=66 velocity=47 time=17', 'note_on channel=0 note=64 velocity=71 time=71', 'note_on channel=0 note=77 velocity=0 time=38', 'note_on channel=0 note=35 velocity=0 time=3', 'note_on channel=0 note=64 velocity=0 time=8')
Note: ('note_on channel=0 note=50 velocity=80 time=2',)
Note: ('note_on channel=0 note=72 velocity=79 time=3',)
Note: ('note_on channel=0 note=69 velocity=74 time=6',)
Note: ('note_on channel=0 note=54 velocity=0 time=7',)
Note: ('note_on channel=0 note=81 velocity=0 time=13',)
Note: ('note_on channel=0 note=73 velocity=71 time=23',)
Note: ('note_on channel=0 note=79 velocity=0 time=22',)
Note: ('note_on channel=0 note=78 velocity=80 time=3',)
Note: ('note_on channel=0 note=73 velocity=0 time=12',)
Note: ('note_on channel=0 note=38 velocity=109 time=58',)
Note: ('note_on channel=0 note=38 velocity=0 time=0',)
Note: ('note_on channel=0 note=45 velocity=0 time=18',)
Note: ('note_on channel=0 note=50 velocity=0 time=28',)
Note: ('note_on channel=0 note=62 velocity=59 time=29',)
Note: ('note_on channel=0 note=64 velocity=56 time=3',)
Note: ('note_on channel=0 note=78 velocity=80 time=3',)
Note: ('note_on channel=0 note=66 velocity=68 time=8',)
Note: ('note_on channel=0 note=74 velocity=69 time=0',)
Note: ('note_on channel=0 note=69 velocity=0 time=21',)
Note: ('note_on channel=0 note=66 velocity=0 time=32',)
Note: ('note_on channel=0 note=54 velocity=0 time=5',)
Note: ('note_on channel=0 note=51 velocity=0 time=3',)
Note: ('note_on channel=0 note=45 velocity=39 time=22',)
Note: ('note_on channel=0 note=76 velocity=0 time=9',)
Note: ('note_on channel=0 note=83 velocity=78 time=3',)
Note: ('note_on channel=0 note=74 velocity=79 time=3',)
Note: ('note_on channel=0 note=80 velocity=72 time=6',)
Note: ('note_on channel=0 note=50 velocity=52 time=2',)
Note: ('note_on channel=0 note=56 velocity=59 time=0',)
Note: ('note_on channel=0 note=47 velocity=51 time=2',)
Note: ('note_on channel=0 note=47 velocity=0 time=53',)
Note: ('note_on channel=0 note=76 velocity=0 time=16',)
Note: ('note_on channel=0 note=64 velocity=73 time=42',)
Note: ('note_on channel=0 note=79 velocity=88 time=1',)
Note: ('note_on channel=0 note=78 velocity=0 time=32',)
Note: ('note_on channel=0 note=64 velocity=0 time=12',)
Note: ('note_on channel=0 note=69 velocity=50 time=3',)
Note: ('note_on channel=0 note=69 velocity=0 time=13',)
Note: ('note_on channel=0 note=42 velocity=0 time=1',)
Note: ('note_on channel=0 note=61 velocity=0 time=15',)
Note: ('note_on channel=0 note=73 velocity=0 time=5',)
Note: ('note_on channel=0 note=57 velocity=67 time=8',)
Note: ('note_on channel=0 note=76 velocity=77 time=163',)
Note: ('note_on channel=0 note=61 velocity=66 time=80',)
Note: ('note_on channel=0 note=69 velocity=0 time=12',)
Note: ('note_on channel=0 note=36 velocity=79 time=85',)
Note: ('note_on channel=0 note=45 velocity=77 time=10',)
Note: ('note_on channel=0 note=64 velocity=76 time=3',)
Note: ('note_on channel=0 note=70 velocity=91 time=0',)
Note: ('note_on channel=0 note=61 velocity=86 time=3',)
Note: ('note_on channel=0 note=62 velocity=0 time=24',)
Note: ('note_on channel=0 note=74 velocity=0 time=20',)
Note: ('note_on channel=0 note=73 velocity=0 time=42',)
Note: ('note_on channel=0 note=81 velocity=66 time=221',)
Note: ('note_on channel=0 note=59 velocity=38 time=42',)
Note: ('note_on channel=0 note=52 velocity=36 time=19',)
Note: ('note_on channel=0 note=80 velocity=72 time=55',)
Note: ('note_on channel=0 note=81 velocity=0 time=41',)
Note: ('note_on channel=0 note=83 velocity=71 time=1',)
Note: ('note_on channel=0 note=80 velocity=0 time=0',)
Note: ('note_on channel=0 note=63 velocity=66 time=28',)
Note: ('note_on channel=0 note=58 velocity=65 time=9',)
Note: ('note_on channel=0 note=66 velocity=54 time=0',)
Note: ('note_on channel=0 note=68 velocity=0 time=13',)
Note: ('note_on channel=0 note=45 velocity=74 time=7',)
Note: ('note_on channel=0 note=35 velocity=0 time=69',)
Note: ('note_on channel=0 note=69 velocity=71 time=91',)
Note: ('note_on channel=0 note=66 velocity=65 time=5',)
Note: ('note_on channel=0 note=45 velocity=0 time=9',)
Note: ('note_on channel=0 note=81 velocity=0 time=13',)
Note: ('note_on channel=0 note=57 velocity=44 time=144',)
Note: ('note_on channel=0 note=81 velocity=71 time=75',)
Note: ('note_on channel=0 note=69 velocity=0 time=53',)
Note: ('note_on channel=0 note=81 velocity=0 time=15',)
Note: ('note_on channel=0 note=73 velocity=0 time=21',)
Note: ('note_on channel=0 note=79 velocity=69 time=3',)
Note: ('note_on channel=0 note=85 velocity=0 time=3',)
Note: ('note_on channel=0 note=64 velocity=70 time=5',)
Note: ('note_on channel=0 note=67 velocity=58 time=3',)
Note: ('note_on channel=0 note=79 velocity=0 time=14',)
Note: ('note_on channel=0 note=67 velocity=0 time=6',)
Note: ('note_on channel=0 note=38 velocity=0 time=7',)
Note: ('note_on channel=0 note=50 velocity=65 time=0',)
Note: ('note_on channel=0 note=64 velocity=0 time=10',)
Note: ('note_on channel=0 note=69 velocity=0 time=11',)
Note: ('note_on channel=0 note=45 velocity=0 time=5',)
Note: ('note_on channel=0 note=65 velocity=0 time=89',)
Note: ('note_on channel=0 note=69 velocity=87 time=4',)
Note: ('note_on channel=0 note=81 velocity=0 time=128',)
Note: ('note_on channel=0 note=69 velocity=0 time=14',)
Note: ('note_on channel=0 note=64 velocity=0 time=112',)
Note: ('note_on channel=0 note=57 velocity=0 time=1',)
Note: ('note_on channel=0 note=74 velocity=92 time=786', 'note_on channel=0 note=74 velocity=0 time=48', 'note_on channel=0 note=81 velocity=93 time=353', 'note_on channel=0 note=57 velocity=79 time=373', 'note_on channel=0 note=57 velocity=0 time=49')
Note: ('note_on channel=0 note=74 velocity=0 time=48', 'note_on channel=0 note=81 velocity=93 time=353', 'note_on channel=0 note=57 velocity=79 time=373', 'note_on channel=0 note=57 velocity=0 time=49', 'note_on channel=0 note=62 velocity=86 time=337')
Note: ('note_on channel=0 note=81 velocity=93 time=353', 'note_on channel=0 note=57 velocity=79 time=373', 'note_on channel=0 note=57 velocity=0 time=49', 'note_on channel=0 note=62 velocity=86 time=337', 'note_on channel=0 note=62 velocity=0 time=12')
Note: ('note_on channel=0 note=57 velocity=79 time=373', 'note_on channel=0 note=57 velocity=0 time=49', 'note_on channel=0 note=62 velocity=86 time=337', 'note_on channel=0 note=62 velocity=0 time=12', 'note_on channel=0 note=81 velocity=0 time=0')
Note: ('note_on channel=0 note=57 velocity=0 time=49', 'note_on channel=0 note=62 velocity=86 time=337', 'note_on channel=0 note=62 velocity=0 time=12', 'note_on channel=0 note=81 velocity=0 time=0', 'note_on channel=0 note=78 velocity=97 time=304')
Note: ('note_on channel=0 note=62 velocity=86 time=337', 'note_on channel=0 note=62 velocity=0 time=12', 'note_on channel=0 note=81 velocity=0 time=0', 'note_on channel=0 note=78 velocity=97 time=304', 'note_on channel=0 note=74 velocity=82 time=7')
Note: ('note_on channel=0 note=62 velocity=0 time=12', 'note_on channel=0 note=81 velocity=0 time=0', 'note_on channel=0 note=78 velocity=97 time=304', 'note_on channel=0 note=74 velocity=82 time=7', 'note_on channel=0 note=74 velocity=0 time=319')
Note: ('note_on channel=0 note=81 velocity=0 time=0', 'note_on channel=0 note=78 velocity=97 time=304', 'note_on channel=0 note=74 velocity=82 time=7', 'note_on channel=0 note=74 velocity=0 time=319', 'note_on channel=0 note=73 velocity=73 time=36')
Note: ('note_on channel=0 note=78 velocity=97 time=304', 'note_on channel=0 note=74 velocity=82 time=7', 'note_on channel=0 note=74 velocity=0 time=319', 'note_on channel=0 note=73 velocity=73 time=36', 'note_on channel=0 note=76 velocity=79 time=7')
Note: ('note_on channel=0 note=74 velocity=82 time=7', 'note_on channel=0 note=74 velocity=0 time=319', 'note_on channel=0 note=73 velocity=73 time=36', 'note_on channel=0 note=76 velocity=79 time=7', 'note_on channel=0 note=78 velocity=0 time=2')
Note: ('note_on channel=0 note=74 velocity=0 time=319', 'note_on channel=0 note=73 velocity=73 time=36', 'note_on channel=0 note=76 velocity=79 time=7', 'note_on channel=0 note=78 velocity=0 time=2', 'note_on channel=0 note=73 velocity=0 time=25')
Note: ('note_on channel=0 note=73 velocity=73 time=36', 'note_on channel=0 note=76 velocity=79 time=7', 'note_on channel=0 note=78 velocity=0 time=2', 'note_on channel=0 note=73 velocity=0 time=25', 'note_on channel=0 note=76 velocity=0 time=11')
Note: ('note_on channel=0 note=76 velocity=79 time=7', 'note_on channel=0 note=78 velocity=0 time=2', 'note_on channel=0 note=73 velocity=0 time=25', 'note_on channel=0 note=76 velocity=0 time=11', 'note_on channel=0 note=71 velocity=78 time=65')
Note: ('note_on channel=0 note=78 velocity=0 time=2', 'note_on channel=0 note=73 velocity=0 time=25', 'note_on channel=0 note=76 velocity=0 time=11', 'note_on channel=0 note=71 velocity=78 time=65', 'note_on channel=0 note=74 velocity=72 time=4')
Note: ('note_on channel=0 note=73 velocity=0 time=25', 'note_on channel=0 note=76 velocity=0 time=11', 'note_on channel=0 note=71 velocity=78 time=65', 'note_on channel=0 note=74 velocity=72 time=4', 'note_on channel=0 note=71 velocity=0 time=26')
Note: ('note_on channel=0 note=76 velocity=0 time=11', 'note_on channel=0 note=71 velocity=78 time=65', 'note_on channel=0 note=74 velocity=72 time=4', 'note_on channel=0 note=71 velocity=0 time=26', 'note_on channel=0 note=74 velocity=0 time=11')
Note: ('note_on channel=0 note=71 velocity=78 time=65', 'note_on channel=0 note=74 velocity=72 time=4', 'note_on channel=0 note=71 velocity=0 time=26', 'note_on channel=0 note=74 velocity=0 time=11', 'note_on channel=0 note=73 velocity=79 time=54')
Note: ('note_on channel=0 note=74 velocity=72 time=4', 'note_on channel=0 note=71 velocity=0 time=26', 'note_on channel=0 note=74 velocity=0 time=11', 'note_on channel=0 note=73 velocity=79 time=54', 'note_on channel=0 note=69 velocity=76 time=9')
Note: ('note_on channel=0 note=71 velocity=0 time=26', 'note_on channel=0 note=74 velocity=0 time=11', 'note_on channel=0 note=73 velocity=79 time=54', 'note_on channel=0 note=69 velocity=76 time=9', 'note_on channel=0 note=69 velocity=0 time=24')
Note: ('note_on channel=0 note=74 velocity=0 time=11', 'note_on channel=0 note=73 velocity=79 time=54', 'note_on channel=0 note=69 velocity=76 time=9', 'note_on channel=0 note=69 velocity=0 time=24', 'note_on channel=0 note=73 velocity=0 time=22')
Note: ('note_on channel=0 note=73 velocity=79 time=54', 'note_on channel=0 note=69 velocity=76 time=9', 'note_on channel=0 note=69 velocity=0 time=24', 'note_on channel=0 note=73 velocity=0 time=22', 'note_on channel=0 note=71 velocity=83 time=54')
Note: ('note_on channel=0 note=69 velocity=76 time=9', 'note_on channel=0 note=69 velocity=0 time=24', 'note_on channel=0 note=73 velocity=0 time=22', 'note_on channel=0 note=71 velocity=83 time=54', 'note_on channel=0 note=67 velocity=78 time=1')
Note: ('note_on channel=0 note=69 velocity=0 time=24', 'note_on channel=0 note=73 velocity=0 time=22', 'note_on channel=0 note=71 velocity=83 time=54', 'note_on channel=0 note=67 velocity=78 time=1', 'note_on channel=0 note=67 velocity=0 time=29')
Note: ('note_on channel=0 note=73 velocity=0 time=22', 'note_on channel=0 note=71 velocity=83 time=54', 'note_on channel=0 note=67 velocity=78 time=1', 'note_on channel=0 note=67 velocity=0 time=29', 'note_on channel=0 note=71 velocity=0 time=14')
Note: ('note_on channel=0 note=71 velocity=83 time=54', 'note_on channel=0 note=67 velocity=78 time=1', 'note_on channel=0 note=67 velocity=0 time=29', 'note_on channel=0 note=71 velocity=0 time=14', 'note_on channel=0 note=69 velocity=77 time=60')
Note: ('note_on channel=0 note=67 velocity=78 time=1', 'note_on channel=0 note=67 velocity=0 time=29', 'note_on channel=0 note=71 velocity=0 time=14', 'note_on channel=0 note=69 velocity=77 time=60', 'note_on channel=0 note=66 velocity=76 time=1')
Note: ('note_on channel=0 note=67 velocity=0 time=29', 'note_on channel=0 note=71 velocity=0 time=14', 'note_on channel=0 note=69 velocity=77 time=60', 'note_on channel=0 note=66 velocity=76 time=1', 'note_on channel=0 note=66 velocity=0 time=27')
Note: ('note_on channel=0 note=71 velocity=0 time=14', 'note_on channel=0 note=69 velocity=77 time=60', 'note_on channel=0 note=66 velocity=76 time=1', 'note_on channel=0 note=66 velocity=0 time=27', 'note_on channel=0 note=69 velocity=0 time=11')
Note: ('note_on channel=0 note=69 velocity=77 time=60', 'note_on channel=0 note=66 velocity=76 time=1', 'note_on channel=0 note=66 velocity=0 time=27', 'note_on channel=0 note=69 velocity=0 time=11', 'note_on channel=0 note=64 velocity=73 time=63')
Note: ('note_on channel=0 note=66 velocity=76 time=1', 'note_on channel=0 note=66 velocity=0 time=27', 'note_on channel=0 note=69 velocity=0 time=11', 'note_on channel=0 note=64 velocity=73 time=63', 'note_on channel=0 note=67 velocity=72 time=0')
Note: ('note_on channel=0 note=66 velocity=0 time=27', 'note_on channel=0 note=69 velocity=0 time=11', 'note_on channel=0 note=64 velocity=73 time=63', 'note_on channel=0 note=67 velocity=72 time=0', 'note_on channel=0 note=64 velocity=0 time=37')
Note: ('note_on channel=0 note=69 velocity=0 time=11', 'note_on channel=0 note=64 velocity=73 time=63', 'note_on channel=0 note=67 velocity=72 time=0', 'note_on channel=0 note=64 velocity=0 time=37', 'note_on channel=0 note=67 velocity=0 time=22')
Note: ('note_on channel=0 note=64 velocity=73 time=63', 'note_on channel=0 note=67 velocity=72 time=0', 'note_on channel=0 note=64 velocity=0 time=37', 'note_on channel=0 note=67 velocity=0 time=22', 'note_on channel=0 note=62 velocity=80 time=66')
Note: ('note_on channel=0 note=67 velocity=72 time=0', 'note_on channel=0 note=64 velocity=0 time=37', 'note_on channel=0 note=67 velocity=0 time=22', 'note_on channel=0 note=62 velocity=80 time=66', 'note_on channel=0 note=66 velocity=85 time=0')
Note: ('note_on channel=0 note=64 velocity=0 time=37', 'note_on channel=0 note=67 velocity=0 time=22', 'note_on channel=0 note=62 velocity=80 time=66', 'note_on channel=0 note=66 velocity=85 time=0', 'note_on channel=0 note=62 velocity=0 time=21')
Note: ('note_on channel=0 note=67 velocity=0 time=22', 'note_on channel=0 note=62 velocity=80 time=66', 'note_on channel=0 note=66 velocity=85 time=0', 'note_on channel=0 note=62 velocity=0 time=21', 'note_on channel=0 note=66 velocity=0 time=7')
Note: ('note_on channel=0 note=62 velocity=80 time=66', 'note_on channel=0 note=66 velocity=85 time=0', 'note_on channel=0 note=62 velocity=0 time=21', 'note_on channel=0 note=66 velocity=0 time=7', 'note_on channel=0 note=81 velocity=96 time=1')
Note: ('note_on channel=0 note=66 velocity=85 time=0', 'note_on channel=0 note=62 velocity=0 time=21', 'note_on channel=0 note=66 velocity=0 time=7', 'note_on channel=0 note=81 velocity=96 time=1', 'note_on channel=0 note=78 velocity=81 time=7')
Note: ('note_on channel=0 note=66 velocity=85 time=0', 'note_on channel=0 note=62 velocity=0 time=21', 'note_on channel=0 note=66 velocity=0 time=7', 'note_on channel=0 note=81 velocity=96 time=1', 'note_on channel=0 note=78 velocity=81 time=7', 'note_on channel=0 note=78 velocity=0 time=338')
Note: ('note_on channel=0 note=62 velocity=0 time=21', 'note_on channel=0 note=66 velocity=0 time=7', 'note_on channel=0 note=81 velocity=96 time=1', 'note_on channel=0 note=78 velocity=81 time=7', 'note_on channel=0 note=78 velocity=0 time=338', 'note_on channel=0 note=78 velocity=0 time=338')
Note: ('note_on channel=0 note=66 velocity=0 time=7', 'note_on channel=0 note=81 velocity=96 time=1', 'note_on channel=0 note=78 velocity=81 time=7', 'note_on channel=0 note=78 velocity=0 time=338', 'note_on channel=0 note=78 velocity=0 time=338', 'note_on channel=0 note=81 velocity=0 time=12')
Note: ('note_on channel=0 note=81 velocity=96 time=1', 'note_on channel=0 note=78 velocity=81 time=7', 'note_on channel=0 note=78 velocity=0 time=338', 'note_on channel=0 note=78 velocity=0 time=338', 'note_on channel=0 note=81 velocity=0 time=12', 'note_on channel=0 note=81 velocity=0 time=12')
Note: ('note_on channel=0 note=78 velocity=81 time=7', 'note_on channel=0 note=78 velocity=0 time=338', 'note_on channel=0 note=78 velocity=0 time=338', 'note_on channel=0 note=81 velocity=0 time=12', 'note_on channel=0 note=81 velocity=0 time=12', 'note_on channel=0 note=79 velocity=84 time=13')
Note: ('note_on channel=0 note=78 velocity=0 time=338', 'note_on channel=0 note=78 velocity=0 time=338', 'note_on channel=0 note=81 velocity=0 time=12', 'note_on channel=0 note=81 velocity=0 time=12', 'note_on channel=0 note=79 velocity=84 time=13', 'note_on channel=0 note=79 velocity=84 time=13')
Note: ('note_on channel=0 note=78 velocity=0 time=338', 'note_on channel=0 note=81 velocity=0 time=12', 'note_on channel=0 note=81 velocity=0 time=12', 'note_on channel=0 note=79 velocity=84 time=13', 'note_on channel=0 note=79 velocity=84 time=13', 'note_on channel=0 note=76 velocity=70 time=15')
Note: ('note_on channel=0 note=81 velocity=0 time=12', 'note_on channel=0 note=81 velocity=0 time=12', 'note_on channel=0 note=79 velocity=84 time=13', 'note_on channel=0 note=79 velocity=84 time=13', 'note_on channel=0 note=76 velocity=70 time=15', 'note_on channel=0 note=76 velocity=70 time=15')
Note: ('note_on channel=0 note=81 velocity=0 time=12', 'note_on channel=0 note=79 velocity=84 time=13', 'note_on channel=0 note=79 velocity=84 time=13', 'note_on channel=0 note=76 velocity=70 time=15', 'note_on channel=0 note=76 velocity=70 time=15', 'note_on channel=0 note=76 velocity=0 time=27')
Note: ('note_on channel=0 note=79 velocity=84 time=13', 'note_on channel=0 note=79 velocity=84 time=13', 'note_on channel=0 note=76 velocity=70 time=15', 'note_on channel=0 note=76 velocity=70 time=15', 'note_on channel=0 note=76 velocity=0 time=27', 'note_on channel=0 note=76 velocity=0 time=27')
Note: ('note_on channel=0 note=79 velocity=84 time=13', 'note_on channel=0 note=76 velocity=70 time=15', 'note_on channel=0 note=76 velocity=70 time=15', 'note_on channel=0 note=76 velocity=0 time=27', 'note_on channel=0 note=76 velocity=0 time=27', 'note_on channel=0 note=79 velocity=0 time=17')
Note: ('note_on channel=0 note=76 velocity=70 time=15', 'note_on channel=0 note=76 velocity=70 time=15', 'note_on channel=0 note=76 velocity=0 time=27', 'note_on channel=0 note=76 velocity=0 time=27', 'note_on channel=0 note=79 velocity=0 time=17', 'note_on channel=0 note=58 velocity=61 time=15')
Note: ('note_on channel=0 note=76 velocity=70 time=15', 'note_on channel=0 note=76 velocity=0 time=27', 'note_on channel=0 note=76 velocity=0 time=27', 'note_on channel=0 note=79 velocity=0 time=17', 'note_on channel=0 note=58 velocity=61 time=15', 'note_on channel=0 note=78 velocity=89 time=50')
Note: ('note_on channel=0 note=76 velocity=0 time=27', 'note_on channel=0 note=76 velocity=0 time=27', 'note_on channel=0 note=79 velocity=0 time=17', 'note_on channel=0 note=58 velocity=61 time=15', 'note_on channel=0 note=78 velocity=89 time=50', 'note_on channel=0 note=62 velocity=62 time=23')
Note: ('note_on channel=0 note=76 velocity=0 time=27', 'note_on channel=0 note=79 velocity=0 time=17', 'note_on channel=0 note=58 velocity=61 time=15', 'note_on channel=0 note=78 velocity=89 time=50', 'note_on channel=0 note=62 velocity=62 time=23', 'note_on channel=0 note=74 velocity=81 time=7')
Note: ('note_on channel=0 note=79 velocity=0 time=17', 'note_on channel=0 note=58 velocity=61 time=15', 'note_on channel=0 note=78 velocity=89 time=50', 'note_on channel=0 note=62 velocity=62 time=23', 'note_on channel=0 note=74 velocity=81 time=7', 'note_on channel=0 note=64 velocity=61 time=18')
Note: ('note_on channel=0 note=58 velocity=61 time=15', 'note_on channel=0 note=78 velocity=89 time=50', 'note_on channel=0 note=62 velocity=62 time=23', 'note_on channel=0 note=74 velocity=81 time=7', 'note_on channel=0 note=64 velocity=61 time=18', 'note_on channel=0 note=74 velocity=0 time=34')
Note: ('note_on channel=0 note=78 velocity=89 time=50', 'note_on channel=0 note=62 velocity=62 time=23', 'note_on channel=0 note=74 velocity=81 time=7', 'note_on channel=0 note=64 velocity=61 time=18', 'note_on channel=0 note=74 velocity=0 time=34', 'note_on channel=0 note=79 velocity=86 time=9')
Note: ('note_on channel=0 note=62 velocity=62 time=23', 'note_on channel=0 note=74 velocity=81 time=7', 'note_on channel=0 note=64 velocity=61 time=18', 'note_on channel=0 note=74 velocity=0 time=34', 'note_on channel=0 note=79 velocity=86 time=9', 'note_on channel=0 note=68 velocity=0 time=23')
Note: ('note_on channel=0 note=74 velocity=81 time=7', 'note_on channel=0 note=64 velocity=61 time=18', 'note_on channel=0 note=74 velocity=0 time=34', 'note_on channel=0 note=79 velocity=86 time=9', 'note_on channel=0 note=68 velocity=0 time=23', 'note_on channel=0 note=67 velocity=63 time=1')
Note: ('note_on channel=0 note=64 velocity=61 time=18', 'note_on channel=0 note=74 velocity=0 time=34', 'note_on channel=0 note=79 velocity=86 time=9', 'note_on channel=0 note=68 velocity=0 time=23', 'note_on channel=0 note=67 velocity=63 time=1', 'note_on channel=0 note=64 velocity=0 time=13')
Note: ('note_on channel=0 note=74 velocity=0 time=34', 'note_on channel=0 note=79 velocity=86 time=9', 'note_on channel=0 note=68 velocity=0 time=23', 'note_on channel=0 note=67 velocity=63 time=1', 'note_on channel=0 note=64 velocity=0 time=13', 'note_on channel=0 note=77 velocity=0 time=9')
Note: ('note_on channel=0 note=79 velocity=86 time=9', 'note_on channel=0 note=68 velocity=0 time=23', 'note_on channel=0 note=67 velocity=63 time=1', 'note_on channel=0 note=64 velocity=0 time=13', 'note_on channel=0 note=77 velocity=0 time=9', 'note_on channel=0 note=82 velocity=74 time=14')
Note: ('note_on channel=0 note=68 velocity=0 time=23', 'note_on channel=0 note=67 velocity=63 time=1', 'note_on channel=0 note=64 velocity=0 time=13', 'note_on channel=0 note=77 velocity=0 time=9', 'note_on channel=0 note=82 velocity=74 time=14', 'note_on channel=0 note=57 velocity=0 time=3')
Note: ('note_on channel=0 note=67 velocity=63 time=1', 'note_on channel=0 note=64 velocity=0 time=13', 'note_on channel=0 note=77 velocity=0 time=9', 'note_on channel=0 note=82 velocity=74 time=14', 'note_on channel=0 note=57 velocity=0 time=3', 'note_on channel=0 note=79 velocity=68 time=2')
Note: ('note_on channel=0 note=64 velocity=0 time=13', 'note_on channel=0 note=77 velocity=0 time=9', 'note_on channel=0 note=82 velocity=74 time=14', 'note_on channel=0 note=57 velocity=0 time=3', 'note_on channel=0 note=79 velocity=68 time=2', 'note_on channel=0 note=72 velocity=66 time=155')
Note: ('note_on channel=0 note=77 velocity=0 time=9', 'note_on channel=0 note=82 velocity=74 time=14', 'note_on channel=0 note=57 velocity=0 time=3', 'note_on channel=0 note=79 velocity=68 time=2', 'note_on channel=0 note=72 velocity=66 time=155', 'note_on channel=0 note=62 velocity=0 time=6')
Note: ('note_on channel=0 note=72 velocity=66 time=155', 'note_on channel=0 note=62 velocity=0 time=6', 'note_on channel=0 note=74 velocity=77 time=42')
Note: ('note_on channel=0 note=62 velocity=0 time=6', 'note_on channel=0 note=74 velocity=77 time=42', 'note_on channel=0 note=72 velocity=0 time=0')
Note: ('note_on channel=0 note=74 velocity=77 time=42', 'note_on channel=0 note=72 velocity=0 time=0', 'note_on channel=0 note=76 velocity=76 time=27')
Note: ('note_on channel=0 note=72 velocity=0 time=0', 'note_on channel=0 note=76 velocity=76 time=27', 'note_on channel=0 note=74 velocity=0 time=27')
Note: ('note_on channel=0 note=76 velocity=76 time=27', 'note_on channel=0 note=74 velocity=0 time=27', 'note_on channel=0 note=76 velocity=0 time=37')
Note: ('note_on channel=0 note=74 velocity=0 time=27', 'note_on channel=0 note=76 velocity=0 time=37', 'note_on channel=0 note=76 velocity=72 time=170')
Note: ('note_on channel=0 note=76 velocity=0 time=37', 'note_on channel=0 note=76 velocity=72 time=170', 'note_on channel=0 note=74 velocity=84 time=5')
Note: ('note_on channel=0 note=76 velocity=72 time=170', 'note_on channel=0 note=74 velocity=84 time=5', 'note_on channel=0 note=76 velocity=0 time=24')
Note: ('note_on channel=0 note=74 velocity=84 time=5', 'note_on channel=0 note=76 velocity=0 time=24', 'note_on channel=0 note=65 velocity=45 time=243')
Note: ('note_on channel=0 note=76 velocity=0 time=24', 'note_on channel=0 note=65 velocity=45 time=243', 'note_on channel=0 note=69 velocity=56 time=64')
Note: ('note_on channel=0 note=65 velocity=45 time=243', 'note_on channel=0 note=69 velocity=56 time=64', 'note_on channel=0 note=72 velocity=85 time=45')
Note: ('note_on channel=0 note=69 velocity=56 time=64', 'note_on channel=0 note=72 velocity=85 time=45', 'note_on channel=0 note=74 velocity=0 time=29')
Note: ('note_on channel=0 note=72 velocity=85 time=45', 'note_on channel=0 note=74 velocity=0 time=29', 'note_on channel=0 note=69 velocity=0 time=23')
Note: ('note_on channel=0 note=74 velocity=0 time=29', 'note_on channel=0 note=69 velocity=0 time=23', 'note_on channel=0 note=72 velocity=0 time=12')
Note: ('note_on channel=0 note=69 velocity=0 time=23', 'note_on channel=0 note=72 velocity=0 time=12', 'note_on channel=0 note=65 velocity=0 time=7')
Note: ('note_on channel=0 note=72 velocity=0 time=12', 'note_on channel=0 note=65 velocity=0 time=7', 'note_on channel=0 note=71 velocity=88 time=46')
Note: ('note_on channel=0 note=65 velocity=0 time=7', 'note_on channel=0 note=71 velocity=88 time=46', 'note_on channel=0 note=71 velocity=0 time=58')
Note: ('note_on channel=0 note=71 velocity=88 time=46', 'note_on channel=0 note=71 velocity=0 time=58', 'note_on channel=0 note=69 velocity=87 time=62')
Note: ('note_on channel=0 note=71 velocity=0 time=58', 'note_on channel=0 note=69 velocity=87 time=62', 'note_on channel=0 note=69 velocity=0 time=60')
Note: ('note_on channel=0 note=69 velocity=87 time=62', 'note_on channel=0 note=69 velocity=0 time=60', 'note_on channel=0 note=71 velocity=78 time=85')
Note: ('note_on channel=0 note=69 velocity=0 time=60', 'note_on channel=0 note=71 velocity=78 time=85', 'note_on channel=0 note=64 velocity=48 time=20')
Note: ('note_on channel=0 note=71 velocity=78 time=85', 'note_on channel=0 note=64 velocity=48 time=20', 'note_on channel=0 note=68 velocity=53 time=0')
Note: ('note_on channel=0 note=64 velocity=48 time=20', 'note_on channel=0 note=68 velocity=53 time=0', 'note_on channel=0 note=68 velocity=0 time=11')
Note: ('note_on channel=0 note=65 velocity=55 time=128',)
Note: ('note_on channel=0 note=69 velocity=62 time=47',)
Note: ('note_on channel=0 note=64 velocity=0 time=4',)
Note: ('note_on channel=0 note=73 velocity=62 time=12',)
Note: ('note_on channel=0 note=79 velocity=0 time=3',)
Note: ('note_on channel=0 note=55 velocity=0 time=10',)
Note: ('note_on channel=0 note=52 velocity=0 time=0',)
Note: ('note_on channel=0 note=56 velocity=0 time=13',)
Note: ('note_on channel=0 note=45 velocity=65 time=88',)
Note: ('note_on channel=0 note=33 velocity=65 time=5',)
Note: ('note_on channel=0 note=45 velocity=0 time=26',)
Note: ('note_on channel=0 note=33 velocity=0 time=3',)
Note: ('note_on channel=0 note=64 velocity=0 time=4',)
Note: ('note_on channel=0 note=67 velocity=0 time=17',)
Note: ('note_on channel=0 note=70 velocity=0 time=0',)
Note: ('note_on channel=0 note=82 velocity=0 time=3',)
Note: ('note_on channel=0 note=68 velocity=89 time=90',)
Note: ('note_on channel=0 note=80 velocity=93 time=2',)
Note: ('note_on channel=0 note=68 velocity=0 time=81',)
Note: ('note_on channel=0 note=80 velocity=0 time=35',)
Note: ('note_on channel=0 note=62 velocity=81 time=68',)
Note: ('note_on channel=0 note=65 velocity=83 time=0',)
Note: ('note_on channel=0 note=55 velocity=71 time=9',)
Note: ('note_on channel=0 note=70 velocity=84 time=30',)
Note: ('note_on channel=0 note=82 velocity=93 time=0',)
Note: ('note_on channel=0 note=79 velocity=77 time=4',)
Note: ('note_on channel=0 note=74 velocity=77 time=2',)
Note: ('note_on channel=0 note=53 velocity=0 time=27',)
Note: ('note_on channel=0 note=65 velocity=0 time=27',)
Note: ('note_on channel=0 note=62 velocity=0 time=2',)
Note: ('note_on channel=0 note=48 velocity=0 time=115',)
Note: ('note_on channel=0 note=52 velocity=62 time=10',)
Note: ('note_on channel=0 note=72 velocity=73 time=1',)
Note: ('note_on channel=0 note=69 velocity=64 time=15',)
Note: ('note_on channel=0 note=60 velocity=53 time=4',)
Note: ('note_on channel=0 note=43 velocity=0 time=27',)
Note: ('note_on channel=0 note=55 velocity=0 time=10',)
Note: ('note_on channel=0 note=58 velocity=0 time=17',)
Note: ('note_on channel=0 note=59 velocity=97 time=64',)
Note: ('note_on channel=0 note=74 velocity=101 time=1',)
Note: ('note_on channel=0 note=56 velocity=91 time=2',)
Note: ('note_on channel=0 note=53 velocity=81 time=1',)
Note: ('note_on channel=0 note=50 velocity=90 time=1',)
Note: ('note_on channel=0 note=55 velocity=83 time=4',)
Note: ('note_on channel=0 note=67 velocity=74 time=0',)
Note: ('note_on channel=0 note=50 velocity=76 time=5',)
Note: ('note_on channel=0 note=43 velocity=75 time=2',)
Note: ('note_on channel=0 note=46 velocity=73 time=2',)
Note: ('note_on channel=0 note=74 velocity=72 time=1',)
Note: ('note_on channel=0 note=55 velocity=59 time=1',)
Note: ('note_on channel=0 note=55 velocity=0 time=71',)
Note: ('note_on channel=0 note=43 velocity=0 time=2',)
Note: ('note_on channel=0 note=50 velocity=79 time=3',)
Note: ('note_on channel=0 note=47 velocity=0 time=35',)
Note: ('note_on channel=0 note=43 velocity=0 time=2', 'note_on channel=0 note=50 velocity=79 time=3', 'note_on channel=0 note=47 velocity=0 time=35', 'note_on channel=0 note=55 velocity=78 time=14')
Note: ('note_on channel=0 note=50 velocity=79 time=3', 'note_on channel=0 note=47 velocity=0 time=35', 'note_on channel=0 note=55 velocity=78 time=14', 'note_on channel=0 note=50 velocity=0 time=4')
Note: ('note_on channel=0 note=47 velocity=0 time=35', 'note_on channel=0 note=55 velocity=78 time=14', 'note_on channel=0 note=50 velocity=0 time=4', 'note_on channel=0 note=55 velocity=0 time=21')
Note: ('note_on channel=0 note=55 velocity=78 time=14', 'note_on channel=0 note=50 velocity=0 time=4', 'note_on channel=0 note=55 velocity=0 time=21', 'note_on channel=0 note=79 velocity=101 time=102')
Note: ('note_on channel=0 note=50 velocity=0 time=4', 'note_on channel=0 note=55 velocity=0 time=21', 'note_on channel=0 note=79 velocity=101 time=102', 'note_on channel=0 note=61 velocity=79 time=2')
Note: ('note_on channel=0 note=55 velocity=0 time=21', 'note_on channel=0 note=79 velocity=101 time=102', 'note_on channel=0 note=61 velocity=79 time=2', 'note_on channel=0 note=58 velocity=79 time=2')
Note: ('note_on channel=0 note=79 velocity=101 time=102', 'note_on channel=0 note=61 velocity=79 time=2', 'note_on channel=0 note=58 velocity=79 time=2', 'note_on channel=0 note=52 velocity=74 time=4')
Note: ('note_on channel=0 note=61 velocity=79 time=2', 'note_on channel=0 note=58 velocity=79 time=2', 'note_on channel=0 note=52 velocity=74 time=4', 'note_on channel=0 note=61 velocity=0 time=34')
Note: ('note_on channel=0 note=58 velocity=79 time=2', 'note_on channel=0 note=52 velocity=74 time=4', 'note_on channel=0 note=61 velocity=0 time=34', 'note_on channel=0 note=58 velocity=0 time=10')
Note: ('note_on channel=0 note=52 velocity=74 time=4', 'note_on channel=0 note=61 velocity=0 time=34', 'note_on channel=0 note=58 velocity=0 time=10', 'note_on channel=0 note=52 velocity=0 time=11')
Note: ('note_on channel=0 note=61 velocity=0 time=34', 'note_on channel=0 note=58 velocity=0 time=10', 'note_on channel=0 note=52 velocity=0 time=11', 'note_on channel=0 note=73 velocity=83 time=0')
Note: ('note_on channel=0 note=58 velocity=0 time=10', 'note_on channel=0 note=52 velocity=0 time=11', 'note_on channel=0 note=73 velocity=83 time=0', 'note_on channel=0 note=79 velocity=0 time=24')
Note: ('note_on channel=0 note=52 velocity=0 time=11', 'note_on channel=0 note=73 velocity=83 time=0', 'note_on channel=0 note=79 velocity=0 time=24', 'note_on channel=0 note=70 velocity=76 time=45')
Note: ('note_on channel=0 note=73 velocity=83 time=0', 'note_on channel=0 note=79 velocity=0 time=24', 'note_on channel=0 note=70 velocity=76 time=45', 'note_on channel=0 note=73 velocity=0 time=26')
Note: ('note_on channel=0 note=79 velocity=0 time=24', 'note_on channel=0 note=70 velocity=76 time=45', 'note_on channel=0 note=73 velocity=0 time=26', 'note_on channel=0 note=70 velocity=0 time=31')
Note: ('note_on channel=0 note=70 velocity=76 time=45', 'note_on channel=0 note=73 velocity=0 time=26', 'note_on channel=0 note=70 velocity=0 time=31', 'note_on channel=0 note=67 velocity=72 time=8')
Note: ('note_on channel=0 note=73 velocity=0 time=26', 'note_on channel=0 note=70 velocity=0 time=31', 'note_on channel=0 note=67 velocity=72 time=8', 'note_on channel=0 note=67 velocity=0 time=64')
Note: ('note_on channel=0 note=70 velocity=0 time=31', 'note_on channel=0 note=67 velocity=72 time=8', 'note_on channel=0 note=67 velocity=0 time=64', 'note_on channel=0 note=41 velocity=87 time=19')
Note: ('note_on channel=0 note=67 velocity=72 time=8', 'note_on channel=0 note=67 velocity=0 time=64', 'note_on channel=0 note=41 velocity=87 time=19', 'note_on channel=0 note=72 velocity=93 time=11')
Note: ('note_on channel=0 note=67 velocity=0 time=64', 'note_on channel=0 note=41 velocity=87 time=19', 'note_on channel=0 note=72 velocity=93 time=11', 'note_on channel=0 note=65 velocity=82 time=3')
Note: ('note_on channel=0 note=41 velocity=87 time=19', 'note_on channel=0 note=72 velocity=93 time=11', 'note_on channel=0 note=65 velocity=82 time=3', 'note_on channel=0 note=69 velocity=77 time=15')
Note: ('note_on channel=0 note=72 velocity=93 time=11', 'note_on channel=0 note=65 velocity=82 time=3', 'note_on channel=0 note=69 velocity=77 time=15', 'note_on channel=0 note=45 velocity=75 time=43')
Note: ('note_on channel=0 note=65 velocity=82 time=3', 'note_on channel=0 note=69 velocity=77 time=15', 'note_on channel=0 note=45 velocity=75 time=43', 'note_on channel=0 note=41 velocity=0 time=10')
Note: ('note_on channel=0 note=69 velocity=77 time=15', 'note_on channel=0 note=45 velocity=75 time=43', 'note_on channel=0 note=41 velocity=0 time=10', 'note_on channel=0 note=65 velocity=0 time=8')
Note: ('note_on channel=0 note=45 velocity=75 time=43', 'note_on channel=0 note=41 velocity=0 time=10', 'note_on channel=0 note=65 velocity=0 time=8', 'note_on channel=0 note=72 velocity=0 time=0')
Note: ('note_on channel=0 note=41 velocity=0 time=10', 'note_on channel=0 note=65 velocity=0 time=8', 'note_on channel=0 note=72 velocity=0 time=0', 'note_on channel=0 note=69 velocity=0 time=9')
Note: ('note_on channel=0 note=65 velocity=0 time=8', 'note_on channel=0 note=72 velocity=0 time=0', 'note_on channel=0 note=69 velocity=0 time=9', 'note_on channel=0 note=48 velocity=81 time=3')
Note: ('note_on channel=0 note=72 velocity=0 time=0', 'note_on channel=0 note=69 velocity=0 time=9', 'note_on channel=0 note=48 velocity=81 time=3', 'note_on channel=0 note=45 velocity=0 time=33')
Note: ('note_on channel=0 note=69 velocity=0 time=9', 'note_on channel=0 note=48 velocity=81 time=3', 'note_on channel=0 note=45 velocity=0 time=33', 'note_on channel=0 note=48 velocity=0 time=47')
Note: ('note_on channel=0 note=48 velocity=81 time=3', 'note_on channel=0 note=45 velocity=0 time=33', 'note_on channel=0 note=48 velocity=0 time=47', 'note_on channel=0 note=53 velocity=80 time=0')
Note: ('note_on channel=0 note=45 velocity=0 time=33', 'note_on channel=0 note=48 velocity=0 time=47', 'note_on channel=0 note=53 velocity=80 time=0', 'note_on channel=0 note=53 velocity=0 time=27')
Note: ('note_on channel=0 note=48 velocity=0 time=47', 'note_on channel=0 note=53 velocity=80 time=0', 'note_on channel=0 note=53 velocity=0 time=27', 'note_on channel=0 note=77 velocity=89 time=144')
Note: ('note_on channel=0 note=53 velocity=80 time=0', 'note_on channel=0 note=53 velocity=0 time=27', 'note_on channel=0 note=77 velocity=89 time=144', 'note_on channel=0 note=38 velocity=95 time=17')
Note: ('note_on channel=0 note=53 velocity=0 time=27', 'note_on channel=0 note=77 velocity=89 time=144', 'note_on channel=0 note=38 velocity=95 time=17', 'note_on channel=0 note=38 velocity=0 time=23')
Note: ('note_on channel=0 note=77 velocity=89 time=144', 'note_on channel=0 note=38 velocity=95 time=17', 'note_on channel=0 note=38 velocity=0 time=23', 'note_on channel=0 note=72 velocity=69 time=52')
Note: ('note_on channel=0 note=38 velocity=95 time=17', 'note_on channel=0 note=38 velocity=0 time=23', 'note_on channel=0 note=72 velocity=69 time=52', 'note_on channel=0 note=69 velocity=61 time=86')
Note: ('note_on channel=0 note=38 velocity=0 time=23', 'note_on channel=0 note=72 velocity=69 time=52', 'note_on channel=0 note=69 velocity=61 time=86', 'note_on channel=0 note=50 velocity=71 time=70')
Note: ('note_on channel=0 note=72 velocity=69 time=52', 'note_on channel=0 note=69 velocity=61 time=86', 'note_on channel=0 note=50 velocity=71 time=70', 'note_on channel=0 note=65 velocity=68 time=0')
Note: ('note_on channel=0 note=69 velocity=61 time=86', 'note_on channel=0 note=50 velocity=71 time=70', 'note_on channel=0 note=65 velocity=68 time=0', 'note_on channel=0 note=72 velocity=0 time=13')
Note: ('note_on channel=0 note=38 velocity=95 time=17', 'note_on channel=0 note=38 velocity=0 time=23', 'note_on channel=0 note=72 velocity=69 time=52', 'note_on channel=0 note=69 velocity=61 time=86', 'note_on channel=0 note=50 velocity=71 time=70', 'note_on channel=0 note=65 velocity=68 time=0', 'note_on channel=0 note=72 velocity=0 time=13', 'note_on channel=0 note=77 velocity=0 time=42')
Note: ('note_on channel=0 note=38 velocity=0 time=23', 'note_on channel=0 note=72 velocity=69 time=52', 'note_on channel=0 note=69 velocity=61 time=86', 'note_on channel=0 note=50 velocity=71 time=70', 'note_on channel=0 note=65 velocity=68 time=0', 'note_on channel=0 note=72 velocity=0 time=13', 'note_on channel=0 note=77 velocity=0 time=42', 'note_on channel=0 note=65 velocity=68 time=0')
Note: ('note_on channel=0 note=72 velocity=69 time=52', 'note_on channel=0 note=69 velocity=61 time=86', 'note_on channel=0 note=50 velocity=71 time=70', 'note_on channel=0 note=65 velocity=68 time=0', 'note_on channel=0 note=72 velocity=0 time=13', 'note_on channel=0 note=77 velocity=0 time=42', 'note_on channel=0 note=65 velocity=68 time=0', 'note_on channel=0 note=72 velocity=0 time=13')
Note: ('note_on channel=0 note=69 velocity=61 time=86', 'note_on channel=0 note=50 velocity=71 time=70', 'note_on channel=0 note=65 velocity=68 time=0', 'note_on channel=0 note=72 velocity=0 time=13', 'note_on channel=0 note=77 velocity=0 time=42', 'note_on channel=0 note=65 velocity=68 time=0', 'note_on channel=0 note=72 velocity=0 time=13', 'note_on channel=0 note=77 velocity=0 time=42')
Note: ('note_on channel=0 note=50 velocity=71 time=70', 'note_on channel=0 note=65 velocity=68 time=0', 'note_on channel=0 note=72 velocity=0 time=13', 'note_on channel=0 note=77 velocity=0 time=42', 'note_on channel=0 note=65 velocity=68 time=0', 'note_on channel=0 note=72 velocity=0 time=13', 'note_on channel=0 note=77 velocity=0 time=42', 'note_on channel=0 note=50 velocity=0 time=11')
Note: ('note_on channel=0 note=65 velocity=68 time=0', 'note_on channel=0 note=72 velocity=0 time=13', 'note_on channel=0 note=77 velocity=0 time=42', 'note_on channel=0 note=65 velocity=68 time=0', 'note_on channel=0 note=72 velocity=0 time=13', 'note_on channel=0 note=77 velocity=0 time=42', 'note_on channel=0 note=50 velocity=0 time=11', 'note_on channel=0 note=72 velocity=0 time=13')
Note: ('note_on channel=0 note=72 velocity=0 time=13', 'note_on channel=0 note=77 velocity=0 time=42', 'note_on channel=0 note=65 velocity=68 time=0', 'note_on channel=0 note=72 velocity=0 time=13', 'note_on channel=0 note=77 velocity=0 time=42', 'note_on channel=0 note=50 velocity=0 time=11', 'note_on channel=0 note=72 velocity=0 time=13', 'note_on channel=0 note=77 velocity=0 time=42')
Note: ('note_on channel=0 note=77 velocity=0 time=42', 'note_on channel=0 note=65 velocity=68 time=0', 'note_on channel=0 note=72 velocity=0 time=13', 'note_on channel=0 note=77 velocity=0 time=42', 'note_on channel=0 note=50 velocity=0 time=11', 'note_on channel=0 note=72 velocity=0 time=13', 'note_on channel=0 note=77 velocity=0 time=42', 'note_on channel=0 note=50 velocity=0 time=11')
Note: ('note_on channel=0 note=65 velocity=68 time=0', 'note_on channel=0 note=72 velocity=0 time=13', 'note_on channel=0 note=77 velocity=0 time=42', 'note_on channel=0 note=50 velocity=0 time=11', 'note_on channel=0 note=72 velocity=0 time=13', 'note_on channel=0 note=77 velocity=0 time=42', 'note_on channel=0 note=50 velocity=0 time=11', 'note_on channel=0 note=53 velocity=69 time=6')
Note: ('note_on channel=0 note=72 velocity=0 time=13', 'note_on channel=0 note=77 velocity=0 time=42', 'note_on channel=0 note=50 velocity=0 time=11', 'note_on channel=0 note=72 velocity=0 time=13', 'note_on channel=0 note=77 velocity=0 time=42', 'note_on channel=0 note=50 velocity=0 time=11', 'note_on channel=0 note=53 velocity=69 time=6', 'note_on channel=0 note=50 velocity=78 time=15')
Note: ('note_on channel=0 note=77 velocity=0 time=42', 'note_on channel=0 note=50 velocity=0 time=11', 'note_on channel=0 note=72 velocity=0 time=13', 'note_on channel=0 note=77 velocity=0 time=42', 'note_on channel=0 note=50 velocity=0 time=11', 'note_on channel=0 note=53 velocity=69 time=6', 'note_on channel=0 note=50 velocity=78 time=15', 'note_on channel=0 note=50 velocity=0 time=11')
Note: ('note_on channel=0 note=50 velocity=0 time=11', 'note_on channel=0 note=72 velocity=0 time=13', 'note_on channel=0 note=77 velocity=0 time=42', 'note_on channel=0 note=50 velocity=0 time=11', 'note_on channel=0 note=53 velocity=69 time=6', 'note_on channel=0 note=50 velocity=78 time=15', 'note_on channel=0 note=50 velocity=0 time=11', 'note_on channel=0 note=53 velocity=69 time=6')
Note: ('note_on channel=0 note=72 velocity=0 time=13', 'note_on channel=0 note=77 velocity=0 time=42', 'note_on channel=0 note=50 velocity=0 time=11', 'note_on channel=0 note=53 velocity=69 time=6', 'note_on channel=0 note=50 velocity=78 time=15', 'note_on channel=0 note=50 velocity=0 time=11', 'note_on channel=0 note=53 velocity=69 time=6', 'note_on channel=0 note=69 velocity=0 time=29')
Note: ('note_on channel=0 note=77 velocity=0 time=42', 'note_on channel=0 note=50 velocity=0 time=11', 'note_on channel=0 note=53 velocity=69 time=6', 'note_on channel=0 note=50 velocity=78 time=15', 'note_on channel=0 note=50 velocity=0 time=11', 'note_on channel=0 note=53 velocity=69 time=6', 'note_on channel=0 note=69 velocity=0 time=29', 'note_on channel=0 note=58 velocity=0 time=5')
Note: ('note_on channel=0 note=50 velocity=0 time=11', 'note_on channel=0 note=53 velocity=69 time=6', 'note_on channel=0 note=50 velocity=78 time=15', 'note_on channel=0 note=50 velocity=0 time=11', 'note_on channel=0 note=53 velocity=69 time=6', 'note_on channel=0 note=69 velocity=0 time=29', 'note_on channel=0 note=58 velocity=0 time=5', 'note_on channel=0 note=80 velocity=0 time=6')
Note: ('note_on channel=0 note=53 velocity=69 time=6', 'note_on channel=0 note=50 velocity=78 time=15', 'note_on channel=0 note=50 velocity=0 time=11', 'note_on channel=0 note=53 velocity=69 time=6', 'note_on channel=0 note=69 velocity=0 time=29', 'note_on channel=0 note=58 velocity=0 time=5', 'note_on channel=0 note=80 velocity=0 time=6', 'note_on channel=0 note=69 velocity=0 time=29')
Note: ('note_on channel=0 note=50 velocity=78 time=15', 'note_on channel=0 note=50 velocity=0 time=11', 'note_on channel=0 note=53 velocity=69 time=6', 'note_on channel=0 note=69 velocity=0 time=29', 'note_on channel=0 note=58 velocity=0 time=5', 'note_on channel=0 note=80 velocity=0 time=6', 'note_on channel=0 note=69 velocity=0 time=29', 'note_on channel=0 note=57 velocity=75 time=48')
Note: ('note_on channel=0 note=50 velocity=0 time=11', 'note_on channel=0 note=53 velocity=69 time=6', 'note_on channel=0 note=69 velocity=0 time=29', 'note_on channel=0 note=58 velocity=0 time=5', 'note_on channel=0 note=80 velocity=0 time=6', 'note_on channel=0 note=69 velocity=0 time=29', 'note_on channel=0 note=57 velocity=75 time=48', 'note_on channel=0 note=55 velocity=0 time=6')
Note: ('note_on channel=0 note=53 velocity=69 time=6', 'note_on channel=0 note=69 velocity=0 time=29', 'note_on channel=0 note=58 velocity=0 time=5', 'note_on channel=0 note=80 velocity=0 time=6', 'note_on channel=0 note=69 velocity=0 time=29', 'note_on channel=0 note=57 velocity=75 time=48', 'note_on channel=0 note=55 velocity=0 time=6', 'note_on channel=0 note=50 velocity=0 time=0')
Note: ('note_on channel=0 note=69 velocity=0 time=29', 'note_on channel=0 note=58 velocity=0 time=5', 'note_on channel=0 note=80 velocity=0 time=6', 'note_on channel=0 note=69 velocity=0 time=29', 'note_on channel=0 note=57 velocity=75 time=48', 'note_on channel=0 note=55 velocity=0 time=6', 'note_on channel=0 note=50 velocity=0 time=0', 'note_on channel=0 note=57 velocity=75 time=48')
Note: ('note_on channel=0 note=58 velocity=0 time=5', 'note_on channel=0 note=80 velocity=0 time=6', 'note_on channel=0 note=69 velocity=0 time=29', 'note_on channel=0 note=57 velocity=75 time=48', 'note_on channel=0 note=55 velocity=0 time=6', 'note_on channel=0 note=50 velocity=0 time=0', 'note_on channel=0 note=57 velocity=75 time=48', 'note_on channel=0 note=53 velocity=0 time=11')
Note: ('note_on channel=0 note=80 velocity=0 time=6', 'note_on channel=0 note=69 velocity=0 time=29', 'note_on channel=0 note=57 velocity=75 time=48', 'note_on channel=0 note=55 velocity=0 time=6', 'note_on channel=0 note=50 velocity=0 time=0', 'note_on channel=0 note=57 velocity=75 time=48', 'note_on channel=0 note=53 velocity=0 time=11', 'note_on channel=0 note=50 velocity=0 time=2')
Note: ('note_on channel=0 note=69 velocity=0 time=29', 'note_on channel=0 note=57 velocity=75 time=48', 'note_on channel=0 note=55 velocity=0 time=6', 'note_on channel=0 note=50 velocity=0 time=0', 'note_on channel=0 note=57 velocity=75 time=48', 'note_on channel=0 note=53 velocity=0 time=11', 'note_on channel=0 note=50 velocity=0 time=2', 'note_on channel=0 note=56 velocity=0 time=9')
Note: ('note_on channel=0 note=57 velocity=75 time=48', 'note_on channel=0 note=55 velocity=0 time=6', 'note_on channel=0 note=50 velocity=0 time=0', 'note_on channel=0 note=57 velocity=75 time=48', 'note_on channel=0 note=53 velocity=0 time=11', 'note_on channel=0 note=50 velocity=0 time=2', 'note_on channel=0 note=56 velocity=0 time=9', 'note_on channel=0 note=53 velocity=0 time=11')
Note: ('note_on channel=0 note=55 velocity=0 time=6', 'note_on channel=0 note=50 velocity=0 time=0', 'note_on channel=0 note=57 velocity=75 time=48', 'note_on channel=0 note=53 velocity=0 time=11', 'note_on channel=0 note=50 velocity=0 time=2', 'note_on channel=0 note=56 velocity=0 time=9', 'note_on channel=0 note=53 velocity=0 time=11', 'note_on channel=0 note=65 velocity=0 time=11')
Note: ('note_on channel=0 note=50 velocity=0 time=0', 'note_on channel=0 note=57 velocity=75 time=48', 'note_on channel=0 note=53 velocity=0 time=11', 'note_on channel=0 note=50 velocity=0 time=2', 'note_on channel=0 note=56 velocity=0 time=9', 'note_on channel=0 note=53 velocity=0 time=11', 'note_on channel=0 note=65 velocity=0 time=11', 'note_on channel=0 note=62 velocity=0 time=12')
Note: ('note_on channel=0 note=57 velocity=75 time=48', 'note_on channel=0 note=53 velocity=0 time=11', 'note_on channel=0 note=50 velocity=0 time=2', 'note_on channel=0 note=56 velocity=0 time=9', 'note_on channel=0 note=53 velocity=0 time=11', 'note_on channel=0 note=65 velocity=0 time=11', 'note_on channel=0 note=62 velocity=0 time=12', 'note_on channel=0 note=76 velocity=0 time=26')
Note: ('note_on channel=0 note=53 velocity=0 time=11', 'note_on channel=0 note=50 velocity=0 time=2', 'note_on channel=0 note=56 velocity=0 time=9', 'note_on channel=0 note=53 velocity=0 time=11', 'note_on channel=0 note=65 velocity=0 time=11', 'note_on channel=0 note=62 velocity=0 time=12', 'note_on channel=0 note=76 velocity=0 time=26', 'note_on channel=0 note=65 velocity=0 time=11')
Note: ('note_on channel=0 note=50 velocity=0 time=2', 'note_on channel=0 note=56 velocity=0 time=9', 'note_on channel=0 note=53 velocity=0 time=11', 'note_on channel=0 note=65 velocity=0 time=11', 'note_on channel=0 note=62 velocity=0 time=12', 'note_on channel=0 note=76 velocity=0 time=26', 'note_on channel=0 note=65 velocity=0 time=11', 'note_on channel=0 note=57 velocity=0 time=3')
Note: ('note_on channel=0 note=56 velocity=0 time=9', 'note_on channel=0 note=53 velocity=0 time=11', 'note_on channel=0 note=65 velocity=0 time=11', 'note_on channel=0 note=62 velocity=0 time=12', 'note_on channel=0 note=76 velocity=0 time=26', 'note_on channel=0 note=65 velocity=0 time=11', 'note_on channel=0 note=57 velocity=0 time=3', 'note_on channel=0 note=29 velocity=0 time=11')
Note: ('note_on channel=0 note=53 velocity=0 time=11', 'note_on channel=0 note=65 velocity=0 time=11', 'note_on channel=0 note=62 velocity=0 time=12', 'note_on channel=0 note=76 velocity=0 time=26', 'note_on channel=0 note=65 velocity=0 time=11', 'note_on channel=0 note=57 velocity=0 time=3', 'note_on channel=0 note=29 velocity=0 time=11', 'note_on channel=0 note=80 velocity=0 time=46')
Note: ('note_on channel=0 note=65 velocity=0 time=11', 'note_on channel=0 note=62 velocity=0 time=12', 'note_on channel=0 note=76 velocity=0 time=26', 'note_on channel=0 note=65 velocity=0 time=11', 'note_on channel=0 note=57 velocity=0 time=3', 'note_on channel=0 note=29 velocity=0 time=11', 'note_on channel=0 note=80 velocity=0 time=46', 'note_on channel=0 note=61 velocity=0 time=5')
Note: ('note_on channel=0 note=62 velocity=0 time=12', 'note_on channel=0 note=76 velocity=0 time=26', 'note_on channel=0 note=65 velocity=0 time=11', 'note_on channel=0 note=57 velocity=0 time=3', 'note_on channel=0 note=29 velocity=0 time=11', 'note_on channel=0 note=80 velocity=0 time=46', 'note_on channel=0 note=61 velocity=0 time=5', 'note_on channel=0 note=60 velocity=77 time=37')
Note: ('note_on channel=0 note=76 velocity=0 time=26', 'note_on channel=0 note=65 velocity=0 time=11', 'note_on channel=0 note=57 velocity=0 time=3', 'note_on channel=0 note=29 velocity=0 time=11', 'note_on channel=0 note=80 velocity=0 time=46', 'note_on channel=0 note=61 velocity=0 time=5', 'note_on channel=0 note=60 velocity=77 time=37', 'note_on channel=0 note=41 velocity=0 time=2')
Note: ('note_on channel=0 note=65 velocity=0 time=11', 'note_on channel=0 note=57 velocity=0 time=3', 'note_on channel=0 note=29 velocity=0 time=11', 'note_on channel=0 note=80 velocity=0 time=46', 'note_on channel=0 note=61 velocity=0 time=5', 'note_on channel=0 note=60 velocity=77 time=37', 'note_on channel=0 note=41 velocity=0 time=2', 'note_on channel=0 note=68 velocity=0 time=5')
Note: ('note_on channel=0 note=57 velocity=0 time=3', 'note_on channel=0 note=29 velocity=0 time=11', 'note_on channel=0 note=80 velocity=0 time=46', 'note_on channel=0 note=61 velocity=0 time=5', 'note_on channel=0 note=60 velocity=77 time=37', 'note_on channel=0 note=41 velocity=0 time=2', 'note_on channel=0 note=68 velocity=0 time=5', 'note_on channel=0 note=57 velocity=0 time=1')
Note: ('note_on channel=0 note=29 velocity=0 time=11', 'note_on channel=0 note=80 velocity=0 time=46', 'note_on channel=0 note=61 velocity=0 time=5', 'note_on channel=0 note=60 velocity=77 time=37', 'note_on channel=0 note=41 velocity=0 time=2', 'note_on channel=0 note=68 velocity=0 time=5', 'note_on channel=0 note=57 velocity=0 time=1', 'note_on channel=0 note=71 velocity=73 time=25')
Note: ('note_on channel=0 note=80 velocity=0 time=46', 'note_on channel=0 note=61 velocity=0 time=5', 'note_on channel=0 note=60 velocity=77 time=37', 'note_on channel=0 note=41 velocity=0 time=2', 'note_on channel=0 note=68 velocity=0 time=5', 'note_on channel=0 note=57 velocity=0 time=1', 'note_on channel=0 note=71 velocity=73 time=25', 'note_on channel=0 note=57 velocity=0 time=157')
Note: ('note_on channel=0 note=61 velocity=0 time=5', 'note_on channel=0 note=60 velocity=77 time=37', 'note_on channel=0 note=41 velocity=0 time=2', 'note_on channel=0 note=68 velocity=0 time=5', 'note_on channel=0 note=57 velocity=0 time=1', 'note_on channel=0 note=71 velocity=73 time=25', 'note_on channel=0 note=57 velocity=0 time=157', 'note_on channel=0 note=65 velocity=0 time=2')
Note: ('note_on channel=0 note=60 velocity=77 time=37', 'note_on channel=0 note=41 velocity=0 time=2', 'note_on channel=0 note=68 velocity=0 time=5', 'note_on channel=0 note=57 velocity=0 time=1', 'note_on channel=0 note=71 velocity=73 time=25', 'note_on channel=0 note=57 velocity=0 time=157', 'note_on channel=0 note=65 velocity=0 time=2', 'note_on channel=0 note=47 velocity=39 time=161')
Note: ('note_on channel=0 note=41 velocity=0 time=2', 'note_on channel=0 note=68 velocity=0 time=5', 'note_on channel=0 note=57 velocity=0 time=1', 'note_on channel=0 note=71 velocity=73 time=25', 'note_on channel=0 note=57 velocity=0 time=157', 'note_on channel=0 note=65 velocity=0 time=2', 'note_on channel=0 note=47 velocity=39 time=161', 'note_on channel=0 note=60 velocity=0 time=38')
Note: ('note_on channel=0 note=68 velocity=0 time=5', 'note_on channel=0 note=57 velocity=0 time=1', 'note_on channel=0 note=71 velocity=73 time=25', 'note_on channel=0 note=57 velocity=0 time=157', 'note_on channel=0 note=65 velocity=0 time=2', 'note_on channel=0 note=47 velocity=39 time=161', 'note_on channel=0 note=60 velocity=0 time=38', 'note_on channel=0 note=63 velocity=0 time=5')
Note: ('note_on channel=0 note=57 velocity=0 time=1', 'note_on channel=0 note=71 velocity=73 time=25', 'note_on channel=0 note=57 velocity=0 time=157', 'note_on channel=0 note=65 velocity=0 time=2', 'note_on channel=0 note=47 velocity=39 time=161', 'note_on channel=0 note=60 velocity=0 time=38', 'note_on channel=0 note=63 velocity=0 time=5', 'note_on channel=0 note=77 velocity=0 time=13')
Note: ('note_on channel=0 note=71 velocity=73 time=25', 'note_on channel=0 note=57 velocity=0 time=157', 'note_on channel=0 note=65 velocity=0 time=2', 'note_on channel=0 note=47 velocity=39 time=161', 'note_on channel=0 note=60 velocity=0 time=38', 'note_on channel=0 note=63 velocity=0 time=5', 'note_on channel=0 note=77 velocity=0 time=13', 'note_on channel=0 note=59 velocity=42 time=0')
Note: ('note_on channel=0 note=57 velocity=0 time=157', 'note_on channel=0 note=65 velocity=0 time=2', 'note_on channel=0 note=47 velocity=39 time=161', 'note_on channel=0 note=60 velocity=0 time=38', 'note_on channel=0 note=63 velocity=0 time=5', 'note_on channel=0 note=77 velocity=0 time=13', 'note_on channel=0 note=59 velocity=42 time=0', 'note_on channel=0 note=59 velocity=87 time=4')
Note: ('note_on channel=0 note=65 velocity=0 time=2', 'note_on channel=0 note=47 velocity=39 time=161', 'note_on channel=0 note=60 velocity=0 time=38', 'note_on channel=0 note=63 velocity=0 time=5', 'note_on channel=0 note=77 velocity=0 time=13', 'note_on channel=0 note=59 velocity=42 time=0', 'note_on channel=0 note=59 velocity=87 time=4', 'note_on channel=0 note=74 velocity=71 time=1')
Note: ('note_on channel=0 note=47 velocity=39 time=161', 'note_on channel=0 note=60 velocity=0 time=38', 'note_on channel=0 note=63 velocity=0 time=5', 'note_on channel=0 note=77 velocity=0 time=13', 'note_on channel=0 note=59 velocity=42 time=0', 'note_on channel=0 note=59 velocity=87 time=4', 'note_on channel=0 note=74 velocity=71 time=1', 'note_on channel=0 note=71 velocity=0 time=1')
Note: ('note_on channel=0 note=60 velocity=0 time=38', 'note_on channel=0 note=63 velocity=0 time=5', 'note_on channel=0 note=77 velocity=0 time=13', 'note_on channel=0 note=59 velocity=42 time=0', 'note_on channel=0 note=59 velocity=87 time=4', 'note_on channel=0 note=74 velocity=71 time=1', 'note_on channel=0 note=71 velocity=0 time=1', 'note_on channel=0 note=64 velocity=28 time=9')
Note: ('note_on channel=0 note=63 velocity=0 time=5', 'note_on channel=0 note=77 velocity=0 time=13', 'note_on channel=0 note=59 velocity=42 time=0', 'note_on channel=0 note=59 velocity=87 time=4', 'note_on channel=0 note=74 velocity=71 time=1', 'note_on channel=0 note=71 velocity=0 time=1', 'note_on channel=0 note=64 velocity=28 time=9', 'note_on channel=0 note=76 velocity=88 time=44')
Note: ('note_on channel=0 note=77 velocity=0 time=13', 'note_on channel=0 note=59 velocity=42 time=0', 'note_on channel=0 note=59 velocity=87 time=4', 'note_on channel=0 note=74 velocity=71 time=1', 'note_on channel=0 note=71 velocity=0 time=1', 'note_on channel=0 note=64 velocity=28 time=9', 'note_on channel=0 note=76 velocity=88 time=44', 'note_on channel=0 note=50 velocity=49 time=1')
Note: ('note_on channel=0 note=59 velocity=42 time=0', 'note_on channel=0 note=59 velocity=87 time=4', 'note_on channel=0 note=74 velocity=71 time=1', 'note_on channel=0 note=71 velocity=0 time=1', 'note_on channel=0 note=64 velocity=28 time=9', 'note_on channel=0 note=76 velocity=88 time=44', 'note_on channel=0 note=50 velocity=49 time=1', 'note_on channel=0 note=79 velocity=99 time=4')
Note: ('note_on channel=0 note=59 velocity=87 time=4', 'note_on channel=0 note=74 velocity=71 time=1', 'note_on channel=0 note=71 velocity=0 time=1', 'note_on channel=0 note=64 velocity=28 time=9', 'note_on channel=0 note=76 velocity=88 time=44', 'note_on channel=0 note=50 velocity=49 time=1', 'note_on channel=0 note=79 velocity=99 time=4', 'note_on channel=0 note=59 velocity=0 time=34')
Note: ('note_on channel=0 note=74 velocity=71 time=1', 'note_on channel=0 note=71 velocity=0 time=1', 'note_on channel=0 note=64 velocity=28 time=9', 'note_on channel=0 note=76 velocity=88 time=44', 'note_on channel=0 note=50 velocity=49 time=1', 'note_on channel=0 note=79 velocity=99 time=4', 'note_on channel=0 note=59 velocity=0 time=34', 'note_on channel=0 note=71 velocity=0 time=9')
Note: ('note_on channel=0 note=71 velocity=0 time=1', 'note_on channel=0 note=64 velocity=28 time=9', 'note_on channel=0 note=76 velocity=88 time=44', 'note_on channel=0 note=50 velocity=49 time=1', 'note_on channel=0 note=79 velocity=99 time=4', 'note_on channel=0 note=59 velocity=0 time=34', 'note_on channel=0 note=71 velocity=0 time=9', 'note_on channel=0 note=47 velocity=45 time=3')
Note: ('note_on channel=0 note=64 velocity=28 time=9', 'note_on channel=0 note=76 velocity=88 time=44', 'note_on channel=0 note=50 velocity=49 time=1', 'note_on channel=0 note=79 velocity=99 time=4', 'note_on channel=0 note=59 velocity=0 time=34', 'note_on channel=0 note=71 velocity=0 time=9', 'note_on channel=0 note=47 velocity=45 time=3', 'note_on channel=0 note=67 velocity=84 time=8')
Note: ('note_on channel=0 note=47 velocity=45 time=3', 'note_on channel=0 note=67 velocity=84 time=8', 'note_on channel=0 note=64 velocity=0 time=23')
Note: ('note_on channel=0 note=67 velocity=84 time=8', 'note_on channel=0 note=64 velocity=0 time=23', 'note_on channel=0 note=71 velocity=0 time=106')
Note: ('note_on channel=0 note=64 velocity=0 time=23', 'note_on channel=0 note=71 velocity=0 time=106', 'note_on channel=0 note=64 velocity=29 time=404')
Note: ('note_on channel=0 note=71 velocity=0 time=106', 'note_on channel=0 note=64 velocity=29 time=404', 'note_on channel=0 note=56 velocity=32 time=2')
Note: ('note_on channel=0 note=64 velocity=29 time=404', 'note_on channel=0 note=56 velocity=32 time=2', 'note_on channel=0 note=76 velocity=48 time=116')
Note: ('note_on channel=0 note=56 velocity=32 time=2', 'note_on channel=0 note=76 velocity=48 time=116', 'note_on channel=0 note=56 velocity=0 time=30')
Note: ('note_on channel=0 note=76 velocity=48 time=116', 'note_on channel=0 note=56 velocity=0 time=30', 'note_on channel=0 note=75 velocity=0 time=78')
Note: ('note_on channel=0 note=56 velocity=0 time=30', 'note_on channel=0 note=75 velocity=0 time=78', 'note_on channel=0 note=64 velocity=0 time=46')
Note: ('note_on channel=0 note=75 velocity=0 time=78', 'note_on channel=0 note=64 velocity=0 time=46', 'note_on channel=0 note=73 velocity=61 time=86')
Note: ('note_on channel=0 note=64 velocity=0 time=46', 'note_on channel=0 note=73 velocity=61 time=86', 'note_on channel=0 note=68 velocity=58 time=243')
Note: ('note_on channel=0 note=73 velocity=61 time=86', 'note_on channel=0 note=68 velocity=58 time=243', 'note_on channel=0 note=57 velocity=34 time=35')
Note: ('note_on channel=0 note=68 velocity=58 time=243', 'note_on channel=0 note=57 velocity=34 time=35', 'note_on channel=0 note=54 velocity=33 time=4')
Note: ('note_on channel=0 note=57 velocity=34 time=35', 'note_on channel=0 note=54 velocity=33 time=4', 'note_on channel=0 note=73 velocity=0 time=0')
Note: ('note_on channel=0 note=54 velocity=33 time=4', 'note_on channel=0 note=73 velocity=0 time=0', 'note_on channel=0 note=76 velocity=0 time=0')
Note: ('note_on channel=0 note=73 velocity=0 time=0', 'note_on channel=0 note=76 velocity=0 time=0', 'note_on channel=0 note=69 velocity=57 time=1')
Note: ('note_on channel=0 note=76 velocity=0 time=0', 'note_on channel=0 note=69 velocity=57 time=1', 'note_on channel=0 note=68 velocity=0 time=32')
Note: ('note_on channel=0 note=69 velocity=57 time=1', 'note_on channel=0 note=68 velocity=0 time=32', 'note_on channel=0 note=54 velocity=0 time=44')
Note: ('note_on channel=0 note=68 velocity=0 time=32', 'note_on channel=0 note=54 velocity=0 time=44', 'note_on channel=0 note=75 velocity=67 time=7')
Note: ('note_on channel=0 note=54 velocity=0 time=44', 'note_on channel=0 note=75 velocity=67 time=7', 'note_on channel=0 note=57 velocity=0 time=21')
Note: ('note_on channel=0 note=75 velocity=67 time=7', 'note_on channel=0 note=57 velocity=0 time=21', 'note_on channel=0 note=69 velocity=0 time=177')
Note: ('note_on channel=0 note=57 velocity=0 time=21', 'note_on channel=0 note=69 velocity=0 time=177', 'note_on channel=0 note=57 velocity=35 time=354')
Note: ('note_on channel=0 note=69 velocity=0 time=177', 'note_on channel=0 note=57 velocity=35 time=354', 'note_on channel=0 note=54 velocity=37 time=17')
Note: ('note_on channel=0 note=57 velocity=35 time=354', 'note_on channel=0 note=54 velocity=37 time=17', 'note_on channel=0 note=54 velocity=0 time=135')
Note: ('note_on channel=0 note=54 velocity=37 time=17', 'note_on channel=0 note=54 velocity=0 time=135', 'note_on channel=0 note=57 velocity=0 time=47')
Note: ('note_on channel=0 note=54 velocity=0 time=135', 'note_on channel=0 note=57 velocity=0 time=47', 'note_on channel=0 note=76 velocity=57 time=7')
Note: ('note_on channel=0 note=57 velocity=0 time=47', 'note_on channel=0 note=76 velocity=57 time=7', 'note_on channel=0 note=75 velocity=0 time=72')
Note: ('note_on channel=0 note=76 velocity=57 time=7', 'note_on channel=0 note=75 velocity=0 time=72', 'note_on channel=0 note=73 velocity=64 time=209')
Note: ('note_on channel=0 note=75 velocity=0 time=72', 'note_on channel=0 note=73 velocity=64 time=209', 'note_on channel=0 note=76 velocity=0 time=141')
Note: ('note_on channel=0 note=73 velocity=64 time=209', 'note_on channel=0 note=76 velocity=0 time=141', 'note_on channel=0 note=57 velocity=36 time=122')
Note: ('note_on channel=0 note=76 velocity=0 time=141', 'note_on channel=0 note=57 velocity=36 time=122', 'note_on channel=0 note=52 velocity=32 time=22')
Note: ('note_on channel=0 note=57 velocity=36 time=122', 'note_on channel=0 note=52 velocity=32 time=22', 'note_on channel=0 note=69 velocity=49 time=61')
Note: ('note_on channel=0 note=52 velocity=32 time=22', 'note_on channel=0 note=69 velocity=49 time=61', 'note_on channel=0 note=73 velocity=0 time=49')
Note: ('note_on channel=0 note=69 velocity=49 time=61', 'note_on channel=0 note=73 velocity=0 time=49', 'note_on channel=0 note=73 velocity=52 time=9')
Note: ('note_on channel=0 note=73 velocity=0 time=49', 'note_on channel=0 note=73 velocity=52 time=9', 'note_on channel=0 note=57 velocity=0 time=67')
Note: ('note_on channel=0 note=73 velocity=52 time=9', 'note_on channel=0 note=57 velocity=0 time=67', 'note_on channel=0 note=52 velocity=0 time=3')
Note: ('note_on channel=0 note=57 velocity=0 time=67', 'note_on channel=0 note=52 velocity=0 time=3', 'note_on channel=0 note=69 velocity=0 time=55')
Note: ('note_on channel=0 note=52 velocity=0 time=3', 'note_on channel=0 note=69 velocity=0 time=55', 'note_on channel=0 note=57 velocity=31 time=3')
Note: ('note_on channel=0 note=69 velocity=0 time=55', 'note_on channel=0 note=57 velocity=31 time=3', 'note_on channel=0 note=52 velocity=34 time=7')
Note: ('note_on channel=0 note=57 velocity=31 time=3', 'note_on channel=0 note=52 velocity=34 time=7', 'note_on channel=0 note=73 velocity=0 time=9')
Note: ('note_on channel=0 note=52 velocity=34 time=7', 'note_on channel=0 note=73 velocity=0 time=9', 'note_on channel=0 note=52 velocity=0 time=181')
Note: ('note_on channel=0 note=73 velocity=0 time=9', 'note_on channel=0 note=52 velocity=0 time=181', 'note_on channel=0 note=57 velocity=0 time=74')
Note: ('note_on channel=0 note=52 velocity=0 time=181', 'note_on channel=0 note=57 velocity=0 time=74', 'note_on channel=0 note=81 velocity=51 time=46')
Note: ('note_on channel=0 note=57 velocity=0 time=74', 'note_on channel=0 note=81 velocity=51 time=46', 'note_on channel=0 note=73 velocity=60 time=256')
Note: ('note_on channel=0 note=81 velocity=51 time=46', 'note_on channel=0 note=73 velocity=60 time=256', 'note_on channel=0 note=81 velocity=0 time=73')
Note: ('note_on channel=0 note=73 velocity=60 time=256', 'note_on channel=0 note=81 velocity=0 time=73', 'note_on channel=0 note=76 velocity=59 time=168')
Note: ('note_on channel=0 note=81 velocity=0 time=73', 'note_on channel=0 note=76 velocity=59 time=168', 'note_on channel=0 note=59 velocity=34 time=68')
Note: ('note_on channel=0 note=76 velocity=59 time=168', 'note_on channel=0 note=59 velocity=34 time=68', 'note_on channel=0 note=73 velocity=0 time=0')
Note: ('note_on channel=0 note=59 velocity=34 time=68', 'note_on channel=0 note=73 velocity=0 time=0', 'note_on channel=0 note=57 velocity=28 time=4')
Note: ('note_on channel=0 note=73 velocity=0 time=0', 'note_on channel=0 note=57 velocity=28 time=4', 'note_on channel=0 note=51 velocity=33 time=7')
Note: ('note_on channel=0 note=57 velocity=28 time=4', 'note_on channel=0 note=51 velocity=33 time=7', 'note_on channel=0 note=75 velocity=68 time=11')
Note: ('note_on channel=0 note=51 velocity=33 time=7', 'note_on channel=0 note=75 velocity=68 time=11', 'note_on channel=0 note=76 velocity=0 time=31')
Note: ('note_on channel=0 note=75 velocity=68 time=11', 'note_on channel=0 note=76 velocity=0 time=31', 'note_on channel=0 note=59 velocity=0 time=15')
Note: ('note_on channel=0 note=76 velocity=0 time=31', 'note_on channel=0 note=59 velocity=0 time=15', 'note_on channel=0 note=78 velocity=69 time=20')
Note: ('note_on channel=0 note=59 velocity=0 time=15', 'note_on channel=0 note=78 velocity=69 time=20', 'note_on channel=0 note=51 velocity=0 time=23')
Note: ('note_on channel=0 note=78 velocity=69 time=20', 'note_on channel=0 note=51 velocity=0 time=23', 'note_on channel=0 note=57 velocity=0 time=20')
Note: ('note_on channel=0 note=51 velocity=0 time=23', 'note_on channel=0 note=57 velocity=0 time=20', 'note_on channel=0 note=75 velocity=0 time=18')
Note: ('note_on channel=0 note=57 velocity=0 time=20', 'note_on channel=0 note=75 velocity=0 time=18', 'note_on channel=0 note=76 velocity=66 time=180')
Note: ('note_on channel=0 note=75 velocity=0 time=18', 'note_on channel=0 note=76 velocity=66 time=180', 'note_on channel=0 note=78 velocity=0 time=15')
Note: ('note_on channel=0 note=76 velocity=66 time=180', 'note_on channel=0 note=78 velocity=0 time=15', 'note_on channel=0 note=75 velocity=66 time=252')
Note: ('note_on channel=0 note=78 velocity=0 time=15', 'note_on channel=0 note=75 velocity=66 time=252', 'note_on channel=0 note=59 velocity=33 time=42')
Note: ('note_on channel=0 note=75 velocity=66 time=252', 'note_on channel=0 note=59 velocity=33 time=42', 'note_on channel=0 note=57 velocity=29 time=3')
Note: ('note_on channel=0 note=59 velocity=33 time=42', 'note_on channel=0 note=57 velocity=29 time=3', 'note_on channel=0 note=51 velocity=35 time=6')
Note: ('note_on channel=0 note=57 velocity=29 time=3', 'note_on channel=0 note=51 velocity=35 time=6', 'note_on channel=0 note=76 velocity=0 time=19')
Note: ('note_on channel=0 note=51 velocity=35 time=6', 'note_on channel=0 note=76 velocity=0 time=19', 'note_on channel=0 note=73 velocity=61 time=3')
Note: ('note_on channel=0 note=74 velocity=92 time=786', 'note_on channel=0 note=74 velocity=0 time=48', 'note_on channel=0 note=81 velocity=93 time=353', 'note_on channel=0 note=57 velocity=79 time=373', 'note_on channel=0 note=57 velocity=0 time=49')
Note: ('note_on channel=0 note=74 velocity=0 time=48', 'note_on channel=0 note=81 velocity=93 time=353', 'note_on channel=0 note=57 velocity=79 time=373', 'note_on channel=0 note=57 velocity=0 time=49', 'note_on channel=0 note=62 velocity=86 time=337')
Note: ('note_on channel=0 note=81 velocity=93 time=353', 'note_on channel=0 note=57 velocity=79 time=373', 'note_on channel=0 note=57 velocity=0 time=49', 'note_on channel=0 note=62 velocity=86 time=337', 'note_on channel=0 note=62 velocity=0 time=12')
Note: ('note_on channel=0 note=57 velocity=79 time=373', 'note_on channel=0 note=57 velocity=0 time=49', 'note_on channel=0 note=62 velocity=86 time=337', 'note_on channel=0 note=62 velocity=0 time=12', 'note_on channel=0 note=81 velocity=0 time=0')
Note: ('note_on channel=0 note=57 velocity=0 time=49', 'note_on channel=0 note=62 velocity=86 time=337', 'note_on channel=0 note=62 velocity=0 time=12', 'note_on channel=0 note=81 velocity=0 time=0', 'note_on channel=0 note=78 velocity=97 time=304')
Note: ('note_on channel=0 note=62 velocity=86 time=337', 'note_on channel=0 note=62 velocity=0 time=12', 'note_on channel=0 note=81 velocity=0 time=0', 'note_on channel=0 note=78 velocity=97 time=304', 'note_on channel=0 note=74 velocity=82 time=7')
Note: ('note_on channel=0 note=62 velocity=0 time=12', 'note_on channel=0 note=81 velocity=0 time=0', 'note_on channel=0 note=78 velocity=97 time=304', 'note_on channel=0 note=74 velocity=82 time=7', 'note_on channel=0 note=74 velocity=0 time=319')
Note: ('note_on channel=0 note=81 velocity=0 time=0', 'note_on channel=0 note=78 velocity=97 time=304', 'note_on channel=0 note=74 velocity=82 time=7', 'note_on channel=0 note=74 velocity=0 time=319', 'note_on channel=0 note=73 velocity=73 time=36')
Note: ('note_on channel=0 note=78 velocity=97 time=304', 'note_on channel=0 note=74 velocity=82 time=7', 'note_on channel=0 note=74 velocity=0 time=319', 'note_on channel=0 note=73 velocity=73 time=36', 'note_on channel=0 note=76 velocity=79 time=7')
Note: ('note_on channel=0 note=74 velocity=82 time=7', 'note_on channel=0 note=74 velocity=0 time=319', 'note_on channel=0 note=73 velocity=73 time=36', 'note_on channel=0 note=76 velocity=79 time=7', 'note_on channel=0 note=78 velocity=0 time=2')
Note: ('note_on channel=0 note=74 velocity=0 time=319', 'note_on channel=0 note=73 velocity=73 time=36', 'note_on channel=0 note=76 velocity=79 time=7', 'note_on channel=0 note=78 velocity=0 time=2', 'note_on channel=0 note=73 velocity=0 time=25')
Note: ('note_on channel=0 note=73 velocity=73 time=36', 'note_on channel=0 note=76 velocity=79 time=7', 'note_on channel=0 note=78 velocity=0 time=2', 'note_on channel=0 note=73 velocity=0 time=25', 'note_on channel=0 note=76 velocity=0 time=11')
Note: ('note_on channel=0 note=76 velocity=79 time=7', 'note_on channel=0 note=78 velocity=0 time=2', 'note_on channel=0 note=73 velocity=0 time=25', 'note_on channel=0 note=76 velocity=0 time=11', 'note_on channel=0 note=71 velocity=78 time=65')
Note: ('note_on channel=0 note=78 velocity=0 time=2', 'note_on channel=0 note=73 velocity=0 time=25', 'note_on channel=0 note=76 velocity=0 time=11', 'note_on channel=0 note=71 velocity=78 time=65', 'note_on channel=0 note=74 velocity=72 time=4')
Note: ('note_on channel=0 note=73 velocity=0 time=25', 'note_on channel=0 note=76 velocity=0 time=11', 'note_on channel=0 note=71 velocity=78 time=65', 'note_on channel=0 note=74 velocity=72 time=4', 'note_on channel=0 note=71 velocity=0 time=26')
Note: ('note_on channel=0 note=76 velocity=0 time=11', 'note_on channel=0 note=71 velocity=78 time=65', 'note_on channel=0 note=74 velocity=72 time=4', 'note_on channel=0 note=71 velocity=0 time=26', 'note_on channel=0 note=74 velocity=0 time=11')
Note: ('note_on channel=0 note=71 velocity=78 time=65', 'note_on channel=0 note=74 velocity=72 time=4', 'note_on channel=0 note=71 velocity=0 time=26', 'note_on channel=0 note=74 velocity=0 time=11', 'note_on channel=0 note=73 velocity=79 time=54')
Note: ('note_on channel=0 note=74 velocity=72 time=4', 'note_on channel=0 note=71 velocity=0 time=26', 'note_on channel=0 note=74 velocity=0 time=11', 'note_on channel=0 note=73 velocity=79 time=54', 'note_on channel=0 note=69 velocity=76 time=9')
Note: ('note_on channel=0 note=71 velocity=0 time=26', 'note_on channel=0 note=74 velocity=0 time=11', 'note_on channel=0 note=73 velocity=79 time=54', 'note_on channel=0 note=69 velocity=76 time=9', 'note_on channel=0 note=69 velocity=0 time=24')
Note: ('note_on channel=0 note=74 velocity=0 time=11', 'note_on channel=0 note=73 velocity=79 time=54', 'note_on channel=0 note=69 velocity=76 time=9', 'note_on channel=0 note=69 velocity=0 time=24', 'note_on channel=0 note=73 velocity=0 time=22')
Note: ('note_on channel=0 note=73 velocity=79 time=54', 'note_on channel=0 note=69 velocity=76 time=9', 'note_on channel=0 note=69 velocity=0 time=24', 'note_on channel=0 note=73 velocity=0 time=22', 'note_on channel=0 note=71 velocity=83 time=54')
Note: ('note_on channel=0 note=69 velocity=76 time=9', 'note_on channel=0 note=69 velocity=0 time=24', 'note_on channel=0 note=73 velocity=0 time=22', 'note_on channel=0 note=71 velocity=83 time=54', 'note_on channel=0 note=67 velocity=78 time=1')
Note: ('note_on channel=0 note=69 velocity=0 time=24', 'note_on channel=0 note=73 velocity=0 time=22', 'note_on channel=0 note=71 velocity=83 time=54', 'note_on channel=0 note=67 velocity=78 time=1', 'note_on channel=0 note=67 velocity=0 time=29')
Note: ('note_on channel=0 note=73 velocity=0 time=22', 'note_on channel=0 note=71 velocity=83 time=54', 'note_on channel=0 note=67 velocity=78 time=1', 'note_on channel=0 note=67 velocity=0 time=29', 'note_on channel=0 note=71 velocity=0 time=14')
Note: ('note_on channel=0 note=71 velocity=83 time=54', 'note_on channel=0 note=67 velocity=78 time=1', 'note_on channel=0 note=67 velocity=0 time=29', 'note_on channel=0 note=71 velocity=0 time=14', 'note_on channel=0 note=69 velocity=77 time=60')
Note: ('note_on channel=0 note=67 velocity=78 time=1', 'note_on channel=0 note=67 velocity=0 time=29', 'note_on channel=0 note=71 velocity=0 time=14', 'note_on channel=0 note=69 velocity=77 time=60', 'note_on channel=0 note=66 velocity=76 time=1')
Note: ('note_on channel=0 note=67 velocity=0 time=29', 'note_on channel=0 note=71 velocity=0 time=14', 'note_on channel=0 note=69 velocity=77 time=60', 'note_on channel=0 note=66 velocity=76 time=1', 'note_on channel=0 note=66 velocity=0 time=27')
Note: ('note_on channel=0 note=71 velocity=0 time=14', 'note_on channel=0 note=69 velocity=77 time=60', 'note_on channel=0 note=66 velocity=76 time=1', 'note_on channel=0 note=66 velocity=0 time=27', 'note_on channel=0 note=69 velocity=0 time=11')
Note: ('note_on channel=0 note=69 velocity=77 time=60', 'note_on channel=0 note=66 velocity=76 time=1', 'note_on channel=0 note=66 velocity=0 time=27', 'note_on channel=0 note=69 velocity=0 time=11', 'note_on channel=0 note=64 velocity=73 time=63')
Note: ('note_on channel=0 note=66 velocity=76 time=1', 'note_on channel=0 note=66 velocity=0 time=27', 'note_on channel=0 note=69 velocity=0 time=11', 'note_on channel=0 note=64 velocity=73 time=63', 'note_on channel=0 note=67 velocity=72 time=0')
Note: ('note_on channel=0 note=66 velocity=0 time=27', 'note_on channel=0 note=69 velocity=0 time=11', 'note_on channel=0 note=64 velocity=73 time=63', 'note_on channel=0 note=67 velocity=72 time=0', 'note_on channel=0 note=64 velocity=0 time=37')
Note: ('note_on channel=0 note=69 velocity=0 time=11', 'note_on channel=0 note=64 velocity=73 time=63', 'note_on channel=0 note=67 velocity=72 time=0', 'note_on channel=0 note=64 velocity=0 time=37', 'note_on channel=0 note=67 velocity=0 time=22')
Note: ('note_on channel=0 note=64 velocity=73 time=63', 'note_on channel=0 note=67 velocity=72 time=0', 'note_on channel=0 note=64 velocity=0 time=37', 'note_on channel=0 note=67 velocity=0 time=22', 'note_on channel=0 note=62 velocity=80 time=66')
Note: ('note_on channel=0 note=67 velocity=72 time=0', 'note_on channel=0 note=64 velocity=0 time=37', 'note_on channel=0 note=67 velocity=0 time=22', 'note_on channel=0 note=62 velocity=80 time=66', 'note_on channel=0 note=66 velocity=85 time=0')
Note: ('note_on channel=0 note=64 velocity=0 time=37', 'note_on channel=0 note=67 velocity=0 time=22', 'note_on channel=0 note=62 velocity=80 time=66', 'note_on channel=0 note=66 velocity=85 time=0', 'note_on channel=0 note=62 velocity=0 time=21')
Note: ('note_on channel=0 note=67 velocity=0 time=22', 'note_on channel=0 note=62 velocity=80 time=66', 'note_on channel=0 note=66 velocity=85 time=0', 'note_on channel=0 note=62 velocity=0 time=21', 'note_on channel=0 note=66 velocity=0 time=7')
Note: ('note_on channel=0 note=62 velocity=80 time=66', 'note_on channel=0 note=66 velocity=85 time=0', 'note_on channel=0 note=62 velocity=0 time=21', 'note_on channel=0 note=66 velocity=0 time=7', 'note_on channel=0 note=81 velocity=96 time=1')
Note: ('note_on channel=0 note=66 velocity=85 time=0', 'note_on channel=0 note=62 velocity=0 time=21', 'note_on channel=0 note=66 velocity=0 time=7', 'note_on channel=0 note=81 velocity=96 time=1', 'note_on channel=0 note=78 velocity=81 time=7')
Note: ('note_on channel=0 note=62 velocity=0 time=21', 'note_on channel=0 note=66 velocity=0 time=7', 'note_on channel=0 note=81 velocity=96 time=1', 'note_on channel=0 note=78 velocity=81 time=7', 'note_on channel=0 note=78 velocity=0 time=338')
Note: ('note_on channel=0 note=66 velocity=0 time=7', 'note_on channel=0 note=81 velocity=96 time=1', 'note_on channel=0 note=78 velocity=81 time=7', 'note_on channel=0 note=78 velocity=0 time=338', 'note_on channel=0 note=81 velocity=0 time=12')
Note: ('note_on channel=0 note=81 velocity=96 time=1', 'note_on channel=0 note=78 velocity=81 time=7', 'note_on channel=0 note=78 velocity=0 time=338', 'note_on channel=0 note=81 velocity=0 time=12', 'note_on channel=0 note=79 velocity=84 time=13')
Note: ('note_on channel=0 note=78 velocity=81 time=7', 'note_on channel=0 note=78 velocity=0 time=338', 'note_on channel=0 note=81 velocity=0 time=12', 'note_on channel=0 note=79 velocity=84 time=13', 'note_on channel=0 note=76 velocity=70 time=15')
Note: ('note_on channel=0 note=78 velocity=0 time=338', 'note_on channel=0 note=81 velocity=0 time=12', 'note_on channel=0 note=79 velocity=84 time=13', 'note_on channel=0 note=76 velocity=70 time=15', 'note_on channel=0 note=76 velocity=0 time=27')
Note: ('note_on channel=0 note=79 velocity=84 time=13', 'note_on channel=0 note=76 velocity=70 time=15', 'note_on channel=0 note=76 velocity=0 time=27', 'note_on channel=0 note=79 velocity=0 time=17')
Note: ('note_on channel=0 note=76 velocity=70 time=15', 'note_on channel=0 note=76 velocity=0 time=27', 'note_on channel=0 note=79 velocity=0 time=17', 'note_on channel=0 note=78 velocity=89 time=50')
Note: ('note_on channel=0 note=76 velocity=0 time=27', 'note_on channel=0 note=79 velocity=0 time=17', 'note_on channel=0 note=78 velocity=89 time=50', 'note_on channel=0 note=74 velocity=81 time=7')
Note: ('note_on channel=0 note=79 velocity=0 time=17', 'note_on channel=0 note=78 velocity=89 time=50', 'note_on channel=0 note=74 velocity=81 time=7', 'note_on channel=0 note=74 velocity=0 time=34')
Note: ('note_on channel=0 note=78 velocity=89 time=50', 'note_on channel=0 note=74 velocity=81 time=7', 'note_on channel=0 note=74 velocity=0 time=34', 'note_on channel=0 note=78 velocity=0 time=19')
Note: ('note_on channel=0 note=74 velocity=81 time=7', 'note_on channel=0 note=74 velocity=0 time=34', 'note_on channel=0 note=78 velocity=0 time=19', 'note_on channel=0 note=76 velocity=92 time=47')
Note: ('note_on channel=0 note=74 velocity=0 time=34', 'note_on channel=0 note=78 velocity=0 time=19', 'note_on channel=0 note=76 velocity=92 time=47', 'note_on channel=0 note=73 velocity=83 time=1')
Note: ('note_on channel=0 note=78 velocity=0 time=19', 'note_on channel=0 note=76 velocity=92 time=47', 'note_on channel=0 note=73 velocity=83 time=1', 'note_on channel=0 note=76 velocity=0 time=46')
Note: ('note_on channel=0 note=76 velocity=92 time=47', 'note_on channel=0 note=73 velocity=83 time=1', 'note_on channel=0 note=76 velocity=0 time=46', 'note_on channel=0 note=73 velocity=0 time=4')
Note: ('note_on channel=0 note=73 velocity=83 time=1', 'note_on channel=0 note=76 velocity=0 time=46', 'note_on channel=0 note=73 velocity=0 time=4', 'note_on channel=0 note=74 velocity=89 time=48')
Note: ('note_on channel=0 note=76 velocity=0 time=46', 'note_on channel=0 note=73 velocity=0 time=4', 'note_on channel=0 note=74 velocity=89 time=48', 'note_on channel=0 note=71 velocity=79 time=8')
Note: ('note_on channel=0 note=73 velocity=0 time=4', 'note_on channel=0 note=74 velocity=89 time=48', 'note_on channel=0 note=71 velocity=79 time=8', 'note_on channel=0 note=71 velocity=0 time=38')
Note: ('note_on channel=0 note=74 velocity=89 time=48', 'note_on channel=0 note=71 velocity=79 time=8', 'note_on channel=0 note=71 velocity=0 time=38', 'note_on channel=0 note=74 velocity=0 time=10')
Note: ('note_on channel=0 note=71 velocity=79 time=8', 'note_on channel=0 note=71 velocity=0 time=38', 'note_on channel=0 note=74 velocity=0 time=10', 'note_on channel=0 note=73 velocity=90 time=48')
Note: ('note_on channel=0 note=71 velocity=0 time=38', 'note_on channel=0 note=74 velocity=0 time=10', 'note_on channel=0 note=73 velocity=90 time=48', 'note_on channel=0 note=69 velocity=81 time=6')
Note: ('note_on channel=0 note=74 velocity=0 time=10', 'note_on channel=0 note=73 velocity=90 time=48', 'note_on channel=0 note=69 velocity=81 time=6', 'note_on channel=0 note=69 velocity=0 time=25')
Note: ('note_on channel=0 note=73 velocity=90 time=48', 'note_on channel=0 note=69 velocity=81 time=6', 'note_on channel=0 note=69 velocity=0 time=25', 'note_on channel=0 note=73 velocity=0 time=28')
Note: ('note_on channel=0 note=69 velocity=81 time=6', 'note_on channel=0 note=69 velocity=0 time=25', 'note_on channel=0 note=73 velocity=0 time=28', 'note_on channel=0 note=67 velocity=79 time=42')
Note: ('note_on channel=0 note=69 velocity=0 time=25', 'note_on channel=0 note=73 velocity=0 time=28', 'note_on channel=0 note=67 velocity=79 time=42', 'note_on channel=0 note=71 velocity=88 time=5')
Note: ('note_on channel=0 note=73 velocity=0 time=28', 'note_on channel=0 note=67 velocity=79 time=42', 'note_on channel=0 note=71 velocity=88 time=5', 'note_on channel=0 note=67 velocity=0 time=25')
Note: ('note_on channel=0 note=67 velocity=79 time=42', 'note_on channel=0 note=71 velocity=88 time=5', 'note_on channel=0 note=67 velocity=0 time=25', 'note_on channel=0 note=71 velocity=0 time=19')
Note: ('note_on channel=0 note=71 velocity=88 time=5', 'note_on channel=0 note=67 velocity=0 time=25', 'note_on channel=0 note=71 velocity=0 time=19', 'note_on channel=0 note=66 velocity=80 time=70')
Note: ('note_on channel=0 note=67 velocity=0 time=25', 'note_on channel=0 note=71 velocity=0 time=19', 'note_on channel=0 note=66 velocity=80 time=70', 'note_on channel=0 note=69 velocity=82 time=6')
Note: ('note_on channel=0 note=71 velocity=0 time=19', 'note_on channel=0 note=66 velocity=80 time=70', 'note_on channel=0 note=69 velocity=82 time=6', 'note_on channel=0 note=66 velocity=0 time=23')
Note: ('note_on channel=0 note=66 velocity=80 time=70', 'note_on channel=0 note=69 velocity=82 time=6', 'note_on channel=0 note=66 velocity=0 time=23', 'note_on channel=0 note=69 velocity=0 time=6')
Note: ('note_on channel=0 note=69 velocity=82 time=6', 'note_on channel=0 note=66 velocity=0 time=23', 'note_on channel=0 note=69 velocity=0 time=6', 'note_on channel=0 note=86 velocity=87 time=2')
Note: ('note_on channel=0 note=66 velocity=0 time=23', 'note_on channel=0 note=69 velocity=0 time=6', 'note_on channel=0 note=86 velocity=87 time=2', 'note_on channel=0 note=66 velocity=61 time=9')
Note: ('note_on channel=0 note=69 velocity=0 time=6', 'note_on channel=0 note=86 velocity=87 time=2', 'note_on channel=0 note=66 velocity=61 time=9', 'note_on channel=0 note=66 velocity=0 time=37')
Note: ('note_on channel=0 note=86 velocity=87 time=2', 'note_on channel=0 note=66 velocity=61 time=9', 'note_on channel=0 note=66 velocity=0 time=37', 'note_on channel=0 note=81 velocity=90 time=34')
Note: ('note_on channel=0 note=66 velocity=61 time=9', 'note_on channel=0 note=66 velocity=0 time=37', 'note_on channel=0 note=81 velocity=90 time=34', 'note_on channel=0 note=86 velocity=0 time=23')
Note: ('note_on channel=0 note=66 velocity=0 time=37', 'note_on channel=0 note=81 velocity=90 time=34', 'note_on channel=0 note=86 velocity=0 time=23', 'note_on channel=0 note=81 velocity=0 time=64')
Note: ('note_on channel=0 note=81 velocity=90 time=34', 'note_on channel=0 note=86 velocity=0 time=23', 'note_on channel=0 note=81 velocity=0 time=64', 'note_on channel=0 note=74 velocity=92 time=6')
Note: ('note_on channel=0 note=86 velocity=0 time=23', 'note_on channel=0 note=81 velocity=0 time=64', 'note_on channel=0 note=74 velocity=92 time=6', 'note_on channel=0 note=67 velocity=60 time=141')
Note: ('note_on channel=0 note=81 velocity=0 time=64', 'note_on channel=0 note=74 velocity=92 time=6', 'note_on channel=0 note=67 velocity=60 time=141', 'note_on channel=0 note=74 velocity=0 time=0')
Note: ('note_on channel=0 note=74 velocity=92 time=6', 'note_on channel=0 note=67 velocity=60 time=141', 'note_on channel=0 note=74 velocity=0 time=0', 'note_on channel=0 note=78 velocity=75 time=2')
Note: ('note_on channel=0 note=67 velocity=60 time=141', 'note_on channel=0 note=74 velocity=0 time=0', 'note_on channel=0 note=78 velocity=75 time=2', 'note_on channel=0 note=78 velocity=0 time=72')
Note: ('note_on channel=0 note=74 velocity=0 time=0', 'note_on channel=0 note=78 velocity=75 time=2', 'note_on channel=0 note=78 velocity=0 time=72', 'note_on channel=0 note=76 velocity=74 time=4')
Note: ('note_on channel=0 note=78 velocity=75 time=2', 'note_on channel=0 note=78 velocity=0 time=72', 'note_on channel=0 note=76 velocity=74 time=4', 'note_on channel=0 note=67 velocity=0 time=18')
Note: ('note_on channel=0 note=78 velocity=0 time=72', 'note_on channel=0 note=76 velocity=74 time=4', 'note_on channel=0 note=67 velocity=0 time=18', 'note_on channel=0 note=76 velocity=0 time=39')
Note: ('note_on channel=0 note=76 velocity=74 time=4', 'note_on channel=0 note=67 velocity=0 time=18', 'note_on channel=0 note=76 velocity=0 time=39', 'note_on channel=0 note=78 velocity=74 time=2')
Note: ('note_on channel=0 note=67 velocity=0 time=18', 'note_on channel=0 note=76 velocity=0 time=39', 'note_on channel=0 note=78 velocity=74 time=2', 'note_on channel=0 note=76 velocity=71 time=11')
Note: ('note_on channel=0 note=76 velocity=0 time=39', 'note_on channel=0 note=78 velocity=74 time=2', 'note_on channel=0 note=76 velocity=71 time=11', 'note_on channel=0 note=78 velocity=0 time=3')
Note: ('note_on channel=0 note=78 velocity=74 time=2', 'note_on channel=0 note=76 velocity=71 time=11', 'note_on channel=0 note=78 velocity=0 time=3', 'note_on channel=0 note=76 velocity=0 time=15')
Note: ('note_on channel=0 note=78 velocity=0 time=3', 'note_on channel=0 note=76 velocity=0 time=15', 'note_on channel=0 note=78 velocity=72 time=2')
Note: ('note_on channel=0 note=76 velocity=0 time=15', 'note_on channel=0 note=78 velocity=72 time=2', 'note_on channel=0 note=76 velocity=71 time=11')
Note: ('note_on channel=0 note=78 velocity=72 time=2', 'note_on channel=0 note=76 velocity=71 time=11', 'note_on channel=0 note=78 velocity=0 time=0')
Note: ('note_on channel=0 note=76 velocity=71 time=11', 'note_on channel=0 note=78 velocity=0 time=0', 'note_on channel=0 note=76 velocity=0 time=15')
Note: ('note_on channel=0 note=78 velocity=0 time=0', 'note_on channel=0 note=76 velocity=0 time=15', 'note_on channel=0 note=78 velocity=70 time=2')
Note: ('note_on channel=0 note=76 velocity=0 time=15', 'note_on channel=0 note=78 velocity=70 time=2', 'note_on channel=0 note=69 velocity=62 time=8')
Note: ('note_on channel=0 note=78 velocity=70 time=2', 'note_on channel=0 note=69 velocity=62 time=8', 'note_on channel=0 note=69 velocity=0 time=10')
Note: ('note_on channel=0 note=69 velocity=62 time=8', 'note_on channel=0 note=69 velocity=0 time=10', 'note_on channel=0 note=76 velocity=67 time=3')
Note: ('note_on channel=0 note=69 velocity=0 time=10', 'note_on channel=0 note=76 velocity=67 time=3', 'note_on channel=0 note=78 velocity=0 time=2')
Note: ('note_on channel=0 note=76 velocity=67 time=3', 'note_on channel=0 note=78 velocity=0 time=2', 'note_on channel=0 note=76 velocity=0 time=51')
Note: ('note_on channel=0 note=78 velocity=0 time=2', 'note_on channel=0 note=76 velocity=0 time=51', 'note_on channel=0 note=78 velocity=72 time=8')
Note: ('note_on channel=0 note=76 velocity=0 time=51', 'note_on channel=0 note=78 velocity=72 time=8', 'note_on channel=0 note=76 velocity=68 time=10')
Note: ('note_on channel=0 note=78 velocity=72 time=8', 'note_on channel=0 note=76 velocity=68 time=10', 'note_on channel=0 note=78 velocity=0 time=0')
Note: ('note_on channel=0 note=76 velocity=68 time=10', 'note_on channel=0 note=78 velocity=0 time=0', 'note_on channel=0 note=76 velocity=0 time=0')
Note: ('note_on channel=0 note=78 velocity=0 time=0', 'note_on channel=0 note=76 velocity=0 time=0', 'note_on channel=0 note=74 velocity=71 time=7')
Note: ('note_on channel=0 note=76 velocity=0 time=0', 'note_on channel=0 note=74 velocity=71 time=7', 'note_on channel=0 note=74 velocity=0 time=11')
Note: ('note_on channel=0 note=74 velocity=71 time=7', 'note_on channel=0 note=74 velocity=0 time=11', 'note_on channel=0 note=76 velocity=70 time=3')
Note: ('note_on channel=0 note=74 velocity=0 time=11', 'note_on channel=0 note=76 velocity=70 time=3', 'note_on channel=0 note=76 velocity=0 time=0')
Note: ('note_on channel=0 note=76 velocity=70 time=3', 'note_on channel=0 note=76 velocity=0 time=0', 'note_on channel=0 note=62 velocity=46 time=5')
Note: ('note_on channel=0 note=76 velocity=0 time=0', 'note_on channel=0 note=62 velocity=46 time=5', 'note_on channel=0 note=78 velocity=70 time=0')
Note: ('note_on channel=0 note=62 velocity=46 time=5', 'note_on channel=0 note=78 velocity=70 time=0', 'note_on channel=0 note=78 velocity=0 time=8')
Note: ('note_on channel=0 note=78 velocity=70 time=0', 'note_on channel=0 note=78 velocity=0 time=8', 'note_on channel=0 note=62 velocity=0 time=6')
Note: ('note_on channel=0 note=78 velocity=0 time=8', 'note_on channel=0 note=62 velocity=0 time=6', 'note_on channel=0 note=62 velocity=67 time=0')
Note: ('note_on channel=0 note=62 velocity=0 time=6', 'note_on channel=0 note=62 velocity=67 time=0', 'note_on channel=0 note=81 velocity=73 time=1')
Note: ('note_on channel=0 note=62 velocity=67 time=0', 'note_on channel=0 note=81 velocity=73 time=1', 'note_on channel=0 note=62 velocity=0 time=13')
Note: ('note_on channel=0 note=81 velocity=73 time=1', 'note_on channel=0 note=62 velocity=0 time=13', 'note_on channel=0 note=81 velocity=0 time=14')
Note: ('note_on channel=0 note=62 velocity=0 time=13', 'note_on channel=0 note=81 velocity=0 time=14', 'note_on channel=0 note=74 velocity=68 time=3')
Note: ('note_on channel=0 note=81 velocity=0 time=14', 'note_on channel=0 note=74 velocity=68 time=3', 'note_on channel=0 note=74 velocity=0 time=36')
Note: ('note_on channel=0 note=74 velocity=68 time=3', 'note_on channel=0 note=74 velocity=0 time=36', 'note_on channel=0 note=69 velocity=59 time=33')
Note: ('note_on channel=0 note=74 velocity=0 time=36', 'note_on channel=0 note=69 velocity=59 time=33', 'note_on channel=0 note=55 velocity=61 time=60')
Note: ('note_on channel=0 note=69 velocity=59 time=33', 'note_on channel=0 note=55 velocity=61 time=60', 'note_on channel=0 note=71 velocity=66 time=4')
Note: ('note_on channel=0 note=55 velocity=61 time=60', 'note_on channel=0 note=71 velocity=66 time=4', 'note_on channel=0 note=69 velocity=0 time=3')
Note: ('note_on channel=0 note=71 velocity=66 time=4', 'note_on channel=0 note=69 velocity=0 time=3', 'note_on channel=0 note=55 velocity=0 time=14')
Note: ('note_on channel=0 note=69 velocity=0 time=3', 'note_on channel=0 note=55 velocity=0 time=14', 'note_on channel=0 note=71 velocity=0 time=13')
Note: ('note_on channel=0 note=55 velocity=0 time=14', 'note_on channel=0 note=71 velocity=0 time=13', 'note_on channel=0 note=73 velocity=68 time=10')
Note: ('note_on channel=0 note=71 velocity=0 time=13', 'note_on channel=0 note=73 velocity=68 time=10', 'note_on channel=0 note=73 velocity=0 time=8')
Note: ('note_on channel=0 note=73 velocity=68 time=10', 'note_on channel=0 note=73 velocity=0 time=8', 'note_on channel=0 note=71 velocity=65 time=1')
Note: ('note_on channel=0 note=73 velocity=0 time=8', 'note_on channel=0 note=71 velocity=65 time=1', 'note_on channel=0 note=64 velocity=59 time=16')
Note: ('note_on channel=0 note=71 velocity=65 time=1', 'note_on channel=0 note=64 velocity=59 time=16', 'note_on channel=0 note=71 velocity=0 time=12')
Note: ('note_on channel=0 note=64 velocity=59 time=16', 'note_on channel=0 note=71 velocity=0 time=12', 'note_on channel=0 note=64 velocity=0 time=9')
Note: ('note_on channel=0 note=71 velocity=0 time=12', 'note_on channel=0 note=64 velocity=0 time=9', 'note_on channel=0 note=69 velocity=68 time=23')
Note: ('note_on channel=0 note=64 velocity=0 time=9', 'note_on channel=0 note=69 velocity=68 time=23', 'note_on channel=0 note=69 velocity=0 time=11')
Note: ('note_on channel=0 note=69 velocity=68 time=23', 'note_on channel=0 note=69 velocity=0 time=11', 'note_on channel=0 note=71 velocity=62 time=1')
Note: ('note_on channel=0 note=69 velocity=0 time=11', 'note_on channel=0 note=71 velocity=62 time=1', 'note_on channel=0 note=57 velocity=61 time=9')
Note: ('note_on channel=0 note=71 velocity=62 time=1', 'note_on channel=0 note=57 velocity=61 time=9', 'note_on channel=0 note=73 velocity=73 time=3')
Note: ('note_on channel=0 note=57 velocity=61 time=9', 'note_on channel=0 note=73 velocity=73 time=3', 'note_on channel=0 note=71 velocity=0 time=3')
Note: ('note_on channel=0 note=73 velocity=73 time=3', 'note_on channel=0 note=71 velocity=0 time=3', 'note_on channel=0 note=57 velocity=0 time=6')
Note: ('note_on channel=0 note=71 velocity=0 time=3', 'note_on channel=0 note=57 velocity=0 time=6', 'note_on channel=0 note=73 velocity=0 time=10')
Note: ('note_on channel=0 note=57 velocity=0 time=6', 'note_on channel=0 note=73 velocity=0 time=10', 'note_on channel=0 note=74 velocity=68 time=5')
Note: ('note_on channel=0 note=73 velocity=0 time=10', 'note_on channel=0 note=74 velocity=68 time=5', 'note_on channel=0 note=73 velocity=67 time=12')
Note: ('note_on channel=0 note=74 velocity=68 time=5', 'note_on channel=0 note=73 velocity=67 time=12', 'note_on channel=0 note=74 velocity=0 time=10')
Note: ('note_on channel=0 note=73 velocity=67 time=12', 'note_on channel=0 note=74 velocity=0 time=10', 'note_on channel=0 note=66 velocity=59 time=24')
Note: ('note_on channel=0 note=74 velocity=0 time=10', 'note_on channel=0 note=66 velocity=59 time=24', 'note_on channel=0 note=73 velocity=0 time=13')
Note: ('note_on channel=0 note=66 velocity=59 time=24', 'note_on channel=0 note=73 velocity=0 time=13', 'note_on channel=0 note=66 velocity=0 time=2')
Note: ('note_on channel=0 note=73 velocity=0 time=13', 'note_on channel=0 note=66 velocity=0 time=2', 'note_on channel=0 note=71 velocity=68 time=11')
Note: ('note_on channel=0 note=66 velocity=0 time=2', 'note_on channel=0 note=71 velocity=68 time=11', 'note_on channel=0 note=73 velocity=59 time=3')
Note: ('note_on channel=0 note=71 velocity=68 time=11', 'note_on channel=0 note=73 velocity=59 time=3', 'note_on channel=0 note=71 velocity=0 time=8')
Note: ('note_on channel=0 note=73 velocity=59 time=3', 'note_on channel=0 note=71 velocity=0 time=8', 'note_on channel=0 note=59 velocity=65 time=13')
Note: ('note_on channel=0 note=71 velocity=0 time=8', 'note_on channel=0 note=59 velocity=65 time=13', 'note_on channel=0 note=74 velocity=80 time=1')
Note: ('note_on channel=0 note=59 velocity=65 time=13', 'note_on channel=0 note=74 velocity=80 time=1', 'note_on channel=0 note=73 velocity=0 time=8')
Note: ('note_on channel=0 note=74 velocity=80 time=1', 'note_on channel=0 note=73 velocity=0 time=8', 'note_on channel=0 note=59 velocity=0 time=4')
Note: ('note_on channel=0 note=73 velocity=0 time=8', 'note_on channel=0 note=59 velocity=0 time=4', 'note_on channel=0 note=74 velocity=0 time=6')
Note: ('note_on channel=0 note=59 velocity=0 time=4', 'note_on channel=0 note=74 velocity=0 time=6', 'note_on channel=0 note=76 velocity=67 time=15')
Note: ('note_on channel=0 note=74 velocity=0 time=6', 'note_on channel=0 note=76 velocity=67 time=15', 'note_on channel=0 note=74 velocity=71 time=60')
Note: ('note_on channel=0 note=76 velocity=67 time=15', 'note_on channel=0 note=74 velocity=71 time=60', 'note_on channel=0 note=76 velocity=0 time=2')
Note: ('note_on channel=0 note=74 velocity=71 time=60', 'note_on channel=0 note=76 velocity=0 time=2', 'note_on channel=0 note=67 velocity=61 time=26')
Note: ('note_on channel=0 note=76 velocity=0 time=2', 'note_on channel=0 note=67 velocity=61 time=26', 'note_on channel=0 note=74 velocity=0 time=19')
Note: ('note_on channel=0 note=67 velocity=61 time=26', 'note_on channel=0 note=74 velocity=0 time=19', 'note_on channel=0 note=67 velocity=0 time=9')
Note: ('note_on channel=0 note=74 velocity=0 time=19', 'note_on channel=0 note=67 velocity=0 time=9', 'note_on channel=0 note=73 velocity=75 time=3')
Note: ('note_on channel=0 note=67 velocity=0 time=9', 'note_on channel=0 note=73 velocity=75 time=3', 'note_on channel=0 note=73 velocity=0 time=48')
Note: ('note_on channel=0 note=73 velocity=75 time=3', 'note_on channel=0 note=73 velocity=0 time=48', 'note_on channel=0 note=74 velocity=69 time=19')
Note: ('note_on channel=0 note=73 velocity=0 time=48', 'note_on channel=0 note=74 velocity=69 time=19', 'note_on channel=0 note=76 velocity=80 time=49')
Note: ('note_on channel=0 note=74 velocity=69 time=19', 'note_on channel=0 note=76 velocity=80 time=49', 'note_on channel=0 note=61 velocity=61 time=6')
Note: ('note_on channel=0 note=76 velocity=80 time=49', 'note_on channel=0 note=61 velocity=61 time=6', 'note_on channel=0 note=74 velocity=0 time=3')
Note: ('note_on channel=0 note=61 velocity=61 time=6', 'note_on channel=0 note=74 velocity=0 time=3', 'note_on channel=0 note=61 velocity=0 time=28')
Note: ('note_on channel=0 note=74 velocity=0 time=3', 'note_on channel=0 note=61 velocity=0 time=28', 'note_on channel=0 note=76 velocity=0 time=30')
Note: ('note_on channel=0 note=61 velocity=0 time=28', 'note_on channel=0 note=76 velocity=0 time=30', 'note_on channel=0 note=78 velocity=77 time=5')
Note: ('note_on channel=0 note=76 velocity=0 time=30', 'note_on channel=0 note=78 velocity=77 time=5', 'note_on channel=0 note=76 velocity=74 time=67')
Note: ('note_on channel=0 note=78 velocity=77 time=5', 'note_on channel=0 note=76 velocity=74 time=67', 'note_on channel=0 note=78 velocity=0 time=26')
Note: ('note_on channel=0 note=76 velocity=74 time=67', 'note_on channel=0 note=78 velocity=0 time=26', 'note_on channel=0 note=69 velocity=66 time=2')
Note: ('note_on channel=0 note=78 velocity=0 time=26', 'note_on channel=0 note=69 velocity=66 time=2', 'note_on channel=0 note=76 velocity=0 time=19')
Note: ('note_on channel=0 note=69 velocity=66 time=2', 'note_on channel=0 note=76 velocity=0 time=19', 'note_on channel=0 note=69 velocity=0 time=6')
Note: ('note_on channel=0 note=76 velocity=0 time=19', 'note_on channel=0 note=69 velocity=0 time=6', 'note_on channel=0 note=74 velocity=79 time=16')
Note: ('note_on channel=0 note=74 velocity=79 time=16', 'note_on channel=0 note=76 velocity=73 time=54')
Note: ('note_on channel=0 note=76 velocity=73 time=54', 'note_on channel=0 note=74 velocity=0 time=7')
Note: ('note_on channel=0 note=74 velocity=0 time=7', 'note_on channel=0 note=62 velocity=66 time=55')
Note: ('note_on channel=0 note=62 velocity=66 time=55', 'note_on channel=0 note=78 velocity=86 time=5')
Note: ('note_on channel=0 note=78 velocity=86 time=5', 'note_on channel=0 note=76 velocity=0 time=16')
Note: ('note_on channel=0 note=76 velocity=0 time=16', 'note_on channel=0 note=62 velocity=0 time=11')
Note: ('note_on channel=0 note=62 velocity=0 time=11', 'note_on channel=0 note=79 velocity=73 time=24')
Note: ('note_on channel=0 note=79 velocity=73 time=24', 'note_on channel=0 note=78 velocity=0 time=6')
Note: ('note_on channel=0 note=78 velocity=0 time=6', 'note_on channel=0 note=78 velocity=72 time=56')
Note: ('note_on channel=0 note=78 velocity=72 time=56', 'note_on channel=0 note=79 velocity=0 time=18')
Note: ('note_on channel=0 note=79 velocity=0 time=18', 'note_on channel=0 note=71 velocity=61 time=26')
Note: ('note_on channel=0 note=71 velocity=61 time=26', 'note_on channel=0 note=78 velocity=0 time=15')
Note: ('note_on channel=0 note=78 velocity=0 time=15', 'note_on channel=0 note=76 velocity=75 time=10')
Note: ('note_on channel=0 note=76 velocity=75 time=10', 'note_on channel=0 note=71 velocity=0 time=1')
Note: ('note_on channel=0 note=71 velocity=0 time=1', 'note_on channel=0 note=78 velocity=79 time=54')
Note: ('note_on channel=0 note=78 velocity=79 time=54', 'note_on channel=0 note=76 velocity=0 time=6')
Note: ('note_on channel=0 note=76 velocity=0 time=6', 'note_on channel=0 note=79 velocity=86 time=60')
Note: ('note_on channel=0 note=79 velocity=86 time=60', 'note_on channel=0 note=64 velocity=67 time=5')
Note: ('note_on channel=0 note=64 velocity=67 time=5', 'note_on channel=0 note=78 velocity=0 time=3')
Note: ('note_on channel=0 note=78 velocity=0 time=3', 'note_on channel=0 note=64 velocity=0 time=28')
Note: ('note_on channel=0 note=64 velocity=0 time=28', 'note_on channel=0 note=81 velocity=77 time=11')
Note: ('note_on channel=0 note=81 velocity=77 time=11', 'note_on channel=0 note=79 velocity=0 time=2')
Note: ('note_on channel=0 note=79 velocity=0 time=2', 'note_on channel=0 note=79 velocity=78 time=65')
Note: ('note_on channel=0 note=79 velocity=78 time=65', 'note_on channel=0 note=81 velocity=0 time=13')
Note: ('note_on channel=0 note=81 velocity=0 time=13', 'note_on channel=0 note=73 velocity=71 time=23')
Note: ('note_on channel=0 note=73 velocity=71 time=23', 'note_on channel=0 note=79 velocity=0 time=22')
Note: ('note_on channel=0 note=79 velocity=0 time=22', 'note_on channel=0 note=78 velocity=80 time=3')
Note: ('note_on channel=0 note=78 velocity=80 time=3', 'note_on channel=0 note=73 velocity=0 time=12')
Note: ('note_on channel=0 note=73 velocity=0 time=12', 'note_on channel=0 note=78 velocity=0 time=49')
Note: ('note_on channel=0 note=78 velocity=0 time=49', 'note_on channel=0 note=79 velocity=78 time=8')
Note: ('note_on channel=0 note=79 velocity=78 time=8', 'note_on channel=0 note=81 velocity=89 time=61')
Note: ('note_on channel=0 note=81 velocity=89 time=61', 'note_on channel=0 note=66 velocity=77 time=1')
Note: ('note_on channel=0 note=66 velocity=77 time=1', 'note_on channel=0 note=79 velocity=0 time=10')
Note: ('note_on channel=0 note=79 velocity=0 time=10', 'note_on channel=0 note=66 velocity=0 time=42')
Note: ('note_on channel=0 note=66 velocity=0 time=42', 'note_on channel=0 note=81 velocity=0 time=11')
Note: ('note_on channel=0 note=81 velocity=0 time=11', 'note_on channel=0 note=83 velocity=79 time=1')
Note: ('note_on channel=0 note=83 velocity=79 time=1', 'note_on channel=0 note=81 velocity=85 time=70')
Note: ('note_on channel=0 note=81 velocity=85 time=70', 'note_on channel=0 note=83 velocity=0 time=15')
Note: ('note_on channel=0 note=83 velocity=0 time=15', 'note_on channel=0 note=74 velocity=82 time=3')
Note: ('note_on channel=0 note=74 velocity=82 time=3', 'note_on channel=0 note=81 velocity=0 time=34')
Note: ('note_on channel=0 note=81 velocity=0 time=34', 'note_on channel=0 note=74 velocity=0 time=6')
Note: ('note_on channel=0 note=74 velocity=0 time=6', 'note_on channel=0 note=79 velocity=81 time=3')
Note: ('note_on channel=0 note=79 velocity=81 time=3', 'note_on channel=0 note=81 velocity=85 time=53')
Note: ('note_on channel=0 note=81 velocity=85 time=53', 'note_on channel=0 note=79 velocity=0 time=8')
Note: ('note_on channel=0 note=79 velocity=0 time=8', 'note_on channel=0 note=67 velocity=83 time=36')
Note: ('note_on channel=0 note=67 velocity=83 time=36', 'note_on channel=0 note=83 velocity=87 time=14')
Note: ('note_on channel=0 note=83 velocity=87 time=14', 'note_on channel=0 note=81 velocity=0 time=12')
Note: ('note_on channel=0 note=81 velocity=0 time=12', 'note_on channel=0 note=83 velocity=0 time=15')
Note: ('note_on channel=0 note=83 velocity=0 time=15', 'note_on channel=0 note=67 velocity=0 time=4')
Note: ('note_on channel=0 note=81 velocity=0 time=12', 'note_on channel=0 note=83 velocity=0 time=15', 'note_on channel=0 note=67 velocity=0 time=4', 'note_on channel=0 note=69 velocity=79 time=147')
Note: ('note_on channel=0 note=83 velocity=0 time=15', 'note_on channel=0 note=67 velocity=0 time=4', 'note_on channel=0 note=69 velocity=79 time=147', 'note_on channel=0 note=85 velocity=87 time=2')
Note: ('note_on channel=0 note=67 velocity=0 time=4', 'note_on channel=0 note=69 velocity=79 time=147', 'note_on channel=0 note=85 velocity=87 time=2', 'note_on channel=0 note=69 velocity=0 time=47')
Note: ('note_on channel=0 note=69 velocity=79 time=147', 'note_on channel=0 note=85 velocity=87 time=2', 'note_on channel=0 note=69 velocity=0 time=47', 'note_on channel=0 note=85 velocity=0 time=25')
Note: ('note_on channel=0 note=85 velocity=87 time=2', 'note_on channel=0 note=69 velocity=0 time=47', 'note_on channel=0 note=85 velocity=0 time=25', 'note_on channel=0 note=86 velocity=87 time=95')
Note: ('note_on channel=0 note=69 velocity=0 time=47', 'note_on channel=0 note=85 velocity=0 time=25', 'note_on channel=0 note=86 velocity=87 time=95', 'note_on channel=0 note=71 velocity=89 time=2')
Note: ('note_on channel=0 note=85 velocity=0 time=25', 'note_on channel=0 note=86 velocity=87 time=95', 'note_on channel=0 note=71 velocity=89 time=2', 'note_on channel=0 note=71 velocity=0 time=48')
Note: ('note_on channel=0 note=86 velocity=87 time=95', 'note_on channel=0 note=71 velocity=89 time=2', 'note_on channel=0 note=71 velocity=0 time=48', 'note_on channel=0 note=85 velocity=82 time=31')
Note: ('note_on channel=0 note=71 velocity=89 time=2', 'note_on channel=0 note=71 velocity=0 time=48', 'note_on channel=0 note=85 velocity=82 time=31', 'note_on channel=0 note=86 velocity=0 time=31')
Note: ('note_on channel=0 note=71 velocity=0 time=48', 'note_on channel=0 note=85 velocity=82 time=31', 'note_on channel=0 note=86 velocity=0 time=31', 'note_on channel=0 note=83 velocity=79 time=47')
Note: ('note_on channel=0 note=85 velocity=82 time=31', 'note_on channel=0 note=86 velocity=0 time=31', 'note_on channel=0 note=83 velocity=79 time=47', 'note_on channel=0 note=85 velocity=0 time=29')
Note: ('note_on channel=0 note=86 velocity=0 time=31', 'note_on channel=0 note=83 velocity=79 time=47', 'note_on channel=0 note=85 velocity=0 time=29', 'note_on channel=0 note=81 velocity=89 time=50')
Note: ('note_on channel=0 note=83 velocity=79 time=47', 'note_on channel=0 note=85 velocity=0 time=29', 'note_on channel=0 note=81 velocity=89 time=50', 'note_on channel=0 note=83 velocity=0 time=30')
Note: ('note_on channel=0 note=85 velocity=0 time=29', 'note_on channel=0 note=81 velocity=89 time=50', 'note_on channel=0 note=83 velocity=0 time=30', 'note_on channel=0 note=81 velocity=0 time=47')
Note: ('note_on channel=0 note=81 velocity=89 time=50', 'note_on channel=0 note=83 velocity=0 time=30', 'note_on channel=0 note=81 velocity=0 time=47', 'note_on channel=0 note=67 velocity=81 time=1')
Note: ('note_on channel=0 note=83 velocity=0 time=30', 'note_on channel=0 note=81 velocity=0 time=47', 'note_on channel=0 note=67 velocity=81 time=1', 'note_on channel=0 note=79 velocity=87 time=5')
Note: ('note_on channel=0 note=81 velocity=0 time=47', 'note_on channel=0 note=67 velocity=81 time=1', 'note_on channel=0 note=79 velocity=87 time=5', 'note_on channel=0 note=67 velocity=0 time=41')
Note: ('note_on channel=0 note=67 velocity=81 time=1', 'note_on channel=0 note=79 velocity=87 time=5', 'note_on channel=0 note=67 velocity=0 time=41', 'note_on channel=0 note=69 velocity=16 time=5')
Note: ('note_on channel=0 note=79 velocity=87 time=5', 'note_on channel=0 note=67 velocity=0 time=41', 'note_on channel=0 note=69 velocity=16 time=5', 'note_on channel=0 note=78 velocity=87 time=31')
Note: ('note_on channel=0 note=67 velocity=0 time=41', 'note_on channel=0 note=69 velocity=16 time=5', 'note_on channel=0 note=78 velocity=87 time=31', 'note_on channel=0 note=79 velocity=0 time=8')
Note: ('note_on channel=0 note=69 velocity=16 time=5', 'note_on channel=0 note=78 velocity=87 time=31', 'note_on channel=0 note=79 velocity=0 time=8', 'note_on channel=0 note=69 velocity=0 time=8')
Note: ('note_on channel=0 note=78 velocity=87 time=31', 'note_on channel=0 note=79 velocity=0 time=8', 'note_on channel=0 note=69 velocity=0 time=8', 'note_on channel=0 note=76 velocity=84 time=58')
Note: ('note_on channel=0 note=79 velocity=0 time=8', 'note_on channel=0 note=69 velocity=0 time=8', 'note_on channel=0 note=76 velocity=84 time=58', 'note_on channel=0 note=78 velocity=0 time=18')
Note: ('note_on channel=0 note=69 velocity=0 time=8', 'note_on channel=0 note=76 velocity=84 time=58', 'note_on channel=0 note=78 velocity=0 time=18', 'note_on channel=0 note=76 velocity=0 time=59')
Note: ('note_on channel=0 note=76 velocity=84 time=58', 'note_on channel=0 note=78 velocity=0 time=18', 'note_on channel=0 note=76 velocity=0 time=59', 'note_on channel=0 note=74 velocity=88 time=4')
Note: ('note_on channel=0 note=78 velocity=0 time=18', 'note_on channel=0 note=76 velocity=0 time=59', 'note_on channel=0 note=74 velocity=88 time=4', 'note_on channel=0 note=69 velocity=71 time=68')
Note: ('note_on channel=0 note=76 velocity=0 time=59', 'note_on channel=0 note=74 velocity=88 time=4', 'note_on channel=0 note=69 velocity=71 time=68', 'note_on channel=0 note=76 velocity=85 time=17')
Note: ('note_on channel=0 note=74 velocity=88 time=4', 'note_on channel=0 note=69 velocity=71 time=68', 'note_on channel=0 note=76 velocity=85 time=17', 'note_on channel=0 note=74 velocity=0 time=23')
Note: ('note_on channel=0 note=69 velocity=71 time=68', 'note_on channel=0 note=76 velocity=85 time=17', 'note_on channel=0 note=74 velocity=0 time=23', 'note_on channel=0 note=69 velocity=0 time=35')
Note: ('note_on channel=0 note=76 velocity=85 time=17', 'note_on channel=0 note=74 velocity=0 time=23', 'note_on channel=0 note=69 velocity=0 time=35', 'note_on channel=0 note=81 velocity=86 time=29')
Note: ('note_on channel=0 note=74 velocity=0 time=23', 'note_on channel=0 note=69 velocity=0 time=35', 'note_on channel=0 note=81 velocity=86 time=29', 'note_on channel=0 note=76 velocity=0 time=11')
Note: ('note_on channel=0 note=69 velocity=0 time=35', 'note_on channel=0 note=81 velocity=86 time=29', 'note_on channel=0 note=76 velocity=0 time=11', 'note_on channel=0 note=79 velocity=81 time=73')
Note: ('note_on channel=0 note=81 velocity=86 time=29', 'note_on channel=0 note=76 velocity=0 time=11', 'note_on channel=0 note=79 velocity=81 time=73', 'note_on channel=0 note=81 velocity=0 time=30')
Note: ('note_on channel=0 note=76 velocity=0 time=11', 'note_on channel=0 note=79 velocity=81 time=73', 'note_on channel=0 note=81 velocity=0 time=30', 'note_on channel=0 note=78 velocity=79 time=46')
Note: ('note_on channel=0 note=79 velocity=81 time=73', 'note_on channel=0 note=81 velocity=0 time=30', 'note_on channel=0 note=78 velocity=79 time=46', 'note_on channel=0 note=79 velocity=0 time=27')
Note: ('note_on channel=0 note=81 velocity=0 time=30', 'note_on channel=0 note=78 velocity=79 time=46', 'note_on channel=0 note=79 velocity=0 time=27', 'note_on channel=0 note=57 velocity=59 time=62')
Note: ('note_on channel=0 note=78 velocity=79 time=46', 'note_on channel=0 note=79 velocity=0 time=27', 'note_on channel=0 note=57 velocity=59 time=62', 'note_on channel=0 note=76 velocity=74 time=0')
Note: ('note_on channel=0 note=79 velocity=0 time=27', 'note_on channel=0 note=57 velocity=59 time=62', 'note_on channel=0 note=76 velocity=74 time=0', 'note_on channel=0 note=78 velocity=0 time=33')
Note: ('note_on channel=0 note=57 velocity=59 time=62', 'note_on channel=0 note=76 velocity=74 time=0', 'note_on channel=0 note=78 velocity=0 time=33', 'note_on channel=0 note=76 velocity=0 time=28')
Note: ('note_on channel=0 note=76 velocity=74 time=0', 'note_on channel=0 note=78 velocity=0 time=33', 'note_on channel=0 note=76 velocity=0 time=28', 'note_on channel=0 note=74 velocity=74 time=13')
Note: ('note_on channel=0 note=78 velocity=0 time=33', 'note_on channel=0 note=76 velocity=0 time=28', 'note_on channel=0 note=74 velocity=74 time=13', 'note_on channel=0 note=57 velocity=0 time=4')
Note: ('note_on channel=0 note=76 velocity=0 time=28', 'note_on channel=0 note=74 velocity=74 time=13', 'note_on channel=0 note=57 velocity=0 time=4', 'note_on channel=0 note=73 velocity=78 time=5')
Note: ('note_on channel=0 note=74 velocity=74 time=13', 'note_on channel=0 note=57 velocity=0 time=4', 'note_on channel=0 note=73 velocity=78 time=5', 'note_on channel=0 note=74 velocity=0 time=0')
Note: ('note_on channel=0 note=57 velocity=0 time=4', 'note_on channel=0 note=73 velocity=78 time=5', 'note_on channel=0 note=74 velocity=0 time=0', 'note_on channel=0 note=71 velocity=79 time=18')
Note: ('note_on channel=0 note=73 velocity=78 time=5', 'note_on channel=0 note=74 velocity=0 time=0', 'note_on channel=0 note=71 velocity=79 time=18', 'note_on channel=0 note=73 velocity=0 time=33')
Note: ('note_on channel=0 note=74 velocity=0 time=0', 'note_on channel=0 note=71 velocity=79 time=18', 'note_on channel=0 note=73 velocity=0 time=33', 'note_on channel=0 note=69 velocity=79 time=6')
Note: ('note_on channel=0 note=71 velocity=79 time=18', 'note_on channel=0 note=73 velocity=0 time=33', 'note_on channel=0 note=69 velocity=79 time=6', 'note_on channel=0 note=71 velocity=0 time=22')
Note: ('note_on channel=0 note=73 velocity=0 time=33', 'note_on channel=0 note=69 velocity=79 time=6', 'note_on channel=0 note=71 velocity=0 time=22', 'note_on channel=0 note=69 velocity=0 time=24')
Note: ('note_on channel=0 note=69 velocity=79 time=6', 'note_on channel=0 note=71 velocity=0 time=22', 'note_on channel=0 note=69 velocity=0 time=24', 'note_on channel=0 note=71 velocity=65 time=12')
Note: ('note_on channel=0 note=71 velocity=0 time=22', 'note_on channel=0 note=69 velocity=0 time=24', 'note_on channel=0 note=71 velocity=65 time=12', 'note_on channel=0 note=71 velocity=0 time=7')
Note: ('note_on channel=0 note=69 velocity=0 time=24', 'note_on channel=0 note=71 velocity=65 time=12', 'note_on channel=0 note=71 velocity=0 time=7', 'note_on channel=0 note=69 velocity=68 time=4')
Note: ('note_on channel=0 note=71 velocity=65 time=12', 'note_on channel=0 note=71 velocity=0 time=7', 'note_on channel=0 note=69 velocity=68 time=4', 'note_on channel=0 note=69 velocity=0 time=14')
Note: ('note_on channel=0 note=71 velocity=0 time=7', 'note_on channel=0 note=69 velocity=68 time=4', 'note_on channel=0 note=69 velocity=0 time=14', 'note_on channel=0 note=71 velocity=61 time=6')
Note: ('note_on channel=0 note=69 velocity=68 time=4', 'note_on channel=0 note=69 velocity=0 time=14', 'note_on channel=0 note=71 velocity=61 time=6', 'note_on channel=0 note=69 velocity=60 time=55')
Note: ('note_on channel=0 note=69 velocity=0 time=14', 'note_on channel=0 note=71 velocity=61 time=6', 'note_on channel=0 note=69 velocity=60 time=55', 'note_on channel=0 note=71 velocity=0 time=3')
Note: ('note_on channel=0 note=71 velocity=61 time=6', 'note_on channel=0 note=69 velocity=60 time=55', 'note_on channel=0 note=71 velocity=0 time=3', 'note_on channel=0 note=71 velocity=64 time=48')
Note: ('note_on channel=0 note=69 velocity=60 time=55', 'note_on channel=0 note=71 velocity=0 time=3', 'note_on channel=0 note=71 velocity=64 time=48', 'note_on channel=0 note=54 velocity=57 time=3')
Note: ('note_on channel=0 note=71 velocity=0 time=3', 'note_on channel=0 note=71 velocity=64 time=48', 'note_on channel=0 note=54 velocity=57 time=3', 'note_on channel=0 note=69 velocity=0 time=0')
Note: ('note_on channel=0 note=71 velocity=64 time=48', 'note_on channel=0 note=54 velocity=57 time=3', 'note_on channel=0 note=69 velocity=0 time=0', 'note_on channel=0 note=69 velocity=61 time=55')
Note: ('note_on channel=0 note=54 velocity=57 time=3', 'note_on channel=0 note=69 velocity=0 time=0', 'note_on channel=0 note=69 velocity=61 time=55', 'note_on channel=0 note=71 velocity=0 time=2')
Note: ('note_on channel=0 note=69 velocity=0 time=0', 'note_on channel=0 note=69 velocity=61 time=55', 'note_on channel=0 note=71 velocity=0 time=2', 'note_on channel=0 note=69 velocity=0 time=51')
Note: ('note_on channel=0 note=69 velocity=61 time=55', 'note_on channel=0 note=71 velocity=0 time=2', 'note_on channel=0 note=69 velocity=0 time=51', 'note_on channel=0 note=71 velocity=65 time=0')
Note: ('note_on channel=0 note=71 velocity=0 time=2', 'note_on channel=0 note=69 velocity=0 time=51', 'note_on channel=0 note=71 velocity=65 time=0', 'note_on channel=0 note=62 velocity=70 time=33')
Note: ('note_on channel=0 note=69 velocity=0 time=51', 'note_on channel=0 note=71 velocity=65 time=0', 'note_on channel=0 note=62 velocity=70 time=33', 'note_on channel=0 note=69 velocity=69 time=25')
Note: ('note_on channel=0 note=71 velocity=65 time=0', 'note_on channel=0 note=62 velocity=70 time=33', 'note_on channel=0 note=69 velocity=69 time=25', 'note_on channel=0 note=71 velocity=0 time=8')
Note: ('note_on channel=0 note=62 velocity=70 time=33', 'note_on channel=0 note=69 velocity=69 time=25', 'note_on channel=0 note=71 velocity=0 time=8', 'note_on channel=0 note=62 velocity=0 time=14')
Note: ('note_on channel=0 note=69 velocity=69 time=25', 'note_on channel=0 note=71 velocity=0 time=8', 'note_on channel=0 note=62 velocity=0 time=14', 'note_on channel=0 note=54 velocity=0 time=30')
Note: ('note_on channel=0 note=71 velocity=0 time=8', 'note_on channel=0 note=62 velocity=0 time=14', 'note_on channel=0 note=54 velocity=0 time=30', 'note_on channel=0 note=69 velocity=0 time=1')
Note: ('note_on channel=0 note=62 velocity=0 time=14', 'note_on channel=0 note=54 velocity=0 time=30', 'note_on channel=0 note=69 velocity=0 time=1', 'note_on channel=0 note=67 velocity=79 time=2')
Note: ('note_on channel=0 note=54 velocity=0 time=30', 'note_on channel=0 note=69 velocity=0 time=1', 'note_on channel=0 note=67 velocity=79 time=2', 'note_on channel=0 note=69 velocity=73 time=54')
Note: ('note_on channel=0 note=69 velocity=0 time=1', 'note_on channel=0 note=67 velocity=79 time=2', 'note_on channel=0 note=69 velocity=73 time=54', 'note_on channel=0 note=67 velocity=0 time=21')
Note: ('note_on channel=0 note=67 velocity=79 time=2', 'note_on channel=0 note=69 velocity=73 time=54', 'note_on channel=0 note=67 velocity=0 time=21', 'note_on channel=0 note=55 velocity=75 time=65')
Note: ('note_on channel=0 note=69 velocity=73 time=54', 'note_on channel=0 note=67 velocity=0 time=21', 'note_on channel=0 note=55 velocity=75 time=65', 'note_on channel=0 note=71 velocity=71 time=96')
Note: ('note_on channel=0 note=67 velocity=0 time=21', 'note_on channel=0 note=55 velocity=75 time=65', 'note_on channel=0 note=71 velocity=71 time=96', 'note_on channel=0 note=69 velocity=0 time=11')
Note: ('note_on channel=0 note=55 velocity=75 time=65', 'note_on channel=0 note=71 velocity=71 time=96', 'note_on channel=0 note=69 velocity=0 time=11', 'note_on channel=0 note=71 velocity=0 time=15')
Note: ('note_on channel=0 note=71 velocity=71 time=96', 'note_on channel=0 note=69 velocity=0 time=11', 'note_on channel=0 note=71 velocity=0 time=15', 'note_on channel=0 note=73 velocity=69 time=7')
Note: ('note_on channel=0 note=69 velocity=0 time=11', 'note_on channel=0 note=71 velocity=0 time=15', 'note_on channel=0 note=73 velocity=69 time=7', 'note_on channel=0 note=71 velocity=67 time=3')
Note: ('note_on channel=0 note=71 velocity=0 time=15', 'note_on channel=0 note=73 velocity=69 time=7', 'note_on channel=0 note=71 velocity=67 time=3', 'note_on channel=0 note=64 velocity=64 time=1')
Note: ('note_on channel=0 note=73 velocity=69 time=7', 'note_on channel=0 note=71 velocity=67 time=3', 'note_on channel=0 note=64 velocity=64 time=1', 'note_on channel=0 note=73 velocity=0 time=0')
Note: ('note_on channel=0 note=71 velocity=67 time=3', 'note_on channel=0 note=64 velocity=64 time=1', 'note_on channel=0 note=73 velocity=0 time=0', 'note_on channel=0 note=71 velocity=0 time=15')
Note: ('note_on channel=0 note=64 velocity=64 time=1', 'note_on channel=0 note=73 velocity=0 time=0', 'note_on channel=0 note=71 velocity=0 time=15', 'note_on channel=0 note=64 velocity=0 time=7')
Note: ('note_on channel=0 note=73 velocity=0 time=0', 'note_on channel=0 note=71 velocity=0 time=15', 'note_on channel=0 note=64 velocity=0 time=7', 'note_on channel=0 note=55 velocity=0 time=5')
Note: ('note_on channel=0 note=74 velocity=92 time=786', 'note_on channel=0 note=74 velocity=0 time=48', 'note_on channel=0 note=81 velocity=93 time=353', 'note_on channel=0 note=57 velocity=79 time=373', 'note_on channel=0 note=57 velocity=0 time=49')
Note: ('note_on channel=0 note=74 velocity=0 time=48', 'note_on channel=0 note=81 velocity=93 time=353', 'note_on channel=0 note=57 velocity=79 time=373', 'note_on channel=0 note=57 velocity=0 time=49', 'note_on channel=0 note=62 velocity=86 time=337')
Note: ('note_on channel=0 note=81 velocity=93 time=353', 'note_on channel=0 note=57 velocity=79 time=373', 'note_on channel=0 note=57 velocity=0 time=49', 'note_on channel=0 note=62 velocity=86 time=337', 'note_on channel=0 note=62 velocity=0 time=12')
Note: ('note_on channel=0 note=57 velocity=79 time=373', 'note_on channel=0 note=57 velocity=0 time=49', 'note_on channel=0 note=62 velocity=86 time=337', 'note_on channel=0 note=62 velocity=0 time=12', 'note_on channel=0 note=81 velocity=0 time=0')
Note: ('note_on channel=0 note=57 velocity=0 time=49', 'note_on channel=0 note=62 velocity=86 time=337', 'note_on channel=0 note=62 velocity=0 time=12', 'note_on channel=0 note=81 velocity=0 time=0', 'note_on channel=0 note=78 velocity=97 time=304')
Note: ('note_on channel=0 note=62 velocity=86 time=337', 'note_on channel=0 note=62 velocity=0 time=12', 'note_on channel=0 note=81 velocity=0 time=0', 'note_on channel=0 note=78 velocity=97 time=304', 'note_on channel=0 note=74 velocity=82 time=7')
Note: ('note_on channel=0 note=62 velocity=0 time=12', 'note_on channel=0 note=81 velocity=0 time=0', 'note_on channel=0 note=78 velocity=97 time=304', 'note_on channel=0 note=74 velocity=82 time=7', 'note_on channel=0 note=74 velocity=0 time=319')
Note: ('note_on channel=0 note=81 velocity=0 time=0', 'note_on channel=0 note=78 velocity=97 time=304', 'note_on channel=0 note=74 velocity=82 time=7', 'note_on channel=0 note=74 velocity=0 time=319', 'note_on channel=0 note=73 velocity=73 time=36')
Note: ('note_on channel=0 note=78 velocity=97 time=304', 'note_on channel=0 note=74 velocity=82 time=7', 'note_on channel=0 note=74 velocity=0 time=319', 'note_on channel=0 note=73 velocity=73 time=36', 'note_on channel=0 note=76 velocity=79 time=7')
Note: ('note_on channel=0 note=74 velocity=82 time=7', 'note_on channel=0 note=74 velocity=0 time=319', 'note_on channel=0 note=73 velocity=73 time=36', 'note_on channel=0 note=76 velocity=79 time=7', 'note_on channel=0 note=78 velocity=0 time=2')
Note: ('note_on channel=0 note=74 velocity=0 time=319', 'note_on channel=0 note=73 velocity=73 time=36', 'note_on channel=0 note=76 velocity=79 time=7', 'note_on channel=0 note=78 velocity=0 time=2', 'note_on channel=0 note=73 velocity=0 time=25')
Note: ('note_on channel=0 note=73 velocity=73 time=36', 'note_on channel=0 note=76 velocity=79 time=7', 'note_on channel=0 note=78 velocity=0 time=2', 'note_on channel=0 note=73 velocity=0 time=25', 'note_on channel=0 note=76 velocity=0 time=11')
Note: ('note_on channel=0 note=76 velocity=79 time=7', 'note_on channel=0 note=78 velocity=0 time=2', 'note_on channel=0 note=73 velocity=0 time=25', 'note_on channel=0 note=76 velocity=0 time=11', 'note_on channel=0 note=71 velocity=78 time=65')
Note: ('note_on channel=0 note=78 velocity=0 time=2', 'note_on channel=0 note=73 velocity=0 time=25', 'note_on channel=0 note=76 velocity=0 time=11', 'note_on channel=0 note=71 velocity=78 time=65', 'note_on channel=0 note=74 velocity=72 time=4')
Note: ('note_on channel=0 note=73 velocity=0 time=25', 'note_on channel=0 note=76 velocity=0 time=11', 'note_on channel=0 note=71 velocity=78 time=65', 'note_on channel=0 note=74 velocity=72 time=4', 'note_on channel=0 note=71 velocity=0 time=26')
Note: ('note_on channel=0 note=76 velocity=0 time=11', 'note_on channel=0 note=71 velocity=78 time=65', 'note_on channel=0 note=74 velocity=72 time=4', 'note_on channel=0 note=71 velocity=0 time=26', 'note_on channel=0 note=74 velocity=0 time=11')
Note: ('note_on channel=0 note=71 velocity=78 time=65', 'note_on channel=0 note=74 velocity=72 time=4', 'note_on channel=0 note=71 velocity=0 time=26', 'note_on channel=0 note=74 velocity=0 time=11', 'note_on channel=0 note=73 velocity=79 time=54')
Note: ('note_on channel=0 note=74 velocity=72 time=4', 'note_on channel=0 note=71 velocity=0 time=26', 'note_on channel=0 note=74 velocity=0 time=11', 'note_on channel=0 note=73 velocity=79 time=54', 'note_on channel=0 note=69 velocity=76 time=9')
Note: ('note_on channel=0 note=71 velocity=0 time=26', 'note_on channel=0 note=74 velocity=0 time=11', 'note_on channel=0 note=73 velocity=79 time=54', 'note_on channel=0 note=69 velocity=76 time=9', 'note_on channel=0 note=69 velocity=0 time=24')
Note: ('note_on channel=0 note=74 velocity=0 time=11', 'note_on channel=0 note=73 velocity=79 time=54', 'note_on channel=0 note=69 velocity=76 time=9', 'note_on channel=0 note=69 velocity=0 time=24', 'note_on channel=0 note=73 velocity=0 time=22')
Note: ('note_on channel=0 note=73 velocity=79 time=54', 'note_on channel=0 note=69 velocity=76 time=9', 'note_on channel=0 note=69 velocity=0 time=24', 'note_on channel=0 note=73 velocity=0 time=22', 'note_on channel=0 note=71 velocity=83 time=54')
Note: ('note_on channel=0 note=69 velocity=76 time=9', 'note_on channel=0 note=69 velocity=0 time=24', 'note_on channel=0 note=73 velocity=0 time=22', 'note_on channel=0 note=71 velocity=83 time=54', 'note_on channel=0 note=67 velocity=78 time=1')
Note: ('note_on channel=0 note=69 velocity=0 time=24', 'note_on channel=0 note=73 velocity=0 time=22', 'note_on channel=0 note=71 velocity=83 time=54', 'note_on channel=0 note=67 velocity=78 time=1', 'note_on channel=0 note=67 velocity=0 time=29')
Note: ('note_on channel=0 note=73 velocity=0 time=22', 'note_on channel=0 note=71 velocity=83 time=54', 'note_on channel=0 note=67 velocity=78 time=1', 'note_on channel=0 note=67 velocity=0 time=29', 'note_on channel=0 note=71 velocity=0 time=14')
Note: ('note_on channel=0 note=71 velocity=83 time=54', 'note_on channel=0 note=67 velocity=78 time=1', 'note_on channel=0 note=67 velocity=0 time=29', 'note_on channel=0 note=71 velocity=0 time=14', 'note_on channel=0 note=69 velocity=77 time=60')
Note: ('note_on channel=0 note=67 velocity=78 time=1', 'note_on channel=0 note=67 velocity=0 time=29', 'note_on channel=0 note=71 velocity=0 time=14', 'note_on channel=0 note=69 velocity=77 time=60', 'note_on channel=0 note=66 velocity=76 time=1')
Note: ('note_on channel=0 note=67 velocity=0 time=29', 'note_on channel=0 note=71 velocity=0 time=14', 'note_on channel=0 note=69 velocity=77 time=60', 'note_on channel=0 note=66 velocity=76 time=1', 'note_on channel=0 note=66 velocity=0 time=27')
Note: ('note_on channel=0 note=71 velocity=0 time=14', 'note_on channel=0 note=69 velocity=77 time=60', 'note_on channel=0 note=66 velocity=76 time=1', 'note_on channel=0 note=66 velocity=0 time=27', 'note_on channel=0 note=69 velocity=0 time=11')
Note: ('note_on channel=0 note=69 velocity=77 time=60', 'note_on channel=0 note=66 velocity=76 time=1', 'note_on channel=0 note=66 velocity=0 time=27', 'note_on channel=0 note=69 velocity=0 time=11', 'note_on channel=0 note=64 velocity=73 time=63')
Note: ('note_on channel=0 note=66 velocity=76 time=1', 'note_on channel=0 note=66 velocity=0 time=27', 'note_on channel=0 note=69 velocity=0 time=11', 'note_on channel=0 note=64 velocity=73 time=63', 'note_on channel=0 note=67 velocity=72 time=0')
Note: ('note_on channel=0 note=66 velocity=0 time=27', 'note_on channel=0 note=69 velocity=0 time=11', 'note_on channel=0 note=64 velocity=73 time=63', 'note_on channel=0 note=67 velocity=72 time=0', 'note_on channel=0 note=64 velocity=0 time=37')
Note: ('note_on channel=0 note=69 velocity=0 time=11', 'note_on channel=0 note=64 velocity=73 time=63', 'note_on channel=0 note=67 velocity=72 time=0', 'note_on channel=0 note=64 velocity=0 time=37', 'note_on channel=0 note=67 velocity=0 time=22')
Note: ('note_on channel=0 note=64 velocity=73 time=63', 'note_on channel=0 note=67 velocity=72 time=0', 'note_on channel=0 note=64 velocity=0 time=37', 'note_on channel=0 note=67 velocity=0 time=22', 'note_on channel=0 note=62 velocity=80 time=66')
Note: ('note_on channel=0 note=67 velocity=72 time=0', 'note_on channel=0 note=64 velocity=0 time=37', 'note_on channel=0 note=67 velocity=0 time=22', 'note_on channel=0 note=62 velocity=80 time=66', 'note_on channel=0 note=66 velocity=85 time=0')
Note: ('note_on channel=0 note=64 velocity=0 time=37', 'note_on channel=0 note=67 velocity=0 time=22', 'note_on channel=0 note=62 velocity=80 time=66', 'note_on channel=0 note=66 velocity=85 time=0', 'note_on channel=0 note=62 velocity=0 time=21')
Note: ('note_on channel=0 note=67 velocity=0 time=22', 'note_on channel=0 note=62 velocity=80 time=66', 'note_on channel=0 note=66 velocity=85 time=0', 'note_on channel=0 note=62 velocity=0 time=21', 'note_on channel=0 note=66 velocity=0 time=7')
Note: ('note_on channel=0 note=62 velocity=80 time=66', 'note_on channel=0 note=66 velocity=85 time=0', 'note_on channel=0 note=62 velocity=0 time=21', 'note_on channel=0 note=66 velocity=0 time=7', 'note_on channel=0 note=81 velocity=96 time=1')
Note: ('note_on channel=0 note=66 velocity=85 time=0', 'note_on channel=0 note=62 velocity=0 time=21', 'note_on channel=0 note=66 velocity=0 time=7', 'note_on channel=0 note=81 velocity=96 time=1', 'note_on channel=0 note=78 velocity=81 time=7')
Note: ('note_on channel=0 note=62 velocity=0 time=21', 'note_on channel=0 note=66 velocity=0 time=7', 'note_on channel=0 note=81 velocity=96 time=1', 'note_on channel=0 note=78 velocity=81 time=7', 'note_on channel=0 note=78 velocity=0 time=338')
Note: ('note_on channel=0 note=66 velocity=0 time=7', 'note_on channel=0 note=81 velocity=96 time=1', 'note_on channel=0 note=78 velocity=81 time=7', 'note_on channel=0 note=78 velocity=0 time=338', 'note_on channel=0 note=81 velocity=0 time=12')
Note: ('note_on channel=0 note=81 velocity=96 time=1', 'note_on channel=0 note=78 velocity=81 time=7', 'note_on channel=0 note=78 velocity=0 time=338', 'note_on channel=0 note=81 velocity=0 time=12', 'note_on channel=0 note=79 velocity=84 time=13')
Note: ('note_on channel=0 note=78 velocity=81 time=7', 'note_on channel=0 note=78 velocity=0 time=338', 'note_on channel=0 note=81 velocity=0 time=12', 'note_on channel=0 note=79 velocity=84 time=13', 'note_on channel=0 note=76 velocity=70 time=15')
Note: ('note_on channel=0 note=78 velocity=0 time=338', 'note_on channel=0 note=81 velocity=0 time=12', 'note_on channel=0 note=79 velocity=84 time=13', 'note_on channel=0 note=76 velocity=70 time=15', 'note_on channel=0 note=76 velocity=0 time=27')
Note: ('note_on channel=0 note=81 velocity=0 time=12', 'note_on channel=0 note=79 velocity=84 time=13', 'note_on channel=0 note=76 velocity=70 time=15', 'note_on channel=0 note=76 velocity=0 time=27', 'note_on channel=0 note=79 velocity=0 time=17')
Note: ('note_on channel=0 note=79 velocity=84 time=13', 'note_on channel=0 note=76 velocity=70 time=15', 'note_on channel=0 note=76 velocity=0 time=27', 'note_on channel=0 note=79 velocity=0 time=17', 'note_on channel=0 note=78 velocity=89 time=50')
Note: ('note_on channel=0 note=76 velocity=70 time=15', 'note_on channel=0 note=76 velocity=0 time=27', 'note_on channel=0 note=79 velocity=0 time=17', 'note_on channel=0 note=78 velocity=89 time=50', 'note_on channel=0 note=74 velocity=81 time=7')
Note: ('note_on channel=0 note=76 velocity=0 time=27', 'note_on channel=0 note=79 velocity=0 time=17', 'note_on channel=0 note=78 velocity=89 time=50', 'note_on channel=0 note=74 velocity=81 time=7', 'note_on channel=0 note=74 velocity=0 time=34')
Note: ('note_on channel=0 note=78 velocity=89 time=50', 'note_on channel=0 note=74 velocity=81 time=7', 'note_on channel=0 note=74 velocity=0 time=34', 'note_on channel=0 note=78 velocity=0 time=19')
Note: ('note_on channel=0 note=74 velocity=81 time=7', 'note_on channel=0 note=74 velocity=0 time=34', 'note_on channel=0 note=78 velocity=0 time=19', 'note_on channel=0 note=76 velocity=92 time=47')
Note: ('note_on channel=0 note=74 velocity=0 time=34', 'note_on channel=0 note=78 velocity=0 time=19', 'note_on channel=0 note=76 velocity=92 time=47', 'note_on channel=0 note=73 velocity=83 time=1')
Note: ('note_on channel=0 note=78 velocity=0 time=19', 'note_on channel=0 note=76 velocity=92 time=47', 'note_on channel=0 note=73 velocity=83 time=1', 'note_on channel=0 note=76 velocity=0 time=46')
Note: ('note_on channel=0 note=76 velocity=92 time=47', 'note_on channel=0 note=73 velocity=83 time=1', 'note_on channel=0 note=76 velocity=0 time=46', 'note_on channel=0 note=73 velocity=0 time=4')
Note: ('note_on channel=0 note=73 velocity=83 time=1', 'note_on channel=0 note=76 velocity=0 time=46', 'note_on channel=0 note=73 velocity=0 time=4', 'note_on channel=0 note=74 velocity=89 time=48')
Note: ('note_on channel=0 note=76 velocity=0 time=46', 'note_on channel=0 note=73 velocity=0 time=4', 'note_on channel=0 note=74 velocity=89 time=48', 'note_on channel=0 note=71 velocity=79 time=8')
Note: ('note_on channel=0 note=73 velocity=0 time=4', 'note_on channel=0 note=74 velocity=89 time=48', 'note_on channel=0 note=71 velocity=79 time=8', 'note_on channel=0 note=71 velocity=0 time=38')
Note: ('note_on channel=0 note=74 velocity=89 time=48', 'note_on channel=0 note=71 velocity=79 time=8', 'note_on channel=0 note=71 velocity=0 time=38', 'note_on channel=0 note=74 velocity=0 time=10')
Note: ('note_on channel=0 note=71 velocity=79 time=8', 'note_on channel=0 note=71 velocity=0 time=38', 'note_on channel=0 note=74 velocity=0 time=10', 'note_on channel=0 note=73 velocity=90 time=48')
Note: ('note_on channel=0 note=71 velocity=0 time=38', 'note_on channel=0 note=74 velocity=0 time=10', 'note_on channel=0 note=73 velocity=90 time=48', 'note_on channel=0 note=69 velocity=81 time=6')
Note: ('note_on channel=0 note=74 velocity=0 time=10', 'note_on channel=0 note=73 velocity=90 time=48', 'note_on channel=0 note=69 velocity=81 time=6', 'note_on channel=0 note=69 velocity=0 time=25')
Note: ('note_on channel=0 note=73 velocity=90 time=48', 'note_on channel=0 note=69 velocity=81 time=6', 'note_on channel=0 note=69 velocity=0 time=25', 'note_on channel=0 note=73 velocity=0 time=28')
Note: ('note_on channel=0 note=69 velocity=81 time=6', 'note_on channel=0 note=69 velocity=0 time=25', 'note_on channel=0 note=73 velocity=0 time=28', 'note_on channel=0 note=67 velocity=79 time=42')
Note: ('note_on channel=0 note=69 velocity=0 time=25', 'note_on channel=0 note=73 velocity=0 time=28', 'note_on channel=0 note=67 velocity=79 time=42', 'note_on channel=0 note=71 velocity=88 time=5')
Note: ('note_on channel=0 note=73 velocity=0 time=28', 'note_on channel=0 note=67 velocity=79 time=42', 'note_on channel=0 note=71 velocity=88 time=5', 'note_on channel=0 note=67 velocity=0 time=25')
Note: ('note_on channel=0 note=67 velocity=79 time=42', 'note_on channel=0 note=71 velocity=88 time=5', 'note_on channel=0 note=67 velocity=0 time=25', 'note_on channel=0 note=71 velocity=0 time=19')
Note: ('note_on channel=0 note=71 velocity=88 time=5', 'note_on channel=0 note=67 velocity=0 time=25', 'note_on channel=0 note=71 velocity=0 time=19', 'note_on channel=0 note=66 velocity=80 time=70')
Note: ('note_on channel=0 note=67 velocity=0 time=25', 'note_on channel=0 note=71 velocity=0 time=19', 'note_on channel=0 note=66 velocity=80 time=70', 'note_on channel=0 note=69 velocity=82 time=6')
Note: ('note_on channel=0 note=71 velocity=0 time=19', 'note_on channel=0 note=66 velocity=80 time=70', 'note_on channel=0 note=69 velocity=82 time=6', 'note_on channel=0 note=66 velocity=0 time=23')
Note: ('note_on channel=0 note=66 velocity=80 time=70', 'note_on channel=0 note=69 velocity=82 time=6', 'note_on channel=0 note=66 velocity=0 time=23', 'note_on channel=0 note=69 velocity=0 time=6')
Note: ('note_on channel=0 note=69 velocity=82 time=6', 'note_on channel=0 note=66 velocity=0 time=23', 'note_on channel=0 note=69 velocity=0 time=6', 'note_on channel=0 note=86 velocity=87 time=2')
Note: ('note_on channel=0 note=66 velocity=0 time=23', 'note_on channel=0 note=69 velocity=0 time=6', 'note_on channel=0 note=86 velocity=87 time=2', 'note_on channel=0 note=66 velocity=61 time=9')
Note: ('note_on channel=0 note=69 velocity=0 time=6', 'note_on channel=0 note=86 velocity=87 time=2', 'note_on channel=0 note=66 velocity=61 time=9', 'note_on channel=0 note=66 velocity=0 time=37')
Note: ('note_on channel=0 note=86 velocity=87 time=2', 'note_on channel=0 note=66 velocity=61 time=9', 'note_on channel=0 note=66 velocity=0 time=37', 'note_on channel=0 note=81 velocity=90 time=34')
Note: ('note_on channel=0 note=66 velocity=61 time=9', 'note_on channel=0 note=66 velocity=0 time=37', 'note_on channel=0 note=81 velocity=90 time=34', 'note_on channel=0 note=86 velocity=0 time=23')
Note: ('note_on channel=0 note=66 velocity=0 time=37', 'note_on channel=0 note=81 velocity=90 time=34', 'note_on channel=0 note=86 velocity=0 time=23', 'note_on channel=0 note=81 velocity=0 time=64')
Note: ('note_on channel=0 note=81 velocity=90 time=34', 'note_on channel=0 note=86 velocity=0 time=23', 'note_on channel=0 note=81 velocity=0 time=64', 'note_on channel=0 note=74 velocity=92 time=6')
Note: ('note_on channel=0 note=86 velocity=0 time=23', 'note_on channel=0 note=81 velocity=0 time=64', 'note_on channel=0 note=74 velocity=92 time=6', 'note_on channel=0 note=67 velocity=60 time=141')
Note: ('note_on channel=0 note=81 velocity=0 time=64', 'note_on channel=0 note=74 velocity=92 time=6', 'note_on channel=0 note=67 velocity=60 time=141', 'note_on channel=0 note=74 velocity=0 time=0')
Note: ('note_on channel=0 note=74 velocity=92 time=6', 'note_on channel=0 note=67 velocity=60 time=141', 'note_on channel=0 note=74 velocity=0 time=0', 'note_on channel=0 note=78 velocity=75 time=2')
Note: ('note_on channel=0 note=67 velocity=60 time=141', 'note_on channel=0 note=74 velocity=0 time=0', 'note_on channel=0 note=78 velocity=75 time=2', 'note_on channel=0 note=78 velocity=0 time=72')
Note: ('note_on channel=0 note=74 velocity=0 time=0', 'note_on channel=0 note=78 velocity=75 time=2', 'note_on channel=0 note=78 velocity=0 time=72', 'note_on channel=0 note=76 velocity=74 time=4')
Note: ('note_on channel=0 note=78 velocity=75 time=2', 'note_on channel=0 note=78 velocity=0 time=72', 'note_on channel=0 note=76 velocity=74 time=4', 'note_on channel=0 note=67 velocity=0 time=18')
Note: ('note_on channel=0 note=78 velocity=0 time=72', 'note_on channel=0 note=76 velocity=74 time=4', 'note_on channel=0 note=67 velocity=0 time=18', 'note_on channel=0 note=76 velocity=0 time=39')
Note: ('note_on channel=0 note=76 velocity=74 time=4', 'note_on channel=0 note=67 velocity=0 time=18', 'note_on channel=0 note=76 velocity=0 time=39', 'note_on channel=0 note=78 velocity=74 time=2')
Note: ('note_on channel=0 note=67 velocity=0 time=18', 'note_on channel=0 note=76 velocity=0 time=39', 'note_on channel=0 note=78 velocity=74 time=2', 'note_on channel=0 note=76 velocity=71 time=11')
Note: ('note_on channel=0 note=76 velocity=0 time=39', 'note_on channel=0 note=78 velocity=74 time=2', 'note_on channel=0 note=76 velocity=71 time=11', 'note_on channel=0 note=78 velocity=0 time=3')
Note: ('note_on channel=0 note=78 velocity=74 time=2', 'note_on channel=0 note=76 velocity=71 time=11', 'note_on channel=0 note=78 velocity=0 time=3', 'note_on channel=0 note=76 velocity=0 time=15')
Note: ('note_on channel=0 note=76 velocity=71 time=11', 'note_on channel=0 note=78 velocity=0 time=3', 'note_on channel=0 note=76 velocity=0 time=15', 'note_on channel=0 note=78 velocity=72 time=2')
Note: ('note_on channel=0 note=78 velocity=0 time=3', 'note_on channel=0 note=76 velocity=0 time=15', 'note_on channel=0 note=78 velocity=72 time=2', 'note_on channel=0 note=76 velocity=71 time=11')
Note: ('note_on channel=0 note=76 velocity=0 time=15', 'note_on channel=0 note=78 velocity=72 time=2', 'note_on channel=0 note=76 velocity=71 time=11', 'note_on channel=0 note=78 velocity=0 time=0')
Note: ('note_on channel=0 note=78 velocity=72 time=2', 'note_on channel=0 note=76 velocity=71 time=11', 'note_on channel=0 note=78 velocity=0 time=0', 'note_on channel=0 note=76 velocity=0 time=15')
Note: ('note_on channel=0 note=76 velocity=71 time=11', 'note_on channel=0 note=78 velocity=0 time=0', 'note_on channel=0 note=76 velocity=0 time=15', 'note_on channel=0 note=78 velocity=70 time=2')
Note: ('note_on channel=0 note=78 velocity=0 time=0', 'note_on channel=0 note=76 velocity=0 time=15', 'note_on channel=0 note=78 velocity=70 time=2', 'note_on channel=0 note=69 velocity=62 time=8')
Note: ('note_on channel=0 note=76 velocity=0 time=15', 'note_on channel=0 note=78 velocity=70 time=2', 'note_on channel=0 note=69 velocity=62 time=8', 'note_on channel=0 note=69 velocity=0 time=10')
Note: ('note_on channel=0 note=78 velocity=70 time=2', 'note_on channel=0 note=69 velocity=62 time=8', 'note_on channel=0 note=69 velocity=0 time=10', 'note_on channel=0 note=76 velocity=67 time=3')
Note: ('note_on channel=0 note=69 velocity=62 time=8', 'note_on channel=0 note=69 velocity=0 time=10', 'note_on channel=0 note=76 velocity=67 time=3', 'note_on channel=0 note=78 velocity=0 time=2')
Note: ('note_on channel=0 note=69 velocity=0 time=10', 'note_on channel=0 note=76 velocity=67 time=3', 'note_on channel=0 note=78 velocity=0 time=2', 'note_on channel=0 note=76 velocity=0 time=51')
Note: ('note_on channel=0 note=76 velocity=67 time=3', 'note_on channel=0 note=78 velocity=0 time=2', 'note_on channel=0 note=76 velocity=0 time=51', 'note_on channel=0 note=78 velocity=72 time=8')
Note: ('note_on channel=0 note=76 velocity=68 time=10',)
Note: ('note_on channel=0 note=78 velocity=0 time=0',)
Note: ('note_on channel=0 note=71 velocity=0 time=2',)
Note: ('note_on channel=0 note=69 velocity=0 time=51',)
Note: ('note_on channel=0 note=71 velocity=65 time=0',)
Note: ('note_on channel=0 note=62 velocity=70 time=33',)
Note: ('note_on channel=0 note=69 velocity=69 time=25',)
Note: ('note_on channel=0 note=71 velocity=0 time=8',)
Note: ('note_on channel=0 note=78 velocity=0 time=2',)
Note: ('note_on channel=0 note=74 velocity=0 time=95',)
Note: ('note_on channel=0 note=69 velocity=62 time=21',)
Note: ('note_on channel=0 note=81 velocity=104 time=1',)
Note: ('note_on channel=0 note=60 velocity=71 time=2',)
Note: ('note_on channel=0 note=65 velocity=0 time=7',)
Note: ('note_on channel=0 note=61 velocity=53 time=112',)
Note: ('note_on channel=0 note=64 velocity=53 time=2',)
Note: ('note_on channel=0 note=59 velocity=0 time=12',)
Note: ('note_on channel=0 note=52 velocity=0 time=46',)
Note: ('note_on channel=0 note=59 velocity=42 time=73',)
Note: ('note_on channel=0 note=56 velocity=0 time=9',)
Note: ('note_on channel=0 note=57 velocity=60 time=11',)
Note: ('note_on channel=0 note=33 velocity=41 time=11',)
Note: ('note_on channel=0 note=33 velocity=0 time=5',)
Note: ('note_on channel=0 note=57 velocity=0 time=0',)
Note: ('note_on channel=0 note=74 velocity=0 time=5',)
Note: ('note_on channel=0 note=58 velocity=0 time=2',)
Note: ('note_on channel=0 note=46 velocity=0 time=4',)
Note: ('note_on channel=0 note=74 velocity=0 time=18',)
Note: ('note_on channel=0 note=68 velocity=77 time=38',)
Note: ('note_on channel=0 note=68 velocity=0 time=22',)
Note: ('note_on channel=0 note=71 velocity=0 time=56',)
Note: ('note_on channel=0 note=74 velocity=87 time=7',)
Note: ('note_on channel=0 note=47 velocity=94 time=12',)
Note: ('note_on channel=0 note=69 velocity=75 time=32',)
Note: ('note_on channel=0 note=54 velocity=82 time=3',)
Note: ('note_on channel=0 note=69 velocity=0 time=39',)
Note: ('note_on channel=0 note=38 velocity=76 time=10',)
Note: ('note_on channel=0 note=74 velocity=68 time=2',)
Note: ('note_on channel=0 note=64 velocity=0 time=5',)
Note: ('note_on channel=0 note=71 velocity=0 time=81',)
Note: ('note_on channel=0 note=68 velocity=60 time=8',)
Note: ('note_on channel=0 note=68 velocity=0 time=11',)
Note: ('note_on channel=0 note=71 velocity=0 time=28',)
Note: ('note_on channel=0 note=52 velocity=61 time=39',)
Note: ('note_on channel=0 note=70 velocity=83 time=68',)
Note: ('note_on channel=0 note=56 velocity=0 time=16',)
Note: ('note_on channel=0 note=70 velocity=0 time=74',)
Note: ('note_on channel=0 note=49 velocity=63 time=27',)
Note: ('note_on channel=0 note=52 velocity=0 time=53',)
Note: ('note_on channel=0 note=69 velocity=0 time=54',)
Note: ('note_on channel=0 note=73 velocity=40 time=621',)
Note: ('note_on channel=0 note=59 velocity=29 time=89',)
Note: ('note_on channel=0 note=52 velocity=30 time=10',)
Note: ('note_on channel=0 note=73 velocity=0 time=3',)
Note: ('note_on channel=0 note=64 velocity=0 time=15',)
Note: ('note_on channel=0 note=76 velocity=0 time=15',)
Note: ('note_on channel=0 note=47 velocity=0 time=3',)
Note: ('note_on channel=0 note=68 velocity=87 time=247',)
Note: ('note_on channel=0 note=68 velocity=87 time=247', 'note_on channel=0 note=59 velocity=80 time=3')
Note: ('note_on channel=0 note=59 velocity=80 time=3', 'note_on channel=0 note=33 velocity=96 time=108')
Note: ('note_on channel=0 note=33 velocity=96 time=108', 'note_on channel=0 note=33 velocity=0 time=0')
Note: ('note_on channel=0 note=33 velocity=0 time=0', 'note_on channel=0 note=59 velocity=0 time=85')
Note: ('note_on channel=0 note=59 velocity=0 time=85', 'note_on channel=0 note=45 velocity=75 time=92')
Note: ('note_on channel=0 note=45 velocity=75 time=92', 'note_on channel=0 note=52 velocity=73 time=196')
Note: ('note_on channel=0 note=52 velocity=73 time=196', 'note_on channel=0 note=45 velocity=0 time=71')
Note: ('note_on channel=0 note=45 velocity=0 time=71', 'note_on channel=0 note=45 velocity=66 time=161')
Note: ('note_on channel=0 note=45 velocity=66 time=161', 'note_on channel=0 note=69 velocity=78 time=0')
Note: ('note_on channel=0 note=69 velocity=78 time=0', 'note_on channel=0 note=60 velocity=73 time=8')
Note: ('note_on channel=0 note=60 velocity=73 time=8', 'note_on channel=0 note=52 velocity=0 time=20')
Note: ('note_on channel=0 note=52 velocity=0 time=20', 'note_on channel=0 note=68 velocity=0 time=32')
Note: ('note_on channel=0 note=68 velocity=0 time=32', 'note_on channel=0 note=51 velocity=71 time=181')
Note: ('note_on channel=0 note=51 velocity=71 time=181', 'note_on channel=0 note=54 velocity=68 time=69')
Note: ('note_on channel=0 note=54 velocity=68 time=69', 'note_on channel=0 note=54 velocity=0 time=41')
Note: ('note_on channel=0 note=54 velocity=0 time=41', 'note_on channel=0 note=51 velocity=0 time=9')
Note: ('note_on channel=0 note=51 velocity=0 time=9', 'note_on channel=0 note=45 velocity=0 time=17')
Note: ('note_on channel=0 note=45 velocity=0 time=17', 'note_on channel=0 note=60 velocity=0 time=18')
Note: ('note_on channel=0 note=69 velocity=0 time=67',)
Note: ('note_on channel=0 note=40 velocity=54 time=251',)
Note: ('note_on channel=0 note=45 velocity=47 time=68',)
Note: ('note_on channel=0 note=60 velocity=69 time=158',)
Note: ('note_on channel=0 note=72 velocity=70 time=7',)
Note: ('note_on channel=0 note=69 velocity=48 time=28',)
Note: ('note_on channel=0 note=69 velocity=0 time=129',)
Note: ('note_on channel=0 note=40 velocity=0 time=54',)
Note: ('note_on channel=0 note=45 velocity=0 time=25',)
Note: ('note_on channel=0 note=48 velocity=46 time=7',)
Note: ('note_on channel=0 note=66 velocity=0 time=10',)
Note: ('note_on channel=0 note=61 velocity=0 time=5',)
Note: ('note_on channel=0 note=57 velocity=0 time=10',)
Note: ('note_on channel=0 note=58 velocity=0 time=19',)
Note: ('note_on channel=0 note=64 velocity=57 time=77',)
Note: ('note_on channel=0 note=61 velocity=61 time=63',)
Note: ('note_on channel=0 note=64 velocity=0 time=41',)
Note: ('note_on channel=0 note=61 velocity=0 time=28',)
Note: ('note_on channel=0 note=76 velocity=0 time=30',)
Note: ('note_on channel=0 note=52 velocity=0 time=19',)
Note: ('note_on channel=0 note=64 velocity=80 time=93',)
Note: ('note_on channel=0 note=64 velocity=0 time=63',)
Note: ('note_on channel=0 note=59 velocity=78 time=144',)
Note: ('note_on channel=0 note=52 velocity=69 time=3',)
Note: ('note_on channel=0 note=52 velocity=0 time=12',)
Note: ('note_on channel=0 note=83 velocity=62 time=116',)
Note: ('note_on channel=0 note=50 velocity=0 time=26',)
Note: ('note_on channel=0 note=52 velocity=0 time=3',)
Note: ('note_on channel=0 note=81 velocity=78 time=123',)
Note: ('note_on channel=0 note=72 velocity=72 time=2',)
Note: ('note_on channel=0 note=77 velocity=69 time=2',)
Note: ('note_on channel=0 note=53 velocity=62 time=19',)
Note: ('note_on channel=0 note=48 velocity=53 time=1',)
Note: ('note_on channel=0 note=45 velocity=57 time=3',)
Note: ('note_on channel=0 note=45 velocity=0 time=103',)
Note: ('note_on channel=0 note=48 velocity=0 time=24',)
Note: ('note_on channel=0 note=81 velocity=0 time=26',)
Note: ('note_on channel=0 note=56 velocity=71 time=4',)
Note: ('note_on channel=0 note=71 velocity=71 time=2',)
Note: ('note_on channel=0 note=77 velocity=0 time=21',)
Note: ('note_on channel=0 note=53 velocity=0 time=10',)
Note: ('note_on channel=0 note=72 velocity=0 time=36',)
Note: ('note_on channel=0 note=56 velocity=0 time=24',)
Note: ('note_on channel=0 note=50 velocity=0 time=1',)
Note: ('note_on channel=0 note=64 velocity=72 time=0',)
Note: ('note_on channel=0 note=66 velocity=70 time=15',)
Note: ('note_on channel=0 note=64 velocity=0 time=21',)
Note: ('note_on channel=0 note=70 velocity=0 time=3',)
Note: ('note_on channel=0 note=46 velocity=0 time=30',)
Note: ('note_on channel=0 note=70 velocity=74 time=97',)
Note: ('note_on channel=0 note=70 velocity=74 time=97', 'note_on channel=0 note=70 velocity=0 time=171')
Note: ('note_on channel=0 note=70 velocity=0 time=171', 'note_on channel=0 note=70 velocity=78 time=224')
Note: ('note_on channel=0 note=70 velocity=78 time=224', 'note_on channel=0 note=56 velocity=55 time=19')
Note: ('note_on channel=0 note=56 velocity=55 time=19', 'note_on channel=0 note=58 velocity=46 time=1')
Note: ('note_on channel=0 note=58 velocity=46 time=1', 'note_on channel=0 note=62 velocity=57 time=0')
Note: ('note_on channel=0 note=62 velocity=57 time=0', 'note_on channel=0 note=46 velocity=64 time=71')
Note: ('note_on channel=0 note=46 velocity=64 time=71', 'note_on channel=0 note=34 velocity=58 time=19')
Note: ('note_on channel=0 note=34 velocity=58 time=19', 'note_on channel=0 note=34 velocity=0 time=16')
Note: ('note_on channel=0 note=34 velocity=0 time=16', 'note_on channel=0 note=63 velocity=69 time=10')
Note: ('note_on channel=0 note=63 velocity=69 time=10', 'note_on channel=0 note=70 velocity=0 time=6')
Note: ('note_on channel=0 note=70 velocity=0 time=6', 'note_on channel=0 note=46 velocity=0 time=27')
Note: ('note_on channel=0 note=46 velocity=0 time=27', 'note_on channel=0 note=58 velocity=0 time=119')
Note: ('note_on channel=0 note=58 velocity=0 time=119', 'note_on channel=0 note=56 velocity=0 time=10')
Note: ('note_on channel=0 note=56 velocity=0 time=10', 'note_on channel=0 note=65 velocity=61 time=44')
Note: ('note_on channel=0 note=65 velocity=61 time=44', 'note_on channel=0 note=62 velocity=0 time=19')
Note: ('note_on channel=0 note=62 velocity=0 time=19', 'note_on channel=0 note=63 velocity=0 time=28')
Note: ('note_on channel=0 note=63 velocity=0 time=28', 'note_on channel=0 note=65 velocity=0 time=10')
Note: ('note_on channel=0 note=65 velocity=0 time=10', 'note_on channel=0 note=63 velocity=71 time=210')
Note: ('note_on channel=0 note=63 velocity=71 time=210', 'note_on channel=0 note=70 velocity=72 time=0')
Note: ('note_on channel=0 note=70 velocity=72 time=0', 'note_on channel=0 note=58 velocity=65 time=5')
Note: ('note_on channel=0 note=58 velocity=65 time=5', 'note_on channel=0 note=46 velocity=55 time=12')
Note: ('note_on channel=0 note=46 velocity=55 time=12', 'note_on channel=0 note=55 velocity=53 time=1')
Note: ('note_on channel=0 note=55 velocity=53 time=1', 'note_on channel=0 note=51 velocity=56 time=4')
Note: ('note_on channel=0 note=51 velocity=56 time=4', 'note_on channel=0 note=70 velocity=0 time=24')
Note: ('note_on channel=0 note=70 velocity=0 time=24', 'note_on channel=0 note=58 velocity=0 time=35')
Note: ('note_on channel=0 note=58 velocity=0 time=35', 'note_on channel=0 note=63 velocity=0 time=13')
Note: ('note_on channel=0 note=63 velocity=0 time=13', 'note_on channel=0 note=55 velocity=0 time=131')
Note: ('note_on channel=0 note=55 velocity=0 time=131', 'note_on channel=0 note=46 velocity=0 time=2')
Note: ('note_on channel=0 note=46 velocity=0 time=2', 'note_on channel=0 note=75 velocity=89 time=23')
Note: ('note_on channel=0 note=75 velocity=89 time=23', 'note_on channel=0 note=51 velocity=0 time=15')
Note: ('note_on channel=0 note=46 velocity=0 time=2', 'note_on channel=0 note=75 velocity=89 time=23', 'note_on channel=0 note=51 velocity=0 time=15', 'note_on channel=0 note=75 velocity=0 time=119')
Note: ('note_on channel=0 note=75 velocity=89 time=23', 'note_on channel=0 note=51 velocity=0 time=15', 'note_on channel=0 note=75 velocity=0 time=119', 'note_on channel=0 note=43 velocity=49 time=130')
Note: ('note_on channel=0 note=51 velocity=0 time=15', 'note_on channel=0 note=75 velocity=0 time=119', 'note_on channel=0 note=43 velocity=49 time=130', 'note_on channel=0 note=51 velocity=70 time=29')
Note: ('note_on channel=0 note=75 velocity=0 time=119', 'note_on channel=0 note=43 velocity=49 time=130', 'note_on channel=0 note=51 velocity=70 time=29', 'note_on channel=0 note=58 velocity=70 time=4')
Note: ('note_on channel=0 note=43 velocity=49 time=130', 'note_on channel=0 note=51 velocity=70 time=29', 'note_on channel=0 note=58 velocity=70 time=4', 'note_on channel=0 note=75 velocity=90 time=42')
Note: ('note_on channel=0 note=51 velocity=70 time=29', 'note_on channel=0 note=58 velocity=70 time=4', 'note_on channel=0 note=75 velocity=90 time=42', 'note_on channel=0 note=63 velocity=76 time=7')
Note: ('note_on channel=0 note=58 velocity=70 time=4', 'note_on channel=0 note=75 velocity=90 time=42', 'note_on channel=0 note=63 velocity=76 time=7', 'note_on channel=0 note=70 velocity=74 time=2')
Note: ('note_on channel=0 note=75 velocity=90 time=42', 'note_on channel=0 note=63 velocity=76 time=7', 'note_on channel=0 note=70 velocity=74 time=2', 'note_on channel=0 note=43 velocity=0 time=23')
Note: ('note_on channel=0 note=63 velocity=76 time=7', 'note_on channel=0 note=70 velocity=74 time=2', 'note_on channel=0 note=43 velocity=0 time=23', 'note_on channel=0 note=51 velocity=0 time=1')
Note: ('note_on channel=0 note=70 velocity=74 time=2', 'note_on channel=0 note=43 velocity=0 time=23', 'note_on channel=0 note=51 velocity=0 time=1', 'note_on channel=0 note=58 velocity=0 time=59')
Note: ('note_on channel=0 note=43 velocity=0 time=23', 'note_on channel=0 note=51 velocity=0 time=1', 'note_on channel=0 note=58 velocity=0 time=59', 'note_on channel=0 note=63 velocity=0 time=27')
Note: ('note_on channel=0 note=51 velocity=0 time=1', 'note_on channel=0 note=58 velocity=0 time=59', 'note_on channel=0 note=63 velocity=0 time=27', 'note_on channel=0 note=60 velocity=68 time=39')
Note: ('note_on channel=0 note=58 velocity=0 time=59', 'note_on channel=0 note=63 velocity=0 time=27', 'note_on channel=0 note=60 velocity=68 time=39', 'note_on channel=0 note=72 velocity=83 time=3')
Note: ('note_on channel=0 note=63 velocity=0 time=27', 'note_on channel=0 note=60 velocity=68 time=39', 'note_on channel=0 note=72 velocity=83 time=3', 'note_on channel=0 note=75 velocity=0 time=28')
Note: ('note_on channel=0 note=60 velocity=68 time=39', 'note_on channel=0 note=72 velocity=83 time=3', 'note_on channel=0 note=75 velocity=0 time=28', 'note_on channel=0 note=60 velocity=0 time=128')
Note: ('note_on channel=0 note=72 velocity=83 time=3', 'note_on channel=0 note=75 velocity=0 time=28', 'note_on channel=0 note=60 velocity=0 time=128', 'note_on channel=0 note=61 velocity=69 time=3')
Note: ('note_on channel=0 note=75 velocity=0 time=28', 'note_on channel=0 note=60 velocity=0 time=128', 'note_on channel=0 note=61 velocity=69 time=3', 'note_on channel=0 note=73 velocity=81 time=6')
Note: ('note_on channel=0 note=60 velocity=0 time=128', 'note_on channel=0 note=61 velocity=69 time=3', 'note_on channel=0 note=73 velocity=81 time=6', 'note_on channel=0 note=61 velocity=0 time=29')
Note: ('note_on channel=0 note=61 velocity=69 time=3', 'note_on channel=0 note=73 velocity=81 time=6', 'note_on channel=0 note=61 velocity=0 time=29', 'note_on channel=0 note=72 velocity=0 time=13')
Note: ('note_on channel=0 note=73 velocity=81 time=6', 'note_on channel=0 note=61 velocity=0 time=29', 'note_on channel=0 note=72 velocity=0 time=13', 'note_on channel=0 note=70 velocity=0 time=6')
Note: ('note_on channel=0 note=61 velocity=0 time=29', 'note_on channel=0 note=72 velocity=0 time=13', 'note_on channel=0 note=70 velocity=0 time=6', 'note_on channel=0 note=73 velocity=0 time=29')
Note: ('note_on channel=0 note=72 velocity=0 time=13', 'note_on channel=0 note=70 velocity=0 time=6', 'note_on channel=0 note=73 velocity=0 time=29', 'note_on channel=0 note=48 velocity=78 time=54')
Note: ('note_on channel=0 note=70 velocity=0 time=6', 'note_on channel=0 note=73 velocity=0 time=29', 'note_on channel=0 note=48 velocity=78 time=54', 'note_on channel=0 note=55 velocity=59 time=35')
Note: ('note_on channel=0 note=73 velocity=0 time=29', 'note_on channel=0 note=48 velocity=78 time=54', 'note_on channel=0 note=55 velocity=59 time=35', 'note_on channel=0 note=58 velocity=73 time=21')
Note: ('note_on channel=0 note=48 velocity=78 time=54', 'note_on channel=0 note=55 velocity=59 time=35', 'note_on channel=0 note=58 velocity=73 time=21', 'note_on channel=0 note=60 velocity=81 time=24')
Note: ('note_on channel=0 note=55 velocity=59 time=35', 'note_on channel=0 note=58 velocity=73 time=21', 'note_on channel=0 note=60 velocity=81 time=24', 'note_on channel=0 note=76 velocity=82 time=8')
Note: ('note_on channel=0 note=58 velocity=73 time=21', 'note_on channel=0 note=60 velocity=81 time=24', 'note_on channel=0 note=76 velocity=82 time=8', 'note_on channel=0 note=64 velocity=75 time=6')
Note: ('note_on channel=0 note=60 velocity=81 time=24', 'note_on channel=0 note=76 velocity=82 time=8', 'note_on channel=0 note=64 velocity=75 time=6', 'note_on channel=0 note=72 velocity=75 time=2')
Note: ('note_on channel=0 note=76 velocity=82 time=8', 'note_on channel=0 note=64 velocity=75 time=6', 'note_on channel=0 note=72 velocity=75 time=2', 'note_on channel=0 note=60 velocity=0 time=5')
Note: ('note_on channel=0 note=64 velocity=75 time=6', 'note_on channel=0 note=72 velocity=75 time=2', 'note_on channel=0 note=60 velocity=0 time=5', 'note_on channel=0 note=58 velocity=0 time=12')
Note: ('note_on channel=0 note=72 velocity=75 time=2', 'note_on channel=0 note=60 velocity=0 time=5', 'note_on channel=0 note=58 velocity=0 time=12', 'note_on channel=0 note=55 velocity=0 time=6')
Note: ('note_on channel=0 note=60 velocity=0 time=5', 'note_on channel=0 note=58 velocity=0 time=12', 'note_on channel=0 note=55 velocity=0 time=6', 'note_on channel=0 note=64 velocity=0 time=2')
Note: ('note_on channel=0 note=58 velocity=0 time=12', 'note_on channel=0 note=55 velocity=0 time=6', 'note_on channel=0 note=64 velocity=0 time=2', 'note_on channel=0 note=72 velocity=0 time=5')
Note: ('note_on channel=0 note=55 velocity=0 time=6', 'note_on channel=0 note=64 velocity=0 time=2', 'note_on channel=0 note=72 velocity=0 time=5', 'note_on channel=0 note=48 velocity=0 time=12')
Note: ('note_on channel=0 note=64 velocity=0 time=2', 'note_on channel=0 note=72 velocity=0 time=5', 'note_on channel=0 note=48 velocity=0 time=12', 'note_on channel=0 note=76 velocity=0 time=15')
Note: ('note_on channel=0 note=72 velocity=0 time=5', 'note_on channel=0 note=48 velocity=0 time=12', 'note_on channel=0 note=76 velocity=0 time=15', 'note_on channel=0 note=77 velocity=82 time=107')
Note: ('note_on channel=0 note=48 velocity=0 time=12', 'note_on channel=0 note=76 velocity=0 time=15', 'note_on channel=0 note=77 velocity=82 time=107', 'note_on channel=0 note=74 velocity=84 time=4')
Note: ('note_on channel=0 note=76 velocity=0 time=15', 'note_on channel=0 note=77 velocity=82 time=107', 'note_on channel=0 note=74 velocity=84 time=4', 'note_on channel=0 note=65 velocity=76 time=2')
Note: ('note_on channel=0 note=77 velocity=82 time=107', 'note_on channel=0 note=74 velocity=84 time=4', 'note_on channel=0 note=65 velocity=76 time=2', 'note_on channel=0 note=36 velocity=86 time=65')
Note: ('note_on channel=0 note=74 velocity=84 time=4', 'note_on channel=0 note=65 velocity=76 time=2', 'note_on channel=0 note=36 velocity=86 time=65', 'note_on channel=0 note=65 velocity=0 time=1')
Note: ('note_on channel=0 note=65 velocity=76 time=2', 'note_on channel=0 note=36 velocity=86 time=65', 'note_on channel=0 note=65 velocity=0 time=1', 'note_on channel=0 note=74 velocity=0 time=2')
Note: ('note_on channel=0 note=65 velocity=76 time=2', 'note_on channel=0 note=36 velocity=86 time=65', 'note_on channel=0 note=65 velocity=0 time=1', 'note_on channel=0 note=74 velocity=0 time=2', 'note_on channel=0 note=77 velocity=0 time=21')
Note: ('note_on channel=0 note=36 velocity=86 time=65', 'note_on channel=0 note=65 velocity=0 time=1', 'note_on channel=0 note=74 velocity=0 time=2', 'note_on channel=0 note=77 velocity=0 time=21', 'note_on channel=0 note=36 velocity=0 time=4')
Note: ('note_on channel=0 note=65 velocity=0 time=1', 'note_on channel=0 note=74 velocity=0 time=2', 'note_on channel=0 note=77 velocity=0 time=21', 'note_on channel=0 note=36 velocity=0 time=4', 'note_on channel=0 note=79 velocity=92 time=68')
Note: ('note_on channel=0 note=74 velocity=0 time=2', 'note_on channel=0 note=77 velocity=0 time=21', 'note_on channel=0 note=36 velocity=0 time=4', 'note_on channel=0 note=79 velocity=92 time=68', 'note_on channel=0 note=67 velocity=83 time=8')
Note: ('note_on channel=0 note=77 velocity=0 time=21', 'note_on channel=0 note=36 velocity=0 time=4', 'note_on channel=0 note=79 velocity=92 time=68', 'note_on channel=0 note=67 velocity=83 time=8', 'note_on channel=0 note=76 velocity=70 time=9')
Note: ('note_on channel=0 note=36 velocity=0 time=4', 'note_on channel=0 note=79 velocity=92 time=68', 'note_on channel=0 note=67 velocity=83 time=8', 'note_on channel=0 note=76 velocity=70 time=9', 'note_on channel=0 note=76 velocity=0 time=33')
Note: ('note_on channel=0 note=74 velocity=92 time=786', 'note_on channel=0 note=74 velocity=0 time=48', 'note_on channel=0 note=81 velocity=93 time=353', 'note_on channel=0 note=57 velocity=79 time=373', 'note_on channel=0 note=57 velocity=0 time=49')
Note: ('note_on channel=0 note=74 velocity=0 time=48', 'note_on channel=0 note=81 velocity=93 time=353', 'note_on channel=0 note=57 velocity=79 time=373', 'note_on channel=0 note=57 velocity=0 time=49', 'note_on channel=0 note=62 velocity=86 time=337')
Note: ('note_on channel=0 note=81 velocity=93 time=353', 'note_on channel=0 note=57 velocity=79 time=373', 'note_on channel=0 note=57 velocity=0 time=49', 'note_on channel=0 note=62 velocity=86 time=337', 'note_on channel=0 note=62 velocity=0 time=12')
Note: ('note_on channel=0 note=57 velocity=79 time=373', 'note_on channel=0 note=57 velocity=0 time=49', 'note_on channel=0 note=62 velocity=86 time=337', 'note_on channel=0 note=62 velocity=0 time=12', 'note_on channel=0 note=81 velocity=0 time=0')
Note: ('note_on channel=0 note=57 velocity=0 time=49', 'note_on channel=0 note=62 velocity=86 time=337', 'note_on channel=0 note=62 velocity=0 time=12', 'note_on channel=0 note=81 velocity=0 time=0', 'note_on channel=0 note=78 velocity=97 time=304')
Note: ('note_on channel=0 note=62 velocity=86 time=337', 'note_on channel=0 note=62 velocity=0 time=12', 'note_on channel=0 note=81 velocity=0 time=0', 'note_on channel=0 note=78 velocity=97 time=304', 'note_on channel=0 note=74 velocity=82 time=7')
Note: ('note_on channel=0 note=62 velocity=0 time=12', 'note_on channel=0 note=81 velocity=0 time=0', 'note_on channel=0 note=78 velocity=97 time=304', 'note_on channel=0 note=74 velocity=82 time=7', 'note_on channel=0 note=74 velocity=0 time=319')
Note: ('note_on channel=0 note=81 velocity=0 time=0', 'note_on channel=0 note=78 velocity=97 time=304', 'note_on channel=0 note=74 velocity=82 time=7', 'note_on channel=0 note=74 velocity=0 time=319', 'note_on channel=0 note=73 velocity=73 time=36')
Note: ('note_on channel=0 note=78 velocity=97 time=304', 'note_on channel=0 note=74 velocity=82 time=7', 'note_on channel=0 note=74 velocity=0 time=319', 'note_on channel=0 note=73 velocity=73 time=36', 'note_on channel=0 note=76 velocity=79 time=7')
Note: ('note_on channel=0 note=74 velocity=82 time=7', 'note_on channel=0 note=74 velocity=0 time=319', 'note_on channel=0 note=73 velocity=73 time=36', 'note_on channel=0 note=76 velocity=79 time=7', 'note_on channel=0 note=78 velocity=0 time=2')
Note: ('note_on channel=0 note=74 velocity=0 time=319', 'note_on channel=0 note=73 velocity=73 time=36', 'note_on channel=0 note=76 velocity=79 time=7', 'note_on channel=0 note=78 velocity=0 time=2', 'note_on channel=0 note=73 velocity=0 time=25')
Note: ('note_on channel=0 note=73 velocity=73 time=36', 'note_on channel=0 note=76 velocity=79 time=7', 'note_on channel=0 note=78 velocity=0 time=2', 'note_on channel=0 note=73 velocity=0 time=25', 'note_on channel=0 note=76 velocity=0 time=11')
Note: ('note_on channel=0 note=76 velocity=79 time=7', 'note_on channel=0 note=78 velocity=0 time=2', 'note_on channel=0 note=73 velocity=0 time=25', 'note_on channel=0 note=76 velocity=0 time=11', 'note_on channel=0 note=71 velocity=78 time=65')
Note: ('note_on channel=0 note=78 velocity=0 time=2', 'note_on channel=0 note=73 velocity=0 time=25', 'note_on channel=0 note=76 velocity=0 time=11', 'note_on channel=0 note=71 velocity=78 time=65', 'note_on channel=0 note=74 velocity=72 time=4')
Note: ('note_on channel=0 note=73 velocity=0 time=25', 'note_on channel=0 note=76 velocity=0 time=11', 'note_on channel=0 note=71 velocity=78 time=65', 'note_on channel=0 note=74 velocity=72 time=4', 'note_on channel=0 note=71 velocity=0 time=26')
Note: ('note_on channel=0 note=76 velocity=0 time=11', 'note_on channel=0 note=71 velocity=78 time=65', 'note_on channel=0 note=74 velocity=72 time=4', 'note_on channel=0 note=71 velocity=0 time=26', 'note_on channel=0 note=74 velocity=0 time=11')
Note: ('note_on channel=0 note=71 velocity=78 time=65', 'note_on channel=0 note=74 velocity=72 time=4', 'note_on channel=0 note=71 velocity=0 time=26', 'note_on channel=0 note=74 velocity=0 time=11', 'note_on channel=0 note=73 velocity=79 time=54')
Note: ('note_on channel=0 note=74 velocity=72 time=4', 'note_on channel=0 note=71 velocity=0 time=26', 'note_on channel=0 note=74 velocity=0 time=11', 'note_on channel=0 note=73 velocity=79 time=54', 'note_on channel=0 note=69 velocity=76 time=9')
Note: ('note_on channel=0 note=71 velocity=0 time=26', 'note_on channel=0 note=74 velocity=0 time=11', 'note_on channel=0 note=73 velocity=79 time=54', 'note_on channel=0 note=69 velocity=76 time=9', 'note_on channel=0 note=69 velocity=0 time=24')
Note: ('note_on channel=0 note=74 velocity=0 time=11', 'note_on channel=0 note=73 velocity=79 time=54', 'note_on channel=0 note=69 velocity=76 time=9', 'note_on channel=0 note=69 velocity=0 time=24', 'note_on channel=0 note=73 velocity=0 time=22')
Note: ('note_on channel=0 note=73 velocity=79 time=54', 'note_on channel=0 note=69 velocity=76 time=9', 'note_on channel=0 note=69 velocity=0 time=24', 'note_on channel=0 note=73 velocity=0 time=22', 'note_on channel=0 note=71 velocity=83 time=54')
Note: ('note_on channel=0 note=69 velocity=76 time=9', 'note_on channel=0 note=69 velocity=0 time=24', 'note_on channel=0 note=73 velocity=0 time=22', 'note_on channel=0 note=71 velocity=83 time=54', 'note_on channel=0 note=67 velocity=78 time=1')
Note: ('note_on channel=0 note=69 velocity=0 time=24', 'note_on channel=0 note=73 velocity=0 time=22', 'note_on channel=0 note=71 velocity=83 time=54', 'note_on channel=0 note=67 velocity=78 time=1', 'note_on channel=0 note=67 velocity=0 time=29')
Note: ('note_on channel=0 note=73 velocity=0 time=22', 'note_on channel=0 note=71 velocity=83 time=54', 'note_on channel=0 note=67 velocity=78 time=1', 'note_on channel=0 note=67 velocity=0 time=29', 'note_on channel=0 note=71 velocity=0 time=14')
Note: ('note_on channel=0 note=71 velocity=83 time=54', 'note_on channel=0 note=67 velocity=78 time=1', 'note_on channel=0 note=67 velocity=0 time=29', 'note_on channel=0 note=71 velocity=0 time=14', 'note_on channel=0 note=69 velocity=77 time=60')
Note: ('note_on channel=0 note=67 velocity=78 time=1', 'note_on channel=0 note=67 velocity=0 time=29', 'note_on channel=0 note=71 velocity=0 time=14', 'note_on channel=0 note=69 velocity=77 time=60', 'note_on channel=0 note=66 velocity=76 time=1')
Note: ('note_on channel=0 note=67 velocity=0 time=29', 'note_on channel=0 note=71 velocity=0 time=14', 'note_on channel=0 note=69 velocity=77 time=60', 'note_on channel=0 note=66 velocity=76 time=1', 'note_on channel=0 note=66 velocity=0 time=27')
Note: ('note_on channel=0 note=71 velocity=0 time=14', 'note_on channel=0 note=69 velocity=77 time=60', 'note_on channel=0 note=66 velocity=76 time=1', 'note_on channel=0 note=66 velocity=0 time=27', 'note_on channel=0 note=69 velocity=0 time=11')
Note: ('note_on channel=0 note=69 velocity=77 time=60', 'note_on channel=0 note=66 velocity=76 time=1', 'note_on channel=0 note=66 velocity=0 time=27', 'note_on channel=0 note=69 velocity=0 time=11', 'note_on channel=0 note=64 velocity=73 time=63')
Note: ('note_on channel=0 note=66 velocity=76 time=1', 'note_on channel=0 note=66 velocity=0 time=27', 'note_on channel=0 note=69 velocity=0 time=11', 'note_on channel=0 note=64 velocity=73 time=63', 'note_on channel=0 note=67 velocity=72 time=0')
Note: ('note_on channel=0 note=66 velocity=0 time=27', 'note_on channel=0 note=69 velocity=0 time=11', 'note_on channel=0 note=64 velocity=73 time=63', 'note_on channel=0 note=67 velocity=72 time=0', 'note_on channel=0 note=64 velocity=0 time=37')
Note: ('note_on channel=0 note=69 velocity=0 time=11', 'note_on channel=0 note=64 velocity=73 time=63', 'note_on channel=0 note=67 velocity=72 time=0', 'note_on channel=0 note=64 velocity=0 time=37', 'note_on channel=0 note=67 velocity=0 time=22')
Note: ('note_on channel=0 note=64 velocity=73 time=63', 'note_on channel=0 note=67 velocity=72 time=0', 'note_on channel=0 note=64 velocity=0 time=37', 'note_on channel=0 note=67 velocity=0 time=22', 'note_on channel=0 note=62 velocity=80 time=66')
Note: ('note_on channel=0 note=67 velocity=72 time=0', 'note_on channel=0 note=64 velocity=0 time=37', 'note_on channel=0 note=67 velocity=0 time=22', 'note_on channel=0 note=62 velocity=80 time=66', 'note_on channel=0 note=66 velocity=85 time=0')
Note: ('note_on channel=0 note=64 velocity=0 time=37', 'note_on channel=0 note=67 velocity=0 time=22', 'note_on channel=0 note=62 velocity=80 time=66', 'note_on channel=0 note=66 velocity=85 time=0', 'note_on channel=0 note=62 velocity=0 time=21')
Note: ('note_on channel=0 note=67 velocity=0 time=22', 'note_on channel=0 note=62 velocity=80 time=66', 'note_on channel=0 note=66 velocity=85 time=0', 'note_on channel=0 note=62 velocity=0 time=21', 'note_on channel=0 note=66 velocity=0 time=7')
Note: ('note_on channel=0 note=62 velocity=80 time=66', 'note_on channel=0 note=66 velocity=85 time=0', 'note_on channel=0 note=62 velocity=0 time=21', 'note_on channel=0 note=66 velocity=0 time=7', 'note_on channel=0 note=81 velocity=96 time=1')
Note: ('note_on channel=0 note=66 velocity=85 time=0', 'note_on channel=0 note=62 velocity=0 time=21', 'note_on channel=0 note=66 velocity=0 time=7', 'note_on channel=0 note=81 velocity=96 time=1', 'note_on channel=0 note=78 velocity=81 time=7')
Note: ('note_on channel=0 note=62 velocity=0 time=21', 'note_on channel=0 note=66 velocity=0 time=7', 'note_on channel=0 note=81 velocity=96 time=1', 'note_on channel=0 note=78 velocity=81 time=7', 'note_on channel=0 note=78 velocity=0 time=338')
Note: ('note_on channel=0 note=66 velocity=0 time=7', 'note_on channel=0 note=81 velocity=96 time=1', 'note_on channel=0 note=78 velocity=81 time=7', 'note_on channel=0 note=78 velocity=0 time=338', 'note_on channel=0 note=81 velocity=0 time=12')
Note: ('note_on channel=0 note=81 velocity=96 time=1', 'note_on channel=0 note=78 velocity=81 time=7', 'note_on channel=0 note=78 velocity=0 time=338', 'note_on channel=0 note=81 velocity=0 time=12', 'note_on channel=0 note=79 velocity=84 time=13')
Note: ('note_on channel=0 note=78 velocity=81 time=7', 'note_on channel=0 note=78 velocity=0 time=338', 'note_on channel=0 note=81 velocity=0 time=12', 'note_on channel=0 note=79 velocity=84 time=13', 'note_on channel=0 note=76 velocity=70 time=15')
Note: ('note_on channel=0 note=78 velocity=0 time=338', 'note_on channel=0 note=81 velocity=0 time=12', 'note_on channel=0 note=79 velocity=84 time=13', 'note_on channel=0 note=76 velocity=70 time=15', 'note_on channel=0 note=76 velocity=0 time=27')
Note: ('note_on channel=0 note=81 velocity=0 time=12', 'note_on channel=0 note=79 velocity=84 time=13', 'note_on channel=0 note=76 velocity=70 time=15', 'note_on channel=0 note=76 velocity=0 time=27', 'note_on channel=0 note=79 velocity=0 time=17')
Note: ('note_on channel=0 note=79 velocity=84 time=13', 'note_on channel=0 note=76 velocity=70 time=15', 'note_on channel=0 note=76 velocity=0 time=27', 'note_on channel=0 note=79 velocity=0 time=17', 'note_on channel=0 note=78 velocity=89 time=50')
Note: ('note_on channel=0 note=76 velocity=70 time=15', 'note_on channel=0 note=76 velocity=0 time=27', 'note_on channel=0 note=79 velocity=0 time=17', 'note_on channel=0 note=78 velocity=89 time=50', 'note_on channel=0 note=74 velocity=81 time=7')
Note: ('note_on channel=0 note=76 velocity=0 time=27', 'note_on channel=0 note=79 velocity=0 time=17', 'note_on channel=0 note=78 velocity=89 time=50', 'note_on channel=0 note=74 velocity=81 time=7', 'note_on channel=0 note=74 velocity=0 time=34')
Note: ('note_on channel=0 note=79 velocity=0 time=17', 'note_on channel=0 note=78 velocity=89 time=50', 'note_on channel=0 note=74 velocity=81 time=7', 'note_on channel=0 note=74 velocity=0 time=34', 'note_on channel=0 note=78 velocity=0 time=19')
Note: ('note_on channel=0 note=78 velocity=89 time=50', 'note_on channel=0 note=74 velocity=81 time=7', 'note_on channel=0 note=74 velocity=0 time=34', 'note_on channel=0 note=78 velocity=0 time=19', 'note_on channel=0 note=76 velocity=92 time=47')
Note: ('note_on channel=0 note=74 velocity=81 time=7', 'note_on channel=0 note=74 velocity=0 time=34', 'note_on channel=0 note=78 velocity=0 time=19', 'note_on channel=0 note=76 velocity=92 time=47', 'note_on channel=0 note=73 velocity=83 time=1')
Note: ('note_on channel=0 note=74 velocity=0 time=34', 'note_on channel=0 note=78 velocity=0 time=19', 'note_on channel=0 note=76 velocity=92 time=47', 'note_on channel=0 note=73 velocity=83 time=1', 'note_on channel=0 note=76 velocity=0 time=46')
Note: ('note_on channel=0 note=78 velocity=0 time=19', 'note_on channel=0 note=76 velocity=92 time=47', 'note_on channel=0 note=73 velocity=83 time=1', 'note_on channel=0 note=76 velocity=0 time=46', 'note_on channel=0 note=73 velocity=0 time=4')
Note: ('note_on channel=0 note=76 velocity=92 time=47', 'note_on channel=0 note=73 velocity=83 time=1', 'note_on channel=0 note=76 velocity=0 time=46', 'note_on channel=0 note=73 velocity=0 time=4', 'note_on channel=0 note=74 velocity=89 time=48')
Note: ('note_on channel=0 note=73 velocity=83 time=1', 'note_on channel=0 note=76 velocity=0 time=46', 'note_on channel=0 note=73 velocity=0 time=4', 'note_on channel=0 note=74 velocity=89 time=48', 'note_on channel=0 note=71 velocity=79 time=8')
Note: ('note_on channel=0 note=76 velocity=0 time=46', 'note_on channel=0 note=73 velocity=0 time=4', 'note_on channel=0 note=74 velocity=89 time=48', 'note_on channel=0 note=71 velocity=79 time=8', 'note_on channel=0 note=71 velocity=0 time=38')
Note: ('note_on channel=0 note=73 velocity=0 time=4', 'note_on channel=0 note=74 velocity=89 time=48', 'note_on channel=0 note=71 velocity=79 time=8', 'note_on channel=0 note=71 velocity=0 time=38', 'note_on channel=0 note=74 velocity=0 time=10')
Note: ('note_on channel=0 note=74 velocity=89 time=48', 'note_on channel=0 note=71 velocity=79 time=8', 'note_on channel=0 note=71 velocity=0 time=38', 'note_on channel=0 note=74 velocity=0 time=10', 'note_on channel=0 note=73 velocity=90 time=48')
Note: ('note_on channel=0 note=71 velocity=79 time=8', 'note_on channel=0 note=71 velocity=0 time=38', 'note_on channel=0 note=74 velocity=0 time=10', 'note_on channel=0 note=73 velocity=90 time=48', 'note_on channel=0 note=69 velocity=81 time=6')
Note: ('note_on channel=0 note=71 velocity=0 time=38', 'note_on channel=0 note=74 velocity=0 time=10', 'note_on channel=0 note=73 velocity=90 time=48', 'note_on channel=0 note=69 velocity=81 time=6', 'note_on channel=0 note=69 velocity=0 time=25')
Note: ('note_on channel=0 note=74 velocity=0 time=10', 'note_on channel=0 note=73 velocity=90 time=48', 'note_on channel=0 note=69 velocity=81 time=6', 'note_on channel=0 note=69 velocity=0 time=25', 'note_on channel=0 note=73 velocity=0 time=28')
Note: ('note_on channel=0 note=73 velocity=90 time=48', 'note_on channel=0 note=69 velocity=81 time=6', 'note_on channel=0 note=69 velocity=0 time=25', 'note_on channel=0 note=73 velocity=0 time=28', 'note_on channel=0 note=67 velocity=79 time=42')
Note: ('note_on channel=0 note=69 velocity=81 time=6', 'note_on channel=0 note=69 velocity=0 time=25', 'note_on channel=0 note=73 velocity=0 time=28', 'note_on channel=0 note=67 velocity=79 time=42', 'note_on channel=0 note=71 velocity=88 time=5')
Note: ('note_on channel=0 note=69 velocity=0 time=25', 'note_on channel=0 note=73 velocity=0 time=28', 'note_on channel=0 note=67 velocity=79 time=42', 'note_on channel=0 note=71 velocity=88 time=5', 'note_on channel=0 note=67 velocity=0 time=25')
Note: ('note_on channel=0 note=73 velocity=0 time=28', 'note_on channel=0 note=67 velocity=79 time=42', 'note_on channel=0 note=71 velocity=88 time=5', 'note_on channel=0 note=67 velocity=0 time=25', 'note_on channel=0 note=71 velocity=0 time=19')
Note: ('note_on channel=0 note=67 velocity=79 time=42', 'note_on channel=0 note=71 velocity=88 time=5', 'note_on channel=0 note=67 velocity=0 time=25', 'note_on channel=0 note=71 velocity=0 time=19', 'note_on channel=0 note=66 velocity=80 time=70')
Note: ('note_on channel=0 note=71 velocity=88 time=5', 'note_on channel=0 note=67 velocity=0 time=25', 'note_on channel=0 note=71 velocity=0 time=19', 'note_on channel=0 note=66 velocity=80 time=70', 'note_on channel=0 note=69 velocity=82 time=6')
Note: ('note_on channel=0 note=67 velocity=0 time=25', 'note_on channel=0 note=71 velocity=0 time=19', 'note_on channel=0 note=66 velocity=80 time=70', 'note_on channel=0 note=69 velocity=82 time=6', 'note_on channel=0 note=66 velocity=0 time=23')
Note: ('note_on channel=0 note=71 velocity=0 time=19', 'note_on channel=0 note=66 velocity=80 time=70', 'note_on channel=0 note=69 velocity=82 time=6', 'note_on channel=0 note=66 velocity=0 time=23', 'note_on channel=0 note=69 velocity=0 time=6')
Note: ('note_on channel=0 note=66 velocity=80 time=70', 'note_on channel=0 note=69 velocity=82 time=6', 'note_on channel=0 note=66 velocity=0 time=23', 'note_on channel=0 note=69 velocity=0 time=6', 'note_on channel=0 note=86 velocity=87 time=2')
Note: ('note_on channel=0 note=69 velocity=82 time=6', 'note_on channel=0 note=66 velocity=0 time=23', 'note_on channel=0 note=69 velocity=0 time=6', 'note_on channel=0 note=86 velocity=87 time=2', 'note_on channel=0 note=66 velocity=61 time=9')
Note: ('note_on channel=0 note=66 velocity=0 time=23', 'note_on channel=0 note=69 velocity=0 time=6', 'note_on channel=0 note=86 velocity=87 time=2', 'note_on channel=0 note=66 velocity=61 time=9', 'note_on channel=0 note=66 velocity=0 time=37')
Note: ('note_on channel=0 note=69 velocity=0 time=6', 'note_on channel=0 note=86 velocity=87 time=2', 'note_on channel=0 note=66 velocity=61 time=9', 'note_on channel=0 note=66 velocity=0 time=37', 'note_on channel=0 note=81 velocity=90 time=34')
Note: ('note_on channel=0 note=86 velocity=87 time=2', 'note_on channel=0 note=66 velocity=61 time=9', 'note_on channel=0 note=66 velocity=0 time=37', 'note_on channel=0 note=81 velocity=90 time=34', 'note_on channel=0 note=86 velocity=0 time=23')
Note: ('note_on channel=0 note=66 velocity=61 time=9', 'note_on channel=0 note=66 velocity=0 time=37', 'note_on channel=0 note=81 velocity=90 time=34', 'note_on channel=0 note=86 velocity=0 time=23', 'note_on channel=0 note=81 velocity=0 time=64')
Note: ('note_on channel=0 note=66 velocity=0 time=37', 'note_on channel=0 note=81 velocity=90 time=34', 'note_on channel=0 note=86 velocity=0 time=23', 'note_on channel=0 note=81 velocity=0 time=64', 'note_on channel=0 note=74 velocity=92 time=6')
Note: ('note_on channel=0 note=81 velocity=90 time=34', 'note_on channel=0 note=86 velocity=0 time=23', 'note_on channel=0 note=81 velocity=0 time=64', 'note_on channel=0 note=74 velocity=92 time=6', 'note_on channel=0 note=67 velocity=60 time=141')
Note: ('note_on channel=0 note=86 velocity=0 time=23', 'note_on channel=0 note=81 velocity=0 time=64', 'note_on channel=0 note=74 velocity=92 time=6', 'note_on channel=0 note=67 velocity=60 time=141', 'note_on channel=0 note=74 velocity=0 time=0')
Note: ('note_on channel=0 note=81 velocity=0 time=64', 'note_on channel=0 note=74 velocity=92 time=6', 'note_on channel=0 note=67 velocity=60 time=141', 'note_on channel=0 note=74 velocity=0 time=0', 'note_on channel=0 note=78 velocity=75 time=2')
Note: ('note_on channel=0 note=74 velocity=92 time=6', 'note_on channel=0 note=67 velocity=60 time=141', 'note_on channel=0 note=74 velocity=0 time=0', 'note_on channel=0 note=78 velocity=75 time=2', 'note_on channel=0 note=78 velocity=0 time=72')
Note: ('note_on channel=0 note=67 velocity=60 time=141', 'note_on channel=0 note=74 velocity=0 time=0', 'note_on channel=0 note=78 velocity=75 time=2', 'note_on channel=0 note=78 velocity=0 time=72', 'note_on channel=0 note=76 velocity=74 time=4')
Note: ('note_on channel=0 note=74 velocity=0 time=0', 'note_on channel=0 note=78 velocity=75 time=2', 'note_on channel=0 note=78 velocity=0 time=72', 'note_on channel=0 note=76 velocity=74 time=4', 'note_on channel=0 note=67 velocity=0 time=18')
Note: ('note_on channel=0 note=78 velocity=75 time=2', 'note_on channel=0 note=78 velocity=0 time=72', 'note_on channel=0 note=76 velocity=74 time=4', 'note_on channel=0 note=67 velocity=0 time=18', 'note_on channel=0 note=76 velocity=0 time=39')
Note: ('note_on channel=0 note=78 velocity=0 time=72', 'note_on channel=0 note=76 velocity=74 time=4', 'note_on channel=0 note=67 velocity=0 time=18', 'note_on channel=0 note=76 velocity=0 time=39', 'note_on channel=0 note=78 velocity=74 time=2')
Note: ('note_on channel=0 note=76 velocity=74 time=4', 'note_on channel=0 note=67 velocity=0 time=18', 'note_on channel=0 note=76 velocity=0 time=39', 'note_on channel=0 note=78 velocity=74 time=2', 'note_on channel=0 note=76 velocity=71 time=11')
Note: ('note_on channel=0 note=67 velocity=0 time=18', 'note_on channel=0 note=76 velocity=0 time=39', 'note_on channel=0 note=78 velocity=74 time=2', 'note_on channel=0 note=76 velocity=71 time=11', 'note_on channel=0 note=78 velocity=0 time=3')
Note: ('note_on channel=0 note=76 velocity=0 time=39', 'note_on channel=0 note=78 velocity=74 time=2', 'note_on channel=0 note=76 velocity=71 time=11', 'note_on channel=0 note=78 velocity=0 time=3', 'note_on channel=0 note=76 velocity=0 time=15')
Note: ('note_on channel=0 note=78 velocity=74 time=2', 'note_on channel=0 note=76 velocity=71 time=11', 'note_on channel=0 note=78 velocity=0 time=3', 'note_on channel=0 note=76 velocity=0 time=15', 'note_on channel=0 note=78 velocity=72 time=2')
Note: ('note_on channel=0 note=76 velocity=71 time=11', 'note_on channel=0 note=78 velocity=0 time=3', 'note_on channel=0 note=76 velocity=0 time=15', 'note_on channel=0 note=78 velocity=72 time=2', 'note_on channel=0 note=76 velocity=71 time=11')
Note: ('note_on channel=0 note=78 velocity=0 time=3', 'note_on channel=0 note=76 velocity=0 time=15', 'note_on channel=0 note=78 velocity=72 time=2', 'note_on channel=0 note=76 velocity=71 time=11', 'note_on channel=0 note=78 velocity=0 time=0')
Note: ('note_on channel=0 note=76 velocity=0 time=15', 'note_on channel=0 note=78 velocity=72 time=2', 'note_on channel=0 note=76 velocity=71 time=11', 'note_on channel=0 note=78 velocity=0 time=0', 'note_on channel=0 note=76 velocity=0 time=15')
Note: ('note_on channel=0 note=78 velocity=72 time=2', 'note_on channel=0 note=76 velocity=71 time=11', 'note_on channel=0 note=78 velocity=0 time=0', 'note_on channel=0 note=76 velocity=0 time=15', 'note_on channel=0 note=78 velocity=70 time=2')
Note: ('note_on channel=0 note=76 velocity=71 time=11', 'note_on channel=0 note=78 velocity=0 time=0', 'note_on channel=0 note=76 velocity=0 time=15', 'note_on channel=0 note=78 velocity=70 time=2', 'note_on channel=0 note=69 velocity=62 time=8')
Note: ('note_on channel=0 note=78 velocity=0 time=0', 'note_on channel=0 note=76 velocity=0 time=15', 'note_on channel=0 note=78 velocity=70 time=2', 'note_on channel=0 note=69 velocity=62 time=8', 'note_on channel=0 note=69 velocity=0 time=10')
Note: ('note_on channel=0 note=76 velocity=0 time=15', 'note_on channel=0 note=78 velocity=70 time=2', 'note_on channel=0 note=69 velocity=62 time=8', 'note_on channel=0 note=69 velocity=0 time=10', 'note_on channel=0 note=76 velocity=67 time=3')
Note: ('note_on channel=0 note=78 velocity=70 time=2', 'note_on channel=0 note=69 velocity=62 time=8', 'note_on channel=0 note=69 velocity=0 time=10', 'note_on channel=0 note=76 velocity=67 time=3', 'note_on channel=0 note=78 velocity=0 time=2')
Note: ('note_on channel=0 note=69 velocity=62 time=8', 'note_on channel=0 note=69 velocity=0 time=10', 'note_on channel=0 note=76 velocity=67 time=3', 'note_on channel=0 note=78 velocity=0 time=2', 'note_on channel=0 note=76 velocity=0 time=51')
Note: ('note_on channel=0 note=69 velocity=0 time=10', 'note_on channel=0 note=76 velocity=67 time=3', 'note_on channel=0 note=78 velocity=0 time=2', 'note_on channel=0 note=76 velocity=0 time=51', 'note_on channel=0 note=78 velocity=72 time=8')
Note: ('note_on channel=0 note=76 velocity=67 time=3', 'note_on channel=0 note=78 velocity=0 time=2', 'note_on channel=0 note=76 velocity=0 time=51', 'note_on channel=0 note=78 velocity=72 time=8', 'note_on channel=0 note=76 velocity=68 time=10')
Note: ('note_on channel=0 note=78 velocity=0 time=2', 'note_on channel=0 note=76 velocity=0 time=51', 'note_on channel=0 note=78 velocity=72 time=8', 'note_on channel=0 note=76 velocity=68 time=10', 'note_on channel=0 note=78 velocity=0 time=0')
Note: ('note_on channel=0 note=76 velocity=0 time=51', 'note_on channel=0 note=78 velocity=72 time=8', 'note_on channel=0 note=76 velocity=68 time=10', 'note_on channel=0 note=78 velocity=0 time=0', 'note_on channel=0 note=76 velocity=0 time=0')
Note: ('note_on channel=0 note=78 velocity=72 time=8', 'note_on channel=0 note=76 velocity=68 time=10', 'note_on channel=0 note=78 velocity=0 time=0', 'note_on channel=0 note=76 velocity=0 time=0', 'note_on channel=0 note=74 velocity=71 time=7')
Note: ('note_on channel=0 note=76 velocity=68 time=10', 'note_on channel=0 note=78 velocity=0 time=0', 'note_on channel=0 note=76 velocity=0 time=0', 'note_on channel=0 note=74 velocity=71 time=7', 'note_on channel=0 note=74 velocity=0 time=11')
Note: ('note_on channel=0 note=78 velocity=0 time=0', 'note_on channel=0 note=76 velocity=0 time=0', 'note_on channel=0 note=74 velocity=71 time=7', 'note_on channel=0 note=74 velocity=0 time=11', 'note_on channel=0 note=76 velocity=70 time=3')
Note: ('note_on channel=0 note=76 velocity=0 time=0', 'note_on channel=0 note=74 velocity=71 time=7', 'note_on channel=0 note=74 velocity=0 time=11', 'note_on channel=0 note=76 velocity=70 time=3', 'note_on channel=0 note=76 velocity=0 time=0')
Note: ('note_on channel=0 note=74 velocity=71 time=7', 'note_on channel=0 note=74 velocity=0 time=11', 'note_on channel=0 note=76 velocity=70 time=3', 'note_on channel=0 note=76 velocity=0 time=0', 'note_on channel=0 note=62 velocity=46 time=5')
Note: ('note_on channel=0 note=74 velocity=0 time=11', 'note_on channel=0 note=76 velocity=70 time=3', 'note_on channel=0 note=76 velocity=0 time=0', 'note_on channel=0 note=62 velocity=46 time=5', 'note_on channel=0 note=78 velocity=70 time=0')
Note: ('note_on channel=0 note=76 velocity=70 time=3', 'note_on channel=0 note=76 velocity=0 time=0', 'note_on channel=0 note=62 velocity=46 time=5', 'note_on channel=0 note=78 velocity=70 time=0', 'note_on channel=0 note=78 velocity=0 time=8')
Note: ('note_on channel=0 note=76 velocity=0 time=0', 'note_on channel=0 note=62 velocity=46 time=5', 'note_on channel=0 note=78 velocity=70 time=0', 'note_on channel=0 note=78 velocity=0 time=8', 'note_on channel=0 note=62 velocity=0 time=6')
Note: ('note_on channel=0 note=62 velocity=46 time=5', 'note_on channel=0 note=78 velocity=70 time=0', 'note_on channel=0 note=78 velocity=0 time=8', 'note_on channel=0 note=62 velocity=0 time=6', 'note_on channel=0 note=62 velocity=67 time=0')
Note: ('note_on channel=0 note=78 velocity=70 time=0', 'note_on channel=0 note=78 velocity=0 time=8', 'note_on channel=0 note=62 velocity=0 time=6', 'note_on channel=0 note=62 velocity=67 time=0', 'note_on channel=0 note=81 velocity=73 time=1')
Note: ('note_on channel=0 note=78 velocity=0 time=8', 'note_on channel=0 note=62 velocity=0 time=6', 'note_on channel=0 note=62 velocity=67 time=0', 'note_on channel=0 note=81 velocity=73 time=1', 'note_on channel=0 note=62 velocity=0 time=13')
Note: ('note_on channel=0 note=62 velocity=0 time=6', 'note_on channel=0 note=62 velocity=67 time=0', 'note_on channel=0 note=81 velocity=73 time=1', 'note_on channel=0 note=62 velocity=0 time=13', 'note_on channel=0 note=81 velocity=0 time=14')
Note: ('note_on channel=0 note=62 velocity=67 time=0', 'note_on channel=0 note=81 velocity=73 time=1', 'note_on channel=0 note=62 velocity=0 time=13', 'note_on channel=0 note=81 velocity=0 time=14', 'note_on channel=0 note=74 velocity=68 time=3')
Note: ('note_on channel=0 note=81 velocity=73 time=1', 'note_on channel=0 note=62 velocity=0 time=13', 'note_on channel=0 note=81 velocity=0 time=14', 'note_on channel=0 note=74 velocity=68 time=3', 'note_on channel=0 note=74 velocity=0 time=36')
Note: ('note_on channel=0 note=62 velocity=0 time=13', 'note_on channel=0 note=81 velocity=0 time=14', 'note_on channel=0 note=74 velocity=68 time=3', 'note_on channel=0 note=74 velocity=0 time=36', 'note_on channel=0 note=69 velocity=59 time=33')
Note: ('note_on channel=0 note=81 velocity=0 time=14', 'note_on channel=0 note=74 velocity=68 time=3', 'note_on channel=0 note=74 velocity=0 time=36', 'note_on channel=0 note=69 velocity=59 time=33', 'note_on channel=0 note=55 velocity=61 time=60')
Note: ('note_on channel=0 note=74 velocity=68 time=3', 'note_on channel=0 note=74 velocity=0 time=36', 'note_on channel=0 note=69 velocity=59 time=33', 'note_on channel=0 note=55 velocity=61 time=60', 'note_on channel=0 note=71 velocity=66 time=4')
Note: ('note_on channel=0 note=74 velocity=0 time=36', 'note_on channel=0 note=69 velocity=59 time=33', 'note_on channel=0 note=55 velocity=61 time=60', 'note_on channel=0 note=71 velocity=66 time=4', 'note_on channel=0 note=69 velocity=0 time=3')
Note: ('note_on channel=0 note=69 velocity=59 time=33', 'note_on channel=0 note=55 velocity=61 time=60', 'note_on channel=0 note=71 velocity=66 time=4', 'note_on channel=0 note=69 velocity=0 time=3', 'note_on channel=0 note=55 velocity=0 time=14')
Note: ('note_on channel=0 note=55 velocity=61 time=60', 'note_on channel=0 note=71 velocity=66 time=4', 'note_on channel=0 note=69 velocity=0 time=3', 'note_on channel=0 note=55 velocity=0 time=14', 'note_on channel=0 note=71 velocity=0 time=13')
Note: ('note_on channel=0 note=71 velocity=66 time=4', 'note_on channel=0 note=69 velocity=0 time=3', 'note_on channel=0 note=55 velocity=0 time=14', 'note_on channel=0 note=71 velocity=0 time=13', 'note_on channel=0 note=73 velocity=68 time=10')
Note: ('note_on channel=0 note=69 velocity=0 time=3', 'note_on channel=0 note=55 velocity=0 time=14', 'note_on channel=0 note=71 velocity=0 time=13', 'note_on channel=0 note=73 velocity=68 time=10', 'note_on channel=0 note=73 velocity=0 time=8')
Note: ('note_on channel=0 note=55 velocity=0 time=14', 'note_on channel=0 note=71 velocity=0 time=13', 'note_on channel=0 note=73 velocity=68 time=10', 'note_on channel=0 note=73 velocity=0 time=8', 'note_on channel=0 note=71 velocity=65 time=1')
Note: ('note_on channel=0 note=71 velocity=0 time=13', 'note_on channel=0 note=73 velocity=68 time=10', 'note_on channel=0 note=73 velocity=0 time=8', 'note_on channel=0 note=71 velocity=65 time=1', 'note_on channel=0 note=64 velocity=59 time=16')
Note: ('note_on channel=0 note=73 velocity=68 time=10', 'note_on channel=0 note=73 velocity=0 time=8', 'note_on channel=0 note=71 velocity=65 time=1', 'note_on channel=0 note=64 velocity=59 time=16', 'note_on channel=0 note=71 velocity=0 time=12')
Note: ('note_on channel=0 note=73 velocity=0 time=8', 'note_on channel=0 note=71 velocity=65 time=1', 'note_on channel=0 note=64 velocity=59 time=16', 'note_on channel=0 note=71 velocity=0 time=12', 'note_on channel=0 note=64 velocity=0 time=9')
Note: ('note_on channel=0 note=71 velocity=65 time=1', 'note_on channel=0 note=64 velocity=59 time=16', 'note_on channel=0 note=71 velocity=0 time=12', 'note_on channel=0 note=64 velocity=0 time=9', 'note_on channel=0 note=69 velocity=68 time=23')
Note: ('note_on channel=0 note=64 velocity=59 time=16', 'note_on channel=0 note=71 velocity=0 time=12', 'note_on channel=0 note=64 velocity=0 time=9', 'note_on channel=0 note=69 velocity=68 time=23', 'note_on channel=0 note=69 velocity=0 time=11')
Note: ('note_on channel=0 note=71 velocity=0 time=12', 'note_on channel=0 note=64 velocity=0 time=9', 'note_on channel=0 note=69 velocity=68 time=23', 'note_on channel=0 note=69 velocity=0 time=11', 'note_on channel=0 note=71 velocity=62 time=1')
Note: ('note_on channel=0 note=64 velocity=0 time=9', 'note_on channel=0 note=69 velocity=68 time=23', 'note_on channel=0 note=69 velocity=0 time=11', 'note_on channel=0 note=71 velocity=62 time=1', 'note_on channel=0 note=57 velocity=61 time=9')
Note: ('note_on channel=0 note=69 velocity=68 time=23', 'note_on channel=0 note=69 velocity=0 time=11', 'note_on channel=0 note=71 velocity=62 time=1', 'note_on channel=0 note=57 velocity=61 time=9', 'note_on channel=0 note=73 velocity=73 time=3')
Note: ('note_on channel=0 note=69 velocity=0 time=11', 'note_on channel=0 note=71 velocity=62 time=1', 'note_on channel=0 note=57 velocity=61 time=9', 'note_on channel=0 note=73 velocity=73 time=3', 'note_on channel=0 note=71 velocity=0 time=3')
Note: ('note_on channel=0 note=71 velocity=62 time=1', 'note_on channel=0 note=57 velocity=61 time=9', 'note_on channel=0 note=73 velocity=73 time=3', 'note_on channel=0 note=71 velocity=0 time=3', 'note_on channel=0 note=57 velocity=0 time=6')
Note: ('note_on channel=0 note=57 velocity=61 time=9', 'note_on channel=0 note=73 velocity=73 time=3', 'note_on channel=0 note=71 velocity=0 time=3', 'note_on channel=0 note=57 velocity=0 time=6', 'note_on channel=0 note=73 velocity=0 time=10')
Note: ('note_on channel=0 note=73 velocity=73 time=3', 'note_on channel=0 note=71 velocity=0 time=3', 'note_on channel=0 note=57 velocity=0 time=6', 'note_on channel=0 note=73 velocity=0 time=10', 'note_on channel=0 note=74 velocity=68 time=5')
Note: ('note_on channel=0 note=71 velocity=0 time=3', 'note_on channel=0 note=57 velocity=0 time=6', 'note_on channel=0 note=73 velocity=0 time=10', 'note_on channel=0 note=74 velocity=68 time=5', 'note_on channel=0 note=73 velocity=67 time=12')
Note: ('note_on channel=0 note=57 velocity=0 time=6', 'note_on channel=0 note=73 velocity=0 time=10', 'note_on channel=0 note=74 velocity=68 time=5', 'note_on channel=0 note=73 velocity=67 time=12', 'note_on channel=0 note=74 velocity=0 time=10')
Note: ('note_on channel=0 note=73 velocity=0 time=10', 'note_on channel=0 note=74 velocity=68 time=5', 'note_on channel=0 note=73 velocity=67 time=12', 'note_on channel=0 note=74 velocity=0 time=10', 'note_on channel=0 note=66 velocity=59 time=24')
Note: ('note_on channel=0 note=74 velocity=68 time=5', 'note_on channel=0 note=73 velocity=67 time=12', 'note_on channel=0 note=74 velocity=0 time=10', 'note_on channel=0 note=66 velocity=59 time=24', 'note_on channel=0 note=73 velocity=0 time=13')
Note: ('note_on channel=0 note=73 velocity=67 time=12', 'note_on channel=0 note=74 velocity=0 time=10', 'note_on channel=0 note=66 velocity=59 time=24', 'note_on channel=0 note=73 velocity=0 time=13', 'note_on channel=0 note=66 velocity=0 time=2')
Note: ('note_on channel=0 note=74 velocity=0 time=10', 'note_on channel=0 note=66 velocity=59 time=24', 'note_on channel=0 note=73 velocity=0 time=13', 'note_on channel=0 note=66 velocity=0 time=2', 'note_on channel=0 note=71 velocity=68 time=11')
Note: ('note_on channel=0 note=66 velocity=59 time=24', 'note_on channel=0 note=73 velocity=0 time=13', 'note_on channel=0 note=66 velocity=0 time=2', 'note_on channel=0 note=71 velocity=68 time=11', 'note_on channel=0 note=73 velocity=59 time=3')
Note: ('note_on channel=0 note=73 velocity=0 time=13', 'note_on channel=0 note=66 velocity=0 time=2', 'note_on channel=0 note=71 velocity=68 time=11', 'note_on channel=0 note=73 velocity=59 time=3', 'note_on channel=0 note=71 velocity=0 time=8')
Note: ('note_on channel=0 note=66 velocity=0 time=2', 'note_on channel=0 note=71 velocity=68 time=11', 'note_on channel=0 note=73 velocity=59 time=3', 'note_on channel=0 note=71 velocity=0 time=8', 'note_on channel=0 note=59 velocity=65 time=13')
Note: ('note_on channel=0 note=71 velocity=68 time=11', 'note_on channel=0 note=73 velocity=59 time=3', 'note_on channel=0 note=71 velocity=0 time=8', 'note_on channel=0 note=59 velocity=65 time=13', 'note_on channel=0 note=74 velocity=80 time=1')
Note: ('note_on channel=0 note=73 velocity=59 time=3', 'note_on channel=0 note=71 velocity=0 time=8', 'note_on channel=0 note=59 velocity=65 time=13', 'note_on channel=0 note=74 velocity=80 time=1', 'note_on channel=0 note=73 velocity=0 time=8')
Note: ('note_on channel=0 note=71 velocity=0 time=8', 'note_on channel=0 note=59 velocity=65 time=13', 'note_on channel=0 note=74 velocity=80 time=1', 'note_on channel=0 note=73 velocity=0 time=8', 'note_on channel=0 note=59 velocity=0 time=4')
Note: ('note_on channel=0 note=59 velocity=65 time=13', 'note_on channel=0 note=74 velocity=80 time=1', 'note_on channel=0 note=73 velocity=0 time=8', 'note_on channel=0 note=59 velocity=0 time=4', 'note_on channel=0 note=74 velocity=0 time=6')
Note: ('note_on channel=0 note=74 velocity=80 time=1', 'note_on channel=0 note=73 velocity=0 time=8', 'note_on channel=0 note=59 velocity=0 time=4', 'note_on channel=0 note=74 velocity=0 time=6', 'note_on channel=0 note=76 velocity=67 time=15')
Note: ('note_on channel=0 note=73 velocity=0 time=8', 'note_on channel=0 note=59 velocity=0 time=4', 'note_on channel=0 note=74 velocity=0 time=6', 'note_on channel=0 note=76 velocity=67 time=15', 'note_on channel=0 note=74 velocity=71 time=60')
Note: ('note_on channel=0 note=59 velocity=0 time=4', 'note_on channel=0 note=74 velocity=0 time=6', 'note_on channel=0 note=76 velocity=67 time=15', 'note_on channel=0 note=74 velocity=71 time=60', 'note_on channel=0 note=76 velocity=0 time=2')
Note: ('note_on channel=0 note=74 velocity=0 time=6', 'note_on channel=0 note=76 velocity=67 time=15', 'note_on channel=0 note=74 velocity=71 time=60', 'note_on channel=0 note=76 velocity=0 time=2', 'note_on channel=0 note=67 velocity=61 time=26')
Note: ('note_on channel=0 note=76 velocity=67 time=15', 'note_on channel=0 note=74 velocity=71 time=60', 'note_on channel=0 note=76 velocity=0 time=2', 'note_on channel=0 note=67 velocity=61 time=26', 'note_on channel=0 note=74 velocity=0 time=19')
Note: ('note_on channel=0 note=74 velocity=71 time=60', 'note_on channel=0 note=76 velocity=0 time=2', 'note_on channel=0 note=67 velocity=61 time=26', 'note_on channel=0 note=74 velocity=0 time=19', 'note_on channel=0 note=67 velocity=0 time=9')
Note: ('note_on channel=0 note=76 velocity=0 time=2', 'note_on channel=0 note=67 velocity=61 time=26', 'note_on channel=0 note=74 velocity=0 time=19', 'note_on channel=0 note=67 velocity=0 time=9', 'note_on channel=0 note=73 velocity=75 time=3')
Note: ('note_on channel=0 note=67 velocity=61 time=26', 'note_on channel=0 note=74 velocity=0 time=19', 'note_on channel=0 note=67 velocity=0 time=9', 'note_on channel=0 note=73 velocity=75 time=3', 'note_on channel=0 note=73 velocity=0 time=48')
Note: ('note_on channel=0 note=74 velocity=0 time=19', 'note_on channel=0 note=67 velocity=0 time=9', 'note_on channel=0 note=73 velocity=75 time=3', 'note_on channel=0 note=73 velocity=0 time=48', 'note_on channel=0 note=74 velocity=69 time=19')
Note: ('note_on channel=0 note=67 velocity=0 time=9', 'note_on channel=0 note=73 velocity=75 time=3', 'note_on channel=0 note=73 velocity=0 time=48', 'note_on channel=0 note=74 velocity=69 time=19', 'note_on channel=0 note=76 velocity=80 time=49')
Note: ('note_on channel=0 note=73 velocity=75 time=3', 'note_on channel=0 note=73 velocity=0 time=48', 'note_on channel=0 note=74 velocity=69 time=19', 'note_on channel=0 note=76 velocity=80 time=49', 'note_on channel=0 note=61 velocity=61 time=6')
Note: ('note_on channel=0 note=73 velocity=0 time=48', 'note_on channel=0 note=74 velocity=69 time=19', 'note_on channel=0 note=76 velocity=80 time=49', 'note_on channel=0 note=61 velocity=61 time=6', 'note_on channel=0 note=74 velocity=0 time=3')
Note: ('note_on channel=0 note=74 velocity=69 time=19', 'note_on channel=0 note=76 velocity=80 time=49', 'note_on channel=0 note=61 velocity=61 time=6', 'note_on channel=0 note=74 velocity=0 time=3', 'note_on channel=0 note=61 velocity=0 time=28')
Note: ('note_on channel=0 note=76 velocity=80 time=49', 'note_on channel=0 note=61 velocity=61 time=6', 'note_on channel=0 note=74 velocity=0 time=3', 'note_on channel=0 note=61 velocity=0 time=28', 'note_on channel=0 note=76 velocity=0 time=30')
Note: ('note_on channel=0 note=61 velocity=61 time=6', 'note_on channel=0 note=74 velocity=0 time=3', 'note_on channel=0 note=61 velocity=0 time=28', 'note_on channel=0 note=76 velocity=0 time=30', 'note_on channel=0 note=78 velocity=77 time=5')
Note: ('note_on channel=0 note=74 velocity=0 time=3', 'note_on channel=0 note=61 velocity=0 time=28', 'note_on channel=0 note=76 velocity=0 time=30', 'note_on channel=0 note=78 velocity=77 time=5', 'note_on channel=0 note=76 velocity=74 time=67')
Note: ('note_on channel=0 note=61 velocity=0 time=28', 'note_on channel=0 note=76 velocity=0 time=30', 'note_on channel=0 note=78 velocity=77 time=5', 'note_on channel=0 note=76 velocity=74 time=67', 'note_on channel=0 note=78 velocity=0 time=26')
Note: ('note_on channel=0 note=76 velocity=0 time=30', 'note_on channel=0 note=78 velocity=77 time=5', 'note_on channel=0 note=76 velocity=74 time=67', 'note_on channel=0 note=78 velocity=0 time=26', 'note_on channel=0 note=69 velocity=66 time=2')
Note: ('note_on channel=0 note=78 velocity=77 time=5', 'note_on channel=0 note=76 velocity=74 time=67', 'note_on channel=0 note=78 velocity=0 time=26', 'note_on channel=0 note=69 velocity=66 time=2', 'note_on channel=0 note=76 velocity=0 time=19')
Note: ('note_on channel=0 note=76 velocity=74 time=67', 'note_on channel=0 note=78 velocity=0 time=26', 'note_on channel=0 note=69 velocity=66 time=2', 'note_on channel=0 note=76 velocity=0 time=19', 'note_on channel=0 note=69 velocity=0 time=6')
Note: ('note_on channel=0 note=78 velocity=0 time=26', 'note_on channel=0 note=69 velocity=66 time=2', 'note_on channel=0 note=76 velocity=0 time=19', 'note_on channel=0 note=69 velocity=0 time=6', 'note_on channel=0 note=74 velocity=79 time=16')
Note: ('note_on channel=0 note=69 velocity=66 time=2', 'note_on channel=0 note=76 velocity=0 time=19', 'note_on channel=0 note=69 velocity=0 time=6', 'note_on channel=0 note=74 velocity=79 time=16', 'note_on channel=0 note=76 velocity=73 time=54')
Note: ('note_on channel=0 note=76 velocity=0 time=19', 'note_on channel=0 note=69 velocity=0 time=6', 'note_on channel=0 note=74 velocity=79 time=16', 'note_on channel=0 note=76 velocity=73 time=54', 'note_on channel=0 note=74 velocity=0 time=7')
Note: ('note_on channel=0 note=69 velocity=0 time=6', 'note_on channel=0 note=74 velocity=79 time=16', 'note_on channel=0 note=76 velocity=73 time=54', 'note_on channel=0 note=74 velocity=0 time=7', 'note_on channel=0 note=62 velocity=66 time=55')
Note: ('note_on channel=0 note=74 velocity=79 time=16', 'note_on channel=0 note=76 velocity=73 time=54', 'note_on channel=0 note=74 velocity=0 time=7', 'note_on channel=0 note=62 velocity=66 time=55', 'note_on channel=0 note=78 velocity=86 time=5')
Note: ('note_on channel=0 note=76 velocity=73 time=54', 'note_on channel=0 note=74 velocity=0 time=7', 'note_on channel=0 note=62 velocity=66 time=55', 'note_on channel=0 note=78 velocity=86 time=5', 'note_on channel=0 note=76 velocity=0 time=16')
Note: ('note_on channel=0 note=74 velocity=0 time=7', 'note_on channel=0 note=62 velocity=66 time=55', 'note_on channel=0 note=78 velocity=86 time=5', 'note_on channel=0 note=76 velocity=0 time=16', 'note_on channel=0 note=62 velocity=0 time=11')
Note: ('note_on channel=0 note=62 velocity=66 time=55', 'note_on channel=0 note=78 velocity=86 time=5', 'note_on channel=0 note=76 velocity=0 time=16', 'note_on channel=0 note=62 velocity=0 time=11', 'note_on channel=0 note=79 velocity=73 time=24')
Note: ('note_on channel=0 note=78 velocity=86 time=5', 'note_on channel=0 note=76 velocity=0 time=16', 'note_on channel=0 note=62 velocity=0 time=11', 'note_on channel=0 note=79 velocity=73 time=24', 'note_on channel=0 note=78 velocity=0 time=6')
Note: ('note_on channel=0 note=76 velocity=0 time=16', 'note_on channel=0 note=62 velocity=0 time=11', 'note_on channel=0 note=79 velocity=73 time=24', 'note_on channel=0 note=78 velocity=0 time=6', 'note_on channel=0 note=78 velocity=72 time=56')
Note: ('note_on channel=0 note=62 velocity=0 time=11', 'note_on channel=0 note=79 velocity=73 time=24', 'note_on channel=0 note=78 velocity=0 time=6', 'note_on channel=0 note=78 velocity=72 time=56', 'note_on channel=0 note=79 velocity=0 time=18')
Note: ('note_on channel=0 note=79 velocity=73 time=24', 'note_on channel=0 note=78 velocity=0 time=6', 'note_on channel=0 note=78 velocity=72 time=56', 'note_on channel=0 note=79 velocity=0 time=18', 'note_on channel=0 note=71 velocity=61 time=26')
Note: ('note_on channel=0 note=78 velocity=0 time=6', 'note_on channel=0 note=78 velocity=72 time=56', 'note_on channel=0 note=79 velocity=0 time=18', 'note_on channel=0 note=71 velocity=61 time=26', 'note_on channel=0 note=78 velocity=0 time=15')
Note: ('note_on channel=0 note=78 velocity=72 time=56', 'note_on channel=0 note=79 velocity=0 time=18', 'note_on channel=0 note=71 velocity=61 time=26', 'note_on channel=0 note=78 velocity=0 time=15', 'note_on channel=0 note=76 velocity=75 time=10')
Note: ('note_on channel=0 note=79 velocity=0 time=18', 'note_on channel=0 note=71 velocity=61 time=26', 'note_on channel=0 note=78 velocity=0 time=15', 'note_on channel=0 note=76 velocity=75 time=10', 'note_on channel=0 note=71 velocity=0 time=1')
Note: ('note_on channel=0 note=71 velocity=61 time=26', 'note_on channel=0 note=78 velocity=0 time=15', 'note_on channel=0 note=76 velocity=75 time=10', 'note_on channel=0 note=71 velocity=0 time=1', 'note_on channel=0 note=78 velocity=79 time=54')
Note: ('note_on channel=0 note=78 velocity=0 time=15', 'note_on channel=0 note=76 velocity=75 time=10', 'note_on channel=0 note=71 velocity=0 time=1', 'note_on channel=0 note=78 velocity=79 time=54', 'note_on channel=0 note=76 velocity=0 time=6')
Note: ('note_on channel=0 note=76 velocity=75 time=10', 'note_on channel=0 note=71 velocity=0 time=1', 'note_on channel=0 note=78 velocity=79 time=54', 'note_on channel=0 note=76 velocity=0 time=6', 'note_on channel=0 note=79 velocity=86 time=60')
Note: ('note_on channel=0 note=71 velocity=0 time=1', 'note_on channel=0 note=78 velocity=79 time=54', 'note_on channel=0 note=76 velocity=0 time=6', 'note_on channel=0 note=79 velocity=86 time=60', 'note_on channel=0 note=64 velocity=67 time=5')
Note: ('note_on channel=0 note=78 velocity=79 time=54', 'note_on channel=0 note=76 velocity=0 time=6', 'note_on channel=0 note=79 velocity=86 time=60', 'note_on channel=0 note=64 velocity=67 time=5', 'note_on channel=0 note=78 velocity=0 time=3')
Note: ('note_on channel=0 note=76 velocity=0 time=6', 'note_on channel=0 note=79 velocity=86 time=60', 'note_on channel=0 note=64 velocity=67 time=5', 'note_on channel=0 note=78 velocity=0 time=3', 'note_on channel=0 note=64 velocity=0 time=28')
Note: ('note_on channel=0 note=79 velocity=86 time=60', 'note_on channel=0 note=64 velocity=67 time=5', 'note_on channel=0 note=78 velocity=0 time=3', 'note_on channel=0 note=64 velocity=0 time=28', 'note_on channel=0 note=81 velocity=77 time=11')
Note: ('note_on channel=0 note=64 velocity=67 time=5', 'note_on channel=0 note=78 velocity=0 time=3', 'note_on channel=0 note=64 velocity=0 time=28', 'note_on channel=0 note=81 velocity=77 time=11', 'note_on channel=0 note=79 velocity=0 time=2')
Note: ('note_on channel=0 note=78 velocity=0 time=3', 'note_on channel=0 note=64 velocity=0 time=28', 'note_on channel=0 note=81 velocity=77 time=11', 'note_on channel=0 note=79 velocity=0 time=2', 'note_on channel=0 note=79 velocity=78 time=65')
Note: ('note_on channel=0 note=64 velocity=0 time=28', 'note_on channel=0 note=81 velocity=77 time=11', 'note_on channel=0 note=79 velocity=0 time=2', 'note_on channel=0 note=79 velocity=78 time=65', 'note_on channel=0 note=81 velocity=0 time=13')
Note: ('note_on channel=0 note=81 velocity=77 time=11', 'note_on channel=0 note=79 velocity=0 time=2', 'note_on channel=0 note=79 velocity=78 time=65', 'note_on channel=0 note=81 velocity=0 time=13', 'note_on channel=0 note=73 velocity=71 time=23')
Note: ('note_on channel=0 note=79 velocity=0 time=2', 'note_on channel=0 note=79 velocity=78 time=65', 'note_on channel=0 note=81 velocity=0 time=13', 'note_on channel=0 note=73 velocity=71 time=23', 'note_on channel=0 note=79 velocity=0 time=22')
Note: ('note_on channel=0 note=79 velocity=78 time=65', 'note_on channel=0 note=81 velocity=0 time=13', 'note_on channel=0 note=73 velocity=71 time=23', 'note_on channel=0 note=79 velocity=0 time=22', 'note_on channel=0 note=78 velocity=80 time=3')
Note: ('note_on channel=0 note=81 velocity=0 time=13', 'note_on channel=0 note=73 velocity=71 time=23', 'note_on channel=0 note=79 velocity=0 time=22', 'note_on channel=0 note=78 velocity=80 time=3', 'note_on channel=0 note=73 velocity=0 time=12')
Note: ('note_on channel=0 note=73 velocity=71 time=23', 'note_on channel=0 note=79 velocity=0 time=22', 'note_on channel=0 note=78 velocity=80 time=3', 'note_on channel=0 note=73 velocity=0 time=12', 'note_on channel=0 note=78 velocity=0 time=49')
Note: ('note_on channel=0 note=79 velocity=0 time=22', 'note_on channel=0 note=78 velocity=80 time=3', 'note_on channel=0 note=73 velocity=0 time=12', 'note_on channel=0 note=78 velocity=0 time=49', 'note_on channel=0 note=79 velocity=78 time=8')
Note: ('note_on channel=0 note=78 velocity=80 time=3', 'note_on channel=0 note=73 velocity=0 time=12', 'note_on channel=0 note=78 velocity=0 time=49', 'note_on channel=0 note=79 velocity=78 time=8', 'note_on channel=0 note=81 velocity=89 time=61')
Note: ('note_on channel=0 note=73 velocity=0 time=12', 'note_on channel=0 note=78 velocity=0 time=49', 'note_on channel=0 note=79 velocity=78 time=8', 'note_on channel=0 note=81 velocity=89 time=61', 'note_on channel=0 note=66 velocity=77 time=1')
Note: ('note_on channel=0 note=78 velocity=0 time=49', 'note_on channel=0 note=79 velocity=78 time=8', 'note_on channel=0 note=81 velocity=89 time=61', 'note_on channel=0 note=66 velocity=77 time=1', 'note_on channel=0 note=79 velocity=0 time=10')
Note: ('note_on channel=0 note=79 velocity=78 time=8', 'note_on channel=0 note=81 velocity=89 time=61', 'note_on channel=0 note=66 velocity=77 time=1', 'note_on channel=0 note=79 velocity=0 time=10', 'note_on channel=0 note=66 velocity=0 time=42')
Note: ('note_on channel=0 note=81 velocity=89 time=61', 'note_on channel=0 note=66 velocity=77 time=1', 'note_on channel=0 note=79 velocity=0 time=10', 'note_on channel=0 note=66 velocity=0 time=42', 'note_on channel=0 note=81 velocity=0 time=11')
Note: ('note_on channel=0 note=66 velocity=77 time=1', 'note_on channel=0 note=79 velocity=0 time=10', 'note_on channel=0 note=66 velocity=0 time=42', 'note_on channel=0 note=81 velocity=0 time=11', 'note_on channel=0 note=83 velocity=79 time=1')
Note: ('note_on channel=0 note=79 velocity=0 time=10', 'note_on channel=0 note=66 velocity=0 time=42', 'note_on channel=0 note=81 velocity=0 time=11', 'note_on channel=0 note=83 velocity=79 time=1', 'note_on channel=0 note=81 velocity=85 time=70')
Note: ('note_on channel=0 note=66 velocity=0 time=42', 'note_on channel=0 note=81 velocity=0 time=11', 'note_on channel=0 note=83 velocity=79 time=1', 'note_on channel=0 note=81 velocity=85 time=70', 'note_on channel=0 note=83 velocity=0 time=15')
Note: ('note_on channel=0 note=81 velocity=0 time=11', 'note_on channel=0 note=83 velocity=79 time=1', 'note_on channel=0 note=81 velocity=85 time=70', 'note_on channel=0 note=83 velocity=0 time=15', 'note_on channel=0 note=74 velocity=82 time=3')
Note: ('note_on channel=0 note=83 velocity=79 time=1', 'note_on channel=0 note=81 velocity=85 time=70', 'note_on channel=0 note=83 velocity=0 time=15', 'note_on channel=0 note=74 velocity=82 time=3', 'note_on channel=0 note=81 velocity=0 time=34')
Note: ('note_on channel=0 note=81 velocity=85 time=70', 'note_on channel=0 note=83 velocity=0 time=15', 'note_on channel=0 note=74 velocity=82 time=3', 'note_on channel=0 note=81 velocity=0 time=34', 'note_on channel=0 note=74 velocity=0 time=6')
Note: ('note_on channel=0 note=83 velocity=0 time=15', 'note_on channel=0 note=74 velocity=82 time=3', 'note_on channel=0 note=81 velocity=0 time=34', 'note_on channel=0 note=74 velocity=0 time=6', 'note_on channel=0 note=79 velocity=81 time=3')
Note: ('note_on channel=0 note=74 velocity=82 time=3', 'note_on channel=0 note=81 velocity=0 time=34', 'note_on channel=0 note=74 velocity=0 time=6', 'note_on channel=0 note=79 velocity=81 time=3', 'note_on channel=0 note=81 velocity=85 time=53')
Note: ('note_on channel=0 note=81 velocity=0 time=34', 'note_on channel=0 note=74 velocity=0 time=6', 'note_on channel=0 note=79 velocity=81 time=3', 'note_on channel=0 note=81 velocity=85 time=53', 'note_on channel=0 note=79 velocity=0 time=8')
Note: ('note_on channel=0 note=74 velocity=0 time=6', 'note_on channel=0 note=79 velocity=81 time=3', 'note_on channel=0 note=81 velocity=85 time=53', 'note_on channel=0 note=79 velocity=0 time=8', 'note_on channel=0 note=67 velocity=83 time=36')
Note: ('note_on channel=0 note=79 velocity=81 time=3', 'note_on channel=0 note=81 velocity=85 time=53', 'note_on channel=0 note=79 velocity=0 time=8', 'note_on channel=0 note=67 velocity=83 time=36', 'note_on channel=0 note=83 velocity=87 time=14')
Note: ('note_on channel=0 note=81 velocity=85 time=53', 'note_on channel=0 note=79 velocity=0 time=8', 'note_on channel=0 note=67 velocity=83 time=36', 'note_on channel=0 note=83 velocity=87 time=14', 'note_on channel=0 note=81 velocity=0 time=12')
Note: ('note_on channel=0 note=79 velocity=0 time=8', 'note_on channel=0 note=67 velocity=83 time=36', 'note_on channel=0 note=83 velocity=87 time=14', 'note_on channel=0 note=81 velocity=0 time=12', 'note_on channel=0 note=83 velocity=0 time=15')
Note: ('note_on channel=0 note=67 velocity=83 time=36', 'note_on channel=0 note=83 velocity=87 time=14', 'note_on channel=0 note=81 velocity=0 time=12', 'note_on channel=0 note=83 velocity=0 time=15', 'note_on channel=0 note=67 velocity=0 time=4')
Note: ('note_on channel=0 note=83 velocity=87 time=14', 'note_on channel=0 note=81 velocity=0 time=12', 'note_on channel=0 note=83 velocity=0 time=15', 'note_on channel=0 note=67 velocity=0 time=4', 'note_on channel=0 note=69 velocity=79 time=147')
Note: ('note_on channel=0 note=81 velocity=0 time=12', 'note_on channel=0 note=83 velocity=0 time=15', 'note_on channel=0 note=67 velocity=0 time=4', 'note_on channel=0 note=69 velocity=79 time=147', 'note_on channel=0 note=85 velocity=87 time=2')
Note: ('note_on channel=0 note=83 velocity=0 time=15', 'note_on channel=0 note=67 velocity=0 time=4', 'note_on channel=0 note=69 velocity=79 time=147', 'note_on channel=0 note=85 velocity=87 time=2', 'note_on channel=0 note=69 velocity=0 time=47')
Note: ('note_on channel=0 note=67 velocity=0 time=4', 'note_on channel=0 note=69 velocity=79 time=147', 'note_on channel=0 note=85 velocity=87 time=2', 'note_on channel=0 note=69 velocity=0 time=47', 'note_on channel=0 note=85 velocity=0 time=25')
Note: ('note_on channel=0 note=69 velocity=79 time=147', 'note_on channel=0 note=85 velocity=87 time=2', 'note_on channel=0 note=69 velocity=0 time=47', 'note_on channel=0 note=85 velocity=0 time=25', 'note_on channel=0 note=86 velocity=87 time=95')
Note: ('note_on channel=0 note=85 velocity=87 time=2', 'note_on channel=0 note=69 velocity=0 time=47', 'note_on channel=0 note=85 velocity=0 time=25', 'note_on channel=0 note=86 velocity=87 time=95', 'note_on channel=0 note=71 velocity=89 time=2')
Note: ('note_on channel=0 note=69 velocity=0 time=47', 'note_on channel=0 note=85 velocity=0 time=25', 'note_on channel=0 note=86 velocity=87 time=95', 'note_on channel=0 note=71 velocity=89 time=2', 'note_on channel=0 note=71 velocity=0 time=48')
Note: ('note_on channel=0 note=85 velocity=0 time=25', 'note_on channel=0 note=86 velocity=87 time=95', 'note_on channel=0 note=71 velocity=89 time=2', 'note_on channel=0 note=71 velocity=0 time=48', 'note_on channel=0 note=85 velocity=82 time=31')
Note: ('note_on channel=0 note=86 velocity=87 time=95', 'note_on channel=0 note=71 velocity=89 time=2', 'note_on channel=0 note=71 velocity=0 time=48', 'note_on channel=0 note=85 velocity=82 time=31', 'note_on channel=0 note=86 velocity=0 time=31')
Note: ('note_on channel=0 note=71 velocity=89 time=2', 'note_on channel=0 note=71 velocity=0 time=48', 'note_on channel=0 note=85 velocity=82 time=31', 'note_on channel=0 note=86 velocity=0 time=31', 'note_on channel=0 note=83 velocity=79 time=47')
Note: ('note_on channel=0 note=71 velocity=0 time=48', 'note_on channel=0 note=85 velocity=82 time=31', 'note_on channel=0 note=86 velocity=0 time=31', 'note_on channel=0 note=83 velocity=79 time=47', 'note_on channel=0 note=85 velocity=0 time=29')
Note: ('note_on channel=0 note=85 velocity=82 time=31', 'note_on channel=0 note=86 velocity=0 time=31', 'note_on channel=0 note=83 velocity=79 time=47', 'note_on channel=0 note=85 velocity=0 time=29', 'note_on channel=0 note=81 velocity=89 time=50')
Note: ('note_on channel=0 note=86 velocity=0 time=31', 'note_on channel=0 note=83 velocity=79 time=47', 'note_on channel=0 note=85 velocity=0 time=29', 'note_on channel=0 note=81 velocity=89 time=50', 'note_on channel=0 note=83 velocity=0 time=30')
Note: ('note_on channel=0 note=83 velocity=79 time=47', 'note_on channel=0 note=85 velocity=0 time=29', 'note_on channel=0 note=81 velocity=89 time=50', 'note_on channel=0 note=83 velocity=0 time=30', 'note_on channel=0 note=81 velocity=0 time=47')
Note: ('note_on channel=0 note=85 velocity=0 time=29', 'note_on channel=0 note=81 velocity=89 time=50', 'note_on channel=0 note=83 velocity=0 time=30', 'note_on channel=0 note=81 velocity=0 time=47', 'note_on channel=0 note=67 velocity=81 time=1')
Note: ('note_on channel=0 note=81 velocity=89 time=50', 'note_on channel=0 note=83 velocity=0 time=30', 'note_on channel=0 note=81 velocity=0 time=47', 'note_on channel=0 note=67 velocity=81 time=1', 'note_on channel=0 note=79 velocity=87 time=5')
Note: ('note_on channel=0 note=83 velocity=0 time=30', 'note_on channel=0 note=81 velocity=0 time=47', 'note_on channel=0 note=67 velocity=81 time=1', 'note_on channel=0 note=79 velocity=87 time=5', 'note_on channel=0 note=67 velocity=0 time=41')
Note: ('note_on channel=0 note=81 velocity=0 time=47', 'note_on channel=0 note=67 velocity=81 time=1', 'note_on channel=0 note=79 velocity=87 time=5', 'note_on channel=0 note=67 velocity=0 time=41', 'note_on channel=0 note=69 velocity=16 time=5')
Note: ('note_on channel=0 note=67 velocity=81 time=1', 'note_on channel=0 note=79 velocity=87 time=5', 'note_on channel=0 note=67 velocity=0 time=41', 'note_on channel=0 note=69 velocity=16 time=5', 'note_on channel=0 note=78 velocity=87 time=31')
Note: ('note_on channel=0 note=79 velocity=87 time=5', 'note_on channel=0 note=67 velocity=0 time=41', 'note_on channel=0 note=69 velocity=16 time=5', 'note_on channel=0 note=78 velocity=87 time=31', 'note_on channel=0 note=79 velocity=0 time=8')
Note: ('note_on channel=0 note=67 velocity=0 time=41', 'note_on channel=0 note=69 velocity=16 time=5', 'note_on channel=0 note=78 velocity=87 time=31', 'note_on channel=0 note=79 velocity=0 time=8', 'note_on channel=0 note=69 velocity=0 time=8')
Note: ('note_on channel=0 note=69 velocity=16 time=5', 'note_on channel=0 note=78 velocity=87 time=31', 'note_on channel=0 note=79 velocity=0 time=8', 'note_on channel=0 note=69 velocity=0 time=8', 'note_on channel=0 note=76 velocity=84 time=58')
Note: ('note_on channel=0 note=78 velocity=87 time=31', 'note_on channel=0 note=79 velocity=0 time=8', 'note_on channel=0 note=69 velocity=0 time=8', 'note_on channel=0 note=76 velocity=84 time=58', 'note_on channel=0 note=78 velocity=0 time=18')
Note: ('note_on channel=0 note=79 velocity=0 time=8', 'note_on channel=0 note=69 velocity=0 time=8', 'note_on channel=0 note=76 velocity=84 time=58', 'note_on channel=0 note=78 velocity=0 time=18', 'note_on channel=0 note=76 velocity=0 time=59')
Note: ('note_on channel=0 note=69 velocity=0 time=8', 'note_on channel=0 note=76 velocity=84 time=58', 'note_on channel=0 note=78 velocity=0 time=18', 'note_on channel=0 note=76 velocity=0 time=59', 'note_on channel=0 note=74 velocity=88 time=4')
Note: ('note_on channel=0 note=76 velocity=84 time=58', 'note_on channel=0 note=78 velocity=0 time=18', 'note_on channel=0 note=76 velocity=0 time=59', 'note_on channel=0 note=74 velocity=88 time=4', 'note_on channel=0 note=69 velocity=71 time=68')
Note: ('note_on channel=0 note=78 velocity=0 time=18', 'note_on channel=0 note=76 velocity=0 time=59', 'note_on channel=0 note=74 velocity=88 time=4', 'note_on channel=0 note=69 velocity=71 time=68', 'note_on channel=0 note=76 velocity=85 time=17')
Note: ('note_on channel=0 note=76 velocity=0 time=59', 'note_on channel=0 note=74 velocity=88 time=4', 'note_on channel=0 note=69 velocity=71 time=68', 'note_on channel=0 note=76 velocity=85 time=17', 'note_on channel=0 note=74 velocity=0 time=23')
Note: ('note_on channel=0 note=74 velocity=88 time=4', 'note_on channel=0 note=69 velocity=71 time=68', 'note_on channel=0 note=76 velocity=85 time=17', 'note_on channel=0 note=74 velocity=0 time=23', 'note_on channel=0 note=69 velocity=0 time=35')
Note: ('note_on channel=0 note=69 velocity=71 time=68', 'note_on channel=0 note=76 velocity=85 time=17', 'note_on channel=0 note=74 velocity=0 time=23', 'note_on channel=0 note=69 velocity=0 time=35', 'note_on channel=0 note=81 velocity=86 time=29')
Note: ('note_on channel=0 note=76 velocity=85 time=17', 'note_on channel=0 note=74 velocity=0 time=23', 'note_on channel=0 note=69 velocity=0 time=35', 'note_on channel=0 note=81 velocity=86 time=29', 'note_on channel=0 note=76 velocity=0 time=11')
Note: ('note_on channel=0 note=74 velocity=0 time=23', 'note_on channel=0 note=69 velocity=0 time=35', 'note_on channel=0 note=81 velocity=86 time=29', 'note_on channel=0 note=76 velocity=0 time=11', 'note_on channel=0 note=79 velocity=81 time=73')
Note: ('note_on channel=0 note=69 velocity=0 time=35', 'note_on channel=0 note=81 velocity=86 time=29', 'note_on channel=0 note=76 velocity=0 time=11', 'note_on channel=0 note=79 velocity=81 time=73', 'note_on channel=0 note=81 velocity=0 time=30')
Note: ('note_on channel=0 note=81 velocity=86 time=29', 'note_on channel=0 note=76 velocity=0 time=11', 'note_on channel=0 note=79 velocity=81 time=73', 'note_on channel=0 note=81 velocity=0 time=30', 'note_on channel=0 note=78 velocity=79 time=46')
Note: ('note_on channel=0 note=76 velocity=0 time=11', 'note_on channel=0 note=79 velocity=81 time=73', 'note_on channel=0 note=81 velocity=0 time=30', 'note_on channel=0 note=78 velocity=79 time=46', 'note_on channel=0 note=79 velocity=0 time=27')
Note: ('note_on channel=0 note=79 velocity=81 time=73', 'note_on channel=0 note=81 velocity=0 time=30', 'note_on channel=0 note=78 velocity=79 time=46', 'note_on channel=0 note=79 velocity=0 time=27', 'note_on channel=0 note=57 velocity=59 time=62')
Note: ('note_on channel=0 note=81 velocity=0 time=30', 'note_on channel=0 note=78 velocity=79 time=46', 'note_on channel=0 note=79 velocity=0 time=27', 'note_on channel=0 note=57 velocity=59 time=62', 'note_on channel=0 note=76 velocity=74 time=0')
Note: ('note_on channel=0 note=78 velocity=79 time=46', 'note_on channel=0 note=79 velocity=0 time=27', 'note_on channel=0 note=57 velocity=59 time=62', 'note_on channel=0 note=76 velocity=74 time=0', 'note_on channel=0 note=78 velocity=0 time=33')
Note: ('note_on channel=0 note=79 velocity=0 time=27', 'note_on channel=0 note=57 velocity=59 time=62', 'note_on channel=0 note=76 velocity=74 time=0', 'note_on channel=0 note=78 velocity=0 time=33', 'note_on channel=0 note=76 velocity=0 time=28')
Note: ('note_on channel=0 note=57 velocity=59 time=62', 'note_on channel=0 note=76 velocity=74 time=0', 'note_on channel=0 note=78 velocity=0 time=33', 'note_on channel=0 note=76 velocity=0 time=28', 'note_on channel=0 note=74 velocity=74 time=13')
Note: ('note_on channel=0 note=76 velocity=74 time=0', 'note_on channel=0 note=78 velocity=0 time=33', 'note_on channel=0 note=76 velocity=0 time=28', 'note_on channel=0 note=74 velocity=74 time=13', 'note_on channel=0 note=57 velocity=0 time=4')
Note: ('note_on channel=0 note=78 velocity=0 time=33', 'note_on channel=0 note=76 velocity=0 time=28', 'note_on channel=0 note=74 velocity=74 time=13', 'note_on channel=0 note=57 velocity=0 time=4', 'note_on channel=0 note=73 velocity=78 time=5')
Note: ('note_on channel=0 note=76 velocity=0 time=28', 'note_on channel=0 note=74 velocity=74 time=13', 'note_on channel=0 note=57 velocity=0 time=4', 'note_on channel=0 note=73 velocity=78 time=5', 'note_on channel=0 note=74 velocity=0 time=0')
Note: ('note_on channel=0 note=74 velocity=74 time=13', 'note_on channel=0 note=57 velocity=0 time=4', 'note_on channel=0 note=73 velocity=78 time=5', 'note_on channel=0 note=74 velocity=0 time=0', 'note_on channel=0 note=71 velocity=79 time=18')
Note: ('note_on channel=0 note=57 velocity=0 time=4', 'note_on channel=0 note=73 velocity=78 time=5', 'note_on channel=0 note=74 velocity=0 time=0', 'note_on channel=0 note=71 velocity=79 time=18', 'note_on channel=0 note=73 velocity=0 time=33')
Note: ('note_on channel=0 note=73 velocity=78 time=5', 'note_on channel=0 note=74 velocity=0 time=0', 'note_on channel=0 note=71 velocity=79 time=18', 'note_on channel=0 note=73 velocity=0 time=33', 'note_on channel=0 note=69 velocity=79 time=6')
Note: ('note_on channel=0 note=74 velocity=0 time=0', 'note_on channel=0 note=71 velocity=79 time=18', 'note_on channel=0 note=73 velocity=0 time=33', 'note_on channel=0 note=69 velocity=79 time=6', 'note_on channel=0 note=71 velocity=0 time=22')
Note: ('note_on channel=0 note=71 velocity=79 time=18', 'note_on channel=0 note=73 velocity=0 time=33', 'note_on channel=0 note=69 velocity=79 time=6', 'note_on channel=0 note=71 velocity=0 time=22', 'note_on channel=0 note=69 velocity=0 time=24')
Note: ('note_on channel=0 note=73 velocity=0 time=33', 'note_on channel=0 note=69 velocity=79 time=6', 'note_on channel=0 note=71 velocity=0 time=22', 'note_on channel=0 note=69 velocity=0 time=24', 'note_on channel=0 note=71 velocity=65 time=12')
Note: ('note_on channel=0 note=69 velocity=79 time=6', 'note_on channel=0 note=71 velocity=0 time=22', 'note_on channel=0 note=69 velocity=0 time=24', 'note_on channel=0 note=71 velocity=65 time=12', 'note_on channel=0 note=71 velocity=0 time=7')
Note: ('note_on channel=0 note=71 velocity=0 time=22', 'note_on channel=0 note=69 velocity=0 time=24', 'note_on channel=0 note=71 velocity=65 time=12', 'note_on channel=0 note=71 velocity=0 time=7', 'note_on channel=0 note=69 velocity=68 time=4')
Note: ('note_on channel=0 note=69 velocity=0 time=24', 'note_on channel=0 note=71 velocity=65 time=12', 'note_on channel=0 note=71 velocity=0 time=7', 'note_on channel=0 note=69 velocity=68 time=4', 'note_on channel=0 note=69 velocity=0 time=14')
Note: ('note_on channel=0 note=71 velocity=65 time=12', 'note_on channel=0 note=71 velocity=0 time=7', 'note_on channel=0 note=69 velocity=68 time=4', 'note_on channel=0 note=69 velocity=0 time=14', 'note_on channel=0 note=71 velocity=61 time=6')
Note: ('note_on channel=0 note=71 velocity=0 time=7', 'note_on channel=0 note=69 velocity=68 time=4', 'note_on channel=0 note=69 velocity=0 time=14', 'note_on channel=0 note=71 velocity=61 time=6', 'note_on channel=0 note=69 velocity=60 time=55')
Note: ('note_on channel=0 note=69 velocity=68 time=4', 'note_on channel=0 note=69 velocity=0 time=14', 'note_on channel=0 note=71 velocity=61 time=6', 'note_on channel=0 note=69 velocity=60 time=55', 'note_on channel=0 note=71 velocity=0 time=3')
Note: ('note_on channel=0 note=69 velocity=0 time=14', 'note_on channel=0 note=71 velocity=61 time=6', 'note_on channel=0 note=69 velocity=60 time=55', 'note_on channel=0 note=71 velocity=0 time=3', 'note_on channel=0 note=71 velocity=64 time=48')
Note: ('note_on channel=0 note=71 velocity=61 time=6', 'note_on channel=0 note=69 velocity=60 time=55', 'note_on channel=0 note=71 velocity=0 time=3', 'note_on channel=0 note=71 velocity=64 time=48', 'note_on channel=0 note=54 velocity=57 time=3')
Note: ('note_on channel=0 note=69 velocity=60 time=55', 'note_on channel=0 note=71 velocity=0 time=3', 'note_on channel=0 note=71 velocity=64 time=48', 'note_on channel=0 note=54 velocity=57 time=3', 'note_on channel=0 note=69 velocity=0 time=0')
Note: ('note_on channel=0 note=71 velocity=0 time=3', 'note_on channel=0 note=71 velocity=64 time=48', 'note_on channel=0 note=54 velocity=57 time=3', 'note_on channel=0 note=69 velocity=0 time=0', 'note_on channel=0 note=69 velocity=61 time=55')
Note: ('note_on channel=0 note=71 velocity=64 time=48', 'note_on channel=0 note=54 velocity=57 time=3', 'note_on channel=0 note=69 velocity=0 time=0', 'note_on channel=0 note=69 velocity=61 time=55', 'note_on channel=0 note=71 velocity=0 time=2')
Note: ('note_on channel=0 note=54 velocity=57 time=3', 'note_on channel=0 note=69 velocity=0 time=0', 'note_on channel=0 note=69 velocity=61 time=55', 'note_on channel=0 note=71 velocity=0 time=2', 'note_on channel=0 note=69 velocity=0 time=51')
Note: ('note_on channel=0 note=69 velocity=0 time=0', 'note_on channel=0 note=69 velocity=61 time=55', 'note_on channel=0 note=71 velocity=0 time=2', 'note_on channel=0 note=69 velocity=0 time=51', 'note_on channel=0 note=71 velocity=65 time=0')
Note: ('note_on channel=0 note=69 velocity=61 time=55', 'note_on channel=0 note=71 velocity=0 time=2', 'note_on channel=0 note=69 velocity=0 time=51', 'note_on channel=0 note=71 velocity=65 time=0', 'note_on channel=0 note=62 velocity=70 time=33')
Note: ('note_on channel=0 note=71 velocity=0 time=2', 'note_on channel=0 note=69 velocity=0 time=51', 'note_on channel=0 note=71 velocity=65 time=0', 'note_on channel=0 note=62 velocity=70 time=33', 'note_on channel=0 note=69 velocity=69 time=25')
Note: ('note_on channel=0 note=69 velocity=0 time=51', 'note_on channel=0 note=71 velocity=65 time=0', 'note_on channel=0 note=62 velocity=70 time=33', 'note_on channel=0 note=69 velocity=69 time=25', 'note_on channel=0 note=71 velocity=0 time=8')
Note: ('note_on channel=0 note=71 velocity=65 time=0', 'note_on channel=0 note=62 velocity=70 time=33', 'note_on channel=0 note=69 velocity=69 time=25', 'note_on channel=0 note=71 velocity=0 time=8', 'note_on channel=0 note=62 velocity=0 time=14')
Note: ('note_on channel=0 note=62 velocity=70 time=33', 'note_on channel=0 note=69 velocity=69 time=25', 'note_on channel=0 note=71 velocity=0 time=8', 'note_on channel=0 note=62 velocity=0 time=14', 'note_on channel=0 note=54 velocity=0 time=30')
Note: ('note_on channel=0 note=69 velocity=69 time=25', 'note_on channel=0 note=71 velocity=0 time=8', 'note_on channel=0 note=62 velocity=0 time=14', 'note_on channel=0 note=54 velocity=0 time=30', 'note_on channel=0 note=69 velocity=0 time=1')
Note: ('note_on channel=0 note=71 velocity=0 time=8', 'note_on channel=0 note=62 velocity=0 time=14', 'note_on channel=0 note=54 velocity=0 time=30', 'note_on channel=0 note=69 velocity=0 time=1', 'note_on channel=0 note=67 velocity=79 time=2')
Note: ('note_on channel=0 note=62 velocity=0 time=14', 'note_on channel=0 note=54 velocity=0 time=30', 'note_on channel=0 note=69 velocity=0 time=1', 'note_on channel=0 note=67 velocity=79 time=2', 'note_on channel=0 note=69 velocity=73 time=54')
Note: ('note_on channel=0 note=54 velocity=0 time=30', 'note_on channel=0 note=69 velocity=0 time=1', 'note_on channel=0 note=67 velocity=79 time=2', 'note_on channel=0 note=69 velocity=73 time=54', 'note_on channel=0 note=67 velocity=0 time=21')
Note: ('note_on channel=0 note=69 velocity=0 time=1', 'note_on channel=0 note=67 velocity=79 time=2', 'note_on channel=0 note=69 velocity=73 time=54', 'note_on channel=0 note=67 velocity=0 time=21', 'note_on channel=0 note=55 velocity=75 time=65')
Note: ('note_on channel=0 note=67 velocity=79 time=2', 'note_on channel=0 note=69 velocity=73 time=54', 'note_on channel=0 note=67 velocity=0 time=21', 'note_on channel=0 note=55 velocity=75 time=65', 'note_on channel=0 note=71 velocity=71 time=96')
Note: ('note_on channel=0 note=69 velocity=73 time=54', 'note_on channel=0 note=67 velocity=0 time=21', 'note_on channel=0 note=55 velocity=75 time=65', 'note_on channel=0 note=71 velocity=71 time=96', 'note_on channel=0 note=69 velocity=0 time=11')
Note: ('note_on channel=0 note=67 velocity=0 time=21', 'note_on channel=0 note=55 velocity=75 time=65', 'note_on channel=0 note=71 velocity=71 time=96', 'note_on channel=0 note=69 velocity=0 time=11', 'note_on channel=0 note=71 velocity=0 time=15')
Note: ('note_on channel=0 note=55 velocity=75 time=65', 'note_on channel=0 note=71 velocity=71 time=96', 'note_on channel=0 note=69 velocity=0 time=11', 'note_on channel=0 note=71 velocity=0 time=15', 'note_on channel=0 note=73 velocity=69 time=7')
Note: ('note_on channel=0 note=71 velocity=71 time=96', 'note_on channel=0 note=69 velocity=0 time=11', 'note_on channel=0 note=71 velocity=0 time=15', 'note_on channel=0 note=73 velocity=69 time=7', 'note_on channel=0 note=71 velocity=67 time=3')
Note: ('note_on channel=0 note=69 velocity=0 time=11', 'note_on channel=0 note=71 velocity=0 time=15', 'note_on channel=0 note=73 velocity=69 time=7', 'note_on channel=0 note=71 velocity=67 time=3', 'note_on channel=0 note=64 velocity=64 time=1')
Note: ('note_on channel=0 note=71 velocity=0 time=15', 'note_on channel=0 note=73 velocity=69 time=7', 'note_on channel=0 note=71 velocity=67 time=3', 'note_on channel=0 note=64 velocity=64 time=1', 'note_on channel=0 note=73 velocity=0 time=0')
Note: ('note_on channel=0 note=73 velocity=69 time=7', 'note_on channel=0 note=71 velocity=67 time=3', 'note_on channel=0 note=64 velocity=64 time=1', 'note_on channel=0 note=73 velocity=0 time=0', 'note_on channel=0 note=71 velocity=0 time=15')
Note: ('note_on channel=0 note=71 velocity=67 time=3', 'note_on channel=0 note=64 velocity=64 time=1', 'note_on channel=0 note=73 velocity=0 time=0', 'note_on channel=0 note=71 velocity=0 time=15', 'note_on channel=0 note=64 velocity=0 time=7')
Note: ('note_on channel=0 note=64 velocity=64 time=1', 'note_on channel=0 note=73 velocity=0 time=0', 'note_on channel=0 note=71 velocity=0 time=15', 'note_on channel=0 note=64 velocity=0 time=7', 'note_on channel=0 note=55 velocity=0 time=5')
Note: ('note_on channel=0 note=74 velocity=92 time=786', 'note_on channel=0 note=74 velocity=0 time=48', 'note_on channel=0 note=81 velocity=93 time=353', 'note_on channel=0 note=57 velocity=79 time=373', 'note_on channel=0 note=57 velocity=0 time=49')
Note: ('note_on channel=0 note=74 velocity=0 time=48', 'note_on channel=0 note=81 velocity=93 time=353', 'note_on channel=0 note=57 velocity=79 time=373', 'note_on channel=0 note=57 velocity=0 time=49', 'note_on channel=0 note=62 velocity=86 time=337')
Note: ('note_on channel=0 note=81 velocity=93 time=353', 'note_on channel=0 note=57 velocity=79 time=373', 'note_on channel=0 note=57 velocity=0 time=49', 'note_on channel=0 note=62 velocity=86 time=337', 'note_on channel=0 note=62 velocity=0 time=12')
Note: ('note_on channel=0 note=57 velocity=79 time=373', 'note_on channel=0 note=57 velocity=0 time=49', 'note_on channel=0 note=62 velocity=86 time=337', 'note_on channel=0 note=62 velocity=0 time=12', 'note_on channel=0 note=81 velocity=0 time=0')
Note: ('note_on channel=0 note=57 velocity=0 time=49', 'note_on channel=0 note=62 velocity=86 time=337', 'note_on channel=0 note=62 velocity=0 time=12', 'note_on channel=0 note=81 velocity=0 time=0', 'note_on channel=0 note=78 velocity=97 time=304')
Note: ('note_on channel=0 note=62 velocity=86 time=337', 'note_on channel=0 note=62 velocity=0 time=12', 'note_on channel=0 note=81 velocity=0 time=0', 'note_on channel=0 note=78 velocity=97 time=304', 'note_on channel=0 note=74 velocity=82 time=7')
Note: ('note_on channel=0 note=62 velocity=0 time=12', 'note_on channel=0 note=81 velocity=0 time=0', 'note_on channel=0 note=78 velocity=97 time=304', 'note_on channel=0 note=74 velocity=82 time=7', 'note_on channel=0 note=74 velocity=0 time=319')
Note: ('note_on channel=0 note=81 velocity=0 time=0', 'note_on channel=0 note=78 velocity=97 time=304', 'note_on channel=0 note=74 velocity=82 time=7', 'note_on channel=0 note=74 velocity=0 time=319', 'note_on channel=0 note=73 velocity=73 time=36')
Note: ('note_on channel=0 note=78 velocity=97 time=304', 'note_on channel=0 note=74 velocity=82 time=7', 'note_on channel=0 note=74 velocity=0 time=319', 'note_on channel=0 note=73 velocity=73 time=36', 'note_on channel=0 note=76 velocity=79 time=7')
Note: ('note_on channel=0 note=74 velocity=82 time=7', 'note_on channel=0 note=74 velocity=0 time=319', 'note_on channel=0 note=73 velocity=73 time=36', 'note_on channel=0 note=76 velocity=79 time=7', 'note_on channel=0 note=78 velocity=0 time=2')
Note: ('note_on channel=0 note=74 velocity=0 time=319', 'note_on channel=0 note=73 velocity=73 time=36', 'note_on channel=0 note=76 velocity=79 time=7', 'note_on channel=0 note=78 velocity=0 time=2', 'note_on channel=0 note=73 velocity=0 time=25')
Note: ('note_on channel=0 note=73 velocity=73 time=36', 'note_on channel=0 note=76 velocity=79 time=7', 'note_on channel=0 note=78 velocity=0 time=2', 'note_on channel=0 note=73 velocity=0 time=25', 'note_on channel=0 note=76 velocity=0 time=11')
Note: ('note_on channel=0 note=76 velocity=79 time=7', 'note_on channel=0 note=78 velocity=0 time=2', 'note_on channel=0 note=73 velocity=0 time=25', 'note_on channel=0 note=76 velocity=0 time=11', 'note_on channel=0 note=71 velocity=78 time=65')
Note: ('note_on channel=0 note=78 velocity=0 time=2', 'note_on channel=0 note=73 velocity=0 time=25', 'note_on channel=0 note=76 velocity=0 time=11', 'note_on channel=0 note=71 velocity=78 time=65', 'note_on channel=0 note=74 velocity=72 time=4')
Note: ('note_on channel=0 note=73 velocity=0 time=25', 'note_on channel=0 note=76 velocity=0 time=11', 'note_on channel=0 note=71 velocity=78 time=65', 'note_on channel=0 note=74 velocity=72 time=4', 'note_on channel=0 note=71 velocity=0 time=26')
Note: ('note_on channel=0 note=76 velocity=0 time=11', 'note_on channel=0 note=71 velocity=78 time=65', 'note_on channel=0 note=74 velocity=72 time=4', 'note_on channel=0 note=71 velocity=0 time=26', 'note_on channel=0 note=74 velocity=0 time=11')
Note: ('note_on channel=0 note=71 velocity=78 time=65', 'note_on channel=0 note=74 velocity=72 time=4', 'note_on channel=0 note=71 velocity=0 time=26', 'note_on channel=0 note=74 velocity=0 time=11', 'note_on channel=0 note=73 velocity=79 time=54')
Note: ('note_on channel=0 note=74 velocity=72 time=4', 'note_on channel=0 note=71 velocity=0 time=26', 'note_on channel=0 note=74 velocity=0 time=11', 'note_on channel=0 note=73 velocity=79 time=54', 'note_on channel=0 note=69 velocity=76 time=9')
Note: ('note_on channel=0 note=71 velocity=0 time=26', 'note_on channel=0 note=74 velocity=0 time=11', 'note_on channel=0 note=73 velocity=79 time=54', 'note_on channel=0 note=69 velocity=76 time=9', 'note_on channel=0 note=69 velocity=0 time=24')
Note: ('note_on channel=0 note=74 velocity=0 time=11', 'note_on channel=0 note=73 velocity=79 time=54', 'note_on channel=0 note=69 velocity=76 time=9', 'note_on channel=0 note=69 velocity=0 time=24', 'note_on channel=0 note=73 velocity=0 time=22')
Note: ('note_on channel=0 note=73 velocity=79 time=54', 'note_on channel=0 note=69 velocity=76 time=9', 'note_on channel=0 note=69 velocity=0 time=24', 'note_on channel=0 note=73 velocity=0 time=22', 'note_on channel=0 note=71 velocity=83 time=54')
Note: ('note_on channel=0 note=69 velocity=76 time=9', 'note_on channel=0 note=69 velocity=0 time=24', 'note_on channel=0 note=73 velocity=0 time=22', 'note_on channel=0 note=71 velocity=83 time=54', 'note_on channel=0 note=67 velocity=78 time=1')
Note: ('note_on channel=0 note=69 velocity=0 time=24', 'note_on channel=0 note=73 velocity=0 time=22', 'note_on channel=0 note=71 velocity=83 time=54', 'note_on channel=0 note=67 velocity=78 time=1', 'note_on channel=0 note=67 velocity=0 time=29')
Note: ('note_on channel=0 note=73 velocity=0 time=22', 'note_on channel=0 note=71 velocity=83 time=54', 'note_on channel=0 note=67 velocity=78 time=1', 'note_on channel=0 note=67 velocity=0 time=29', 'note_on channel=0 note=71 velocity=0 time=14')
Note: ('note_on channel=0 note=71 velocity=83 time=54', 'note_on channel=0 note=67 velocity=78 time=1', 'note_on channel=0 note=67 velocity=0 time=29', 'note_on channel=0 note=71 velocity=0 time=14', 'note_on channel=0 note=69 velocity=77 time=60')
Note: ('note_on channel=0 note=67 velocity=78 time=1', 'note_on channel=0 note=67 velocity=0 time=29', 'note_on channel=0 note=71 velocity=0 time=14', 'note_on channel=0 note=69 velocity=77 time=60', 'note_on channel=0 note=66 velocity=76 time=1')
Note: ('note_on channel=0 note=67 velocity=0 time=29', 'note_on channel=0 note=71 velocity=0 time=14', 'note_on channel=0 note=69 velocity=77 time=60', 'note_on channel=0 note=66 velocity=76 time=1', 'note_on channel=0 note=66 velocity=0 time=27')
Note: ('note_on channel=0 note=71 velocity=0 time=14', 'note_on channel=0 note=69 velocity=77 time=60', 'note_on channel=0 note=66 velocity=76 time=1', 'note_on channel=0 note=66 velocity=0 time=27', 'note_on channel=0 note=69 velocity=0 time=11')
Note: ('note_on channel=0 note=69 velocity=77 time=60', 'note_on channel=0 note=66 velocity=76 time=1', 'note_on channel=0 note=66 velocity=0 time=27', 'note_on channel=0 note=69 velocity=0 time=11', 'note_on channel=0 note=64 velocity=73 time=63')
Note: ('note_on channel=0 note=66 velocity=76 time=1', 'note_on channel=0 note=66 velocity=0 time=27', 'note_on channel=0 note=69 velocity=0 time=11', 'note_on channel=0 note=64 velocity=73 time=63', 'note_on channel=0 note=67 velocity=72 time=0')
Note: ('note_on channel=0 note=66 velocity=0 time=27', 'note_on channel=0 note=69 velocity=0 time=11', 'note_on channel=0 note=64 velocity=73 time=63', 'note_on channel=0 note=67 velocity=72 time=0', 'note_on channel=0 note=64 velocity=0 time=37')
Note: ('note_on channel=0 note=69 velocity=0 time=11', 'note_on channel=0 note=64 velocity=73 time=63', 'note_on channel=0 note=67 velocity=72 time=0', 'note_on channel=0 note=64 velocity=0 time=37', 'note_on channel=0 note=67 velocity=0 time=22')
Note: ('note_on channel=0 note=64 velocity=73 time=63', 'note_on channel=0 note=67 velocity=72 time=0', 'note_on channel=0 note=64 velocity=0 time=37', 'note_on channel=0 note=67 velocity=0 time=22', 'note_on channel=0 note=62 velocity=80 time=66')
Note: ('note_on channel=0 note=67 velocity=72 time=0', 'note_on channel=0 note=64 velocity=0 time=37', 'note_on channel=0 note=67 velocity=0 time=22', 'note_on channel=0 note=62 velocity=80 time=66', 'note_on channel=0 note=66 velocity=85 time=0')
Note: ('note_on channel=0 note=64 velocity=0 time=37', 'note_on channel=0 note=67 velocity=0 time=22', 'note_on channel=0 note=62 velocity=80 time=66', 'note_on channel=0 note=66 velocity=85 time=0', 'note_on channel=0 note=62 velocity=0 time=21')
Note: ('note_on channel=0 note=67 velocity=0 time=22', 'note_on channel=0 note=62 velocity=80 time=66', 'note_on channel=0 note=66 velocity=85 time=0', 'note_on channel=0 note=62 velocity=0 time=21', 'note_on channel=0 note=66 velocity=0 time=7')
Note: ('note_on channel=0 note=62 velocity=80 time=66', 'note_on channel=0 note=66 velocity=85 time=0', 'note_on channel=0 note=62 velocity=0 time=21', 'note_on channel=0 note=66 velocity=0 time=7', 'note_on channel=0 note=81 velocity=96 time=1')
Note: ('note_on channel=0 note=66 velocity=85 time=0', 'note_on channel=0 note=62 velocity=0 time=21', 'note_on channel=0 note=66 velocity=0 time=7', 'note_on channel=0 note=81 velocity=96 time=1', 'note_on channel=0 note=78 velocity=81 time=7')
Note: ('note_on channel=0 note=62 velocity=0 time=21', 'note_on channel=0 note=66 velocity=0 time=7', 'note_on channel=0 note=81 velocity=96 time=1', 'note_on channel=0 note=78 velocity=81 time=7', 'note_on channel=0 note=78 velocity=0 time=338')
Note: ('note_on channel=0 note=66 velocity=0 time=7', 'note_on channel=0 note=81 velocity=96 time=1', 'note_on channel=0 note=78 velocity=81 time=7', 'note_on channel=0 note=78 velocity=0 time=338', 'note_on channel=0 note=81 velocity=0 time=12')
Note: ('note_on channel=0 note=81 velocity=96 time=1', 'note_on channel=0 note=78 velocity=81 time=7', 'note_on channel=0 note=78 velocity=0 time=338', 'note_on channel=0 note=81 velocity=0 time=12', 'note_on channel=0 note=79 velocity=84 time=13')
Note: ('note_on channel=0 note=78 velocity=81 time=7', 'note_on channel=0 note=78 velocity=0 time=338', 'note_on channel=0 note=81 velocity=0 time=12', 'note_on channel=0 note=79 velocity=84 time=13', 'note_on channel=0 note=76 velocity=70 time=15')
Note: ('note_on channel=0 note=78 velocity=0 time=338', 'note_on channel=0 note=81 velocity=0 time=12', 'note_on channel=0 note=79 velocity=84 time=13', 'note_on channel=0 note=76 velocity=70 time=15', 'note_on channel=0 note=76 velocity=0 time=27')
Note: ('note_on channel=0 note=81 velocity=0 time=12', 'note_on channel=0 note=79 velocity=84 time=13', 'note_on channel=0 note=76 velocity=70 time=15', 'note_on channel=0 note=76 velocity=0 time=27', 'note_on channel=0 note=79 velocity=0 time=17')
Note: ('note_on channel=0 note=79 velocity=84 time=13', 'note_on channel=0 note=76 velocity=70 time=15', 'note_on channel=0 note=76 velocity=0 time=27', 'note_on channel=0 note=79 velocity=0 time=17', 'note_on channel=0 note=78 velocity=89 time=50')
Note: ('note_on channel=0 note=76 velocity=70 time=15', 'note_on channel=0 note=76 velocity=0 time=27', 'note_on channel=0 note=79 velocity=0 time=17', 'note_on channel=0 note=78 velocity=89 time=50', 'note_on channel=0 note=74 velocity=81 time=7')
Note: ('note_on channel=0 note=76 velocity=0 time=27', 'note_on channel=0 note=79 velocity=0 time=17', 'note_on channel=0 note=78 velocity=89 time=50', 'note_on channel=0 note=74 velocity=81 time=7', 'note_on channel=0 note=74 velocity=0 time=34')
Note: ('note_on channel=0 note=79 velocity=0 time=17', 'note_on channel=0 note=78 velocity=89 time=50', 'note_on channel=0 note=74 velocity=81 time=7', 'note_on channel=0 note=74 velocity=0 time=34', 'note_on channel=0 note=78 velocity=0 time=19')
Note: ('note_on channel=0 note=78 velocity=89 time=50', 'note_on channel=0 note=74 velocity=81 time=7', 'note_on channel=0 note=74 velocity=0 time=34', 'note_on channel=0 note=78 velocity=0 time=19', 'note_on channel=0 note=76 velocity=92 time=47')
Note: ('note_on channel=0 note=74 velocity=81 time=7', 'note_on channel=0 note=74 velocity=0 time=34', 'note_on channel=0 note=78 velocity=0 time=19', 'note_on channel=0 note=76 velocity=92 time=47', 'note_on channel=0 note=73 velocity=83 time=1')
Note: ('note_on channel=0 note=74 velocity=0 time=34', 'note_on channel=0 note=78 velocity=0 time=19', 'note_on channel=0 note=76 velocity=92 time=47', 'note_on channel=0 note=73 velocity=83 time=1', 'note_on channel=0 note=76 velocity=0 time=46')
Note: ('note_on channel=0 note=78 velocity=0 time=19', 'note_on channel=0 note=76 velocity=92 time=47', 'note_on channel=0 note=73 velocity=83 time=1', 'note_on channel=0 note=76 velocity=0 time=46', 'note_on channel=0 note=73 velocity=0 time=4')
Note: ('note_on channel=0 note=76 velocity=92 time=47', 'note_on channel=0 note=73 velocity=83 time=1', 'note_on channel=0 note=76 velocity=0 time=46', 'note_on channel=0 note=73 velocity=0 time=4', 'note_on channel=0 note=74 velocity=89 time=48')
Note: ('note_on channel=0 note=73 velocity=83 time=1', 'note_on channel=0 note=76 velocity=0 time=46', 'note_on channel=0 note=73 velocity=0 time=4', 'note_on channel=0 note=74 velocity=89 time=48', 'note_on channel=0 note=71 velocity=79 time=8')
Note: ('note_on channel=0 note=76 velocity=0 time=46', 'note_on channel=0 note=73 velocity=0 time=4', 'note_on channel=0 note=74 velocity=89 time=48', 'note_on channel=0 note=71 velocity=79 time=8', 'note_on channel=0 note=71 velocity=0 time=38')
Note: ('note_on channel=0 note=73 velocity=0 time=4', 'note_on channel=0 note=74 velocity=89 time=48', 'note_on channel=0 note=71 velocity=79 time=8', 'note_on channel=0 note=71 velocity=0 time=38', 'note_on channel=0 note=74 velocity=0 time=10')
Note: ('note_on channel=0 note=74 velocity=89 time=48', 'note_on channel=0 note=71 velocity=79 time=8', 'note_on channel=0 note=71 velocity=0 time=38', 'note_on channel=0 note=74 velocity=0 time=10', 'note_on channel=0 note=73 velocity=90 time=48')
Note: ('note_on channel=0 note=71 velocity=79 time=8', 'note_on channel=0 note=71 velocity=0 time=38', 'note_on channel=0 note=74 velocity=0 time=10', 'note_on channel=0 note=73 velocity=90 time=48', 'note_on channel=0 note=69 velocity=81 time=6')
Note: ('note_on channel=0 note=71 velocity=0 time=38', 'note_on channel=0 note=74 velocity=0 time=10', 'note_on channel=0 note=73 velocity=90 time=48', 'note_on channel=0 note=69 velocity=81 time=6', 'note_on channel=0 note=69 velocity=0 time=25')
Note: ('note_on channel=0 note=74 velocity=0 time=10', 'note_on channel=0 note=73 velocity=90 time=48', 'note_on channel=0 note=69 velocity=81 time=6', 'note_on channel=0 note=69 velocity=0 time=25', 'note_on channel=0 note=73 velocity=0 time=28')
Note: ('note_on channel=0 note=73 velocity=90 time=48', 'note_on channel=0 note=69 velocity=81 time=6', 'note_on channel=0 note=69 velocity=0 time=25', 'note_on channel=0 note=73 velocity=0 time=28', 'note_on channel=0 note=67 velocity=79 time=42')
Note: ('note_on channel=0 note=69 velocity=81 time=6', 'note_on channel=0 note=69 velocity=0 time=25', 'note_on channel=0 note=73 velocity=0 time=28', 'note_on channel=0 note=67 velocity=79 time=42', 'note_on channel=0 note=71 velocity=88 time=5')
Note: ('note_on channel=0 note=69 velocity=0 time=25', 'note_on channel=0 note=73 velocity=0 time=28', 'note_on channel=0 note=67 velocity=79 time=42', 'note_on channel=0 note=71 velocity=88 time=5', 'note_on channel=0 note=67 velocity=0 time=25')
Note: ('note_on channel=0 note=73 velocity=0 time=28', 'note_on channel=0 note=67 velocity=79 time=42', 'note_on channel=0 note=71 velocity=88 time=5', 'note_on channel=0 note=67 velocity=0 time=25', 'note_on channel=0 note=71 velocity=0 time=19')
Note: ('note_on channel=0 note=67 velocity=79 time=42', 'note_on channel=0 note=71 velocity=88 time=5', 'note_on channel=0 note=67 velocity=0 time=25', 'note_on channel=0 note=71 velocity=0 time=19', 'note_on channel=0 note=66 velocity=80 time=70')
Note: ('note_on channel=0 note=71 velocity=88 time=5', 'note_on channel=0 note=67 velocity=0 time=25', 'note_on channel=0 note=71 velocity=0 time=19', 'note_on channel=0 note=66 velocity=80 time=70', 'note_on channel=0 note=69 velocity=82 time=6')
Note: ('note_on channel=0 note=67 velocity=0 time=25', 'note_on channel=0 note=71 velocity=0 time=19', 'note_on channel=0 note=66 velocity=80 time=70', 'note_on channel=0 note=69 velocity=82 time=6', 'note_on channel=0 note=66 velocity=0 time=23')
Note: ('note_on channel=0 note=71 velocity=0 time=19', 'note_on channel=0 note=66 velocity=80 time=70', 'note_on channel=0 note=69 velocity=82 time=6', 'note_on channel=0 note=66 velocity=0 time=23', 'note_on channel=0 note=69 velocity=0 time=6')
Note: ('note_on channel=0 note=66 velocity=80 time=70', 'note_on channel=0 note=69 velocity=82 time=6', 'note_on channel=0 note=66 velocity=0 time=23', 'note_on channel=0 note=69 velocity=0 time=6', 'note_on channel=0 note=86 velocity=87 time=2')
Note: ('note_on channel=0 note=69 velocity=82 time=6', 'note_on channel=0 note=66 velocity=0 time=23', 'note_on channel=0 note=69 velocity=0 time=6', 'note_on channel=0 note=86 velocity=87 time=2', 'note_on channel=0 note=66 velocity=61 time=9')
Note: ('note_on channel=0 note=66 velocity=0 time=23', 'note_on channel=0 note=69 velocity=0 time=6', 'note_on channel=0 note=86 velocity=87 time=2', 'note_on channel=0 note=66 velocity=61 time=9', 'note_on channel=0 note=66 velocity=0 time=37')
Note: ('note_on channel=0 note=69 velocity=0 time=6', 'note_on channel=0 note=86 velocity=87 time=2', 'note_on channel=0 note=66 velocity=61 time=9', 'note_on channel=0 note=66 velocity=0 time=37', 'note_on channel=0 note=81 velocity=90 time=34')
Note: ('note_on channel=0 note=86 velocity=87 time=2', 'note_on channel=0 note=66 velocity=61 time=9', 'note_on channel=0 note=66 velocity=0 time=37', 'note_on channel=0 note=81 velocity=90 time=34', 'note_on channel=0 note=86 velocity=0 time=23')
Note: ('note_on channel=0 note=66 velocity=61 time=9', 'note_on channel=0 note=66 velocity=0 time=37', 'note_on channel=0 note=81 velocity=90 time=34', 'note_on channel=0 note=86 velocity=0 time=23', 'note_on channel=0 note=81 velocity=0 time=64')
Note: ('note_on channel=0 note=66 velocity=0 time=37', 'note_on channel=0 note=81 velocity=90 time=34', 'note_on channel=0 note=86 velocity=0 time=23', 'note_on channel=0 note=81 velocity=0 time=64', 'note_on channel=0 note=74 velocity=92 time=6')
Note: ('note_on channel=0 note=81 velocity=90 time=34', 'note_on channel=0 note=86 velocity=0 time=23', 'note_on channel=0 note=81 velocity=0 time=64', 'note_on channel=0 note=74 velocity=92 time=6', 'note_on channel=0 note=67 velocity=60 time=141')
Note: ('note_on channel=0 note=86 velocity=0 time=23', 'note_on channel=0 note=81 velocity=0 time=64', 'note_on channel=0 note=74 velocity=92 time=6', 'note_on channel=0 note=67 velocity=60 time=141', 'note_on channel=0 note=74 velocity=0 time=0')
Note: ('note_on channel=0 note=81 velocity=0 time=64', 'note_on channel=0 note=74 velocity=92 time=6', 'note_on channel=0 note=67 velocity=60 time=141', 'note_on channel=0 note=74 velocity=0 time=0', 'note_on channel=0 note=78 velocity=75 time=2')
Note: ('note_on channel=0 note=74 velocity=92 time=6', 'note_on channel=0 note=67 velocity=60 time=141', 'note_on channel=0 note=74 velocity=0 time=0', 'note_on channel=0 note=78 velocity=75 time=2', 'note_on channel=0 note=78 velocity=0 time=72')
Note: ('note_on channel=0 note=67 velocity=60 time=141', 'note_on channel=0 note=74 velocity=0 time=0', 'note_on channel=0 note=78 velocity=75 time=2', 'note_on channel=0 note=78 velocity=0 time=72', 'note_on channel=0 note=76 velocity=74 time=4')
Note: ('note_on channel=0 note=74 velocity=0 time=0', 'note_on channel=0 note=78 velocity=75 time=2', 'note_on channel=0 note=78 velocity=0 time=72', 'note_on channel=0 note=76 velocity=74 time=4', 'note_on channel=0 note=67 velocity=0 time=18')
Note: ('note_on channel=0 note=78 velocity=75 time=2', 'note_on channel=0 note=78 velocity=0 time=72', 'note_on channel=0 note=76 velocity=74 time=4', 'note_on channel=0 note=67 velocity=0 time=18', 'note_on channel=0 note=76 velocity=0 time=39')
Note: ('note_on channel=0 note=78 velocity=0 time=72', 'note_on channel=0 note=76 velocity=74 time=4', 'note_on channel=0 note=67 velocity=0 time=18', 'note_on channel=0 note=76 velocity=0 time=39', 'note_on channel=0 note=78 velocity=74 time=2')
Note: ('note_on channel=0 note=76 velocity=74 time=4', 'note_on channel=0 note=67 velocity=0 time=18', 'note_on channel=0 note=76 velocity=0 time=39', 'note_on channel=0 note=78 velocity=74 time=2', 'note_on channel=0 note=76 velocity=71 time=11')
Note: ('note_on channel=0 note=67 velocity=0 time=18', 'note_on channel=0 note=76 velocity=0 time=39', 'note_on channel=0 note=78 velocity=74 time=2', 'note_on channel=0 note=76 velocity=71 time=11', 'note_on channel=0 note=78 velocity=0 time=3')
Note: ('note_on channel=0 note=76 velocity=0 time=39', 'note_on channel=0 note=78 velocity=74 time=2', 'note_on channel=0 note=76 velocity=71 time=11', 'note_on channel=0 note=78 velocity=0 time=3', 'note_on channel=0 note=76 velocity=0 time=15')
Note: ('note_on channel=0 note=78 velocity=74 time=2', 'note_on channel=0 note=76 velocity=71 time=11', 'note_on channel=0 note=78 velocity=0 time=3', 'note_on channel=0 note=76 velocity=0 time=15', 'note_on channel=0 note=78 velocity=72 time=2')
Note: ('note_on channel=0 note=76 velocity=71 time=11', 'note_on channel=0 note=78 velocity=0 time=3', 'note_on channel=0 note=76 velocity=0 time=15', 'note_on channel=0 note=78 velocity=72 time=2', 'note_on channel=0 note=76 velocity=71 time=11')
Note: ('note_on channel=0 note=78 velocity=0 time=3', 'note_on channel=0 note=76 velocity=0 time=15', 'note_on channel=0 note=78 velocity=72 time=2', 'note_on channel=0 note=76 velocity=71 time=11', 'note_on channel=0 note=78 velocity=0 time=0')
Note: ('note_on channel=0 note=76 velocity=0 time=15', 'note_on channel=0 note=78 velocity=72 time=2', 'note_on channel=0 note=76 velocity=71 time=11', 'note_on channel=0 note=78 velocity=0 time=0', 'note_on channel=0 note=76 velocity=0 time=15')
Note: ('note_on channel=0 note=78 velocity=72 time=2', 'note_on channel=0 note=76 velocity=71 time=11', 'note_on channel=0 note=78 velocity=0 time=0', 'note_on channel=0 note=76 velocity=0 time=15', 'note_on channel=0 note=78 velocity=70 time=2')
Note: ('note_on channel=0 note=76 velocity=71 time=11', 'note_on channel=0 note=78 velocity=0 time=0', 'note_on channel=0 note=76 velocity=0 time=15', 'note_on channel=0 note=78 velocity=70 time=2', 'note_on channel=0 note=69 velocity=62 time=8')
Note: ('note_on channel=0 note=78 velocity=0 time=0', 'note_on channel=0 note=76 velocity=0 time=15', 'note_on channel=0 note=78 velocity=70 time=2', 'note_on channel=0 note=69 velocity=62 time=8', 'note_on channel=0 note=69 velocity=0 time=10')
Note: ('note_on channel=0 note=76 velocity=0 time=15', 'note_on channel=0 note=78 velocity=70 time=2', 'note_on channel=0 note=69 velocity=62 time=8', 'note_on channel=0 note=69 velocity=0 time=10', 'note_on channel=0 note=76 velocity=67 time=3')
Note: ('note_on channel=0 note=78 velocity=70 time=2', 'note_on channel=0 note=69 velocity=62 time=8', 'note_on channel=0 note=69 velocity=0 time=10', 'note_on channel=0 note=76 velocity=67 time=3', 'note_on channel=0 note=78 velocity=0 time=2')
Note: ('note_on channel=0 note=69 velocity=62 time=8', 'note_on channel=0 note=69 velocity=0 time=10', 'note_on channel=0 note=76 velocity=67 time=3', 'note_on channel=0 note=78 velocity=0 time=2', 'note_on channel=0 note=76 velocity=0 time=51')
Note: ('note_on channel=0 note=69 velocity=0 time=10', 'note_on channel=0 note=76 velocity=67 time=3', 'note_on channel=0 note=78 velocity=0 time=2', 'note_on channel=0 note=76 velocity=0 time=51', 'note_on channel=0 note=78 velocity=72 time=8')
Note: ('note_on channel=0 note=76 velocity=67 time=3', 'note_on channel=0 note=78 velocity=0 time=2', 'note_on channel=0 note=76 velocity=0 time=51', 'note_on channel=0 note=78 velocity=72 time=8', 'note_on channel=0 note=76 velocity=68 time=10')
Note: ('note_on channel=0 note=78 velocity=0 time=2', 'note_on channel=0 note=76 velocity=0 time=51', 'note_on channel=0 note=78 velocity=72 time=8', 'note_on channel=0 note=76 velocity=68 time=10', 'note_on channel=0 note=78 velocity=0 time=0')
Note: ('note_on channel=0 note=76 velocity=0 time=51', 'note_on channel=0 note=78 velocity=72 time=8', 'note_on channel=0 note=76 velocity=68 time=10', 'note_on channel=0 note=78 velocity=0 time=0', 'note_on channel=0 note=76 velocity=0 time=0')
Note: ('note_on channel=0 note=78 velocity=72 time=8', 'note_on channel=0 note=76 velocity=68 time=10', 'note_on channel=0 note=78 velocity=0 time=0', 'note_on channel=0 note=76 velocity=0 time=0', 'note_on channel=0 note=74 velocity=71 time=7')
Note: ('note_on channel=0 note=76 velocity=68 time=10', 'note_on channel=0 note=78 velocity=0 time=0', 'note_on channel=0 note=76 velocity=0 time=0', 'note_on channel=0 note=74 velocity=71 time=7', 'note_on channel=0 note=74 velocity=0 time=11')
Note: ('note_on channel=0 note=78 velocity=0 time=0', 'note_on channel=0 note=76 velocity=0 time=0', 'note_on channel=0 note=74 velocity=71 time=7', 'note_on channel=0 note=74 velocity=0 time=11', 'note_on channel=0 note=76 velocity=70 time=3')
Note: ('note_on channel=0 note=76 velocity=0 time=0', 'note_on channel=0 note=74 velocity=71 time=7', 'note_on channel=0 note=74 velocity=0 time=11', 'note_on channel=0 note=76 velocity=70 time=3', 'note_on channel=0 note=76 velocity=0 time=0')
Note: ('note_on channel=0 note=74 velocity=71 time=7', 'note_on channel=0 note=74 velocity=0 time=11', 'note_on channel=0 note=76 velocity=70 time=3', 'note_on channel=0 note=76 velocity=0 time=0', 'note_on channel=0 note=62 velocity=46 time=5')
Note: ('note_on channel=0 note=74 velocity=0 time=11', 'note_on channel=0 note=76 velocity=70 time=3', 'note_on channel=0 note=76 velocity=0 time=0', 'note_on channel=0 note=62 velocity=46 time=5', 'note_on channel=0 note=78 velocity=70 time=0')
Note: ('note_on channel=0 note=76 velocity=70 time=3', 'note_on channel=0 note=76 velocity=0 time=0', 'note_on channel=0 note=62 velocity=46 time=5', 'note_on channel=0 note=78 velocity=70 time=0', 'note_on channel=0 note=78 velocity=0 time=8')
Note: ('note_on channel=0 note=76 velocity=0 time=0', 'note_on channel=0 note=62 velocity=46 time=5', 'note_on channel=0 note=78 velocity=70 time=0', 'note_on channel=0 note=78 velocity=0 time=8', 'note_on channel=0 note=62 velocity=0 time=6')
Note: ('note_on channel=0 note=62 velocity=46 time=5', 'note_on channel=0 note=78 velocity=70 time=0', 'note_on channel=0 note=78 velocity=0 time=8', 'note_on channel=0 note=62 velocity=0 time=6', 'note_on channel=0 note=62 velocity=67 time=0')
Note: ('note_on channel=0 note=78 velocity=70 time=0', 'note_on channel=0 note=78 velocity=0 time=8', 'note_on channel=0 note=62 velocity=0 time=6', 'note_on channel=0 note=62 velocity=67 time=0', 'note_on channel=0 note=81 velocity=73 time=1')
Note: ('note_on channel=0 note=78 velocity=0 time=8', 'note_on channel=0 note=62 velocity=0 time=6', 'note_on channel=0 note=62 velocity=67 time=0', 'note_on channel=0 note=81 velocity=73 time=1', 'note_on channel=0 note=62 velocity=0 time=13')
Note: ('note_on channel=0 note=62 velocity=0 time=6', 'note_on channel=0 note=62 velocity=67 time=0', 'note_on channel=0 note=81 velocity=73 time=1', 'note_on channel=0 note=62 velocity=0 time=13', 'note_on channel=0 note=81 velocity=0 time=14')
Note: ('note_on channel=0 note=62 velocity=67 time=0', 'note_on channel=0 note=81 velocity=73 time=1', 'note_on channel=0 note=62 velocity=0 time=13', 'note_on channel=0 note=81 velocity=0 time=14', 'note_on channel=0 note=74 velocity=68 time=3')
Note: ('note_on channel=0 note=81 velocity=73 time=1', 'note_on channel=0 note=62 velocity=0 time=13', 'note_on channel=0 note=81 velocity=0 time=14', 'note_on channel=0 note=74 velocity=68 time=3', 'note_on channel=0 note=74 velocity=0 time=36')
Note: ('note_on channel=0 note=62 velocity=0 time=13', 'note_on channel=0 note=81 velocity=0 time=14', 'note_on channel=0 note=74 velocity=68 time=3', 'note_on channel=0 note=74 velocity=0 time=36', 'note_on channel=0 note=69 velocity=59 time=33')
Note: ('note_on channel=0 note=81 velocity=0 time=14', 'note_on channel=0 note=74 velocity=68 time=3', 'note_on channel=0 note=74 velocity=0 time=36', 'note_on channel=0 note=69 velocity=59 time=33', 'note_on channel=0 note=55 velocity=61 time=60')
Note: ('note_on channel=0 note=74 velocity=68 time=3', 'note_on channel=0 note=74 velocity=0 time=36', 'note_on channel=0 note=69 velocity=59 time=33', 'note_on channel=0 note=55 velocity=61 time=60', 'note_on channel=0 note=71 velocity=66 time=4')
Note: ('note_on channel=0 note=74 velocity=0 time=36', 'note_on channel=0 note=69 velocity=59 time=33', 'note_on channel=0 note=55 velocity=61 time=60', 'note_on channel=0 note=71 velocity=66 time=4', 'note_on channel=0 note=69 velocity=0 time=3')
Note: ('note_on channel=0 note=69 velocity=59 time=33', 'note_on channel=0 note=55 velocity=61 time=60', 'note_on channel=0 note=71 velocity=66 time=4', 'note_on channel=0 note=69 velocity=0 time=3', 'note_on channel=0 note=55 velocity=0 time=14')
Note: ('note_on channel=0 note=55 velocity=61 time=60', 'note_on channel=0 note=71 velocity=66 time=4', 'note_on channel=0 note=69 velocity=0 time=3', 'note_on channel=0 note=55 velocity=0 time=14', 'note_on channel=0 note=71 velocity=0 time=13')
Note: ('note_on channel=0 note=71 velocity=66 time=4', 'note_on channel=0 note=69 velocity=0 time=3', 'note_on channel=0 note=55 velocity=0 time=14', 'note_on channel=0 note=71 velocity=0 time=13', 'note_on channel=0 note=73 velocity=68 time=10')
Note: ('note_on channel=0 note=69 velocity=0 time=3', 'note_on channel=0 note=55 velocity=0 time=14', 'note_on channel=0 note=71 velocity=0 time=13', 'note_on channel=0 note=73 velocity=68 time=10', 'note_on channel=0 note=73 velocity=0 time=8')
Note: ('note_on channel=0 note=55 velocity=0 time=14', 'note_on channel=0 note=71 velocity=0 time=13', 'note_on channel=0 note=73 velocity=68 time=10', 'note_on channel=0 note=73 velocity=0 time=8', 'note_on channel=0 note=71 velocity=65 time=1')
Note: ('note_on channel=0 note=71 velocity=0 time=13', 'note_on channel=0 note=73 velocity=68 time=10', 'note_on channel=0 note=73 velocity=0 time=8', 'note_on channel=0 note=71 velocity=65 time=1', 'note_on channel=0 note=64 velocity=59 time=16')
Note: ('note_on channel=0 note=73 velocity=68 time=10', 'note_on channel=0 note=73 velocity=0 time=8', 'note_on channel=0 note=71 velocity=65 time=1', 'note_on channel=0 note=64 velocity=59 time=16', 'note_on channel=0 note=71 velocity=0 time=12')
Note: ('note_on channel=0 note=73 velocity=0 time=8', 'note_on channel=0 note=71 velocity=65 time=1', 'note_on channel=0 note=64 velocity=59 time=16', 'note_on channel=0 note=71 velocity=0 time=12', 'note_on channel=0 note=64 velocity=0 time=9')
Note: ('note_on channel=0 note=71 velocity=65 time=1', 'note_on channel=0 note=64 velocity=59 time=16', 'note_on channel=0 note=71 velocity=0 time=12', 'note_on channel=0 note=64 velocity=0 time=9', 'note_on channel=0 note=69 velocity=68 time=23')
Note: ('note_on channel=0 note=64 velocity=59 time=16', 'note_on channel=0 note=71 velocity=0 time=12', 'note_on channel=0 note=64 velocity=0 time=9', 'note_on channel=0 note=69 velocity=68 time=23', 'note_on channel=0 note=69 velocity=0 time=11')
Note: ('note_on channel=0 note=71 velocity=0 time=12', 'note_on channel=0 note=64 velocity=0 time=9', 'note_on channel=0 note=69 velocity=68 time=23', 'note_on channel=0 note=69 velocity=0 time=11', 'note_on channel=0 note=71 velocity=62 time=1')
Note: ('note_on channel=0 note=64 velocity=0 time=9', 'note_on channel=0 note=69 velocity=68 time=23', 'note_on channel=0 note=69 velocity=0 time=11', 'note_on channel=0 note=71 velocity=62 time=1', 'note_on channel=0 note=57 velocity=61 time=9')
Note: ('note_on channel=0 note=69 velocity=68 time=23', 'note_on channel=0 note=69 velocity=0 time=11', 'note_on channel=0 note=71 velocity=62 time=1', 'note_on channel=0 note=57 velocity=61 time=9', 'note_on channel=0 note=73 velocity=73 time=3')
Note: ('note_on channel=0 note=69 velocity=0 time=11', 'note_on channel=0 note=71 velocity=62 time=1', 'note_on channel=0 note=57 velocity=61 time=9', 'note_on channel=0 note=73 velocity=73 time=3', 'note_on channel=0 note=71 velocity=0 time=3')
Note: ('note_on channel=0 note=71 velocity=62 time=1', 'note_on channel=0 note=57 velocity=61 time=9', 'note_on channel=0 note=73 velocity=73 time=3', 'note_on channel=0 note=71 velocity=0 time=3', 'note_on channel=0 note=57 velocity=0 time=6')
Note: ('note_on channel=0 note=57 velocity=61 time=9', 'note_on channel=0 note=73 velocity=73 time=3', 'note_on channel=0 note=71 velocity=0 time=3', 'note_on channel=0 note=57 velocity=0 time=6', 'note_on channel=0 note=73 velocity=0 time=10')
Note: ('note_on channel=0 note=73 velocity=73 time=3', 'note_on channel=0 note=71 velocity=0 time=3', 'note_on channel=0 note=57 velocity=0 time=6', 'note_on channel=0 note=73 velocity=0 time=10', 'note_on channel=0 note=74 velocity=68 time=5')
Note: ('note_on channel=0 note=71 velocity=0 time=3', 'note_on channel=0 note=57 velocity=0 time=6', 'note_on channel=0 note=73 velocity=0 time=10', 'note_on channel=0 note=74 velocity=68 time=5', 'note_on channel=0 note=73 velocity=67 time=12')
Note: ('note_on channel=0 note=57 velocity=0 time=6', 'note_on channel=0 note=73 velocity=0 time=10', 'note_on channel=0 note=74 velocity=68 time=5', 'note_on channel=0 note=73 velocity=67 time=12', 'note_on channel=0 note=74 velocity=0 time=10')
Note: ('note_on channel=0 note=73 velocity=0 time=10', 'note_on channel=0 note=74 velocity=68 time=5', 'note_on channel=0 note=73 velocity=67 time=12', 'note_on channel=0 note=74 velocity=0 time=10', 'note_on channel=0 note=66 velocity=59 time=24')
Note: ('note_on channel=0 note=74 velocity=68 time=5', 'note_on channel=0 note=73 velocity=67 time=12', 'note_on channel=0 note=74 velocity=0 time=10', 'note_on channel=0 note=66 velocity=59 time=24', 'note_on channel=0 note=73 velocity=0 time=13')
Note: ('note_on channel=0 note=73 velocity=67 time=12', 'note_on channel=0 note=74 velocity=0 time=10', 'note_on channel=0 note=66 velocity=59 time=24', 'note_on channel=0 note=73 velocity=0 time=13', 'note_on channel=0 note=66 velocity=0 time=2')
Note: ('note_on channel=0 note=74 velocity=0 time=10', 'note_on channel=0 note=66 velocity=59 time=24', 'note_on channel=0 note=73 velocity=0 time=13', 'note_on channel=0 note=66 velocity=0 time=2', 'note_on channel=0 note=71 velocity=68 time=11')
Note: ('note_on channel=0 note=66 velocity=59 time=24', 'note_on channel=0 note=73 velocity=0 time=13', 'note_on channel=0 note=66 velocity=0 time=2', 'note_on channel=0 note=71 velocity=68 time=11', 'note_on channel=0 note=73 velocity=59 time=3')
Note: ('note_on channel=0 note=73 velocity=0 time=13', 'note_on channel=0 note=66 velocity=0 time=2', 'note_on channel=0 note=71 velocity=68 time=11', 'note_on channel=0 note=73 velocity=59 time=3', 'note_on channel=0 note=71 velocity=0 time=8')
Note: ('note_on channel=0 note=66 velocity=0 time=2', 'note_on channel=0 note=71 velocity=68 time=11', 'note_on channel=0 note=73 velocity=59 time=3', 'note_on channel=0 note=71 velocity=0 time=8', 'note_on channel=0 note=59 velocity=65 time=13')
Note: ('note_on channel=0 note=71 velocity=68 time=11', 'note_on channel=0 note=73 velocity=59 time=3', 'note_on channel=0 note=71 velocity=0 time=8', 'note_on channel=0 note=59 velocity=65 time=13', 'note_on channel=0 note=74 velocity=80 time=1')
Note: ('note_on channel=0 note=73 velocity=59 time=3', 'note_on channel=0 note=71 velocity=0 time=8', 'note_on channel=0 note=59 velocity=65 time=13', 'note_on channel=0 note=74 velocity=80 time=1', 'note_on channel=0 note=73 velocity=0 time=8')
Note: ('note_on channel=0 note=71 velocity=0 time=8', 'note_on channel=0 note=59 velocity=65 time=13', 'note_on channel=0 note=74 velocity=80 time=1', 'note_on channel=0 note=73 velocity=0 time=8', 'note_on channel=0 note=59 velocity=0 time=4')
Note: ('note_on channel=0 note=59 velocity=65 time=13', 'note_on channel=0 note=74 velocity=80 time=1', 'note_on channel=0 note=73 velocity=0 time=8', 'note_on channel=0 note=59 velocity=0 time=4', 'note_on channel=0 note=74 velocity=0 time=6')
Note: ('note_on channel=0 note=74 velocity=80 time=1', 'note_on channel=0 note=73 velocity=0 time=8', 'note_on channel=0 note=59 velocity=0 time=4', 'note_on channel=0 note=74 velocity=0 time=6', 'note_on channel=0 note=76 velocity=67 time=15')
Note: ('note_on channel=0 note=73 velocity=0 time=8', 'note_on channel=0 note=59 velocity=0 time=4', 'note_on channel=0 note=74 velocity=0 time=6', 'note_on channel=0 note=76 velocity=67 time=15', 'note_on channel=0 note=74 velocity=71 time=60')
Note: ('note_on channel=0 note=59 velocity=0 time=4', 'note_on channel=0 note=74 velocity=0 time=6', 'note_on channel=0 note=76 velocity=67 time=15', 'note_on channel=0 note=74 velocity=71 time=60', 'note_on channel=0 note=76 velocity=0 time=2')
Note: ('note_on channel=0 note=74 velocity=0 time=6', 'note_on channel=0 note=76 velocity=67 time=15', 'note_on channel=0 note=74 velocity=71 time=60', 'note_on channel=0 note=76 velocity=0 time=2', 'note_on channel=0 note=67 velocity=61 time=26')
Note: ('note_on channel=0 note=76 velocity=67 time=15', 'note_on channel=0 note=74 velocity=71 time=60', 'note_on channel=0 note=76 velocity=0 time=2', 'note_on channel=0 note=67 velocity=61 time=26', 'note_on channel=0 note=74 velocity=0 time=19')
Note: ('note_on channel=0 note=74 velocity=71 time=60', 'note_on channel=0 note=76 velocity=0 time=2', 'note_on channel=0 note=67 velocity=61 time=26', 'note_on channel=0 note=74 velocity=0 time=19', 'note_on channel=0 note=67 velocity=0 time=9')
Note: ('note_on channel=0 note=76 velocity=0 time=2', 'note_on channel=0 note=67 velocity=61 time=26', 'note_on channel=0 note=74 velocity=0 time=19', 'note_on channel=0 note=67 velocity=0 time=9', 'note_on channel=0 note=73 velocity=75 time=3')
Note: ('note_on channel=0 note=67 velocity=61 time=26', 'note_on channel=0 note=74 velocity=0 time=19', 'note_on channel=0 note=67 velocity=0 time=9', 'note_on channel=0 note=73 velocity=75 time=3', 'note_on channel=0 note=73 velocity=0 time=48')
Note: ('note_on channel=0 note=74 velocity=0 time=19', 'note_on channel=0 note=67 velocity=0 time=9', 'note_on channel=0 note=73 velocity=75 time=3', 'note_on channel=0 note=73 velocity=0 time=48', 'note_on channel=0 note=74 velocity=69 time=19')
Note: ('note_on channel=0 note=67 velocity=0 time=9', 'note_on channel=0 note=73 velocity=75 time=3', 'note_on channel=0 note=73 velocity=0 time=48', 'note_on channel=0 note=74 velocity=69 time=19', 'note_on channel=0 note=76 velocity=80 time=49')
Note: ('note_on channel=0 note=73 velocity=75 time=3', 'note_on channel=0 note=73 velocity=0 time=48', 'note_on channel=0 note=74 velocity=69 time=19', 'note_on channel=0 note=76 velocity=80 time=49', 'note_on channel=0 note=61 velocity=61 time=6')
Note: ('note_on channel=0 note=73 velocity=0 time=48', 'note_on channel=0 note=74 velocity=69 time=19', 'note_on channel=0 note=76 velocity=80 time=49', 'note_on channel=0 note=61 velocity=61 time=6', 'note_on channel=0 note=74 velocity=0 time=3')
Note: ('note_on channel=0 note=74 velocity=69 time=19', 'note_on channel=0 note=76 velocity=80 time=49', 'note_on channel=0 note=61 velocity=61 time=6', 'note_on channel=0 note=74 velocity=0 time=3', 'note_on channel=0 note=61 velocity=0 time=28')
Note: ('note_on channel=0 note=76 velocity=80 time=49', 'note_on channel=0 note=61 velocity=61 time=6', 'note_on channel=0 note=74 velocity=0 time=3', 'note_on channel=0 note=61 velocity=0 time=28', 'note_on channel=0 note=76 velocity=0 time=30')
Note: ('note_on channel=0 note=61 velocity=61 time=6', 'note_on channel=0 note=74 velocity=0 time=3', 'note_on channel=0 note=61 velocity=0 time=28', 'note_on channel=0 note=76 velocity=0 time=30', 'note_on channel=0 note=78 velocity=77 time=5')
Note: ('note_on channel=0 note=74 velocity=0 time=3', 'note_on channel=0 note=61 velocity=0 time=28', 'note_on channel=0 note=76 velocity=0 time=30', 'note_on channel=0 note=78 velocity=77 time=5', 'note_on channel=0 note=76 velocity=74 time=67')
Note: ('note_on channel=0 note=61 velocity=0 time=28', 'note_on channel=0 note=76 velocity=0 time=30', 'note_on channel=0 note=78 velocity=77 time=5', 'note_on channel=0 note=76 velocity=74 time=67', 'note_on channel=0 note=78 velocity=0 time=26')
Note: ('note_on channel=0 note=76 velocity=0 time=30', 'note_on channel=0 note=78 velocity=77 time=5', 'note_on channel=0 note=76 velocity=74 time=67', 'note_on channel=0 note=78 velocity=0 time=26', 'note_on channel=0 note=69 velocity=66 time=2')
Note: ('note_on channel=0 note=78 velocity=77 time=5', 'note_on channel=0 note=76 velocity=74 time=67', 'note_on channel=0 note=78 velocity=0 time=26', 'note_on channel=0 note=69 velocity=66 time=2', 'note_on channel=0 note=76 velocity=0 time=19')
Note: ('note_on channel=0 note=76 velocity=74 time=67', 'note_on channel=0 note=78 velocity=0 time=26', 'note_on channel=0 note=69 velocity=66 time=2', 'note_on channel=0 note=76 velocity=0 time=19', 'note_on channel=0 note=69 velocity=0 time=6')
Note: ('note_on channel=0 note=78 velocity=0 time=26', 'note_on channel=0 note=69 velocity=66 time=2', 'note_on channel=0 note=76 velocity=0 time=19', 'note_on channel=0 note=69 velocity=0 time=6', 'note_on channel=0 note=74 velocity=79 time=16')
Note: ('note_on channel=0 note=69 velocity=66 time=2', 'note_on channel=0 note=76 velocity=0 time=19', 'note_on channel=0 note=69 velocity=0 time=6', 'note_on channel=0 note=74 velocity=79 time=16', 'note_on channel=0 note=76 velocity=73 time=54')
Note: ('note_on channel=0 note=76 velocity=0 time=19', 'note_on channel=0 note=69 velocity=0 time=6', 'note_on channel=0 note=74 velocity=79 time=16', 'note_on channel=0 note=76 velocity=73 time=54', 'note_on channel=0 note=74 velocity=0 time=7')
Note: ('note_on channel=0 note=69 velocity=0 time=6', 'note_on channel=0 note=74 velocity=79 time=16', 'note_on channel=0 note=76 velocity=73 time=54', 'note_on channel=0 note=74 velocity=0 time=7', 'note_on channel=0 note=62 velocity=66 time=55')
Note: ('note_on channel=0 note=74 velocity=79 time=16', 'note_on channel=0 note=76 velocity=73 time=54', 'note_on channel=0 note=74 velocity=0 time=7', 'note_on channel=0 note=62 velocity=66 time=55', 'note_on channel=0 note=78 velocity=86 time=5')
Note: ('note_on channel=0 note=76 velocity=73 time=54', 'note_on channel=0 note=74 velocity=0 time=7', 'note_on channel=0 note=62 velocity=66 time=55', 'note_on channel=0 note=78 velocity=86 time=5', 'note_on channel=0 note=76 velocity=0 time=16')
Note: ('note_on channel=0 note=74 velocity=0 time=7', 'note_on channel=0 note=62 velocity=66 time=55', 'note_on channel=0 note=78 velocity=86 time=5', 'note_on channel=0 note=76 velocity=0 time=16', 'note_on channel=0 note=62 velocity=0 time=11')
Note: ('note_on channel=0 note=62 velocity=66 time=55', 'note_on channel=0 note=78 velocity=86 time=5', 'note_on channel=0 note=76 velocity=0 time=16', 'note_on channel=0 note=62 velocity=0 time=11', 'note_on channel=0 note=79 velocity=73 time=24')
Note: ('note_on channel=0 note=78 velocity=86 time=5', 'note_on channel=0 note=76 velocity=0 time=16', 'note_on channel=0 note=62 velocity=0 time=11', 'note_on channel=0 note=79 velocity=73 time=24', 'note_on channel=0 note=78 velocity=0 time=6')
Note: ('note_on channel=0 note=76 velocity=0 time=16', 'note_on channel=0 note=62 velocity=0 time=11', 'note_on channel=0 note=79 velocity=73 time=24', 'note_on channel=0 note=78 velocity=0 time=6', 'note_on channel=0 note=78 velocity=72 time=56')
Note: ('note_on channel=0 note=62 velocity=0 time=11', 'note_on channel=0 note=79 velocity=73 time=24', 'note_on channel=0 note=78 velocity=0 time=6', 'note_on channel=0 note=78 velocity=72 time=56', 'note_on channel=0 note=79 velocity=0 time=18')
Note: ('note_on channel=0 note=79 velocity=73 time=24', 'note_on channel=0 note=78 velocity=0 time=6', 'note_on channel=0 note=78 velocity=72 time=56', 'note_on channel=0 note=79 velocity=0 time=18', 'note_on channel=0 note=71 velocity=61 time=26')
Note: ('note_on channel=0 note=78 velocity=0 time=6', 'note_on channel=0 note=78 velocity=72 time=56', 'note_on channel=0 note=79 velocity=0 time=18', 'note_on channel=0 note=71 velocity=61 time=26', 'note_on channel=0 note=78 velocity=0 time=15')
Note: ('note_on channel=0 note=78 velocity=72 time=56', 'note_on channel=0 note=79 velocity=0 time=18', 'note_on channel=0 note=71 velocity=61 time=26', 'note_on channel=0 note=78 velocity=0 time=15', 'note_on channel=0 note=76 velocity=75 time=10')
Note: ('note_on channel=0 note=79 velocity=0 time=18', 'note_on channel=0 note=71 velocity=61 time=26', 'note_on channel=0 note=78 velocity=0 time=15', 'note_on channel=0 note=76 velocity=75 time=10', 'note_on channel=0 note=71 velocity=0 time=1')
Note: ('note_on channel=0 note=71 velocity=61 time=26', 'note_on channel=0 note=78 velocity=0 time=15', 'note_on channel=0 note=76 velocity=75 time=10', 'note_on channel=0 note=71 velocity=0 time=1', 'note_on channel=0 note=78 velocity=79 time=54')
Note: ('note_on channel=0 note=78 velocity=0 time=15', 'note_on channel=0 note=76 velocity=75 time=10', 'note_on channel=0 note=71 velocity=0 time=1', 'note_on channel=0 note=78 velocity=79 time=54', 'note_on channel=0 note=76 velocity=0 time=6')
Note: ('note_on channel=0 note=76 velocity=75 time=10', 'note_on channel=0 note=71 velocity=0 time=1', 'note_on channel=0 note=78 velocity=79 time=54', 'note_on channel=0 note=76 velocity=0 time=6', 'note_on channel=0 note=79 velocity=86 time=60')
Note: ('note_on channel=0 note=71 velocity=0 time=1', 'note_on channel=0 note=78 velocity=79 time=54', 'note_on channel=0 note=76 velocity=0 time=6', 'note_on channel=0 note=79 velocity=86 time=60', 'note_on channel=0 note=64 velocity=67 time=5')
Note: ('note_on channel=0 note=78 velocity=79 time=54', 'note_on channel=0 note=76 velocity=0 time=6', 'note_on channel=0 note=79 velocity=86 time=60', 'note_on channel=0 note=64 velocity=67 time=5', 'note_on channel=0 note=78 velocity=0 time=3')
Note: ('note_on channel=0 note=76 velocity=0 time=6', 'note_on channel=0 note=79 velocity=86 time=60', 'note_on channel=0 note=64 velocity=67 time=5', 'note_on channel=0 note=78 velocity=0 time=3', 'note_on channel=0 note=64 velocity=0 time=28')
Note: ('note_on channel=0 note=79 velocity=86 time=60', 'note_on channel=0 note=64 velocity=67 time=5', 'note_on channel=0 note=78 velocity=0 time=3', 'note_on channel=0 note=64 velocity=0 time=28', 'note_on channel=0 note=81 velocity=77 time=11')
Note: ('note_on channel=0 note=64 velocity=67 time=5', 'note_on channel=0 note=78 velocity=0 time=3', 'note_on channel=0 note=64 velocity=0 time=28', 'note_on channel=0 note=81 velocity=77 time=11', 'note_on channel=0 note=79 velocity=0 time=2')
Note: ('note_on channel=0 note=78 velocity=0 time=3', 'note_on channel=0 note=64 velocity=0 time=28', 'note_on channel=0 note=81 velocity=77 time=11', 'note_on channel=0 note=79 velocity=0 time=2', 'note_on channel=0 note=79 velocity=78 time=65')
Note: ('note_on channel=0 note=64 velocity=0 time=28', 'note_on channel=0 note=81 velocity=77 time=11', 'note_on channel=0 note=79 velocity=0 time=2', 'note_on channel=0 note=79 velocity=78 time=65', 'note_on channel=0 note=81 velocity=0 time=13')
Note: ('note_on channel=0 note=81 velocity=77 time=11', 'note_on channel=0 note=79 velocity=0 time=2', 'note_on channel=0 note=79 velocity=78 time=65', 'note_on channel=0 note=81 velocity=0 time=13', 'note_on channel=0 note=73 velocity=71 time=23')
Note: ('note_on channel=0 note=79 velocity=0 time=2', 'note_on channel=0 note=79 velocity=78 time=65', 'note_on channel=0 note=81 velocity=0 time=13', 'note_on channel=0 note=73 velocity=71 time=23', 'note_on channel=0 note=79 velocity=0 time=22')
Note: ('note_on channel=0 note=79 velocity=78 time=65', 'note_on channel=0 note=81 velocity=0 time=13', 'note_on channel=0 note=73 velocity=71 time=23', 'note_on channel=0 note=79 velocity=0 time=22', 'note_on channel=0 note=78 velocity=80 time=3')
Note: ('note_on channel=0 note=81 velocity=0 time=13', 'note_on channel=0 note=73 velocity=71 time=23', 'note_on channel=0 note=79 velocity=0 time=22', 'note_on channel=0 note=78 velocity=80 time=3', 'note_on channel=0 note=73 velocity=0 time=12')
Note: ('note_on channel=0 note=73 velocity=71 time=23', 'note_on channel=0 note=79 velocity=0 time=22', 'note_on channel=0 note=78 velocity=80 time=3', 'note_on channel=0 note=73 velocity=0 time=12', 'note_on channel=0 note=78 velocity=0 time=49')
Note: ('note_on channel=0 note=79 velocity=0 time=22', 'note_on channel=0 note=78 velocity=80 time=3', 'note_on channel=0 note=73 velocity=0 time=12', 'note_on channel=0 note=78 velocity=0 time=49', 'note_on channel=0 note=79 velocity=78 time=8')
Note: ('note_on channel=0 note=78 velocity=80 time=3', 'note_on channel=0 note=73 velocity=0 time=12', 'note_on channel=0 note=78 velocity=0 time=49', 'note_on channel=0 note=79 velocity=78 time=8', 'note_on channel=0 note=81 velocity=89 time=61')
Note: ('note_on channel=0 note=73 velocity=0 time=12', 'note_on channel=0 note=78 velocity=0 time=49', 'note_on channel=0 note=79 velocity=78 time=8', 'note_on channel=0 note=81 velocity=89 time=61', 'note_on channel=0 note=66 velocity=77 time=1')
Note: ('note_on channel=0 note=78 velocity=0 time=49', 'note_on channel=0 note=79 velocity=78 time=8', 'note_on channel=0 note=81 velocity=89 time=61', 'note_on channel=0 note=66 velocity=77 time=1', 'note_on channel=0 note=79 velocity=0 time=10')
Note: ('note_on channel=0 note=79 velocity=78 time=8', 'note_on channel=0 note=81 velocity=89 time=61', 'note_on channel=0 note=66 velocity=77 time=1', 'note_on channel=0 note=79 velocity=0 time=10', 'note_on channel=0 note=66 velocity=0 time=42')
Note: ('note_on channel=0 note=81 velocity=89 time=61', 'note_on channel=0 note=66 velocity=77 time=1', 'note_on channel=0 note=79 velocity=0 time=10', 'note_on channel=0 note=66 velocity=0 time=42', 'note_on channel=0 note=81 velocity=0 time=11')
Note: ('note_on channel=0 note=66 velocity=77 time=1', 'note_on channel=0 note=79 velocity=0 time=10', 'note_on channel=0 note=66 velocity=0 time=42', 'note_on channel=0 note=81 velocity=0 time=11', 'note_on channel=0 note=83 velocity=79 time=1')
Note: ('note_on channel=0 note=79 velocity=0 time=10', 'note_on channel=0 note=66 velocity=0 time=42', 'note_on channel=0 note=81 velocity=0 time=11', 'note_on channel=0 note=83 velocity=79 time=1', 'note_on channel=0 note=81 velocity=85 time=70')
Note: ('note_on channel=0 note=66 velocity=0 time=42', 'note_on channel=0 note=81 velocity=0 time=11', 'note_on channel=0 note=83 velocity=79 time=1', 'note_on channel=0 note=81 velocity=85 time=70', 'note_on channel=0 note=83 velocity=0 time=15')
Note: ('note_on channel=0 note=81 velocity=0 time=11', 'note_on channel=0 note=83 velocity=79 time=1', 'note_on channel=0 note=81 velocity=85 time=70', 'note_on channel=0 note=83 velocity=0 time=15', 'note_on channel=0 note=74 velocity=82 time=3')
Note: ('note_on channel=0 note=83 velocity=79 time=1', 'note_on channel=0 note=81 velocity=85 time=70', 'note_on channel=0 note=83 velocity=0 time=15', 'note_on channel=0 note=74 velocity=82 time=3', 'note_on channel=0 note=81 velocity=0 time=34')
Note: ('note_on channel=0 note=81 velocity=85 time=70', 'note_on channel=0 note=83 velocity=0 time=15', 'note_on channel=0 note=74 velocity=82 time=3', 'note_on channel=0 note=81 velocity=0 time=34', 'note_on channel=0 note=74 velocity=0 time=6')
Note: ('note_on channel=0 note=83 velocity=0 time=15', 'note_on channel=0 note=74 velocity=82 time=3', 'note_on channel=0 note=81 velocity=0 time=34', 'note_on channel=0 note=74 velocity=0 time=6', 'note_on channel=0 note=79 velocity=81 time=3')
Note: ('note_on channel=0 note=74 velocity=82 time=3', 'note_on channel=0 note=81 velocity=0 time=34', 'note_on channel=0 note=74 velocity=0 time=6', 'note_on channel=0 note=79 velocity=81 time=3', 'note_on channel=0 note=81 velocity=85 time=53')
Note: ('note_on channel=0 note=81 velocity=0 time=34', 'note_on channel=0 note=74 velocity=0 time=6', 'note_on channel=0 note=79 velocity=81 time=3', 'note_on channel=0 note=81 velocity=85 time=53', 'note_on channel=0 note=79 velocity=0 time=8')
Note: ('note_on channel=0 note=74 velocity=0 time=6', 'note_on channel=0 note=79 velocity=81 time=3', 'note_on channel=0 note=81 velocity=85 time=53', 'note_on channel=0 note=79 velocity=0 time=8', 'note_on channel=0 note=67 velocity=83 time=36')
Note: ('note_on channel=0 note=79 velocity=81 time=3', 'note_on channel=0 note=81 velocity=85 time=53', 'note_on channel=0 note=79 velocity=0 time=8', 'note_on channel=0 note=67 velocity=83 time=36', 'note_on channel=0 note=83 velocity=87 time=14')
Note: ('note_on channel=0 note=81 velocity=85 time=53', 'note_on channel=0 note=79 velocity=0 time=8', 'note_on channel=0 note=67 velocity=83 time=36', 'note_on channel=0 note=83 velocity=87 time=14', 'note_on channel=0 note=81 velocity=0 time=12')
Note: ('note_on channel=0 note=79 velocity=0 time=8', 'note_on channel=0 note=67 velocity=83 time=36', 'note_on channel=0 note=83 velocity=87 time=14', 'note_on channel=0 note=81 velocity=0 time=12', 'note_on channel=0 note=83 velocity=0 time=15')
Note: ('note_on channel=0 note=67 velocity=83 time=36', 'note_on channel=0 note=83 velocity=87 time=14', 'note_on channel=0 note=81 velocity=0 time=12', 'note_on channel=0 note=83 velocity=0 time=15', 'note_on channel=0 note=67 velocity=0 time=4')
Note: ('note_on channel=0 note=83 velocity=87 time=14', 'note_on channel=0 note=81 velocity=0 time=12', 'note_on channel=0 note=83 velocity=0 time=15', 'note_on channel=0 note=67 velocity=0 time=4', 'note_on channel=0 note=69 velocity=79 time=147')
Note: ('note_on channel=0 note=81 velocity=0 time=12', 'note_on channel=0 note=83 velocity=0 time=15', 'note_on channel=0 note=67 velocity=0 time=4', 'note_on channel=0 note=69 velocity=79 time=147', 'note_on channel=0 note=85 velocity=87 time=2')
Note: ('note_on channel=0 note=83 velocity=0 time=15', 'note_on channel=0 note=67 velocity=0 time=4', 'note_on channel=0 note=69 velocity=79 time=147', 'note_on channel=0 note=85 velocity=87 time=2', 'note_on channel=0 note=69 velocity=0 time=47')
Note: ('note_on channel=0 note=67 velocity=0 time=4', 'note_on channel=0 note=69 velocity=79 time=147', 'note_on channel=0 note=85 velocity=87 time=2', 'note_on channel=0 note=69 velocity=0 time=47', 'note_on channel=0 note=85 velocity=0 time=25')
Note: ('note_on channel=0 note=69 velocity=79 time=147', 'note_on channel=0 note=85 velocity=87 time=2', 'note_on channel=0 note=69 velocity=0 time=47', 'note_on channel=0 note=85 velocity=0 time=25', 'note_on channel=0 note=86 velocity=87 time=95')
Note: ('note_on channel=0 note=85 velocity=87 time=2', 'note_on channel=0 note=69 velocity=0 time=47', 'note_on channel=0 note=85 velocity=0 time=25', 'note_on channel=0 note=86 velocity=87 time=95', 'note_on channel=0 note=71 velocity=89 time=2')
Note: ('note_on channel=0 note=69 velocity=0 time=47', 'note_on channel=0 note=85 velocity=0 time=25', 'note_on channel=0 note=86 velocity=87 time=95', 'note_on channel=0 note=71 velocity=89 time=2', 'note_on channel=0 note=71 velocity=0 time=48')
Note: ('note_on channel=0 note=85 velocity=0 time=25', 'note_on channel=0 note=86 velocity=87 time=95', 'note_on channel=0 note=71 velocity=89 time=2', 'note_on channel=0 note=71 velocity=0 time=48', 'note_on channel=0 note=85 velocity=82 time=31')
Note: ('note_on channel=0 note=86 velocity=87 time=95', 'note_on channel=0 note=71 velocity=89 time=2', 'note_on channel=0 note=71 velocity=0 time=48', 'note_on channel=0 note=85 velocity=82 time=31', 'note_on channel=0 note=86 velocity=0 time=31')
Note: ('note_on channel=0 note=71 velocity=89 time=2', 'note_on channel=0 note=71 velocity=0 time=48', 'note_on channel=0 note=85 velocity=82 time=31', 'note_on channel=0 note=86 velocity=0 time=31', 'note_on channel=0 note=83 velocity=79 time=47')
Note: ('note_on channel=0 note=71 velocity=0 time=48', 'note_on channel=0 note=85 velocity=82 time=31', 'note_on channel=0 note=86 velocity=0 time=31', 'note_on channel=0 note=83 velocity=79 time=47', 'note_on channel=0 note=85 velocity=0 time=29')
Note: ('note_on channel=0 note=85 velocity=82 time=31', 'note_on channel=0 note=86 velocity=0 time=31', 'note_on channel=0 note=83 velocity=79 time=47', 'note_on channel=0 note=85 velocity=0 time=29', 'note_on channel=0 note=81 velocity=89 time=50')
Note: ('note_on channel=0 note=86 velocity=0 time=31', 'note_on channel=0 note=83 velocity=79 time=47', 'note_on channel=0 note=85 velocity=0 time=29', 'note_on channel=0 note=81 velocity=89 time=50', 'note_on channel=0 note=83 velocity=0 time=30')
Note: ('note_on channel=0 note=83 velocity=79 time=47', 'note_on channel=0 note=85 velocity=0 time=29', 'note_on channel=0 note=81 velocity=89 time=50', 'note_on channel=0 note=83 velocity=0 time=30', 'note_on channel=0 note=81 velocity=0 time=47')
Note: ('note_on channel=0 note=85 velocity=0 time=29', 'note_on channel=0 note=81 velocity=89 time=50', 'note_on channel=0 note=83 velocity=0 time=30', 'note_on channel=0 note=81 velocity=0 time=47', 'note_on channel=0 note=67 velocity=81 time=1')
Note: ('note_on channel=0 note=81 velocity=89 time=50', 'note_on channel=0 note=83 velocity=0 time=30', 'note_on channel=0 note=81 velocity=0 time=47', 'note_on channel=0 note=67 velocity=81 time=1', 'note_on channel=0 note=79 velocity=87 time=5')
Note: ('note_on channel=0 note=83 velocity=0 time=30', 'note_on channel=0 note=81 velocity=0 time=47', 'note_on channel=0 note=67 velocity=81 time=1', 'note_on channel=0 note=79 velocity=87 time=5', 'note_on channel=0 note=67 velocity=0 time=41')
Note: ('note_on channel=0 note=81 velocity=0 time=47', 'note_on channel=0 note=67 velocity=81 time=1', 'note_on channel=0 note=79 velocity=87 time=5', 'note_on channel=0 note=67 velocity=0 time=41', 'note_on channel=0 note=69 velocity=16 time=5')
Note: ('note_on channel=0 note=67 velocity=81 time=1', 'note_on channel=0 note=79 velocity=87 time=5', 'note_on channel=0 note=67 velocity=0 time=41', 'note_on channel=0 note=69 velocity=16 time=5', 'note_on channel=0 note=78 velocity=87 time=31')
Note: ('note_on channel=0 note=79 velocity=87 time=5', 'note_on channel=0 note=67 velocity=0 time=41', 'note_on channel=0 note=69 velocity=16 time=5', 'note_on channel=0 note=78 velocity=87 time=31', 'note_on channel=0 note=79 velocity=0 time=8')
Note: ('note_on channel=0 note=67 velocity=0 time=41', 'note_on channel=0 note=69 velocity=16 time=5', 'note_on channel=0 note=78 velocity=87 time=31', 'note_on channel=0 note=79 velocity=0 time=8', 'note_on channel=0 note=69 velocity=0 time=8')
Note: ('note_on channel=0 note=69 velocity=16 time=5', 'note_on channel=0 note=78 velocity=87 time=31', 'note_on channel=0 note=79 velocity=0 time=8', 'note_on channel=0 note=69 velocity=0 time=8', 'note_on channel=0 note=76 velocity=84 time=58')
Note: ('note_on channel=0 note=78 velocity=87 time=31', 'note_on channel=0 note=79 velocity=0 time=8', 'note_on channel=0 note=69 velocity=0 time=8', 'note_on channel=0 note=76 velocity=84 time=58', 'note_on channel=0 note=78 velocity=0 time=18')
Note: ('note_on channel=0 note=79 velocity=0 time=8', 'note_on channel=0 note=69 velocity=0 time=8', 'note_on channel=0 note=76 velocity=84 time=58', 'note_on channel=0 note=78 velocity=0 time=18', 'note_on channel=0 note=76 velocity=0 time=59')
Note: ('note_on channel=0 note=69 velocity=0 time=8', 'note_on channel=0 note=76 velocity=84 time=58', 'note_on channel=0 note=78 velocity=0 time=18', 'note_on channel=0 note=76 velocity=0 time=59', 'note_on channel=0 note=74 velocity=88 time=4')
Note: ('note_on channel=0 note=76 velocity=84 time=58', 'note_on channel=0 note=78 velocity=0 time=18', 'note_on channel=0 note=76 velocity=0 time=59', 'note_on channel=0 note=74 velocity=88 time=4', 'note_on channel=0 note=69 velocity=71 time=68')
Note: ('note_on channel=0 note=78 velocity=0 time=18', 'note_on channel=0 note=76 velocity=0 time=59', 'note_on channel=0 note=74 velocity=88 time=4', 'note_on channel=0 note=69 velocity=71 time=68', 'note_on channel=0 note=76 velocity=85 time=17')
Note: ('note_on channel=0 note=76 velocity=0 time=59', 'note_on channel=0 note=74 velocity=88 time=4', 'note_on channel=0 note=69 velocity=71 time=68', 'note_on channel=0 note=76 velocity=85 time=17', 'note_on channel=0 note=74 velocity=0 time=23')
Note: ('note_on channel=0 note=74 velocity=88 time=4', 'note_on channel=0 note=69 velocity=71 time=68', 'note_on channel=0 note=76 velocity=85 time=17', 'note_on channel=0 note=74 velocity=0 time=23', 'note_on channel=0 note=69 velocity=0 time=35')
Note: ('note_on channel=0 note=69 velocity=71 time=68', 'note_on channel=0 note=76 velocity=85 time=17', 'note_on channel=0 note=74 velocity=0 time=23', 'note_on channel=0 note=69 velocity=0 time=35', 'note_on channel=0 note=81 velocity=86 time=29')
Note: ('note_on channel=0 note=76 velocity=85 time=17', 'note_on channel=0 note=74 velocity=0 time=23', 'note_on channel=0 note=69 velocity=0 time=35', 'note_on channel=0 note=81 velocity=86 time=29', 'note_on channel=0 note=76 velocity=0 time=11')
Note: ('note_on channel=0 note=74 velocity=0 time=23', 'note_on channel=0 note=69 velocity=0 time=35', 'note_on channel=0 note=81 velocity=86 time=29', 'note_on channel=0 note=76 velocity=0 time=11', 'note_on channel=0 note=79 velocity=81 time=73')
Note: ('note_on channel=0 note=69 velocity=0 time=35', 'note_on channel=0 note=81 velocity=86 time=29', 'note_on channel=0 note=76 velocity=0 time=11', 'note_on channel=0 note=79 velocity=81 time=73', 'note_on channel=0 note=81 velocity=0 time=30')
Note: ('note_on channel=0 note=81 velocity=86 time=29', 'note_on channel=0 note=76 velocity=0 time=11', 'note_on channel=0 note=79 velocity=81 time=73', 'note_on channel=0 note=81 velocity=0 time=30', 'note_on channel=0 note=78 velocity=79 time=46')
Note: ('note_on channel=0 note=76 velocity=0 time=11', 'note_on channel=0 note=79 velocity=81 time=73', 'note_on channel=0 note=81 velocity=0 time=30', 'note_on channel=0 note=78 velocity=79 time=46', 'note_on channel=0 note=79 velocity=0 time=27')
Note: ('note_on channel=0 note=79 velocity=81 time=73', 'note_on channel=0 note=81 velocity=0 time=30', 'note_on channel=0 note=78 velocity=79 time=46', 'note_on channel=0 note=79 velocity=0 time=27', 'note_on channel=0 note=57 velocity=59 time=62')
Note: ('note_on channel=0 note=81 velocity=0 time=30', 'note_on channel=0 note=78 velocity=79 time=46', 'note_on channel=0 note=79 velocity=0 time=27', 'note_on channel=0 note=57 velocity=59 time=62', 'note_on channel=0 note=76 velocity=74 time=0')
Note: ('note_on channel=0 note=78 velocity=79 time=46', 'note_on channel=0 note=79 velocity=0 time=27', 'note_on channel=0 note=57 velocity=59 time=62', 'note_on channel=0 note=76 velocity=74 time=0', 'note_on channel=0 note=78 velocity=0 time=33')
Note: ('note_on channel=0 note=79 velocity=0 time=27', 'note_on channel=0 note=57 velocity=59 time=62', 'note_on channel=0 note=76 velocity=74 time=0', 'note_on channel=0 note=78 velocity=0 time=33', 'note_on channel=0 note=76 velocity=0 time=28')
Note: ('note_on channel=0 note=57 velocity=59 time=62', 'note_on channel=0 note=76 velocity=74 time=0', 'note_on channel=0 note=78 velocity=0 time=33', 'note_on channel=0 note=76 velocity=0 time=28', 'note_on channel=0 note=74 velocity=74 time=13')
Note: ('note_on channel=0 note=76 velocity=74 time=0', 'note_on channel=0 note=78 velocity=0 time=33', 'note_on channel=0 note=76 velocity=0 time=28', 'note_on channel=0 note=74 velocity=74 time=13', 'note_on channel=0 note=57 velocity=0 time=4')
Note: ('note_on channel=0 note=78 velocity=0 time=33', 'note_on channel=0 note=76 velocity=0 time=28', 'note_on channel=0 note=74 velocity=74 time=13', 'note_on channel=0 note=57 velocity=0 time=4', 'note_on channel=0 note=73 velocity=78 time=5')
Note: ('note_on channel=0 note=76 velocity=0 time=28', 'note_on channel=0 note=74 velocity=74 time=13', 'note_on channel=0 note=57 velocity=0 time=4', 'note_on channel=0 note=73 velocity=78 time=5', 'note_on channel=0 note=74 velocity=0 time=0')
Note: ('note_on channel=0 note=74 velocity=74 time=13', 'note_on channel=0 note=57 velocity=0 time=4', 'note_on channel=0 note=73 velocity=78 time=5', 'note_on channel=0 note=74 velocity=0 time=0', 'note_on channel=0 note=71 velocity=79 time=18')
Note: ('note_on channel=0 note=57 velocity=0 time=4', 'note_on channel=0 note=73 velocity=78 time=5', 'note_on channel=0 note=74 velocity=0 time=0', 'note_on channel=0 note=71 velocity=79 time=18', 'note_on channel=0 note=73 velocity=0 time=33')
Note: ('note_on channel=0 note=73 velocity=78 time=5', 'note_on channel=0 note=74 velocity=0 time=0', 'note_on channel=0 note=71 velocity=79 time=18', 'note_on channel=0 note=73 velocity=0 time=33', 'note_on channel=0 note=69 velocity=79 time=6')
Note: ('note_on channel=0 note=74 velocity=0 time=0', 'note_on channel=0 note=71 velocity=79 time=18', 'note_on channel=0 note=73 velocity=0 time=33', 'note_on channel=0 note=69 velocity=79 time=6', 'note_on channel=0 note=71 velocity=0 time=22')
Note: ('note_on channel=0 note=71 velocity=79 time=18', 'note_on channel=0 note=73 velocity=0 time=33', 'note_on channel=0 note=69 velocity=79 time=6', 'note_on channel=0 note=71 velocity=0 time=22', 'note_on channel=0 note=69 velocity=0 time=24')
Note: ('note_on channel=0 note=73 velocity=0 time=33', 'note_on channel=0 note=69 velocity=79 time=6', 'note_on channel=0 note=71 velocity=0 time=22', 'note_on channel=0 note=69 velocity=0 time=24', 'note_on channel=0 note=71 velocity=65 time=12')
Note: ('note_on channel=0 note=69 velocity=79 time=6', 'note_on channel=0 note=71 velocity=0 time=22', 'note_on channel=0 note=69 velocity=0 time=24', 'note_on channel=0 note=71 velocity=65 time=12', 'note_on channel=0 note=71 velocity=0 time=7')
Note: ('note_on channel=0 note=71 velocity=0 time=22', 'note_on channel=0 note=69 velocity=0 time=24', 'note_on channel=0 note=71 velocity=65 time=12', 'note_on channel=0 note=71 velocity=0 time=7', 'note_on channel=0 note=69 velocity=68 time=4')
Note: ('note_on channel=0 note=69 velocity=0 time=24', 'note_on channel=0 note=71 velocity=65 time=12', 'note_on channel=0 note=71 velocity=0 time=7', 'note_on channel=0 note=69 velocity=68 time=4', 'note_on channel=0 note=69 velocity=0 time=14')
Note: ('note_on channel=0 note=71 velocity=65 time=12', 'note_on channel=0 note=71 velocity=0 time=7', 'note_on channel=0 note=69 velocity=68 time=4', 'note_on channel=0 note=69 velocity=0 time=14', 'note_on channel=0 note=71 velocity=61 time=6')
Note: ('note_on channel=0 note=71 velocity=0 time=7', 'note_on channel=0 note=69 velocity=68 time=4', 'note_on channel=0 note=69 velocity=0 time=14', 'note_on channel=0 note=71 velocity=61 time=6', 'note_on channel=0 note=69 velocity=60 time=55')
Note: ('note_on channel=0 note=69 velocity=68 time=4', 'note_on channel=0 note=69 velocity=0 time=14', 'note_on channel=0 note=71 velocity=61 time=6', 'note_on channel=0 note=69 velocity=60 time=55', 'note_on channel=0 note=71 velocity=0 time=3')
Note: ('note_on channel=0 note=69 velocity=0 time=14', 'note_on channel=0 note=71 velocity=61 time=6', 'note_on channel=0 note=69 velocity=60 time=55', 'note_on channel=0 note=71 velocity=0 time=3', 'note_on channel=0 note=71 velocity=64 time=48')
Note: ('note_on channel=0 note=71 velocity=61 time=6', 'note_on channel=0 note=69 velocity=60 time=55', 'note_on channel=0 note=71 velocity=0 time=3', 'note_on channel=0 note=71 velocity=64 time=48', 'note_on channel=0 note=54 velocity=57 time=3')
Note: ('note_on channel=0 note=69 velocity=60 time=55', 'note_on channel=0 note=71 velocity=0 time=3', 'note_on channel=0 note=71 velocity=64 time=48', 'note_on channel=0 note=54 velocity=57 time=3', 'note_on channel=0 note=69 velocity=0 time=0')
Note: ('note_on channel=0 note=71 velocity=0 time=3', 'note_on channel=0 note=71 velocity=64 time=48', 'note_on channel=0 note=54 velocity=57 time=3', 'note_on channel=0 note=69 velocity=0 time=0', 'note_on channel=0 note=69 velocity=61 time=55')
Note: ('note_on channel=0 note=71 velocity=64 time=48', 'note_on channel=0 note=54 velocity=57 time=3', 'note_on channel=0 note=69 velocity=0 time=0', 'note_on channel=0 note=69 velocity=61 time=55', 'note_on channel=0 note=71 velocity=0 time=2')
Note: ('note_on channel=0 note=54 velocity=57 time=3', 'note_on channel=0 note=69 velocity=0 time=0', 'note_on channel=0 note=69 velocity=61 time=55', 'note_on channel=0 note=71 velocity=0 time=2', 'note_on channel=0 note=69 velocity=0 time=51')
Note: ('note_on channel=0 note=69 velocity=0 time=0', 'note_on channel=0 note=69 velocity=61 time=55', 'note_on channel=0 note=71 velocity=0 time=2', 'note_on channel=0 note=69 velocity=0 time=51', 'note_on channel=0 note=71 velocity=65 time=0')
Note: ('note_on channel=0 note=69 velocity=61 time=55', 'note_on channel=0 note=71 velocity=0 time=2', 'note_on channel=0 note=69 velocity=0 time=51', 'note_on channel=0 note=71 velocity=65 time=0', 'note_on channel=0 note=62 velocity=70 time=33')
Note: ('note_on channel=0 note=71 velocity=0 time=2', 'note_on channel=0 note=69 velocity=0 time=51', 'note_on channel=0 note=71 velocity=65 time=0', 'note_on channel=0 note=62 velocity=70 time=33', 'note_on channel=0 note=69 velocity=69 time=25')
Note: ('note_on channel=0 note=69 velocity=0 time=51', 'note_on channel=0 note=71 velocity=65 time=0', 'note_on channel=0 note=62 velocity=70 time=33', 'note_on channel=0 note=69 velocity=69 time=25', 'note_on channel=0 note=71 velocity=0 time=8')
Note: ('note_on channel=0 note=71 velocity=65 time=0', 'note_on channel=0 note=62 velocity=70 time=33', 'note_on channel=0 note=69 velocity=69 time=25', 'note_on channel=0 note=71 velocity=0 time=8', 'note_on channel=0 note=62 velocity=0 time=14')
Note: ('note_on channel=0 note=62 velocity=70 time=33', 'note_on channel=0 note=69 velocity=69 time=25', 'note_on channel=0 note=71 velocity=0 time=8', 'note_on channel=0 note=62 velocity=0 time=14', 'note_on channel=0 note=54 velocity=0 time=30')
Note: ('note_on channel=0 note=69 velocity=69 time=25', 'note_on channel=0 note=71 velocity=0 time=8', 'note_on channel=0 note=62 velocity=0 time=14', 'note_on channel=0 note=54 velocity=0 time=30', 'note_on channel=0 note=69 velocity=0 time=1')
Note: ('note_on channel=0 note=71 velocity=0 time=8', 'note_on channel=0 note=62 velocity=0 time=14', 'note_on channel=0 note=54 velocity=0 time=30', 'note_on channel=0 note=69 velocity=0 time=1', 'note_on channel=0 note=67 velocity=79 time=2')
Note: ('note_on channel=0 note=62 velocity=0 time=14', 'note_on channel=0 note=54 velocity=0 time=30', 'note_on channel=0 note=69 velocity=0 time=1', 'note_on channel=0 note=67 velocity=79 time=2', 'note_on channel=0 note=69 velocity=73 time=54')
Note: ('note_on channel=0 note=54 velocity=0 time=30', 'note_on channel=0 note=69 velocity=0 time=1', 'note_on channel=0 note=67 velocity=79 time=2', 'note_on channel=0 note=69 velocity=73 time=54', 'note_on channel=0 note=67 velocity=0 time=21')
Note: ('note_on channel=0 note=69 velocity=0 time=1', 'note_on channel=0 note=67 velocity=79 time=2', 'note_on channel=0 note=69 velocity=73 time=54', 'note_on channel=0 note=67 velocity=0 time=21', 'note_on channel=0 note=55 velocity=75 time=65')
Note: ('note_on channel=0 note=67 velocity=79 time=2', 'note_on channel=0 note=69 velocity=73 time=54', 'note_on channel=0 note=67 velocity=0 time=21', 'note_on channel=0 note=55 velocity=75 time=65', 'note_on channel=0 note=71 velocity=71 time=96')
Note: ('note_on channel=0 note=69 velocity=73 time=54', 'note_on channel=0 note=67 velocity=0 time=21', 'note_on channel=0 note=55 velocity=75 time=65', 'note_on channel=0 note=71 velocity=71 time=96', 'note_on channel=0 note=69 velocity=0 time=11')
Note: ('note_on channel=0 note=67 velocity=0 time=21', 'note_on channel=0 note=55 velocity=75 time=65', 'note_on channel=0 note=71 velocity=71 time=96', 'note_on channel=0 note=69 velocity=0 time=11', 'note_on channel=0 note=71 velocity=0 time=15')
Note: ('note_on channel=0 note=55 velocity=75 time=65', 'note_on channel=0 note=71 velocity=71 time=96', 'note_on channel=0 note=69 velocity=0 time=11', 'note_on channel=0 note=71 velocity=0 time=15', 'note_on channel=0 note=73 velocity=69 time=7')
Note: ('note_on channel=0 note=71 velocity=71 time=96', 'note_on channel=0 note=69 velocity=0 time=11', 'note_on channel=0 note=71 velocity=0 time=15', 'note_on channel=0 note=73 velocity=69 time=7', 'note_on channel=0 note=71 velocity=67 time=3')
Note: ('note_on channel=0 note=69 velocity=0 time=11', 'note_on channel=0 note=71 velocity=0 time=15', 'note_on channel=0 note=73 velocity=69 time=7', 'note_on channel=0 note=71 velocity=67 time=3', 'note_on channel=0 note=64 velocity=64 time=1')
Note: ('note_on channel=0 note=71 velocity=0 time=15', 'note_on channel=0 note=73 velocity=69 time=7', 'note_on channel=0 note=71 velocity=67 time=3', 'note_on channel=0 note=64 velocity=64 time=1', 'note_on channel=0 note=73 velocity=0 time=0')
Note: ('note_on channel=0 note=73 velocity=69 time=7', 'note_on channel=0 note=71 velocity=67 time=3', 'note_on channel=0 note=64 velocity=64 time=1', 'note_on channel=0 note=73 velocity=0 time=0', 'note_on channel=0 note=71 velocity=0 time=15')
Note: ('note_on channel=0 note=71 velocity=67 time=3', 'note_on channel=0 note=64 velocity=64 time=1', 'note_on channel=0 note=73 velocity=0 time=0', 'note_on channel=0 note=71 velocity=0 time=15', 'note_on channel=0 note=64 velocity=0 time=7')
Note: ('note_on channel=0 note=64 velocity=64 time=1', 'note_on channel=0 note=73 velocity=0 time=0', 'note_on channel=0 note=71 velocity=0 time=15', 'note_on channel=0 note=64 velocity=0 time=7', 'note_on channel=0 note=55 velocity=0 time=5')
Note: ('note_on channel=0 note=73 velocity=0 time=0', 'note_on channel=0 note=71 velocity=0 time=15', 'note_on channel=0 note=64 velocity=0 time=7', 'note_on channel=0 note=55 velocity=0 time=5', 'note_on channel=0 note=69 velocity=71 time=4')
Note: ('note_on channel=0 note=71 velocity=0 time=15', 'note_on channel=0 note=64 velocity=0 time=7', 'note_on channel=0 note=55 velocity=0 time=5', 'note_on channel=0 note=69 velocity=71 time=4', 'note_on channel=0 note=71 velocity=70 time=0')
Note: ('note_on channel=0 note=64 velocity=0 time=7', 'note_on channel=0 note=55 velocity=0 time=5', 'note_on channel=0 note=69 velocity=71 time=4', 'note_on channel=0 note=71 velocity=70 time=0', 'note_on channel=0 note=69 velocity=0 time=6')
Note: ('note_on channel=0 note=55 velocity=0 time=5', 'note_on channel=0 note=69 velocity=71 time=4', 'note_on channel=0 note=71 velocity=70 time=0', 'note_on channel=0 note=69 velocity=0 time=6', 'note_on channel=0 note=57 velocity=82 time=6')
Note: ('note_on channel=0 note=69 velocity=71 time=4', 'note_on channel=0 note=71 velocity=70 time=0', 'note_on channel=0 note=69 velocity=0 time=6', 'note_on channel=0 note=57 velocity=82 time=6', 'note_on channel=0 note=73 velocity=79 time=2')
Note: ('note_on channel=0 note=71 velocity=70 time=0', 'note_on channel=0 note=69 velocity=0 time=6', 'note_on channel=0 note=57 velocity=82 time=6', 'note_on channel=0 note=73 velocity=79 time=2', 'note_on channel=0 note=71 velocity=0 time=7')
Note: ('note_on channel=0 note=69 velocity=0 time=6', 'note_on channel=0 note=57 velocity=82 time=6', 'note_on channel=0 note=73 velocity=79 time=2', 'note_on channel=0 note=71 velocity=0 time=7', 'note_on channel=0 note=73 velocity=0 time=3')
Note: ('note_on channel=0 note=57 velocity=82 time=6', 'note_on channel=0 note=73 velocity=79 time=2', 'note_on channel=0 note=71 velocity=0 time=7', 'note_on channel=0 note=73 velocity=0 time=3', 'note_on channel=0 note=74 velocity=70 time=3')
Note: ('note_on channel=0 note=73 velocity=79 time=2', 'note_on channel=0 note=71 velocity=0 time=7', 'note_on channel=0 note=73 velocity=0 time=3', 'note_on channel=0 note=74 velocity=70 time=3', 'note_on channel=0 note=73 velocity=73 time=8')
Note: ('note_on channel=0 note=71 velocity=0 time=7', 'note_on channel=0 note=73 velocity=0 time=3', 'note_on channel=0 note=74 velocity=70 time=3', 'note_on channel=0 note=73 velocity=73 time=8', 'note_on channel=0 note=74 velocity=0 time=8')
Note: ('note_on channel=0 note=73 velocity=0 time=3', 'note_on channel=0 note=74 velocity=70 time=3', 'note_on channel=0 note=73 velocity=73 time=8', 'note_on channel=0 note=74 velocity=0 time=8', 'note_on channel=0 note=66 velocity=69 time=4')
Note: ('note_on channel=0 note=74 velocity=70 time=3', 'note_on channel=0 note=73 velocity=73 time=8', 'note_on channel=0 note=74 velocity=0 time=8', 'note_on channel=0 note=66 velocity=69 time=4', 'note_on channel=0 note=73 velocity=0 time=11')
Note: ('note_on channel=0 note=73 velocity=73 time=8', 'note_on channel=0 note=74 velocity=0 time=8', 'note_on channel=0 note=66 velocity=69 time=4', 'note_on channel=0 note=73 velocity=0 time=11', 'note_on channel=0 note=57 velocity=0 time=1')
Note: ('note_on channel=0 note=74 velocity=0 time=8', 'note_on channel=0 note=66 velocity=69 time=4', 'note_on channel=0 note=73 velocity=0 time=11', 'note_on channel=0 note=57 velocity=0 time=1', 'note_on channel=0 note=71 velocity=74 time=5')
Note: ('note_on channel=0 note=66 velocity=69 time=4', 'note_on channel=0 note=73 velocity=0 time=11', 'note_on channel=0 note=57 velocity=0 time=1', 'note_on channel=0 note=71 velocity=74 time=5', 'note_on channel=0 note=66 velocity=0 time=2')
Note: ('note_on channel=0 note=73 velocity=0 time=11', 'note_on channel=0 note=57 velocity=0 time=1', 'note_on channel=0 note=71 velocity=74 time=5', 'note_on channel=0 note=66 velocity=0 time=2', 'note_on channel=0 note=73 velocity=68 time=4')
Note: ('note_on channel=0 note=57 velocity=0 time=1', 'note_on channel=0 note=71 velocity=74 time=5', 'note_on channel=0 note=66 velocity=0 time=2', 'note_on channel=0 note=73 velocity=68 time=4', 'note_on channel=0 note=71 velocity=0 time=7')
Note: ('note_on channel=0 note=71 velocity=74 time=5', 'note_on channel=0 note=66 velocity=0 time=2', 'note_on channel=0 note=73 velocity=68 time=4', 'note_on channel=0 note=71 velocity=0 time=7', 'note_on channel=0 note=74 velocity=79 time=13')
Note: ('note_on channel=0 note=66 velocity=0 time=2', 'note_on channel=0 note=73 velocity=68 time=4', 'note_on channel=0 note=71 velocity=0 time=7', 'note_on channel=0 note=74 velocity=79 time=13', 'note_on channel=0 note=59 velocity=82 time=3')
Note: ('note_on channel=0 note=73 velocity=68 time=4', 'note_on channel=0 note=71 velocity=0 time=7', 'note_on channel=0 note=74 velocity=79 time=13', 'note_on channel=0 note=59 velocity=82 time=3', 'note_on channel=0 note=73 velocity=0 time=11')
Note: ('note_on channel=0 note=71 velocity=0 time=7', 'note_on channel=0 note=74 velocity=79 time=13', 'note_on channel=0 note=59 velocity=82 time=3', 'note_on channel=0 note=73 velocity=0 time=11', 'note_on channel=0 note=74 velocity=0 time=0')
Note: ('note_on channel=0 note=74 velocity=79 time=13', 'note_on channel=0 note=59 velocity=82 time=3', 'note_on channel=0 note=73 velocity=0 time=11', 'note_on channel=0 note=74 velocity=0 time=0', 'note_on channel=0 note=76 velocity=74 time=6')
Note: ('note_on channel=0 note=59 velocity=82 time=3', 'note_on channel=0 note=73 velocity=0 time=11', 'note_on channel=0 note=74 velocity=0 time=0', 'note_on channel=0 note=76 velocity=74 time=6', 'note_on channel=0 note=74 velocity=73 time=2')
Note: ('note_on channel=0 note=73 velocity=0 time=11', 'note_on channel=0 note=74 velocity=0 time=0', 'note_on channel=0 note=76 velocity=74 time=6', 'note_on channel=0 note=74 velocity=73 time=2', 'note_on channel=0 note=76 velocity=0 time=7')
Note: ('note_on channel=0 note=74 velocity=0 time=0', 'note_on channel=0 note=76 velocity=74 time=6', 'note_on channel=0 note=74 velocity=73 time=2', 'note_on channel=0 note=76 velocity=0 time=7', 'note_on channel=0 note=59 velocity=0 time=9')
Note: ('note_on channel=0 note=76 velocity=74 time=6', 'note_on channel=0 note=74 velocity=73 time=2', 'note_on channel=0 note=76 velocity=0 time=7', 'note_on channel=0 note=59 velocity=0 time=9', 'note_on channel=0 note=67 velocity=67 time=5')
Note: ('note_on channel=0 note=74 velocity=73 time=2', 'note_on channel=0 note=76 velocity=0 time=7', 'note_on channel=0 note=59 velocity=0 time=9', 'note_on channel=0 note=67 velocity=67 time=5', 'note_on channel=0 note=73 velocity=74 time=12')
Note: ('note_on channel=0 note=76 velocity=0 time=7', 'note_on channel=0 note=59 velocity=0 time=9', 'note_on channel=0 note=67 velocity=67 time=5', 'note_on channel=0 note=73 velocity=74 time=12', 'note_on channel=0 note=74 velocity=0 time=0')
Note: ('note_on channel=0 note=59 velocity=0 time=9', 'note_on channel=0 note=67 velocity=67 time=5', 'note_on channel=0 note=73 velocity=74 time=12', 'note_on channel=0 note=74 velocity=0 time=0', 'note_on channel=0 note=67 velocity=0 time=0')
Note: ('note_on channel=0 note=67 velocity=67 time=5', 'note_on channel=0 note=73 velocity=74 time=12', 'note_on channel=0 note=74 velocity=0 time=0', 'note_on channel=0 note=67 velocity=0 time=0', 'note_on channel=0 note=73 velocity=0 time=6')
Note: ('note_on channel=0 note=73 velocity=74 time=12', 'note_on channel=0 note=74 velocity=0 time=0', 'note_on channel=0 note=67 velocity=0 time=0', 'note_on channel=0 note=73 velocity=0 time=6', 'note_on channel=0 note=74 velocity=70 time=6')
Note: ('note_on channel=0 note=74 velocity=0 time=0', 'note_on channel=0 note=67 velocity=0 time=0', 'note_on channel=0 note=73 velocity=0 time=6', 'note_on channel=0 note=74 velocity=70 time=6', 'note_on channel=0 note=76 velocity=76 time=3')
Note: ('note_on channel=0 note=67 velocity=0 time=0', 'note_on channel=0 note=73 velocity=0 time=6', 'note_on channel=0 note=74 velocity=70 time=6', 'note_on channel=0 note=76 velocity=76 time=3', 'note_on channel=0 note=61 velocity=66 time=3')
Note: ('note_on channel=0 note=73 velocity=0 time=6', 'note_on channel=0 note=74 velocity=70 time=6', 'note_on channel=0 note=76 velocity=76 time=3', 'note_on channel=0 note=61 velocity=66 time=3', 'note_on channel=0 note=74 velocity=0 time=3')
Note: ('note_on channel=0 note=74 velocity=70 time=6', 'note_on channel=0 note=76 velocity=76 time=3', 'note_on channel=0 note=61 velocity=66 time=3', 'note_on channel=0 note=74 velocity=0 time=3', 'note_on channel=0 note=76 velocity=0 time=15')
Note: ('note_on channel=0 note=76 velocity=76 time=3', 'note_on channel=0 note=61 velocity=66 time=3', 'note_on channel=0 note=74 velocity=0 time=3', 'note_on channel=0 note=76 velocity=0 time=15', 'note_on channel=0 note=78 velocity=75 time=6')
Note: ('note_on channel=0 note=61 velocity=66 time=3', 'note_on channel=0 note=74 velocity=0 time=3', 'note_on channel=0 note=76 velocity=0 time=15', 'note_on channel=0 note=78 velocity=75 time=6', 'note_on channel=0 note=78 velocity=0 time=0')
Note: ('note_on channel=0 note=74 velocity=0 time=3', 'note_on channel=0 note=76 velocity=0 time=15', 'note_on channel=0 note=78 velocity=75 time=6', 'note_on channel=0 note=78 velocity=0 time=0', 'note_on channel=0 note=76 velocity=70 time=1')
Note: ('note_on channel=0 note=76 velocity=0 time=15', 'note_on channel=0 note=78 velocity=75 time=6', 'note_on channel=0 note=78 velocity=0 time=0', 'note_on channel=0 note=76 velocity=70 time=1', 'note_on channel=0 note=69 velocity=60 time=8')
Note: ('note_on channel=0 note=78 velocity=75 time=6', 'note_on channel=0 note=78 velocity=0 time=0', 'note_on channel=0 note=76 velocity=70 time=1', 'note_on channel=0 note=69 velocity=60 time=8', 'note_on channel=0 note=76 velocity=0 time=7')
Note: ('note_on channel=0 note=78 velocity=0 time=0', 'note_on channel=0 note=76 velocity=70 time=1', 'note_on channel=0 note=69 velocity=60 time=8', 'note_on channel=0 note=76 velocity=0 time=7', 'note_on channel=0 note=61 velocity=0 time=5')
Note: ('note_on channel=0 note=76 velocity=70 time=1', 'note_on channel=0 note=69 velocity=60 time=8', 'note_on channel=0 note=76 velocity=0 time=7', 'note_on channel=0 note=61 velocity=0 time=5', 'note_on channel=0 note=69 velocity=0 time=4')
Note: ('note_on channel=0 note=69 velocity=60 time=8', 'note_on channel=0 note=76 velocity=0 time=7', 'note_on channel=0 note=61 velocity=0 time=5', 'note_on channel=0 note=69 velocity=0 time=4', 'note_on channel=0 note=74 velocity=72 time=7')
Note: ('note_on channel=0 note=76 velocity=0 time=7', 'note_on channel=0 note=61 velocity=0 time=5', 'note_on channel=0 note=69 velocity=0 time=4', 'note_on channel=0 note=74 velocity=72 time=7', 'note_on channel=0 note=74 velocity=0 time=13')
Note: ('note_on channel=0 note=61 velocity=0 time=5', 'note_on channel=0 note=69 velocity=0 time=4', 'note_on channel=0 note=74 velocity=72 time=7', 'note_on channel=0 note=74 velocity=0 time=13', 'note_on channel=0 note=76 velocity=62 time=5')
Note: ('note_on channel=0 note=69 velocity=0 time=4', 'note_on channel=0 note=74 velocity=72 time=7', 'note_on channel=0 note=74 velocity=0 time=13', 'note_on channel=0 note=76 velocity=62 time=5', 'note_on channel=0 note=78 velocity=73 time=12')
Note: ('note_on channel=0 note=74 velocity=72 time=7', 'note_on channel=0 note=74 velocity=0 time=13', 'note_on channel=0 note=76 velocity=62 time=5', 'note_on channel=0 note=78 velocity=73 time=12', 'note_on channel=0 note=62 velocity=57 time=8')
Note: ('note_on channel=0 note=74 velocity=0 time=13', 'note_on channel=0 note=76 velocity=62 time=5', 'note_on channel=0 note=78 velocity=73 time=12', 'note_on channel=0 note=62 velocity=57 time=8', 'note_on channel=0 note=76 velocity=0 time=5')
Note: ('note_on channel=0 note=76 velocity=62 time=5', 'note_on channel=0 note=78 velocity=73 time=12', 'note_on channel=0 note=62 velocity=57 time=8', 'note_on channel=0 note=76 velocity=0 time=5', 'note_on channel=0 note=78 velocity=0 time=27')
Note: ('note_on channel=0 note=78 velocity=73 time=12', 'note_on channel=0 note=62 velocity=57 time=8', 'note_on channel=0 note=76 velocity=0 time=5', 'note_on channel=0 note=78 velocity=0 time=27', 'note_on channel=0 note=79 velocity=63 time=13')
Note: ('note_on channel=0 note=62 velocity=57 time=8', 'note_on channel=0 note=76 velocity=0 time=5', 'note_on channel=0 note=78 velocity=0 time=27', 'note_on channel=0 note=79 velocity=63 time=13', 'note_on channel=0 note=78 velocity=67 time=10')
Note: ('note_on channel=0 note=76 velocity=0 time=5', 'note_on channel=0 note=78 velocity=0 time=27', 'note_on channel=0 note=79 velocity=63 time=13', 'note_on channel=0 note=78 velocity=67 time=10', 'note_on channel=0 note=62 velocity=0 time=2')
Note: ('note_on channel=0 note=78 velocity=0 time=27', 'note_on channel=0 note=79 velocity=63 time=13', 'note_on channel=0 note=78 velocity=67 time=10', 'note_on channel=0 note=62 velocity=0 time=2', 'note_on channel=0 note=79 velocity=0 time=2')
Note: ('note_on channel=0 note=79 velocity=63 time=13', 'note_on channel=0 note=78 velocity=67 time=10', 'note_on channel=0 note=62 velocity=0 time=2', 'note_on channel=0 note=79 velocity=0 time=2', 'note_on channel=0 note=71 velocity=61 time=0')
Note: ('note_on channel=0 note=78 velocity=67 time=10', 'note_on channel=0 note=62 velocity=0 time=2', 'note_on channel=0 note=79 velocity=0 time=2', 'note_on channel=0 note=71 velocity=61 time=0', 'note_on channel=0 note=71 velocity=0 time=8')
Note: ('note_on channel=0 note=62 velocity=0 time=2', 'note_on channel=0 note=79 velocity=0 time=2', 'note_on channel=0 note=71 velocity=61 time=0', 'note_on channel=0 note=71 velocity=0 time=8', 'note_on channel=0 note=78 velocity=0 time=2')
Note: ('note_on channel=0 note=79 velocity=0 time=2', 'note_on channel=0 note=71 velocity=61 time=0', 'note_on channel=0 note=71 velocity=0 time=8', 'note_on channel=0 note=78 velocity=0 time=2', 'note_on channel=0 note=76 velocity=64 time=7')
Note: ('note_on channel=0 note=71 velocity=61 time=0', 'note_on channel=0 note=71 velocity=0 time=8', 'note_on channel=0 note=78 velocity=0 time=2', 'note_on channel=0 note=76 velocity=64 time=7', 'note_on channel=0 note=78 velocity=61 time=13')
Note: ('note_on channel=0 note=71 velocity=0 time=8', 'note_on channel=0 note=78 velocity=0 time=2', 'note_on channel=0 note=76 velocity=64 time=7', 'note_on channel=0 note=78 velocity=61 time=13', 'note_on channel=0 note=76 velocity=0 time=0')
Note: ('note_on channel=0 note=78 velocity=0 time=2', 'note_on channel=0 note=76 velocity=64 time=7', 'note_on channel=0 note=78 velocity=61 time=13', 'note_on channel=0 note=76 velocity=0 time=0', 'note_on channel=0 note=79 velocity=72 time=3')
Note: ('note_on channel=0 note=76 velocity=64 time=7', 'note_on channel=0 note=78 velocity=61 time=13', 'note_on channel=0 note=76 velocity=0 time=0', 'note_on channel=0 note=79 velocity=72 time=3', 'note_on channel=0 note=78 velocity=0 time=10')
Note: ('note_on channel=0 note=78 velocity=61 time=13', 'note_on channel=0 note=76 velocity=0 time=0', 'note_on channel=0 note=79 velocity=72 time=3', 'note_on channel=0 note=78 velocity=0 time=10', 'note_on channel=0 note=64 velocity=51 time=1')
Note: ('note_on channel=0 note=76 velocity=0 time=0', 'note_on channel=0 note=79 velocity=72 time=3', 'note_on channel=0 note=78 velocity=0 time=10', 'note_on channel=0 note=64 velocity=51 time=1', 'note_on channel=0 note=79 velocity=0 time=1')
Note: ('note_on channel=0 note=79 velocity=72 time=3', 'note_on channel=0 note=78 velocity=0 time=10', 'note_on channel=0 note=64 velocity=51 time=1', 'note_on channel=0 note=79 velocity=0 time=1', 'note_on channel=0 note=81 velocity=64 time=20')
Note: ('note_on channel=0 note=78 velocity=0 time=10', 'note_on channel=0 note=64 velocity=51 time=1', 'note_on channel=0 note=79 velocity=0 time=1', 'note_on channel=0 note=81 velocity=64 time=20', 'note_on channel=0 note=81 velocity=0 time=8')
Note: ('note_on channel=0 note=64 velocity=51 time=1', 'note_on channel=0 note=79 velocity=0 time=1', 'note_on channel=0 note=81 velocity=64 time=20', 'note_on channel=0 note=81 velocity=0 time=8', 'note_on channel=0 note=79 velocity=65 time=5')
Note: ('note_on channel=0 note=79 velocity=0 time=1', 'note_on channel=0 note=81 velocity=64 time=20', 'note_on channel=0 note=81 velocity=0 time=8', 'note_on channel=0 note=79 velocity=65 time=5', 'note_on channel=0 note=64 velocity=0 time=1')
Note: ('note_on channel=0 note=81 velocity=64 time=20', 'note_on channel=0 note=81 velocity=0 time=8', 'note_on channel=0 note=79 velocity=65 time=5', 'note_on channel=0 note=64 velocity=0 time=1', 'note_on channel=0 note=73 velocity=55 time=5')
Note: ('note_on channel=0 note=81 velocity=0 time=8', 'note_on channel=0 note=79 velocity=65 time=5', 'note_on channel=0 note=64 velocity=0 time=1', 'note_on channel=0 note=73 velocity=55 time=5', 'note_on channel=0 note=79 velocity=0 time=9')
Note: ('note_on channel=0 note=79 velocity=65 time=5', 'note_on channel=0 note=64 velocity=0 time=1', 'note_on channel=0 note=73 velocity=55 time=5', 'note_on channel=0 note=79 velocity=0 time=9', 'note_on channel=0 note=73 velocity=0 time=5')
Note: ('note_on channel=0 note=64 velocity=0 time=1', 'note_on channel=0 note=73 velocity=55 time=5', 'note_on channel=0 note=79 velocity=0 time=9', 'note_on channel=0 note=73 velocity=0 time=5', 'note_on channel=0 note=78 velocity=64 time=3')
Note: ('note_on channel=0 note=73 velocity=55 time=5', 'note_on channel=0 note=79 velocity=0 time=9', 'note_on channel=0 note=73 velocity=0 time=5', 'note_on channel=0 note=78 velocity=64 time=3', 'note_on channel=0 note=78 velocity=0 time=11')
Note: ('note_on channel=0 note=79 velocity=0 time=9', 'note_on channel=0 note=73 velocity=0 time=5', 'note_on channel=0 note=78 velocity=64 time=3', 'note_on channel=0 note=78 velocity=0 time=11', 'note_on channel=0 note=79 velocity=75 time=32')
Note: ('note_on channel=0 note=73 velocity=0 time=5', 'note_on channel=0 note=78 velocity=64 time=3', 'note_on channel=0 note=78 velocity=0 time=11', 'note_on channel=0 note=79 velocity=75 time=32', 'note_on channel=0 note=79 velocity=0 time=0')
Note: ('note_on channel=0 note=78 velocity=64 time=3', 'note_on channel=0 note=78 velocity=0 time=11', 'note_on channel=0 note=79 velocity=75 time=32', 'note_on channel=0 note=79 velocity=0 time=0', 'note_on channel=0 note=81 velocity=75 time=3')
Note: ('note_on channel=0 note=78 velocity=0 time=11', 'note_on channel=0 note=79 velocity=75 time=32', 'note_on channel=0 note=79 velocity=0 time=0', 'note_on channel=0 note=81 velocity=75 time=3', 'note_on channel=0 note=66 velocity=56 time=5')
Note: ('note_on channel=0 note=79 velocity=75 time=32', 'note_on channel=0 note=79 velocity=0 time=0', 'note_on channel=0 note=81 velocity=75 time=3', 'note_on channel=0 note=66 velocity=56 time=5', 'note_on channel=0 note=81 velocity=0 time=11')
Note: ('note_on channel=0 note=79 velocity=0 time=0', 'note_on channel=0 note=81 velocity=75 time=3', 'note_on channel=0 note=66 velocity=56 time=5', 'note_on channel=0 note=81 velocity=0 time=11', 'note_on channel=0 note=83 velocity=68 time=14')
Note: ('note_on channel=0 note=81 velocity=75 time=3', 'note_on channel=0 note=66 velocity=56 time=5', 'note_on channel=0 note=81 velocity=0 time=11', 'note_on channel=0 note=83 velocity=68 time=14', 'note_on channel=0 note=66 velocity=0 time=0')
Note: ('note_on channel=0 note=66 velocity=56 time=5', 'note_on channel=0 note=81 velocity=0 time=11', 'note_on channel=0 note=83 velocity=68 time=14', 'note_on channel=0 note=66 velocity=0 time=0', 'note_on channel=0 note=81 velocity=71 time=14')
Note: ('note_on channel=0 note=81 velocity=0 time=11', 'note_on channel=0 note=83 velocity=68 time=14', 'note_on channel=0 note=66 velocity=0 time=0', 'note_on channel=0 note=81 velocity=71 time=14', 'note_on channel=0 note=83 velocity=0 time=0')
Note: ('note_on channel=0 note=83 velocity=68 time=14', 'note_on channel=0 note=66 velocity=0 time=0', 'note_on channel=0 note=81 velocity=71 time=14', 'note_on channel=0 note=83 velocity=0 time=0', 'note_on channel=0 note=74 velocity=63 time=10')
Note: ('note_on channel=0 note=66 velocity=0 time=0', 'note_on channel=0 note=81 velocity=71 time=14', 'note_on channel=0 note=83 velocity=0 time=0', 'note_on channel=0 note=74 velocity=63 time=10', 'note_on channel=0 note=81 velocity=0 time=1')
Note: ('note_on channel=0 note=81 velocity=71 time=14', 'note_on channel=0 note=83 velocity=0 time=0', 'note_on channel=0 note=74 velocity=63 time=10', 'note_on channel=0 note=81 velocity=0 time=1', 'note_on channel=0 note=74 velocity=0 time=9')
Note: ('note_on channel=0 note=83 velocity=0 time=0', 'note_on channel=0 note=74 velocity=63 time=10', 'note_on channel=0 note=81 velocity=0 time=1', 'note_on channel=0 note=74 velocity=0 time=9', 'note_on channel=0 note=79 velocity=71 time=2')
Note: ('note_on channel=0 note=74 velocity=63 time=10', 'note_on channel=0 note=81 velocity=0 time=1', 'note_on channel=0 note=74 velocity=0 time=9', 'note_on channel=0 note=79 velocity=71 time=2', 'note_on channel=0 note=79 velocity=0 time=14')
Note: ('note_on channel=0 note=81 velocity=0 time=1', 'note_on channel=0 note=74 velocity=0 time=9', 'note_on channel=0 note=79 velocity=71 time=2', 'note_on channel=0 note=79 velocity=0 time=14', 'note_on channel=0 note=81 velocity=67 time=7')
Note: ('note_on channel=0 note=74 velocity=0 time=9', 'note_on channel=0 note=79 velocity=71 time=2', 'note_on channel=0 note=79 velocity=0 time=14', 'note_on channel=0 note=81 velocity=67 time=7', 'note_on channel=0 note=83 velocity=81 time=13')
Note: ('note_on channel=0 note=79 velocity=71 time=2', 'note_on channel=0 note=79 velocity=0 time=14', 'note_on channel=0 note=81 velocity=67 time=7', 'note_on channel=0 note=83 velocity=81 time=13', 'note_on channel=0 note=81 velocity=0 time=12')
Note: ('note_on channel=0 note=79 velocity=0 time=14', 'note_on channel=0 note=81 velocity=67 time=7', 'note_on channel=0 note=83 velocity=81 time=13', 'note_on channel=0 note=81 velocity=0 time=12', 'note_on channel=0 note=67 velocity=56 time=6')
Note: ('note_on channel=0 note=81 velocity=67 time=7', 'note_on channel=0 note=83 velocity=81 time=13', 'note_on channel=0 note=81 velocity=0 time=12', 'note_on channel=0 note=67 velocity=56 time=6', 'note_on channel=0 note=83 velocity=0 time=9')
Note: ('note_on channel=0 note=83 velocity=81 time=13', 'note_on channel=0 note=81 velocity=0 time=12', 'note_on channel=0 note=67 velocity=56 time=6', 'note_on channel=0 note=83 velocity=0 time=9', 'note_on channel=0 note=67 velocity=0 time=22')
Note: ('note_on channel=0 note=81 velocity=0 time=12', 'note_on channel=0 note=67 velocity=56 time=6', 'note_on channel=0 note=83 velocity=0 time=9', 'note_on channel=0 note=67 velocity=0 time=22', 'note_on channel=0 note=85 velocity=76 time=93')
Note: ('note_on channel=0 note=67 velocity=56 time=6', 'note_on channel=0 note=83 velocity=0 time=9', 'note_on channel=0 note=67 velocity=0 time=22', 'note_on channel=0 note=85 velocity=76 time=93', 'note_on channel=0 note=69 velocity=60 time=7')
Note: ('note_on channel=0 note=83 velocity=0 time=9', 'note_on channel=0 note=67 velocity=0 time=22', 'note_on channel=0 note=85 velocity=76 time=93', 'note_on channel=0 note=69 velocity=60 time=7', 'note_on channel=0 note=69 velocity=0 time=31')
Note: ('note_on channel=0 note=67 velocity=0 time=22', 'note_on channel=0 note=85 velocity=76 time=93', 'note_on channel=0 note=69 velocity=60 time=7', 'note_on channel=0 note=69 velocity=0 time=31', 'note_on channel=0 note=85 velocity=0 time=0')
Note: ('note_on channel=0 note=85 velocity=76 time=93', 'note_on channel=0 note=69 velocity=60 time=7', 'note_on channel=0 note=69 velocity=0 time=31', 'note_on channel=0 note=85 velocity=0 time=0', 'note_on channel=0 note=86 velocity=74 time=108')
Note: ('note_on channel=0 note=69 velocity=60 time=7', 'note_on channel=0 note=69 velocity=0 time=31', 'note_on channel=0 note=85 velocity=0 time=0', 'note_on channel=0 note=86 velocity=74 time=108', 'note_on channel=0 note=71 velocity=66 time=2')
Note: ('note_on channel=0 note=69 velocity=0 time=31', 'note_on channel=0 note=85 velocity=0 time=0', 'note_on channel=0 note=86 velocity=74 time=108', 'note_on channel=0 note=71 velocity=66 time=2', 'note_on channel=0 note=71 velocity=0 time=25')
Note: ('note_on channel=0 note=85 velocity=0 time=0', 'note_on channel=0 note=86 velocity=74 time=108', 'note_on channel=0 note=71 velocity=66 time=2', 'note_on channel=0 note=71 velocity=0 time=25', 'note_on channel=0 note=85 velocity=74 time=34')
Note: ('note_on channel=0 note=86 velocity=74 time=108', 'note_on channel=0 note=71 velocity=66 time=2', 'note_on channel=0 note=71 velocity=0 time=25', 'note_on channel=0 note=85 velocity=74 time=34', 'note_on channel=0 note=86 velocity=0 time=20')
Note: ('note_on channel=0 note=71 velocity=66 time=2', 'note_on channel=0 note=71 velocity=0 time=25', 'note_on channel=0 note=85 velocity=74 time=34', 'note_on channel=0 note=86 velocity=0 time=20', 'note_on channel=0 note=83 velocity=72 time=12')
Note: ('note_on channel=0 note=71 velocity=0 time=25', 'note_on channel=0 note=85 velocity=74 time=34', 'note_on channel=0 note=86 velocity=0 time=20', 'note_on channel=0 note=83 velocity=72 time=12', 'note_on channel=0 note=85 velocity=0 time=10')
Note: ('note_on channel=0 note=85 velocity=74 time=34', 'note_on channel=0 note=86 velocity=0 time=20', 'note_on channel=0 note=83 velocity=72 time=12', 'note_on channel=0 note=85 velocity=0 time=10', 'note_on channel=0 note=81 velocity=77 time=13')
Note: ('note_on channel=0 note=86 velocity=0 time=20', 'note_on channel=0 note=83 velocity=72 time=12', 'note_on channel=0 note=85 velocity=0 time=10', 'note_on channel=0 note=81 velocity=77 time=13', 'note_on channel=0 note=83 velocity=0 time=6')
Note: ('note_on channel=0 note=83 velocity=72 time=12', 'note_on channel=0 note=85 velocity=0 time=10', 'note_on channel=0 note=81 velocity=77 time=13', 'note_on channel=0 note=83 velocity=0 time=6', 'note_on channel=0 note=81 velocity=0 time=8')
Note: ('note_on channel=0 note=85 velocity=0 time=10', 'note_on channel=0 note=81 velocity=77 time=13', 'note_on channel=0 note=83 velocity=0 time=6', 'note_on channel=0 note=81 velocity=0 time=8', 'note_on channel=0 note=67 velocity=60 time=12')
Note: ('note_on channel=0 note=81 velocity=77 time=13', 'note_on channel=0 note=83 velocity=0 time=6', 'note_on channel=0 note=81 velocity=0 time=8', 'note_on channel=0 note=67 velocity=60 time=12', 'note_on channel=0 note=79 velocity=73 time=6')
Note: ('note_on channel=0 note=83 velocity=0 time=6', 'note_on channel=0 note=81 velocity=0 time=8', 'note_on channel=0 note=67 velocity=60 time=12', 'note_on channel=0 note=79 velocity=73 time=6', 'note_on channel=0 note=67 velocity=0 time=13')
Note: ('note_on channel=0 note=81 velocity=0 time=8', 'note_on channel=0 note=67 velocity=60 time=12', 'note_on channel=0 note=79 velocity=73 time=6', 'note_on channel=0 note=67 velocity=0 time=13', 'note_on channel=0 note=79 velocity=0 time=4')
Note: ('note_on channel=0 note=67 velocity=60 time=12', 'note_on channel=0 note=79 velocity=73 time=6', 'note_on channel=0 note=67 velocity=0 time=13', 'note_on channel=0 note=79 velocity=0 time=4', 'note_on channel=0 note=78 velocity=73 time=4')
Note: ('note_on channel=0 note=79 velocity=73 time=6', 'note_on channel=0 note=67 velocity=0 time=13', 'note_on channel=0 note=79 velocity=0 time=4', 'note_on channel=0 note=78 velocity=73 time=4', 'note_on channel=0 note=76 velocity=64 time=12')
Note: ('note_on channel=0 note=67 velocity=0 time=13', 'note_on channel=0 note=79 velocity=0 time=4', 'note_on channel=0 note=78 velocity=73 time=4', 'note_on channel=0 note=76 velocity=64 time=12', 'note_on channel=0 note=78 velocity=0 time=18')
Note: ('note_on channel=0 note=79 velocity=0 time=4', 'note_on channel=0 note=78 velocity=73 time=4', 'note_on channel=0 note=76 velocity=64 time=12', 'note_on channel=0 note=78 velocity=0 time=18', 'note_on channel=0 note=76 velocity=0 time=6')
Note: ('note_on channel=0 note=78 velocity=73 time=4', 'note_on channel=0 note=76 velocity=64 time=12', 'note_on channel=0 note=78 velocity=0 time=18', 'note_on channel=0 note=76 velocity=0 time=6', 'note_on channel=0 note=74 velocity=72 time=8')
Note: ('note_on channel=0 note=76 velocity=64 time=12', 'note_on channel=0 note=78 velocity=0 time=18', 'note_on channel=0 note=76 velocity=0 time=6', 'note_on channel=0 note=74 velocity=72 time=8', 'note_on channel=0 note=74 velocity=0 time=12')
Note: ('note_on channel=0 note=78 velocity=0 time=18', 'note_on channel=0 note=76 velocity=0 time=6', 'note_on channel=0 note=74 velocity=72 time=8', 'note_on channel=0 note=74 velocity=0 time=12', 'note_on channel=0 note=69 velocity=58 time=11')
Note: ('note_on channel=0 note=76 velocity=0 time=6', 'note_on channel=0 note=74 velocity=72 time=8', 'note_on channel=0 note=74 velocity=0 time=12', 'note_on channel=0 note=69 velocity=58 time=11', 'note_on channel=0 note=78 velocity=74 time=7')
Note: ('note_on channel=0 note=74 velocity=72 time=8', 'note_on channel=0 note=74 velocity=0 time=12', 'note_on channel=0 note=69 velocity=58 time=11', 'note_on channel=0 note=78 velocity=74 time=7', 'note_on channel=0 note=69 velocity=0 time=18')
Note: ('note_on channel=0 note=74 velocity=0 time=12', 'note_on channel=0 note=69 velocity=58 time=11', 'note_on channel=0 note=78 velocity=74 time=7', 'note_on channel=0 note=69 velocity=0 time=18', 'note_on channel=0 note=78 velocity=0 time=19')
Note: ('note_on channel=0 note=69 velocity=58 time=11', 'note_on channel=0 note=78 velocity=74 time=7', 'note_on channel=0 note=69 velocity=0 time=18', 'note_on channel=0 note=78 velocity=0 time=19', 'note_on channel=0 note=76 velocity=68 time=14')
Note: ('note_on channel=0 note=78 velocity=74 time=7', 'note_on channel=0 note=69 velocity=0 time=18', 'note_on channel=0 note=78 velocity=0 time=19', 'note_on channel=0 note=76 velocity=68 time=14', 'note_on channel=0 note=76 velocity=0 time=18')
Note: ('note_on channel=0 note=69 velocity=0 time=18', 'note_on channel=0 note=78 velocity=0 time=19', 'note_on channel=0 note=76 velocity=68 time=14', 'note_on channel=0 note=76 velocity=0 time=18', 'note_on channel=0 note=78 velocity=71 time=4')
Note: ('note_on channel=0 note=78 velocity=0 time=19', 'note_on channel=0 note=76 velocity=68 time=14', 'note_on channel=0 note=76 velocity=0 time=18', 'note_on channel=0 note=78 velocity=71 time=4', 'note_on channel=0 note=78 velocity=0 time=10')
Note: ('note_on channel=0 note=76 velocity=68 time=14', 'note_on channel=0 note=76 velocity=0 time=18', 'note_on channel=0 note=78 velocity=71 time=4', 'note_on channel=0 note=78 velocity=0 time=10', 'note_on channel=0 note=76 velocity=62 time=4')
Note: ('note_on channel=0 note=76 velocity=0 time=18', 'note_on channel=0 note=78 velocity=71 time=4', 'note_on channel=0 note=78 velocity=0 time=10', 'note_on channel=0 note=76 velocity=62 time=4', 'note_on channel=0 note=76 velocity=0 time=29')
Note: ('note_on channel=0 note=78 velocity=71 time=4', 'note_on channel=0 note=78 velocity=0 time=10', 'note_on channel=0 note=76 velocity=62 time=4', 'note_on channel=0 note=76 velocity=0 time=29', 'note_on channel=0 note=78 velocity=65 time=14')
Note: ('note_on channel=0 note=78 velocity=0 time=10', 'note_on channel=0 note=76 velocity=62 time=4', 'note_on channel=0 note=76 velocity=0 time=29', 'note_on channel=0 note=78 velocity=65 time=14', 'note_on channel=0 note=78 velocity=0 time=52')
Note: ('note_on channel=0 note=76 velocity=62 time=4', 'note_on channel=0 note=76 velocity=0 time=29', 'note_on channel=0 note=78 velocity=65 time=14', 'note_on channel=0 note=78 velocity=0 time=52', 'note_on channel=0 note=76 velocity=68 time=3')
Note: ('note_on channel=0 note=76 velocity=0 time=29', 'note_on channel=0 note=78 velocity=65 time=14', 'note_on channel=0 note=78 velocity=0 time=52', 'note_on channel=0 note=76 velocity=68 time=3', 'note_on channel=0 note=76 velocity=0 time=20')
Note: ('note_on channel=0 note=78 velocity=65 time=14', 'note_on channel=0 note=78 velocity=0 time=52', 'note_on channel=0 note=76 velocity=68 time=3', 'note_on channel=0 note=76 velocity=0 time=20', 'note_on channel=0 note=57 velocity=53 time=3')
Note: ('note_on channel=0 note=78 velocity=0 time=52', 'note_on channel=0 note=76 velocity=68 time=3', 'note_on channel=0 note=76 velocity=0 time=20', 'note_on channel=0 note=57 velocity=53 time=3', 'note_on channel=0 note=78 velocity=69 time=13')
Note: ('note_on channel=0 note=76 velocity=68 time=3', 'note_on channel=0 note=76 velocity=0 time=20', 'note_on channel=0 note=57 velocity=53 time=3', 'note_on channel=0 note=78 velocity=69 time=13', 'note_on channel=0 note=57 velocity=0 time=19')
Note: ('note_on channel=0 note=76 velocity=0 time=20', 'note_on channel=0 note=57 velocity=53 time=3', 'note_on channel=0 note=78 velocity=69 time=13', 'note_on channel=0 note=57 velocity=0 time=19', 'note_on channel=0 note=78 velocity=0 time=35')
Note: ('note_on channel=0 note=57 velocity=53 time=3', 'note_on channel=0 note=78 velocity=69 time=13', 'note_on channel=0 note=57 velocity=0 time=19', 'note_on channel=0 note=78 velocity=0 time=35', 'note_on channel=0 note=76 velocity=61 time=9')
Note: ('note_on channel=0 note=78 velocity=69 time=13', 'note_on channel=0 note=57 velocity=0 time=19', 'note_on channel=0 note=78 velocity=0 time=35', 'note_on channel=0 note=76 velocity=61 time=9', 'note_on channel=0 note=76 velocity=0 time=34')
Note: ('note_on channel=0 note=57 velocity=0 time=19', 'note_on channel=0 note=78 velocity=0 time=35', 'note_on channel=0 note=76 velocity=61 time=9', 'note_on channel=0 note=76 velocity=0 time=34', 'note_on channel=0 note=78 velocity=70 time=12')
Note: ('note_on channel=0 note=78 velocity=0 time=35', 'note_on channel=0 note=76 velocity=61 time=9', 'note_on channel=0 note=76 velocity=0 time=34', 'note_on channel=0 note=78 velocity=70 time=12', 'note_on channel=0 note=78 velocity=0 time=56')
Note: ('note_on channel=0 note=76 velocity=61 time=9', 'note_on channel=0 note=76 velocity=0 time=34', 'note_on channel=0 note=78 velocity=70 time=12', 'note_on channel=0 note=78 velocity=0 time=56', 'note_on channel=0 note=76 velocity=67 time=7')
Note: ('note_on channel=0 note=76 velocity=0 time=34', 'note_on channel=0 note=78 velocity=70 time=12', 'note_on channel=0 note=78 velocity=0 time=56', 'note_on channel=0 note=76 velocity=67 time=7', 'note_on channel=0 note=76 velocity=0 time=28')
Note: ('note_on channel=0 note=78 velocity=70 time=12', 'note_on channel=0 note=78 velocity=0 time=56', 'note_on channel=0 note=76 velocity=67 time=7', 'note_on channel=0 note=76 velocity=0 time=28', 'note_on channel=0 note=74 velocity=56 time=23')
Note: ('note_on channel=0 note=78 velocity=0 time=56', 'note_on channel=0 note=76 velocity=67 time=7', 'note_on channel=0 note=76 velocity=0 time=28', 'note_on channel=0 note=74 velocity=56 time=23', 'note_on channel=0 note=74 velocity=0 time=34')
Note: ('note_on channel=0 note=76 velocity=67 time=7', 'note_on channel=0 note=76 velocity=0 time=28', 'note_on channel=0 note=74 velocity=56 time=23', 'note_on channel=0 note=74 velocity=0 time=34', 'note_on channel=0 note=76 velocity=56 time=30')
Note: ('note_on channel=0 note=76 velocity=0 time=28', 'note_on channel=0 note=74 velocity=56 time=23', 'note_on channel=0 note=74 velocity=0 time=34', 'note_on channel=0 note=76 velocity=56 time=30', 'note_on channel=0 note=74 velocity=61 time=64')
Note: ('note_on channel=0 note=74 velocity=56 time=23', 'note_on channel=0 note=74 velocity=0 time=34', 'note_on channel=0 note=76 velocity=56 time=30', 'note_on channel=0 note=74 velocity=61 time=64', 'note_on channel=0 note=76 velocity=0 time=5')
Note: ('note_on channel=0 note=74 velocity=0 time=34', 'note_on channel=0 note=76 velocity=56 time=30', 'note_on channel=0 note=74 velocity=61 time=64', 'note_on channel=0 note=76 velocity=0 time=5', 'note_on channel=0 note=50 velocity=37 time=5')
Note: ('note_on channel=0 note=76 velocity=56 time=30', 'note_on channel=0 note=74 velocity=61 time=64', 'note_on channel=0 note=76 velocity=0 time=5', 'note_on channel=0 note=50 velocity=37 time=5', 'note_on channel=0 note=74 velocity=0 time=0')
Note: ('note_on channel=0 note=74 velocity=61 time=64', 'note_on channel=0 note=76 velocity=0 time=5', 'note_on channel=0 note=50 velocity=37 time=5', 'note_on channel=0 note=74 velocity=0 time=0', 'note_on channel=0 note=50 velocity=0 time=15')
Note: ('note_on channel=0 note=76 velocity=0 time=5', 'note_on channel=0 note=50 velocity=37 time=5', 'note_on channel=0 note=74 velocity=0 time=0', 'note_on channel=0 note=50 velocity=0 time=15', 'note_on channel=0 note=82 velocity=72 time=83')
Note: ('note_on channel=0 note=50 velocity=37 time=5', 'note_on channel=0 note=74 velocity=0 time=0', 'note_on channel=0 note=50 velocity=0 time=15', 'note_on channel=0 note=82 velocity=72 time=83', 'note_on channel=0 note=79 velocity=62 time=4')
Note: ('note_on channel=0 note=74 velocity=0 time=0', 'note_on channel=0 note=50 velocity=0 time=15', 'note_on channel=0 note=82 velocity=72 time=83', 'note_on channel=0 note=79 velocity=62 time=4', 'note_on channel=0 note=82 velocity=0 time=5')
Note: ('note_on channel=0 note=50 velocity=0 time=15', 'note_on channel=0 note=82 velocity=72 time=83', 'note_on channel=0 note=79 velocity=62 time=4', 'note_on channel=0 note=82 velocity=0 time=5', 'note_on channel=0 note=81 velocity=68 time=0')
Note: ('note_on channel=0 note=82 velocity=72 time=83', 'note_on channel=0 note=79 velocity=62 time=4', 'note_on channel=0 note=82 velocity=0 time=5', 'note_on channel=0 note=81 velocity=68 time=0', 'note_on channel=0 note=77 velocity=57 time=0')
Note: ('note_on channel=0 note=79 velocity=62 time=4', 'note_on channel=0 note=82 velocity=0 time=5', 'note_on channel=0 note=81 velocity=68 time=0', 'note_on channel=0 note=77 velocity=57 time=0', 'note_on channel=0 note=79 velocity=0 time=14')
Note: ('note_on channel=0 note=82 velocity=0 time=5', 'note_on channel=0 note=81 velocity=68 time=0', 'note_on channel=0 note=77 velocity=57 time=0', 'note_on channel=0 note=79 velocity=0 time=14', 'note_on channel=0 note=77 velocity=0 time=14')
Note: ('note_on channel=0 note=81 velocity=68 time=0', 'note_on channel=0 note=77 velocity=57 time=0', 'note_on channel=0 note=79 velocity=0 time=14', 'note_on channel=0 note=77 velocity=0 time=14', 'note_on channel=0 note=79 velocity=76 time=14')
Note: ('note_on channel=0 note=77 velocity=57 time=0', 'note_on channel=0 note=79 velocity=0 time=14', 'note_on channel=0 note=77 velocity=0 time=14', 'note_on channel=0 note=79 velocity=76 time=14', 'note_on channel=0 note=70 velocity=76 time=3')
Note: ('note_on channel=0 note=79 velocity=0 time=14', 'note_on channel=0 note=77 velocity=0 time=14', 'note_on channel=0 note=79 velocity=76 time=14', 'note_on channel=0 note=70 velocity=76 time=3', 'note_on channel=0 note=81 velocity=0 time=0')
Note: ('note_on channel=0 note=77 velocity=0 time=14', 'note_on channel=0 note=79 velocity=76 time=14', 'note_on channel=0 note=70 velocity=76 time=3', 'note_on channel=0 note=81 velocity=0 time=0', 'note_on channel=0 note=73 velocity=70 time=3')
Note: ('note_on channel=0 note=79 velocity=76 time=14', 'note_on channel=0 note=70 velocity=76 time=3', 'note_on channel=0 note=81 velocity=0 time=0', 'note_on channel=0 note=73 velocity=70 time=3', 'note_on channel=0 note=76 velocity=69 time=0')
Note: ('note_on channel=0 note=70 velocity=76 time=3', 'note_on channel=0 note=81 velocity=0 time=0', 'note_on channel=0 note=73 velocity=70 time=3', 'note_on channel=0 note=76 velocity=69 time=0', 'note_on channel=0 note=70 velocity=0 time=57')
Note: ('note_on channel=0 note=81 velocity=0 time=0', 'note_on channel=0 note=73 velocity=70 time=3', 'note_on channel=0 note=76 velocity=69 time=0', 'note_on channel=0 note=70 velocity=0 time=57', 'note_on channel=0 note=79 velocity=0 time=4')
Note: ('note_on channel=0 note=73 velocity=70 time=3', 'note_on channel=0 note=76 velocity=69 time=0', 'note_on channel=0 note=70 velocity=0 time=57', 'note_on channel=0 note=79 velocity=0 time=4', 'note_on channel=0 note=69 velocity=71 time=50')
Note: ('note_on channel=0 note=76 velocity=69 time=0', 'note_on channel=0 note=70 velocity=0 time=57', 'note_on channel=0 note=79 velocity=0 time=4', 'note_on channel=0 note=69 velocity=71 time=50', 'note_on channel=0 note=69 velocity=0 time=48')
Note: ('note_on channel=0 note=70 velocity=0 time=57', 'note_on channel=0 note=79 velocity=0 time=4', 'note_on channel=0 note=69 velocity=71 time=50', 'note_on channel=0 note=69 velocity=0 time=48', 'note_on channel=0 note=67 velocity=74 time=66')
Note: ('note_on channel=0 note=79 velocity=0 time=4', 'note_on channel=0 note=69 velocity=71 time=50', 'note_on channel=0 note=69 velocity=0 time=48', 'note_on channel=0 note=67 velocity=74 time=66', 'note_on channel=0 note=67 velocity=0 time=52')
Note: ('note_on channel=0 note=69 velocity=71 time=50', 'note_on channel=0 note=69 velocity=0 time=48', 'note_on channel=0 note=67 velocity=74 time=66', 'note_on channel=0 note=67 velocity=0 time=52', 'note_on channel=0 note=65 velocity=80 time=63')
Note: ('note_on channel=0 note=69 velocity=0 time=48', 'note_on channel=0 note=67 velocity=74 time=66', 'note_on channel=0 note=67 velocity=0 time=52', 'note_on channel=0 note=65 velocity=80 time=63', 'note_on channel=0 note=73 velocity=0 time=14')
Note: ('note_on channel=0 note=67 velocity=74 time=66', 'note_on channel=0 note=67 velocity=0 time=52', 'note_on channel=0 note=65 velocity=80 time=63', 'note_on channel=0 note=73 velocity=0 time=14', 'note_on channel=0 note=81 velocity=73 time=1')
Note: ('note_on channel=0 note=67 velocity=0 time=52', 'note_on channel=0 note=65 velocity=80 time=63', 'note_on channel=0 note=73 velocity=0 time=14', 'note_on channel=0 note=81 velocity=73 time=1', 'note_on channel=0 note=77 velocity=64 time=3')
Note: ('note_on channel=0 note=65 velocity=80 time=63', 'note_on channel=0 note=73 velocity=0 time=14', 'note_on channel=0 note=81 velocity=73 time=1', 'note_on channel=0 note=77 velocity=64 time=3', 'note_on channel=0 note=74 velocity=63 time=0')
Note: ('note_on channel=0 note=73 velocity=0 time=14', 'note_on channel=0 note=81 velocity=73 time=1', 'note_on channel=0 note=77 velocity=64 time=3', 'note_on channel=0 note=74 velocity=63 time=0', 'note_on channel=0 note=65 velocity=0 time=19')
Note: ('note_on channel=0 note=81 velocity=73 time=1', 'note_on channel=0 note=77 velocity=64 time=3', 'note_on channel=0 note=74 velocity=63 time=0', 'note_on channel=0 note=65 velocity=0 time=19', 'note_on channel=0 note=77 velocity=0 time=16')
Note: ('note_on channel=0 note=77 velocity=64 time=3', 'note_on channel=0 note=74 velocity=63 time=0', 'note_on channel=0 note=65 velocity=0 time=19', 'note_on channel=0 note=77 velocity=0 time=16', 'note_on channel=0 note=76 velocity=0 time=3')
Note: ('note_on channel=0 note=74 velocity=63 time=0', 'note_on channel=0 note=65 velocity=0 time=19', 'note_on channel=0 note=77 velocity=0 time=16', 'note_on channel=0 note=76 velocity=0 time=3', 'note_on channel=0 note=81 velocity=0 time=5')
Note: ('note_on channel=0 note=65 velocity=0 time=19', 'note_on channel=0 note=77 velocity=0 time=16', 'note_on channel=0 note=76 velocity=0 time=3', 'note_on channel=0 note=81 velocity=0 time=5', 'note_on channel=0 note=74 velocity=0 time=13')
Note: ('note_on channel=0 note=77 velocity=0 time=16', 'note_on channel=0 note=76 velocity=0 time=3', 'note_on channel=0 note=81 velocity=0 time=5', 'note_on channel=0 note=74 velocity=0 time=13', 'note_on channel=0 note=64 velocity=73 time=33')
Note: ('note_on channel=0 note=76 velocity=0 time=3', 'note_on channel=0 note=81 velocity=0 time=5', 'note_on channel=0 note=74 velocity=0 time=13', 'note_on channel=0 note=64 velocity=73 time=33', 'note_on channel=0 note=64 velocity=0 time=24')
Note: ('note_on channel=0 note=81 velocity=0 time=5', 'note_on channel=0 note=74 velocity=0 time=13', 'note_on channel=0 note=64 velocity=73 time=33', 'note_on channel=0 note=64 velocity=0 time=24', 'note_on channel=0 note=62 velocity=66 time=92')
Note: ('note_on channel=0 note=74 velocity=0 time=13', 'note_on channel=0 note=64 velocity=73 time=33', 'note_on channel=0 note=64 velocity=0 time=24', 'note_on channel=0 note=62 velocity=66 time=92', 'note_on channel=0 note=62 velocity=0 time=21')
Note: ('note_on channel=0 note=64 velocity=73 time=33', 'note_on channel=0 note=64 velocity=0 time=24', 'note_on channel=0 note=62 velocity=66 time=92', 'note_on channel=0 note=62 velocity=0 time=21', 'note_on channel=0 note=64 velocity=75 time=90')
Note: ('note_on channel=0 note=64 velocity=0 time=24', 'note_on channel=0 note=62 velocity=66 time=92', 'note_on channel=0 note=62 velocity=0 time=21', 'note_on channel=0 note=64 velocity=75 time=90', 'note_on channel=0 note=82 velocity=82 time=10')
Note: ('note_on channel=0 note=62 velocity=66 time=92', 'note_on channel=0 note=62 velocity=0 time=21', 'note_on channel=0 note=64 velocity=75 time=90', 'note_on channel=0 note=82 velocity=82 time=10', 'note_on channel=0 note=79 velocity=81 time=1')
Note: ('note_on channel=0 note=62 velocity=0 time=21', 'note_on channel=0 note=64 velocity=75 time=90', 'note_on channel=0 note=82 velocity=82 time=10', 'note_on channel=0 note=79 velocity=81 time=1', 'note_on channel=0 note=62 velocity=68 time=39')
Note: ('note_on channel=0 note=64 velocity=75 time=90', 'note_on channel=0 note=82 velocity=82 time=10', 'note_on channel=0 note=79 velocity=81 time=1', 'note_on channel=0 note=62 velocity=68 time=39', 'note_on channel=0 note=64 velocity=0 time=3')
Note: ('note_on channel=0 note=82 velocity=82 time=10', 'note_on channel=0 note=79 velocity=81 time=1', 'note_on channel=0 note=62 velocity=68 time=39', 'note_on channel=0 note=64 velocity=0 time=3', 'note_on channel=0 note=62 velocity=0 time=47')
Note: ('note_on channel=0 note=79 velocity=81 time=1', 'note_on channel=0 note=62 velocity=68 time=39', 'note_on channel=0 note=64 velocity=0 time=3', 'note_on channel=0 note=62 velocity=0 time=47', 'note_on channel=0 note=64 velocity=62 time=1')
Note: ('note_on channel=0 note=62 velocity=68 time=39', 'note_on channel=0 note=64 velocity=0 time=3', 'note_on channel=0 note=62 velocity=0 time=47', 'note_on channel=0 note=64 velocity=62 time=1', 'note_on channel=0 note=82 velocity=0 time=30')
Note: ('note_on channel=0 note=64 velocity=0 time=3', 'note_on channel=0 note=62 velocity=0 time=47', 'note_on channel=0 note=64 velocity=62 time=1', 'note_on channel=0 note=82 velocity=0 time=30', 'note_on channel=0 note=62 velocity=56 time=19')
Note: ('note_on channel=0 note=62 velocity=0 time=47', 'note_on channel=0 note=64 velocity=62 time=1', 'note_on channel=0 note=82 velocity=0 time=30', 'note_on channel=0 note=62 velocity=56 time=19', 'note_on channel=0 note=64 velocity=0 time=11')
Note: ('note_on channel=0 note=64 velocity=62 time=1', 'note_on channel=0 note=82 velocity=0 time=30', 'note_on channel=0 note=62 velocity=56 time=19', 'note_on channel=0 note=64 velocity=0 time=11', 'note_on channel=0 note=62 velocity=0 time=43')
Note: ('note_on channel=0 note=82 velocity=0 time=30', 'note_on channel=0 note=62 velocity=56 time=19', 'note_on channel=0 note=64 velocity=0 time=11', 'note_on channel=0 note=62 velocity=0 time=43', 'note_on channel=0 note=64 velocity=58 time=0')
Note: ('note_on channel=0 note=62 velocity=56 time=19', 'note_on channel=0 note=64 velocity=0 time=11', 'note_on channel=0 note=62 velocity=0 time=43', 'note_on channel=0 note=64 velocity=58 time=0', 'note_on channel=0 note=62 velocity=59 time=53')
Note: ('note_on channel=0 note=64 velocity=0 time=11', 'note_on channel=0 note=62 velocity=0 time=43', 'note_on channel=0 note=64 velocity=58 time=0', 'note_on channel=0 note=62 velocity=59 time=53', 'note_on channel=0 note=64 velocity=0 time=15')
Note: ('note_on channel=0 note=62 velocity=0 time=43', 'note_on channel=0 note=64 velocity=58 time=0', 'note_on channel=0 note=62 velocity=59 time=53', 'note_on channel=0 note=64 velocity=0 time=15', 'note_on channel=0 note=81 velocity=74 time=121')
Note: ('note_on channel=0 note=64 velocity=58 time=0', 'note_on channel=0 note=62 velocity=59 time=53', 'note_on channel=0 note=64 velocity=0 time=15', 'note_on channel=0 note=81 velocity=74 time=121', 'note_on channel=0 note=77 velocity=66 time=7')
Note: ('note_on channel=0 note=62 velocity=59 time=53', 'note_on channel=0 note=64 velocity=0 time=15', 'note_on channel=0 note=81 velocity=74 time=121', 'note_on channel=0 note=77 velocity=66 time=7', 'note_on channel=0 note=62 velocity=0 time=13')
Note: ('note_on channel=0 note=64 velocity=0 time=15', 'note_on channel=0 note=81 velocity=74 time=121', 'note_on channel=0 note=77 velocity=66 time=7', 'note_on channel=0 note=62 velocity=0 time=13', 'note_on channel=0 note=79 velocity=0 time=8')
Note: ('note_on channel=0 note=81 velocity=74 time=121', 'note_on channel=0 note=77 velocity=66 time=7', 'note_on channel=0 note=62 velocity=0 time=13', 'note_on channel=0 note=79 velocity=0 time=8', 'note_on channel=0 note=77 velocity=0 time=17')
Note: ('note_on channel=0 note=77 velocity=66 time=7', 'note_on channel=0 note=62 velocity=0 time=13', 'note_on channel=0 note=79 velocity=0 time=8', 'note_on channel=0 note=77 velocity=0 time=17', 'note_on channel=0 note=79 velocity=78 time=13')
Note: ('note_on channel=0 note=62 velocity=0 time=13', 'note_on channel=0 note=79 velocity=0 time=8', 'note_on channel=0 note=77 velocity=0 time=17', 'note_on channel=0 note=79 velocity=78 time=13', 'note_on channel=0 note=70 velocity=82 time=2')
Note: ('note_on channel=0 note=79 velocity=0 time=8', 'note_on channel=0 note=77 velocity=0 time=17', 'note_on channel=0 note=79 velocity=78 time=13', 'note_on channel=0 note=70 velocity=82 time=2', 'note_on channel=0 note=76 velocity=73 time=0')
Note: ('note_on channel=0 note=77 velocity=0 time=17', 'note_on channel=0 note=79 velocity=78 time=13', 'note_on channel=0 note=70 velocity=82 time=2', 'note_on channel=0 note=76 velocity=73 time=0', 'note_on channel=0 note=73 velocity=76 time=3')
Note: ('note_on channel=0 note=79 velocity=78 time=13', 'note_on channel=0 note=70 velocity=82 time=2', 'note_on channel=0 note=76 velocity=73 time=0', 'note_on channel=0 note=73 velocity=76 time=3', 'note_on channel=0 note=81 velocity=0 time=1')
Note: ('note_on channel=0 note=70 velocity=82 time=2', 'note_on channel=0 note=76 velocity=73 time=0', 'note_on channel=0 note=73 velocity=76 time=3', 'note_on channel=0 note=81 velocity=0 time=1', 'note_on channel=0 note=79 velocity=0 time=6')
Note: ('note_on channel=0 note=76 velocity=73 time=0', 'note_on channel=0 note=73 velocity=76 time=3', 'note_on channel=0 note=81 velocity=0 time=1', 'note_on channel=0 note=79 velocity=0 time=6', 'note_on channel=0 note=70 velocity=0 time=6')
Note: ('note_on channel=0 note=73 velocity=76 time=3', 'note_on channel=0 note=81 velocity=0 time=1', 'note_on channel=0 note=79 velocity=0 time=6', 'note_on channel=0 note=70 velocity=0 time=6', 'note_on channel=0 note=69 velocity=77 time=52')
Note: ('note_on channel=0 note=81 velocity=0 time=1', 'note_on channel=0 note=79 velocity=0 time=6', 'note_on channel=0 note=70 velocity=0 time=6', 'note_on channel=0 note=69 velocity=77 time=52', 'note_on channel=0 note=69 velocity=0 time=45')
Note: ('note_on channel=0 note=79 velocity=0 time=6', 'note_on channel=0 note=70 velocity=0 time=6', 'note_on channel=0 note=69 velocity=77 time=52', 'note_on channel=0 note=69 velocity=0 time=45', 'note_on channel=0 note=67 velocity=78 time=51')
Note: ('note_on channel=0 note=70 velocity=0 time=6', 'note_on channel=0 note=69 velocity=77 time=52', 'note_on channel=0 note=69 velocity=0 time=45', 'note_on channel=0 note=67 velocity=78 time=51', 'note_on channel=0 note=67 velocity=0 time=49')
Note: ('note_on channel=0 note=69 velocity=77 time=52', 'note_on channel=0 note=69 velocity=0 time=45', 'note_on channel=0 note=67 velocity=78 time=51', 'note_on channel=0 note=67 velocity=0 time=49', 'note_on channel=0 note=76 velocity=0 time=26')
Note: ('note_on channel=0 note=69 velocity=0 time=45', 'note_on channel=0 note=67 velocity=78 time=51', 'note_on channel=0 note=67 velocity=0 time=49', 'note_on channel=0 note=76 velocity=0 time=26', 'note_on channel=0 note=73 velocity=0 time=6')
Note: ('note_on channel=0 note=67 velocity=78 time=51', 'note_on channel=0 note=67 velocity=0 time=49', 'note_on channel=0 note=76 velocity=0 time=26', 'note_on channel=0 note=73 velocity=0 time=6', 'note_on channel=0 note=65 velocity=85 time=39')
Note: ('note_on channel=0 note=67 velocity=0 time=49', 'note_on channel=0 note=76 velocity=0 time=26', 'note_on channel=0 note=73 velocity=0 time=6', 'note_on channel=0 note=65 velocity=85 time=39', 'note_on channel=0 note=81 velocity=73 time=4')
Note: ('note_on channel=0 note=76 velocity=0 time=26', 'note_on channel=0 note=73 velocity=0 time=6', 'note_on channel=0 note=65 velocity=85 time=39', 'note_on channel=0 note=81 velocity=73 time=4', 'note_on channel=0 note=77 velocity=70 time=5')
Note: ('note_on channel=0 note=73 velocity=0 time=6', 'note_on channel=0 note=65 velocity=85 time=39', 'note_on channel=0 note=81 velocity=73 time=4', 'note_on channel=0 note=77 velocity=70 time=5', 'note_on channel=0 note=74 velocity=66 time=2')
Note: ('note_on channel=0 note=65 velocity=85 time=39', 'note_on channel=0 note=81 velocity=73 time=4', 'note_on channel=0 note=77 velocity=70 time=5', 'note_on channel=0 note=74 velocity=66 time=2', 'note_on channel=0 note=65 velocity=0 time=2')
Note: ('note_on channel=0 note=81 velocity=73 time=4', 'note_on channel=0 note=77 velocity=70 time=5', 'note_on channel=0 note=74 velocity=66 time=2', 'note_on channel=0 note=65 velocity=0 time=2', 'note_on channel=0 note=77 velocity=0 time=13')
Note: ('note_on channel=0 note=77 velocity=70 time=5', 'note_on channel=0 note=74 velocity=66 time=2', 'note_on channel=0 note=65 velocity=0 time=2', 'note_on channel=0 note=77 velocity=0 time=13', 'note_on channel=0 note=74 velocity=0 time=12')
Note: ('note_on channel=0 note=74 velocity=66 time=2', 'note_on channel=0 note=65 velocity=0 time=2', 'note_on channel=0 note=77 velocity=0 time=13', 'note_on channel=0 note=74 velocity=0 time=12', 'note_on channel=0 note=81 velocity=0 time=10')
Note: ('note_on channel=0 note=65 velocity=0 time=2', 'note_on channel=0 note=77 velocity=0 time=13', 'note_on channel=0 note=74 velocity=0 time=12', 'note_on channel=0 note=81 velocity=0 time=10', 'note_on channel=0 note=64 velocity=79 time=24')
Note: ('note_on channel=0 note=77 velocity=0 time=13', 'note_on channel=0 note=74 velocity=0 time=12', 'note_on channel=0 note=81 velocity=0 time=10', 'note_on channel=0 note=64 velocity=79 time=24', 'note_on channel=0 note=64 velocity=0 time=36')
Note: ('note_on channel=0 note=74 velocity=0 time=12', 'note_on channel=0 note=81 velocity=0 time=10', 'note_on channel=0 note=64 velocity=79 time=24', 'note_on channel=0 note=64 velocity=0 time=36', 'note_on channel=0 note=62 velocity=79 time=61')
Note: ('note_on channel=0 note=81 velocity=0 time=10', 'note_on channel=0 note=64 velocity=79 time=24', 'note_on channel=0 note=64 velocity=0 time=36', 'note_on channel=0 note=62 velocity=79 time=61', 'note_on channel=0 note=62 velocity=0 time=34')
Note: ('note_on channel=0 note=64 velocity=79 time=24', 'note_on channel=0 note=64 velocity=0 time=36', 'note_on channel=0 note=62 velocity=79 time=61', 'note_on channel=0 note=62 velocity=0 time=34', 'note_on channel=0 note=64 velocity=79 time=98')
Note: ('note_on channel=0 note=64 velocity=0 time=36', 'note_on channel=0 note=62 velocity=79 time=61', 'note_on channel=0 note=62 velocity=0 time=34', 'note_on channel=0 note=64 velocity=79 time=98', 'note_on channel=0 note=84 velocity=83 time=12')
Note: ('note_on channel=0 note=62 velocity=79 time=61', 'note_on channel=0 note=62 velocity=0 time=34', 'note_on channel=0 note=64 velocity=79 time=98', 'note_on channel=0 note=84 velocity=83 time=12', 'note_on channel=0 note=81 velocity=84 time=1')
Note: ('note_on channel=0 note=62 velocity=0 time=34', 'note_on channel=0 note=64 velocity=79 time=98', 'note_on channel=0 note=84 velocity=83 time=12', 'note_on channel=0 note=81 velocity=84 time=1', 'note_on channel=0 note=64 velocity=0 time=35')
Note: ('note_on channel=0 note=64 velocity=79 time=98', 'note_on channel=0 note=84 velocity=83 time=12', 'note_on channel=0 note=81 velocity=84 time=1', 'note_on channel=0 note=64 velocity=0 time=35', 'note_on channel=0 note=62 velocity=67 time=6')
Note: ('note_on channel=0 note=84 velocity=83 time=12', 'note_on channel=0 note=81 velocity=84 time=1', 'note_on channel=0 note=64 velocity=0 time=35', 'note_on channel=0 note=62 velocity=67 time=6', 'note_on channel=0 note=62 velocity=0 time=42')
Note: ('note_on channel=0 note=81 velocity=84 time=1', 'note_on channel=0 note=64 velocity=0 time=35', 'note_on channel=0 note=62 velocity=67 time=6', 'note_on channel=0 note=62 velocity=0 time=42', 'note_on channel=0 note=64 velocity=68 time=9')
Note: ('note_on channel=0 note=64 velocity=0 time=35', 'note_on channel=0 note=62 velocity=67 time=6', 'note_on channel=0 note=62 velocity=0 time=42', 'note_on channel=0 note=64 velocity=68 time=9', 'note_on channel=0 note=62 velocity=69 time=54')
Note: ('note_on channel=0 note=62 velocity=67 time=6', 'note_on channel=0 note=62 velocity=0 time=42', 'note_on channel=0 note=64 velocity=68 time=9', 'note_on channel=0 note=62 velocity=69 time=54', 'note_on channel=0 note=64 velocity=0 time=4')
Note: ('note_on channel=0 note=62 velocity=0 time=42', 'note_on channel=0 note=64 velocity=68 time=9', 'note_on channel=0 note=62 velocity=69 time=54', 'note_on channel=0 note=64 velocity=0 time=4', 'note_on channel=0 note=81 velocity=0 time=30')
Note: ('note_on channel=0 note=64 velocity=68 time=9', 'note_on channel=0 note=62 velocity=69 time=54', 'note_on channel=0 note=64 velocity=0 time=4', 'note_on channel=0 note=81 velocity=0 time=30', 'note_on channel=0 note=64 velocity=62 time=18')
Note: ('note_on channel=0 note=62 velocity=69 time=54', 'note_on channel=0 note=64 velocity=0 time=4', 'note_on channel=0 note=81 velocity=0 time=30', 'note_on channel=0 note=64 velocity=62 time=18', 'note_on channel=0 note=62 velocity=0 time=1')
Note: ('note_on channel=0 note=64 velocity=0 time=4', 'note_on channel=0 note=81 velocity=0 time=30', 'note_on channel=0 note=64 velocity=62 time=18', 'note_on channel=0 note=62 velocity=0 time=1', 'note_on channel=0 note=62 velocity=62 time=57')
Note: ('note_on channel=0 note=81 velocity=0 time=30', 'note_on channel=0 note=64 velocity=62 time=18', 'note_on channel=0 note=62 velocity=0 time=1', 'note_on channel=0 note=62 velocity=62 time=57', 'note_on channel=0 note=64 velocity=0 time=13')
Note: ('note_on channel=0 note=64 velocity=62 time=18', 'note_on channel=0 note=62 velocity=0 time=1', 'note_on channel=0 note=62 velocity=62 time=57', 'note_on channel=0 note=64 velocity=0 time=13', 'note_on channel=0 note=82 velocity=74 time=14')
Note: ('note_on channel=0 note=62 velocity=0 time=1', 'note_on channel=0 note=62 velocity=62 time=57', 'note_on channel=0 note=64 velocity=0 time=13', 'note_on channel=0 note=82 velocity=74 time=14', 'note_on channel=0 note=79 velocity=68 time=2')
Note: ('note_on channel=0 note=62 velocity=62 time=57', 'note_on channel=0 note=64 velocity=0 time=13', 'note_on channel=0 note=82 velocity=74 time=14', 'note_on channel=0 note=79 velocity=68 time=2', 'note_on channel=0 note=62 velocity=0 time=6')
Note: ('note_on channel=0 note=64 velocity=0 time=13', 'note_on channel=0 note=82 velocity=74 time=14', 'note_on channel=0 note=79 velocity=68 time=2', 'note_on channel=0 note=62 velocity=0 time=6', 'note_on channel=0 note=84 velocity=0 time=1')
Note: ('note_on channel=0 note=82 velocity=74 time=14', 'note_on channel=0 note=79 velocity=68 time=2', 'note_on channel=0 note=62 velocity=0 time=6', 'note_on channel=0 note=84 velocity=0 time=1', 'note_on channel=0 note=79 velocity=0 time=12')
Note: ('note_on channel=0 note=79 velocity=68 time=2', 'note_on channel=0 note=62 velocity=0 time=6', 'note_on channel=0 note=84 velocity=0 time=1', 'note_on channel=0 note=79 velocity=0 time=12', 'note_on channel=0 note=82 velocity=0 time=15')
Note: ('note_on channel=0 note=62 velocity=0 time=6', 'note_on channel=0 note=84 velocity=0 time=1', 'note_on channel=0 note=79 velocity=0 time=12', 'note_on channel=0 note=82 velocity=0 time=15', 'note_on channel=0 note=72 velocity=86 time=14')
Note: ('note_on channel=0 note=84 velocity=0 time=1', 'note_on channel=0 note=79 velocity=0 time=12', 'note_on channel=0 note=82 velocity=0 time=15', 'note_on channel=0 note=72 velocity=86 time=14', 'note_on channel=0 note=81 velocity=81 time=9')
Note: ('note_on channel=0 note=79 velocity=0 time=12', 'note_on channel=0 note=82 velocity=0 time=15', 'note_on channel=0 note=72 velocity=86 time=14', 'note_on channel=0 note=81 velocity=81 time=9', 'note_on channel=0 note=75 velocity=80 time=2')
Note: ('note_on channel=0 note=82 velocity=0 time=15', 'note_on channel=0 note=72 velocity=86 time=14', 'note_on channel=0 note=81 velocity=81 time=9', 'note_on channel=0 note=75 velocity=80 time=2', 'note_on channel=0 note=78 velocity=69 time=3')
Note: ('note_on channel=0 note=72 velocity=86 time=14', 'note_on channel=0 note=81 velocity=81 time=9', 'note_on channel=0 note=75 velocity=80 time=2', 'note_on channel=0 note=78 velocity=69 time=3', 'note_on channel=0 note=72 velocity=0 time=27')
Note: ('note_on channel=0 note=81 velocity=81 time=9', 'note_on channel=0 note=75 velocity=80 time=2', 'note_on channel=0 note=78 velocity=69 time=3', 'note_on channel=0 note=72 velocity=0 time=27', 'note_on channel=0 note=70 velocity=86 time=40')
Note: ('note_on channel=0 note=75 velocity=80 time=2', 'note_on channel=0 note=78 velocity=69 time=3', 'note_on channel=0 note=72 velocity=0 time=27', 'note_on channel=0 note=70 velocity=86 time=40', 'note_on channel=0 note=81 velocity=0 time=43')
Note: ('note_on channel=0 note=78 velocity=69 time=3', 'note_on channel=0 note=72 velocity=0 time=27', 'note_on channel=0 note=70 velocity=86 time=40', 'note_on channel=0 note=81 velocity=0 time=43', 'note_on channel=0 note=75 velocity=0 time=12')
Note: ('note_on channel=0 note=72 velocity=0 time=27', 'note_on channel=0 note=70 velocity=86 time=40', 'note_on channel=0 note=81 velocity=0 time=43', 'note_on channel=0 note=75 velocity=0 time=12', 'note_on channel=0 note=78 velocity=0 time=2')
Note: ('note_on channel=0 note=70 velocity=86 time=40', 'note_on channel=0 note=81 velocity=0 time=43', 'note_on channel=0 note=75 velocity=0 time=12', 'note_on channel=0 note=78 velocity=0 time=2', 'note_on channel=0 note=70 velocity=0 time=1')
Note: ('note_on channel=0 note=81 velocity=0 time=43', 'note_on channel=0 note=75 velocity=0 time=12', 'note_on channel=0 note=78 velocity=0 time=2', 'note_on channel=0 note=70 velocity=0 time=1', 'note_on channel=0 note=69 velocity=86 time=53')
Note: ('note_on channel=0 note=75 velocity=0 time=12', 'note_on channel=0 note=78 velocity=0 time=2', 'note_on channel=0 note=70 velocity=0 time=1', 'note_on channel=0 note=69 velocity=86 time=53', 'note_on channel=0 note=69 velocity=0 time=48')
Note: ('note_on channel=0 note=78 velocity=0 time=2', 'note_on channel=0 note=70 velocity=0 time=1', 'note_on channel=0 note=69 velocity=86 time=53', 'note_on channel=0 note=69 velocity=0 time=48', 'note_on channel=0 note=70 velocity=87 time=68')
Note: ('note_on channel=0 note=70 velocity=0 time=1', 'note_on channel=0 note=69 velocity=86 time=53', 'note_on channel=0 note=69 velocity=0 time=48', 'note_on channel=0 note=70 velocity=87 time=68', 'note_on channel=0 note=74 velocity=75 time=12')
Note: ('note_on channel=0 note=69 velocity=86 time=53', 'note_on channel=0 note=69 velocity=0 time=48', 'note_on channel=0 note=70 velocity=87 time=68', 'note_on channel=0 note=74 velocity=75 time=12', 'note_on channel=0 note=82 velocity=82 time=0')
Note: ('note_on channel=0 note=69 velocity=0 time=48', 'note_on channel=0 note=70 velocity=87 time=68', 'note_on channel=0 note=74 velocity=75 time=12', 'note_on channel=0 note=82 velocity=82 time=0', 'note_on channel=0 note=79 velocity=73 time=2')
Note: ('note_on channel=0 note=70 velocity=87 time=68', 'note_on channel=0 note=74 velocity=75 time=12', 'note_on channel=0 note=82 velocity=82 time=0', 'note_on channel=0 note=79 velocity=73 time=2', 'note_on channel=0 note=70 velocity=0 time=40')
Note: ('note_on channel=0 note=74 velocity=75 time=12', 'note_on channel=0 note=82 velocity=82 time=0', 'note_on channel=0 note=79 velocity=73 time=2', 'note_on channel=0 note=70 velocity=0 time=40', 'note_on channel=0 note=74 velocity=0 time=15')
Note: ('note_on channel=0 note=82 velocity=82 time=0', 'note_on channel=0 note=79 velocity=73 time=2', 'note_on channel=0 note=70 velocity=0 time=40', 'note_on channel=0 note=74 velocity=0 time=15', 'note_on channel=0 note=79 velocity=0 time=31')
Note: ('note_on channel=0 note=79 velocity=73 time=2', 'note_on channel=0 note=70 velocity=0 time=40', 'note_on channel=0 note=74 velocity=0 time=15', 'note_on channel=0 note=79 velocity=0 time=31', 'note_on channel=0 note=82 velocity=0 time=2')
Note: ('note_on channel=0 note=70 velocity=0 time=40', 'note_on channel=0 note=74 velocity=0 time=15', 'note_on channel=0 note=79 velocity=0 time=31', 'note_on channel=0 note=82 velocity=0 time=2', 'note_on channel=0 note=69 velocity=85 time=14')
Note: ('note_on channel=0 note=74 velocity=0 time=15', 'note_on channel=0 note=79 velocity=0 time=31', 'note_on channel=0 note=82 velocity=0 time=2', 'note_on channel=0 note=69 velocity=85 time=14', 'note_on channel=0 note=69 velocity=0 time=46')
Note: ('note_on channel=0 note=79 velocity=0 time=31', 'note_on channel=0 note=82 velocity=0 time=2', 'note_on channel=0 note=69 velocity=85 time=14', 'note_on channel=0 note=69 velocity=0 time=46', 'note_on channel=0 note=67 velocity=81 time=54')
Note: ('note_on channel=0 note=82 velocity=0 time=2', 'note_on channel=0 note=69 velocity=85 time=14', 'note_on channel=0 note=69 velocity=0 time=46', 'note_on channel=0 note=67 velocity=81 time=54', 'note_on channel=0 note=67 velocity=0 time=34')
Note: ('note_on channel=0 note=69 velocity=85 time=14', 'note_on channel=0 note=69 velocity=0 time=46', 'note_on channel=0 note=67 velocity=81 time=54', 'note_on channel=0 note=67 velocity=0 time=34', 'note_on channel=0 note=69 velocity=77 time=107')
Note: ('note_on channel=0 note=69 velocity=0 time=46', 'note_on channel=0 note=67 velocity=81 time=54', 'note_on channel=0 note=67 velocity=0 time=34', 'note_on channel=0 note=69 velocity=77 time=107', 'note_on channel=0 note=81 velocity=83 time=8')
Note: ('note_on channel=0 note=67 velocity=81 time=54', 'note_on channel=0 note=67 velocity=0 time=34', 'note_on channel=0 note=69 velocity=77 time=107', 'note_on channel=0 note=81 velocity=83 time=8', 'note_on channel=0 note=84 velocity=83 time=1')
Note: ('note_on channel=0 note=67 velocity=0 time=34', 'note_on channel=0 note=69 velocity=77 time=107', 'note_on channel=0 note=81 velocity=83 time=8', 'note_on channel=0 note=84 velocity=83 time=1', 'note_on channel=0 note=69 velocity=0 time=33')
Note: ('note_on channel=0 note=69 velocity=77 time=107', 'note_on channel=0 note=81 velocity=83 time=8', 'note_on channel=0 note=84 velocity=83 time=1', 'note_on channel=0 note=69 velocity=0 time=33', 'note_on channel=0 note=67 velocity=75 time=6')
Note: ('note_on channel=0 note=81 velocity=83 time=8', 'note_on channel=0 note=84 velocity=83 time=1', 'note_on channel=0 note=69 velocity=0 time=33', 'note_on channel=0 note=67 velocity=75 time=6', 'note_on channel=0 note=67 velocity=0 time=55')
Note: ('note_on channel=0 note=84 velocity=83 time=1', 'note_on channel=0 note=69 velocity=0 time=33', 'note_on channel=0 note=67 velocity=75 time=6', 'note_on channel=0 note=67 velocity=0 time=55', 'note_on channel=0 note=69 velocity=69 time=4')
Note: ('note_on channel=0 note=69 velocity=0 time=33', 'note_on channel=0 note=67 velocity=75 time=6', 'note_on channel=0 note=67 velocity=0 time=55', 'note_on channel=0 note=69 velocity=69 time=4', 'note_on channel=0 note=81 velocity=0 time=44')
Note: ('note_on channel=0 note=67 velocity=75 time=6', 'note_on channel=0 note=67 velocity=0 time=55', 'note_on channel=0 note=69 velocity=69 time=4', 'note_on channel=0 note=81 velocity=0 time=44', 'note_on channel=0 note=67 velocity=64 time=8')
Note: ('note_on channel=0 note=67 velocity=0 time=55', 'note_on channel=0 note=69 velocity=69 time=4', 'note_on channel=0 note=81 velocity=0 time=44', 'note_on channel=0 note=67 velocity=64 time=8', 'note_on channel=0 note=69 velocity=0 time=4')
Note: ('note_on channel=0 note=69 velocity=69 time=4', 'note_on channel=0 note=81 velocity=0 time=44', 'note_on channel=0 note=67 velocity=64 time=8', 'note_on channel=0 note=69 velocity=0 time=4', 'note_on channel=0 note=69 velocity=63 time=46')
Note: ('note_on channel=0 note=81 velocity=0 time=44', 'note_on channel=0 note=67 velocity=64 time=8', 'note_on channel=0 note=69 velocity=0 time=4', 'note_on channel=0 note=69 velocity=63 time=46', 'note_on channel=0 note=67 velocity=0 time=4')
Note: ('note_on channel=0 note=67 velocity=64 time=8', 'note_on channel=0 note=69 velocity=0 time=4', 'note_on channel=0 note=69 velocity=63 time=46', 'note_on channel=0 note=67 velocity=0 time=4', 'note_on channel=0 note=67 velocity=63 time=52')
Note: ('note_on channel=0 note=69 velocity=0 time=4', 'note_on channel=0 note=69 velocity=63 time=46', 'note_on channel=0 note=67 velocity=0 time=4', 'note_on channel=0 note=67 velocity=63 time=52', 'note_on channel=0 note=69 velocity=0 time=11')
Note: ('note_on channel=0 note=69 velocity=63 time=46', 'note_on channel=0 note=67 velocity=0 time=4', 'note_on channel=0 note=67 velocity=63 time=52', 'note_on channel=0 note=69 velocity=0 time=11', 'note_on channel=0 note=79 velocity=63 time=112')
Note: ('note_on channel=0 note=67 velocity=0 time=4', 'note_on channel=0 note=67 velocity=63 time=52', 'note_on channel=0 note=69 velocity=0 time=11', 'note_on channel=0 note=79 velocity=63 time=112', 'note_on channel=0 note=82 velocity=73 time=2')
Note: ('note_on channel=0 note=67 velocity=63 time=52', 'note_on channel=0 note=69 velocity=0 time=11', 'note_on channel=0 note=79 velocity=63 time=112', 'note_on channel=0 note=82 velocity=73 time=2', 'note_on channel=0 note=84 velocity=0 time=10')
Note: ('note_on channel=0 note=69 velocity=0 time=11', 'note_on channel=0 note=79 velocity=63 time=112', 'note_on channel=0 note=82 velocity=73 time=2', 'note_on channel=0 note=84 velocity=0 time=10', 'note_on channel=0 note=67 velocity=0 time=0')
Note: ('note_on channel=0 note=79 velocity=63 time=112', 'note_on channel=0 note=82 velocity=73 time=2', 'note_on channel=0 note=84 velocity=0 time=10', 'note_on channel=0 note=67 velocity=0 time=0', 'note_on channel=0 note=79 velocity=0 time=15')
Note: ('note_on channel=0 note=82 velocity=73 time=2', 'note_on channel=0 note=84 velocity=0 time=10', 'note_on channel=0 note=67 velocity=0 time=0', 'note_on channel=0 note=79 velocity=0 time=15', 'note_on channel=0 note=82 velocity=0 time=29')
Note: ('note_on channel=0 note=84 velocity=0 time=10', 'note_on channel=0 note=67 velocity=0 time=0', 'note_on channel=0 note=79 velocity=0 time=15', 'note_on channel=0 note=82 velocity=0 time=29', 'note_on channel=0 note=72 velocity=91 time=210')
Note: ('note_on channel=0 note=67 velocity=0 time=0', 'note_on channel=0 note=79 velocity=0 time=15', 'note_on channel=0 note=82 velocity=0 time=29', 'note_on channel=0 note=72 velocity=91 time=210', 'note_on channel=0 note=75 velocity=76 time=4')
Note: ('note_on channel=0 note=79 velocity=0 time=15', 'note_on channel=0 note=82 velocity=0 time=29', 'note_on channel=0 note=72 velocity=91 time=210', 'note_on channel=0 note=75 velocity=76 time=4', 'note_on channel=0 note=81 velocity=74 time=3')
Note: ('note_on channel=0 note=82 velocity=0 time=29', 'note_on channel=0 note=72 velocity=91 time=210', 'note_on channel=0 note=75 velocity=76 time=4', 'note_on channel=0 note=81 velocity=74 time=3', 'note_on channel=0 note=78 velocity=70 time=1')
Note: ('note_on channel=0 note=72 velocity=91 time=210', 'note_on channel=0 note=75 velocity=76 time=4', 'note_on channel=0 note=81 velocity=74 time=3', 'note_on channel=0 note=78 velocity=70 time=1', 'note_on channel=0 note=72 velocity=0 time=19')
Note: ('note_on channel=0 note=75 velocity=76 time=4', 'note_on channel=0 note=81 velocity=74 time=3', 'note_on channel=0 note=78 velocity=70 time=1', 'note_on channel=0 note=72 velocity=0 time=19', 'note_on channel=0 note=70 velocity=88 time=53')
Note: ('note_on channel=0 note=81 velocity=74 time=3', 'note_on channel=0 note=78 velocity=70 time=1', 'note_on channel=0 note=72 velocity=0 time=19', 'note_on channel=0 note=70 velocity=88 time=53', 'note_on channel=0 note=81 velocity=0 time=4')
Note: ('note_on channel=0 note=78 velocity=70 time=1', 'note_on channel=0 note=72 velocity=0 time=19', 'note_on channel=0 note=70 velocity=88 time=53', 'note_on channel=0 note=81 velocity=0 time=4', 'note_on channel=0 note=78 velocity=0 time=13')
Note: ('note_on channel=0 note=72 velocity=0 time=19', 'note_on channel=0 note=70 velocity=88 time=53', 'note_on channel=0 note=81 velocity=0 time=4', 'note_on channel=0 note=78 velocity=0 time=13', 'note_on channel=0 note=75 velocity=0 time=8')
Note: ('note_on channel=0 note=70 velocity=88 time=53', 'note_on channel=0 note=81 velocity=0 time=4', 'note_on channel=0 note=78 velocity=0 time=13', 'note_on channel=0 note=75 velocity=0 time=8', 'note_on channel=0 note=70 velocity=0 time=30')
Note: ('note_on channel=0 note=81 velocity=0 time=4', 'note_on channel=0 note=78 velocity=0 time=13', 'note_on channel=0 note=75 velocity=0 time=8', 'note_on channel=0 note=70 velocity=0 time=30', 'note_on channel=0 note=69 velocity=87 time=53')
Note: ('note_on channel=0 note=78 velocity=0 time=13', 'note_on channel=0 note=75 velocity=0 time=8', 'note_on channel=0 note=70 velocity=0 time=30', 'note_on channel=0 note=69 velocity=87 time=53', 'note_on channel=0 note=69 velocity=0 time=46')
Note: ('note_on channel=0 note=75 velocity=0 time=8', 'note_on channel=0 note=70 velocity=0 time=30', 'note_on channel=0 note=69 velocity=87 time=53', 'note_on channel=0 note=69 velocity=0 time=46', 'note_on channel=0 note=70 velocity=93 time=65')
Note: ('note_on channel=0 note=70 velocity=0 time=30', 'note_on channel=0 note=69 velocity=87 time=53', 'note_on channel=0 note=69 velocity=0 time=46', 'note_on channel=0 note=70 velocity=93 time=65', 'note_on channel=0 note=74 velocity=73 time=1')
Note: ('note_on channel=0 note=69 velocity=87 time=53', 'note_on channel=0 note=69 velocity=0 time=46', 'note_on channel=0 note=70 velocity=93 time=65', 'note_on channel=0 note=74 velocity=73 time=1', 'note_on channel=0 note=79 velocity=69 time=5')
Note: ('note_on channel=0 note=69 velocity=0 time=46', 'note_on channel=0 note=70 velocity=93 time=65', 'note_on channel=0 note=74 velocity=73 time=1', 'note_on channel=0 note=79 velocity=69 time=5', 'note_on channel=0 note=82 velocity=82 time=1')
Note: ('note_on channel=0 note=70 velocity=93 time=65', 'note_on channel=0 note=74 velocity=73 time=1', 'note_on channel=0 note=79 velocity=69 time=5', 'note_on channel=0 note=82 velocity=82 time=1', 'note_on channel=0 note=74 velocity=0 time=32')
Note: ('note_on channel=0 note=74 velocity=73 time=1', 'note_on channel=0 note=79 velocity=69 time=5', 'note_on channel=0 note=82 velocity=82 time=1', 'note_on channel=0 note=74 velocity=0 time=32', 'note_on channel=0 note=70 velocity=0 time=16')
Note: ('note_on channel=0 note=79 velocity=69 time=5', 'note_on channel=0 note=82 velocity=82 time=1', 'note_on channel=0 note=74 velocity=0 time=32', 'note_on channel=0 note=70 velocity=0 time=16', 'note_on channel=0 note=79 velocity=0 time=8')
Note: ('note_on channel=0 note=82 velocity=82 time=1', 'note_on channel=0 note=74 velocity=0 time=32', 'note_on channel=0 note=70 velocity=0 time=16', 'note_on channel=0 note=79 velocity=0 time=8', 'note_on channel=0 note=82 velocity=0 time=3')
Note: ('note_on channel=0 note=74 velocity=0 time=32', 'note_on channel=0 note=70 velocity=0 time=16', 'note_on channel=0 note=79 velocity=0 time=8', 'note_on channel=0 note=82 velocity=0 time=3', 'note_on channel=0 note=69 velocity=87 time=47')
Note: ('note_on channel=0 note=70 velocity=0 time=16', 'note_on channel=0 note=79 velocity=0 time=8', 'note_on channel=0 note=82 velocity=0 time=3', 'note_on channel=0 note=69 velocity=87 time=47', 'note_on channel=0 note=69 velocity=0 time=14')
Note: ('note_on channel=0 note=79 velocity=0 time=8', 'note_on channel=0 note=82 velocity=0 time=3', 'note_on channel=0 note=69 velocity=87 time=47', 'note_on channel=0 note=69 velocity=0 time=14', 'note_on channel=0 note=67 velocity=89 time=52')
Note: ('note_on channel=0 note=82 velocity=0 time=3', 'note_on channel=0 note=69 velocity=87 time=47', 'note_on channel=0 note=69 velocity=0 time=14', 'note_on channel=0 note=67 velocity=89 time=52', 'note_on channel=0 note=67 velocity=0 time=46')
Note: ('note_on channel=0 note=69 velocity=87 time=47', 'note_on channel=0 note=69 velocity=0 time=14', 'note_on channel=0 note=67 velocity=89 time=52', 'note_on channel=0 note=67 velocity=0 time=46', 'note_on channel=0 note=69 velocity=78 time=87')
Note: ('note_on channel=0 note=69 velocity=0 time=14', 'note_on channel=0 note=67 velocity=89 time=52', 'note_on channel=0 note=67 velocity=0 time=46', 'note_on channel=0 note=69 velocity=78 time=87', 'note_on channel=0 note=86 velocity=86 time=4')
Note: ('note_on channel=0 note=67 velocity=89 time=52', 'note_on channel=0 note=67 velocity=0 time=46', 'note_on channel=0 note=69 velocity=78 time=87', 'note_on channel=0 note=86 velocity=86 time=4', 'note_on channel=0 note=83 velocity=81 time=1')
Note: ('note_on channel=0 note=67 velocity=0 time=46', 'note_on channel=0 note=69 velocity=78 time=87', 'note_on channel=0 note=86 velocity=86 time=4', 'note_on channel=0 note=83 velocity=81 time=1', 'note_on channel=0 note=67 velocity=76 time=30')
Note: ('note_on channel=0 note=69 velocity=78 time=87', 'note_on channel=0 note=86 velocity=86 time=4', 'note_on channel=0 note=83 velocity=81 time=1', 'note_on channel=0 note=67 velocity=76 time=30', 'note_on channel=0 note=69 velocity=0 time=1')
Note: ('note_on channel=0 note=86 velocity=86 time=4', 'note_on channel=0 note=83 velocity=81 time=1', 'note_on channel=0 note=67 velocity=76 time=30', 'note_on channel=0 note=69 velocity=0 time=1', 'note_on channel=0 note=67 velocity=0 time=44')
Note: ('note_on channel=0 note=83 velocity=81 time=1', 'note_on channel=0 note=67 velocity=76 time=30', 'note_on channel=0 note=69 velocity=0 time=1', 'note_on channel=0 note=67 velocity=0 time=44', 'note_on channel=0 note=69 velocity=63 time=10')
Note: ('note_on channel=0 note=67 velocity=76 time=30', 'note_on channel=0 note=69 velocity=0 time=1', 'note_on channel=0 note=67 velocity=0 time=44', 'note_on channel=0 note=69 velocity=63 time=10', 'note_on channel=0 note=86 velocity=0 time=43')
Note: ('note_on channel=0 note=69 velocity=0 time=1', 'note_on channel=0 note=67 velocity=0 time=44', 'note_on channel=0 note=69 velocity=63 time=10', 'note_on channel=0 note=86 velocity=0 time=43', 'note_on channel=0 note=67 velocity=71 time=12')
Note: ('note_on channel=0 note=67 velocity=0 time=44', 'note_on channel=0 note=69 velocity=63 time=10', 'note_on channel=0 note=86 velocity=0 time=43', 'note_on channel=0 note=67 velocity=71 time=12', 'note_on channel=0 note=69 velocity=0 time=4')
Note: ('note_on channel=0 note=69 velocity=63 time=10', 'note_on channel=0 note=86 velocity=0 time=43', 'note_on channel=0 note=67 velocity=71 time=12', 'note_on channel=0 note=69 velocity=0 time=4', 'note_on channel=0 note=69 velocity=64 time=23')
Note: ('note_on channel=0 note=86 velocity=0 time=43', 'note_on channel=0 note=67 velocity=71 time=12', 'note_on channel=0 note=69 velocity=0 time=4', 'note_on channel=0 note=69 velocity=64 time=23', 'note_on channel=0 note=67 velocity=0 time=3')
Note: ('note_on channel=0 note=67 velocity=71 time=12', 'note_on channel=0 note=69 velocity=0 time=4', 'note_on channel=0 note=69 velocity=64 time=23', 'note_on channel=0 note=67 velocity=0 time=3', 'note_on channel=0 note=67 velocity=66 time=59')
Note: ('note_on channel=0 note=69 velocity=0 time=4', 'note_on channel=0 note=69 velocity=64 time=23', 'note_on channel=0 note=67 velocity=0 time=3', 'note_on channel=0 note=67 velocity=66 time=59', 'note_on channel=0 note=69 velocity=0 time=7')
Note: ('note_on channel=0 note=69 velocity=64 time=23', 'note_on channel=0 note=67 velocity=0 time=3', 'note_on channel=0 note=67 velocity=66 time=59', 'note_on channel=0 note=69 velocity=0 time=7', 'note_on channel=0 note=84 velocity=74 time=39')
Note: ('note_on channel=0 note=67 velocity=0 time=3', 'note_on channel=0 note=67 velocity=66 time=59', 'note_on channel=0 note=69 velocity=0 time=7', 'note_on channel=0 note=84 velocity=74 time=39', 'note_on channel=0 note=81 velocity=70 time=10')
Note: ('note_on channel=0 note=67 velocity=66 time=59', 'note_on channel=0 note=69 velocity=0 time=7', 'note_on channel=0 note=84 velocity=74 time=39', 'note_on channel=0 note=81 velocity=70 time=10', 'note_on channel=0 note=83 velocity=0 time=9')
Note: ('note_on channel=0 note=69 velocity=0 time=7', 'note_on channel=0 note=84 velocity=74 time=39', 'note_on channel=0 note=81 velocity=70 time=10', 'note_on channel=0 note=83 velocity=0 time=9', 'note_on channel=0 note=67 velocity=0 time=8')
Note: ('note_on channel=0 note=84 velocity=74 time=39', 'note_on channel=0 note=81 velocity=70 time=10', 'note_on channel=0 note=83 velocity=0 time=9', 'note_on channel=0 note=67 velocity=0 time=8', 'note_on channel=0 note=81 velocity=0 time=22')
Note: ('note_on channel=0 note=81 velocity=70 time=10', 'note_on channel=0 note=83 velocity=0 time=9', 'note_on channel=0 note=67 velocity=0 time=8', 'note_on channel=0 note=81 velocity=0 time=22', 'note_on channel=0 note=74 velocity=87 time=244')
Note: ('note_on channel=0 note=83 velocity=0 time=9', 'note_on channel=0 note=67 velocity=0 time=8', 'note_on channel=0 note=81 velocity=0 time=22', 'note_on channel=0 note=74 velocity=87 time=244', 'note_on channel=0 note=80 velocity=70 time=1')
Note: ('note_on channel=0 note=67 velocity=0 time=8', 'note_on channel=0 note=81 velocity=0 time=22', 'note_on channel=0 note=74 velocity=87 time=244', 'note_on channel=0 note=80 velocity=70 time=1', 'note_on channel=0 note=77 velocity=75 time=2')
Note: ('note_on channel=0 note=81 velocity=0 time=22', 'note_on channel=0 note=74 velocity=87 time=244', 'note_on channel=0 note=80 velocity=70 time=1', 'note_on channel=0 note=77 velocity=75 time=2', 'note_on channel=0 note=83 velocity=75 time=2')
Note: ('note_on channel=0 note=74 velocity=87 time=244', 'note_on channel=0 note=80 velocity=70 time=1', 'note_on channel=0 note=77 velocity=75 time=2', 'note_on channel=0 note=83 velocity=75 time=2', 'note_on channel=0 note=74 velocity=0 time=17')
Note: ('note_on channel=0 note=80 velocity=70 time=1', 'note_on channel=0 note=77 velocity=75 time=2', 'note_on channel=0 note=83 velocity=75 time=2', 'note_on channel=0 note=74 velocity=0 time=17', 'note_on channel=0 note=84 velocity=0 time=25')
Note: ('note_on channel=0 note=77 velocity=75 time=2', 'note_on channel=0 note=83 velocity=75 time=2', 'note_on channel=0 note=74 velocity=0 time=17', 'note_on channel=0 note=84 velocity=0 time=25', 'note_on channel=0 note=77 velocity=0 time=7')
Note: ('note_on channel=0 note=83 velocity=75 time=2', 'note_on channel=0 note=74 velocity=0 time=17', 'note_on channel=0 note=84 velocity=0 time=25', 'note_on channel=0 note=77 velocity=0 time=7', 'note_on channel=0 note=83 velocity=0 time=11')
Note: ('note_on channel=0 note=74 velocity=0 time=17', 'note_on channel=0 note=84 velocity=0 time=25', 'note_on channel=0 note=77 velocity=0 time=7', 'note_on channel=0 note=83 velocity=0 time=11', 'note_on channel=0 note=72 velocity=91 time=17')
Note: ('note_on channel=0 note=84 velocity=0 time=25', 'note_on channel=0 note=77 velocity=0 time=7', 'note_on channel=0 note=83 velocity=0 time=11', 'note_on channel=0 note=72 velocity=91 time=17', 'note_on channel=0 note=80 velocity=0 time=1')
Note: ('note_on channel=0 note=77 velocity=0 time=7', 'note_on channel=0 note=83 velocity=0 time=11', 'note_on channel=0 note=72 velocity=91 time=17', 'note_on channel=0 note=80 velocity=0 time=1', 'note_on channel=0 note=72 velocity=0 time=52')
Note: ('note_on channel=0 note=83 velocity=0 time=11', 'note_on channel=0 note=72 velocity=91 time=17', 'note_on channel=0 note=80 velocity=0 time=1', 'note_on channel=0 note=72 velocity=0 time=52', 'note_on channel=0 note=71 velocity=87 time=53')
Note: ('note_on channel=0 note=72 velocity=91 time=17', 'note_on channel=0 note=80 velocity=0 time=1', 'note_on channel=0 note=72 velocity=0 time=52', 'note_on channel=0 note=71 velocity=87 time=53', 'note_on channel=0 note=71 velocity=0 time=52')
Note: ('note_on channel=0 note=80 velocity=0 time=1', 'note_on channel=0 note=72 velocity=0 time=52', 'note_on channel=0 note=71 velocity=87 time=53', 'note_on channel=0 note=71 velocity=0 time=52', 'note_on channel=0 note=84 velocity=83 time=63')
Note: ('note_on channel=0 note=72 velocity=0 time=52', 'note_on channel=0 note=71 velocity=87 time=53', 'note_on channel=0 note=71 velocity=0 time=52', 'note_on channel=0 note=84 velocity=83 time=63', 'note_on channel=0 note=76 velocity=73 time=1')
Note: ('note_on channel=0 note=71 velocity=87 time=53', 'note_on channel=0 note=71 velocity=0 time=52', 'note_on channel=0 note=84 velocity=83 time=63', 'note_on channel=0 note=76 velocity=73 time=1', 'note_on channel=0 note=81 velocity=73 time=1')
Note: ('note_on channel=0 note=71 velocity=0 time=52', 'note_on channel=0 note=84 velocity=83 time=63', 'note_on channel=0 note=76 velocity=73 time=1', 'note_on channel=0 note=81 velocity=73 time=1', 'note_on channel=0 note=72 velocity=95 time=3')
Note: ('note_on channel=0 note=84 velocity=83 time=63', 'note_on channel=0 note=76 velocity=73 time=1', 'note_on channel=0 note=81 velocity=73 time=1', 'note_on channel=0 note=72 velocity=95 time=3', 'note_on channel=0 note=76 velocity=0 time=51')
Note: ('note_on channel=0 note=76 velocity=73 time=1', 'note_on channel=0 note=81 velocity=73 time=1', 'note_on channel=0 note=72 velocity=95 time=3', 'note_on channel=0 note=76 velocity=0 time=51', 'note_on channel=0 note=72 velocity=0 time=3')
Note: ('note_on channel=0 note=81 velocity=73 time=1', 'note_on channel=0 note=72 velocity=95 time=3', 'note_on channel=0 note=76 velocity=0 time=51', 'note_on channel=0 note=72 velocity=0 time=3', 'note_on channel=0 note=84 velocity=0 time=12')
Note: ('note_on channel=0 note=72 velocity=95 time=3', 'note_on channel=0 note=76 velocity=0 time=51', 'note_on channel=0 note=72 velocity=0 time=3', 'note_on channel=0 note=84 velocity=0 time=12', 'note_on channel=0 note=81 velocity=0 time=7')
Note: ('note_on channel=0 note=76 velocity=0 time=51', 'note_on channel=0 note=72 velocity=0 time=3', 'note_on channel=0 note=84 velocity=0 time=12', 'note_on channel=0 note=81 velocity=0 time=7', 'note_on channel=0 note=71 velocity=85 time=38')
Note: ('note_on channel=0 note=72 velocity=0 time=3', 'note_on channel=0 note=84 velocity=0 time=12', 'note_on channel=0 note=81 velocity=0 time=7', 'note_on channel=0 note=71 velocity=85 time=38', 'note_on channel=0 note=71 velocity=0 time=65')
Note: ('note_on channel=0 note=84 velocity=0 time=12', 'note_on channel=0 note=81 velocity=0 time=7', 'note_on channel=0 note=71 velocity=85 time=38', 'note_on channel=0 note=71 velocity=0 time=65', 'note_on channel=0 note=69 velocity=82 time=14')
Note: ('note_on channel=0 note=81 velocity=0 time=7', 'note_on channel=0 note=71 velocity=85 time=38', 'note_on channel=0 note=71 velocity=0 time=65', 'note_on channel=0 note=69 velocity=82 time=14', 'note_on channel=0 note=69 velocity=0 time=42')
Note: ('note_on channel=0 note=71 velocity=85 time=38', 'note_on channel=0 note=71 velocity=0 time=65', 'note_on channel=0 note=69 velocity=82 time=14', 'note_on channel=0 note=69 velocity=0 time=42', 'note_on channel=0 note=71 velocity=76 time=102')
Note: ('note_on channel=0 note=71 velocity=0 time=65', 'note_on channel=0 note=69 velocity=82 time=14', 'note_on channel=0 note=69 velocity=0 time=42', 'note_on channel=0 note=71 velocity=76 time=102', 'note_on channel=0 note=86 velocity=84 time=0')
Note: ('note_on channel=0 note=69 velocity=82 time=14', 'note_on channel=0 note=69 velocity=0 time=42', 'note_on channel=0 note=71 velocity=76 time=102', 'note_on channel=0 note=86 velocity=84 time=0', 'note_on channel=0 note=83 velocity=80 time=4')
Note: ('note_on channel=0 note=69 velocity=0 time=42', 'note_on channel=0 note=71 velocity=76 time=102', 'note_on channel=0 note=86 velocity=84 time=0', 'note_on channel=0 note=83 velocity=80 time=4', 'note_on channel=0 note=69 velocity=76 time=42')
Note: ('note_on channel=0 note=71 velocity=76 time=102', 'note_on channel=0 note=86 velocity=84 time=0', 'note_on channel=0 note=83 velocity=80 time=4', 'note_on channel=0 note=69 velocity=76 time=42', 'note_on channel=0 note=71 velocity=0 time=1')
Note: ('note_on channel=0 note=86 velocity=84 time=0', 'note_on channel=0 note=83 velocity=80 time=4', 'note_on channel=0 note=69 velocity=76 time=42', 'note_on channel=0 note=71 velocity=0 time=1', 'note_on channel=0 note=69 velocity=0 time=48')
Note: ('note_on channel=0 note=83 velocity=80 time=4', 'note_on channel=0 note=69 velocity=76 time=42', 'note_on channel=0 note=71 velocity=0 time=1', 'note_on channel=0 note=69 velocity=0 time=48', 'note_on channel=0 note=71 velocity=66 time=7')
Note: ('note_on channel=0 note=69 velocity=76 time=42', 'note_on channel=0 note=71 velocity=0 time=1', 'note_on channel=0 note=69 velocity=0 time=48', 'note_on channel=0 note=71 velocity=66 time=7', 'note_on channel=0 note=69 velocity=70 time=50')
Note: ('note_on channel=0 note=71 velocity=0 time=1', 'note_on channel=0 note=69 velocity=0 time=48', 'note_on channel=0 note=71 velocity=66 time=7', 'note_on channel=0 note=69 velocity=70 time=50', 'note_on channel=0 note=86 velocity=0 time=4')
Note: ('note_on channel=0 note=69 velocity=0 time=48', 'note_on channel=0 note=71 velocity=66 time=7', 'note_on channel=0 note=69 velocity=70 time=50', 'note_on channel=0 note=86 velocity=0 time=4', 'note_on channel=0 note=71 velocity=0 time=3')
Note: ('note_on channel=0 note=71 velocity=66 time=7', 'note_on channel=0 note=69 velocity=70 time=50', 'note_on channel=0 note=86 velocity=0 time=4', 'note_on channel=0 note=71 velocity=0 time=3', 'note_on channel=0 note=69 velocity=0 time=49')
Note: ('note_on channel=0 note=69 velocity=70 time=50', 'note_on channel=0 note=86 velocity=0 time=4', 'note_on channel=0 note=71 velocity=0 time=3', 'note_on channel=0 note=69 velocity=0 time=49', 'note_on channel=0 note=71 velocity=62 time=2')
Note: ('note_on channel=0 note=86 velocity=0 time=4', 'note_on channel=0 note=71 velocity=0 time=3', 'note_on channel=0 note=69 velocity=0 time=49', 'note_on channel=0 note=71 velocity=62 time=2', 'note_on channel=0 note=69 velocity=63 time=48')
Note: ('note_on channel=0 note=71 velocity=0 time=3', 'note_on channel=0 note=69 velocity=0 time=49', 'note_on channel=0 note=71 velocity=62 time=2', 'note_on channel=0 note=69 velocity=63 time=48', 'note_on channel=0 note=71 velocity=0 time=14')
Note: ('note_on channel=0 note=69 velocity=0 time=49', 'note_on channel=0 note=71 velocity=62 time=2', 'note_on channel=0 note=69 velocity=63 time=48', 'note_on channel=0 note=71 velocity=0 time=14', 'note_on channel=0 note=83 velocity=0 time=102')
Note: ('note_on channel=0 note=71 velocity=62 time=2', 'note_on channel=0 note=69 velocity=63 time=48', 'note_on channel=0 note=71 velocity=0 time=14', 'note_on channel=0 note=83 velocity=0 time=102', 'note_on channel=0 note=84 velocity=72 time=1')
Note: ('note_on channel=0 note=69 velocity=63 time=48', 'note_on channel=0 note=71 velocity=0 time=14', 'note_on channel=0 note=83 velocity=0 time=102', 'note_on channel=0 note=84 velocity=72 time=1', 'note_on channel=0 note=81 velocity=71 time=2')
Note: ('note_on channel=0 note=71 velocity=0 time=14', 'note_on channel=0 note=83 velocity=0 time=102', 'note_on channel=0 note=84 velocity=72 time=1', 'note_on channel=0 note=81 velocity=71 time=2', 'note_on channel=0 note=69 velocity=0 time=14')
Note: ('note_on channel=0 note=83 velocity=0 time=102', 'note_on channel=0 note=84 velocity=72 time=1', 'note_on channel=0 note=81 velocity=71 time=2', 'note_on channel=0 note=69 velocity=0 time=14', 'note_on channel=0 note=81 velocity=0 time=11')
Note: ('note_on channel=0 note=84 velocity=72 time=1', 'note_on channel=0 note=81 velocity=71 time=2', 'note_on channel=0 note=69 velocity=0 time=14', 'note_on channel=0 note=81 velocity=0 time=11', 'note_on channel=0 note=74 velocity=78 time=2')
Note: ('note_on channel=0 note=81 velocity=71 time=2', 'note_on channel=0 note=69 velocity=0 time=14', 'note_on channel=0 note=81 velocity=0 time=11', 'note_on channel=0 note=74 velocity=78 time=2', 'note_on channel=0 note=80 velocity=62 time=0')
Note: ('note_on channel=0 note=69 velocity=0 time=14', 'note_on channel=0 note=81 velocity=0 time=11', 'note_on channel=0 note=74 velocity=78 time=2', 'note_on channel=0 note=80 velocity=62 time=0', 'note_on channel=0 note=83 velocity=65 time=2')
Note: ('note_on channel=0 note=81 velocity=0 time=11', 'note_on channel=0 note=74 velocity=78 time=2', 'note_on channel=0 note=80 velocity=62 time=0', 'note_on channel=0 note=83 velocity=65 time=2', 'note_on channel=0 note=77 velocity=63 time=1')
Note: ('note_on channel=0 note=74 velocity=78 time=2', 'note_on channel=0 note=80 velocity=62 time=0', 'note_on channel=0 note=83 velocity=65 time=2', 'note_on channel=0 note=77 velocity=63 time=1', 'note_on channel=0 note=74 velocity=0 time=0')
Note: ('note_on channel=0 note=80 velocity=62 time=0', 'note_on channel=0 note=83 velocity=65 time=2', 'note_on channel=0 note=77 velocity=63 time=1', 'note_on channel=0 note=74 velocity=0 time=0', 'note_on channel=0 note=84 velocity=0 time=6')
Note: ('note_on channel=0 note=83 velocity=65 time=2', 'note_on channel=0 note=77 velocity=63 time=1', 'note_on channel=0 note=74 velocity=0 time=0', 'note_on channel=0 note=84 velocity=0 time=6', 'note_on channel=0 note=77 velocity=0 time=1')
Note: ('note_on channel=0 note=77 velocity=63 time=1', 'note_on channel=0 note=74 velocity=0 time=0', 'note_on channel=0 note=84 velocity=0 time=6', 'note_on channel=0 note=77 velocity=0 time=1', 'note_on channel=0 note=83 velocity=0 time=2')
Note: ('note_on channel=0 note=74 velocity=0 time=0', 'note_on channel=0 note=84 velocity=0 time=6', 'note_on channel=0 note=77 velocity=0 time=1', 'note_on channel=0 note=83 velocity=0 time=2', 'note_on channel=0 note=80 velocity=0 time=3')
Note: ('note_on channel=0 note=84 velocity=0 time=6', 'note_on channel=0 note=77 velocity=0 time=1', 'note_on channel=0 note=83 velocity=0 time=2', 'note_on channel=0 note=80 velocity=0 time=3', 'note_on channel=0 note=72 velocity=73 time=10')
Note: ('note_on channel=0 note=77 velocity=0 time=1', 'note_on channel=0 note=83 velocity=0 time=2', 'note_on channel=0 note=80 velocity=0 time=3', 'note_on channel=0 note=72 velocity=73 time=10', 'note_on channel=0 note=72 velocity=0 time=1')
Note: ('note_on channel=0 note=83 velocity=0 time=2', 'note_on channel=0 note=80 velocity=0 time=3', 'note_on channel=0 note=72 velocity=73 time=10', 'note_on channel=0 note=72 velocity=0 time=1', 'note_on channel=0 note=71 velocity=78 time=15')
Note: ('note_on channel=0 note=80 velocity=0 time=3', 'note_on channel=0 note=72 velocity=73 time=10', 'note_on channel=0 note=72 velocity=0 time=1', 'note_on channel=0 note=71 velocity=78 time=15', 'note_on channel=0 note=71 velocity=0 time=13')
Note: ('note_on channel=0 note=72 velocity=73 time=10', 'note_on channel=0 note=72 velocity=0 time=1', 'note_on channel=0 note=71 velocity=78 time=15', 'note_on channel=0 note=71 velocity=0 time=13', 'note_on channel=0 note=84 velocity=76 time=5')
Note: ('note_on channel=0 note=72 velocity=0 time=1', 'note_on channel=0 note=71 velocity=78 time=15', 'note_on channel=0 note=71 velocity=0 time=13', 'note_on channel=0 note=84 velocity=76 time=5', 'note_on channel=0 note=72 velocity=81 time=2')
Note: ('note_on channel=0 note=71 velocity=78 time=15', 'note_on channel=0 note=71 velocity=0 time=13', 'note_on channel=0 note=84 velocity=76 time=5', 'note_on channel=0 note=72 velocity=81 time=2', 'note_on channel=0 note=76 velocity=72 time=1')
Note: ('note_on channel=0 note=71 velocity=0 time=13', 'note_on channel=0 note=84 velocity=76 time=5', 'note_on channel=0 note=72 velocity=81 time=2', 'note_on channel=0 note=76 velocity=72 time=1', 'note_on channel=0 note=81 velocity=69 time=0')
Note: ('note_on channel=0 note=84 velocity=76 time=5', 'note_on channel=0 note=72 velocity=81 time=2', 'note_on channel=0 note=76 velocity=72 time=1', 'note_on channel=0 note=81 velocity=69 time=0', 'note_on channel=0 note=76 velocity=0 time=3')
Note: ('note_on channel=0 note=72 velocity=81 time=2', 'note_on channel=0 note=76 velocity=72 time=1', 'note_on channel=0 note=81 velocity=69 time=0', 'note_on channel=0 note=76 velocity=0 time=3', 'note_on channel=0 note=84 velocity=0 time=13')
Note: ('note_on channel=0 note=76 velocity=72 time=1', 'note_on channel=0 note=81 velocity=69 time=0', 'note_on channel=0 note=76 velocity=0 time=3', 'note_on channel=0 note=84 velocity=0 time=13', 'note_on channel=0 note=72 velocity=0 time=3')
Note: ('note_on channel=0 note=81 velocity=69 time=0', 'note_on channel=0 note=76 velocity=0 time=3', 'note_on channel=0 note=84 velocity=0 time=13', 'note_on channel=0 note=72 velocity=0 time=3', 'note_on channel=0 note=81 velocity=0 time=6')
Note: ('note_on channel=0 note=76 velocity=0 time=3', 'note_on channel=0 note=84 velocity=0 time=13', 'note_on channel=0 note=72 velocity=0 time=3', 'note_on channel=0 note=81 velocity=0 time=6', 'note_on channel=0 note=71 velocity=76 time=5')
Note: ('note_on channel=0 note=84 velocity=0 time=13', 'note_on channel=0 note=72 velocity=0 time=3', 'note_on channel=0 note=81 velocity=0 time=6', 'note_on channel=0 note=71 velocity=76 time=5', 'note_on channel=0 note=69 velocity=68 time=86')
Note: ('note_on channel=0 note=72 velocity=0 time=3', 'note_on channel=0 note=81 velocity=0 time=6', 'note_on channel=0 note=71 velocity=76 time=5', 'note_on channel=0 note=69 velocity=68 time=86', 'note_on channel=0 note=71 velocity=0 time=2')
Note: ('note_on channel=0 note=81 velocity=0 time=6', 'note_on channel=0 note=71 velocity=76 time=5', 'note_on channel=0 note=69 velocity=68 time=86', 'note_on channel=0 note=71 velocity=0 time=2', 'note_on channel=0 note=69 velocity=0 time=26')
Note: ('note_on channel=0 note=71 velocity=76 time=5', 'note_on channel=0 note=69 velocity=68 time=86', 'note_on channel=0 note=71 velocity=0 time=2', 'note_on channel=0 note=69 velocity=0 time=26', 'note_on channel=0 note=71 velocity=72 time=42')
Note: ('note_on channel=0 note=69 velocity=68 time=86', 'note_on channel=0 note=71 velocity=0 time=2', 'note_on channel=0 note=69 velocity=0 time=26', 'note_on channel=0 note=71 velocity=72 time=42', 'note_on channel=0 note=85 velocity=77 time=14')
Note: ('note_on channel=0 note=71 velocity=0 time=2', 'note_on channel=0 note=69 velocity=0 time=26', 'note_on channel=0 note=71 velocity=72 time=42', 'note_on channel=0 note=85 velocity=77 time=14', 'note_on channel=0 note=71 velocity=0 time=15')
Note: ('note_on channel=0 note=69 velocity=0 time=26', 'note_on channel=0 note=71 velocity=72 time=42', 'note_on channel=0 note=85 velocity=77 time=14', 'note_on channel=0 note=71 velocity=0 time=15', 'note_on channel=0 note=69 velocity=59 time=10')
Note: ('note_on channel=0 note=71 velocity=72 time=42', 'note_on channel=0 note=85 velocity=77 time=14', 'note_on channel=0 note=71 velocity=0 time=15', 'note_on channel=0 note=69 velocity=59 time=10', 'note_on channel=0 note=85 velocity=0 time=1')
Note: ('note_on channel=0 note=85 velocity=77 time=14', 'note_on channel=0 note=71 velocity=0 time=15', 'note_on channel=0 note=69 velocity=59 time=10', 'note_on channel=0 note=85 velocity=0 time=1', 'note_on channel=0 note=69 velocity=0 time=12')
Note: ('note_on channel=0 note=71 velocity=0 time=15', 'note_on channel=0 note=69 velocity=59 time=10', 'note_on channel=0 note=85 velocity=0 time=1', 'note_on channel=0 note=69 velocity=0 time=12', 'note_on channel=0 note=71 velocity=66 time=26')
Note: ('note_on channel=0 note=69 velocity=59 time=10', 'note_on channel=0 note=85 velocity=0 time=1', 'note_on channel=0 note=69 velocity=0 time=12', 'note_on channel=0 note=71 velocity=66 time=26', 'note_on channel=0 note=71 velocity=0 time=7')
Note: ('note_on channel=0 note=85 velocity=0 time=1', 'note_on channel=0 note=69 velocity=0 time=12', 'note_on channel=0 note=71 velocity=66 time=26', 'note_on channel=0 note=71 velocity=0 time=7', 'note_on channel=0 note=69 velocity=65 time=4')
Note: ('note_on channel=0 note=69 velocity=0 time=12', 'note_on channel=0 note=71 velocity=66 time=26', 'note_on channel=0 note=71 velocity=0 time=7', 'note_on channel=0 note=69 velocity=65 time=4', 'note_on channel=0 note=69 velocity=0 time=8')
Note: ('note_on channel=0 note=71 velocity=66 time=26', 'note_on channel=0 note=71 velocity=0 time=7', 'note_on channel=0 note=69 velocity=65 time=4', 'note_on channel=0 note=69 velocity=0 time=8', 'note_on channel=0 note=38 velocity=83 time=3')
Note: ('note_on channel=0 note=71 velocity=0 time=7', 'note_on channel=0 note=69 velocity=65 time=4', 'note_on channel=0 note=69 velocity=0 time=8', 'note_on channel=0 note=38 velocity=83 time=3', 'note_on channel=0 note=78 velocity=77 time=3')
Note: ('note_on channel=0 note=69 velocity=65 time=4', 'note_on channel=0 note=69 velocity=0 time=8', 'note_on channel=0 note=38 velocity=83 time=3', 'note_on channel=0 note=78 velocity=77 time=3', 'note_on channel=0 note=38 velocity=0 time=0')
Note: ('note_on channel=0 note=69 velocity=0 time=8', 'note_on channel=0 note=38 velocity=83 time=3', 'note_on channel=0 note=78 velocity=77 time=3', 'note_on channel=0 note=38 velocity=0 time=0', 'note_on channel=0 note=78 velocity=0 time=7')
Note: ('note_on channel=0 note=38 velocity=83 time=3', 'note_on channel=0 note=78 velocity=77 time=3', 'note_on channel=0 note=38 velocity=0 time=0', 'note_on channel=0 note=78 velocity=0 time=7', 'note_on channel=0 note=74 velocity=71 time=9')
Note: ('note_on channel=0 note=78 velocity=77 time=3', 'note_on channel=0 note=38 velocity=0 time=0', 'note_on channel=0 note=78 velocity=0 time=7', 'note_on channel=0 note=74 velocity=71 time=9', 'note_on channel=0 note=74 velocity=0 time=25')
Note: ('note_on channel=0 note=38 velocity=0 time=0', 'note_on channel=0 note=78 velocity=0 time=7', 'note_on channel=0 note=74 velocity=71 time=9', 'note_on channel=0 note=74 velocity=0 time=25', 'note_on channel=0 note=73 velocity=75 time=68')
Note: ('note_on channel=0 note=78 velocity=0 time=7', 'note_on channel=0 note=74 velocity=71 time=9', 'note_on channel=0 note=74 velocity=0 time=25', 'note_on channel=0 note=73 velocity=75 time=68', 'note_on channel=0 note=73 velocity=0 time=11')
Note: ('note_on channel=0 note=74 velocity=71 time=9', 'note_on channel=0 note=74 velocity=0 time=25', 'note_on channel=0 note=73 velocity=75 time=68', 'note_on channel=0 note=73 velocity=0 time=11', 'note_on channel=0 note=71 velocity=78 time=56')
Note: ('note_on channel=0 note=74 velocity=0 time=25', 'note_on channel=0 note=73 velocity=75 time=68', 'note_on channel=0 note=73 velocity=0 time=11', 'note_on channel=0 note=71 velocity=78 time=56', 'note_on channel=0 note=83 velocity=100 time=2')
Note: ('note_on channel=0 note=73 velocity=75 time=68', 'note_on channel=0 note=73 velocity=0 time=11', 'note_on channel=0 note=71 velocity=78 time=56', 'note_on channel=0 note=83 velocity=100 time=2', 'note_on channel=0 note=83 velocity=0 time=10')
Note: ('note_on channel=0 note=73 velocity=0 time=11', 'note_on channel=0 note=71 velocity=78 time=56', 'note_on channel=0 note=83 velocity=100 time=2', 'note_on channel=0 note=83 velocity=0 time=10', 'note_on channel=0 note=71 velocity=0 time=19')
Note: ('note_on channel=0 note=71 velocity=78 time=56', 'note_on channel=0 note=83 velocity=100 time=2', 'note_on channel=0 note=83 velocity=0 time=10', 'note_on channel=0 note=71 velocity=0 time=19', 'note_on channel=0 note=73 velocity=72 time=71')
Note: ('note_on channel=0 note=83 velocity=100 time=2', 'note_on channel=0 note=83 velocity=0 time=10', 'note_on channel=0 note=71 velocity=0 time=19', 'note_on channel=0 note=73 velocity=72 time=71', 'note_on channel=0 note=73 velocity=0 time=21')
Note: ('note_on channel=0 note=83 velocity=0 time=10', 'note_on channel=0 note=71 velocity=0 time=19', 'note_on channel=0 note=73 velocity=72 time=71', 'note_on channel=0 note=73 velocity=0 time=21', 'note_on channel=0 note=74 velocity=74 time=54')
Note: ('note_on channel=0 note=71 velocity=0 time=19', 'note_on channel=0 note=73 velocity=72 time=71', 'note_on channel=0 note=73 velocity=0 time=21', 'note_on channel=0 note=74 velocity=74 time=54', 'note_on channel=0 note=74 velocity=0 time=53')
Note: ('note_on channel=0 note=73 velocity=72 time=71', 'note_on channel=0 note=73 velocity=0 time=21', 'note_on channel=0 note=74 velocity=74 time=54', 'note_on channel=0 note=74 velocity=0 time=53', 'note_on channel=0 note=37 velocity=84 time=72')
Note: ('note_on channel=0 note=73 velocity=0 time=21', 'note_on channel=0 note=74 velocity=74 time=54', 'note_on channel=0 note=74 velocity=0 time=53', 'note_on channel=0 note=37 velocity=84 time=72', 'note_on channel=0 note=76 velocity=81 time=0')
Note: ('note_on channel=0 note=74 velocity=74 time=54', 'note_on channel=0 note=74 velocity=0 time=53', 'note_on channel=0 note=37 velocity=84 time=72', 'note_on channel=0 note=76 velocity=81 time=0', 'note_on channel=0 note=37 velocity=0 time=28')
Note: ('note_on channel=0 note=74 velocity=0 time=53', 'note_on channel=0 note=37 velocity=84 time=72', 'note_on channel=0 note=76 velocity=81 time=0', 'note_on channel=0 note=37 velocity=0 time=28', 'note_on channel=0 note=76 velocity=0 time=27')
Note: ('note_on channel=0 note=37 velocity=84 time=72', 'note_on channel=0 note=76 velocity=81 time=0', 'note_on channel=0 note=37 velocity=0 time=28', 'note_on channel=0 note=76 velocity=0 time=27', 'note_on channel=0 note=73 velocity=74 time=32')
Note: ('note_on channel=0 note=76 velocity=81 time=0', 'note_on channel=0 note=37 velocity=0 time=28', 'note_on channel=0 note=76 velocity=0 time=27', 'note_on channel=0 note=73 velocity=74 time=32', 'note_on channel=0 note=73 velocity=0 time=44')
Note: ('note_on channel=0 note=37 velocity=0 time=28', 'note_on channel=0 note=76 velocity=0 time=27', 'note_on channel=0 note=73 velocity=74 time=32', 'note_on channel=0 note=73 velocity=0 time=44', 'note_on channel=0 note=71 velocity=70 time=53')
Note: ('note_on channel=0 note=76 velocity=0 time=27', 'note_on channel=0 note=73 velocity=74 time=32', 'note_on channel=0 note=73 velocity=0 time=44', 'note_on channel=0 note=71 velocity=70 time=53', 'note_on channel=0 note=71 velocity=0 time=1')
Note: ('note_on channel=0 note=73 velocity=74 time=32', 'note_on channel=0 note=73 velocity=0 time=44', 'note_on channel=0 note=71 velocity=70 time=53', 'note_on channel=0 note=71 velocity=0 time=1', 'note_on channel=0 note=81 velocity=101 time=36')
Note: ('note_on channel=0 note=73 velocity=0 time=44', 'note_on channel=0 note=71 velocity=70 time=53', 'note_on channel=0 note=71 velocity=0 time=1', 'note_on channel=0 note=81 velocity=101 time=36', 'note_on channel=0 note=69 velocity=74 time=4')
Note: ('note_on channel=0 note=71 velocity=70 time=53', 'note_on channel=0 note=71 velocity=0 time=1', 'note_on channel=0 note=81 velocity=101 time=36', 'note_on channel=0 note=69 velocity=74 time=4', 'note_on channel=0 note=81 velocity=0 time=1')
Note: ('note_on channel=0 note=71 velocity=0 time=1', 'note_on channel=0 note=81 velocity=101 time=36', 'note_on channel=0 note=69 velocity=74 time=4', 'note_on channel=0 note=81 velocity=0 time=1', 'note_on channel=0 note=69 velocity=0 time=7')
Note: ('note_on channel=0 note=81 velocity=101 time=36', 'note_on channel=0 note=69 velocity=74 time=4', 'note_on channel=0 note=81 velocity=0 time=1', 'note_on channel=0 note=69 velocity=0 time=7', 'note_on channel=0 note=71 velocity=73 time=68')
Note: ('note_on channel=0 note=69 velocity=74 time=4', 'note_on channel=0 note=81 velocity=0 time=1', 'note_on channel=0 note=69 velocity=0 time=7', 'note_on channel=0 note=71 velocity=73 time=68', 'note_on channel=0 note=71 velocity=0 time=5')
Note: ('note_on channel=0 note=81 velocity=0 time=1', 'note_on channel=0 note=69 velocity=0 time=7', 'note_on channel=0 note=71 velocity=73 time=68', 'note_on channel=0 note=71 velocity=0 time=5', 'note_on channel=0 note=73 velocity=72 time=15')
Note: ('note_on channel=0 note=69 velocity=0 time=7', 'note_on channel=0 note=71 velocity=73 time=68', 'note_on channel=0 note=71 velocity=0 time=5', 'note_on channel=0 note=73 velocity=72 time=15', 'note_on channel=0 note=73 velocity=0 time=38')
Note: ('note_on channel=0 note=71 velocity=73 time=68', 'note_on channel=0 note=71 velocity=0 time=5', 'note_on channel=0 note=73 velocity=72 time=15', 'note_on channel=0 note=73 velocity=0 time=38', 'note_on channel=0 note=71 velocity=76 time=40')
Note: ('note_on channel=0 note=71 velocity=0 time=5', 'note_on channel=0 note=73 velocity=72 time=15', 'note_on channel=0 note=73 velocity=0 time=38', 'note_on channel=0 note=71 velocity=76 time=40', 'note_on channel=0 note=38 velocity=85 time=4')
Note: ('note_on channel=0 note=73 velocity=72 time=15', 'note_on channel=0 note=73 velocity=0 time=38', 'note_on channel=0 note=71 velocity=76 time=40', 'note_on channel=0 note=38 velocity=85 time=4', 'note_on channel=0 note=38 velocity=0 time=27')
Note: ('note_on channel=0 note=73 velocity=0 time=38', 'note_on channel=0 note=71 velocity=76 time=40', 'note_on channel=0 note=38 velocity=85 time=4', 'note_on channel=0 note=38 velocity=0 time=27', 'note_on channel=0 note=71 velocity=0 time=10')
Note: ('note_on channel=0 note=71 velocity=76 time=40', 'note_on channel=0 note=38 velocity=85 time=4', 'note_on channel=0 note=38 velocity=0 time=27', 'note_on channel=0 note=71 velocity=0 time=10', 'note_on channel=0 note=74 velocity=76 time=5')
Note: ('note_on channel=0 note=38 velocity=85 time=4', 'note_on channel=0 note=38 velocity=0 time=27', 'note_on channel=0 note=71 velocity=0 time=10', 'note_on channel=0 note=74 velocity=76 time=5', 'note_on channel=0 note=74 velocity=0 time=37')
Note: ('note_on channel=0 note=38 velocity=0 time=27', 'note_on channel=0 note=71 velocity=0 time=10', 'note_on channel=0 note=74 velocity=76 time=5', 'note_on channel=0 note=74 velocity=0 time=37', 'note_on channel=0 note=73 velocity=66 time=77')
Note: ('note_on channel=0 note=71 velocity=0 time=10', 'note_on channel=0 note=74 velocity=76 time=5', 'note_on channel=0 note=74 velocity=0 time=37', 'note_on channel=0 note=73 velocity=66 time=77', 'note_on channel=0 note=73 velocity=0 time=44')
Note: ('note_on channel=0 note=74 velocity=76 time=5', 'note_on channel=0 note=74 velocity=0 time=37', 'note_on channel=0 note=73 velocity=66 time=77', 'note_on channel=0 note=73 velocity=0 time=44', 'note_on channel=0 note=71 velocity=69 time=61')
Note: ('note_on channel=0 note=74 velocity=0 time=37', 'note_on channel=0 note=73 velocity=66 time=77', 'note_on channel=0 note=73 velocity=0 time=44', 'note_on channel=0 note=71 velocity=69 time=61', 'note_on channel=0 note=40 velocity=65 time=5')
Note: ('note_on channel=0 note=73 velocity=66 time=77', 'note_on channel=0 note=73 velocity=0 time=44', 'note_on channel=0 note=71 velocity=69 time=61', 'note_on channel=0 note=40 velocity=65 time=5', 'note_on channel=0 note=40 velocity=0 time=28')
Note: ('note_on channel=0 note=73 velocity=0 time=44', 'note_on channel=0 note=71 velocity=69 time=61', 'note_on channel=0 note=40 velocity=65 time=5', 'note_on channel=0 note=40 velocity=0 time=28', 'note_on channel=0 note=71 velocity=0 time=3')
Note: ('note_on channel=0 note=71 velocity=69 time=61', 'note_on channel=0 note=40 velocity=65 time=5', 'note_on channel=0 note=40 velocity=0 time=28', 'note_on channel=0 note=71 velocity=0 time=3', 'note_on channel=0 note=69 velocity=58 time=6')
Note: ('note_on channel=0 note=40 velocity=65 time=5', 'note_on channel=0 note=40 velocity=0 time=28', 'note_on channel=0 note=71 velocity=0 time=3', 'note_on channel=0 note=69 velocity=58 time=6', 'note_on channel=0 note=69 velocity=0 time=63')
Note: ('note_on channel=0 note=40 velocity=0 time=28', 'note_on channel=0 note=71 velocity=0 time=3', 'note_on channel=0 note=69 velocity=58 time=6', 'note_on channel=0 note=69 velocity=0 time=63', 'note_on channel=0 note=68 velocity=61 time=53')
Note: ('note_on channel=0 note=71 velocity=0 time=3', 'note_on channel=0 note=69 velocity=58 time=6', 'note_on channel=0 note=69 velocity=0 time=63', 'note_on channel=0 note=68 velocity=61 time=53', 'note_on channel=0 note=68 velocity=0 time=37')
Note: ('note_on channel=0 note=69 velocity=58 time=6', 'note_on channel=0 note=69 velocity=0 time=63', 'note_on channel=0 note=68 velocity=61 time=53', 'note_on channel=0 note=68 velocity=0 time=37', 'note_on channel=0 note=69 velocity=69 time=65')
Note: ('note_on channel=0 note=69 velocity=0 time=63', 'note_on channel=0 note=68 velocity=61 time=53', 'note_on channel=0 note=68 velocity=0 time=37', 'note_on channel=0 note=69 velocity=69 time=65', 'note_on channel=0 note=33 velocity=60 time=8')
Note: ('note_on channel=0 note=68 velocity=61 time=53', 'note_on channel=0 note=68 velocity=0 time=37', 'note_on channel=0 note=69 velocity=69 time=65', 'note_on channel=0 note=33 velocity=60 time=8', 'note_on channel=0 note=69 velocity=0 time=12')
Note: ('note_on channel=0 note=68 velocity=0 time=37', 'note_on channel=0 note=69 velocity=69 time=65', 'note_on channel=0 note=33 velocity=60 time=8', 'note_on channel=0 note=69 velocity=0 time=12', 'note_on channel=0 note=33 velocity=0 time=10')
Note: ('note_on channel=0 note=69 velocity=69 time=65', 'note_on channel=0 note=33 velocity=60 time=8', 'note_on channel=0 note=69 velocity=0 time=12', 'note_on channel=0 note=33 velocity=0 time=10', 'note_on channel=0 note=81 velocity=92 time=0')
Note: ('note_on channel=0 note=33 velocity=60 time=8', 'note_on channel=0 note=69 velocity=0 time=12', 'note_on channel=0 note=33 velocity=0 time=10', 'note_on channel=0 note=81 velocity=92 time=0', 'note_on channel=0 note=61 velocity=61 time=19')
Note: ('note_on channel=0 note=69 velocity=0 time=12', 'note_on channel=0 note=33 velocity=0 time=10', 'note_on channel=0 note=81 velocity=92 time=0', 'note_on channel=0 note=61 velocity=61 time=19', 'note_on channel=0 note=81 velocity=0 time=2')
Note: ('note_on channel=0 note=33 velocity=0 time=10', 'note_on channel=0 note=81 velocity=92 time=0', 'note_on channel=0 note=61 velocity=61 time=19', 'note_on channel=0 note=81 velocity=0 time=2', 'note_on channel=0 note=64 velocity=57 time=4')
Note: ('note_on channel=0 note=81 velocity=92 time=0', 'note_on channel=0 note=61 velocity=61 time=19', 'note_on channel=0 note=81 velocity=0 time=2', 'note_on channel=0 note=64 velocity=57 time=4', 'note_on channel=0 note=61 velocity=0 time=8')
Note: ('note_on channel=0 note=61 velocity=61 time=19', 'note_on channel=0 note=81 velocity=0 time=2', 'note_on channel=0 note=64 velocity=57 time=4', 'note_on channel=0 note=61 velocity=0 time=8', 'note_on channel=0 note=64 velocity=0 time=3')
Note: ('note_on channel=0 note=81 velocity=0 time=2', 'note_on channel=0 note=64 velocity=57 time=4', 'note_on channel=0 note=61 velocity=0 time=8', 'note_on channel=0 note=64 velocity=0 time=3', 'note_on channel=0 note=69 velocity=50 time=6')
Note: ('note_on channel=0 note=64 velocity=57 time=4', 'note_on channel=0 note=61 velocity=0 time=8', 'note_on channel=0 note=64 velocity=0 time=3', 'note_on channel=0 note=69 velocity=50 time=6', 'note_on channel=0 note=69 velocity=0 time=40')
Note: ('note_on channel=0 note=61 velocity=0 time=8', 'note_on channel=0 note=64 velocity=0 time=3', 'note_on channel=0 note=69 velocity=50 time=6', 'note_on channel=0 note=69 velocity=0 time=40', 'note_on channel=0 note=62 velocity=64 time=12')
Note: ('note_on channel=0 note=64 velocity=0 time=3', 'note_on channel=0 note=69 velocity=50 time=6', 'note_on channel=0 note=69 velocity=0 time=40', 'note_on channel=0 note=62 velocity=64 time=12', 'note_on channel=0 note=38 velocity=84 time=2')
Note: ('note_on channel=0 note=69 velocity=50 time=6', 'note_on channel=0 note=69 velocity=0 time=40', 'note_on channel=0 note=62 velocity=64 time=12', 'note_on channel=0 note=38 velocity=84 time=2', 'note_on channel=0 note=38 velocity=0 time=31')
Note: ('note_on channel=0 note=69 velocity=0 time=40', 'note_on channel=0 note=62 velocity=64 time=12', 'note_on channel=0 note=38 velocity=84 time=2', 'note_on channel=0 note=38 velocity=0 time=31', 'note_on channel=0 note=62 velocity=0 time=90')
Note: ('note_on channel=0 note=62 velocity=64 time=12', 'note_on channel=0 note=38 velocity=84 time=2', 'note_on channel=0 note=38 velocity=0 time=31', 'note_on channel=0 note=62 velocity=0 time=90', 'note_on channel=0 note=66 velocity=59 time=5')
Note: ('note_on channel=0 note=38 velocity=84 time=2', 'note_on channel=0 note=38 velocity=0 time=31', 'note_on channel=0 note=62 velocity=0 time=90', 'note_on channel=0 note=66 velocity=59 time=5', 'note_on channel=0 note=66 velocity=0 time=101')
Note: ('note_on channel=0 note=38 velocity=0 time=31', 'note_on channel=0 note=62 velocity=0 time=90', 'note_on channel=0 note=66 velocity=59 time=5', 'note_on channel=0 note=66 velocity=0 time=101', 'note_on channel=0 note=71 velocity=54 time=27')
Note: ('note_on channel=0 note=62 velocity=0 time=90', 'note_on channel=0 note=66 velocity=59 time=5', 'note_on channel=0 note=66 velocity=0 time=101', 'note_on channel=0 note=71 velocity=54 time=27', 'note_on channel=0 note=71 velocity=0 time=5')
Note: ('note_on channel=0 note=66 velocity=59 time=5', 'note_on channel=0 note=66 velocity=0 time=101', 'note_on channel=0 note=71 velocity=54 time=27', 'note_on channel=0 note=71 velocity=0 time=5', 'note_on channel=0 note=83 velocity=95 time=6')
Note: ('note_on channel=0 note=66 velocity=0 time=101', 'note_on channel=0 note=71 velocity=54 time=27', 'note_on channel=0 note=71 velocity=0 time=5', 'note_on channel=0 note=83 velocity=95 time=6', 'note_on channel=0 note=62 velocity=63 time=13')
Note: ('note_on channel=0 note=71 velocity=54 time=27', 'note_on channel=0 note=71 velocity=0 time=5', 'note_on channel=0 note=83 velocity=95 time=6', 'note_on channel=0 note=62 velocity=63 time=13', 'note_on channel=0 note=83 velocity=0 time=1')
Note: ('note_on channel=0 note=71 velocity=0 time=5', 'note_on channel=0 note=83 velocity=95 time=6', 'note_on channel=0 note=62 velocity=63 time=13', 'note_on channel=0 note=83 velocity=0 time=1', 'note_on channel=0 note=62 velocity=0 time=12')
Note: ('note_on channel=0 note=83 velocity=95 time=6', 'note_on channel=0 note=62 velocity=63 time=13', 'note_on channel=0 note=83 velocity=0 time=1', 'note_on channel=0 note=62 velocity=0 time=12', 'note_on channel=0 note=66 velocity=61 time=3')
Note: ('note_on channel=0 note=62 velocity=63 time=13', 'note_on channel=0 note=83 velocity=0 time=1', 'note_on channel=0 note=62 velocity=0 time=12', 'note_on channel=0 note=66 velocity=61 time=3', 'note_on channel=0 note=66 velocity=0 time=21')
Note: ('note_on channel=0 note=83 velocity=0 time=1', 'note_on channel=0 note=62 velocity=0 time=12', 'note_on channel=0 note=66 velocity=61 time=3', 'note_on channel=0 note=66 velocity=0 time=21', 'note_on channel=0 note=71 velocity=51 time=11')
Note: ('note_on channel=0 note=62 velocity=0 time=12', 'note_on channel=0 note=66 velocity=61 time=3', 'note_on channel=0 note=66 velocity=0 time=21', 'note_on channel=0 note=71 velocity=51 time=11', 'note_on channel=0 note=71 velocity=0 time=60')
Note: ('note_on channel=0 note=66 velocity=61 time=3', 'note_on channel=0 note=66 velocity=0 time=21', 'note_on channel=0 note=71 velocity=51 time=11', 'note_on channel=0 note=71 velocity=0 time=60', 'note_on channel=0 note=37 velocity=83 time=40')
Note: ('note_on channel=0 note=66 velocity=0 time=21', 'note_on channel=0 note=71 velocity=51 time=11', 'note_on channel=0 note=71 velocity=0 time=60', 'note_on channel=0 note=37 velocity=83 time=40', 'note_on channel=0 note=61 velocity=61 time=5')
Note: ('note_on channel=0 note=71 velocity=51 time=11', 'note_on channel=0 note=71 velocity=0 time=60', 'note_on channel=0 note=37 velocity=83 time=40', 'note_on channel=0 note=61 velocity=61 time=5', 'note_on channel=0 note=37 velocity=0 time=25')
Note: ('note_on channel=0 note=71 velocity=0 time=60', 'note_on channel=0 note=37 velocity=83 time=40', 'note_on channel=0 note=61 velocity=61 time=5', 'note_on channel=0 note=37 velocity=0 time=25', 'note_on channel=0 note=64 velocity=56 time=96')
Note: ('note_on channel=0 note=37 velocity=83 time=40', 'note_on channel=0 note=61 velocity=61 time=5', 'note_on channel=0 note=37 velocity=0 time=25', 'note_on channel=0 note=64 velocity=56 time=96', 'note_on channel=0 note=61 velocity=0 time=4')
Note: ('note_on channel=0 note=61 velocity=61 time=5', 'note_on channel=0 note=37 velocity=0 time=25', 'note_on channel=0 note=64 velocity=56 time=96', 'note_on channel=0 note=61 velocity=0 time=4', 'note_on channel=0 note=64 velocity=0 time=12')
Note: ('note_on channel=0 note=37 velocity=0 time=25', 'note_on channel=0 note=64 velocity=56 time=96', 'note_on channel=0 note=61 velocity=0 time=4', 'note_on channel=0 note=64 velocity=0 time=12', 'note_on channel=0 note=69 velocity=50 time=3')
Note: ('note_on channel=0 note=64 velocity=56 time=96', 'note_on channel=0 note=61 velocity=0 time=4', 'note_on channel=0 note=64 velocity=0 time=12', 'note_on channel=0 note=69 velocity=50 time=3', 'note_on channel=0 note=69 velocity=0 time=13')
Note: ('note_on channel=0 note=61 velocity=0 time=4', 'note_on channel=0 note=64 velocity=0 time=12', 'note_on channel=0 note=69 velocity=50 time=3', 'note_on channel=0 note=69 velocity=0 time=13', 'note_on channel=0 note=81 velocity=95 time=12')
Note: ('note_on channel=0 note=64 velocity=0 time=12', 'note_on channel=0 note=69 velocity=50 time=3', 'note_on channel=0 note=69 velocity=0 time=13', 'note_on channel=0 note=81 velocity=95 time=12', 'note_on channel=0 note=61 velocity=61 time=9')
Note: ('note_on channel=0 note=69 velocity=50 time=3', 'note_on channel=0 note=69 velocity=0 time=13', 'note_on channel=0 note=81 velocity=95 time=12', 'note_on channel=0 note=61 velocity=61 time=9', 'note_on channel=0 note=81 velocity=0 time=1')
Note: ('note_on channel=0 note=69 velocity=0 time=13', 'note_on channel=0 note=81 velocity=95 time=12', 'note_on channel=0 note=61 velocity=61 time=9', 'note_on channel=0 note=81 velocity=0 time=1', 'note_on channel=0 note=64 velocity=60 time=6')
Note: ('note_on channel=0 note=81 velocity=95 time=12', 'note_on channel=0 note=61 velocity=61 time=9', 'note_on channel=0 note=81 velocity=0 time=1', 'note_on channel=0 note=64 velocity=60 time=6', 'note_on channel=0 note=61 velocity=0 time=7')
Note: ('note_on channel=0 note=61 velocity=61 time=9', 'note_on channel=0 note=81 velocity=0 time=1', 'note_on channel=0 note=64 velocity=60 time=6', 'note_on channel=0 note=61 velocity=0 time=7', 'note_on channel=0 note=64 velocity=0 time=19')
Note: ('note_on channel=0 note=81 velocity=0 time=1', 'note_on channel=0 note=64 velocity=60 time=6', 'note_on channel=0 note=61 velocity=0 time=7', 'note_on channel=0 note=64 velocity=0 time=19', 'note_on channel=0 note=69 velocity=53 time=12')
Note: ('note_on channel=0 note=64 velocity=60 time=6', 'note_on channel=0 note=61 velocity=0 time=7', 'note_on channel=0 note=64 velocity=0 time=19', 'note_on channel=0 note=69 velocity=53 time=12', 'note_on channel=0 note=38 velocity=78 time=33')
Note: ('note_on channel=0 note=61 velocity=0 time=7', 'note_on channel=0 note=64 velocity=0 time=19', 'note_on channel=0 note=69 velocity=53 time=12', 'note_on channel=0 note=38 velocity=78 time=33', 'note_on channel=0 note=62 velocity=64 time=1')
Note: ('note_on channel=0 note=64 velocity=0 time=19', 'note_on channel=0 note=69 velocity=53 time=12', 'note_on channel=0 note=38 velocity=78 time=33', 'note_on channel=0 note=62 velocity=64 time=1', 'note_on channel=0 note=69 velocity=0 time=0')
Note: ('note_on channel=0 note=69 velocity=53 time=12', 'note_on channel=0 note=38 velocity=78 time=33', 'note_on channel=0 note=62 velocity=64 time=1', 'note_on channel=0 note=69 velocity=0 time=0', 'note_on channel=0 note=38 velocity=0 time=39')
Note: ('note_on channel=0 note=38 velocity=78 time=33', 'note_on channel=0 note=62 velocity=64 time=1', 'note_on channel=0 note=69 velocity=0 time=0', 'note_on channel=0 note=38 velocity=0 time=39', 'note_on channel=0 note=66 velocity=68 time=83')
Note: ('note_on channel=0 note=62 velocity=64 time=1', 'note_on channel=0 note=69 velocity=0 time=0', 'note_on channel=0 note=38 velocity=0 time=39', 'note_on channel=0 note=66 velocity=68 time=83', 'note_on channel=0 note=62 velocity=0 time=4')
Note: ('note_on channel=0 note=69 velocity=0 time=0', 'note_on channel=0 note=38 velocity=0 time=39', 'note_on channel=0 note=66 velocity=68 time=83', 'note_on channel=0 note=62 velocity=0 time=4', 'note_on channel=0 note=66 velocity=0 time=87')
Note: ('note_on channel=0 note=38 velocity=0 time=39', 'note_on channel=0 note=66 velocity=68 time=83', 'note_on channel=0 note=62 velocity=0 time=4', 'note_on channel=0 note=66 velocity=0 time=87', 'note_on channel=0 note=69 velocity=58 time=11')
Note: ('note_on channel=0 note=66 velocity=68 time=83', 'note_on channel=0 note=62 velocity=0 time=4', 'note_on channel=0 note=66 velocity=0 time=87', 'note_on channel=0 note=69 velocity=58 time=11', 'note_on channel=0 note=40 velocity=69 time=25')
Note: ('note_on channel=0 note=62 velocity=0 time=4', 'note_on channel=0 note=66 velocity=0 time=87', 'note_on channel=0 note=69 velocity=58 time=11', 'note_on channel=0 note=40 velocity=69 time=25', 'note_on channel=0 note=69 velocity=0 time=1')
Note: ('note_on channel=0 note=66 velocity=0 time=87', 'note_on channel=0 note=69 velocity=58 time=11', 'note_on channel=0 note=40 velocity=69 time=25', 'note_on channel=0 note=69 velocity=0 time=1', 'note_on channel=0 note=64 velocity=61 time=10')
Note: ('note_on channel=0 note=69 velocity=58 time=11', 'note_on channel=0 note=40 velocity=69 time=25', 'note_on channel=0 note=69 velocity=0 time=1', 'note_on channel=0 note=64 velocity=61 time=10', 'note_on channel=0 note=40 velocity=0 time=40')
Note: ('note_on channel=0 note=40 velocity=69 time=25', 'note_on channel=0 note=69 velocity=0 time=1', 'note_on channel=0 note=64 velocity=61 time=10', 'note_on channel=0 note=40 velocity=0 time=40', 'note_on channel=0 note=64 velocity=0 time=38')
Note: ('note_on channel=0 note=69 velocity=0 time=1', 'note_on channel=0 note=64 velocity=61 time=10', 'note_on channel=0 note=40 velocity=0 time=40', 'note_on channel=0 note=64 velocity=0 time=38', 'note_on channel=0 note=68 velocity=61 time=19')
Note: ('note_on channel=0 note=64 velocity=61 time=10', 'note_on channel=0 note=40 velocity=0 time=40', 'note_on channel=0 note=64 velocity=0 time=38', 'note_on channel=0 note=68 velocity=61 time=19', 'note_on channel=0 note=68 velocity=0 time=3')
Note: ('note_on channel=0 note=40 velocity=0 time=40', 'note_on channel=0 note=64 velocity=0 time=38', 'note_on channel=0 note=68 velocity=61 time=19', 'note_on channel=0 note=68 velocity=0 time=3', 'note_on channel=0 note=71 velocity=54 time=19')
Note: ('note_on channel=0 note=64 velocity=0 time=38', 'note_on channel=0 note=68 velocity=61 time=19', 'note_on channel=0 note=68 velocity=0 time=3', 'note_on channel=0 note=71 velocity=54 time=19', 'note_on channel=0 note=71 velocity=0 time=43')
Note: ('note_on channel=0 note=68 velocity=61 time=19', 'note_on channel=0 note=68 velocity=0 time=3', 'note_on channel=0 note=71 velocity=54 time=19', 'note_on channel=0 note=71 velocity=0 time=43', 'note_on channel=0 note=33 velocity=72 time=101')
Note: ('note_on channel=0 note=68 velocity=0 time=3', 'note_on channel=0 note=71 velocity=54 time=19', 'note_on channel=0 note=71 velocity=0 time=43', 'note_on channel=0 note=33 velocity=72 time=101', 'note_on channel=0 note=57 velocity=59 time=2')
Note: ('note_on channel=0 note=71 velocity=54 time=19', 'note_on channel=0 note=71 velocity=0 time=43', 'note_on channel=0 note=33 velocity=72 time=101', 'note_on channel=0 note=57 velocity=59 time=2', 'note_on channel=0 note=33 velocity=0 time=4')
Note: ('note_on channel=0 note=71 velocity=0 time=43', 'note_on channel=0 note=33 velocity=72 time=101', 'note_on channel=0 note=57 velocity=59 time=2', 'note_on channel=0 note=33 velocity=0 time=4', 'note_on channel=0 note=57 velocity=0 time=3')
Note: ('note_on channel=0 note=33 velocity=72 time=101', 'note_on channel=0 note=57 velocity=59 time=2', 'note_on channel=0 note=33 velocity=0 time=4', 'note_on channel=0 note=57 velocity=0 time=3', 'note_on channel=0 note=72 velocity=66 time=155')
Note: ('note_on channel=0 note=57 velocity=59 time=2', 'note_on channel=0 note=33 velocity=0 time=4', 'note_on channel=0 note=57 velocity=0 time=3', 'note_on channel=0 note=72 velocity=66 time=155', 'note_on channel=0 note=74 velocity=77 time=42')
Note: ('note_on channel=0 note=33 velocity=0 time=4', 'note_on channel=0 note=57 velocity=0 time=3', 'note_on channel=0 note=72 velocity=66 time=155', 'note_on channel=0 note=74 velocity=77 time=42', 'note_on channel=0 note=72 velocity=0 time=0')
Note: ('note_on channel=0 note=57 velocity=0 time=3', 'note_on channel=0 note=72 velocity=66 time=155', 'note_on channel=0 note=74 velocity=77 time=42', 'note_on channel=0 note=72 velocity=0 time=0', 'note_on channel=0 note=76 velocity=76 time=27')
Note: ('note_on channel=0 note=72 velocity=66 time=155', 'note_on channel=0 note=74 velocity=77 time=42', 'note_on channel=0 note=72 velocity=0 time=0', 'note_on channel=0 note=76 velocity=76 time=27', 'note_on channel=0 note=74 velocity=0 time=27')
Note: ('note_on channel=0 note=74 velocity=77 time=42', 'note_on channel=0 note=72 velocity=0 time=0', 'note_on channel=0 note=76 velocity=76 time=27', 'note_on channel=0 note=74 velocity=0 time=27', 'note_on channel=0 note=76 velocity=0 time=37')
Note: ('note_on channel=0 note=72 velocity=0 time=0', 'note_on channel=0 note=76 velocity=76 time=27', 'note_on channel=0 note=74 velocity=0 time=27', 'note_on channel=0 note=76 velocity=0 time=37', 'note_on channel=0 note=76 velocity=72 time=170')
Note: ('note_on channel=0 note=76 velocity=76 time=27', 'note_on channel=0 note=74 velocity=0 time=27', 'note_on channel=0 note=76 velocity=0 time=37', 'note_on channel=0 note=76 velocity=72 time=170', 'note_on channel=0 note=74 velocity=84 time=5')
Note: ('note_on channel=0 note=74 velocity=0 time=27', 'note_on channel=0 note=76 velocity=0 time=37', 'note_on channel=0 note=76 velocity=72 time=170', 'note_on channel=0 note=74 velocity=84 time=5', 'note_on channel=0 note=76 velocity=0 time=24')
Note: ('note_on channel=0 note=76 velocity=0 time=37', 'note_on channel=0 note=76 velocity=72 time=170', 'note_on channel=0 note=74 velocity=84 time=5', 'note_on channel=0 note=76 velocity=0 time=24', 'note_on channel=0 note=65 velocity=45 time=243')
Note: ('note_on channel=0 note=76 velocity=72 time=170', 'note_on channel=0 note=74 velocity=84 time=5', 'note_on channel=0 note=76 velocity=0 time=24', 'note_on channel=0 note=65 velocity=45 time=243', 'note_on channel=0 note=69 velocity=56 time=64')
Note: ('note_on channel=0 note=74 velocity=84 time=5', 'note_on channel=0 note=76 velocity=0 time=24', 'note_on channel=0 note=65 velocity=45 time=243', 'note_on channel=0 note=69 velocity=56 time=64', 'note_on channel=0 note=72 velocity=85 time=45')
Note: ('note_on channel=0 note=76 velocity=0 time=24', 'note_on channel=0 note=65 velocity=45 time=243', 'note_on channel=0 note=69 velocity=56 time=64', 'note_on channel=0 note=72 velocity=85 time=45', 'note_on channel=0 note=74 velocity=0 time=29')
Note: ('note_on channel=0 note=65 velocity=45 time=243', 'note_on channel=0 note=69 velocity=56 time=64', 'note_on channel=0 note=72 velocity=85 time=45', 'note_on channel=0 note=74 velocity=0 time=29', 'note_on channel=0 note=69 velocity=0 time=23')
Note: ('note_on channel=0 note=69 velocity=56 time=64', 'note_on channel=0 note=72 velocity=85 time=45', 'note_on channel=0 note=74 velocity=0 time=29', 'note_on channel=0 note=69 velocity=0 time=23', 'note_on channel=0 note=72 velocity=0 time=12')
Note: ('note_on channel=0 note=72 velocity=85 time=45', 'note_on channel=0 note=74 velocity=0 time=29', 'note_on channel=0 note=69 velocity=0 time=23', 'note_on channel=0 note=72 velocity=0 time=12', 'note_on channel=0 note=65 velocity=0 time=7')
Note: ('note_on channel=0 note=74 velocity=0 time=29', 'note_on channel=0 note=69 velocity=0 time=23', 'note_on channel=0 note=72 velocity=0 time=12', 'note_on channel=0 note=65 velocity=0 time=7', 'note_on channel=0 note=71 velocity=88 time=46')
Note: ('note_on channel=0 note=69 velocity=0 time=23', 'note_on channel=0 note=72 velocity=0 time=12', 'note_on channel=0 note=65 velocity=0 time=7', 'note_on channel=0 note=71 velocity=88 time=46', 'note_on channel=0 note=71 velocity=0 time=58')
Note: ('note_on channel=0 note=72 velocity=0 time=12', 'note_on channel=0 note=65 velocity=0 time=7', 'note_on channel=0 note=71 velocity=88 time=46', 'note_on channel=0 note=71 velocity=0 time=58', 'note_on channel=0 note=69 velocity=87 time=62')
Note: ('note_on channel=0 note=65 velocity=0 time=7', 'note_on channel=0 note=71 velocity=88 time=46', 'note_on channel=0 note=71 velocity=0 time=58', 'note_on channel=0 note=69 velocity=87 time=62', 'note_on channel=0 note=69 velocity=0 time=60')
Note: ('note_on channel=0 note=71 velocity=88 time=46', 'note_on channel=0 note=71 velocity=0 time=58', 'note_on channel=0 note=69 velocity=87 time=62', 'note_on channel=0 note=69 velocity=0 time=60', 'note_on channel=0 note=71 velocity=78 time=85')
Note: ('note_on channel=0 note=71 velocity=0 time=58', 'note_on channel=0 note=69 velocity=87 time=62', 'note_on channel=0 note=69 velocity=0 time=60', 'note_on channel=0 note=71 velocity=78 time=85', 'note_on channel=0 note=64 velocity=48 time=20')
Note: ('note_on channel=0 note=69 velocity=87 time=62', 'note_on channel=0 note=69 velocity=0 time=60', 'note_on channel=0 note=71 velocity=78 time=85', 'note_on channel=0 note=64 velocity=48 time=20', 'note_on channel=0 note=68 velocity=53 time=0')
Note: ('note_on channel=0 note=69 velocity=0 time=60', 'note_on channel=0 note=71 velocity=78 time=85', 'note_on channel=0 note=64 velocity=48 time=20', 'note_on channel=0 note=68 velocity=53 time=0', 'note_on channel=0 note=68 velocity=0 time=11')
Note: ('note_on channel=0 note=71 velocity=78 time=85', 'note_on channel=0 note=64 velocity=48 time=20', 'note_on channel=0 note=68 velocity=53 time=0', 'note_on channel=0 note=68 velocity=0 time=11', 'note_on channel=0 note=65 velocity=55 time=128')
Note: ('note_on channel=0 note=64 velocity=48 time=20', 'note_on channel=0 note=68 velocity=53 time=0', 'note_on channel=0 note=68 velocity=0 time=11', 'note_on channel=0 note=65 velocity=55 time=128', 'note_on channel=0 note=69 velocity=62 time=47')
Note: ('note_on channel=0 note=68 velocity=53 time=0', 'note_on channel=0 note=68 velocity=0 time=11', 'note_on channel=0 note=65 velocity=55 time=128', 'note_on channel=0 note=69 velocity=62 time=47', 'note_on channel=0 note=64 velocity=0 time=4')
Note: ('note_on channel=0 note=68 velocity=0 time=11', 'note_on channel=0 note=65 velocity=55 time=128', 'note_on channel=0 note=69 velocity=62 time=47', 'note_on channel=0 note=64 velocity=0 time=4', 'note_on channel=0 note=72 velocity=85 time=4')
Note: ('note_on channel=0 note=65 velocity=55 time=128', 'note_on channel=0 note=69 velocity=62 time=47', 'note_on channel=0 note=64 velocity=0 time=4', 'note_on channel=0 note=72 velocity=85 time=4', 'note_on channel=0 note=71 velocity=0 time=0')
Note: ('note_on channel=0 note=69 velocity=62 time=47', 'note_on channel=0 note=64 velocity=0 time=4', 'note_on channel=0 note=72 velocity=85 time=4', 'note_on channel=0 note=71 velocity=0 time=0', 'note_on channel=0 note=72 velocity=0 time=10')
Note: ('note_on channel=0 note=64 velocity=0 time=4', 'note_on channel=0 note=72 velocity=85 time=4', 'note_on channel=0 note=71 velocity=0 time=0', 'note_on channel=0 note=72 velocity=0 time=10', 'note_on channel=0 note=69 velocity=0 time=4')
Note: ('note_on channel=0 note=72 velocity=85 time=4', 'note_on channel=0 note=71 velocity=0 time=0', 'note_on channel=0 note=72 velocity=0 time=10', 'note_on channel=0 note=69 velocity=0 time=4', 'note_on channel=0 note=65 velocity=0 time=14')
Note: ('note_on channel=0 note=71 velocity=0 time=0', 'note_on channel=0 note=72 velocity=0 time=10', 'note_on channel=0 note=69 velocity=0 time=4', 'note_on channel=0 note=65 velocity=0 time=14', 'note_on channel=0 note=74 velocity=96 time=28')
Note: ('note_on channel=0 note=72 velocity=0 time=10', 'note_on channel=0 note=69 velocity=0 time=4', 'note_on channel=0 note=65 velocity=0 time=14', 'note_on channel=0 note=74 velocity=96 time=28', 'note_on channel=0 note=74 velocity=0 time=60')
Note: ('note_on channel=0 note=69 velocity=0 time=4', 'note_on channel=0 note=65 velocity=0 time=14', 'note_on channel=0 note=74 velocity=96 time=28', 'note_on channel=0 note=74 velocity=0 time=60', 'note_on channel=0 note=76 velocity=89 time=59')
Note: ('note_on channel=0 note=65 velocity=0 time=14', 'note_on channel=0 note=74 velocity=96 time=28', 'note_on channel=0 note=74 velocity=0 time=60', 'note_on channel=0 note=76 velocity=89 time=59', 'note_on channel=0 note=76 velocity=0 time=51')
Note: ('note_on channel=0 note=74 velocity=96 time=28', 'note_on channel=0 note=74 velocity=0 time=60', 'note_on channel=0 note=76 velocity=89 time=59', 'note_on channel=0 note=76 velocity=0 time=51', 'note_on channel=0 note=71 velocity=80 time=93')
Note: ('note_on channel=0 note=74 velocity=0 time=60', 'note_on channel=0 note=76 velocity=89 time=59', 'note_on channel=0 note=76 velocity=0 time=51', 'note_on channel=0 note=71 velocity=80 time=93', 'note_on channel=0 note=68 velocity=57 time=19')
Note: ('note_on channel=0 note=76 velocity=89 time=59', 'note_on channel=0 note=76 velocity=0 time=51', 'note_on channel=0 note=71 velocity=80 time=93', 'note_on channel=0 note=68 velocity=57 time=19', 'note_on channel=0 note=64 velocity=47 time=2')
Note: ('note_on channel=0 note=76 velocity=0 time=51', 'note_on channel=0 note=71 velocity=80 time=93', 'note_on channel=0 note=68 velocity=57 time=19', 'note_on channel=0 note=64 velocity=47 time=2', 'note_on channel=0 note=71 velocity=0 time=16')
Note: ('note_on channel=0 note=71 velocity=80 time=93', 'note_on channel=0 note=68 velocity=57 time=19', 'note_on channel=0 note=64 velocity=47 time=2', 'note_on channel=0 note=71 velocity=0 time=16', 'note_on channel=0 note=68 velocity=0 time=24')
Note: ('note_on channel=0 note=68 velocity=57 time=19', 'note_on channel=0 note=64 velocity=47 time=2', 'note_on channel=0 note=71 velocity=0 time=16', 'note_on channel=0 note=68 velocity=0 time=24', 'note_on channel=0 note=74 velocity=73 time=8')
Note: ('note_on channel=0 note=64 velocity=47 time=2', 'note_on channel=0 note=71 velocity=0 time=16', 'note_on channel=0 note=68 velocity=0 time=24', 'note_on channel=0 note=74 velocity=73 time=8', 'note_on channel=0 note=74 velocity=0 time=12')
Note: ('note_on channel=0 note=71 velocity=0 time=16', 'note_on channel=0 note=68 velocity=0 time=24', 'note_on channel=0 note=74 velocity=73 time=8', 'note_on channel=0 note=74 velocity=0 time=12', 'note_on channel=0 note=72 velocity=72 time=2')
Note: ('note_on channel=0 note=68 velocity=0 time=24', 'note_on channel=0 note=74 velocity=73 time=8', 'note_on channel=0 note=74 velocity=0 time=12', 'note_on channel=0 note=72 velocity=72 time=2', 'note_on channel=0 note=72 velocity=0 time=13')
Note: ('note_on channel=0 note=74 velocity=73 time=8', 'note_on channel=0 note=74 velocity=0 time=12', 'note_on channel=0 note=72 velocity=72 time=2', 'note_on channel=0 note=72 velocity=0 time=13', 'note_on channel=0 note=74 velocity=61 time=7')
Note: ('note_on channel=0 note=74 velocity=0 time=12', 'note_on channel=0 note=72 velocity=72 time=2', 'note_on channel=0 note=72 velocity=0 time=13', 'note_on channel=0 note=74 velocity=61 time=7', 'note_on channel=0 note=72 velocity=78 time=3')
Note: ('note_on channel=0 note=72 velocity=72 time=2', 'note_on channel=0 note=72 velocity=0 time=13', 'note_on channel=0 note=74 velocity=61 time=7', 'note_on channel=0 note=72 velocity=78 time=3', 'note_on channel=0 note=69 velocity=62 time=9')
Note: ('note_on channel=0 note=72 velocity=0 time=13', 'note_on channel=0 note=74 velocity=61 time=7', 'note_on channel=0 note=72 velocity=78 time=3', 'note_on channel=0 note=69 velocity=62 time=9', 'note_on channel=0 note=64 velocity=0 time=0')
Note: ('note_on channel=0 note=74 velocity=61 time=7', 'note_on channel=0 note=72 velocity=78 time=3', 'note_on channel=0 note=69 velocity=62 time=9', 'note_on channel=0 note=64 velocity=0 time=0', 'note_on channel=0 note=65 velocity=59 time=0')
Note: ('note_on channel=0 note=72 velocity=78 time=3', 'note_on channel=0 note=69 velocity=62 time=9', 'note_on channel=0 note=64 velocity=0 time=0', 'note_on channel=0 note=65 velocity=59 time=0', 'note_on channel=0 note=74 velocity=0 time=13')
Note: ('note_on channel=0 note=69 velocity=62 time=9', 'note_on channel=0 note=64 velocity=0 time=0', 'note_on channel=0 note=65 velocity=59 time=0', 'note_on channel=0 note=74 velocity=0 time=13', 'note_on channel=0 note=69 velocity=0 time=6')
Note: ('note_on channel=0 note=64 velocity=0 time=0', 'note_on channel=0 note=65 velocity=59 time=0', 'note_on channel=0 note=74 velocity=0 time=13', 'note_on channel=0 note=69 velocity=0 time=6', 'note_on channel=0 note=65 velocity=0 time=5')
Note: ('note_on channel=0 note=65 velocity=59 time=0', 'note_on channel=0 note=74 velocity=0 time=13', 'note_on channel=0 note=69 velocity=0 time=6', 'note_on channel=0 note=65 velocity=0 time=5', 'note_on channel=0 note=72 velocity=0 time=1')
Note: ('note_on channel=0 note=74 velocity=0 time=13', 'note_on channel=0 note=69 velocity=0 time=6', 'note_on channel=0 note=65 velocity=0 time=5', 'note_on channel=0 note=72 velocity=0 time=1', 'note_on channel=0 note=71 velocity=70 time=72')
Note: ('note_on channel=0 note=69 velocity=0 time=6', 'note_on channel=0 note=65 velocity=0 time=5', 'note_on channel=0 note=72 velocity=0 time=1', 'note_on channel=0 note=71 velocity=70 time=72', 'note_on channel=0 note=71 velocity=0 time=40')
Note: ('note_on channel=0 note=65 velocity=0 time=5', 'note_on channel=0 note=72 velocity=0 time=1', 'note_on channel=0 note=71 velocity=70 time=72', 'note_on channel=0 note=71 velocity=0 time=40', 'note_on channel=0 note=69 velocity=63 time=64')
Note: ('note_on channel=0 note=72 velocity=0 time=1', 'note_on channel=0 note=71 velocity=70 time=72', 'note_on channel=0 note=71 velocity=0 time=40', 'note_on channel=0 note=69 velocity=63 time=64', 'note_on channel=0 note=69 velocity=0 time=31')
Note: ('note_on channel=0 note=71 velocity=70 time=72', 'note_on channel=0 note=71 velocity=0 time=40', 'note_on channel=0 note=69 velocity=63 time=64', 'note_on channel=0 note=69 velocity=0 time=31', 'note_on channel=0 note=71 velocity=70 time=4')
Note: ('note_on channel=0 note=71 velocity=0 time=40', 'note_on channel=0 note=69 velocity=63 time=64', 'note_on channel=0 note=69 velocity=0 time=31', 'note_on channel=0 note=71 velocity=70 time=4', 'note_on channel=0 note=64 velocity=41 time=8')
Note: ('note_on channel=0 note=69 velocity=63 time=64', 'note_on channel=0 note=69 velocity=0 time=31', 'note_on channel=0 note=71 velocity=70 time=4', 'note_on channel=0 note=64 velocity=41 time=8', 'note_on channel=0 note=68 velocity=51 time=0')
Note: ('note_on channel=0 note=69 velocity=0 time=31', 'note_on channel=0 note=71 velocity=70 time=4', 'note_on channel=0 note=64 velocity=41 time=8', 'note_on channel=0 note=68 velocity=51 time=0', 'note_on channel=0 note=71 velocity=0 time=12')
Note: ('note_on channel=0 note=71 velocity=70 time=4', 'note_on channel=0 note=64 velocity=41 time=8', 'note_on channel=0 note=68 velocity=51 time=0', 'note_on channel=0 note=71 velocity=0 time=12', 'note_on channel=0 note=68 velocity=0 time=0')
Note: ('note_on channel=0 note=64 velocity=41 time=8', 'note_on channel=0 note=68 velocity=51 time=0', 'note_on channel=0 note=71 velocity=0 time=12', 'note_on channel=0 note=68 velocity=0 time=0', 'note_on channel=0 note=64 velocity=0 time=3')
Note: ('note_on channel=0 note=68 velocity=51 time=0', 'note_on channel=0 note=71 velocity=0 time=12', 'note_on channel=0 note=68 velocity=0 time=0', 'note_on channel=0 note=64 velocity=0 time=3', 'note_on channel=0 note=64 velocity=67 time=0')
Note: ('note_on channel=0 note=71 velocity=0 time=12', 'note_on channel=0 note=68 velocity=0 time=0', 'note_on channel=0 note=64 velocity=0 time=3', 'note_on channel=0 note=64 velocity=67 time=0', 'note_on channel=0 note=49 velocity=51 time=11')
Note: ('note_on channel=0 note=68 velocity=0 time=0', 'note_on channel=0 note=64 velocity=0 time=3', 'note_on channel=0 note=64 velocity=67 time=0', 'note_on channel=0 note=49 velocity=51 time=11', 'note_on channel=0 note=64 velocity=0 time=22')
Note: ('note_on channel=0 note=64 velocity=0 time=3', 'note_on channel=0 note=64 velocity=67 time=0', 'note_on channel=0 note=49 velocity=51 time=11', 'note_on channel=0 note=64 velocity=0 time=22', 'note_on channel=0 note=49 velocity=0 time=1')
Note: ('note_on channel=0 note=64 velocity=67 time=0', 'note_on channel=0 note=49 velocity=51 time=11', 'note_on channel=0 note=64 velocity=0 time=22', 'note_on channel=0 note=49 velocity=0 time=1', 'note_on channel=0 note=66 velocity=63 time=21')
Note: ('note_on channel=0 note=49 velocity=51 time=11', 'note_on channel=0 note=64 velocity=0 time=22', 'note_on channel=0 note=49 velocity=0 time=1', 'note_on channel=0 note=66 velocity=63 time=21', 'note_on channel=0 note=64 velocity=64 time=62')
Note: ('note_on channel=0 note=64 velocity=0 time=22', 'note_on channel=0 note=49 velocity=0 time=1', 'note_on channel=0 note=66 velocity=63 time=21', 'note_on channel=0 note=64 velocity=64 time=62', 'note_on channel=0 note=66 velocity=0 time=23')
Note: ('note_on channel=0 note=49 velocity=0 time=1', 'note_on channel=0 note=66 velocity=63 time=21', 'note_on channel=0 note=64 velocity=64 time=62', 'note_on channel=0 note=66 velocity=0 time=23', 'note_on channel=0 note=57 velocity=58 time=4')
Note: ('note_on channel=0 note=66 velocity=63 time=21', 'note_on channel=0 note=64 velocity=64 time=62', 'note_on channel=0 note=66 velocity=0 time=23', 'note_on channel=0 note=57 velocity=58 time=4', 'note_on channel=0 note=64 velocity=0 time=16')
Note: ('note_on channel=0 note=64 velocity=64 time=62', 'note_on channel=0 note=66 velocity=0 time=23', 'note_on channel=0 note=57 velocity=58 time=4', 'note_on channel=0 note=64 velocity=0 time=16', 'note_on channel=0 note=57 velocity=0 time=15')
Note: ('note_on channel=0 note=66 velocity=0 time=23', 'note_on channel=0 note=57 velocity=58 time=4', 'note_on channel=0 note=64 velocity=0 time=16', 'note_on channel=0 note=57 velocity=0 time=15', 'note_on channel=0 note=62 velocity=70 time=16')
Note: ('note_on channel=0 note=57 velocity=58 time=4', 'note_on channel=0 note=64 velocity=0 time=16', 'note_on channel=0 note=57 velocity=0 time=15', 'note_on channel=0 note=62 velocity=70 time=16', 'note_on channel=0 note=64 velocity=58 time=48')
Note: ('note_on channel=0 note=64 velocity=0 time=16', 'note_on channel=0 note=57 velocity=0 time=15', 'note_on channel=0 note=62 velocity=70 time=16', 'note_on channel=0 note=64 velocity=58 time=48', 'note_on channel=0 note=62 velocity=0 time=3')
Note: ('note_on channel=0 note=57 velocity=0 time=15', 'note_on channel=0 note=62 velocity=70 time=16', 'note_on channel=0 note=64 velocity=58 time=48', 'note_on channel=0 note=62 velocity=0 time=3', 'note_on channel=0 note=66 velocity=72 time=61')
Note: ('note_on channel=0 note=62 velocity=70 time=16', 'note_on channel=0 note=64 velocity=58 time=48', 'note_on channel=0 note=62 velocity=0 time=3', 'note_on channel=0 note=66 velocity=72 time=61', 'note_on channel=0 note=50 velocity=51 time=2')
Note: ('note_on channel=0 note=64 velocity=58 time=48', 'note_on channel=0 note=62 velocity=0 time=3', 'note_on channel=0 note=66 velocity=72 time=61', 'note_on channel=0 note=50 velocity=51 time=2', 'note_on channel=0 note=64 velocity=0 time=27')
Note: ('note_on channel=0 note=62 velocity=0 time=3', 'note_on channel=0 note=66 velocity=72 time=61', 'note_on channel=0 note=50 velocity=51 time=2', 'note_on channel=0 note=64 velocity=0 time=27', 'note_on channel=0 note=50 velocity=0 time=6')
Note: ('note_on channel=0 note=66 velocity=72 time=61', 'note_on channel=0 note=50 velocity=51 time=2', 'note_on channel=0 note=64 velocity=0 time=27', 'note_on channel=0 note=50 velocity=0 time=6', 'note_on channel=0 note=66 velocity=0 time=21')
Note: ('note_on channel=0 note=50 velocity=51 time=2', 'note_on channel=0 note=64 velocity=0 time=27', 'note_on channel=0 note=50 velocity=0 time=6', 'note_on channel=0 note=66 velocity=0 time=21', 'note_on channel=0 note=68 velocity=69 time=3')
Note: ('note_on channel=0 note=64 velocity=0 time=27', 'note_on channel=0 note=50 velocity=0 time=6', 'note_on channel=0 note=66 velocity=0 time=21', 'note_on channel=0 note=68 velocity=69 time=3', 'note_on channel=0 note=66 velocity=66 time=67')
Note: ('note_on channel=0 note=50 velocity=0 time=6', 'note_on channel=0 note=66 velocity=0 time=21', 'note_on channel=0 note=68 velocity=69 time=3', 'note_on channel=0 note=66 velocity=66 time=67', 'note_on channel=0 note=68 velocity=0 time=9')
Note: ('note_on channel=0 note=66 velocity=0 time=21', 'note_on channel=0 note=68 velocity=69 time=3', 'note_on channel=0 note=66 velocity=66 time=67', 'note_on channel=0 note=68 velocity=0 time=9', 'note_on channel=0 note=59 velocity=56 time=17')
Note: ('note_on channel=0 note=68 velocity=69 time=3', 'note_on channel=0 note=66 velocity=66 time=67', 'note_on channel=0 note=68 velocity=0 time=9', 'note_on channel=0 note=59 velocity=56 time=17', 'note_on channel=0 note=59 velocity=0 time=30')
Note: ('note_on channel=0 note=66 velocity=66 time=67', 'note_on channel=0 note=68 velocity=0 time=9', 'note_on channel=0 note=59 velocity=56 time=17', 'note_on channel=0 note=59 velocity=0 time=30', 'note_on channel=0 note=66 velocity=0 time=2')
Note: ('note_on channel=0 note=68 velocity=0 time=9', 'note_on channel=0 note=59 velocity=56 time=17', 'note_on channel=0 note=59 velocity=0 time=30', 'note_on channel=0 note=66 velocity=0 time=2', 'note_on channel=0 note=64 velocity=65 time=14')
Note: ('note_on channel=0 note=59 velocity=56 time=17', 'note_on channel=0 note=59 velocity=0 time=30', 'note_on channel=0 note=66 velocity=0 time=2', 'note_on channel=0 note=64 velocity=65 time=14', 'note_on channel=0 note=66 velocity=60 time=48')
Note: ('note_on channel=0 note=59 velocity=0 time=30', 'note_on channel=0 note=66 velocity=0 time=2', 'note_on channel=0 note=64 velocity=65 time=14', 'note_on channel=0 note=66 velocity=60 time=48', 'note_on channel=0 note=64 velocity=0 time=34')
Note: ('note_on channel=0 note=66 velocity=0 time=2', 'note_on channel=0 note=64 velocity=65 time=14', 'note_on channel=0 note=66 velocity=60 time=48', 'note_on channel=0 note=64 velocity=0 time=34', 'note_on channel=0 note=52 velocity=55 time=20')
Note: ('note_on channel=0 note=64 velocity=65 time=14', 'note_on channel=0 note=66 velocity=60 time=48', 'note_on channel=0 note=64 velocity=0 time=34', 'note_on channel=0 note=52 velocity=55 time=20', 'note_on channel=0 note=68 velocity=76 time=10')
Note: ('note_on channel=0 note=66 velocity=60 time=48', 'note_on channel=0 note=64 velocity=0 time=34', 'note_on channel=0 note=52 velocity=55 time=20', 'note_on channel=0 note=68 velocity=76 time=10', 'note_on channel=0 note=66 velocity=0 time=18')
Note: ('note_on channel=0 note=64 velocity=0 time=34', 'note_on channel=0 note=52 velocity=55 time=20', 'note_on channel=0 note=68 velocity=76 time=10', 'note_on channel=0 note=66 velocity=0 time=18', 'note_on channel=0 note=52 velocity=0 time=6')
Note: ('note_on channel=0 note=52 velocity=55 time=20', 'note_on channel=0 note=68 velocity=76 time=10', 'note_on channel=0 note=66 velocity=0 time=18', 'note_on channel=0 note=52 velocity=0 time=6', 'note_on channel=0 note=68 velocity=0 time=35')
Note: ('note_on channel=0 note=68 velocity=76 time=10', 'note_on channel=0 note=66 velocity=0 time=18', 'note_on channel=0 note=52 velocity=0 time=6', 'note_on channel=0 note=68 velocity=0 time=35', 'note_on channel=0 note=69 velocity=67 time=10')
Note: ('note_on channel=0 note=66 velocity=0 time=18', 'note_on channel=0 note=52 velocity=0 time=6', 'note_on channel=0 note=68 velocity=0 time=35', 'note_on channel=0 note=69 velocity=67 time=10', 'note_on channel=0 note=68 velocity=70 time=59')
Note: ('note_on channel=0 note=52 velocity=0 time=6', 'note_on channel=0 note=68 velocity=0 time=35', 'note_on channel=0 note=69 velocity=67 time=10', 'note_on channel=0 note=68 velocity=70 time=59', 'note_on channel=0 note=69 velocity=0 time=9')
Note: ('note_on channel=0 note=68 velocity=0 time=35', 'note_on channel=0 note=69 velocity=67 time=10', 'note_on channel=0 note=68 velocity=70 time=59', 'note_on channel=0 note=69 velocity=0 time=9', 'note_on channel=0 note=61 velocity=59 time=12')
Note: ('note_on channel=0 note=69 velocity=67 time=10', 'note_on channel=0 note=68 velocity=70 time=59', 'note_on channel=0 note=69 velocity=0 time=9', 'note_on channel=0 note=61 velocity=59 time=12', 'note_on channel=0 note=61 velocity=0 time=30')
Note: ('note_on channel=0 note=68 velocity=70 time=59', 'note_on channel=0 note=69 velocity=0 time=9', 'note_on channel=0 note=61 velocity=59 time=12', 'note_on channel=0 note=61 velocity=0 time=30', 'note_on channel=0 note=68 velocity=0 time=3')
Note: ('note_on channel=0 note=69 velocity=0 time=9', 'note_on channel=0 note=61 velocity=59 time=12', 'note_on channel=0 note=61 velocity=0 time=30', 'note_on channel=0 note=68 velocity=0 time=3', 'note_on channel=0 note=66 velocity=72 time=9')
Note: ('note_on channel=0 note=61 velocity=59 time=12', 'note_on channel=0 note=61 velocity=0 time=30', 'note_on channel=0 note=68 velocity=0 time=3', 'note_on channel=0 note=66 velocity=72 time=9', 'note_on channel=0 note=66 velocity=0 time=67')
Note: ('note_on channel=0 note=61 velocity=0 time=30', 'note_on channel=0 note=68 velocity=0 time=3', 'note_on channel=0 note=66 velocity=72 time=9', 'note_on channel=0 note=66 velocity=0 time=67', 'note_on channel=0 note=68 velocity=70 time=3')
Note: ('note_on channel=0 note=68 velocity=0 time=3', 'note_on channel=0 note=66 velocity=72 time=9', 'note_on channel=0 note=66 velocity=0 time=67', 'note_on channel=0 note=68 velocity=70 time=3', 'note_on channel=0 note=68 velocity=0 time=66')
Note: ('note_on channel=0 note=66 velocity=72 time=9', 'note_on channel=0 note=66 velocity=0 time=67', 'note_on channel=0 note=68 velocity=70 time=3', 'note_on channel=0 note=68 velocity=0 time=66', 'note_on channel=0 note=54 velocity=58 time=1')
Note: ('note_on channel=0 note=66 velocity=0 time=67', 'note_on channel=0 note=68 velocity=70 time=3', 'note_on channel=0 note=68 velocity=0 time=66', 'note_on channel=0 note=54 velocity=58 time=1', 'note_on channel=0 note=69 velocity=74 time=8')
Note: ('note_on channel=0 note=68 velocity=70 time=3', 'note_on channel=0 note=68 velocity=0 time=66', 'note_on channel=0 note=54 velocity=58 time=1', 'note_on channel=0 note=69 velocity=74 time=8', 'note_on channel=0 note=54 velocity=0 time=28')
Note: ('note_on channel=0 note=68 velocity=0 time=66', 'note_on channel=0 note=54 velocity=58 time=1', 'note_on channel=0 note=69 velocity=74 time=8', 'note_on channel=0 note=54 velocity=0 time=28', 'note_on channel=0 note=69 velocity=0 time=33')
Note: ('note_on channel=0 note=54 velocity=58 time=1', 'note_on channel=0 note=69 velocity=74 time=8', 'note_on channel=0 note=54 velocity=0 time=28', 'note_on channel=0 note=69 velocity=0 time=33', 'note_on channel=0 note=71 velocity=63 time=15')
Note: ('note_on channel=0 note=69 velocity=74 time=8', 'note_on channel=0 note=54 velocity=0 time=28', 'note_on channel=0 note=69 velocity=0 time=33', 'note_on channel=0 note=71 velocity=63 time=15', 'note_on channel=0 note=71 velocity=0 time=59')
Note: ('note_on channel=0 note=54 velocity=0 time=28', 'note_on channel=0 note=69 velocity=0 time=33', 'note_on channel=0 note=71 velocity=63 time=15', 'note_on channel=0 note=71 velocity=0 time=59', 'note_on channel=0 note=69 velocity=66 time=6')
Note: ('note_on channel=0 note=69 velocity=0 time=33', 'note_on channel=0 note=71 velocity=63 time=15', 'note_on channel=0 note=71 velocity=0 time=59', 'note_on channel=0 note=69 velocity=66 time=6', 'note_on channel=0 note=62 velocity=65 time=10')
Note: ('note_on channel=0 note=71 velocity=63 time=15', 'note_on channel=0 note=71 velocity=0 time=59', 'note_on channel=0 note=69 velocity=66 time=6', 'note_on channel=0 note=62 velocity=65 time=10', 'note_on channel=0 note=62 velocity=0 time=6')
Note: ('note_on channel=0 note=71 velocity=0 time=59', 'note_on channel=0 note=69 velocity=66 time=6', 'note_on channel=0 note=62 velocity=65 time=10', 'note_on channel=0 note=62 velocity=0 time=6', 'note_on channel=0 note=69 velocity=0 time=4')
Note: ('note_on channel=0 note=69 velocity=66 time=6', 'note_on channel=0 note=62 velocity=65 time=10', 'note_on channel=0 note=62 velocity=0 time=6', 'note_on channel=0 note=69 velocity=0 time=4', 'note_on channel=0 note=68 velocity=69 time=1')
Note: ('note_on channel=0 note=62 velocity=65 time=10', 'note_on channel=0 note=62 velocity=0 time=6', 'note_on channel=0 note=69 velocity=0 time=4', 'note_on channel=0 note=68 velocity=69 time=1', 'note_on channel=0 note=68 velocity=0 time=16')
Note: ('note_on channel=0 note=62 velocity=0 time=6', 'note_on channel=0 note=69 velocity=0 time=4', 'note_on channel=0 note=68 velocity=69 time=1', 'note_on channel=0 note=68 velocity=0 time=16', 'note_on channel=0 note=69 velocity=70 time=4')
Note: ('note_on channel=0 note=69 velocity=0 time=4', 'note_on channel=0 note=68 velocity=69 time=1', 'note_on channel=0 note=68 velocity=0 time=16', 'note_on channel=0 note=69 velocity=70 time=4', 'note_on channel=0 note=56 velocity=60 time=13')
Note: ('note_on channel=0 note=68 velocity=69 time=1', 'note_on channel=0 note=68 velocity=0 time=16', 'note_on channel=0 note=69 velocity=70 time=4', 'note_on channel=0 note=56 velocity=60 time=13', 'note_on channel=0 note=69 velocity=0 time=3')
Note: ('note_on channel=0 note=68 velocity=0 time=16', 'note_on channel=0 note=69 velocity=70 time=4', 'note_on channel=0 note=56 velocity=60 time=13', 'note_on channel=0 note=69 velocity=0 time=3', 'note_on channel=0 note=71 velocity=74 time=1')
Note: ('note_on channel=0 note=69 velocity=70 time=4', 'note_on channel=0 note=56 velocity=60 time=13', 'note_on channel=0 note=69 velocity=0 time=3', 'note_on channel=0 note=71 velocity=74 time=1', 'note_on channel=0 note=56 velocity=0 time=17')
Note: ('note_on channel=0 note=56 velocity=60 time=13', 'note_on channel=0 note=69 velocity=0 time=3', 'note_on channel=0 note=71 velocity=74 time=1', 'note_on channel=0 note=56 velocity=0 time=17', 'note_on channel=0 note=71 velocity=0 time=2')
Note: ('note_on channel=0 note=69 velocity=0 time=3', 'note_on channel=0 note=71 velocity=74 time=1', 'note_on channel=0 note=56 velocity=0 time=17', 'note_on channel=0 note=71 velocity=0 time=2', 'note_on channel=0 note=73 velocity=75 time=3')
Note: ('note_on channel=0 note=71 velocity=74 time=1', 'note_on channel=0 note=56 velocity=0 time=17', 'note_on channel=0 note=71 velocity=0 time=2', 'note_on channel=0 note=73 velocity=75 time=3', 'note_on channel=0 note=71 velocity=76 time=19')
Note: ('note_on channel=0 note=56 velocity=0 time=17', 'note_on channel=0 note=71 velocity=0 time=2', 'note_on channel=0 note=73 velocity=75 time=3', 'note_on channel=0 note=71 velocity=76 time=19', 'note_on channel=0 note=64 velocity=69 time=7')
Note: ('note_on channel=0 note=71 velocity=0 time=2', 'note_on channel=0 note=73 velocity=75 time=3', 'note_on channel=0 note=71 velocity=76 time=19', 'note_on channel=0 note=64 velocity=69 time=7', 'note_on channel=0 note=73 velocity=0 time=6')
Note: ('note_on channel=0 note=73 velocity=75 time=3', 'note_on channel=0 note=71 velocity=76 time=19', 'note_on channel=0 note=64 velocity=69 time=7', 'note_on channel=0 note=73 velocity=0 time=6', 'note_on channel=0 note=64 velocity=0 time=22')
Note: ('note_on channel=0 note=71 velocity=76 time=19', 'note_on channel=0 note=64 velocity=69 time=7', 'note_on channel=0 note=73 velocity=0 time=6', 'note_on channel=0 note=64 velocity=0 time=22', 'note_on channel=0 note=71 velocity=0 time=4')
Note: ('note_on channel=0 note=64 velocity=69 time=7', 'note_on channel=0 note=73 velocity=0 time=6', 'note_on channel=0 note=64 velocity=0 time=22', 'note_on channel=0 note=71 velocity=0 time=4', 'note_on channel=0 note=69 velocity=70 time=10')
Note: ('note_on channel=0 note=73 velocity=0 time=6', 'note_on channel=0 note=64 velocity=0 time=22', 'note_on channel=0 note=71 velocity=0 time=4', 'note_on channel=0 note=69 velocity=70 time=10', 'note_on channel=0 note=71 velocity=69 time=22')
Note: ('note_on channel=0 note=64 velocity=0 time=22', 'note_on channel=0 note=71 velocity=0 time=4', 'note_on channel=0 note=69 velocity=70 time=10', 'note_on channel=0 note=71 velocity=69 time=22', 'note_on channel=0 note=69 velocity=0 time=0')
Note: ('note_on channel=0 note=71 velocity=0 time=4', 'note_on channel=0 note=69 velocity=70 time=10', 'note_on channel=0 note=71 velocity=69 time=22', 'note_on channel=0 note=69 velocity=0 time=0', 'note_on channel=0 note=57 velocity=67 time=15')
Note: ('note_on channel=0 note=69 velocity=70 time=10', 'note_on channel=0 note=71 velocity=69 time=22', 'note_on channel=0 note=69 velocity=0 time=0', 'note_on channel=0 note=57 velocity=67 time=15', 'note_on channel=0 note=73 velocity=83 time=9')
Note: ('note_on channel=0 note=71 velocity=69 time=22', 'note_on channel=0 note=69 velocity=0 time=0', 'note_on channel=0 note=57 velocity=67 time=15', 'note_on channel=0 note=73 velocity=83 time=9', 'note_on channel=0 note=57 velocity=0 time=5')
Note: ('note_on channel=0 note=69 velocity=0 time=0', 'note_on channel=0 note=57 velocity=67 time=15', 'note_on channel=0 note=73 velocity=83 time=9', 'note_on channel=0 note=57 velocity=0 time=5', 'note_on channel=0 note=71 velocity=0 time=1')
Note: ('note_on channel=0 note=57 velocity=67 time=15', 'note_on channel=0 note=73 velocity=83 time=9', 'note_on channel=0 note=57 velocity=0 time=5', 'note_on channel=0 note=71 velocity=0 time=1', 'note_on channel=0 note=74 velocity=72 time=10')
Note: ('note_on channel=0 note=73 velocity=83 time=9', 'note_on channel=0 note=57 velocity=0 time=5', 'note_on channel=0 note=71 velocity=0 time=1', 'note_on channel=0 note=74 velocity=72 time=10', 'note_on channel=0 note=73 velocity=0 time=4')
Note: ('note_on channel=0 note=57 velocity=0 time=5', 'note_on channel=0 note=71 velocity=0 time=1', 'note_on channel=0 note=74 velocity=72 time=10', 'note_on channel=0 note=73 velocity=0 time=4', 'note_on channel=0 note=73 velocity=72 time=59')
Note: ('note_on channel=0 note=71 velocity=0 time=1', 'note_on channel=0 note=74 velocity=72 time=10', 'note_on channel=0 note=73 velocity=0 time=4', 'note_on channel=0 note=73 velocity=72 time=59', 'note_on channel=0 note=74 velocity=0 time=16')
Note: ('note_on channel=0 note=74 velocity=72 time=10', 'note_on channel=0 note=73 velocity=0 time=4', 'note_on channel=0 note=73 velocity=72 time=59', 'note_on channel=0 note=74 velocity=0 time=16', 'note_on channel=0 note=66 velocity=70 time=4')
Note: ('note_on channel=0 note=73 velocity=0 time=4', 'note_on channel=0 note=73 velocity=72 time=59', 'note_on channel=0 note=74 velocity=0 time=16', 'note_on channel=0 note=66 velocity=70 time=4', 'note_on channel=0 note=66 velocity=0 time=6')
Note: ('note_on channel=0 note=73 velocity=72 time=59', 'note_on channel=0 note=74 velocity=0 time=16', 'note_on channel=0 note=66 velocity=70 time=4', 'note_on channel=0 note=66 velocity=0 time=6', 'note_on channel=0 note=73 velocity=0 time=13')
Note: ('note_on channel=0 note=74 velocity=0 time=16', 'note_on channel=0 note=66 velocity=70 time=4', 'note_on channel=0 note=66 velocity=0 time=6', 'note_on channel=0 note=73 velocity=0 time=13', 'note_on channel=0 note=71 velocity=71 time=10')
Note: ('note_on channel=0 note=66 velocity=70 time=4', 'note_on channel=0 note=66 velocity=0 time=6', 'note_on channel=0 note=73 velocity=0 time=13', 'note_on channel=0 note=71 velocity=71 time=10', 'note_on channel=0 note=73 velocity=73 time=17')
Note: ('note_on channel=0 note=66 velocity=0 time=6', 'note_on channel=0 note=73 velocity=0 time=13', 'note_on channel=0 note=71 velocity=71 time=10', 'note_on channel=0 note=73 velocity=73 time=17', 'note_on channel=0 note=71 velocity=0 time=10')
Note: ('note_on channel=0 note=73 velocity=0 time=13', 'note_on channel=0 note=71 velocity=71 time=10', 'note_on channel=0 note=73 velocity=73 time=17', 'note_on channel=0 note=71 velocity=0 time=10', 'note_on channel=0 note=59 velocity=63 time=7')
Note: ('note_on channel=0 note=71 velocity=71 time=10', 'note_on channel=0 note=73 velocity=73 time=17', 'note_on channel=0 note=71 velocity=0 time=10', 'note_on channel=0 note=59 velocity=63 time=7', 'note_on channel=0 note=74 velocity=88 time=3')
Note: ('note_on channel=0 note=73 velocity=73 time=17', 'note_on channel=0 note=71 velocity=0 time=10', 'note_on channel=0 note=59 velocity=63 time=7', 'note_on channel=0 note=74 velocity=88 time=3', 'note_on channel=0 note=59 velocity=0 time=4')
Note: ('note_on channel=0 note=71 velocity=0 time=10', 'note_on channel=0 note=59 velocity=63 time=7', 'note_on channel=0 note=74 velocity=88 time=3', 'note_on channel=0 note=59 velocity=0 time=4', 'note_on channel=0 note=73 velocity=0 time=10')
Note: ('note_on channel=0 note=59 velocity=63 time=7', 'note_on channel=0 note=74 velocity=88 time=3', 'note_on channel=0 note=59 velocity=0 time=4', 'note_on channel=0 note=73 velocity=0 time=10', 'note_on channel=0 note=74 velocity=0 time=14')
Note: ('note_on channel=0 note=74 velocity=88 time=3', 'note_on channel=0 note=59 velocity=0 time=4', 'note_on channel=0 note=73 velocity=0 time=10', 'note_on channel=0 note=74 velocity=0 time=14', 'note_on channel=0 note=76 velocity=76 time=3')
Note: ('note_on channel=0 note=59 velocity=0 time=4', 'note_on channel=0 note=73 velocity=0 time=10', 'note_on channel=0 note=74 velocity=0 time=14', 'note_on channel=0 note=76 velocity=76 time=3', 'note_on channel=0 note=74 velocity=78 time=47')
Note: ('note_on channel=0 note=73 velocity=0 time=10', 'note_on channel=0 note=74 velocity=0 time=14', 'note_on channel=0 note=76 velocity=76 time=3', 'note_on channel=0 note=74 velocity=78 time=47', 'note_on channel=0 note=68 velocity=71 time=5')
Note: ('note_on channel=0 note=74 velocity=0 time=14', 'note_on channel=0 note=76 velocity=76 time=3', 'note_on channel=0 note=74 velocity=78 time=47', 'note_on channel=0 note=68 velocity=71 time=5', 'note_on channel=0 note=76 velocity=0 time=3')
Note: ('note_on channel=0 note=76 velocity=76 time=3', 'note_on channel=0 note=74 velocity=78 time=47', 'note_on channel=0 note=68 velocity=71 time=5', 'note_on channel=0 note=76 velocity=0 time=3', 'note_on channel=0 note=68 velocity=0 time=5')
Note: ('note_on channel=0 note=74 velocity=78 time=47', 'note_on channel=0 note=68 velocity=71 time=5', 'note_on channel=0 note=76 velocity=0 time=3', 'note_on channel=0 note=68 velocity=0 time=5', 'note_on channel=0 note=74 velocity=0 time=19')
Note: ('note_on channel=0 note=68 velocity=71 time=5', 'note_on channel=0 note=76 velocity=0 time=3', 'note_on channel=0 note=68 velocity=0 time=5', 'note_on channel=0 note=74 velocity=0 time=19', 'note_on channel=0 note=73 velocity=77 time=1')
Note: ('note_on channel=0 note=76 velocity=0 time=3', 'note_on channel=0 note=68 velocity=0 time=5', 'note_on channel=0 note=74 velocity=0 time=19', 'note_on channel=0 note=73 velocity=77 time=1', 'note_on channel=0 note=73 velocity=0 time=28')
Note: ('note_on channel=0 note=68 velocity=0 time=5', 'note_on channel=0 note=74 velocity=0 time=19', 'note_on channel=0 note=73 velocity=77 time=1', 'note_on channel=0 note=73 velocity=0 time=28', 'note_on channel=0 note=74 velocity=72 time=7')
Note: ('note_on channel=0 note=74 velocity=0 time=19', 'note_on channel=0 note=73 velocity=77 time=1', 'note_on channel=0 note=73 velocity=0 time=28', 'note_on channel=0 note=74 velocity=72 time=7', 'note_on channel=0 note=76 velocity=86 time=8')
Note: ('note_on channel=0 note=73 velocity=77 time=1', 'note_on channel=0 note=73 velocity=0 time=28', 'note_on channel=0 note=74 velocity=72 time=7', 'note_on channel=0 note=76 velocity=86 time=8', 'note_on channel=0 note=74 velocity=0 time=10')
Note: ('note_on channel=0 note=73 velocity=0 time=28', 'note_on channel=0 note=74 velocity=72 time=7', 'note_on channel=0 note=76 velocity=86 time=8', 'note_on channel=0 note=74 velocity=0 time=10', 'note_on channel=0 note=61 velocity=73 time=6')
Note: ('note_on channel=0 note=74 velocity=72 time=7', 'note_on channel=0 note=76 velocity=86 time=8', 'note_on channel=0 note=74 velocity=0 time=10', 'note_on channel=0 note=61 velocity=73 time=6', 'note_on channel=0 note=61 velocity=0 time=3')
Note: ('note_on channel=0 note=76 velocity=86 time=8', 'note_on channel=0 note=74 velocity=0 time=10', 'note_on channel=0 note=61 velocity=73 time=6', 'note_on channel=0 note=61 velocity=0 time=3', 'note_on channel=0 note=78 velocity=87 time=3')
Note: ('note_on channel=0 note=74 velocity=0 time=10', 'note_on channel=0 note=61 velocity=73 time=6', 'note_on channel=0 note=61 velocity=0 time=3', 'note_on channel=0 note=78 velocity=87 time=3', 'note_on channel=0 note=76 velocity=0 time=3')
Note: ('note_on channel=0 note=61 velocity=73 time=6', 'note_on channel=0 note=61 velocity=0 time=3', 'note_on channel=0 note=78 velocity=87 time=3', 'note_on channel=0 note=76 velocity=0 time=3', 'note_on channel=0 note=76 velocity=79 time=3')
Note: ('note_on channel=0 note=61 velocity=0 time=3', 'note_on channel=0 note=78 velocity=87 time=3', 'note_on channel=0 note=76 velocity=0 time=3', 'note_on channel=0 note=76 velocity=79 time=3', 'note_on channel=0 note=78 velocity=0 time=0')
Note: ('note_on channel=0 note=78 velocity=87 time=3', 'note_on channel=0 note=76 velocity=0 time=3', 'note_on channel=0 note=76 velocity=79 time=3', 'note_on channel=0 note=78 velocity=0 time=0', 'note_on channel=0 note=69 velocity=72 time=3')
Note: ('note_on channel=0 note=76 velocity=0 time=3', 'note_on channel=0 note=76 velocity=79 time=3', 'note_on channel=0 note=78 velocity=0 time=0', 'note_on channel=0 note=69 velocity=72 time=3', 'note_on channel=0 note=76 velocity=0 time=13')
Note: ('note_on channel=0 note=76 velocity=79 time=3', 'note_on channel=0 note=78 velocity=0 time=0', 'note_on channel=0 note=69 velocity=72 time=3', 'note_on channel=0 note=76 velocity=0 time=13', 'note_on channel=0 note=69 velocity=0 time=3')
Note: ('note_on channel=0 note=78 velocity=0 time=0', 'note_on channel=0 note=69 velocity=72 time=3', 'note_on channel=0 note=76 velocity=0 time=13', 'note_on channel=0 note=69 velocity=0 time=3', 'note_on channel=0 note=74 velocity=87 time=7')
Note: ('note_on channel=0 note=69 velocity=72 time=3', 'note_on channel=0 note=76 velocity=0 time=13', 'note_on channel=0 note=69 velocity=0 time=3', 'note_on channel=0 note=74 velocity=87 time=7', 'note_on channel=0 note=76 velocity=76 time=5')
Note: ('note_on channel=0 note=76 velocity=0 time=13', 'note_on channel=0 note=69 velocity=0 time=3', 'note_on channel=0 note=74 velocity=87 time=7', 'note_on channel=0 note=76 velocity=76 time=5', 'note_on channel=0 note=74 velocity=0 time=1')
Note: ('note_on channel=0 note=69 velocity=0 time=3', 'note_on channel=0 note=74 velocity=87 time=7', 'note_on channel=0 note=76 velocity=76 time=5', 'note_on channel=0 note=74 velocity=0 time=1', 'note_on channel=0 note=62 velocity=81 time=8')
Note: ('note_on channel=0 note=74 velocity=87 time=7', 'note_on channel=0 note=76 velocity=76 time=5', 'note_on channel=0 note=74 velocity=0 time=1', 'note_on channel=0 note=62 velocity=81 time=8', 'note_on channel=0 note=78 velocity=99 time=6')
Note: ('note_on channel=0 note=76 velocity=76 time=5', 'note_on channel=0 note=74 velocity=0 time=1', 'note_on channel=0 note=62 velocity=81 time=8', 'note_on channel=0 note=78 velocity=99 time=6', 'note_on channel=0 note=76 velocity=0 time=3')
Note: ('note_on channel=0 note=74 velocity=92 time=786', 'note_on channel=0 note=74 velocity=0 time=48', 'note_on channel=0 note=81 velocity=93 time=353', 'note_on channel=0 note=57 velocity=79 time=373', 'note_on channel=0 note=57 velocity=0 time=49')
Note: ('note_on channel=0 note=74 velocity=0 time=48', 'note_on channel=0 note=81 velocity=93 time=353', 'note_on channel=0 note=57 velocity=79 time=373', 'note_on channel=0 note=57 velocity=0 time=49', 'note_on channel=0 note=62 velocity=86 time=337')
Note: ('note_on channel=0 note=81 velocity=93 time=353', 'note_on channel=0 note=57 velocity=79 time=373', 'note_on channel=0 note=57 velocity=0 time=49', 'note_on channel=0 note=62 velocity=86 time=337', 'note_on channel=0 note=62 velocity=0 time=12')
Note: ('note_on channel=0 note=57 velocity=79 time=373', 'note_on channel=0 note=57 velocity=0 time=49', 'note_on channel=0 note=62 velocity=86 time=337', 'note_on channel=0 note=62 velocity=0 time=12', 'note_on channel=0 note=81 velocity=0 time=0')
Note: ('note_on channel=0 note=57 velocity=0 time=49', 'note_on channel=0 note=62 velocity=86 time=337', 'note_on channel=0 note=62 velocity=0 time=12', 'note_on channel=0 note=81 velocity=0 time=0', 'note_on channel=0 note=78 velocity=97 time=304')
Note: ('note_on channel=0 note=62 velocity=86 time=337', 'note_on channel=0 note=62 velocity=0 time=12', 'note_on channel=0 note=81 velocity=0 time=0', 'note_on channel=0 note=78 velocity=97 time=304', 'note_on channel=0 note=74 velocity=82 time=7')
Note: ('note_on channel=0 note=62 velocity=0 time=12', 'note_on channel=0 note=81 velocity=0 time=0', 'note_on channel=0 note=78 velocity=97 time=304', 'note_on channel=0 note=74 velocity=82 time=7', 'note_on channel=0 note=74 velocity=0 time=319')
Note: ('note_on channel=0 note=81 velocity=0 time=0', 'note_on channel=0 note=78 velocity=97 time=304', 'note_on channel=0 note=74 velocity=82 time=7', 'note_on channel=0 note=74 velocity=0 time=319', 'note_on channel=0 note=73 velocity=73 time=36')
Note: ('note_on channel=0 note=78 velocity=97 time=304', 'note_on channel=0 note=74 velocity=82 time=7', 'note_on channel=0 note=74 velocity=0 time=319', 'note_on channel=0 note=73 velocity=73 time=36', 'note_on channel=0 note=76 velocity=79 time=7')
Note: ('note_on channel=0 note=74 velocity=82 time=7', 'note_on channel=0 note=74 velocity=0 time=319', 'note_on channel=0 note=73 velocity=73 time=36', 'note_on channel=0 note=76 velocity=79 time=7', 'note_on channel=0 note=78 velocity=0 time=2')
Note: ('note_on channel=0 note=74 velocity=0 time=319', 'note_on channel=0 note=73 velocity=73 time=36', 'note_on channel=0 note=76 velocity=79 time=7', 'note_on channel=0 note=78 velocity=0 time=2', 'note_on channel=0 note=73 velocity=0 time=25')
Note: ('note_on channel=0 note=73 velocity=73 time=36', 'note_on channel=0 note=76 velocity=79 time=7', 'note_on channel=0 note=78 velocity=0 time=2', 'note_on channel=0 note=73 velocity=0 time=25', 'note_on channel=0 note=76 velocity=0 time=11')
Note: ('note_on channel=0 note=76 velocity=79 time=7', 'note_on channel=0 note=78 velocity=0 time=2', 'note_on channel=0 note=73 velocity=0 time=25', 'note_on channel=0 note=76 velocity=0 time=11', 'note_on channel=0 note=71 velocity=78 time=65')
Note: ('note_on channel=0 note=78 velocity=0 time=2', 'note_on channel=0 note=73 velocity=0 time=25', 'note_on channel=0 note=76 velocity=0 time=11', 'note_on channel=0 note=71 velocity=78 time=65', 'note_on channel=0 note=74 velocity=72 time=4')
Note: ('note_on channel=0 note=73 velocity=0 time=25', 'note_on channel=0 note=76 velocity=0 time=11', 'note_on channel=0 note=71 velocity=78 time=65', 'note_on channel=0 note=74 velocity=72 time=4', 'note_on channel=0 note=71 velocity=0 time=26')
Note: ('note_on channel=0 note=76 velocity=0 time=11', 'note_on channel=0 note=71 velocity=78 time=65', 'note_on channel=0 note=74 velocity=72 time=4', 'note_on channel=0 note=71 velocity=0 time=26', 'note_on channel=0 note=74 velocity=0 time=11')
Note: ('note_on channel=0 note=71 velocity=78 time=65', 'note_on channel=0 note=74 velocity=72 time=4', 'note_on channel=0 note=71 velocity=0 time=26', 'note_on channel=0 note=74 velocity=0 time=11', 'note_on channel=0 note=73 velocity=79 time=54')
Note: ('note_on channel=0 note=74 velocity=72 time=4', 'note_on channel=0 note=71 velocity=0 time=26', 'note_on channel=0 note=74 velocity=0 time=11', 'note_on channel=0 note=73 velocity=79 time=54', 'note_on channel=0 note=69 velocity=76 time=9')
Note: ('note_on channel=0 note=71 velocity=0 time=26', 'note_on channel=0 note=74 velocity=0 time=11', 'note_on channel=0 note=73 velocity=79 time=54', 'note_on channel=0 note=69 velocity=76 time=9', 'note_on channel=0 note=69 velocity=0 time=24')
Note: ('note_on channel=0 note=74 velocity=0 time=11', 'note_on channel=0 note=73 velocity=79 time=54', 'note_on channel=0 note=69 velocity=76 time=9', 'note_on channel=0 note=69 velocity=0 time=24', 'note_on channel=0 note=73 velocity=0 time=22')
Note: ('note_on channel=0 note=73 velocity=79 time=54', 'note_on channel=0 note=69 velocity=76 time=9', 'note_on channel=0 note=69 velocity=0 time=24', 'note_on channel=0 note=73 velocity=0 time=22', 'note_on channel=0 note=71 velocity=83 time=54')
Note: ('note_on channel=0 note=69 velocity=76 time=9', 'note_on channel=0 note=69 velocity=0 time=24', 'note_on channel=0 note=73 velocity=0 time=22', 'note_on channel=0 note=71 velocity=83 time=54', 'note_on channel=0 note=67 velocity=78 time=1')
Note: ('note_on channel=0 note=69 velocity=0 time=24', 'note_on channel=0 note=73 velocity=0 time=22', 'note_on channel=0 note=71 velocity=83 time=54', 'note_on channel=0 note=67 velocity=78 time=1', 'note_on channel=0 note=67 velocity=0 time=29')
Note: ('note_on channel=0 note=73 velocity=0 time=22', 'note_on channel=0 note=71 velocity=83 time=54', 'note_on channel=0 note=67 velocity=78 time=1', 'note_on channel=0 note=67 velocity=0 time=29', 'note_on channel=0 note=71 velocity=0 time=14')
Note: ('note_on channel=0 note=71 velocity=83 time=54', 'note_on channel=0 note=67 velocity=78 time=1', 'note_on channel=0 note=67 velocity=0 time=29', 'note_on channel=0 note=71 velocity=0 time=14', 'note_on channel=0 note=69 velocity=77 time=60')
Note: ('note_on channel=0 note=67 velocity=78 time=1', 'note_on channel=0 note=67 velocity=0 time=29', 'note_on channel=0 note=71 velocity=0 time=14', 'note_on channel=0 note=69 velocity=77 time=60', 'note_on channel=0 note=66 velocity=76 time=1')
Note: ('note_on channel=0 note=67 velocity=0 time=29', 'note_on channel=0 note=71 velocity=0 time=14', 'note_on channel=0 note=69 velocity=77 time=60', 'note_on channel=0 note=66 velocity=76 time=1', 'note_on channel=0 note=66 velocity=0 time=27')
Note: ('note_on channel=0 note=71 velocity=0 time=14', 'note_on channel=0 note=69 velocity=77 time=60', 'note_on channel=0 note=66 velocity=76 time=1', 'note_on channel=0 note=66 velocity=0 time=27', 'note_on channel=0 note=69 velocity=0 time=11')
Note: ('note_on channel=0 note=69 velocity=77 time=60', 'note_on channel=0 note=66 velocity=76 time=1', 'note_on channel=0 note=66 velocity=0 time=27', 'note_on channel=0 note=69 velocity=0 time=11', 'note_on channel=0 note=64 velocity=73 time=63')
Note: ('note_on channel=0 note=66 velocity=76 time=1', 'note_on channel=0 note=66 velocity=0 time=27', 'note_on channel=0 note=69 velocity=0 time=11', 'note_on channel=0 note=64 velocity=73 time=63', 'note_on channel=0 note=67 velocity=72 time=0')
Note: ('note_on channel=0 note=66 velocity=0 time=27', 'note_on channel=0 note=69 velocity=0 time=11', 'note_on channel=0 note=64 velocity=73 time=63', 'note_on channel=0 note=67 velocity=72 time=0', 'note_on channel=0 note=64 velocity=0 time=37')
Note: ('note_on channel=0 note=69 velocity=0 time=11', 'note_on channel=0 note=64 velocity=73 time=63', 'note_on channel=0 note=67 velocity=72 time=0', 'note_on channel=0 note=64 velocity=0 time=37', 'note_on channel=0 note=67 velocity=0 time=22')
Note: ('note_on channel=0 note=64 velocity=73 time=63', 'note_on channel=0 note=67 velocity=72 time=0', 'note_on channel=0 note=64 velocity=0 time=37', 'note_on channel=0 note=67 velocity=0 time=22', 'note_on channel=0 note=62 velocity=80 time=66')
Note: ('note_on channel=0 note=67 velocity=72 time=0', 'note_on channel=0 note=64 velocity=0 time=37', 'note_on channel=0 note=67 velocity=0 time=22', 'note_on channel=0 note=62 velocity=80 time=66', 'note_on channel=0 note=66 velocity=85 time=0')
Note: ('note_on channel=0 note=64 velocity=0 time=37', 'note_on channel=0 note=67 velocity=0 time=22', 'note_on channel=0 note=62 velocity=80 time=66', 'note_on channel=0 note=66 velocity=85 time=0', 'note_on channel=0 note=62 velocity=0 time=21')
Note: ('note_on channel=0 note=67 velocity=0 time=22', 'note_on channel=0 note=62 velocity=80 time=66', 'note_on channel=0 note=66 velocity=85 time=0', 'note_on channel=0 note=62 velocity=0 time=21', 'note_on channel=0 note=66 velocity=0 time=7')
Note: ('note_on channel=0 note=62 velocity=80 time=66', 'note_on channel=0 note=66 velocity=85 time=0', 'note_on channel=0 note=62 velocity=0 time=21', 'note_on channel=0 note=66 velocity=0 time=7', 'note_on channel=0 note=81 velocity=96 time=1')
Note: ('note_on channel=0 note=66 velocity=85 time=0', 'note_on channel=0 note=62 velocity=0 time=21', 'note_on channel=0 note=66 velocity=0 time=7', 'note_on channel=0 note=81 velocity=96 time=1', 'note_on channel=0 note=78 velocity=81 time=7')
Note: ('note_on channel=0 note=62 velocity=0 time=21', 'note_on channel=0 note=66 velocity=0 time=7', 'note_on channel=0 note=81 velocity=96 time=1', 'note_on channel=0 note=78 velocity=81 time=7', 'note_on channel=0 note=78 velocity=0 time=338')
Note: ('note_on channel=0 note=66 velocity=0 time=7', 'note_on channel=0 note=81 velocity=96 time=1', 'note_on channel=0 note=78 velocity=81 time=7', 'note_on channel=0 note=78 velocity=0 time=338', 'note_on channel=0 note=81 velocity=0 time=12')
Note: ('note_on channel=0 note=81 velocity=96 time=1', 'note_on channel=0 note=78 velocity=81 time=7', 'note_on channel=0 note=78 velocity=0 time=338', 'note_on channel=0 note=81 velocity=0 time=12', 'note_on channel=0 note=79 velocity=84 time=13')
Note: ('note_on channel=0 note=78 velocity=81 time=7', 'note_on channel=0 note=78 velocity=0 time=338', 'note_on channel=0 note=81 velocity=0 time=12', 'note_on channel=0 note=79 velocity=84 time=13', 'note_on channel=0 note=76 velocity=70 time=15')
Note: ('note_on channel=0 note=78 velocity=0 time=338', 'note_on channel=0 note=81 velocity=0 time=12', 'note_on channel=0 note=79 velocity=84 time=13', 'note_on channel=0 note=76 velocity=70 time=15', 'note_on channel=0 note=76 velocity=0 time=27')
Note: ('note_on channel=0 note=81 velocity=0 time=12', 'note_on channel=0 note=79 velocity=84 time=13', 'note_on channel=0 note=76 velocity=70 time=15', 'note_on channel=0 note=76 velocity=0 time=27', 'note_on channel=0 note=79 velocity=0 time=17')
Note: ('note_on channel=0 note=79 velocity=84 time=13', 'note_on channel=0 note=76 velocity=70 time=15', 'note_on channel=0 note=76 velocity=0 time=27', 'note_on channel=0 note=79 velocity=0 time=17', 'note_on channel=0 note=78 velocity=89 time=50')
Note: ('note_on channel=0 note=76 velocity=70 time=15', 'note_on channel=0 note=76 velocity=0 time=27', 'note_on channel=0 note=79 velocity=0 time=17', 'note_on channel=0 note=78 velocity=89 time=50', 'note_on channel=0 note=74 velocity=81 time=7')
Note: ('note_on channel=0 note=76 velocity=0 time=27', 'note_on channel=0 note=79 velocity=0 time=17', 'note_on channel=0 note=78 velocity=89 time=50', 'note_on channel=0 note=74 velocity=81 time=7', 'note_on channel=0 note=74 velocity=0 time=34')
Note: ('note_on channel=0 note=79 velocity=0 time=17', 'note_on channel=0 note=78 velocity=89 time=50', 'note_on channel=0 note=74 velocity=81 time=7', 'note_on channel=0 note=74 velocity=0 time=34', 'note_on channel=0 note=78 velocity=0 time=19')
Note: ('note_on channel=0 note=78 velocity=89 time=50', 'note_on channel=0 note=74 velocity=81 time=7', 'note_on channel=0 note=74 velocity=0 time=34', 'note_on channel=0 note=78 velocity=0 time=19', 'note_on channel=0 note=76 velocity=92 time=47')
Note: ('note_on channel=0 note=74 velocity=81 time=7', 'note_on channel=0 note=74 velocity=0 time=34', 'note_on channel=0 note=78 velocity=0 time=19', 'note_on channel=0 note=76 velocity=92 time=47', 'note_on channel=0 note=73 velocity=83 time=1')
Note: ('note_on channel=0 note=74 velocity=0 time=34', 'note_on channel=0 note=78 velocity=0 time=19', 'note_on channel=0 note=76 velocity=92 time=47', 'note_on channel=0 note=73 velocity=83 time=1', 'note_on channel=0 note=76 velocity=0 time=46')
Note: ('note_on channel=0 note=78 velocity=0 time=19', 'note_on channel=0 note=76 velocity=92 time=47', 'note_on channel=0 note=73 velocity=83 time=1', 'note_on channel=0 note=76 velocity=0 time=46', 'note_on channel=0 note=73 velocity=0 time=4')
Note: ('note_on channel=0 note=76 velocity=92 time=47', 'note_on channel=0 note=73 velocity=83 time=1', 'note_on channel=0 note=76 velocity=0 time=46', 'note_on channel=0 note=73 velocity=0 time=4', 'note_on channel=0 note=74 velocity=89 time=48')
Note: ('note_on channel=0 note=73 velocity=83 time=1', 'note_on channel=0 note=76 velocity=0 time=46', 'note_on channel=0 note=73 velocity=0 time=4', 'note_on channel=0 note=74 velocity=89 time=48', 'note_on channel=0 note=71 velocity=79 time=8')
Note: ('note_on channel=0 note=76 velocity=0 time=46', 'note_on channel=0 note=73 velocity=0 time=4', 'note_on channel=0 note=74 velocity=89 time=48', 'note_on channel=0 note=71 velocity=79 time=8', 'note_on channel=0 note=71 velocity=0 time=38')
Note: ('note_on channel=0 note=73 velocity=0 time=4', 'note_on channel=0 note=74 velocity=89 time=48', 'note_on channel=0 note=71 velocity=79 time=8', 'note_on channel=0 note=71 velocity=0 time=38', 'note_on channel=0 note=74 velocity=0 time=10')
Note: ('note_on channel=0 note=74 velocity=89 time=48', 'note_on channel=0 note=71 velocity=79 time=8', 'note_on channel=0 note=71 velocity=0 time=38', 'note_on channel=0 note=74 velocity=0 time=10', 'note_on channel=0 note=73 velocity=90 time=48')
Note: ('note_on channel=0 note=71 velocity=79 time=8', 'note_on channel=0 note=71 velocity=0 time=38', 'note_on channel=0 note=74 velocity=0 time=10', 'note_on channel=0 note=73 velocity=90 time=48', 'note_on channel=0 note=69 velocity=81 time=6')
Note: ('note_on channel=0 note=71 velocity=0 time=38', 'note_on channel=0 note=74 velocity=0 time=10', 'note_on channel=0 note=73 velocity=90 time=48', 'note_on channel=0 note=69 velocity=81 time=6', 'note_on channel=0 note=69 velocity=0 time=25')
Note: ('note_on channel=0 note=74 velocity=0 time=10', 'note_on channel=0 note=73 velocity=90 time=48', 'note_on channel=0 note=69 velocity=81 time=6', 'note_on channel=0 note=69 velocity=0 time=25', 'note_on channel=0 note=73 velocity=0 time=28')
Note: ('note_on channel=0 note=73 velocity=90 time=48', 'note_on channel=0 note=69 velocity=81 time=6', 'note_on channel=0 note=69 velocity=0 time=25', 'note_on channel=0 note=73 velocity=0 time=28', 'note_on channel=0 note=67 velocity=79 time=42')
Note: ('note_on channel=0 note=69 velocity=81 time=6', 'note_on channel=0 note=69 velocity=0 time=25', 'note_on channel=0 note=73 velocity=0 time=28', 'note_on channel=0 note=67 velocity=79 time=42', 'note_on channel=0 note=71 velocity=88 time=5')
Note: ('note_on channel=0 note=69 velocity=0 time=25', 'note_on channel=0 note=73 velocity=0 time=28', 'note_on channel=0 note=67 velocity=79 time=42', 'note_on channel=0 note=71 velocity=88 time=5', 'note_on channel=0 note=67 velocity=0 time=25')
Note: ('note_on channel=0 note=73 velocity=0 time=28', 'note_on channel=0 note=67 velocity=79 time=42', 'note_on channel=0 note=71 velocity=88 time=5', 'note_on channel=0 note=67 velocity=0 time=25', 'note_on channel=0 note=71 velocity=0 time=19')
Note: ('note_on channel=0 note=67 velocity=79 time=42', 'note_on channel=0 note=71 velocity=88 time=5', 'note_on channel=0 note=67 velocity=0 time=25', 'note_on channel=0 note=71 velocity=0 time=19', 'note_on channel=0 note=66 velocity=80 time=70')
Note: ('note_on channel=0 note=71 velocity=88 time=5', 'note_on channel=0 note=67 velocity=0 time=25', 'note_on channel=0 note=71 velocity=0 time=19', 'note_on channel=0 note=66 velocity=80 time=70', 'note_on channel=0 note=69 velocity=82 time=6')
Note: ('note_on channel=0 note=67 velocity=0 time=25', 'note_on channel=0 note=71 velocity=0 time=19', 'note_on channel=0 note=66 velocity=80 time=70', 'note_on channel=0 note=69 velocity=82 time=6', 'note_on channel=0 note=66 velocity=0 time=23')
Note: ('note_on channel=0 note=71 velocity=0 time=19', 'note_on channel=0 note=66 velocity=80 time=70', 'note_on channel=0 note=69 velocity=82 time=6', 'note_on channel=0 note=66 velocity=0 time=23', 'note_on channel=0 note=69 velocity=0 time=6')
Note: ('note_on channel=0 note=66 velocity=80 time=70', 'note_on channel=0 note=69 velocity=82 time=6', 'note_on channel=0 note=66 velocity=0 time=23', 'note_on channel=0 note=69 velocity=0 time=6', 'note_on channel=0 note=86 velocity=87 time=2')
Note: ('note_on channel=0 note=69 velocity=82 time=6', 'note_on channel=0 note=66 velocity=0 time=23', 'note_on channel=0 note=69 velocity=0 time=6', 'note_on channel=0 note=86 velocity=87 time=2', 'note_on channel=0 note=66 velocity=61 time=9')
Note: ('note_on channel=0 note=66 velocity=0 time=23', 'note_on channel=0 note=69 velocity=0 time=6', 'note_on channel=0 note=86 velocity=87 time=2', 'note_on channel=0 note=66 velocity=61 time=9', 'note_on channel=0 note=66 velocity=0 time=37')
Note: ('note_on channel=0 note=69 velocity=0 time=6', 'note_on channel=0 note=86 velocity=87 time=2', 'note_on channel=0 note=66 velocity=61 time=9', 'note_on channel=0 note=66 velocity=0 time=37', 'note_on channel=0 note=81 velocity=90 time=34')
Note: ('note_on channel=0 note=86 velocity=87 time=2', 'note_on channel=0 note=66 velocity=61 time=9', 'note_on channel=0 note=66 velocity=0 time=37', 'note_on channel=0 note=81 velocity=90 time=34', 'note_on channel=0 note=86 velocity=0 time=23')
Note: ('note_on channel=0 note=66 velocity=61 time=9', 'note_on channel=0 note=66 velocity=0 time=37', 'note_on channel=0 note=81 velocity=90 time=34', 'note_on channel=0 note=86 velocity=0 time=23', 'note_on channel=0 note=81 velocity=0 time=64')
Note: ('note_on channel=0 note=66 velocity=0 time=37', 'note_on channel=0 note=81 velocity=90 time=34', 'note_on channel=0 note=86 velocity=0 time=23', 'note_on channel=0 note=81 velocity=0 time=64', 'note_on channel=0 note=74 velocity=92 time=6')
Note: ('note_on channel=0 note=81 velocity=90 time=34', 'note_on channel=0 note=86 velocity=0 time=23', 'note_on channel=0 note=81 velocity=0 time=64', 'note_on channel=0 note=74 velocity=92 time=6', 'note_on channel=0 note=67 velocity=60 time=141')
Note: ('note_on channel=0 note=86 velocity=0 time=23', 'note_on channel=0 note=81 velocity=0 time=64', 'note_on channel=0 note=74 velocity=92 time=6', 'note_on channel=0 note=67 velocity=60 time=141', 'note_on channel=0 note=74 velocity=0 time=0')
Note: ('note_on channel=0 note=81 velocity=0 time=64', 'note_on channel=0 note=74 velocity=92 time=6', 'note_on channel=0 note=67 velocity=60 time=141', 'note_on channel=0 note=74 velocity=0 time=0', 'note_on channel=0 note=78 velocity=75 time=2')
Note: ('note_on channel=0 note=74 velocity=92 time=6', 'note_on channel=0 note=67 velocity=60 time=141', 'note_on channel=0 note=74 velocity=0 time=0', 'note_on channel=0 note=78 velocity=75 time=2', 'note_on channel=0 note=78 velocity=0 time=72')
Note: ('note_on channel=0 note=67 velocity=60 time=141', 'note_on channel=0 note=74 velocity=0 time=0', 'note_on channel=0 note=78 velocity=75 time=2', 'note_on channel=0 note=78 velocity=0 time=72', 'note_on channel=0 note=76 velocity=74 time=4')
Note: ('note_on channel=0 note=74 velocity=0 time=0', 'note_on channel=0 note=78 velocity=75 time=2', 'note_on channel=0 note=78 velocity=0 time=72', 'note_on channel=0 note=76 velocity=74 time=4', 'note_on channel=0 note=67 velocity=0 time=18')
Note: ('note_on channel=0 note=78 velocity=75 time=2', 'note_on channel=0 note=78 velocity=0 time=72', 'note_on channel=0 note=76 velocity=74 time=4', 'note_on channel=0 note=67 velocity=0 time=18', 'note_on channel=0 note=76 velocity=0 time=39')
Note: ('note_on channel=0 note=78 velocity=0 time=72', 'note_on channel=0 note=76 velocity=74 time=4', 'note_on channel=0 note=67 velocity=0 time=18', 'note_on channel=0 note=76 velocity=0 time=39', 'note_on channel=0 note=78 velocity=74 time=2')
Note: ('note_on channel=0 note=76 velocity=74 time=4', 'note_on channel=0 note=67 velocity=0 time=18', 'note_on channel=0 note=76 velocity=0 time=39', 'note_on channel=0 note=78 velocity=74 time=2', 'note_on channel=0 note=76 velocity=71 time=11')
Note: ('note_on channel=0 note=67 velocity=0 time=18', 'note_on channel=0 note=76 velocity=0 time=39', 'note_on channel=0 note=78 velocity=74 time=2', 'note_on channel=0 note=76 velocity=71 time=11', 'note_on channel=0 note=78 velocity=0 time=3')
Note: ('note_on channel=0 note=76 velocity=0 time=39', 'note_on channel=0 note=78 velocity=74 time=2', 'note_on channel=0 note=76 velocity=71 time=11', 'note_on channel=0 note=78 velocity=0 time=3', 'note_on channel=0 note=76 velocity=0 time=15')
Note: ('note_on channel=0 note=78 velocity=74 time=2', 'note_on channel=0 note=76 velocity=71 time=11', 'note_on channel=0 note=78 velocity=0 time=3', 'note_on channel=0 note=76 velocity=0 time=15', 'note_on channel=0 note=78 velocity=72 time=2')
Note: ('note_on channel=0 note=76 velocity=71 time=11', 'note_on channel=0 note=78 velocity=0 time=3', 'note_on channel=0 note=76 velocity=0 time=15', 'note_on channel=0 note=78 velocity=72 time=2', 'note_on channel=0 note=76 velocity=71 time=11')
Note: ('note_on channel=0 note=78 velocity=0 time=3', 'note_on channel=0 note=76 velocity=0 time=15', 'note_on channel=0 note=78 velocity=72 time=2', 'note_on channel=0 note=76 velocity=71 time=11', 'note_on channel=0 note=78 velocity=0 time=0')
Note: ('note_on channel=0 note=76 velocity=0 time=15', 'note_on channel=0 note=78 velocity=72 time=2', 'note_on channel=0 note=76 velocity=71 time=11', 'note_on channel=0 note=78 velocity=0 time=0', 'note_on channel=0 note=76 velocity=0 time=15')
Note: ('note_on channel=0 note=78 velocity=72 time=2', 'note_on channel=0 note=76 velocity=71 time=11', 'note_on channel=0 note=78 velocity=0 time=0', 'note_on channel=0 note=76 velocity=0 time=15', 'note_on channel=0 note=78 velocity=70 time=2')
Note: ('note_on channel=0 note=76 velocity=71 time=11', 'note_on channel=0 note=78 velocity=0 time=0', 'note_on channel=0 note=76 velocity=0 time=15', 'note_on channel=0 note=78 velocity=70 time=2', 'note_on channel=0 note=69 velocity=62 time=8')
Note: ('note_on channel=0 note=78 velocity=0 time=0', 'note_on channel=0 note=76 velocity=0 time=15', 'note_on channel=0 note=78 velocity=70 time=2', 'note_on channel=0 note=69 velocity=62 time=8', 'note_on channel=0 note=69 velocity=0 time=10')
Note: ('note_on channel=0 note=76 velocity=0 time=15', 'note_on channel=0 note=78 velocity=70 time=2', 'note_on channel=0 note=69 velocity=62 time=8', 'note_on channel=0 note=69 velocity=0 time=10', 'note_on channel=0 note=76 velocity=67 time=3')
Note: ('note_on channel=0 note=78 velocity=70 time=2', 'note_on channel=0 note=69 velocity=62 time=8', 'note_on channel=0 note=69 velocity=0 time=10', 'note_on channel=0 note=76 velocity=67 time=3', 'note_on channel=0 note=78 velocity=0 time=2')
Note: ('note_on channel=0 note=69 velocity=62 time=8', 'note_on channel=0 note=69 velocity=0 time=10', 'note_on channel=0 note=76 velocity=67 time=3', 'note_on channel=0 note=78 velocity=0 time=2', 'note_on channel=0 note=76 velocity=0 time=51')
Note: ('note_on channel=0 note=69 velocity=0 time=10', 'note_on channel=0 note=76 velocity=67 time=3', 'note_on channel=0 note=78 velocity=0 time=2', 'note_on channel=0 note=76 velocity=0 time=51', 'note_on channel=0 note=78 velocity=72 time=8')
Note: ('note_on channel=0 note=76 velocity=67 time=3', 'note_on channel=0 note=78 velocity=0 time=2', 'note_on channel=0 note=76 velocity=0 time=51', 'note_on channel=0 note=78 velocity=72 time=8', 'note_on channel=0 note=76 velocity=68 time=10')
Note: ('note_on channel=0 note=78 velocity=0 time=2', 'note_on channel=0 note=76 velocity=0 time=51', 'note_on channel=0 note=78 velocity=72 time=8', 'note_on channel=0 note=76 velocity=68 time=10', 'note_on channel=0 note=78 velocity=0 time=0')
Note: ('note_on channel=0 note=76 velocity=0 time=51', 'note_on channel=0 note=78 velocity=72 time=8', 'note_on channel=0 note=76 velocity=68 time=10', 'note_on channel=0 note=78 velocity=0 time=0', 'note_on channel=0 note=76 velocity=0 time=0')
Note: ('note_on channel=0 note=78 velocity=72 time=8', 'note_on channel=0 note=76 velocity=68 time=10', 'note_on channel=0 note=78 velocity=0 time=0', 'note_on channel=0 note=76 velocity=0 time=0', 'note_on channel=0 note=74 velocity=71 time=7')
Note: ('note_on channel=0 note=76 velocity=68 time=10', 'note_on channel=0 note=78 velocity=0 time=0', 'note_on channel=0 note=76 velocity=0 time=0', 'note_on channel=0 note=74 velocity=71 time=7', 'note_on channel=0 note=74 velocity=0 time=11')
Note: ('note_on channel=0 note=78 velocity=0 time=0', 'note_on channel=0 note=76 velocity=0 time=0', 'note_on channel=0 note=74 velocity=71 time=7', 'note_on channel=0 note=74 velocity=0 time=11', 'note_on channel=0 note=76 velocity=70 time=3')
Note: ('note_on channel=0 note=76 velocity=0 time=0', 'note_on channel=0 note=74 velocity=71 time=7', 'note_on channel=0 note=74 velocity=0 time=11', 'note_on channel=0 note=76 velocity=70 time=3', 'note_on channel=0 note=76 velocity=0 time=0')
Note: ('note_on channel=0 note=74 velocity=71 time=7', 'note_on channel=0 note=74 velocity=0 time=11', 'note_on channel=0 note=76 velocity=70 time=3', 'note_on channel=0 note=76 velocity=0 time=0', 'note_on channel=0 note=62 velocity=46 time=5')
Note: ('note_on channel=0 note=74 velocity=0 time=11', 'note_on channel=0 note=76 velocity=70 time=3', 'note_on channel=0 note=76 velocity=0 time=0', 'note_on channel=0 note=62 velocity=46 time=5', 'note_on channel=0 note=78 velocity=70 time=0')
Note: ('note_on channel=0 note=76 velocity=70 time=3', 'note_on channel=0 note=76 velocity=0 time=0', 'note_on channel=0 note=62 velocity=46 time=5', 'note_on channel=0 note=78 velocity=70 time=0', 'note_on channel=0 note=78 velocity=0 time=8')
Note: ('note_on channel=0 note=76 velocity=0 time=0', 'note_on channel=0 note=62 velocity=46 time=5', 'note_on channel=0 note=78 velocity=70 time=0', 'note_on channel=0 note=78 velocity=0 time=8', 'note_on channel=0 note=62 velocity=0 time=6')
Note: ('note_on channel=0 note=62 velocity=46 time=5', 'note_on channel=0 note=78 velocity=70 time=0', 'note_on channel=0 note=78 velocity=0 time=8', 'note_on channel=0 note=62 velocity=0 time=6', 'note_on channel=0 note=62 velocity=67 time=0')
Note: ('note_on channel=0 note=78 velocity=70 time=0', 'note_on channel=0 note=78 velocity=0 time=8', 'note_on channel=0 note=62 velocity=0 time=6', 'note_on channel=0 note=62 velocity=67 time=0', 'note_on channel=0 note=81 velocity=73 time=1')
Note: ('note_on channel=0 note=78 velocity=0 time=8', 'note_on channel=0 note=62 velocity=0 time=6', 'note_on channel=0 note=62 velocity=67 time=0', 'note_on channel=0 note=81 velocity=73 time=1', 'note_on channel=0 note=62 velocity=0 time=13')
Note: ('note_on channel=0 note=62 velocity=0 time=6', 'note_on channel=0 note=62 velocity=67 time=0', 'note_on channel=0 note=81 velocity=73 time=1', 'note_on channel=0 note=62 velocity=0 time=13', 'note_on channel=0 note=81 velocity=0 time=14')
Note: ('note_on channel=0 note=62 velocity=67 time=0', 'note_on channel=0 note=81 velocity=73 time=1', 'note_on channel=0 note=62 velocity=0 time=13', 'note_on channel=0 note=81 velocity=0 time=14', 'note_on channel=0 note=74 velocity=68 time=3')
Note: ('note_on channel=0 note=81 velocity=73 time=1', 'note_on channel=0 note=62 velocity=0 time=13', 'note_on channel=0 note=81 velocity=0 time=14', 'note_on channel=0 note=74 velocity=68 time=3', 'note_on channel=0 note=74 velocity=0 time=36')
Note: ('note_on channel=0 note=62 velocity=0 time=13', 'note_on channel=0 note=81 velocity=0 time=14', 'note_on channel=0 note=74 velocity=68 time=3', 'note_on channel=0 note=74 velocity=0 time=36', 'note_on channel=0 note=69 velocity=59 time=33')
Note: ('note_on channel=0 note=81 velocity=0 time=14', 'note_on channel=0 note=74 velocity=68 time=3', 'note_on channel=0 note=74 velocity=0 time=36', 'note_on channel=0 note=69 velocity=59 time=33', 'note_on channel=0 note=55 velocity=61 time=60')
Note: ('note_on channel=0 note=74 velocity=68 time=3', 'note_on channel=0 note=74 velocity=0 time=36', 'note_on channel=0 note=69 velocity=59 time=33', 'note_on channel=0 note=55 velocity=61 time=60', 'note_on channel=0 note=71 velocity=66 time=4')
Note: ('note_on channel=0 note=74 velocity=0 time=36', 'note_on channel=0 note=69 velocity=59 time=33', 'note_on channel=0 note=55 velocity=61 time=60', 'note_on channel=0 note=71 velocity=66 time=4', 'note_on channel=0 note=69 velocity=0 time=3')
Note: ('note_on channel=0 note=69 velocity=59 time=33', 'note_on channel=0 note=55 velocity=61 time=60', 'note_on channel=0 note=71 velocity=66 time=4', 'note_on channel=0 note=69 velocity=0 time=3', 'note_on channel=0 note=55 velocity=0 time=14')
Note: ('note_on channel=0 note=55 velocity=61 time=60', 'note_on channel=0 note=71 velocity=66 time=4', 'note_on channel=0 note=69 velocity=0 time=3', 'note_on channel=0 note=55 velocity=0 time=14', 'note_on channel=0 note=71 velocity=0 time=13')
Note: ('note_on channel=0 note=71 velocity=66 time=4', 'note_on channel=0 note=69 velocity=0 time=3', 'note_on channel=0 note=55 velocity=0 time=14', 'note_on channel=0 note=71 velocity=0 time=13', 'note_on channel=0 note=73 velocity=68 time=10')
Note: ('note_on channel=0 note=69 velocity=0 time=3', 'note_on channel=0 note=55 velocity=0 time=14', 'note_on channel=0 note=71 velocity=0 time=13', 'note_on channel=0 note=73 velocity=68 time=10', 'note_on channel=0 note=73 velocity=0 time=8')
Note: ('note_on channel=0 note=55 velocity=0 time=14', 'note_on channel=0 note=71 velocity=0 time=13', 'note_on channel=0 note=73 velocity=68 time=10', 'note_on channel=0 note=73 velocity=0 time=8', 'note_on channel=0 note=71 velocity=65 time=1')
Note: ('note_on channel=0 note=71 velocity=0 time=13', 'note_on channel=0 note=73 velocity=68 time=10', 'note_on channel=0 note=73 velocity=0 time=8', 'note_on channel=0 note=71 velocity=65 time=1', 'note_on channel=0 note=64 velocity=59 time=16')
Note: ('note_on channel=0 note=73 velocity=68 time=10', 'note_on channel=0 note=73 velocity=0 time=8', 'note_on channel=0 note=71 velocity=65 time=1', 'note_on channel=0 note=64 velocity=59 time=16', 'note_on channel=0 note=71 velocity=0 time=12')
Note: ('note_on channel=0 note=73 velocity=0 time=8', 'note_on channel=0 note=71 velocity=65 time=1', 'note_on channel=0 note=64 velocity=59 time=16', 'note_on channel=0 note=71 velocity=0 time=12', 'note_on channel=0 note=64 velocity=0 time=9')
Note: ('note_on channel=0 note=71 velocity=65 time=1', 'note_on channel=0 note=64 velocity=59 time=16', 'note_on channel=0 note=71 velocity=0 time=12', 'note_on channel=0 note=64 velocity=0 time=9', 'note_on channel=0 note=69 velocity=68 time=23')
Note: ('note_on channel=0 note=64 velocity=59 time=16', 'note_on channel=0 note=71 velocity=0 time=12', 'note_on channel=0 note=64 velocity=0 time=9', 'note_on channel=0 note=69 velocity=68 time=23', 'note_on channel=0 note=69 velocity=0 time=11')
Note: ('note_on channel=0 note=71 velocity=0 time=12', 'note_on channel=0 note=64 velocity=0 time=9', 'note_on channel=0 note=69 velocity=68 time=23', 'note_on channel=0 note=69 velocity=0 time=11', 'note_on channel=0 note=71 velocity=62 time=1')
Note: ('note_on channel=0 note=64 velocity=0 time=9', 'note_on channel=0 note=69 velocity=68 time=23', 'note_on channel=0 note=69 velocity=0 time=11', 'note_on channel=0 note=71 velocity=62 time=1', 'note_on channel=0 note=57 velocity=61 time=9')
Note: ('note_on channel=0 note=69 velocity=68 time=23', 'note_on channel=0 note=69 velocity=0 time=11', 'note_on channel=0 note=71 velocity=62 time=1', 'note_on channel=0 note=57 velocity=61 time=9', 'note_on channel=0 note=73 velocity=73 time=3')
Note: ('note_on channel=0 note=69 velocity=0 time=11', 'note_on channel=0 note=71 velocity=62 time=1', 'note_on channel=0 note=57 velocity=61 time=9', 'note_on channel=0 note=73 velocity=73 time=3', 'note_on channel=0 note=71 velocity=0 time=3')
Note: ('note_on channel=0 note=71 velocity=62 time=1', 'note_on channel=0 note=57 velocity=61 time=9', 'note_on channel=0 note=73 velocity=73 time=3', 'note_on channel=0 note=71 velocity=0 time=3', 'note_on channel=0 note=57 velocity=0 time=6')
Note: ('note_on channel=0 note=57 velocity=61 time=9', 'note_on channel=0 note=73 velocity=73 time=3', 'note_on channel=0 note=71 velocity=0 time=3', 'note_on channel=0 note=57 velocity=0 time=6', 'note_on channel=0 note=73 velocity=0 time=10')
Note: ('note_on channel=0 note=73 velocity=73 time=3', 'note_on channel=0 note=71 velocity=0 time=3', 'note_on channel=0 note=57 velocity=0 time=6', 'note_on channel=0 note=73 velocity=0 time=10', 'note_on channel=0 note=74 velocity=68 time=5')
Note: ('note_on channel=0 note=71 velocity=0 time=3', 'note_on channel=0 note=57 velocity=0 time=6', 'note_on channel=0 note=73 velocity=0 time=10', 'note_on channel=0 note=74 velocity=68 time=5', 'note_on channel=0 note=73 velocity=67 time=12')
Note: ('note_on channel=0 note=57 velocity=0 time=6', 'note_on channel=0 note=73 velocity=0 time=10', 'note_on channel=0 note=74 velocity=68 time=5', 'note_on channel=0 note=73 velocity=67 time=12', 'note_on channel=0 note=74 velocity=0 time=10')
Note: ('note_on channel=0 note=73 velocity=0 time=10', 'note_on channel=0 note=74 velocity=68 time=5', 'note_on channel=0 note=73 velocity=67 time=12', 'note_on channel=0 note=74 velocity=0 time=10', 'note_on channel=0 note=66 velocity=59 time=24')
Note: ('note_on channel=0 note=74 velocity=68 time=5', 'note_on channel=0 note=73 velocity=67 time=12', 'note_on channel=0 note=74 velocity=0 time=10', 'note_on channel=0 note=66 velocity=59 time=24', 'note_on channel=0 note=73 velocity=0 time=13')
Note: ('note_on channel=0 note=73 velocity=67 time=12', 'note_on channel=0 note=74 velocity=0 time=10', 'note_on channel=0 note=66 velocity=59 time=24', 'note_on channel=0 note=73 velocity=0 time=13', 'note_on channel=0 note=66 velocity=0 time=2')
Note: ('note_on channel=0 note=74 velocity=0 time=10', 'note_on channel=0 note=66 velocity=59 time=24', 'note_on channel=0 note=73 velocity=0 time=13', 'note_on channel=0 note=66 velocity=0 time=2', 'note_on channel=0 note=71 velocity=68 time=11')
Note: ('note_on channel=0 note=66 velocity=59 time=24', 'note_on channel=0 note=73 velocity=0 time=13', 'note_on channel=0 note=66 velocity=0 time=2', 'note_on channel=0 note=71 velocity=68 time=11', 'note_on channel=0 note=73 velocity=59 time=3')
Note: ('note_on channel=0 note=73 velocity=0 time=13', 'note_on channel=0 note=66 velocity=0 time=2', 'note_on channel=0 note=71 velocity=68 time=11', 'note_on channel=0 note=73 velocity=59 time=3', 'note_on channel=0 note=71 velocity=0 time=8')
Note: ('note_on channel=0 note=66 velocity=0 time=2', 'note_on channel=0 note=71 velocity=68 time=11', 'note_on channel=0 note=73 velocity=59 time=3', 'note_on channel=0 note=71 velocity=0 time=8', 'note_on channel=0 note=59 velocity=65 time=13')
Note: ('note_on channel=0 note=71 velocity=68 time=11', 'note_on channel=0 note=73 velocity=59 time=3', 'note_on channel=0 note=71 velocity=0 time=8', 'note_on channel=0 note=59 velocity=65 time=13', 'note_on channel=0 note=74 velocity=80 time=1')
Note: ('note_on channel=0 note=73 velocity=59 time=3', 'note_on channel=0 note=71 velocity=0 time=8', 'note_on channel=0 note=59 velocity=65 time=13', 'note_on channel=0 note=74 velocity=80 time=1', 'note_on channel=0 note=73 velocity=0 time=8')
Note: ('note_on channel=0 note=71 velocity=0 time=8', 'note_on channel=0 note=59 velocity=65 time=13', 'note_on channel=0 note=74 velocity=80 time=1', 'note_on channel=0 note=73 velocity=0 time=8', 'note_on channel=0 note=59 velocity=0 time=4')
Note: ('note_on channel=0 note=59 velocity=65 time=13', 'note_on channel=0 note=74 velocity=80 time=1', 'note_on channel=0 note=73 velocity=0 time=8', 'note_on channel=0 note=59 velocity=0 time=4', 'note_on channel=0 note=74 velocity=0 time=6')
Note: ('note_on channel=0 note=74 velocity=80 time=1', 'note_on channel=0 note=73 velocity=0 time=8', 'note_on channel=0 note=59 velocity=0 time=4', 'note_on channel=0 note=74 velocity=0 time=6', 'note_on channel=0 note=76 velocity=67 time=15')
Note: ('note_on channel=0 note=73 velocity=0 time=8', 'note_on channel=0 note=59 velocity=0 time=4', 'note_on channel=0 note=74 velocity=0 time=6', 'note_on channel=0 note=76 velocity=67 time=15', 'note_on channel=0 note=74 velocity=71 time=60')
Note: ('note_on channel=0 note=59 velocity=0 time=4', 'note_on channel=0 note=74 velocity=0 time=6', 'note_on channel=0 note=76 velocity=67 time=15', 'note_on channel=0 note=74 velocity=71 time=60', 'note_on channel=0 note=76 velocity=0 time=2')
Note: ('note_on channel=0 note=74 velocity=0 time=6', 'note_on channel=0 note=76 velocity=67 time=15', 'note_on channel=0 note=74 velocity=71 time=60', 'note_on channel=0 note=76 velocity=0 time=2', 'note_on channel=0 note=67 velocity=61 time=26')
Note: ('note_on channel=0 note=76 velocity=67 time=15', 'note_on channel=0 note=74 velocity=71 time=60', 'note_on channel=0 note=76 velocity=0 time=2', 'note_on channel=0 note=67 velocity=61 time=26', 'note_on channel=0 note=74 velocity=0 time=19')
Note: ('note_on channel=0 note=74 velocity=71 time=60', 'note_on channel=0 note=76 velocity=0 time=2', 'note_on channel=0 note=67 velocity=61 time=26', 'note_on channel=0 note=74 velocity=0 time=19', 'note_on channel=0 note=67 velocity=0 time=9')
Note: ('note_on channel=0 note=76 velocity=0 time=2', 'note_on channel=0 note=67 velocity=61 time=26', 'note_on channel=0 note=74 velocity=0 time=19', 'note_on channel=0 note=67 velocity=0 time=9', 'note_on channel=0 note=73 velocity=75 time=3')
Note: ('note_on channel=0 note=67 velocity=61 time=26', 'note_on channel=0 note=74 velocity=0 time=19', 'note_on channel=0 note=67 velocity=0 time=9', 'note_on channel=0 note=73 velocity=75 time=3', 'note_on channel=0 note=73 velocity=0 time=48')
Note: ('note_on channel=0 note=74 velocity=0 time=19', 'note_on channel=0 note=67 velocity=0 time=9', 'note_on channel=0 note=73 velocity=75 time=3', 'note_on channel=0 note=73 velocity=0 time=48', 'note_on channel=0 note=74 velocity=69 time=19')
Note: ('note_on channel=0 note=67 velocity=0 time=9', 'note_on channel=0 note=73 velocity=75 time=3', 'note_on channel=0 note=73 velocity=0 time=48', 'note_on channel=0 note=74 velocity=69 time=19', 'note_on channel=0 note=76 velocity=80 time=49')
Note: ('note_on channel=0 note=73 velocity=75 time=3', 'note_on channel=0 note=73 velocity=0 time=48', 'note_on channel=0 note=74 velocity=69 time=19', 'note_on channel=0 note=76 velocity=80 time=49', 'note_on channel=0 note=61 velocity=61 time=6')
Note: ('note_on channel=0 note=73 velocity=0 time=48', 'note_on channel=0 note=74 velocity=69 time=19', 'note_on channel=0 note=76 velocity=80 time=49', 'note_on channel=0 note=61 velocity=61 time=6', 'note_on channel=0 note=74 velocity=0 time=3')
Note: ('note_on channel=0 note=74 velocity=69 time=19', 'note_on channel=0 note=76 velocity=80 time=49', 'note_on channel=0 note=61 velocity=61 time=6', 'note_on channel=0 note=74 velocity=0 time=3', 'note_on channel=0 note=61 velocity=0 time=28')
Note: ('note_on channel=0 note=76 velocity=80 time=49', 'note_on channel=0 note=61 velocity=61 time=6', 'note_on channel=0 note=74 velocity=0 time=3', 'note_on channel=0 note=61 velocity=0 time=28', 'note_on channel=0 note=76 velocity=0 time=30')
Note: ('note_on channel=0 note=61 velocity=61 time=6', 'note_on channel=0 note=74 velocity=0 time=3', 'note_on channel=0 note=61 velocity=0 time=28', 'note_on channel=0 note=76 velocity=0 time=30', 'note_on channel=0 note=78 velocity=77 time=5')
Note: ('note_on channel=0 note=74 velocity=0 time=3', 'note_on channel=0 note=61 velocity=0 time=28', 'note_on channel=0 note=76 velocity=0 time=30', 'note_on channel=0 note=78 velocity=77 time=5', 'note_on channel=0 note=76 velocity=74 time=67')
Note: ('note_on channel=0 note=61 velocity=0 time=28', 'note_on channel=0 note=76 velocity=0 time=30', 'note_on channel=0 note=78 velocity=77 time=5', 'note_on channel=0 note=76 velocity=74 time=67', 'note_on channel=0 note=78 velocity=0 time=26')
Note: ('note_on channel=0 note=76 velocity=0 time=30', 'note_on channel=0 note=78 velocity=77 time=5', 'note_on channel=0 note=76 velocity=74 time=67', 'note_on channel=0 note=78 velocity=0 time=26', 'note_on channel=0 note=69 velocity=66 time=2')
Note: ('note_on channel=0 note=78 velocity=77 time=5', 'note_on channel=0 note=76 velocity=74 time=67', 'note_on channel=0 note=78 velocity=0 time=26', 'note_on channel=0 note=69 velocity=66 time=2', 'note_on channel=0 note=76 velocity=0 time=19')
Note: ('note_on channel=0 note=76 velocity=74 time=67', 'note_on channel=0 note=78 velocity=0 time=26', 'note_on channel=0 note=69 velocity=66 time=2', 'note_on channel=0 note=76 velocity=0 time=19', 'note_on channel=0 note=69 velocity=0 time=6')
Note: ('note_on channel=0 note=78 velocity=0 time=26', 'note_on channel=0 note=69 velocity=66 time=2', 'note_on channel=0 note=76 velocity=0 time=19', 'note_on channel=0 note=69 velocity=0 time=6', 'note_on channel=0 note=74 velocity=79 time=16')
Note: ('note_on channel=0 note=69 velocity=66 time=2', 'note_on channel=0 note=76 velocity=0 time=19', 'note_on channel=0 note=69 velocity=0 time=6', 'note_on channel=0 note=74 velocity=79 time=16', 'note_on channel=0 note=76 velocity=73 time=54')
Note: ('note_on channel=0 note=76 velocity=0 time=19', 'note_on channel=0 note=69 velocity=0 time=6', 'note_on channel=0 note=74 velocity=79 time=16', 'note_on channel=0 note=76 velocity=73 time=54', 'note_on channel=0 note=74 velocity=0 time=7')
Note: ('note_on channel=0 note=69 velocity=0 time=6', 'note_on channel=0 note=74 velocity=79 time=16', 'note_on channel=0 note=76 velocity=73 time=54', 'note_on channel=0 note=74 velocity=0 time=7', 'note_on channel=0 note=62 velocity=66 time=55')
Note: ('note_on channel=0 note=74 velocity=79 time=16', 'note_on channel=0 note=76 velocity=73 time=54', 'note_on channel=0 note=74 velocity=0 time=7', 'note_on channel=0 note=62 velocity=66 time=55', 'note_on channel=0 note=78 velocity=86 time=5')
Note: ('note_on channel=0 note=76 velocity=73 time=54', 'note_on channel=0 note=74 velocity=0 time=7', 'note_on channel=0 note=62 velocity=66 time=55', 'note_on channel=0 note=78 velocity=86 time=5', 'note_on channel=0 note=76 velocity=0 time=16')
Note: ('note_on channel=0 note=74 velocity=0 time=7', 'note_on channel=0 note=62 velocity=66 time=55', 'note_on channel=0 note=78 velocity=86 time=5', 'note_on channel=0 note=76 velocity=0 time=16', 'note_on channel=0 note=62 velocity=0 time=11')
Note: ('note_on channel=0 note=62 velocity=66 time=55', 'note_on channel=0 note=78 velocity=86 time=5', 'note_on channel=0 note=76 velocity=0 time=16', 'note_on channel=0 note=62 velocity=0 time=11', 'note_on channel=0 note=79 velocity=73 time=24')
Note: ('note_on channel=0 note=78 velocity=86 time=5', 'note_on channel=0 note=76 velocity=0 time=16', 'note_on channel=0 note=62 velocity=0 time=11', 'note_on channel=0 note=79 velocity=73 time=24', 'note_on channel=0 note=78 velocity=0 time=6')
Note: ('note_on channel=0 note=76 velocity=0 time=16', 'note_on channel=0 note=62 velocity=0 time=11', 'note_on channel=0 note=79 velocity=73 time=24', 'note_on channel=0 note=78 velocity=0 time=6', 'note_on channel=0 note=78 velocity=72 time=56')
Note: ('note_on channel=0 note=62 velocity=0 time=11', 'note_on channel=0 note=79 velocity=73 time=24', 'note_on channel=0 note=78 velocity=0 time=6', 'note_on channel=0 note=78 velocity=72 time=56', 'note_on channel=0 note=79 velocity=0 time=18')
Note: ('note_on channel=0 note=79 velocity=73 time=24', 'note_on channel=0 note=78 velocity=0 time=6', 'note_on channel=0 note=78 velocity=72 time=56', 'note_on channel=0 note=79 velocity=0 time=18', 'note_on channel=0 note=71 velocity=61 time=26')
Note: ('note_on channel=0 note=78 velocity=0 time=6', 'note_on channel=0 note=78 velocity=72 time=56', 'note_on channel=0 note=79 velocity=0 time=18', 'note_on channel=0 note=71 velocity=61 time=26', 'note_on channel=0 note=78 velocity=0 time=15')
Note: ('note_on channel=0 note=78 velocity=72 time=56', 'note_on channel=0 note=79 velocity=0 time=18', 'note_on channel=0 note=71 velocity=61 time=26', 'note_on channel=0 note=78 velocity=0 time=15', 'note_on channel=0 note=76 velocity=75 time=10')
Note: ('note_on channel=0 note=79 velocity=0 time=18', 'note_on channel=0 note=71 velocity=61 time=26', 'note_on channel=0 note=78 velocity=0 time=15', 'note_on channel=0 note=76 velocity=75 time=10', 'note_on channel=0 note=71 velocity=0 time=1')
Note: ('note_on channel=0 note=71 velocity=61 time=26', 'note_on channel=0 note=78 velocity=0 time=15', 'note_on channel=0 note=76 velocity=75 time=10', 'note_on channel=0 note=71 velocity=0 time=1', 'note_on channel=0 note=78 velocity=79 time=54')
Note: ('note_on channel=0 note=78 velocity=0 time=15', 'note_on channel=0 note=76 velocity=75 time=10', 'note_on channel=0 note=71 velocity=0 time=1', 'note_on channel=0 note=78 velocity=79 time=54', 'note_on channel=0 note=76 velocity=0 time=6')
Note: ('note_on channel=0 note=76 velocity=75 time=10', 'note_on channel=0 note=71 velocity=0 time=1', 'note_on channel=0 note=78 velocity=79 time=54', 'note_on channel=0 note=76 velocity=0 time=6', 'note_on channel=0 note=79 velocity=86 time=60')
Note: ('note_on channel=0 note=71 velocity=0 time=1', 'note_on channel=0 note=78 velocity=79 time=54', 'note_on channel=0 note=76 velocity=0 time=6', 'note_on channel=0 note=79 velocity=86 time=60', 'note_on channel=0 note=64 velocity=67 time=5')
Note: ('note_on channel=0 note=78 velocity=79 time=54', 'note_on channel=0 note=76 velocity=0 time=6', 'note_on channel=0 note=79 velocity=86 time=60', 'note_on channel=0 note=64 velocity=67 time=5', 'note_on channel=0 note=78 velocity=0 time=3')
Note: ('note_on channel=0 note=76 velocity=0 time=6', 'note_on channel=0 note=79 velocity=86 time=60', 'note_on channel=0 note=64 velocity=67 time=5', 'note_on channel=0 note=78 velocity=0 time=3', 'note_on channel=0 note=64 velocity=0 time=28')
Note: ('note_on channel=0 note=79 velocity=86 time=60', 'note_on channel=0 note=64 velocity=67 time=5', 'note_on channel=0 note=78 velocity=0 time=3', 'note_on channel=0 note=64 velocity=0 time=28', 'note_on channel=0 note=81 velocity=77 time=11')
Note: ('note_on channel=0 note=64 velocity=0 time=28', 'note_on channel=0 note=81 velocity=77 time=11', 'note_on channel=0 note=79 velocity=0 time=2')
Note: ('note_on channel=0 note=81 velocity=77 time=11', 'note_on channel=0 note=79 velocity=0 time=2', 'note_on channel=0 note=79 velocity=78 time=65')
Note: ('note_on channel=0 note=79 velocity=0 time=2', 'note_on channel=0 note=79 velocity=78 time=65', 'note_on channel=0 note=81 velocity=0 time=13')
Note: ('note_on channel=0 note=79 velocity=78 time=65', 'note_on channel=0 note=81 velocity=0 time=13', 'note_on channel=0 note=73 velocity=71 time=23')
Note: ('note_on channel=0 note=81 velocity=0 time=13', 'note_on channel=0 note=73 velocity=71 time=23', 'note_on channel=0 note=79 velocity=0 time=22')
Note: ('note_on channel=0 note=73 velocity=71 time=23', 'note_on channel=0 note=79 velocity=0 time=22', 'note_on channel=0 note=78 velocity=80 time=3')
Note: ('note_on channel=0 note=79 velocity=0 time=22', 'note_on channel=0 note=78 velocity=80 time=3', 'note_on channel=0 note=73 velocity=0 time=12')
Note: ('note_on channel=0 note=78 velocity=80 time=3', 'note_on channel=0 note=73 velocity=0 time=12', 'note_on channel=0 note=78 velocity=0 time=49')
Note: ('note_on channel=0 note=73 velocity=0 time=12', 'note_on channel=0 note=78 velocity=0 time=49', 'note_on channel=0 note=79 velocity=78 time=8')
Note: ('note_on channel=0 note=78 velocity=0 time=49', 'note_on channel=0 note=79 velocity=78 time=8', 'note_on channel=0 note=81 velocity=89 time=61')
Note: ('note_on channel=0 note=79 velocity=78 time=8', 'note_on channel=0 note=81 velocity=89 time=61', 'note_on channel=0 note=66 velocity=77 time=1')
Note: ('note_on channel=0 note=81 velocity=89 time=61', 'note_on channel=0 note=66 velocity=77 time=1', 'note_on channel=0 note=79 velocity=0 time=10')
Note: ('note_on channel=0 note=66 velocity=77 time=1', 'note_on channel=0 note=79 velocity=0 time=10', 'note_on channel=0 note=66 velocity=0 time=42')
Note: ('note_on channel=0 note=79 velocity=0 time=10', 'note_on channel=0 note=66 velocity=0 time=42', 'note_on channel=0 note=81 velocity=0 time=11')
Note: ('note_on channel=0 note=66 velocity=0 time=42', 'note_on channel=0 note=81 velocity=0 time=11', 'note_on channel=0 note=83 velocity=79 time=1')
Note: ('note_on channel=0 note=81 velocity=0 time=11', 'note_on channel=0 note=83 velocity=79 time=1', 'note_on channel=0 note=81 velocity=85 time=70')
Note: ('note_on channel=0 note=83 velocity=79 time=1', 'note_on channel=0 note=81 velocity=85 time=70', 'note_on channel=0 note=83 velocity=0 time=15')
Note: ('note_on channel=0 note=81 velocity=85 time=70', 'note_on channel=0 note=83 velocity=0 time=15', 'note_on channel=0 note=74 velocity=82 time=3')
Note: ('note_on channel=0 note=83 velocity=0 time=15', 'note_on channel=0 note=74 velocity=82 time=3', 'note_on channel=0 note=81 velocity=0 time=34')
Note: ('note_on channel=0 note=74 velocity=82 time=3', 'note_on channel=0 note=81 velocity=0 time=34', 'note_on channel=0 note=74 velocity=0 time=6')
Note: ('note_on channel=0 note=81 velocity=0 time=34', 'note_on channel=0 note=74 velocity=0 time=6', 'note_on channel=0 note=79 velocity=81 time=3')
Note: ('note_on channel=0 note=74 velocity=0 time=6', 'note_on channel=0 note=79 velocity=81 time=3', 'note_on channel=0 note=81 velocity=85 time=53')
Note: ('note_on channel=0 note=79 velocity=81 time=3', 'note_on channel=0 note=81 velocity=85 time=53', 'note_on channel=0 note=79 velocity=0 time=8')
Note: ('note_on channel=0 note=81 velocity=85 time=53', 'note_on channel=0 note=79 velocity=0 time=8', 'note_on channel=0 note=67 velocity=83 time=36')
Note: ('note_on channel=0 note=79 velocity=0 time=8', 'note_on channel=0 note=67 velocity=83 time=36', 'note_on channel=0 note=83 velocity=87 time=14')
Note: ('note_on channel=0 note=67 velocity=83 time=36', 'note_on channel=0 note=83 velocity=87 time=14', 'note_on channel=0 note=81 velocity=0 time=12')
Note: ('note_on channel=0 note=83 velocity=87 time=14', 'note_on channel=0 note=81 velocity=0 time=12', 'note_on channel=0 note=83 velocity=0 time=15')
Note: ('note_on channel=0 note=81 velocity=0 time=12', 'note_on channel=0 note=83 velocity=0 time=15', 'note_on channel=0 note=67 velocity=0 time=4')
Note: ('note_on channel=0 note=83 velocity=0 time=15', 'note_on channel=0 note=67 velocity=0 time=4', 'note_on channel=0 note=69 velocity=79 time=147')
Note: ('note_on channel=0 note=67 velocity=0 time=4', 'note_on channel=0 note=69 velocity=79 time=147', 'note_on channel=0 note=85 velocity=87 time=2')
Note: ('note_on channel=0 note=69 velocity=79 time=147', 'note_on channel=0 note=85 velocity=87 time=2', 'note_on channel=0 note=69 velocity=0 time=47')
Note: ('note_on channel=0 note=85 velocity=87 time=2', 'note_on channel=0 note=69 velocity=0 time=47', 'note_on channel=0 note=85 velocity=0 time=25')
Note: ('note_on channel=0 note=69 velocity=0 time=47', 'note_on channel=0 note=85 velocity=0 time=25', 'note_on channel=0 note=86 velocity=87 time=95')
Note: ('note_on channel=0 note=85 velocity=0 time=25', 'note_on channel=0 note=86 velocity=87 time=95', 'note_on channel=0 note=71 velocity=89 time=2')
Note: ('note_on channel=0 note=86 velocity=87 time=95', 'note_on channel=0 note=71 velocity=89 time=2', 'note_on channel=0 note=71 velocity=0 time=48')
Note: ('note_on channel=0 note=71 velocity=89 time=2', 'note_on channel=0 note=71 velocity=0 time=48', 'note_on channel=0 note=85 velocity=82 time=31')
Note: ('note_on channel=0 note=71 velocity=0 time=48', 'note_on channel=0 note=85 velocity=82 time=31', 'note_on channel=0 note=86 velocity=0 time=31')
Note: ('note_on channel=0 note=85 velocity=82 time=31', 'note_on channel=0 note=86 velocity=0 time=31', 'note_on channel=0 note=83 velocity=79 time=47')
Note: ('note_on channel=0 note=86 velocity=0 time=31', 'note_on channel=0 note=83 velocity=79 time=47', 'note_on channel=0 note=85 velocity=0 time=29')
Note: ('note_on channel=0 note=83 velocity=79 time=47', 'note_on channel=0 note=85 velocity=0 time=29', 'note_on channel=0 note=81 velocity=89 time=50')
Note: ('note_on channel=0 note=85 velocity=0 time=29', 'note_on channel=0 note=81 velocity=89 time=50', 'note_on channel=0 note=83 velocity=0 time=30')
Note: ('note_on channel=0 note=81 velocity=89 time=50', 'note_on channel=0 note=83 velocity=0 time=30', 'note_on channel=0 note=81 velocity=0 time=47')
Note: ('note_on channel=0 note=83 velocity=0 time=30', 'note_on channel=0 note=81 velocity=0 time=47', 'note_on channel=0 note=67 velocity=81 time=1')
Note: ('note_on channel=0 note=81 velocity=0 time=47', 'note_on channel=0 note=67 velocity=81 time=1', 'note_on channel=0 note=79 velocity=87 time=5')
Note: ('note_on channel=0 note=67 velocity=81 time=1', 'note_on channel=0 note=79 velocity=87 time=5', 'note_on channel=0 note=67 velocity=0 time=41')
Note: ('note_on channel=0 note=79 velocity=87 time=5', 'note_on channel=0 note=67 velocity=0 time=41', 'note_on channel=0 note=69 velocity=16 time=5')
Note: ('note_on channel=0 note=67 velocity=0 time=41', 'note_on channel=0 note=69 velocity=16 time=5', 'note_on channel=0 note=78 velocity=87 time=31')
Note: ('note_on channel=0 note=69 velocity=16 time=5', 'note_on channel=0 note=78 velocity=87 time=31', 'note_on channel=0 note=79 velocity=0 time=8')
Note: ('note_on channel=0 note=78 velocity=87 time=31', 'note_on channel=0 note=79 velocity=0 time=8', 'note_on channel=0 note=69 velocity=0 time=8')
Note: ('note_on channel=0 note=79 velocity=0 time=8', 'note_on channel=0 note=69 velocity=0 time=8', 'note_on channel=0 note=76 velocity=84 time=58')
Note: ('note_on channel=0 note=69 velocity=0 time=8', 'note_on channel=0 note=76 velocity=84 time=58', 'note_on channel=0 note=78 velocity=0 time=18')
Note: ('note_on channel=0 note=76 velocity=84 time=58', 'note_on channel=0 note=78 velocity=0 time=18', 'note_on channel=0 note=76 velocity=0 time=59')
Note: ('note_on channel=0 note=78 velocity=0 time=18', 'note_on channel=0 note=76 velocity=0 time=59', 'note_on channel=0 note=74 velocity=88 time=4')
Note: ('note_on channel=0 note=76 velocity=0 time=59', 'note_on channel=0 note=74 velocity=88 time=4', 'note_on channel=0 note=69 velocity=71 time=68')
Note: ('note_on channel=0 note=74 velocity=88 time=4', 'note_on channel=0 note=69 velocity=71 time=68', 'note_on channel=0 note=76 velocity=85 time=17')
Note: ('note_on channel=0 note=69 velocity=71 time=68', 'note_on channel=0 note=76 velocity=85 time=17', 'note_on channel=0 note=74 velocity=0 time=23')
Note: ('note_on channel=0 note=76 velocity=85 time=17', 'note_on channel=0 note=74 velocity=0 time=23', 'note_on channel=0 note=69 velocity=0 time=35')
Note: ('note_on channel=0 note=74 velocity=0 time=23', 'note_on channel=0 note=69 velocity=0 time=35', 'note_on channel=0 note=81 velocity=86 time=29')
Note: ('note_on channel=0 note=69 velocity=0 time=35', 'note_on channel=0 note=81 velocity=86 time=29', 'note_on channel=0 note=76 velocity=0 time=11')
Note: ('note_on channel=0 note=81 velocity=86 time=29', 'note_on channel=0 note=76 velocity=0 time=11', 'note_on channel=0 note=79 velocity=81 time=73')
Note: ('note_on channel=0 note=76 velocity=0 time=11', 'note_on channel=0 note=79 velocity=81 time=73', 'note_on channel=0 note=81 velocity=0 time=30')
Note: ('note_on channel=0 note=79 velocity=81 time=73', 'note_on channel=0 note=81 velocity=0 time=30', 'note_on channel=0 note=78 velocity=79 time=46')
Note: ('note_on channel=0 note=81 velocity=0 time=30', 'note_on channel=0 note=78 velocity=79 time=46', 'note_on channel=0 note=79 velocity=0 time=27')
Note: ('note_on channel=0 note=78 velocity=79 time=46', 'note_on channel=0 note=79 velocity=0 time=27', 'note_on channel=0 note=57 velocity=59 time=62')
Note: ('note_on channel=0 note=79 velocity=0 time=27', 'note_on channel=0 note=57 velocity=59 time=62', 'note_on channel=0 note=76 velocity=74 time=0')
Note: ('note_on channel=0 note=57 velocity=59 time=62', 'note_on channel=0 note=76 velocity=74 time=0', 'note_on channel=0 note=78 velocity=0 time=33')
Note: ('note_on channel=0 note=76 velocity=74 time=0', 'note_on channel=0 note=78 velocity=0 time=33', 'note_on channel=0 note=76 velocity=0 time=28')
Note: ('note_on channel=0 note=78 velocity=0 time=33', 'note_on channel=0 note=76 velocity=0 time=28', 'note_on channel=0 note=74 velocity=74 time=13')
Note: ('note_on channel=0 note=76 velocity=0 time=28', 'note_on channel=0 note=74 velocity=74 time=13', 'note_on channel=0 note=57 velocity=0 time=4')
Note: ('note_on channel=0 note=74 velocity=74 time=13', 'note_on channel=0 note=57 velocity=0 time=4', 'note_on channel=0 note=73 velocity=78 time=5')
Note: ('note_on channel=0 note=57 velocity=0 time=4', 'note_on channel=0 note=73 velocity=78 time=5', 'note_on channel=0 note=74 velocity=0 time=0')
Note: ('note_on channel=0 note=73 velocity=78 time=5', 'note_on channel=0 note=74 velocity=0 time=0', 'note_on channel=0 note=71 velocity=79 time=18')
Note: ('note_on channel=0 note=74 velocity=0 time=0', 'note_on channel=0 note=71 velocity=79 time=18', 'note_on channel=0 note=73 velocity=0 time=33')
Note: ('note_on channel=0 note=71 velocity=79 time=18', 'note_on channel=0 note=73 velocity=0 time=33', 'note_on channel=0 note=69 velocity=79 time=6')
Note: ('note_on channel=0 note=73 velocity=0 time=33', 'note_on channel=0 note=69 velocity=79 time=6', 'note_on channel=0 note=71 velocity=0 time=22')
Note: ('note_on channel=0 note=69 velocity=79 time=6', 'note_on channel=0 note=71 velocity=0 time=22', 'note_on channel=0 note=69 velocity=0 time=24')
Note: ('note_on channel=0 note=71 velocity=0 time=22', 'note_on channel=0 note=69 velocity=0 time=24', 'note_on channel=0 note=71 velocity=65 time=12')
Note: ('note_on channel=0 note=69 velocity=0 time=24', 'note_on channel=0 note=71 velocity=65 time=12', 'note_on channel=0 note=71 velocity=0 time=7')
Note: ('note_on channel=0 note=71 velocity=65 time=12', 'note_on channel=0 note=71 velocity=0 time=7', 'note_on channel=0 note=69 velocity=68 time=4')
Note: ('note_on channel=0 note=71 velocity=0 time=7', 'note_on channel=0 note=69 velocity=68 time=4', 'note_on channel=0 note=69 velocity=0 time=14')
Note: ('note_on channel=0 note=69 velocity=68 time=4', 'note_on channel=0 note=69 velocity=0 time=14', 'note_on channel=0 note=71 velocity=61 time=6')
Note: ('note_on channel=0 note=69 velocity=0 time=14', 'note_on channel=0 note=71 velocity=61 time=6', 'note_on channel=0 note=69 velocity=60 time=55')
Note: ('note_on channel=0 note=71 velocity=61 time=6', 'note_on channel=0 note=69 velocity=60 time=55', 'note_on channel=0 note=71 velocity=0 time=3')
Note: ('note_on channel=0 note=69 velocity=0 time=14', 'note_on channel=0 note=71 velocity=61 time=6', 'note_on channel=0 note=69 velocity=60 time=55', 'note_on channel=0 note=71 velocity=0 time=3', 'note_on channel=0 note=71 velocity=64 time=48')
Note: ('note_on channel=0 note=71 velocity=61 time=6', 'note_on channel=0 note=69 velocity=60 time=55', 'note_on channel=0 note=71 velocity=0 time=3', 'note_on channel=0 note=71 velocity=64 time=48', 'note_on channel=0 note=54 velocity=57 time=3')
Note: ('note_on channel=0 note=69 velocity=60 time=55', 'note_on channel=0 note=71 velocity=0 time=3', 'note_on channel=0 note=71 velocity=64 time=48', 'note_on channel=0 note=54 velocity=57 time=3', 'note_on channel=0 note=69 velocity=0 time=0')
Note: ('note_on channel=0 note=71 velocity=0 time=3', 'note_on channel=0 note=71 velocity=64 time=48', 'note_on channel=0 note=54 velocity=57 time=3', 'note_on channel=0 note=69 velocity=0 time=0', 'note_on channel=0 note=69 velocity=61 time=55')
Note: ('note_on channel=0 note=71 velocity=64 time=48', 'note_on channel=0 note=54 velocity=57 time=3', 'note_on channel=0 note=69 velocity=0 time=0', 'note_on channel=0 note=69 velocity=61 time=55', 'note_on channel=0 note=71 velocity=0 time=2')
Note: ('note_on channel=0 note=54 velocity=57 time=3', 'note_on channel=0 note=69 velocity=0 time=0', 'note_on channel=0 note=69 velocity=61 time=55', 'note_on channel=0 note=71 velocity=0 time=2', 'note_on channel=0 note=69 velocity=0 time=51')
Note: ('note_on channel=0 note=69 velocity=0 time=0', 'note_on channel=0 note=69 velocity=61 time=55', 'note_on channel=0 note=71 velocity=0 time=2', 'note_on channel=0 note=69 velocity=0 time=51', 'note_on channel=0 note=71 velocity=65 time=0')
Note: ('note_on channel=0 note=69 velocity=61 time=55', 'note_on channel=0 note=71 velocity=0 time=2', 'note_on channel=0 note=69 velocity=0 time=51', 'note_on channel=0 note=71 velocity=65 time=0', 'note_on channel=0 note=62 velocity=70 time=33')
Note: ('note_on channel=0 note=71 velocity=0 time=2', 'note_on channel=0 note=69 velocity=0 time=51', 'note_on channel=0 note=71 velocity=65 time=0', 'note_on channel=0 note=62 velocity=70 time=33', 'note_on channel=0 note=69 velocity=69 time=25')
Note: ('note_on channel=0 note=69 velocity=0 time=51', 'note_on channel=0 note=71 velocity=65 time=0', 'note_on channel=0 note=62 velocity=70 time=33', 'note_on channel=0 note=69 velocity=69 time=25', 'note_on channel=0 note=71 velocity=0 time=8')
Note: ('note_on channel=0 note=71 velocity=65 time=0', 'note_on channel=0 note=62 velocity=70 time=33', 'note_on channel=0 note=69 velocity=69 time=25', 'note_on channel=0 note=71 velocity=0 time=8', 'note_on channel=0 note=62 velocity=0 time=14')
Note: ('note_on channel=0 note=62 velocity=70 time=33', 'note_on channel=0 note=69 velocity=69 time=25', 'note_on channel=0 note=71 velocity=0 time=8', 'note_on channel=0 note=62 velocity=0 time=14', 'note_on channel=0 note=54 velocity=0 time=30')
Note: ('note_on channel=0 note=69 velocity=69 time=25', 'note_on channel=0 note=71 velocity=0 time=8', 'note_on channel=0 note=62 velocity=0 time=14', 'note_on channel=0 note=54 velocity=0 time=30', 'note_on channel=0 note=69 velocity=0 time=1')
Note: ('note_on channel=0 note=71 velocity=0 time=8', 'note_on channel=0 note=62 velocity=0 time=14', 'note_on channel=0 note=54 velocity=0 time=30', 'note_on channel=0 note=69 velocity=0 time=1', 'note_on channel=0 note=67 velocity=79 time=2')
Note: ('note_on channel=0 note=62 velocity=0 time=14', 'note_on channel=0 note=54 velocity=0 time=30', 'note_on channel=0 note=69 velocity=0 time=1', 'note_on channel=0 note=67 velocity=79 time=2', 'note_on channel=0 note=69 velocity=73 time=54')
Note: ('note_on channel=0 note=54 velocity=0 time=30', 'note_on channel=0 note=69 velocity=0 time=1', 'note_on channel=0 note=67 velocity=79 time=2', 'note_on channel=0 note=69 velocity=73 time=54', 'note_on channel=0 note=67 velocity=0 time=21')
Note: ('note_on channel=0 note=69 velocity=0 time=1', 'note_on channel=0 note=67 velocity=79 time=2', 'note_on channel=0 note=69 velocity=73 time=54', 'note_on channel=0 note=67 velocity=0 time=21', 'note_on channel=0 note=55 velocity=75 time=65')
Note: ('note_on channel=0 note=67 velocity=79 time=2', 'note_on channel=0 note=69 velocity=73 time=54', 'note_on channel=0 note=67 velocity=0 time=21', 'note_on channel=0 note=55 velocity=75 time=65', 'note_on channel=0 note=71 velocity=71 time=96')
Note: ('note_on channel=0 note=69 velocity=73 time=54', 'note_on channel=0 note=67 velocity=0 time=21', 'note_on channel=0 note=55 velocity=75 time=65', 'note_on channel=0 note=71 velocity=71 time=96', 'note_on channel=0 note=69 velocity=0 time=11')
Note: ('note_on channel=0 note=67 velocity=0 time=21', 'note_on channel=0 note=55 velocity=75 time=65', 'note_on channel=0 note=71 velocity=71 time=96', 'note_on channel=0 note=69 velocity=0 time=11', 'note_on channel=0 note=71 velocity=0 time=15')
Note: ('note_on channel=0 note=55 velocity=75 time=65', 'note_on channel=0 note=71 velocity=71 time=96', 'note_on channel=0 note=69 velocity=0 time=11', 'note_on channel=0 note=71 velocity=0 time=15', 'note_on channel=0 note=73 velocity=69 time=7')
Note: ('note_on channel=0 note=71 velocity=71 time=96', 'note_on channel=0 note=69 velocity=0 time=11', 'note_on channel=0 note=71 velocity=0 time=15', 'note_on channel=0 note=73 velocity=69 time=7', 'note_on channel=0 note=71 velocity=67 time=3')
Note: ('note_on channel=0 note=69 velocity=0 time=11', 'note_on channel=0 note=71 velocity=0 time=15', 'note_on channel=0 note=73 velocity=69 time=7', 'note_on channel=0 note=71 velocity=67 time=3', 'note_on channel=0 note=64 velocity=64 time=1')
Note: ('note_on channel=0 note=71 velocity=0 time=15', 'note_on channel=0 note=73 velocity=69 time=7', 'note_on channel=0 note=71 velocity=67 time=3', 'note_on channel=0 note=64 velocity=64 time=1', 'note_on channel=0 note=73 velocity=0 time=0')
Note: ('note_on channel=0 note=73 velocity=69 time=7', 'note_on channel=0 note=71 velocity=67 time=3', 'note_on channel=0 note=64 velocity=64 time=1', 'note_on channel=0 note=73 velocity=0 time=0', 'note_on channel=0 note=71 velocity=0 time=15')
Note: ('note_on channel=0 note=71 velocity=67 time=3', 'note_on channel=0 note=64 velocity=64 time=1', 'note_on channel=0 note=73 velocity=0 time=0', 'note_on channel=0 note=71 velocity=0 time=15', 'note_on channel=0 note=64 velocity=0 time=7')
Note: ('note_on channel=0 note=64 velocity=64 time=1', 'note_on channel=0 note=73 velocity=0 time=0', 'note_on channel=0 note=71 velocity=0 time=15', 'note_on channel=0 note=64 velocity=0 time=7', 'note_on channel=0 note=55 velocity=0 time=5')
Note: ('note_on channel=0 note=73 velocity=0 time=0', 'note_on channel=0 note=71 velocity=0 time=15', 'note_on channel=0 note=64 velocity=0 time=7', 'note_on channel=0 note=55 velocity=0 time=5', 'note_on channel=0 note=69 velocity=71 time=4')
Note: ('note_on channel=0 note=71 velocity=0 time=15', 'note_on channel=0 note=64 velocity=0 time=7', 'note_on channel=0 note=55 velocity=0 time=5', 'note_on channel=0 note=69 velocity=71 time=4', 'note_on channel=0 note=71 velocity=70 time=0')
Note: ('note_on channel=0 note=64 velocity=0 time=7', 'note_on channel=0 note=55 velocity=0 time=5', 'note_on channel=0 note=69 velocity=71 time=4', 'note_on channel=0 note=71 velocity=70 time=0', 'note_on channel=0 note=69 velocity=0 time=6')
Note: ('note_on channel=0 note=55 velocity=0 time=5', 'note_on channel=0 note=69 velocity=71 time=4', 'note_on channel=0 note=71 velocity=70 time=0', 'note_on channel=0 note=69 velocity=0 time=6', 'note_on channel=0 note=57 velocity=82 time=6')
Note: ('note_on channel=0 note=69 velocity=71 time=4', 'note_on channel=0 note=71 velocity=70 time=0', 'note_on channel=0 note=69 velocity=0 time=6', 'note_on channel=0 note=57 velocity=82 time=6', 'note_on channel=0 note=73 velocity=79 time=2')
Note: ('note_on channel=0 note=71 velocity=70 time=0', 'note_on channel=0 note=69 velocity=0 time=6', 'note_on channel=0 note=57 velocity=82 time=6', 'note_on channel=0 note=73 velocity=79 time=2', 'note_on channel=0 note=71 velocity=0 time=7')
Note: ('note_on channel=0 note=69 velocity=0 time=6', 'note_on channel=0 note=57 velocity=82 time=6', 'note_on channel=0 note=73 velocity=79 time=2', 'note_on channel=0 note=71 velocity=0 time=7', 'note_on channel=0 note=73 velocity=0 time=3')
Note: ('note_on channel=0 note=57 velocity=82 time=6', 'note_on channel=0 note=73 velocity=79 time=2', 'note_on channel=0 note=71 velocity=0 time=7', 'note_on channel=0 note=73 velocity=0 time=3', 'note_on channel=0 note=74 velocity=70 time=3')
Note: ('note_on channel=0 note=73 velocity=79 time=2', 'note_on channel=0 note=71 velocity=0 time=7', 'note_on channel=0 note=73 velocity=0 time=3', 'note_on channel=0 note=74 velocity=70 time=3', 'note_on channel=0 note=73 velocity=73 time=8')
Note: ('note_on channel=0 note=71 velocity=0 time=7', 'note_on channel=0 note=73 velocity=0 time=3', 'note_on channel=0 note=74 velocity=70 time=3', 'note_on channel=0 note=73 velocity=73 time=8', 'note_on channel=0 note=74 velocity=0 time=8')
Note: ('note_on channel=0 note=73 velocity=0 time=3', 'note_on channel=0 note=74 velocity=70 time=3', 'note_on channel=0 note=73 velocity=73 time=8', 'note_on channel=0 note=74 velocity=0 time=8', 'note_on channel=0 note=66 velocity=69 time=4')
Note: ('note_on channel=0 note=74 velocity=70 time=3', 'note_on channel=0 note=73 velocity=73 time=8', 'note_on channel=0 note=74 velocity=0 time=8', 'note_on channel=0 note=66 velocity=69 time=4', 'note_on channel=0 note=73 velocity=0 time=11')
Note: ('note_on channel=0 note=73 velocity=73 time=8', 'note_on channel=0 note=74 velocity=0 time=8', 'note_on channel=0 note=66 velocity=69 time=4', 'note_on channel=0 note=73 velocity=0 time=11', 'note_on channel=0 note=57 velocity=0 time=1')
Note: ('note_on channel=0 note=74 velocity=0 time=8', 'note_on channel=0 note=66 velocity=69 time=4', 'note_on channel=0 note=73 velocity=0 time=11', 'note_on channel=0 note=57 velocity=0 time=1', 'note_on channel=0 note=71 velocity=74 time=5')
Note: ('note_on channel=0 note=66 velocity=69 time=4', 'note_on channel=0 note=73 velocity=0 time=11', 'note_on channel=0 note=57 velocity=0 time=1', 'note_on channel=0 note=71 velocity=74 time=5', 'note_on channel=0 note=66 velocity=0 time=2')
Note: ('note_on channel=0 note=73 velocity=0 time=11', 'note_on channel=0 note=57 velocity=0 time=1', 'note_on channel=0 note=71 velocity=74 time=5', 'note_on channel=0 note=66 velocity=0 time=2', 'note_on channel=0 note=73 velocity=68 time=4')
Note: ('note_on channel=0 note=57 velocity=0 time=1', 'note_on channel=0 note=71 velocity=74 time=5', 'note_on channel=0 note=66 velocity=0 time=2', 'note_on channel=0 note=73 velocity=68 time=4', 'note_on channel=0 note=71 velocity=0 time=7')
Note: ('note_on channel=0 note=71 velocity=74 time=5', 'note_on channel=0 note=66 velocity=0 time=2', 'note_on channel=0 note=73 velocity=68 time=4', 'note_on channel=0 note=71 velocity=0 time=7', 'note_on channel=0 note=74 velocity=79 time=13')
Note: ('note_on channel=0 note=66 velocity=0 time=2', 'note_on channel=0 note=73 velocity=68 time=4', 'note_on channel=0 note=71 velocity=0 time=7', 'note_on channel=0 note=74 velocity=79 time=13', 'note_on channel=0 note=59 velocity=82 time=3')
Note: ('note_on channel=0 note=73 velocity=68 time=4', 'note_on channel=0 note=71 velocity=0 time=7', 'note_on channel=0 note=74 velocity=79 time=13', 'note_on channel=0 note=59 velocity=82 time=3', 'note_on channel=0 note=73 velocity=0 time=11')
Note: ('note_on channel=0 note=71 velocity=0 time=7', 'note_on channel=0 note=74 velocity=79 time=13', 'note_on channel=0 note=59 velocity=82 time=3', 'note_on channel=0 note=73 velocity=0 time=11', 'note_on channel=0 note=74 velocity=0 time=0')
Note: ('note_on channel=0 note=74 velocity=79 time=13', 'note_on channel=0 note=59 velocity=82 time=3', 'note_on channel=0 note=73 velocity=0 time=11', 'note_on channel=0 note=74 velocity=0 time=0', 'note_on channel=0 note=76 velocity=74 time=6')
Note: ('note_on channel=0 note=59 velocity=82 time=3', 'note_on channel=0 note=73 velocity=0 time=11', 'note_on channel=0 note=74 velocity=0 time=0', 'note_on channel=0 note=76 velocity=74 time=6', 'note_on channel=0 note=74 velocity=73 time=2')
Note: ('note_on channel=0 note=73 velocity=0 time=11', 'note_on channel=0 note=74 velocity=0 time=0', 'note_on channel=0 note=76 velocity=74 time=6', 'note_on channel=0 note=74 velocity=73 time=2', 'note_on channel=0 note=76 velocity=0 time=7')
Note: ('note_on channel=0 note=74 velocity=0 time=0', 'note_on channel=0 note=76 velocity=74 time=6', 'note_on channel=0 note=74 velocity=73 time=2', 'note_on channel=0 note=76 velocity=0 time=7', 'note_on channel=0 note=59 velocity=0 time=9')
Note: ('note_on channel=0 note=76 velocity=74 time=6', 'note_on channel=0 note=74 velocity=73 time=2', 'note_on channel=0 note=76 velocity=0 time=7', 'note_on channel=0 note=59 velocity=0 time=9', 'note_on channel=0 note=67 velocity=67 time=5')
Note: ('note_on channel=0 note=74 velocity=73 time=2', 'note_on channel=0 note=76 velocity=0 time=7', 'note_on channel=0 note=59 velocity=0 time=9', 'note_on channel=0 note=67 velocity=67 time=5', 'note_on channel=0 note=73 velocity=74 time=12')
Note: ('note_on channel=0 note=76 velocity=0 time=7', 'note_on channel=0 note=59 velocity=0 time=9', 'note_on channel=0 note=67 velocity=67 time=5', 'note_on channel=0 note=73 velocity=74 time=12', 'note_on channel=0 note=74 velocity=0 time=0')
Note: ('note_on channel=0 note=59 velocity=0 time=9', 'note_on channel=0 note=67 velocity=67 time=5', 'note_on channel=0 note=73 velocity=74 time=12', 'note_on channel=0 note=74 velocity=0 time=0', 'note_on channel=0 note=67 velocity=0 time=0')
Note: ('note_on channel=0 note=67 velocity=67 time=5', 'note_on channel=0 note=73 velocity=74 time=12', 'note_on channel=0 note=74 velocity=0 time=0', 'note_on channel=0 note=67 velocity=0 time=0', 'note_on channel=0 note=73 velocity=0 time=6')
Note: ('note_on channel=0 note=73 velocity=74 time=12', 'note_on channel=0 note=74 velocity=0 time=0', 'note_on channel=0 note=67 velocity=0 time=0', 'note_on channel=0 note=73 velocity=0 time=6', 'note_on channel=0 note=74 velocity=70 time=6')
Note: ('note_on channel=0 note=74 velocity=0 time=0', 'note_on channel=0 note=67 velocity=0 time=0', 'note_on channel=0 note=73 velocity=0 time=6', 'note_on channel=0 note=74 velocity=70 time=6', 'note_on channel=0 note=76 velocity=76 time=3')
Note: ('note_on channel=0 note=67 velocity=0 time=0', 'note_on channel=0 note=73 velocity=0 time=6', 'note_on channel=0 note=74 velocity=70 time=6', 'note_on channel=0 note=76 velocity=76 time=3', 'note_on channel=0 note=61 velocity=66 time=3')
Note: ('note_on channel=0 note=73 velocity=0 time=6', 'note_on channel=0 note=74 velocity=70 time=6', 'note_on channel=0 note=76 velocity=76 time=3', 'note_on channel=0 note=61 velocity=66 time=3', 'note_on channel=0 note=74 velocity=0 time=3')
Note: ('note_on channel=0 note=74 velocity=70 time=6', 'note_on channel=0 note=76 velocity=76 time=3', 'note_on channel=0 note=61 velocity=66 time=3', 'note_on channel=0 note=74 velocity=0 time=3', 'note_on channel=0 note=76 velocity=0 time=15')
Note: ('note_on channel=0 note=76 velocity=76 time=3', 'note_on channel=0 note=61 velocity=66 time=3', 'note_on channel=0 note=74 velocity=0 time=3', 'note_on channel=0 note=76 velocity=0 time=15', 'note_on channel=0 note=78 velocity=75 time=6')
Note: ('note_on channel=0 note=61 velocity=66 time=3', 'note_on channel=0 note=74 velocity=0 time=3', 'note_on channel=0 note=76 velocity=0 time=15', 'note_on channel=0 note=78 velocity=75 time=6', 'note_on channel=0 note=78 velocity=0 time=0')
Note: ('note_on channel=0 note=74 velocity=0 time=3', 'note_on channel=0 note=76 velocity=0 time=15', 'note_on channel=0 note=78 velocity=75 time=6', 'note_on channel=0 note=78 velocity=0 time=0', 'note_on channel=0 note=76 velocity=70 time=1')
Note: ('note_on channel=0 note=76 velocity=0 time=15', 'note_on channel=0 note=78 velocity=75 time=6', 'note_on channel=0 note=78 velocity=0 time=0', 'note_on channel=0 note=76 velocity=70 time=1', 'note_on channel=0 note=69 velocity=60 time=8')
Note: ('note_on channel=0 note=78 velocity=75 time=6', 'note_on channel=0 note=78 velocity=0 time=0', 'note_on channel=0 note=76 velocity=70 time=1', 'note_on channel=0 note=69 velocity=60 time=8', 'note_on channel=0 note=76 velocity=0 time=7')
Note: ('note_on channel=0 note=78 velocity=0 time=0', 'note_on channel=0 note=76 velocity=70 time=1', 'note_on channel=0 note=69 velocity=60 time=8', 'note_on channel=0 note=76 velocity=0 time=7', 'note_on channel=0 note=61 velocity=0 time=5')
Note: ('note_on channel=0 note=76 velocity=70 time=1', 'note_on channel=0 note=69 velocity=60 time=8', 'note_on channel=0 note=76 velocity=0 time=7', 'note_on channel=0 note=61 velocity=0 time=5', 'note_on channel=0 note=69 velocity=0 time=4')
Note: ('note_on channel=0 note=69 velocity=60 time=8', 'note_on channel=0 note=76 velocity=0 time=7', 'note_on channel=0 note=61 velocity=0 time=5', 'note_on channel=0 note=69 velocity=0 time=4', 'note_on channel=0 note=74 velocity=72 time=7')
Note: ('note_on channel=0 note=76 velocity=0 time=7', 'note_on channel=0 note=61 velocity=0 time=5', 'note_on channel=0 note=69 velocity=0 time=4', 'note_on channel=0 note=74 velocity=72 time=7', 'note_on channel=0 note=74 velocity=0 time=13')
Note: ('note_on channel=0 note=61 velocity=0 time=5', 'note_on channel=0 note=69 velocity=0 time=4', 'note_on channel=0 note=74 velocity=72 time=7', 'note_on channel=0 note=74 velocity=0 time=13', 'note_on channel=0 note=76 velocity=62 time=5')
Note: ('note_on channel=0 note=69 velocity=0 time=4', 'note_on channel=0 note=74 velocity=72 time=7', 'note_on channel=0 note=74 velocity=0 time=13', 'note_on channel=0 note=76 velocity=62 time=5', 'note_on channel=0 note=78 velocity=73 time=12')
Note: ('note_on channel=0 note=74 velocity=72 time=7', 'note_on channel=0 note=74 velocity=0 time=13', 'note_on channel=0 note=76 velocity=62 time=5', 'note_on channel=0 note=78 velocity=73 time=12', 'note_on channel=0 note=62 velocity=57 time=8')
Note: ('note_on channel=0 note=74 velocity=0 time=13', 'note_on channel=0 note=76 velocity=62 time=5', 'note_on channel=0 note=78 velocity=73 time=12', 'note_on channel=0 note=62 velocity=57 time=8', 'note_on channel=0 note=76 velocity=0 time=5')
Note: ('note_on channel=0 note=76 velocity=62 time=5', 'note_on channel=0 note=78 velocity=73 time=12', 'note_on channel=0 note=62 velocity=57 time=8', 'note_on channel=0 note=76 velocity=0 time=5', 'note_on channel=0 note=78 velocity=0 time=27')
Note: ('note_on channel=0 note=78 velocity=73 time=12', 'note_on channel=0 note=62 velocity=57 time=8', 'note_on channel=0 note=76 velocity=0 time=5', 'note_on channel=0 note=78 velocity=0 time=27', 'note_on channel=0 note=79 velocity=63 time=13')
Note: ('note_on channel=0 note=62 velocity=57 time=8', 'note_on channel=0 note=76 velocity=0 time=5', 'note_on channel=0 note=78 velocity=0 time=27', 'note_on channel=0 note=79 velocity=63 time=13', 'note_on channel=0 note=78 velocity=67 time=10')
Note: ('note_on channel=0 note=76 velocity=0 time=5', 'note_on channel=0 note=78 velocity=0 time=27', 'note_on channel=0 note=79 velocity=63 time=13', 'note_on channel=0 note=78 velocity=67 time=10', 'note_on channel=0 note=62 velocity=0 time=2')
Note: ('note_on channel=0 note=78 velocity=0 time=27', 'note_on channel=0 note=79 velocity=63 time=13', 'note_on channel=0 note=78 velocity=67 time=10', 'note_on channel=0 note=62 velocity=0 time=2', 'note_on channel=0 note=79 velocity=0 time=2')
Note: ('note_on channel=0 note=79 velocity=63 time=13', 'note_on channel=0 note=78 velocity=67 time=10', 'note_on channel=0 note=62 velocity=0 time=2', 'note_on channel=0 note=79 velocity=0 time=2', 'note_on channel=0 note=71 velocity=61 time=0')
Note: ('note_on channel=0 note=78 velocity=67 time=10', 'note_on channel=0 note=62 velocity=0 time=2', 'note_on channel=0 note=79 velocity=0 time=2', 'note_on channel=0 note=71 velocity=61 time=0', 'note_on channel=0 note=71 velocity=0 time=8')
Note: ('note_on channel=0 note=62 velocity=0 time=2', 'note_on channel=0 note=79 velocity=0 time=2', 'note_on channel=0 note=71 velocity=61 time=0', 'note_on channel=0 note=71 velocity=0 time=8', 'note_on channel=0 note=78 velocity=0 time=2')
Note: ('note_on channel=0 note=79 velocity=0 time=2', 'note_on channel=0 note=71 velocity=61 time=0', 'note_on channel=0 note=71 velocity=0 time=8', 'note_on channel=0 note=78 velocity=0 time=2', 'note_on channel=0 note=76 velocity=64 time=7')
Note: ('note_on channel=0 note=71 velocity=61 time=0', 'note_on channel=0 note=71 velocity=0 time=8', 'note_on channel=0 note=78 velocity=0 time=2', 'note_on channel=0 note=76 velocity=64 time=7', 'note_on channel=0 note=78 velocity=61 time=13')
Note: ('note_on channel=0 note=71 velocity=0 time=8', 'note_on channel=0 note=78 velocity=0 time=2', 'note_on channel=0 note=76 velocity=64 time=7', 'note_on channel=0 note=78 velocity=61 time=13', 'note_on channel=0 note=76 velocity=0 time=0')
Note: ('note_on channel=0 note=78 velocity=0 time=2', 'note_on channel=0 note=76 velocity=64 time=7', 'note_on channel=0 note=78 velocity=61 time=13', 'note_on channel=0 note=76 velocity=0 time=0', 'note_on channel=0 note=79 velocity=72 time=3')
Note: ('note_on channel=0 note=76 velocity=64 time=7', 'note_on channel=0 note=78 velocity=61 time=13', 'note_on channel=0 note=76 velocity=0 time=0', 'note_on channel=0 note=79 velocity=72 time=3', 'note_on channel=0 note=78 velocity=0 time=10')
Note: ('note_on channel=0 note=78 velocity=61 time=13', 'note_on channel=0 note=76 velocity=0 time=0', 'note_on channel=0 note=79 velocity=72 time=3', 'note_on channel=0 note=78 velocity=0 time=10', 'note_on channel=0 note=64 velocity=51 time=1')
Note: ('note_on channel=0 note=76 velocity=0 time=0', 'note_on channel=0 note=79 velocity=72 time=3', 'note_on channel=0 note=78 velocity=0 time=10', 'note_on channel=0 note=64 velocity=51 time=1', 'note_on channel=0 note=79 velocity=0 time=1')
Note: ('note_on channel=0 note=79 velocity=72 time=3', 'note_on channel=0 note=78 velocity=0 time=10', 'note_on channel=0 note=64 velocity=51 time=1', 'note_on channel=0 note=79 velocity=0 time=1', 'note_on channel=0 note=81 velocity=64 time=20')
Note: ('note_on channel=0 note=78 velocity=0 time=10', 'note_on channel=0 note=64 velocity=51 time=1', 'note_on channel=0 note=79 velocity=0 time=1', 'note_on channel=0 note=81 velocity=64 time=20', 'note_on channel=0 note=81 velocity=0 time=8')
Note: ('note_on channel=0 note=64 velocity=51 time=1', 'note_on channel=0 note=79 velocity=0 time=1', 'note_on channel=0 note=81 velocity=64 time=20', 'note_on channel=0 note=81 velocity=0 time=8', 'note_on channel=0 note=79 velocity=65 time=5')
Note: ('note_on channel=0 note=79 velocity=0 time=1', 'note_on channel=0 note=81 velocity=64 time=20', 'note_on channel=0 note=81 velocity=0 time=8', 'note_on channel=0 note=79 velocity=65 time=5', 'note_on channel=0 note=64 velocity=0 time=1')
Note: ('note_on channel=0 note=81 velocity=64 time=20', 'note_on channel=0 note=81 velocity=0 time=8', 'note_on channel=0 note=79 velocity=65 time=5', 'note_on channel=0 note=64 velocity=0 time=1', 'note_on channel=0 note=73 velocity=55 time=5')
Note: ('note_on channel=0 note=81 velocity=0 time=8', 'note_on channel=0 note=79 velocity=65 time=5', 'note_on channel=0 note=64 velocity=0 time=1', 'note_on channel=0 note=73 velocity=55 time=5', 'note_on channel=0 note=79 velocity=0 time=9')
Note: ('note_on channel=0 note=79 velocity=65 time=5', 'note_on channel=0 note=64 velocity=0 time=1', 'note_on channel=0 note=73 velocity=55 time=5', 'note_on channel=0 note=79 velocity=0 time=9', 'note_on channel=0 note=73 velocity=0 time=5')
Note: ('note_on channel=0 note=64 velocity=0 time=1', 'note_on channel=0 note=73 velocity=55 time=5', 'note_on channel=0 note=79 velocity=0 time=9', 'note_on channel=0 note=73 velocity=0 time=5', 'note_on channel=0 note=78 velocity=64 time=3')
Note: ('note_on channel=0 note=73 velocity=55 time=5', 'note_on channel=0 note=79 velocity=0 time=9', 'note_on channel=0 note=73 velocity=0 time=5', 'note_on channel=0 note=78 velocity=64 time=3', 'note_on channel=0 note=78 velocity=0 time=11')
Note: ('note_on channel=0 note=79 velocity=0 time=9', 'note_on channel=0 note=73 velocity=0 time=5', 'note_on channel=0 note=78 velocity=64 time=3', 'note_on channel=0 note=78 velocity=0 time=11', 'note_on channel=0 note=79 velocity=75 time=32')
Note: ('note_on channel=0 note=73 velocity=0 time=5', 'note_on channel=0 note=78 velocity=64 time=3', 'note_on channel=0 note=78 velocity=0 time=11', 'note_on channel=0 note=79 velocity=75 time=32', 'note_on channel=0 note=79 velocity=0 time=0')
Note: ('note_on channel=0 note=78 velocity=64 time=3', 'note_on channel=0 note=78 velocity=0 time=11', 'note_on channel=0 note=79 velocity=75 time=32', 'note_on channel=0 note=79 velocity=0 time=0', 'note_on channel=0 note=81 velocity=75 time=3')
Note: ('note_on channel=0 note=78 velocity=0 time=11', 'note_on channel=0 note=79 velocity=75 time=32', 'note_on channel=0 note=79 velocity=0 time=0', 'note_on channel=0 note=81 velocity=75 time=3', 'note_on channel=0 note=66 velocity=56 time=5')
Note: ('note_on channel=0 note=79 velocity=75 time=32', 'note_on channel=0 note=79 velocity=0 time=0', 'note_on channel=0 note=81 velocity=75 time=3', 'note_on channel=0 note=66 velocity=56 time=5', 'note_on channel=0 note=81 velocity=0 time=11')
Note: ('note_on channel=0 note=79 velocity=0 time=0', 'note_on channel=0 note=81 velocity=75 time=3', 'note_on channel=0 note=66 velocity=56 time=5', 'note_on channel=0 note=81 velocity=0 time=11', 'note_on channel=0 note=83 velocity=68 time=14')
Note: ('note_on channel=0 note=81 velocity=75 time=3', 'note_on channel=0 note=66 velocity=56 time=5', 'note_on channel=0 note=81 velocity=0 time=11', 'note_on channel=0 note=83 velocity=68 time=14', 'note_on channel=0 note=66 velocity=0 time=0')
Note: ('note_on channel=0 note=66 velocity=56 time=5', 'note_on channel=0 note=81 velocity=0 time=11', 'note_on channel=0 note=83 velocity=68 time=14', 'note_on channel=0 note=66 velocity=0 time=0', 'note_on channel=0 note=81 velocity=71 time=14')
Note: ('note_on channel=0 note=81 velocity=0 time=11', 'note_on channel=0 note=83 velocity=68 time=14', 'note_on channel=0 note=66 velocity=0 time=0', 'note_on channel=0 note=81 velocity=71 time=14', 'note_on channel=0 note=83 velocity=0 time=0')
Note: ('note_on channel=0 note=66 velocity=0 time=0', 'note_on channel=0 note=81 velocity=71 time=14', 'note_on channel=0 note=83 velocity=0 time=0', 'note_on channel=0 note=74 velocity=63 time=10')
Note: ('note_on channel=0 note=81 velocity=71 time=14', 'note_on channel=0 note=83 velocity=0 time=0', 'note_on channel=0 note=74 velocity=63 time=10', 'note_on channel=0 note=81 velocity=0 time=1')
Note: ('note_on channel=0 note=83 velocity=0 time=0', 'note_on channel=0 note=74 velocity=63 time=10', 'note_on channel=0 note=81 velocity=0 time=1', 'note_on channel=0 note=74 velocity=0 time=9')
Note: ('note_on channel=0 note=74 velocity=63 time=10', 'note_on channel=0 note=81 velocity=0 time=1', 'note_on channel=0 note=74 velocity=0 time=9', 'note_on channel=0 note=79 velocity=71 time=2')
Note: ('note_on channel=0 note=81 velocity=0 time=1', 'note_on channel=0 note=74 velocity=0 time=9', 'note_on channel=0 note=79 velocity=71 time=2', 'note_on channel=0 note=79 velocity=0 time=14')
Note: ('note_on channel=0 note=74 velocity=0 time=9', 'note_on channel=0 note=79 velocity=71 time=2', 'note_on channel=0 note=79 velocity=0 time=14', 'note_on channel=0 note=81 velocity=67 time=7')
Note: ('note_on channel=0 note=79 velocity=71 time=2', 'note_on channel=0 note=79 velocity=0 time=14', 'note_on channel=0 note=81 velocity=67 time=7', 'note_on channel=0 note=83 velocity=81 time=13')
Note: ('note_on channel=0 note=79 velocity=0 time=14', 'note_on channel=0 note=81 velocity=67 time=7', 'note_on channel=0 note=83 velocity=81 time=13', 'note_on channel=0 note=81 velocity=0 time=12')
Note: ('note_on channel=0 note=81 velocity=67 time=7', 'note_on channel=0 note=83 velocity=81 time=13', 'note_on channel=0 note=81 velocity=0 time=12', 'note_on channel=0 note=67 velocity=56 time=6')
Note: ('note_on channel=0 note=83 velocity=81 time=13', 'note_on channel=0 note=81 velocity=0 time=12', 'note_on channel=0 note=67 velocity=56 time=6', 'note_on channel=0 note=83 velocity=0 time=9')
Note: ('note_on channel=0 note=81 velocity=0 time=12', 'note_on channel=0 note=67 velocity=56 time=6', 'note_on channel=0 note=83 velocity=0 time=9', 'note_on channel=0 note=67 velocity=0 time=22')
Note: ('note_on channel=0 note=67 velocity=56 time=6', 'note_on channel=0 note=83 velocity=0 time=9', 'note_on channel=0 note=67 velocity=0 time=22', 'note_on channel=0 note=85 velocity=76 time=93')
Note: ('note_on channel=0 note=83 velocity=0 time=9', 'note_on channel=0 note=67 velocity=0 time=22', 'note_on channel=0 note=85 velocity=76 time=93', 'note_on channel=0 note=69 velocity=60 time=7')
Note: ('note_on channel=0 note=67 velocity=0 time=22', 'note_on channel=0 note=85 velocity=76 time=93', 'note_on channel=0 note=69 velocity=60 time=7', 'note_on channel=0 note=69 velocity=0 time=31')
Note: ('note_on channel=0 note=85 velocity=76 time=93', 'note_on channel=0 note=69 velocity=60 time=7', 'note_on channel=0 note=69 velocity=0 time=31', 'note_on channel=0 note=85 velocity=0 time=0')
Note: ('note_on channel=0 note=69 velocity=60 time=7', 'note_on channel=0 note=69 velocity=0 time=31', 'note_on channel=0 note=85 velocity=0 time=0', 'note_on channel=0 note=86 velocity=74 time=108')
Note: ('note_on channel=0 note=69 velocity=0 time=31', 'note_on channel=0 note=85 velocity=0 time=0', 'note_on channel=0 note=86 velocity=74 time=108', 'note_on channel=0 note=71 velocity=66 time=2')
Note: ('note_on channel=0 note=85 velocity=0 time=0', 'note_on channel=0 note=86 velocity=74 time=108', 'note_on channel=0 note=71 velocity=66 time=2', 'note_on channel=0 note=71 velocity=0 time=25')
Note: ('note_on channel=0 note=86 velocity=74 time=108', 'note_on channel=0 note=71 velocity=66 time=2', 'note_on channel=0 note=71 velocity=0 time=25', 'note_on channel=0 note=85 velocity=74 time=34')
Note: ('note_on channel=0 note=71 velocity=66 time=2', 'note_on channel=0 note=71 velocity=0 time=25', 'note_on channel=0 note=85 velocity=74 time=34', 'note_on channel=0 note=86 velocity=0 time=20')
Note: ('note_on channel=0 note=71 velocity=0 time=25', 'note_on channel=0 note=85 velocity=74 time=34', 'note_on channel=0 note=86 velocity=0 time=20', 'note_on channel=0 note=83 velocity=72 time=12')
Note: ('note_on channel=0 note=85 velocity=74 time=34', 'note_on channel=0 note=86 velocity=0 time=20', 'note_on channel=0 note=83 velocity=72 time=12', 'note_on channel=0 note=85 velocity=0 time=10')
Note: ('note_on channel=0 note=86 velocity=0 time=20', 'note_on channel=0 note=83 velocity=72 time=12', 'note_on channel=0 note=85 velocity=0 time=10', 'note_on channel=0 note=81 velocity=77 time=13')
Note: ('note_on channel=0 note=83 velocity=72 time=12', 'note_on channel=0 note=85 velocity=0 time=10', 'note_on channel=0 note=81 velocity=77 time=13', 'note_on channel=0 note=83 velocity=0 time=6')
Note: ('note_on channel=0 note=85 velocity=0 time=10', 'note_on channel=0 note=81 velocity=77 time=13', 'note_on channel=0 note=83 velocity=0 time=6', 'note_on channel=0 note=81 velocity=0 time=8')
Note: ('note_on channel=0 note=81 velocity=77 time=13', 'note_on channel=0 note=83 velocity=0 time=6', 'note_on channel=0 note=81 velocity=0 time=8', 'note_on channel=0 note=67 velocity=60 time=12')
Note: ('note_on channel=0 note=83 velocity=0 time=6', 'note_on channel=0 note=81 velocity=0 time=8', 'note_on channel=0 note=67 velocity=60 time=12', 'note_on channel=0 note=79 velocity=73 time=6')
Note: ('note_on channel=0 note=81 velocity=0 time=8', 'note_on channel=0 note=67 velocity=60 time=12', 'note_on channel=0 note=79 velocity=73 time=6', 'note_on channel=0 note=67 velocity=0 time=13')
Note: ('note_on channel=0 note=67 velocity=60 time=12', 'note_on channel=0 note=79 velocity=73 time=6', 'note_on channel=0 note=67 velocity=0 time=13', 'note_on channel=0 note=79 velocity=0 time=4')
Note: ('note_on channel=0 note=79 velocity=73 time=6', 'note_on channel=0 note=67 velocity=0 time=13', 'note_on channel=0 note=79 velocity=0 time=4', 'note_on channel=0 note=78 velocity=73 time=4')
Note: ('note_on channel=0 note=67 velocity=0 time=13', 'note_on channel=0 note=79 velocity=0 time=4', 'note_on channel=0 note=78 velocity=73 time=4', 'note_on channel=0 note=76 velocity=64 time=12')
Note: ('note_on channel=0 note=79 velocity=0 time=4', 'note_on channel=0 note=78 velocity=73 time=4', 'note_on channel=0 note=76 velocity=64 time=12', 'note_on channel=0 note=78 velocity=0 time=18')
Note: ('note_on channel=0 note=78 velocity=73 time=4', 'note_on channel=0 note=76 velocity=64 time=12', 'note_on channel=0 note=78 velocity=0 time=18', 'note_on channel=0 note=76 velocity=0 time=6')
Note: ('note_on channel=0 note=76 velocity=64 time=12', 'note_on channel=0 note=78 velocity=0 time=18', 'note_on channel=0 note=76 velocity=0 time=6', 'note_on channel=0 note=74 velocity=72 time=8')
Note: ('note_on channel=0 note=78 velocity=0 time=18', 'note_on channel=0 note=76 velocity=0 time=6', 'note_on channel=0 note=74 velocity=72 time=8', 'note_on channel=0 note=74 velocity=0 time=12')
Note: ('note_on channel=0 note=76 velocity=0 time=6', 'note_on channel=0 note=74 velocity=72 time=8', 'note_on channel=0 note=74 velocity=0 time=12', 'note_on channel=0 note=69 velocity=58 time=11')
Note: ('note_on channel=0 note=74 velocity=72 time=8', 'note_on channel=0 note=74 velocity=0 time=12', 'note_on channel=0 note=69 velocity=58 time=11', 'note_on channel=0 note=78 velocity=74 time=7')
Note: ('note_on channel=0 note=74 velocity=0 time=12', 'note_on channel=0 note=69 velocity=58 time=11', 'note_on channel=0 note=78 velocity=74 time=7', 'note_on channel=0 note=69 velocity=0 time=18')
Note: ('note_on channel=0 note=69 velocity=58 time=11', 'note_on channel=0 note=78 velocity=74 time=7', 'note_on channel=0 note=69 velocity=0 time=18', 'note_on channel=0 note=78 velocity=0 time=19')
Note: ('note_on channel=0 note=78 velocity=74 time=7', 'note_on channel=0 note=69 velocity=0 time=18', 'note_on channel=0 note=78 velocity=0 time=19', 'note_on channel=0 note=76 velocity=68 time=14')
Note: ('note_on channel=0 note=69 velocity=0 time=18', 'note_on channel=0 note=78 velocity=0 time=19', 'note_on channel=0 note=76 velocity=68 time=14', 'note_on channel=0 note=76 velocity=0 time=18')
Note: ('note_on channel=0 note=78 velocity=0 time=19', 'note_on channel=0 note=76 velocity=68 time=14', 'note_on channel=0 note=76 velocity=0 time=18', 'note_on channel=0 note=78 velocity=71 time=4')
Note: ('note_on channel=0 note=76 velocity=68 time=14', 'note_on channel=0 note=76 velocity=0 time=18', 'note_on channel=0 note=78 velocity=71 time=4', 'note_on channel=0 note=78 velocity=0 time=10')
Note: ('note_on channel=0 note=76 velocity=0 time=18', 'note_on channel=0 note=78 velocity=71 time=4', 'note_on channel=0 note=78 velocity=0 time=10', 'note_on channel=0 note=76 velocity=62 time=4')
Note: ('note_on channel=0 note=78 velocity=71 time=4', 'note_on channel=0 note=78 velocity=0 time=10', 'note_on channel=0 note=76 velocity=62 time=4', 'note_on channel=0 note=76 velocity=0 time=29')
Note: ('note_on channel=0 note=78 velocity=0 time=10', 'note_on channel=0 note=76 velocity=62 time=4', 'note_on channel=0 note=76 velocity=0 time=29', 'note_on channel=0 note=78 velocity=65 time=14')
Note: ('note_on channel=0 note=76 velocity=62 time=4', 'note_on channel=0 note=76 velocity=0 time=29', 'note_on channel=0 note=78 velocity=65 time=14', 'note_on channel=0 note=78 velocity=0 time=52')
Note: ('note_on channel=0 note=76 velocity=0 time=29', 'note_on channel=0 note=78 velocity=65 time=14', 'note_on channel=0 note=78 velocity=0 time=52', 'note_on channel=0 note=76 velocity=68 time=3')
Note: ('note_on channel=0 note=78 velocity=65 time=14', 'note_on channel=0 note=78 velocity=0 time=52', 'note_on channel=0 note=76 velocity=68 time=3', 'note_on channel=0 note=76 velocity=0 time=20')
Note: ('note_on channel=0 note=78 velocity=0 time=52', 'note_on channel=0 note=76 velocity=68 time=3', 'note_on channel=0 note=76 velocity=0 time=20', 'note_on channel=0 note=57 velocity=53 time=3')
Note: ('note_on channel=0 note=76 velocity=68 time=3', 'note_on channel=0 note=76 velocity=0 time=20', 'note_on channel=0 note=57 velocity=53 time=3', 'note_on channel=0 note=78 velocity=69 time=13')
Note: ('note_on channel=0 note=76 velocity=0 time=20', 'note_on channel=0 note=57 velocity=53 time=3', 'note_on channel=0 note=78 velocity=69 time=13', 'note_on channel=0 note=57 velocity=0 time=19')
Note: ('note_on channel=0 note=57 velocity=53 time=3', 'note_on channel=0 note=78 velocity=69 time=13', 'note_on channel=0 note=57 velocity=0 time=19', 'note_on channel=0 note=78 velocity=0 time=35')
Note: ('note_on channel=0 note=78 velocity=69 time=13', 'note_on channel=0 note=57 velocity=0 time=19', 'note_on channel=0 note=78 velocity=0 time=35', 'note_on channel=0 note=76 velocity=61 time=9')
Note: ('note_on channel=0 note=57 velocity=0 time=19', 'note_on channel=0 note=78 velocity=0 time=35', 'note_on channel=0 note=76 velocity=61 time=9', 'note_on channel=0 note=76 velocity=0 time=34')
Note: ('note_on channel=0 note=78 velocity=0 time=35', 'note_on channel=0 note=76 velocity=61 time=9', 'note_on channel=0 note=76 velocity=0 time=34', 'note_on channel=0 note=78 velocity=70 time=12')
Note: ('note_on channel=0 note=76 velocity=61 time=9', 'note_on channel=0 note=76 velocity=0 time=34', 'note_on channel=0 note=78 velocity=70 time=12', 'note_on channel=0 note=78 velocity=0 time=56')
Note: ('note_on channel=0 note=76 velocity=0 time=34', 'note_on channel=0 note=78 velocity=70 time=12', 'note_on channel=0 note=78 velocity=0 time=56', 'note_on channel=0 note=76 velocity=67 time=7')
Note: ('note_on channel=0 note=78 velocity=70 time=12', 'note_on channel=0 note=78 velocity=0 time=56', 'note_on channel=0 note=76 velocity=67 time=7', 'note_on channel=0 note=76 velocity=0 time=28')
Note: ('note_on channel=0 note=78 velocity=0 time=56', 'note_on channel=0 note=76 velocity=67 time=7', 'note_on channel=0 note=76 velocity=0 time=28', 'note_on channel=0 note=74 velocity=56 time=23')
Note: ('note_on channel=0 note=76 velocity=67 time=7', 'note_on channel=0 note=76 velocity=0 time=28', 'note_on channel=0 note=74 velocity=56 time=23', 'note_on channel=0 note=74 velocity=0 time=34')
Note: ('note_on channel=0 note=76 velocity=0 time=28', 'note_on channel=0 note=74 velocity=56 time=23', 'note_on channel=0 note=74 velocity=0 time=34', 'note_on channel=0 note=76 velocity=56 time=30')
Note: ('note_on channel=0 note=74 velocity=61 time=64',)
Note: ('note_on channel=0 note=76 velocity=0 time=5',)
Note: ('note_on channel=0 note=72 velocity=0 time=12',)
Note: ('note_on channel=0 note=65 velocity=66 time=2',)
Note: ('note_on channel=0 note=53 velocity=58 time=9',)
Note: ('note_on channel=0 note=51 velocity=61 time=70',)
Note: ('note_on channel=0 note=63 velocity=68 time=9',)
Note: ('note_on channel=0 note=69 velocity=0 time=0',)
Note: ('note_on channel=0 note=46 velocity=0 time=4',)
Note: ('note_on channel=0 note=64 velocity=59 time=5',)
Note: ('note_on channel=0 note=61 velocity=63 time=3',)
Note: ('note_on channel=0 note=38 velocity=0 time=97',)
Note: ('note_on channel=0 note=49 velocity=73 time=10',)
Note: ('note_on channel=0 note=67 velocity=83 time=8',)
Note: ('note_on channel=0 note=61 velocity=0 time=0',)
Note: ('note_on channel=0 note=64 velocity=50 time=1',)
Note: ('note_on channel=0 note=64 velocity=0 time=18',)
Note: ('note_on channel=0 note=79 velocity=0 time=8',)
Note: ('note_on channel=0 note=60 velocity=88 time=13',)
Note: ('note_on channel=0 note=72 velocity=88 time=24',)
Note: ('note_on channel=0 note=55 velocity=0 time=10',)
Note: ('note_on channel=0 note=52 velocity=0 time=0',)
Note: ('note_on channel=0 note=79 velocity=0 time=3',)
Note: ('note_on channel=0 note=34 velocity=0 time=41',)
Note: ('note_on channel=0 note=46 velocity=0 time=14',)
Note: ('note_on channel=0 note=39 velocity=76 time=122',)
Note: ('note_on channel=0 note=39 velocity=0 time=58',)
Note: ('note_on channel=0 note=47 velocity=0 time=39',)
Note: ('note_on channel=0 note=51 velocity=44 time=295',)
Note: ('note_on channel=0 note=39 velocity=76 time=122', 'note_on channel=0 note=39 velocity=0 time=58', 'note_on channel=0 note=47 velocity=0 time=39', 'note_on channel=0 note=51 velocity=44 time=295', 'note_on channel=0 note=68 velocity=53 time=487')
Note: ('note_on channel=0 note=39 velocity=0 time=58', 'note_on channel=0 note=47 velocity=0 time=39', 'note_on channel=0 note=51 velocity=44 time=295', 'note_on channel=0 note=68 velocity=53 time=487', 'note_on channel=0 note=59 velocity=39 time=39')
Note: ('note_on channel=0 note=47 velocity=0 time=39', 'note_on channel=0 note=51 velocity=44 time=295', 'note_on channel=0 note=68 velocity=53 time=487', 'note_on channel=0 note=59 velocity=39 time=39', 'note_on channel=0 note=51 velocity=0 time=160')
Note: ('note_on channel=0 note=51 velocity=44 time=295', 'note_on channel=0 note=68 velocity=53 time=487', 'note_on channel=0 note=59 velocity=39 time=39', 'note_on channel=0 note=51 velocity=0 time=160', 'note_on channel=0 note=70 velocity=0 time=9')
Note: ('note_on channel=0 note=68 velocity=53 time=487', 'note_on channel=0 note=59 velocity=39 time=39', 'note_on channel=0 note=51 velocity=0 time=160', 'note_on channel=0 note=70 velocity=0 time=9', 'note_on channel=0 note=59 velocity=0 time=63')
Note: ('note_on channel=0 note=59 velocity=39 time=39', 'note_on channel=0 note=51 velocity=0 time=160', 'note_on channel=0 note=70 velocity=0 time=9', 'note_on channel=0 note=59 velocity=0 time=63', 'note_on channel=0 note=63 velocity=43 time=276')
Note: ('note_on channel=0 note=51 velocity=0 time=160', 'note_on channel=0 note=70 velocity=0 time=9', 'note_on channel=0 note=59 velocity=0 time=63', 'note_on channel=0 note=63 velocity=43 time=276', 'note_on channel=0 note=63 velocity=0 time=243')
Note: ('note_on channel=0 note=70 velocity=0 time=9', 'note_on channel=0 note=59 velocity=0 time=63', 'note_on channel=0 note=63 velocity=43 time=276', 'note_on channel=0 note=63 velocity=0 time=243', 'note_on channel=0 note=71 velocity=42 time=627')
Note: ('note_on channel=0 note=59 velocity=0 time=63', 'note_on channel=0 note=63 velocity=43 time=276', 'note_on channel=0 note=63 velocity=0 time=243', 'note_on channel=0 note=71 velocity=42 time=627', 'note_on channel=0 note=71 velocity=0 time=378')
Note: ('note_on channel=0 note=63 velocity=43 time=276', 'note_on channel=0 note=63 velocity=0 time=243', 'note_on channel=0 note=71 velocity=42 time=627', 'note_on channel=0 note=71 velocity=0 time=378', 'note_on channel=0 note=80 velocity=45 time=154')
Note: ('note_on channel=0 note=63 velocity=0 time=243', 'note_on channel=0 note=71 velocity=42 time=627', 'note_on channel=0 note=71 velocity=0 time=378', 'note_on channel=0 note=80 velocity=45 time=154', 'note_on channel=0 note=78 velocity=65 time=305')
Note: ('note_on channel=0 note=71 velocity=42 time=627', 'note_on channel=0 note=71 velocity=0 time=378', 'note_on channel=0 note=80 velocity=45 time=154', 'note_on channel=0 note=78 velocity=65 time=305', 'note_on channel=0 note=80 velocity=0 time=101')
Note: ('note_on channel=0 note=71 velocity=0 time=378', 'note_on channel=0 note=80 velocity=45 time=154', 'note_on channel=0 note=78 velocity=65 time=305', 'note_on channel=0 note=80 velocity=0 time=101', 'note_on channel=0 note=69 velocity=51 time=0')
Note: ('note_on channel=0 note=80 velocity=45 time=154', 'note_on channel=0 note=78 velocity=65 time=305', 'note_on channel=0 note=80 velocity=0 time=101', 'note_on channel=0 note=69 velocity=51 time=0', 'note_on channel=0 note=73 velocity=34 time=10')
Note: ('note_on channel=0 note=78 velocity=65 time=305', 'note_on channel=0 note=80 velocity=0 time=101', 'note_on channel=0 note=69 velocity=51 time=0', 'note_on channel=0 note=73 velocity=34 time=10', 'note_on channel=0 note=66 velocity=42 time=11')
Note: ('note_on channel=0 note=80 velocity=0 time=101', 'note_on channel=0 note=69 velocity=51 time=0', 'note_on channel=0 note=73 velocity=34 time=10', 'note_on channel=0 note=66 velocity=42 time=11', 'note_on channel=0 note=78 velocity=0 time=2')
Note: ('note_on channel=0 note=69 velocity=51 time=0', 'note_on channel=0 note=73 velocity=34 time=10', 'note_on channel=0 note=66 velocity=42 time=11', 'note_on channel=0 note=78 velocity=0 time=2', 'note_on channel=0 note=68 velocity=0 time=8')
Note: ('note_on channel=0 note=73 velocity=34 time=10', 'note_on channel=0 note=66 velocity=42 time=11', 'note_on channel=0 note=78 velocity=0 time=2', 'note_on channel=0 note=68 velocity=0 time=8', 'note_on channel=0 note=76 velocity=57 time=6')
Note: ('note_on channel=0 note=66 velocity=42 time=11', 'note_on channel=0 note=78 velocity=0 time=2', 'note_on channel=0 note=68 velocity=0 time=8', 'note_on channel=0 note=76 velocity=57 time=6', 'note_on channel=0 note=69 velocity=0 time=9')
Note: ('note_on channel=0 note=78 velocity=0 time=2', 'note_on channel=0 note=68 velocity=0 time=8', 'note_on channel=0 note=76 velocity=57 time=6', 'note_on channel=0 note=69 velocity=0 time=9', 'note_on channel=0 note=73 velocity=0 time=10')
Note: ('note_on channel=0 note=68 velocity=0 time=8', 'note_on channel=0 note=76 velocity=57 time=6', 'note_on channel=0 note=69 velocity=0 time=9', 'note_on channel=0 note=73 velocity=0 time=10', 'note_on channel=0 note=75 velocity=61 time=73')
Note: ('note_on channel=0 note=76 velocity=57 time=6', 'note_on channel=0 note=69 velocity=0 time=9', 'note_on channel=0 note=73 velocity=0 time=10', 'note_on channel=0 note=75 velocity=61 time=73', 'note_on channel=0 note=76 velocity=0 time=51')
Note: ('note_on channel=0 note=69 velocity=0 time=9', 'note_on channel=0 note=73 velocity=0 time=10', 'note_on channel=0 note=75 velocity=61 time=73', 'note_on channel=0 note=76 velocity=0 time=51', 'note_on channel=0 note=68 velocity=46 time=362')
Note: ('note_on channel=0 note=73 velocity=0 time=10', 'note_on channel=0 note=75 velocity=61 time=73', 'note_on channel=0 note=76 velocity=0 time=51', 'note_on channel=0 note=68 velocity=46 time=362', 'note_on channel=0 note=72 velocity=44 time=6')
Note: ('note_on channel=0 note=75 velocity=61 time=73', 'note_on channel=0 note=76 velocity=0 time=51', 'note_on channel=0 note=68 velocity=46 time=362', 'note_on channel=0 note=72 velocity=44 time=6', 'note_on channel=0 note=66 velocity=0 time=100')
Note: ('note_on channel=0 note=76 velocity=0 time=51', 'note_on channel=0 note=68 velocity=46 time=362', 'note_on channel=0 note=72 velocity=44 time=6', 'note_on channel=0 note=66 velocity=0 time=100', 'note_on channel=0 note=75 velocity=0 time=57')
Note: ('note_on channel=0 note=68 velocity=46 time=362', 'note_on channel=0 note=72 velocity=44 time=6', 'note_on channel=0 note=66 velocity=0 time=100', 'note_on channel=0 note=75 velocity=0 time=57', 'note_on channel=0 note=72 velocity=0 time=2')
Note: ('note_on channel=0 note=72 velocity=44 time=6', 'note_on channel=0 note=66 velocity=0 time=100', 'note_on channel=0 note=75 velocity=0 time=57', 'note_on channel=0 note=72 velocity=0 time=2', 'note_on channel=0 note=80 velocity=51 time=9')
Note: ('note_on channel=0 note=66 velocity=0 time=100', 'note_on channel=0 note=75 velocity=0 time=57', 'note_on channel=0 note=72 velocity=0 time=2', 'note_on channel=0 note=80 velocity=51 time=9', 'note_on channel=0 note=78 velocity=64 time=59')
Note: ('note_on channel=0 note=75 velocity=0 time=57', 'note_on channel=0 note=72 velocity=0 time=2', 'note_on channel=0 note=80 velocity=51 time=9', 'note_on channel=0 note=78 velocity=64 time=59', 'note_on channel=0 note=80 velocity=0 time=70')
Note: ('note_on channel=0 note=72 velocity=0 time=2', 'note_on channel=0 note=80 velocity=51 time=9', 'note_on channel=0 note=78 velocity=64 time=59', 'note_on channel=0 note=80 velocity=0 time=70', 'note_on channel=0 note=69 velocity=50 time=220')
Note: ('note_on channel=0 note=80 velocity=51 time=9', 'note_on channel=0 note=78 velocity=64 time=59', 'note_on channel=0 note=80 velocity=0 time=70', 'note_on channel=0 note=69 velocity=50 time=220', 'note_on channel=0 note=78 velocity=0 time=52')
Note: ('note_on channel=0 note=78 velocity=64 time=59', 'note_on channel=0 note=80 velocity=0 time=70', 'note_on channel=0 note=69 velocity=50 time=220', 'note_on channel=0 note=78 velocity=0 time=52', 'note_on channel=0 note=73 velocity=38 time=1')
Note: ('note_on channel=0 note=80 velocity=0 time=70', 'note_on channel=0 note=69 velocity=50 time=220', 'note_on channel=0 note=78 velocity=0 time=52', 'note_on channel=0 note=73 velocity=38 time=1', 'note_on channel=0 note=66 velocity=45 time=10')
Note: ('note_on channel=0 note=69 velocity=50 time=220', 'note_on channel=0 note=78 velocity=0 time=52', 'note_on channel=0 note=73 velocity=38 time=1', 'note_on channel=0 note=66 velocity=45 time=10', 'note_on channel=0 note=68 velocity=0 time=94')
Note: ('note_on channel=0 note=78 velocity=0 time=52', 'note_on channel=0 note=73 velocity=38 time=1', 'note_on channel=0 note=66 velocity=45 time=10', 'note_on channel=0 note=68 velocity=0 time=94', 'note_on channel=0 note=76 velocity=65 time=84')
Note: ('note_on channel=0 note=73 velocity=38 time=1', 'note_on channel=0 note=66 velocity=45 time=10', 'note_on channel=0 note=68 velocity=0 time=94', 'note_on channel=0 note=76 velocity=65 time=84', 'note_on channel=0 note=75 velocity=69 time=94')
Note: ('note_on channel=0 note=66 velocity=45 time=10', 'note_on channel=0 note=68 velocity=0 time=94', 'note_on channel=0 note=76 velocity=65 time=84', 'note_on channel=0 note=75 velocity=69 time=94', 'note_on channel=0 note=76 velocity=0 time=40')
Note: ('note_on channel=0 note=68 velocity=0 time=94', 'note_on channel=0 note=76 velocity=65 time=84', 'note_on channel=0 note=75 velocity=69 time=94', 'note_on channel=0 note=76 velocity=0 time=40', 'note_on channel=0 note=85 velocity=65 time=169')
Note: ('note_on channel=0 note=76 velocity=65 time=84', 'note_on channel=0 note=75 velocity=69 time=94', 'note_on channel=0 note=76 velocity=0 time=40', 'note_on channel=0 note=85 velocity=65 time=169', 'note_on channel=0 note=73 velocity=0 time=8')
Note: ('note_on channel=0 note=75 velocity=69 time=94', 'note_on channel=0 note=76 velocity=0 time=40', 'note_on channel=0 note=85 velocity=65 time=169', 'note_on channel=0 note=73 velocity=0 time=8', 'note_on channel=0 note=85 velocity=0 time=4')
Note: ('note_on channel=0 note=76 velocity=0 time=40', 'note_on channel=0 note=85 velocity=65 time=169', 'note_on channel=0 note=73 velocity=0 time=8', 'note_on channel=0 note=85 velocity=0 time=4', 'note_on channel=0 note=69 velocity=0 time=2')
Note: ('note_on channel=0 note=85 velocity=65 time=169', 'note_on channel=0 note=73 velocity=0 time=8', 'note_on channel=0 note=85 velocity=0 time=4', 'note_on channel=0 note=69 velocity=0 time=2', 'note_on channel=0 note=83 velocity=76 time=6')
Note: ('note_on channel=0 note=73 velocity=0 time=8', 'note_on channel=0 note=85 velocity=0 time=4', 'note_on channel=0 note=69 velocity=0 time=2', 'note_on channel=0 note=83 velocity=76 time=6', 'note_on channel=0 note=83 velocity=0 time=33')
Note: ('note_on channel=0 note=85 velocity=0 time=4', 'note_on channel=0 note=69 velocity=0 time=2', 'note_on channel=0 note=83 velocity=76 time=6', 'note_on channel=0 note=83 velocity=0 time=33', 'note_on channel=0 note=81 velocity=83 time=138')
Note: ('note_on channel=0 note=69 velocity=0 time=2', 'note_on channel=0 note=83 velocity=76 time=6', 'note_on channel=0 note=83 velocity=0 time=33', 'note_on channel=0 note=81 velocity=83 time=138', 'note_on channel=0 note=81 velocity=0 time=99')
Note: ('note_on channel=0 note=83 velocity=76 time=6', 'note_on channel=0 note=83 velocity=0 time=33', 'note_on channel=0 note=81 velocity=83 time=138', 'note_on channel=0 note=81 velocity=0 time=99', 'note_on channel=0 note=80 velocity=67 time=195')
Note: ('note_on channel=0 note=83 velocity=0 time=33', 'note_on channel=0 note=81 velocity=83 time=138', 'note_on channel=0 note=81 velocity=0 time=99', 'note_on channel=0 note=80 velocity=67 time=195', 'note_on channel=0 note=72 velocity=43 time=30')
Note: ('note_on channel=0 note=81 velocity=83 time=138', 'note_on channel=0 note=81 velocity=0 time=99', 'note_on channel=0 note=80 velocity=67 time=195', 'note_on channel=0 note=72 velocity=43 time=30', 'note_on channel=0 note=68 velocity=37 time=16')
Note: ('note_on channel=0 note=81 velocity=0 time=99', 'note_on channel=0 note=80 velocity=67 time=195', 'note_on channel=0 note=72 velocity=43 time=30', 'note_on channel=0 note=68 velocity=37 time=16', 'note_on channel=0 note=66 velocity=0 time=17')
Note: ('note_on channel=0 note=80 velocity=67 time=195', 'note_on channel=0 note=72 velocity=43 time=30', 'note_on channel=0 note=68 velocity=37 time=16', 'note_on channel=0 note=66 velocity=0 time=17', 'note_on channel=0 note=68 velocity=0 time=11')
Note: ('note_on channel=0 note=72 velocity=43 time=30', 'note_on channel=0 note=68 velocity=37 time=16', 'note_on channel=0 note=66 velocity=0 time=17', 'note_on channel=0 note=68 velocity=0 time=11', 'note_on channel=0 note=66 velocity=54 time=24')
Note: ('note_on channel=0 note=68 velocity=37 time=16', 'note_on channel=0 note=66 velocity=0 time=17', 'note_on channel=0 note=68 velocity=0 time=11', 'note_on channel=0 note=66 velocity=54 time=24', 'note_on channel=0 note=78 velocity=74 time=217')
Note: ('note_on channel=0 note=66 velocity=0 time=17', 'note_on channel=0 note=68 velocity=0 time=11', 'note_on channel=0 note=66 velocity=54 time=24', 'note_on channel=0 note=78 velocity=74 time=217', 'note_on channel=0 note=66 velocity=0 time=15')
Note: ('note_on channel=0 note=68 velocity=0 time=11', 'note_on channel=0 note=66 velocity=54 time=24', 'note_on channel=0 note=78 velocity=74 time=217', 'note_on channel=0 note=66 velocity=0 time=15', 'note_on channel=0 note=68 velocity=52 time=3')
Note: ('note_on channel=0 note=66 velocity=54 time=24', 'note_on channel=0 note=78 velocity=74 time=217', 'note_on channel=0 note=66 velocity=0 time=15', 'note_on channel=0 note=68 velocity=52 time=3', 'note_on channel=0 note=75 velocity=0 time=0')
Note: ('note_on channel=0 note=78 velocity=74 time=217', 'note_on channel=0 note=66 velocity=0 time=15', 'note_on channel=0 note=68 velocity=52 time=3', 'note_on channel=0 note=75 velocity=0 time=0', 'note_on channel=0 note=80 velocity=0 time=45')
Note: ('note_on channel=0 note=66 velocity=0 time=15', 'note_on channel=0 note=68 velocity=52 time=3', 'note_on channel=0 note=75 velocity=0 time=0', 'note_on channel=0 note=80 velocity=0 time=45', 'note_on channel=0 note=72 velocity=0 time=10')
Note: ('note_on channel=0 note=68 velocity=52 time=3', 'note_on channel=0 note=75 velocity=0 time=0', 'note_on channel=0 note=80 velocity=0 time=45', 'note_on channel=0 note=72 velocity=0 time=10', 'note_on channel=0 note=76 velocity=68 time=1')
Note: ('note_on channel=0 note=75 velocity=0 time=0', 'note_on channel=0 note=80 velocity=0 time=45', 'note_on channel=0 note=72 velocity=0 time=10', 'note_on channel=0 note=76 velocity=68 time=1', 'note_on channel=0 note=69 velocity=45 time=9')
Note: ('note_on channel=0 note=80 velocity=0 time=45', 'note_on channel=0 note=72 velocity=0 time=10', 'note_on channel=0 note=76 velocity=68 time=1', 'note_on channel=0 note=69 velocity=45 time=9', 'note_on channel=0 note=73 velocity=56 time=7')
Note: ('note_on channel=0 note=72 velocity=0 time=10', 'note_on channel=0 note=76 velocity=68 time=1', 'note_on channel=0 note=69 velocity=45 time=9', 'note_on channel=0 note=73 velocity=56 time=7', 'note_on channel=0 note=68 velocity=0 time=11')
Note: ('note_on channel=0 note=76 velocity=68 time=1', 'note_on channel=0 note=69 velocity=45 time=9', 'note_on channel=0 note=73 velocity=56 time=7', 'note_on channel=0 note=68 velocity=0 time=11', 'note_on channel=0 note=78 velocity=0 time=5')
Note: ('note_on channel=0 note=69 velocity=45 time=9', 'note_on channel=0 note=73 velocity=56 time=7', 'note_on channel=0 note=68 velocity=0 time=11', 'note_on channel=0 note=78 velocity=0 time=5', 'note_on channel=0 note=64 velocity=42 time=15')
Note: ('note_on channel=0 note=73 velocity=56 time=7', 'note_on channel=0 note=68 velocity=0 time=11', 'note_on channel=0 note=78 velocity=0 time=5', 'note_on channel=0 note=64 velocity=42 time=15', 'note_on channel=0 note=69 velocity=0 time=8')
Note: ('note_on channel=0 note=68 velocity=0 time=11', 'note_on channel=0 note=78 velocity=0 time=5', 'note_on channel=0 note=64 velocity=42 time=15', 'note_on channel=0 note=69 velocity=0 time=8', 'note_on channel=0 note=73 velocity=0 time=14')
Note: ('note_on channel=0 note=78 velocity=0 time=5', 'note_on channel=0 note=64 velocity=42 time=15', 'note_on channel=0 note=69 velocity=0 time=8', 'note_on channel=0 note=73 velocity=0 time=14', 'note_on channel=0 note=81 velocity=69 time=10')
Note: ('note_on channel=0 note=64 velocity=42 time=15', 'note_on channel=0 note=69 velocity=0 time=8', 'note_on channel=0 note=73 velocity=0 time=14', 'note_on channel=0 note=81 velocity=69 time=10', 'note_on channel=0 note=66 velocity=47 time=21')
Note: ('note_on channel=0 note=69 velocity=0 time=8', 'note_on channel=0 note=73 velocity=0 time=14', 'note_on channel=0 note=81 velocity=69 time=10', 'note_on channel=0 note=66 velocity=47 time=21', 'note_on channel=0 note=64 velocity=0 time=26')
Note: ('note_on channel=0 note=73 velocity=0 time=14', 'note_on channel=0 note=81 velocity=69 time=10', 'note_on channel=0 note=66 velocity=47 time=21', 'note_on channel=0 note=64 velocity=0 time=26', 'note_on channel=0 note=76 velocity=0 time=0')
Note: ('note_on channel=0 note=81 velocity=69 time=10', 'note_on channel=0 note=66 velocity=47 time=21', 'note_on channel=0 note=64 velocity=0 time=26', 'note_on channel=0 note=76 velocity=0 time=0', 'note_on channel=0 note=80 velocity=63 time=75')
Note: ('note_on channel=0 note=66 velocity=47 time=21', 'note_on channel=0 note=64 velocity=0 time=26', 'note_on channel=0 note=76 velocity=0 time=0', 'note_on channel=0 note=80 velocity=63 time=75', 'note_on channel=0 note=75 velocity=53 time=13')
Note: ('note_on channel=0 note=64 velocity=0 time=26', 'note_on channel=0 note=76 velocity=0 time=0', 'note_on channel=0 note=80 velocity=63 time=75', 'note_on channel=0 note=75 velocity=53 time=13', 'note_on channel=0 note=66 velocity=0 time=13')
Note: ('note_on channel=0 note=76 velocity=0 time=0', 'note_on channel=0 note=80 velocity=63 time=75', 'note_on channel=0 note=75 velocity=53 time=13', 'note_on channel=0 note=66 velocity=0 time=13', 'note_on channel=0 note=68 velocity=41 time=0')
Note: ('note_on channel=0 note=80 velocity=63 time=75', 'note_on channel=0 note=75 velocity=53 time=13', 'note_on channel=0 note=66 velocity=0 time=13', 'note_on channel=0 note=68 velocity=41 time=0', 'note_on channel=0 note=72 velocity=41 time=3')
Note: ('note_on channel=0 note=75 velocity=53 time=13', 'note_on channel=0 note=66 velocity=0 time=13', 'note_on channel=0 note=68 velocity=41 time=0', 'note_on channel=0 note=72 velocity=41 time=3', 'note_on channel=0 note=81 velocity=0 time=8')
Note: ('note_on channel=0 note=66 velocity=0 time=13', 'note_on channel=0 note=68 velocity=41 time=0', 'note_on channel=0 note=72 velocity=41 time=3', 'note_on channel=0 note=81 velocity=0 time=8', 'note_on channel=0 note=68 velocity=0 time=11')
Note: ('note_on channel=0 note=68 velocity=41 time=0', 'note_on channel=0 note=72 velocity=41 time=3', 'note_on channel=0 note=81 velocity=0 time=8', 'note_on channel=0 note=68 velocity=0 time=11', 'note_on channel=0 note=81 velocity=70 time=5')
Note: ('note_on channel=0 note=72 velocity=41 time=3', 'note_on channel=0 note=81 velocity=0 time=8', 'note_on channel=0 note=68 velocity=0 time=11', 'note_on channel=0 note=81 velocity=70 time=5', 'note_on channel=0 note=66 velocity=52 time=3')
Note: ('note_on channel=0 note=81 velocity=0 time=8', 'note_on channel=0 note=68 velocity=0 time=11', 'note_on channel=0 note=81 velocity=70 time=5', 'note_on channel=0 note=66 velocity=52 time=3', 'note_on channel=0 note=80 velocity=0 time=11')
Note: ('note_on channel=0 note=68 velocity=0 time=11', 'note_on channel=0 note=81 velocity=70 time=5', 'note_on channel=0 note=66 velocity=52 time=3', 'note_on channel=0 note=80 velocity=0 time=11', 'note_on channel=0 note=75 velocity=0 time=3')
Note: ('note_on channel=0 note=81 velocity=70 time=5', 'note_on channel=0 note=66 velocity=52 time=3', 'note_on channel=0 note=80 velocity=0 time=11', 'note_on channel=0 note=75 velocity=0 time=3', 'note_on channel=0 note=78 velocity=80 time=2')
Note: ('note_on channel=0 note=66 velocity=52 time=3', 'note_on channel=0 note=80 velocity=0 time=11', 'note_on channel=0 note=75 velocity=0 time=3', 'note_on channel=0 note=78 velocity=80 time=2', 'note_on channel=0 note=68 velocity=56 time=8')
Note: ('note_on channel=0 note=80 velocity=0 time=11', 'note_on channel=0 note=75 velocity=0 time=3', 'note_on channel=0 note=78 velocity=80 time=2', 'note_on channel=0 note=68 velocity=56 time=8', 'note_on channel=0 note=66 velocity=0 time=5')
Note: ('note_on channel=0 note=75 velocity=0 time=3', 'note_on channel=0 note=78 velocity=80 time=2', 'note_on channel=0 note=68 velocity=56 time=8', 'note_on channel=0 note=66 velocity=0 time=5', 'note_on channel=0 note=72 velocity=0 time=2')
Note: ('note_on channel=0 note=78 velocity=80 time=2', 'note_on channel=0 note=68 velocity=56 time=8', 'note_on channel=0 note=66 velocity=0 time=5', 'note_on channel=0 note=72 velocity=0 time=2', 'note_on channel=0 note=81 velocity=0 time=10')
Note: ('note_on channel=0 note=68 velocity=56 time=8', 'note_on channel=0 note=66 velocity=0 time=5', 'note_on channel=0 note=72 velocity=0 time=2', 'note_on channel=0 note=81 velocity=0 time=10', 'note_on channel=0 note=76 velocity=73 time=14')
Note: ('note_on channel=0 note=66 velocity=0 time=5', 'note_on channel=0 note=72 velocity=0 time=2', 'note_on channel=0 note=81 velocity=0 time=10', 'note_on channel=0 note=76 velocity=73 time=14', 'note_on channel=0 note=69 velocity=55 time=9')
Note: ('note_on channel=0 note=72 velocity=0 time=2', 'note_on channel=0 note=81 velocity=0 time=10', 'note_on channel=0 note=76 velocity=73 time=14', 'note_on channel=0 note=69 velocity=55 time=9', 'note_on channel=0 note=73 velocity=51 time=4')
Note: ('note_on channel=0 note=81 velocity=0 time=10', 'note_on channel=0 note=76 velocity=73 time=14', 'note_on channel=0 note=69 velocity=55 time=9', 'note_on channel=0 note=73 velocity=51 time=4', 'note_on channel=0 note=68 velocity=0 time=1')
Note: ('note_on channel=0 note=76 velocity=73 time=14', 'note_on channel=0 note=69 velocity=55 time=9', 'note_on channel=0 note=73 velocity=51 time=4', 'note_on channel=0 note=68 velocity=0 time=1', 'note_on channel=0 note=78 velocity=0 time=3')
Note: ('note_on channel=0 note=69 velocity=55 time=9', 'note_on channel=0 note=73 velocity=51 time=4', 'note_on channel=0 note=68 velocity=0 time=1', 'note_on channel=0 note=78 velocity=0 time=3', 'note_on channel=0 note=85 velocity=79 time=37')
Note: ('note_on channel=0 note=73 velocity=51 time=4', 'note_on channel=0 note=68 velocity=0 time=1', 'note_on channel=0 note=78 velocity=0 time=3', 'note_on channel=0 note=85 velocity=79 time=37', 'note_on channel=0 note=64 velocity=55 time=12')
Note: ('note_on channel=0 note=68 velocity=0 time=1', 'note_on channel=0 note=78 velocity=0 time=3', 'note_on channel=0 note=85 velocity=79 time=37', 'note_on channel=0 note=64 velocity=55 time=12', 'note_on channel=0 note=73 velocity=0 time=6')
Note: ('note_on channel=0 note=78 velocity=0 time=3', 'note_on channel=0 note=85 velocity=79 time=37', 'note_on channel=0 note=64 velocity=55 time=12', 'note_on channel=0 note=73 velocity=0 time=6', 'note_on channel=0 note=69 velocity=0 time=3')
Note: ('note_on channel=0 note=85 velocity=79 time=37', 'note_on channel=0 note=64 velocity=55 time=12', 'note_on channel=0 note=73 velocity=0 time=6', 'note_on channel=0 note=69 velocity=0 time=3', 'note_on channel=0 note=76 velocity=0 time=24')
Note: ('note_on channel=0 note=64 velocity=55 time=12', 'note_on channel=0 note=73 velocity=0 time=6', 'note_on channel=0 note=69 velocity=0 time=3', 'note_on channel=0 note=76 velocity=0 time=24', 'note_on channel=0 note=81 velocity=82 time=160')
Note: ('note_on channel=0 note=73 velocity=0 time=6', 'note_on channel=0 note=69 velocity=0 time=3', 'note_on channel=0 note=76 velocity=0 time=24', 'note_on channel=0 note=81 velocity=82 time=160', 'note_on channel=0 note=66 velocity=54 time=27')
Note: ('note_on channel=0 note=69 velocity=0 time=3', 'note_on channel=0 note=76 velocity=0 time=24', 'note_on channel=0 note=81 velocity=82 time=160', 'note_on channel=0 note=66 velocity=54 time=27', 'note_on channel=0 note=85 velocity=0 time=12')
Note: ('note_on channel=0 note=76 velocity=0 time=24', 'note_on channel=0 note=81 velocity=82 time=160', 'note_on channel=0 note=66 velocity=54 time=27', 'note_on channel=0 note=85 velocity=0 time=12', 'note_on channel=0 note=64 velocity=0 time=7')
Note: ('note_on channel=0 note=81 velocity=82 time=160', 'note_on channel=0 note=66 velocity=54 time=27', 'note_on channel=0 note=85 velocity=0 time=12', 'note_on channel=0 note=64 velocity=0 time=7', 'note_on channel=0 note=68 velocity=50 time=179')
Note: ('note_on channel=0 note=66 velocity=54 time=27', 'note_on channel=0 note=85 velocity=0 time=12', 'note_on channel=0 note=64 velocity=0 time=7', 'note_on channel=0 note=68 velocity=50 time=179', 'note_on channel=0 note=75 velocity=72 time=32')
Note: ('note_on channel=0 note=85 velocity=0 time=12', 'note_on channel=0 note=64 velocity=0 time=7', 'note_on channel=0 note=68 velocity=50 time=179', 'note_on channel=0 note=75 velocity=72 time=32', 'note_on channel=0 note=66 velocity=0 time=9')
Note: ('note_on channel=0 note=64 velocity=0 time=7', 'note_on channel=0 note=68 velocity=50 time=179', 'note_on channel=0 note=75 velocity=72 time=32', 'note_on channel=0 note=66 velocity=0 time=9', 'note_on channel=0 note=71 velocity=53 time=2')
Note: ('note_on channel=0 note=68 velocity=50 time=179', 'note_on channel=0 note=75 velocity=72 time=32', 'note_on channel=0 note=66 velocity=0 time=9', 'note_on channel=0 note=71 velocity=53 time=2', 'note_on channel=0 note=81 velocity=0 time=10')
Note: ('note_on channel=0 note=75 velocity=72 time=32', 'note_on channel=0 note=66 velocity=0 time=9', 'note_on channel=0 note=71 velocity=53 time=2', 'note_on channel=0 note=81 velocity=0 time=10', 'note_on channel=0 note=83 velocity=73 time=47')
Note: ('note_on channel=0 note=66 velocity=0 time=9', 'note_on channel=0 note=71 velocity=53 time=2', 'note_on channel=0 note=81 velocity=0 time=10', 'note_on channel=0 note=83 velocity=73 time=47', 'note_on channel=0 note=63 velocity=58 time=8')
Note: ('note_on channel=0 note=71 velocity=53 time=2', 'note_on channel=0 note=81 velocity=0 time=10', 'note_on channel=0 note=83 velocity=73 time=47', 'note_on channel=0 note=63 velocity=58 time=8', 'note_on channel=0 note=68 velocity=0 time=8')
Note: ('note_on channel=0 note=81 velocity=0 time=10', 'note_on channel=0 note=83 velocity=73 time=47', 'note_on channel=0 note=63 velocity=58 time=8', 'note_on channel=0 note=68 velocity=0 time=8', 'note_on channel=0 note=75 velocity=0 time=73')
Note: ('note_on channel=0 note=83 velocity=73 time=47', 'note_on channel=0 note=63 velocity=58 time=8', 'note_on channel=0 note=68 velocity=0 time=8', 'note_on channel=0 note=75 velocity=0 time=73', 'note_on channel=0 note=71 velocity=0 time=4')
Note: ('note_on channel=0 note=63 velocity=58 time=8', 'note_on channel=0 note=68 velocity=0 time=8', 'note_on channel=0 note=75 velocity=0 time=73', 'note_on channel=0 note=71 velocity=0 time=4', 'note_on channel=0 note=80 velocity=78 time=113')
Note: ('note_on channel=0 note=68 velocity=0 time=8', 'note_on channel=0 note=75 velocity=0 time=73', 'note_on channel=0 note=71 velocity=0 time=4', 'note_on channel=0 note=80 velocity=78 time=113', 'note_on channel=0 note=83 velocity=0 time=1')
Note: ('note_on channel=0 note=75 velocity=0 time=73', 'note_on channel=0 note=71 velocity=0 time=4', 'note_on channel=0 note=80 velocity=78 time=113', 'note_on channel=0 note=83 velocity=0 time=1', 'note_on channel=0 note=64 velocity=63 time=19')
Note: ('note_on channel=0 note=71 velocity=0 time=4', 'note_on channel=0 note=80 velocity=78 time=113', 'note_on channel=0 note=83 velocity=0 time=1', 'note_on channel=0 note=64 velocity=63 time=19', 'note_on channel=0 note=63 velocity=0 time=31')
Note: ('note_on channel=0 note=80 velocity=78 time=113', 'note_on channel=0 note=83 velocity=0 time=1', 'note_on channel=0 note=64 velocity=63 time=19', 'note_on channel=0 note=63 velocity=0 time=31', 'note_on channel=0 note=80 velocity=0 time=2')
Note: ('note_on channel=0 note=83 velocity=0 time=1', 'note_on channel=0 note=64 velocity=63 time=19', 'note_on channel=0 note=63 velocity=0 time=31', 'note_on channel=0 note=80 velocity=0 time=2', 'note_on channel=0 note=73 velocity=66 time=180')
Note: ('note_on channel=0 note=64 velocity=63 time=19', 'note_on channel=0 note=63 velocity=0 time=31', 'note_on channel=0 note=80 velocity=0 time=2', 'note_on channel=0 note=73 velocity=66 time=180', 'note_on channel=0 note=70 velocity=58 time=13')
Note: ('note_on channel=0 note=63 velocity=0 time=31', 'note_on channel=0 note=80 velocity=0 time=2', 'note_on channel=0 note=73 velocity=66 time=180', 'note_on channel=0 note=70 velocity=58 time=13', 'note_on channel=0 note=66 velocity=58 time=11')
Note: ('note_on channel=0 note=80 velocity=0 time=2', 'note_on channel=0 note=73 velocity=66 time=180', 'note_on channel=0 note=70 velocity=58 time=13', 'note_on channel=0 note=66 velocity=58 time=11', 'note_on channel=0 note=64 velocity=0 time=44')
Note: ('note_on channel=0 note=73 velocity=66 time=180', 'note_on channel=0 note=70 velocity=58 time=13', 'note_on channel=0 note=66 velocity=58 time=11', 'note_on channel=0 note=64 velocity=0 time=44', 'note_on channel=0 note=75 velocity=75 time=3')
Note: ('note_on channel=0 note=70 velocity=58 time=13', 'note_on channel=0 note=66 velocity=58 time=11', 'note_on channel=0 note=64 velocity=0 time=44', 'note_on channel=0 note=75 velocity=75 time=3', 'note_on channel=0 note=70 velocity=0 time=32')
Note: ('note_on channel=0 note=66 velocity=58 time=11', 'note_on channel=0 note=64 velocity=0 time=44', 'note_on channel=0 note=75 velocity=75 time=3', 'note_on channel=0 note=70 velocity=0 time=32', 'note_on channel=0 note=78 velocity=68 time=208')
Note: ('note_on channel=0 note=64 velocity=0 time=44', 'note_on channel=0 note=75 velocity=75 time=3', 'note_on channel=0 note=70 velocity=0 time=32', 'note_on channel=0 note=78 velocity=68 time=208', 'note_on channel=0 note=68 velocity=50 time=31')
Note: ('note_on channel=0 note=75 velocity=75 time=3', 'note_on channel=0 note=70 velocity=0 time=32', 'note_on channel=0 note=78 velocity=68 time=208', 'note_on channel=0 note=68 velocity=50 time=31', 'note_on channel=0 note=61 velocity=51 time=2')
Note: ('note_on channel=0 note=70 velocity=0 time=32', 'note_on channel=0 note=78 velocity=68 time=208', 'note_on channel=0 note=68 velocity=50 time=31', 'note_on channel=0 note=61 velocity=51 time=2', 'note_on channel=0 note=73 velocity=0 time=53')
Note: ('note_on channel=0 note=78 velocity=68 time=208', 'note_on channel=0 note=68 velocity=50 time=31', 'note_on channel=0 note=61 velocity=51 time=2', 'note_on channel=0 note=73 velocity=0 time=53', 'note_on channel=0 note=75 velocity=0 time=4')
Note: ('note_on channel=0 note=68 velocity=50 time=31', 'note_on channel=0 note=61 velocity=51 time=2', 'note_on channel=0 note=73 velocity=0 time=53', 'note_on channel=0 note=75 velocity=0 time=4', 'note_on channel=0 note=66 velocity=0 time=24')
Note: ('note_on channel=0 note=61 velocity=51 time=2', 'note_on channel=0 note=73 velocity=0 time=53', 'note_on channel=0 note=75 velocity=0 time=4', 'note_on channel=0 note=66 velocity=0 time=24', 'note_on channel=0 note=76 velocity=67 time=12')
Note: ('note_on channel=0 note=73 velocity=0 time=53', 'note_on channel=0 note=75 velocity=0 time=4', 'note_on channel=0 note=66 velocity=0 time=24', 'note_on channel=0 note=76 velocity=67 time=12', 'note_on channel=0 note=78 velocity=0 time=72')
Note: ('note_on channel=0 note=75 velocity=0 time=4', 'note_on channel=0 note=66 velocity=0 time=24', 'note_on channel=0 note=76 velocity=67 time=12', 'note_on channel=0 note=78 velocity=0 time=72', 'note_on channel=0 note=68 velocity=0 time=9')
Note: ('note_on channel=0 note=66 velocity=0 time=24', 'note_on channel=0 note=76 velocity=67 time=12', 'note_on channel=0 note=78 velocity=0 time=72', 'note_on channel=0 note=68 velocity=0 time=9', 'note_on channel=0 note=67 velocity=55 time=157')
Note: ('note_on channel=0 note=76 velocity=67 time=12', 'note_on channel=0 note=78 velocity=0 time=72', 'note_on channel=0 note=68 velocity=0 time=9', 'note_on channel=0 note=67 velocity=55 time=157', 'note_on channel=0 note=63 velocity=49 time=29')
Note: ('note_on channel=0 note=78 velocity=0 time=72', 'note_on channel=0 note=68 velocity=0 time=9', 'note_on channel=0 note=67 velocity=55 time=157', 'note_on channel=0 note=63 velocity=49 time=29', 'note_on channel=0 note=61 velocity=0 time=0')
Note: ('note_on channel=0 note=68 velocity=0 time=9', 'note_on channel=0 note=67 velocity=55 time=157', 'note_on channel=0 note=63 velocity=49 time=29', 'note_on channel=0 note=61 velocity=0 time=0', 'note_on channel=0 note=73 velocity=74 time=13')
Note: ('note_on channel=0 note=67 velocity=55 time=157', 'note_on channel=0 note=63 velocity=49 time=29', 'note_on channel=0 note=61 velocity=0 time=0', 'note_on channel=0 note=73 velocity=74 time=13', 'note_on channel=0 note=67 velocity=0 time=0')
Note: ('note_on channel=0 note=63 velocity=49 time=29', 'note_on channel=0 note=61 velocity=0 time=0', 'note_on channel=0 note=73 velocity=74 time=13', 'note_on channel=0 note=67 velocity=0 time=0', 'note_on channel=0 note=76 velocity=0 time=172')
Note: ('note_on channel=0 note=61 velocity=0 time=0', 'note_on channel=0 note=73 velocity=74 time=13', 'note_on channel=0 note=67 velocity=0 time=0', 'note_on channel=0 note=76 velocity=0 time=172', 'note_on channel=0 note=71 velocity=65 time=32')
Note: ('note_on channel=0 note=73 velocity=74 time=13', 'note_on channel=0 note=67 velocity=0 time=0', 'note_on channel=0 note=76 velocity=0 time=172', 'note_on channel=0 note=71 velocity=65 time=32', 'note_on channel=0 note=68 velocity=55 time=8')
Note: ('note_on channel=0 note=67 velocity=0 time=0', 'note_on channel=0 note=76 velocity=0 time=172', 'note_on channel=0 note=71 velocity=65 time=32', 'note_on channel=0 note=68 velocity=55 time=8', 'note_on channel=0 note=64 velocity=52 time=13')
Note: ('note_on channel=0 note=76 velocity=0 time=172', 'note_on channel=0 note=71 velocity=65 time=32', 'note_on channel=0 note=68 velocity=55 time=8', 'note_on channel=0 note=64 velocity=52 time=13', 'note_on channel=0 note=73 velocity=0 time=48')
Note: ('note_on channel=0 note=71 velocity=65 time=32', 'note_on channel=0 note=68 velocity=55 time=8', 'note_on channel=0 note=64 velocity=52 time=13', 'note_on channel=0 note=73 velocity=0 time=48', 'note_on channel=0 note=63 velocity=0 time=16')
Note: ('note_on channel=0 note=68 velocity=55 time=8', 'note_on channel=0 note=64 velocity=52 time=13', 'note_on channel=0 note=73 velocity=0 time=48', 'note_on channel=0 note=63 velocity=0 time=16', 'note_on channel=0 note=73 velocity=73 time=30')
Note: ('note_on channel=0 note=64 velocity=52 time=13', 'note_on channel=0 note=73 velocity=0 time=48', 'note_on channel=0 note=63 velocity=0 time=16', 'note_on channel=0 note=73 velocity=73 time=30', 'note_on channel=0 note=68 velocity=0 time=14')
Note: ('note_on channel=0 note=73 velocity=0 time=48', 'note_on channel=0 note=63 velocity=0 time=16', 'note_on channel=0 note=73 velocity=73 time=30', 'note_on channel=0 note=68 velocity=0 time=14', 'note_on channel=0 note=59 velocity=41 time=168')
Note: ('note_on channel=0 note=63 velocity=0 time=16', 'note_on channel=0 note=73 velocity=73 time=30', 'note_on channel=0 note=68 velocity=0 time=14', 'note_on channel=0 note=59 velocity=41 time=168', 'note_on channel=0 note=76 velocity=63 time=48')
Note: ('note_on channel=0 note=73 velocity=73 time=30', 'note_on channel=0 note=68 velocity=0 time=14', 'note_on channel=0 note=59 velocity=41 time=168', 'note_on channel=0 note=76 velocity=63 time=48', 'note_on channel=0 note=66 velocity=47 time=17')
Note: ('note_on channel=0 note=68 velocity=0 time=14', 'note_on channel=0 note=59 velocity=41 time=168', 'note_on channel=0 note=76 velocity=63 time=48', 'note_on channel=0 note=66 velocity=47 time=17', 'note_on channel=0 note=64 velocity=0 time=8')
Note: ('note_on channel=0 note=59 velocity=41 time=168', 'note_on channel=0 note=76 velocity=63 time=48', 'note_on channel=0 note=66 velocity=47 time=17', 'note_on channel=0 note=64 velocity=0 time=8', 'note_on channel=0 note=71 velocity=0 time=14')
Note: ('note_on channel=0 note=76 velocity=63 time=48', 'note_on channel=0 note=66 velocity=47 time=17', 'note_on channel=0 note=64 velocity=0 time=8', 'note_on channel=0 note=71 velocity=0 time=14', 'note_on channel=0 note=73 velocity=0 time=1')
Note: ('note_on channel=0 note=66 velocity=47 time=17', 'note_on channel=0 note=64 velocity=0 time=8', 'note_on channel=0 note=71 velocity=0 time=14', 'note_on channel=0 note=73 velocity=0 time=1', 'note_on channel=0 note=75 velocity=72 time=1')
Note: ('note_on channel=0 note=64 velocity=0 time=8', 'note_on channel=0 note=71 velocity=0 time=14', 'note_on channel=0 note=73 velocity=0 time=1', 'note_on channel=0 note=75 velocity=72 time=1', 'note_on channel=0 note=76 velocity=0 time=8')
Note: ('note_on channel=0 note=71 velocity=0 time=14', 'note_on channel=0 note=73 velocity=0 time=1', 'note_on channel=0 note=75 velocity=72 time=1', 'note_on channel=0 note=76 velocity=0 time=8', 'note_on channel=0 note=66 velocity=0 time=42')
Note: ('note_on channel=0 note=73 velocity=0 time=1', 'note_on channel=0 note=75 velocity=72 time=1', 'note_on channel=0 note=76 velocity=0 time=8', 'note_on channel=0 note=66 velocity=0 time=42', 'note_on channel=0 note=65 velocity=55 time=173')
Note: ('note_on channel=0 note=75 velocity=72 time=1', 'note_on channel=0 note=76 velocity=0 time=8', 'note_on channel=0 note=66 velocity=0 time=42', 'note_on channel=0 note=65 velocity=55 time=173', 'note_on channel=0 note=61 velocity=45 time=35')
Note: ('note_on channel=0 note=76 velocity=0 time=8', 'note_on channel=0 note=66 velocity=0 time=42', 'note_on channel=0 note=65 velocity=55 time=173', 'note_on channel=0 note=61 velocity=45 time=35', 'note_on channel=0 note=59 velocity=0 time=10')
Note: ('note_on channel=0 note=66 velocity=0 time=42', 'note_on channel=0 note=65 velocity=55 time=173', 'note_on channel=0 note=61 velocity=45 time=35', 'note_on channel=0 note=59 velocity=0 time=10', 'note_on channel=0 note=71 velocity=63 time=21')
Note: ('note_on channel=0 note=65 velocity=55 time=173', 'note_on channel=0 note=61 velocity=45 time=35', 'note_on channel=0 note=59 velocity=0 time=10', 'note_on channel=0 note=71 velocity=63 time=21', 'note_on channel=0 note=65 velocity=0 time=57')
Note: ('note_on channel=0 note=61 velocity=45 time=35', 'note_on channel=0 note=59 velocity=0 time=10', 'note_on channel=0 note=71 velocity=63 time=21', 'note_on channel=0 note=65 velocity=0 time=57', 'note_on channel=0 note=75 velocity=0 time=241')
Note: ('note_on channel=0 note=59 velocity=0 time=10', 'note_on channel=0 note=71 velocity=63 time=21', 'note_on channel=0 note=65 velocity=0 time=57', 'note_on channel=0 note=75 velocity=0 time=241', 'note_on channel=0 note=70 velocity=57 time=3')
Note: ('note_on channel=0 note=71 velocity=63 time=21', 'note_on channel=0 note=65 velocity=0 time=57', 'note_on channel=0 note=75 velocity=0 time=241', 'note_on channel=0 note=70 velocity=57 time=3', 'note_on channel=0 note=67 velocity=38 time=17')
Note: ('note_on channel=0 note=65 velocity=0 time=57', 'note_on channel=0 note=75 velocity=0 time=241', 'note_on channel=0 note=70 velocity=57 time=3', 'note_on channel=0 note=67 velocity=38 time=17', 'note_on channel=0 note=63 velocity=39 time=32')
Note: ('note_on channel=0 note=75 velocity=0 time=241', 'note_on channel=0 note=70 velocity=57 time=3', 'note_on channel=0 note=67 velocity=38 time=17', 'note_on channel=0 note=63 velocity=39 time=32', 'note_on channel=0 note=71 velocity=0 time=17')
Note: ('note_on channel=0 note=70 velocity=57 time=3', 'note_on channel=0 note=67 velocity=38 time=17', 'note_on channel=0 note=63 velocity=39 time=32', 'note_on channel=0 note=71 velocity=0 time=17', 'note_on channel=0 note=61 velocity=0 time=6')
Note: ('note_on channel=0 note=67 velocity=38 time=17', 'note_on channel=0 note=63 velocity=39 time=32', 'note_on channel=0 note=71 velocity=0 time=17', 'note_on channel=0 note=61 velocity=0 time=6', 'note_on channel=0 note=71 velocity=59 time=11')
Note: ('note_on channel=0 note=63 velocity=39 time=32', 'note_on channel=0 note=71 velocity=0 time=17', 'note_on channel=0 note=61 velocity=0 time=6', 'note_on channel=0 note=71 velocity=59 time=11', 'note_on channel=0 note=67 velocity=0 time=6')
Note: ('note_on channel=0 note=71 velocity=0 time=17', 'note_on channel=0 note=61 velocity=0 time=6', 'note_on channel=0 note=71 velocity=59 time=11', 'note_on channel=0 note=67 velocity=0 time=6', 'note_on channel=0 note=68 velocity=59 time=24')
Note: ('note_on channel=0 note=61 velocity=0 time=6', 'note_on channel=0 note=71 velocity=59 time=11', 'note_on channel=0 note=67 velocity=0 time=6', 'note_on channel=0 note=68 velocity=59 time=24', 'note_on channel=0 note=64 velocity=39 time=15')
Note: ('note_on channel=0 note=71 velocity=59 time=11', 'note_on channel=0 note=67 velocity=0 time=6', 'note_on channel=0 note=68 velocity=59 time=24', 'note_on channel=0 note=64 velocity=39 time=15', 'note_on channel=0 note=70 velocity=0 time=3')
Note: ('note_on channel=0 note=67 velocity=0 time=6', 'note_on channel=0 note=68 velocity=59 time=24', 'note_on channel=0 note=64 velocity=39 time=15', 'note_on channel=0 note=70 velocity=0 time=3', 'note_on channel=0 note=63 velocity=0 time=22')
Note: ('note_on channel=0 note=68 velocity=59 time=24', 'note_on channel=0 note=64 velocity=39 time=15', 'note_on channel=0 note=70 velocity=0 time=3', 'note_on channel=0 note=63 velocity=0 time=22', 'note_on channel=0 note=70 velocity=66 time=8')
Note: ('note_on channel=0 note=64 velocity=39 time=15', 'note_on channel=0 note=70 velocity=0 time=3', 'note_on channel=0 note=63 velocity=0 time=22', 'note_on channel=0 note=70 velocity=66 time=8', 'note_on channel=0 note=71 velocity=0 time=13')
Note: ('note_on channel=0 note=70 velocity=0 time=3', 'note_on channel=0 note=63 velocity=0 time=22', 'note_on channel=0 note=70 velocity=66 time=8', 'note_on channel=0 note=71 velocity=0 time=13', 'note_on channel=0 note=67 velocity=49 time=86')
Note: ('note_on channel=0 note=63 velocity=0 time=22', 'note_on channel=0 note=70 velocity=66 time=8', 'note_on channel=0 note=71 velocity=0 time=13', 'note_on channel=0 note=67 velocity=49 time=86', 'note_on channel=0 note=63 velocity=38 time=46')
Note: ('note_on channel=0 note=70 velocity=66 time=8', 'note_on channel=0 note=71 velocity=0 time=13', 'note_on channel=0 note=67 velocity=49 time=86', 'note_on channel=0 note=63 velocity=38 time=46', 'note_on channel=0 note=68 velocity=0 time=80')
Note: ('note_on channel=0 note=71 velocity=0 time=13', 'note_on channel=0 note=67 velocity=49 time=86', 'note_on channel=0 note=63 velocity=38 time=46', 'note_on channel=0 note=68 velocity=0 time=80', 'note_on channel=0 note=64 velocity=0 time=21')
Note: ('note_on channel=0 note=67 velocity=49 time=86', 'note_on channel=0 note=63 velocity=38 time=46', 'note_on channel=0 note=68 velocity=0 time=80', 'note_on channel=0 note=64 velocity=0 time=21', 'note_on channel=0 note=71 velocity=54 time=4')
Note: ('note_on channel=0 note=63 velocity=38 time=46', 'note_on channel=0 note=68 velocity=0 time=80', 'note_on channel=0 note=64 velocity=0 time=21', 'note_on channel=0 note=71 velocity=54 time=4', 'note_on channel=0 note=67 velocity=0 time=7')
Note: ('note_on channel=0 note=68 velocity=0 time=80', 'note_on channel=0 note=64 velocity=0 time=21', 'note_on channel=0 note=71 velocity=54 time=4', 'note_on channel=0 note=67 velocity=0 time=7', 'note_on channel=0 note=68 velocity=44 time=13')
Note: ('note_on channel=0 note=64 velocity=0 time=21', 'note_on channel=0 note=71 velocity=54 time=4', 'note_on channel=0 note=67 velocity=0 time=7', 'note_on channel=0 note=68 velocity=44 time=13', 'note_on channel=0 note=64 velocity=36 time=0')
Note: ('note_on channel=0 note=71 velocity=54 time=4', 'note_on channel=0 note=67 velocity=0 time=7', 'note_on channel=0 note=68 velocity=44 time=13', 'note_on channel=0 note=64 velocity=36 time=0', 'note_on channel=0 note=70 velocity=0 time=3')
Note: ('note_on channel=0 note=67 velocity=0 time=7', 'note_on channel=0 note=68 velocity=44 time=13', 'note_on channel=0 note=64 velocity=36 time=0', 'note_on channel=0 note=70 velocity=0 time=3', 'note_on channel=0 note=63 velocity=0 time=3')
Note: ('note_on channel=0 note=68 velocity=44 time=13', 'note_on channel=0 note=64 velocity=36 time=0', 'note_on channel=0 note=70 velocity=0 time=3', 'note_on channel=0 note=63 velocity=0 time=3', 'note_on channel=0 note=70 velocity=48 time=10')
Note: ('note_on channel=0 note=70 velocity=48 time=10', 'note_on channel=0 note=71 velocity=0 time=73')
Note: ('note_on channel=0 note=71 velocity=0 time=73', 'note_on channel=0 note=67 velocity=39 time=326')
Note: ('note_on channel=0 note=67 velocity=39 time=326', 'note_on channel=0 note=63 velocity=39 time=2')
Note: ('note_on channel=0 note=63 velocity=39 time=2', 'note_on channel=0 note=64 velocity=0 time=10')
Note: ('note_on channel=0 note=64 velocity=0 time=10', 'note_on channel=0 note=68 velocity=0 time=12')
Note: ('note_on channel=0 note=68 velocity=0 time=12', 'note_on channel=0 note=61 velocity=36 time=574')
Note: ('note_on channel=0 note=61 velocity=36 time=574', 'note_on channel=0 note=63 velocity=0 time=5')
Note: ('note_on channel=0 note=63 velocity=0 time=5', 'note_on channel=0 note=67 velocity=0 time=8')
Note: ('note_on channel=0 note=67 velocity=0 time=8', 'note_on channel=0 note=70 velocity=0 time=13')
Note: ('note_on channel=0 note=70 velocity=0 time=13', 'note_on channel=0 note=61 velocity=0 time=7')
Note: ('note_on channel=0 note=61 velocity=0 time=7', 'note_on channel=0 note=44 velocity=58 time=0')
Note: ('note_on channel=0 note=44 velocity=58 time=0', 'note_on channel=0 note=59 velocity=58 time=13')
Note: ('note_on channel=0 note=59 velocity=58 time=13', 'note_on channel=0 note=56 velocity=54 time=6')
Note: ('note_on channel=0 note=51 velocity=72 time=102',)
Note: ('note_on channel=0 note=59 velocity=0 time=53',)
Note: ('note_on channel=0 note=56 velocity=0 time=8',)
Note: ('note_on channel=0 note=59 velocity=71 time=202',)
Note: ('note_on channel=0 note=56 velocity=68 time=4',)
Note: ('note_on channel=0 note=59 velocity=0 time=117',)
Note: ('note_on channel=0 note=60 velocity=62 time=285',)
Note: ('note_on channel=0 note=37 velocity=63 time=13',)
Note: ('note_on channel=0 note=54 velocity=60 time=10',)
Note: ('note_on channel=0 note=44 velocity=0 time=3',)
Note: ('note_on channel=0 note=38 velocity=103 time=80',)
Note: ('note_on channel=0 note=26 velocity=97 time=1',)
Note: ('note_on channel=0 note=26 velocity=0 time=1',)
Note: ('note_on channel=0 note=38 velocity=0 time=9',)
Note: ('note_on channel=0 note=77 velocity=93 time=147',)
Note: ('note_on channel=0 note=65 velocity=88 time=2',)
Note: ('note_on channel=0 note=68 velocity=83 time=5',)
Note: ('note_on channel=0 note=74 velocity=84 time=0',)
Note: ('note_on channel=0 note=71 velocity=39 time=19',)
Note: ('note_on channel=0 note=71 velocity=0 time=32',)
Note: ('note_on channel=0 note=65 velocity=0 time=1',)
Note: ('note_on channel=0 note=73 velocity=0 time=3',)
Note: ('note_on channel=0 note=57 velocity=0 time=6',)
Note: ('note_on channel=0 note=49 velocity=0 time=26',)
Note: ('note_on channel=0 note=52 velocity=0 time=3',)
Note: ('note_on channel=0 note=74 velocity=0 time=7',)
Note: ('note_on channel=0 note=38 velocity=0 time=30',)
Note: ('note_on channel=0 note=65 velocity=0 time=3',)
Note: ('note_on channel=0 note=76 velocity=83 time=11',)
Note: ('note_on channel=0 note=69 velocity=0 time=10',)
Note: ('note_on channel=0 note=57 velocity=0 time=11',)
Note: ('note_on channel=0 note=65 velocity=0 time=8',)
Note: ('note_on channel=0 note=69 velocity=0 time=10', 'note_on channel=0 note=57 velocity=0 time=11', 'note_on channel=0 note=65 velocity=0 time=8', 'note_on channel=0 note=82 velocity=77 time=23')
Note: ('note_on channel=0 note=57 velocity=0 time=11', 'note_on channel=0 note=65 velocity=0 time=8', 'note_on channel=0 note=82 velocity=77 time=23', 'note_on channel=0 note=70 velocity=61 time=6')
Note: ('note_on channel=0 note=65 velocity=0 time=8', 'note_on channel=0 note=82 velocity=77 time=23', 'note_on channel=0 note=70 velocity=61 time=6', 'note_on channel=0 note=82 velocity=0 time=2')
Note: ('note_on channel=0 note=82 velocity=77 time=23', 'note_on channel=0 note=70 velocity=61 time=6', 'note_on channel=0 note=82 velocity=0 time=2', 'note_on channel=0 note=70 velocity=0 time=3')
Note: ('note_on channel=0 note=70 velocity=61 time=6', 'note_on channel=0 note=82 velocity=0 time=2', 'note_on channel=0 note=70 velocity=0 time=3', 'note_on channel=0 note=85 velocity=88 time=8')
Note: ('note_on channel=0 note=82 velocity=0 time=2', 'note_on channel=0 note=70 velocity=0 time=3', 'note_on channel=0 note=85 velocity=88 time=8', 'note_on channel=0 note=73 velocity=73 time=2')
Note: ('note_on channel=0 note=70 velocity=0 time=3', 'note_on channel=0 note=85 velocity=88 time=8', 'note_on channel=0 note=73 velocity=73 time=2', 'note_on channel=0 note=73 velocity=0 time=15')
Note: ('note_on channel=0 note=85 velocity=88 time=8', 'note_on channel=0 note=73 velocity=73 time=2', 'note_on channel=0 note=73 velocity=0 time=15', 'note_on channel=0 note=85 velocity=0 time=11')
Note: ('note_on channel=0 note=73 velocity=73 time=2', 'note_on channel=0 note=73 velocity=0 time=15', 'note_on channel=0 note=85 velocity=0 time=11', 'note_on channel=0 note=84 velocity=77 time=22')
Note: ('note_on channel=0 note=73 velocity=0 time=15', 'note_on channel=0 note=85 velocity=0 time=11', 'note_on channel=0 note=84 velocity=77 time=22', 'note_on channel=0 note=72 velocity=63 time=4')
Note: ('note_on channel=0 note=85 velocity=0 time=11', 'note_on channel=0 note=84 velocity=77 time=22', 'note_on channel=0 note=72 velocity=63 time=4', 'note_on channel=0 note=66 velocity=51 time=8')
Note: ('note_on channel=0 note=84 velocity=77 time=22', 'note_on channel=0 note=72 velocity=63 time=4', 'note_on channel=0 note=66 velocity=51 time=8', 'note_on channel=0 note=54 velocity=50 time=5')
Note: ('note_on channel=0 note=72 velocity=63 time=4', 'note_on channel=0 note=66 velocity=51 time=8', 'note_on channel=0 note=54 velocity=50 time=5', 'note_on channel=0 note=66 velocity=0 time=18')
Note: ('note_on channel=0 note=66 velocity=51 time=8', 'note_on channel=0 note=54 velocity=50 time=5', 'note_on channel=0 note=66 velocity=0 time=18', 'note_on channel=0 note=54 velocity=0 time=9')
Note: ('note_on channel=0 note=54 velocity=50 time=5', 'note_on channel=0 note=66 velocity=0 time=18', 'note_on channel=0 note=54 velocity=0 time=9', 'note_on channel=0 note=63 velocity=68 time=0')
Note: ('note_on channel=0 note=66 velocity=0 time=18', 'note_on channel=0 note=54 velocity=0 time=9', 'note_on channel=0 note=63 velocity=68 time=0', 'note_on channel=0 note=51 velocity=72 time=5')
Note: ('note_on channel=0 note=54 velocity=0 time=9', 'note_on channel=0 note=63 velocity=68 time=0', 'note_on channel=0 note=51 velocity=72 time=5', 'note_on channel=0 note=63 velocity=0 time=22')
Note: ('note_on channel=0 note=63 velocity=68 time=0', 'note_on channel=0 note=51 velocity=72 time=5', 'note_on channel=0 note=63 velocity=0 time=22', 'note_on channel=0 note=51 velocity=0 time=1')
Note: ('note_on channel=0 note=51 velocity=72 time=5', 'note_on channel=0 note=63 velocity=0 time=22', 'note_on channel=0 note=51 velocity=0 time=1', 'note_on channel=0 note=48 velocity=80 time=1')
Note: ('note_on channel=0 note=63 velocity=0 time=22', 'note_on channel=0 note=51 velocity=0 time=1', 'note_on channel=0 note=48 velocity=80 time=1', 'note_on channel=0 note=60 velocity=57 time=13')
Note: ('note_on channel=0 note=51 velocity=0 time=1', 'note_on channel=0 note=48 velocity=80 time=1', 'note_on channel=0 note=60 velocity=57 time=13', 'note_on channel=0 note=48 velocity=0 time=14')
Note: ('note_on channel=0 note=48 velocity=80 time=1', 'note_on channel=0 note=60 velocity=57 time=13', 'note_on channel=0 note=48 velocity=0 time=14', 'note_on channel=0 note=60 velocity=0 time=4')
Note: ('note_on channel=0 note=60 velocity=57 time=13', 'note_on channel=0 note=48 velocity=0 time=14', 'note_on channel=0 note=60 velocity=0 time=4', 'note_on channel=0 note=45 velocity=78 time=13')
Note: ('note_on channel=0 note=48 velocity=0 time=14', 'note_on channel=0 note=60 velocity=0 time=4', 'note_on channel=0 note=45 velocity=78 time=13', 'note_on channel=0 note=57 velocity=66 time=0')
Note: ('note_on channel=0 note=60 velocity=0 time=4', 'note_on channel=0 note=45 velocity=78 time=13', 'note_on channel=0 note=57 velocity=66 time=0', 'note_on channel=0 note=57 velocity=0 time=6')
Note: ('note_on channel=0 note=45 velocity=78 time=13', 'note_on channel=0 note=57 velocity=66 time=0', 'note_on channel=0 note=57 velocity=0 time=6', 'note_on channel=0 note=45 velocity=0 time=2')
Note: ('note_on channel=0 note=57 velocity=66 time=0', 'note_on channel=0 note=57 velocity=0 time=6', 'note_on channel=0 note=45 velocity=0 time=2', 'note_on channel=0 note=42 velocity=73 time=13')
Note: ('note_on channel=0 note=57 velocity=0 time=6', 'note_on channel=0 note=45 velocity=0 time=2', 'note_on channel=0 note=42 velocity=73 time=13', 'note_on channel=0 note=54 velocity=63 time=0')
Note: ('note_on channel=0 note=45 velocity=0 time=2', 'note_on channel=0 note=42 velocity=73 time=13', 'note_on channel=0 note=54 velocity=63 time=0', 'note_on channel=0 note=54 velocity=0 time=21')
Note: ('note_on channel=0 note=42 velocity=73 time=13', 'note_on channel=0 note=54 velocity=63 time=0', 'note_on channel=0 note=54 velocity=0 time=21', 'note_on channel=0 note=42 velocity=0 time=7')
Note: ('note_on channel=0 note=54 velocity=63 time=0', 'note_on channel=0 note=54 velocity=0 time=21', 'note_on channel=0 note=42 velocity=0 time=7', 'note_on channel=0 note=39 velocity=75 time=88')
Note: ('note_on channel=0 note=54 velocity=0 time=21', 'note_on channel=0 note=42 velocity=0 time=7', 'note_on channel=0 note=39 velocity=75 time=88', 'note_on channel=0 note=51 velocity=64 time=3')
Note: ('note_on channel=0 note=42 velocity=0 time=7', 'note_on channel=0 note=39 velocity=75 time=88', 'note_on channel=0 note=51 velocity=64 time=3', 'note_on channel=0 note=51 velocity=0 time=24')
Note: ('note_on channel=0 note=39 velocity=75 time=88', 'note_on channel=0 note=51 velocity=64 time=3', 'note_on channel=0 note=51 velocity=0 time=24', 'note_on channel=0 note=39 velocity=0 time=6')
Note: ('note_on channel=0 note=51 velocity=64 time=3', 'note_on channel=0 note=51 velocity=0 time=24', 'note_on channel=0 note=39 velocity=0 time=6', 'note_on channel=0 note=36 velocity=75 time=9')
Note: ('note_on channel=0 note=51 velocity=0 time=24', 'note_on channel=0 note=39 velocity=0 time=6', 'note_on channel=0 note=36 velocity=75 time=9', 'note_on channel=0 note=48 velocity=60 time=5')
Note: ('note_on channel=0 note=39 velocity=0 time=6', 'note_on channel=0 note=36 velocity=75 time=9', 'note_on channel=0 note=48 velocity=60 time=5', 'note_on channel=0 note=36 velocity=0 time=6')
Note: ('note_on channel=0 note=36 velocity=75 time=9', 'note_on channel=0 note=48 velocity=60 time=5', 'note_on channel=0 note=36 velocity=0 time=6', 'note_on channel=0 note=48 velocity=0 time=8')
Note: ('note_on channel=0 note=48 velocity=60 time=5', 'note_on channel=0 note=36 velocity=0 time=6', 'note_on channel=0 note=48 velocity=0 time=8', 'note_on channel=0 note=33 velocity=76 time=14')
Note: ('note_on channel=0 note=36 velocity=0 time=6', 'note_on channel=0 note=48 velocity=0 time=8', 'note_on channel=0 note=33 velocity=76 time=14', 'note_on channel=0 note=45 velocity=52 time=5')
Note: ('note_on channel=0 note=48 velocity=0 time=8', 'note_on channel=0 note=33 velocity=76 time=14', 'note_on channel=0 note=45 velocity=52 time=5', 'note_on channel=0 note=33 velocity=0 time=10')
Note: ('note_on channel=0 note=33 velocity=76 time=14', 'note_on channel=0 note=45 velocity=52 time=5', 'note_on channel=0 note=33 velocity=0 time=10', 'note_on channel=0 note=72 velocity=0 time=7')
Note: ('note_on channel=0 note=45 velocity=52 time=5', 'note_on channel=0 note=33 velocity=0 time=10', 'note_on channel=0 note=72 velocity=0 time=7', 'note_on channel=0 note=45 velocity=0 time=1')
Note: ('note_on channel=0 note=33 velocity=0 time=10', 'note_on channel=0 note=72 velocity=0 time=7', 'note_on channel=0 note=45 velocity=0 time=1', 'note_on channel=0 note=84 velocity=0 time=23')
Note: ('note_on channel=0 note=72 velocity=0 time=7', 'note_on channel=0 note=45 velocity=0 time=1', 'note_on channel=0 note=84 velocity=0 time=23', 'note_on channel=0 note=34 velocity=72 time=109')
Note: ('note_on channel=0 note=45 velocity=0 time=1', 'note_on channel=0 note=84 velocity=0 time=23', 'note_on channel=0 note=34 velocity=72 time=109', 'note_on channel=0 note=22 velocity=68 time=8')
Note: ('note_on channel=0 note=84 velocity=0 time=23', 'note_on channel=0 note=34 velocity=72 time=109', 'note_on channel=0 note=22 velocity=68 time=8', 'note_on channel=0 note=87 velocity=74 time=6')
Note: ('note_on channel=0 note=34 velocity=72 time=109', 'note_on channel=0 note=22 velocity=68 time=8', 'note_on channel=0 note=87 velocity=74 time=6', 'note_on channel=0 note=22 velocity=0 time=7')
Note: ('note_on channel=0 note=22 velocity=68 time=8', 'note_on channel=0 note=87 velocity=74 time=6', 'note_on channel=0 note=22 velocity=0 time=7', 'note_on channel=0 note=75 velocity=70 time=1')
Note: ('note_on channel=0 note=87 velocity=74 time=6', 'note_on channel=0 note=22 velocity=0 time=7', 'note_on channel=0 note=75 velocity=70 time=1', 'note_on channel=0 note=34 velocity=0 time=2')
Note: ('note_on channel=0 note=22 velocity=0 time=7', 'note_on channel=0 note=75 velocity=70 time=1', 'note_on channel=0 note=34 velocity=0 time=2', 'note_on channel=0 note=87 velocity=0 time=2')
Note: ('note_on channel=0 note=75 velocity=70 time=1', 'note_on channel=0 note=34 velocity=0 time=2', 'note_on channel=0 note=87 velocity=0 time=2', 'note_on channel=0 note=75 velocity=0 time=9')
Note: ('note_on channel=0 note=34 velocity=0 time=2', 'note_on channel=0 note=87 velocity=0 time=2', 'note_on channel=0 note=75 velocity=0 time=9', 'note_on channel=0 note=85 velocity=88 time=11')
Note: ('note_on channel=0 note=87 velocity=0 time=2', 'note_on channel=0 note=75 velocity=0 time=9', 'note_on channel=0 note=85 velocity=88 time=11', 'note_on channel=0 note=73 velocity=69 time=10')
Note: ('note_on channel=0 note=75 velocity=0 time=9', 'note_on channel=0 note=85 velocity=88 time=11', 'note_on channel=0 note=73 velocity=69 time=10', 'note_on channel=0 note=73 velocity=0 time=5')
Note: ('note_on channel=0 note=85 velocity=88 time=11', 'note_on channel=0 note=73 velocity=69 time=10', 'note_on channel=0 note=73 velocity=0 time=5', 'note_on channel=0 note=85 velocity=0 time=2')
Note: ('note_on channel=0 note=73 velocity=69 time=10', 'note_on channel=0 note=73 velocity=0 time=5', 'note_on channel=0 note=85 velocity=0 time=2', 'note_on channel=0 note=84 velocity=89 time=2')
Note: ('note_on channel=0 note=73 velocity=0 time=5', 'note_on channel=0 note=85 velocity=0 time=2', 'note_on channel=0 note=84 velocity=89 time=2', 'note_on channel=0 note=72 velocity=82 time=8')
Note: ('note_on channel=0 note=85 velocity=0 time=2', 'note_on channel=0 note=84 velocity=89 time=2', 'note_on channel=0 note=72 velocity=82 time=8', 'note_on channel=0 note=84 velocity=0 time=26')
Note: ('note_on channel=0 note=84 velocity=89 time=2', 'note_on channel=0 note=72 velocity=82 time=8', 'note_on channel=0 note=84 velocity=0 time=26', 'note_on channel=0 note=72 velocity=0 time=10')
Note: ('note_on channel=0 note=72 velocity=82 time=8', 'note_on channel=0 note=84 velocity=0 time=26', 'note_on channel=0 note=72 velocity=0 time=10', 'note_on channel=0 note=55 velocity=72 time=13')
Note: ('note_on channel=0 note=84 velocity=0 time=26', 'note_on channel=0 note=72 velocity=0 time=10', 'note_on channel=0 note=55 velocity=72 time=13', 'note_on channel=0 note=67 velocity=72 time=1')
Note: ('note_on channel=0 note=72 velocity=0 time=10', 'note_on channel=0 note=55 velocity=72 time=13', 'note_on channel=0 note=67 velocity=72 time=1', 'note_on channel=0 note=82 velocity=75 time=6')
Note: ('note_on channel=0 note=55 velocity=72 time=13', 'note_on channel=0 note=67 velocity=72 time=1', 'note_on channel=0 note=82 velocity=75 time=6', 'note_on channel=0 note=70 velocity=75 time=3')
Note: ('note_on channel=0 note=67 velocity=72 time=1', 'note_on channel=0 note=82 velocity=75 time=6', 'note_on channel=0 note=70 velocity=75 time=3', 'note_on channel=0 note=67 velocity=0 time=10')
Note: ('note_on channel=0 note=82 velocity=75 time=6', 'note_on channel=0 note=70 velocity=75 time=3', 'note_on channel=0 note=67 velocity=0 time=10', 'note_on channel=0 note=55 velocity=0 time=5')
Note: ('note_on channel=0 note=70 velocity=75 time=3', 'note_on channel=0 note=67 velocity=0 time=10', 'note_on channel=0 note=55 velocity=0 time=5', 'note_on channel=0 note=64 velocity=79 time=9')
Note: ('note_on channel=0 note=67 velocity=0 time=10', 'note_on channel=0 note=55 velocity=0 time=5', 'note_on channel=0 note=64 velocity=79 time=9', 'note_on channel=0 note=52 velocity=74 time=1')
Note: ('note_on channel=0 note=55 velocity=0 time=5', 'note_on channel=0 note=64 velocity=79 time=9', 'note_on channel=0 note=52 velocity=74 time=1', 'note_on channel=0 note=64 velocity=0 time=16')
Note: ('note_on channel=0 note=64 velocity=79 time=9', 'note_on channel=0 note=52 velocity=74 time=1', 'note_on channel=0 note=64 velocity=0 time=16', 'note_on channel=0 note=52 velocity=0 time=11')
Note: ('note_on channel=0 note=52 velocity=74 time=1', 'note_on channel=0 note=64 velocity=0 time=16', 'note_on channel=0 note=52 velocity=0 time=11', 'note_on channel=0 note=61 velocity=75 time=80')
Note: ('note_on channel=0 note=64 velocity=0 time=16', 'note_on channel=0 note=52 velocity=0 time=11', 'note_on channel=0 note=61 velocity=75 time=80', 'note_on channel=0 note=49 velocity=77 time=4')
Note: ('note_on channel=0 note=52 velocity=0 time=11', 'note_on channel=0 note=61 velocity=75 time=80', 'note_on channel=0 note=49 velocity=77 time=4', 'note_on channel=0 note=61 velocity=0 time=18')
Note: ('note_on channel=0 note=61 velocity=75 time=80', 'note_on channel=0 note=49 velocity=77 time=4', 'note_on channel=0 note=61 velocity=0 time=18', 'note_on channel=0 note=49 velocity=0 time=9')
Note: ('note_on channel=0 note=49 velocity=77 time=4', 'note_on channel=0 note=61 velocity=0 time=18', 'note_on channel=0 note=49 velocity=0 time=9', 'note_on channel=0 note=46 velocity=77 time=85')
Note: ('note_on channel=0 note=61 velocity=0 time=18', 'note_on channel=0 note=49 velocity=0 time=9', 'note_on channel=0 note=46 velocity=77 time=85', 'note_on channel=0 note=58 velocity=71 time=1')
Note: ('note_on channel=0 note=49 velocity=0 time=9', 'note_on channel=0 note=46 velocity=77 time=85', 'note_on channel=0 note=58 velocity=71 time=1', 'note_on channel=0 note=58 velocity=0 time=25')
Note: ('note_on channel=0 note=46 velocity=77 time=85', 'note_on channel=0 note=58 velocity=71 time=1', 'note_on channel=0 note=58 velocity=0 time=25', 'note_on channel=0 note=46 velocity=0 time=2')
Note: ('note_on channel=0 note=58 velocity=71 time=1', 'note_on channel=0 note=58 velocity=0 time=25', 'note_on channel=0 note=46 velocity=0 time=2', 'note_on channel=0 note=55 velocity=71 time=89')
Note: ('note_on channel=0 note=58 velocity=0 time=25', 'note_on channel=0 note=46 velocity=0 time=2', 'note_on channel=0 note=55 velocity=71 time=89', 'note_on channel=0 note=43 velocity=73 time=3')
Note: ('note_on channel=0 note=55 velocity=0 time=33',)
Note: ('note_on channel=0 note=70 velocity=0 time=4',)
Note: ('note_on channel=0 note=67 velocity=0 time=1',)
Note: ('note_on channel=0 note=55 velocity=54 time=2',)
Note: ('note_on channel=0 note=71 velocity=71 time=3',)
Note: ('note_on channel=0 note=71 velocity=0 time=29',)
Note: ('note_on channel=0 note=73 velocity=58 time=28',)
Note: ('note_on channel=0 note=73 velocity=0 time=44',)
Note: ('note_on channel=0 note=71 velocity=69 time=61',)
Note: ('note_on channel=0 note=40 velocity=65 time=5',)
Note: ('note_on channel=0 note=40 velocity=0 time=28',)
Note: ('note_on channel=0 note=71 velocity=0 time=3',)
Note: ('note_on channel=0 note=71 velocity=73 time=214',)
Note: ('note_on channel=0 note=68 velocity=67 time=11',)
Note: ('note_on channel=0 note=42 velocity=65 time=6',)
Note: ('note_on channel=0 note=30 velocity=60 time=6',)
Note: ('note_on channel=0 note=65 velocity=0 time=48',)
Note: ('note_on channel=0 note=30 velocity=0 time=10',)
Note: ('note_on channel=0 note=42 velocity=0 time=23',)
Note: ('note_on channel=0 note=66 velocity=76 time=30',)
Note: ('note_on channel=0 note=71 velocity=0 time=27',)
Note: ('note_on channel=0 note=68 velocity=0 time=13',)
Note: ('note_on channel=0 note=60 velocity=0 time=1',)
Note: ('note_on channel=0 note=82 velocity=77 time=272',)
Note: ('note_on channel=0 note=70 velocity=62 time=6',)
Note: ('note_on channel=0 note=58 velocity=66 time=10',)
Note: ('note_on channel=0 note=46 velocity=58 time=27',)
Note: ('note_on channel=0 note=50 velocity=57 time=0',)
Note: ('note_on channel=0 note=82 velocity=0 time=14',)
Note: ('note_on channel=0 note=67 velocity=0 time=85',)
Note: ('note_on channel=0 note=66 velocity=65 time=19',)
Note: ('note_on channel=0 note=50 velocity=56 time=29',)
Note: ('note_on channel=0 note=52 velocity=62 time=2',)
Note: ('note_on channel=0 note=66 velocity=0 time=3',)
Note: ('note_on channel=0 note=52 velocity=62 time=2', 'note_on channel=0 note=66 velocity=0 time=3', 'note_on channel=0 note=69 velocity=54 time=215')
Note: ('note_on channel=0 note=66 velocity=0 time=3', 'note_on channel=0 note=69 velocity=54 time=215', 'note_on channel=0 note=66 velocity=55 time=17')
Note: ('note_on channel=0 note=69 velocity=54 time=215', 'note_on channel=0 note=66 velocity=55 time=17', 'note_on channel=0 note=28 velocity=45 time=3')
Note: ('note_on channel=0 note=66 velocity=55 time=17', 'note_on channel=0 note=28 velocity=45 time=3', 'note_on channel=0 note=40 velocity=35 time=6')
Note: ('note_on channel=0 note=28 velocity=45 time=3', 'note_on channel=0 note=40 velocity=35 time=6', 'note_on channel=0 note=63 velocity=0 time=7')
Note: ('note_on channel=0 note=40 velocity=35 time=6', 'note_on channel=0 note=63 velocity=0 time=7', 'note_on channel=0 note=28 velocity=0 time=0')
Note: ('note_on channel=0 note=63 velocity=0 time=7', 'note_on channel=0 note=28 velocity=0 time=0', 'note_on channel=0 note=40 velocity=0 time=70')
Note: ('note_on channel=0 note=28 velocity=0 time=0', 'note_on channel=0 note=40 velocity=0 time=70', 'note_on channel=0 note=64 velocity=52 time=25')
Note: ('note_on channel=0 note=40 velocity=0 time=70', 'note_on channel=0 note=64 velocity=52 time=25', 'note_on channel=0 note=69 velocity=0 time=21')
Note: ('note_on channel=0 note=64 velocity=52 time=25', 'note_on channel=0 note=69 velocity=0 time=21', 'note_on channel=0 note=66 velocity=0 time=32')
Note: ('note_on channel=0 note=69 velocity=0 time=21', 'note_on channel=0 note=66 velocity=0 time=32', 'note_on channel=0 note=68 velocity=55 time=223')
Note: ('note_on channel=0 note=66 velocity=0 time=32', 'note_on channel=0 note=68 velocity=55 time=223', 'note_on channel=0 note=59 velocity=45 time=13')
Note: ('note_on channel=0 note=68 velocity=55 time=223', 'note_on channel=0 note=59 velocity=45 time=13', 'note_on channel=0 note=40 velocity=36 time=3')
Note: ('note_on channel=0 note=59 velocity=45 time=13', 'note_on channel=0 note=40 velocity=36 time=3', 'note_on channel=0 note=52 velocity=37 time=2')
Note: ('note_on channel=0 note=40 velocity=36 time=3', 'note_on channel=0 note=52 velocity=37 time=2', 'note_on channel=0 note=64 velocity=0 time=17')
Note: ('note_on channel=0 note=52 velocity=37 time=2', 'note_on channel=0 note=64 velocity=0 time=17', 'note_on channel=0 note=68 velocity=0 time=1')
Note: ('note_on channel=0 note=64 velocity=0 time=17', 'note_on channel=0 note=68 velocity=0 time=1', 'note_on channel=0 note=52 velocity=0 time=31')
Note: ('note_on channel=0 note=68 velocity=0 time=1', 'note_on channel=0 note=52 velocity=0 time=31', 'note_on channel=0 note=40 velocity=0 time=46')
Note: ('note_on channel=0 note=52 velocity=0 time=31', 'note_on channel=0 note=40 velocity=0 time=46', 'note_on channel=0 note=56 velocity=48 time=50')
Note: ('note_on channel=0 note=40 velocity=0 time=46', 'note_on channel=0 note=56 velocity=48 time=50', 'note_on channel=0 note=59 velocity=0 time=34')
Note: ('note_on channel=0 note=56 velocity=48 time=50', 'note_on channel=0 note=59 velocity=0 time=34', 'note_on channel=0 note=56 velocity=0 time=4')
Note: ('note_on channel=0 note=59 velocity=0 time=34', 'note_on channel=0 note=56 velocity=0 time=4', 'note_on channel=0 note=68 velocity=58 time=295')
Note: ('note_on channel=0 note=56 velocity=0 time=4', 'note_on channel=0 note=68 velocity=58 time=295', 'note_on channel=0 note=64 velocity=47 time=11')
Note: ('note_on channel=0 note=68 velocity=58 time=295', 'note_on channel=0 note=64 velocity=47 time=11', 'note_on channel=0 note=56 velocity=39 time=7')
Note: ('note_on channel=0 note=64 velocity=47 time=11', 'note_on channel=0 note=56 velocity=39 time=7', 'note_on channel=0 note=35 velocity=40 time=34')
Note: ('note_on channel=0 note=56 velocity=39 time=7', 'note_on channel=0 note=35 velocity=40 time=34', 'note_on channel=0 note=47 velocity=33 time=2')
Note: ('note_on channel=0 note=56 velocity=39 time=7', 'note_on channel=0 note=35 velocity=40 time=34', 'note_on channel=0 note=47 velocity=33 time=2', 'note_on channel=0 note=64 velocity=0 time=11')
Note: ('note_on channel=0 note=35 velocity=40 time=34', 'note_on channel=0 note=47 velocity=33 time=2', 'note_on channel=0 note=64 velocity=0 time=11', 'note_on channel=0 note=56 velocity=0 time=19')
Note: ('note_on channel=0 note=47 velocity=33 time=2', 'note_on channel=0 note=64 velocity=0 time=11', 'note_on channel=0 note=56 velocity=0 time=19', 'note_on channel=0 note=35 velocity=0 time=18')
Note: ('note_on channel=0 note=64 velocity=0 time=11', 'note_on channel=0 note=56 velocity=0 time=19', 'note_on channel=0 note=35 velocity=0 time=18', 'note_on channel=0 note=68 velocity=0 time=8')
Note: ('note_on channel=0 note=56 velocity=0 time=19', 'note_on channel=0 note=35 velocity=0 time=18', 'note_on channel=0 note=68 velocity=0 time=8', 'note_on channel=0 note=47 velocity=0 time=5')
Note: ('note_on channel=0 note=35 velocity=0 time=18', 'note_on channel=0 note=68 velocity=0 time=8', 'note_on channel=0 note=47 velocity=0 time=5', 'note_on channel=0 note=68 velocity=53 time=283')
Note: ('note_on channel=0 note=68 velocity=0 time=8', 'note_on channel=0 note=47 velocity=0 time=5', 'note_on channel=0 note=68 velocity=53 time=283', 'note_on channel=0 note=64 velocity=42 time=15')
Note: ('note_on channel=0 note=47 velocity=0 time=5', 'note_on channel=0 note=68 velocity=53 time=283', 'note_on channel=0 note=64 velocity=42 time=15', 'note_on channel=0 note=57 velocity=42 time=8')
Note: ('note_on channel=0 note=68 velocity=53 time=283', 'note_on channel=0 note=64 velocity=42 time=15', 'note_on channel=0 note=57 velocity=42 time=8', 'note_on channel=0 note=36 velocity=40 time=10')
Note: ('note_on channel=0 note=64 velocity=42 time=15', 'note_on channel=0 note=57 velocity=42 time=8', 'note_on channel=0 note=36 velocity=40 time=10', 'note_on channel=0 note=48 velocity=31 time=12')
Note: ('note_on channel=0 note=57 velocity=42 time=8', 'note_on channel=0 note=36 velocity=40 time=10', 'note_on channel=0 note=48 velocity=31 time=12', 'note_on channel=0 note=48 velocity=0 time=27')
Note: ('note_on channel=0 note=36 velocity=40 time=10', 'note_on channel=0 note=48 velocity=31 time=12', 'note_on channel=0 note=48 velocity=0 time=27', 'note_on channel=0 note=64 velocity=0 time=17')
Note: ('note_on channel=0 note=48 velocity=31 time=12', 'note_on channel=0 note=48 velocity=0 time=27', 'note_on channel=0 note=64 velocity=0 time=17', 'note_on channel=0 note=57 velocity=0 time=6')
Note: ('note_on channel=0 note=48 velocity=0 time=27', 'note_on channel=0 note=64 velocity=0 time=17', 'note_on channel=0 note=57 velocity=0 time=6', 'note_on channel=0 note=36 velocity=0 time=17')
Note: ('note_on channel=0 note=64 velocity=0 time=17', 'note_on channel=0 note=57 velocity=0 time=6', 'note_on channel=0 note=36 velocity=0 time=17', 'note_on channel=0 note=66 velocity=55 time=320')
Note: ('note_on channel=0 note=57 velocity=0 time=6', 'note_on channel=0 note=36 velocity=0 time=17', 'note_on channel=0 note=66 velocity=55 time=320', 'note_on channel=0 note=58 velocity=36 time=33')
Note: ('note_on channel=0 note=36 velocity=0 time=17', 'note_on channel=0 note=66 velocity=55 time=320', 'note_on channel=0 note=58 velocity=36 time=33', 'note_on channel=0 note=64 velocity=35 time=3')
Note: ('note_on channel=0 note=66 velocity=55 time=320', 'note_on channel=0 note=58 velocity=36 time=33', 'note_on channel=0 note=64 velocity=35 time=3', 'note_on channel=0 note=37 velocity=37 time=6')
Note: ('note_on channel=0 note=58 velocity=36 time=33', 'note_on channel=0 note=64 velocity=35 time=3', 'note_on channel=0 note=37 velocity=37 time=6', 'note_on channel=0 note=49 velocity=36 time=1')
Note: ('note_on channel=0 note=64 velocity=35 time=3', 'note_on channel=0 note=37 velocity=37 time=6', 'note_on channel=0 note=49 velocity=36 time=1', 'note_on channel=0 note=68 velocity=0 time=10')
Note: ('note_on channel=0 note=37 velocity=37 time=6', 'note_on channel=0 note=49 velocity=36 time=1', 'note_on channel=0 note=68 velocity=0 time=10', 'note_on channel=0 note=49 velocity=0 time=20')
Note: ('note_on channel=0 note=49 velocity=36 time=1', 'note_on channel=0 note=68 velocity=0 time=10', 'note_on channel=0 note=49 velocity=0 time=20', 'note_on channel=0 note=64 velocity=0 time=16')
Note: ('note_on channel=0 note=68 velocity=0 time=10', 'note_on channel=0 note=49 velocity=0 time=20', 'note_on channel=0 note=64 velocity=0 time=16', 'note_on channel=0 note=58 velocity=0 time=15')
Note: ('note_on channel=0 note=49 velocity=0 time=20', 'note_on channel=0 note=64 velocity=0 time=16', 'note_on channel=0 note=58 velocity=0 time=15', 'note_on channel=0 note=66 velocity=0 time=30')
Note: ('note_on channel=0 note=64 velocity=0 time=16', 'note_on channel=0 note=58 velocity=0 time=15', 'note_on channel=0 note=66 velocity=0 time=30', 'note_on channel=0 note=37 velocity=0 time=24')
Note: ('note_on channel=0 note=64 velocity=0 time=16', 'note_on channel=0 note=58 velocity=0 time=15', 'note_on channel=0 note=66 velocity=0 time=30', 'note_on channel=0 note=37 velocity=0 time=24', 'note_on channel=0 note=64 velocity=52 time=225')
Note: ('note_on channel=0 note=58 velocity=0 time=15', 'note_on channel=0 note=66 velocity=0 time=30', 'note_on channel=0 note=37 velocity=0 time=24', 'note_on channel=0 note=64 velocity=52 time=225', 'note_on channel=0 note=65 velocity=54 time=3')
Note: ('note_on channel=0 note=66 velocity=0 time=30', 'note_on channel=0 note=37 velocity=0 time=24', 'note_on channel=0 note=64 velocity=52 time=225', 'note_on channel=0 note=65 velocity=54 time=3', 'note_on channel=0 note=58 velocity=38 time=17')
Note: ('note_on channel=0 note=37 velocity=0 time=24', 'note_on channel=0 note=64 velocity=52 time=225', 'note_on channel=0 note=65 velocity=54 time=3', 'note_on channel=0 note=58 velocity=38 time=17', 'note_on channel=0 note=30 velocity=45 time=51')
Note: ('note_on channel=0 note=64 velocity=52 time=225', 'note_on channel=0 note=65 velocity=54 time=3', 'note_on channel=0 note=58 velocity=38 time=17', 'note_on channel=0 note=30 velocity=45 time=51', 'note_on channel=0 note=42 velocity=40 time=9')
Note: ('note_on channel=0 note=65 velocity=54 time=3', 'note_on channel=0 note=58 velocity=38 time=17', 'note_on channel=0 note=30 velocity=45 time=51', 'note_on channel=0 note=42 velocity=40 time=9', 'note_on channel=0 note=30 velocity=0 time=43')
Note: ('note_on channel=0 note=58 velocity=38 time=17', 'note_on channel=0 note=30 velocity=45 time=51', 'note_on channel=0 note=42 velocity=40 time=9', 'note_on channel=0 note=30 velocity=0 time=43', 'note_on channel=0 note=66 velocity=67 time=67')
Note: ('note_on channel=0 note=30 velocity=45 time=51', 'note_on channel=0 note=42 velocity=40 time=9', 'note_on channel=0 note=30 velocity=0 time=43', 'note_on channel=0 note=66 velocity=67 time=67', 'note_on channel=0 note=58 velocity=0 time=35')
Note: ('note_on channel=0 note=42 velocity=40 time=9', 'note_on channel=0 note=30 velocity=0 time=43', 'note_on channel=0 note=66 velocity=67 time=67', 'note_on channel=0 note=58 velocity=0 time=35', 'note_on channel=0 note=42 velocity=0 time=4')
Note: ('note_on channel=0 note=30 velocity=0 time=43', 'note_on channel=0 note=66 velocity=67 time=67', 'note_on channel=0 note=58 velocity=0 time=35', 'note_on channel=0 note=42 velocity=0 time=4', 'note_on channel=0 note=64 velocity=0 time=6')
Note: ('note_on channel=0 note=66 velocity=67 time=67', 'note_on channel=0 note=58 velocity=0 time=35', 'note_on channel=0 note=42 velocity=0 time=4', 'note_on channel=0 note=64 velocity=0 time=6', 'note_on channel=0 note=65 velocity=0 time=1')
Note: ('note_on channel=0 note=58 velocity=0 time=35', 'note_on channel=0 note=42 velocity=0 time=4', 'note_on channel=0 note=64 velocity=0 time=6', 'note_on channel=0 note=65 velocity=0 time=1', 'note_on channel=0 note=69 velocity=56 time=256')
Note: ('note_on channel=0 note=42 velocity=0 time=4', 'note_on channel=0 note=64 velocity=0 time=6', 'note_on channel=0 note=65 velocity=0 time=1', 'note_on channel=0 note=69 velocity=56 time=256', 'note_on channel=0 note=35 velocity=44 time=5')
Note: ('note_on channel=0 note=64 velocity=0 time=6', 'note_on channel=0 note=65 velocity=0 time=1', 'note_on channel=0 note=69 velocity=56 time=256', 'note_on channel=0 note=35 velocity=44 time=5', 'note_on channel=0 note=63 velocity=46 time=7')
Note: ('note_on channel=0 note=65 velocity=0 time=1', 'note_on channel=0 note=69 velocity=56 time=256', 'note_on channel=0 note=35 velocity=44 time=5', 'note_on channel=0 note=63 velocity=46 time=7', 'note_on channel=0 note=57 velocity=41 time=10')
Note: ('note_on channel=0 note=69 velocity=56 time=256', 'note_on channel=0 note=35 velocity=44 time=5', 'note_on channel=0 note=63 velocity=46 time=7', 'note_on channel=0 note=57 velocity=41 time=10', 'note_on channel=0 note=66 velocity=0 time=49')
Note: ('note_on channel=0 note=35 velocity=44 time=5', 'note_on channel=0 note=63 velocity=46 time=7', 'note_on channel=0 note=57 velocity=41 time=10', 'note_on channel=0 note=66 velocity=0 time=49', 'note_on channel=0 note=35 velocity=0 time=8')
Note: ('note_on channel=0 note=63 velocity=46 time=7', 'note_on channel=0 note=57 velocity=41 time=10', 'note_on channel=0 note=66 velocity=0 time=49', 'note_on channel=0 note=35 velocity=0 time=8', 'note_on channel=0 note=66 velocity=62 time=109')
Note: ('note_on channel=0 note=57 velocity=41 time=10', 'note_on channel=0 note=66 velocity=0 time=49', 'note_on channel=0 note=35 velocity=0 time=8', 'note_on channel=0 note=66 velocity=62 time=109', 'note_on channel=0 note=63 velocity=0 time=50')
Note: ('note_on channel=0 note=66 velocity=0 time=49', 'note_on channel=0 note=35 velocity=0 time=8', 'note_on channel=0 note=66 velocity=62 time=109', 'note_on channel=0 note=63 velocity=0 time=50', 'note_on channel=0 note=57 velocity=0 time=12')
Note: ('note_on channel=0 note=35 velocity=0 time=8', 'note_on channel=0 note=66 velocity=62 time=109', 'note_on channel=0 note=63 velocity=0 time=50', 'note_on channel=0 note=57 velocity=0 time=12', 'note_on channel=0 note=64 velocity=61 time=178')
Note: ('note_on channel=0 note=66 velocity=62 time=109', 'note_on channel=0 note=63 velocity=0 time=50', 'note_on channel=0 note=57 velocity=0 time=12', 'note_on channel=0 note=64 velocity=61 time=178', 'note_on channel=0 note=47 velocity=44 time=16')
Note: ('note_on channel=0 note=63 velocity=0 time=50', 'note_on channel=0 note=57 velocity=0 time=12', 'note_on channel=0 note=64 velocity=61 time=178', 'note_on channel=0 note=47 velocity=44 time=16', 'note_on channel=0 note=54 velocity=40 time=7')
Note: ('note_on channel=0 note=57 velocity=0 time=12', 'note_on channel=0 note=64 velocity=61 time=178', 'note_on channel=0 note=47 velocity=44 time=16', 'note_on channel=0 note=54 velocity=40 time=7', 'note_on channel=0 note=57 velocity=43 time=4')
Note: ('note_on channel=0 note=64 velocity=61 time=178', 'note_on channel=0 note=47 velocity=44 time=16', 'note_on channel=0 note=54 velocity=40 time=7', 'note_on channel=0 note=57 velocity=43 time=4', 'note_on channel=0 note=69 velocity=0 time=8')
Note: ('note_on channel=0 note=47 velocity=44 time=16', 'note_on channel=0 note=54 velocity=40 time=7', 'note_on channel=0 note=57 velocity=43 time=4', 'note_on channel=0 note=69 velocity=0 time=8', 'note_on channel=0 note=66 velocity=0 time=3')
Note: ('note_on channel=0 note=54 velocity=40 time=7', 'note_on channel=0 note=57 velocity=43 time=4', 'note_on channel=0 note=69 velocity=0 time=8', 'note_on channel=0 note=66 velocity=0 time=3', 'note_on channel=0 note=54 velocity=0 time=13')
Note: ('note_on channel=0 note=57 velocity=43 time=4', 'note_on channel=0 note=69 velocity=0 time=8', 'note_on channel=0 note=66 velocity=0 time=3', 'note_on channel=0 note=54 velocity=0 time=13', 'note_on channel=0 note=57 velocity=0 time=72')
Note: ('note_on channel=0 note=69 velocity=0 time=8', 'note_on channel=0 note=66 velocity=0 time=3', 'note_on channel=0 note=54 velocity=0 time=13', 'note_on channel=0 note=57 velocity=0 time=72', 'note_on channel=0 note=63 velocity=60 time=12')
Note: ('note_on channel=0 note=66 velocity=0 time=3', 'note_on channel=0 note=54 velocity=0 time=13', 'note_on channel=0 note=57 velocity=0 time=72', 'note_on channel=0 note=63 velocity=60 time=12', 'note_on channel=0 note=47 velocity=0 time=1')
Note: ('note_on channel=0 note=54 velocity=0 time=13', 'note_on channel=0 note=57 velocity=0 time=72', 'note_on channel=0 note=63 velocity=60 time=12', 'note_on channel=0 note=47 velocity=0 time=1', 'note_on channel=0 note=64 velocity=0 time=24')
Note: ('note_on channel=0 note=57 velocity=0 time=72', 'note_on channel=0 note=63 velocity=60 time=12', 'note_on channel=0 note=47 velocity=0 time=1', 'note_on channel=0 note=64 velocity=0 time=24', 'note_on channel=0 note=63 velocity=0 time=41')
Note: ('note_on channel=0 note=63 velocity=60 time=12', 'note_on channel=0 note=47 velocity=0 time=1', 'note_on channel=0 note=64 velocity=0 time=24', 'note_on channel=0 note=63 velocity=0 time=41', 'note_on channel=0 note=73 velocity=64 time=324')
Note: ('note_on channel=0 note=47 velocity=0 time=1', 'note_on channel=0 note=64 velocity=0 time=24', 'note_on channel=0 note=63 velocity=0 time=41', 'note_on channel=0 note=73 velocity=64 time=324', 'note_on channel=0 note=61 velocity=51 time=5')
Note: ('note_on channel=0 note=64 velocity=0 time=24', 'note_on channel=0 note=63 velocity=0 time=41', 'note_on channel=0 note=73 velocity=64 time=324', 'note_on channel=0 note=61 velocity=51 time=5', 'note_on channel=0 note=69 velocity=53 time=6')
Note: ('note_on channel=0 note=63 velocity=0 time=41', 'note_on channel=0 note=73 velocity=64 time=324', 'note_on channel=0 note=61 velocity=51 time=5', 'note_on channel=0 note=69 velocity=53 time=6', 'note_on channel=0 note=42 velocity=43 time=41')
Note: ('note_on channel=0 note=73 velocity=64 time=324', 'note_on channel=0 note=61 velocity=51 time=5', 'note_on channel=0 note=69 velocity=53 time=6', 'note_on channel=0 note=42 velocity=43 time=41', 'note_on channel=0 note=30 velocity=46 time=8')
Note: ('note_on channel=0 note=61 velocity=51 time=5', 'note_on channel=0 note=69 velocity=53 time=6', 'note_on channel=0 note=42 velocity=43 time=41', 'note_on channel=0 note=30 velocity=46 time=8', 'note_on channel=0 note=61 velocity=0 time=24')
Note: ('note_on channel=0 note=69 velocity=53 time=6', 'note_on channel=0 note=42 velocity=43 time=41', 'note_on channel=0 note=30 velocity=46 time=8', 'note_on channel=0 note=61 velocity=0 time=24', 'note_on channel=0 note=69 velocity=0 time=31')
Note: ('note_on channel=0 note=42 velocity=43 time=41', 'note_on channel=0 note=30 velocity=46 time=8', 'note_on channel=0 note=61 velocity=0 time=24', 'note_on channel=0 note=69 velocity=0 time=31', 'note_on channel=0 note=30 velocity=0 time=13')
Note: ('note_on channel=0 note=30 velocity=46 time=8', 'note_on channel=0 note=61 velocity=0 time=24', 'note_on channel=0 note=69 velocity=0 time=31', 'note_on channel=0 note=30 velocity=0 time=13', 'note_on channel=0 note=73 velocity=0 time=19')
Note: ('note_on channel=0 note=61 velocity=0 time=24', 'note_on channel=0 note=69 velocity=0 time=31', 'note_on channel=0 note=30 velocity=0 time=13', 'note_on channel=0 note=73 velocity=0 time=19', 'note_on channel=0 note=42 velocity=0 time=10')
Note: ('note_on channel=0 note=69 velocity=0 time=31', 'note_on channel=0 note=30 velocity=0 time=13', 'note_on channel=0 note=73 velocity=0 time=19', 'note_on channel=0 note=42 velocity=0 time=10', 'note_on channel=0 note=73 velocity=70 time=235')
Note: ('note_on channel=0 note=30 velocity=0 time=13', 'note_on channel=0 note=73 velocity=0 time=19', 'note_on channel=0 note=42 velocity=0 time=10', 'note_on channel=0 note=73 velocity=70 time=235', 'note_on channel=0 note=62 velocity=62 time=11')
Note: ('note_on channel=0 note=73 velocity=0 time=19', 'note_on channel=0 note=42 velocity=0 time=10', 'note_on channel=0 note=73 velocity=70 time=235', 'note_on channel=0 note=62 velocity=62 time=11', 'note_on channel=0 note=69 velocity=55 time=8')
Note: ('note_on channel=0 note=42 velocity=0 time=10', 'note_on channel=0 note=73 velocity=70 time=235', 'note_on channel=0 note=62 velocity=62 time=11', 'note_on channel=0 note=69 velocity=55 time=8', 'note_on channel=0 note=47 velocity=60 time=3')
Note: ('note_on channel=0 note=73 velocity=70 time=235', 'note_on channel=0 note=62 velocity=62 time=11', 'note_on channel=0 note=69 velocity=55 time=8', 'note_on channel=0 note=47 velocity=60 time=3', 'note_on channel=0 note=35 velocity=54 time=6')
Note: ('note_on channel=0 note=62 velocity=62 time=11', 'note_on channel=0 note=69 velocity=55 time=8', 'note_on channel=0 note=47 velocity=60 time=3', 'note_on channel=0 note=35 velocity=54 time=6', 'note_on channel=0 note=47 velocity=0 time=44')
Note: ('note_on channel=0 note=69 velocity=55 time=8', 'note_on channel=0 note=47 velocity=60 time=3', 'note_on channel=0 note=35 velocity=54 time=6', 'note_on channel=0 note=47 velocity=0 time=44', 'note_on channel=0 note=35 velocity=0 time=2')
Note: ('note_on channel=0 note=47 velocity=60 time=3', 'note_on channel=0 note=35 velocity=54 time=6', 'note_on channel=0 note=47 velocity=0 time=44', 'note_on channel=0 note=35 velocity=0 time=2', 'note_on channel=0 note=69 velocity=0 time=10')
Note: ('note_on channel=0 note=35 velocity=54 time=6', 'note_on channel=0 note=47 velocity=0 time=44', 'note_on channel=0 note=35 velocity=0 time=2', 'note_on channel=0 note=69 velocity=0 time=10', 'note_on channel=0 note=62 velocity=0 time=3')
Note: ('note_on channel=0 note=47 velocity=0 time=44', 'note_on channel=0 note=35 velocity=0 time=2', 'note_on channel=0 note=69 velocity=0 time=10', 'note_on channel=0 note=62 velocity=0 time=3', 'note_on channel=0 note=71 velocity=68 time=249')
Note: ('note_on channel=0 note=35 velocity=0 time=2', 'note_on channel=0 note=69 velocity=0 time=10', 'note_on channel=0 note=62 velocity=0 time=3', 'note_on channel=0 note=71 velocity=68 time=249', 'note_on channel=0 note=69 velocity=67 time=3')
Note: ('note_on channel=0 note=69 velocity=0 time=10', 'note_on channel=0 note=62 velocity=0 time=3', 'note_on channel=0 note=71 velocity=68 time=249', 'note_on channel=0 note=69 velocity=67 time=3', 'note_on channel=0 note=63 velocity=63 time=6')
Note: ('note_on channel=0 note=62 velocity=0 time=3', 'note_on channel=0 note=71 velocity=68 time=249', 'note_on channel=0 note=69 velocity=67 time=3', 'note_on channel=0 note=63 velocity=63 time=6', 'note_on channel=0 note=44 velocity=68 time=10')
Note: ('note_on channel=0 note=71 velocity=68 time=249', 'note_on channel=0 note=69 velocity=67 time=3', 'note_on channel=0 note=63 velocity=63 time=6', 'note_on channel=0 note=44 velocity=68 time=10', 'note_on channel=0 note=32 velocity=62 time=3')
Note: ('note_on channel=0 note=69 velocity=67 time=3', 'note_on channel=0 note=63 velocity=63 time=6', 'note_on channel=0 note=44 velocity=68 time=10', 'note_on channel=0 note=32 velocity=62 time=3', 'note_on channel=0 note=73 velocity=0 time=9')
Note: ('note_on channel=0 note=63 velocity=63 time=6', 'note_on channel=0 note=44 velocity=68 time=10', 'note_on channel=0 note=32 velocity=62 time=3', 'note_on channel=0 note=73 velocity=0 time=9', 'note_on channel=0 note=32 velocity=0 time=23')
Note: ('note_on channel=0 note=44 velocity=68 time=10', 'note_on channel=0 note=32 velocity=62 time=3', 'note_on channel=0 note=73 velocity=0 time=9', 'note_on channel=0 note=32 velocity=0 time=23', 'note_on channel=0 note=44 velocity=0 time=19')
Note: ('note_on channel=0 note=32 velocity=62 time=3', 'note_on channel=0 note=73 velocity=0 time=9', 'note_on channel=0 note=32 velocity=0 time=23', 'note_on channel=0 note=44 velocity=0 time=19', 'note_on channel=0 note=69 velocity=0 time=4')
Note: ('note_on channel=0 note=73 velocity=0 time=9', 'note_on channel=0 note=32 velocity=0 time=23', 'note_on channel=0 note=44 velocity=0 time=19', 'note_on channel=0 note=69 velocity=0 time=4', 'note_on channel=0 note=71 velocity=0 time=3')
Note: ('note_on channel=0 note=32 velocity=0 time=23', 'note_on channel=0 note=44 velocity=0 time=19', 'note_on channel=0 note=69 velocity=0 time=4', 'note_on channel=0 note=71 velocity=0 time=3', 'note_on channel=0 note=63 velocity=0 time=37')
Note: ('note_on channel=0 note=44 velocity=0 time=19', 'note_on channel=0 note=69 velocity=0 time=4', 'note_on channel=0 note=71 velocity=0 time=3', 'note_on channel=0 note=63 velocity=0 time=37', 'note_on channel=0 note=71 velocity=72 time=213')
Note: ('note_on channel=0 note=69 velocity=0 time=4', 'note_on channel=0 note=71 velocity=0 time=3', 'note_on channel=0 note=63 velocity=0 time=37', 'note_on channel=0 note=71 velocity=72 time=213', 'note_on channel=0 note=49 velocity=65 time=9')
Note: ('note_on channel=0 note=71 velocity=0 time=3', 'note_on channel=0 note=63 velocity=0 time=37', 'note_on channel=0 note=71 velocity=72 time=213', 'note_on channel=0 note=49 velocity=65 time=9', 'note_on channel=0 note=68 velocity=66 time=3')
Note: ('note_on channel=0 note=63 velocity=0 time=37', 'note_on channel=0 note=71 velocity=72 time=213', 'note_on channel=0 note=49 velocity=65 time=9', 'note_on channel=0 note=68 velocity=66 time=3', 'note_on channel=0 note=37 velocity=62 time=2')
Note: ('note_on channel=0 note=71 velocity=72 time=213', 'note_on channel=0 note=49 velocity=65 time=9', 'note_on channel=0 note=68 velocity=66 time=3', 'note_on channel=0 note=37 velocity=62 time=2', 'note_on channel=0 note=64 velocity=63 time=7')
Note: ('note_on channel=0 note=49 velocity=65 time=9', 'note_on channel=0 note=68 velocity=66 time=3', 'note_on channel=0 note=37 velocity=62 time=2', 'note_on channel=0 note=64 velocity=63 time=7', 'note_on channel=0 note=49 velocity=0 time=6')
Note: ('note_on channel=0 note=68 velocity=66 time=3', 'note_on channel=0 note=37 velocity=62 time=2', 'note_on channel=0 note=64 velocity=63 time=7', 'note_on channel=0 note=49 velocity=0 time=6', 'note_on channel=0 note=37 velocity=0 time=31')
Note: ('note_on channel=0 note=37 velocity=62 time=2', 'note_on channel=0 note=64 velocity=63 time=7', 'note_on channel=0 note=49 velocity=0 time=6', 'note_on channel=0 note=37 velocity=0 time=31', 'note_on channel=0 note=65 velocity=76 time=60')
Note: ('note_on channel=0 note=64 velocity=63 time=7', 'note_on channel=0 note=49 velocity=0 time=6', 'note_on channel=0 note=37 velocity=0 time=31', 'note_on channel=0 note=65 velocity=76 time=60', 'note_on channel=0 note=68 velocity=0 time=33')
Note: ('note_on channel=0 note=49 velocity=0 time=6', 'note_on channel=0 note=37 velocity=0 time=31', 'note_on channel=0 note=65 velocity=76 time=60', 'note_on channel=0 note=68 velocity=0 time=33', 'note_on channel=0 note=64 velocity=0 time=16')
Note: ('note_on channel=0 note=37 velocity=0 time=31', 'note_on channel=0 note=65 velocity=76 time=60', 'note_on channel=0 note=68 velocity=0 time=33', 'note_on channel=0 note=64 velocity=0 time=16', 'note_on channel=0 note=71 velocity=0 time=4')
Note: ('note_on channel=0 note=65 velocity=76 time=60', 'note_on channel=0 note=68 velocity=0 time=33', 'note_on channel=0 note=64 velocity=0 time=16', 'note_on channel=0 note=71 velocity=0 time=4', 'note_on channel=0 note=71 velocity=69 time=227')
Note: ('note_on channel=0 note=68 velocity=0 time=33', 'note_on channel=0 note=64 velocity=0 time=16', 'note_on channel=0 note=71 velocity=0 time=4', 'note_on channel=0 note=71 velocity=69 time=227', 'note_on channel=0 note=68 velocity=67 time=12')
Note: ('note_on channel=0 note=64 velocity=0 time=16', 'note_on channel=0 note=71 velocity=0 time=4', 'note_on channel=0 note=71 velocity=69 time=227', 'note_on channel=0 note=68 velocity=67 time=12', 'note_on channel=0 note=42 velocity=60 time=56')
Note: ('note_on channel=0 note=71 velocity=0 time=4', 'note_on channel=0 note=71 velocity=69 time=227', 'note_on channel=0 note=68 velocity=67 time=12', 'note_on channel=0 note=42 velocity=60 time=56', 'note_on channel=0 note=30 velocity=56 time=7')
Note: ('note_on channel=0 note=71 velocity=69 time=227', 'note_on channel=0 note=68 velocity=67 time=12', 'note_on channel=0 note=42 velocity=60 time=56', 'note_on channel=0 note=30 velocity=56 time=7', 'note_on channel=0 note=65 velocity=0 time=4')
Note: ('note_on channel=0 note=68 velocity=67 time=12', 'note_on channel=0 note=42 velocity=60 time=56', 'note_on channel=0 note=30 velocity=56 time=7', 'note_on channel=0 note=65 velocity=0 time=4', 'note_on channel=0 note=30 velocity=0 time=8')
Note: ('note_on channel=0 note=42 velocity=60 time=56', 'note_on channel=0 note=30 velocity=56 time=7', 'note_on channel=0 note=65 velocity=0 time=4', 'note_on channel=0 note=30 velocity=0 time=8', 'note_on channel=0 note=42 velocity=0 time=36')
Note: ('note_on channel=0 note=30 velocity=56 time=7', 'note_on channel=0 note=65 velocity=0 time=4', 'note_on channel=0 note=30 velocity=0 time=8', 'note_on channel=0 note=42 velocity=0 time=36', 'note_on channel=0 note=66 velocity=73 time=16')
Note: ('note_on channel=0 note=65 velocity=0 time=4', 'note_on channel=0 note=30 velocity=0 time=8', 'note_on channel=0 note=42 velocity=0 time=36', 'note_on channel=0 note=66 velocity=73 time=16', 'note_on channel=0 note=71 velocity=0 time=20')
Note: ('note_on channel=0 note=30 velocity=0 time=8', 'note_on channel=0 note=42 velocity=0 time=36', 'note_on channel=0 note=66 velocity=73 time=16', 'note_on channel=0 note=71 velocity=0 time=20', 'note_on channel=0 note=68 velocity=0 time=17')
Note: ('note_on channel=0 note=42 velocity=0 time=36', 'note_on channel=0 note=66 velocity=73 time=16', 'note_on channel=0 note=71 velocity=0 time=20', 'note_on channel=0 note=68 velocity=0 time=17', 'note_on channel=0 note=69 velocity=79 time=193')
Note: ('note_on channel=0 note=66 velocity=73 time=16', 'note_on channel=0 note=71 velocity=0 time=20', 'note_on channel=0 note=68 velocity=0 time=17', 'note_on channel=0 note=69 velocity=79 time=193', 'note_on channel=0 note=54 velocity=65 time=7')
Note: ('note_on channel=0 note=71 velocity=0 time=20', 'note_on channel=0 note=68 velocity=0 time=17', 'note_on channel=0 note=69 velocity=79 time=193', 'note_on channel=0 note=54 velocity=65 time=7', 'note_on channel=0 note=61 velocity=70 time=2')
Note: ('note_on channel=0 note=68 velocity=0 time=17', 'note_on channel=0 note=69 velocity=79 time=193', 'note_on channel=0 note=54 velocity=65 time=7', 'note_on channel=0 note=61 velocity=70 time=2', 'note_on channel=0 note=42 velocity=60 time=7')
Note: ('note_on channel=0 note=69 velocity=79 time=193', 'note_on channel=0 note=54 velocity=65 time=7', 'note_on channel=0 note=61 velocity=70 time=2', 'note_on channel=0 note=42 velocity=60 time=7', 'note_on channel=0 note=66 velocity=0 time=6')
Note: ('note_on channel=0 note=54 velocity=65 time=7', 'note_on channel=0 note=61 velocity=70 time=2', 'note_on channel=0 note=42 velocity=60 time=7', 'note_on channel=0 note=66 velocity=0 time=6', 'note_on channel=0 note=54 velocity=0 time=19')
Note: ('note_on channel=0 note=61 velocity=70 time=2', 'note_on channel=0 note=42 velocity=60 time=7', 'note_on channel=0 note=66 velocity=0 time=6', 'note_on channel=0 note=54 velocity=0 time=19', 'note_on channel=0 note=42 velocity=0 time=23')
Note: ('note_on channel=0 note=42 velocity=60 time=7', 'note_on channel=0 note=66 velocity=0 time=6', 'note_on channel=0 note=54 velocity=0 time=19', 'note_on channel=0 note=42 velocity=0 time=23', 'note_on channel=0 note=57 velocity=72 time=26')
Note: ('note_on channel=0 note=66 velocity=0 time=6', 'note_on channel=0 note=54 velocity=0 time=19', 'note_on channel=0 note=42 velocity=0 time=23', 'note_on channel=0 note=57 velocity=72 time=26', 'note_on channel=0 note=61 velocity=0 time=60')
Note: ('note_on channel=0 note=54 velocity=0 time=19', 'note_on channel=0 note=42 velocity=0 time=23', 'note_on channel=0 note=57 velocity=72 time=26', 'note_on channel=0 note=61 velocity=0 time=60', 'note_on channel=0 note=69 velocity=0 time=12')
Note: ('note_on channel=0 note=42 velocity=0 time=23', 'note_on channel=0 note=57 velocity=72 time=26', 'note_on channel=0 note=61 velocity=0 time=60', 'note_on channel=0 note=69 velocity=0 time=12', 'note_on channel=0 note=69 velocity=71 time=257')
Note: ('note_on channel=0 note=57 velocity=72 time=26', 'note_on channel=0 note=61 velocity=0 time=60', 'note_on channel=0 note=69 velocity=0 time=12', 'note_on channel=0 note=69 velocity=71 time=257', 'note_on channel=0 note=60 velocity=61 time=3')
Note: ('note_on channel=0 note=61 velocity=0 time=60', 'note_on channel=0 note=69 velocity=0 time=12', 'note_on channel=0 note=69 velocity=71 time=257', 'note_on channel=0 note=60 velocity=61 time=3', 'note_on channel=0 note=66 velocity=64 time=15')
Note: ('note_on channel=0 note=69 velocity=0 time=12', 'note_on channel=0 note=69 velocity=71 time=257', 'note_on channel=0 note=60 velocity=61 time=3', 'note_on channel=0 note=66 velocity=64 time=15', 'note_on channel=0 note=38 velocity=47 time=17')
Note: ('note_on channel=0 note=69 velocity=71 time=257', 'note_on channel=0 note=60 velocity=61 time=3', 'note_on channel=0 note=66 velocity=64 time=15', 'note_on channel=0 note=38 velocity=47 time=17', 'note_on channel=0 note=50 velocity=49 time=0')
Note: ('note_on channel=0 note=60 velocity=61 time=3', 'note_on channel=0 note=66 velocity=64 time=15', 'note_on channel=0 note=38 velocity=47 time=17', 'note_on channel=0 note=50 velocity=49 time=0', 'note_on channel=0 note=57 velocity=0 time=75')
Note: ('note_on channel=0 note=66 velocity=64 time=15', 'note_on channel=0 note=38 velocity=47 time=17', 'note_on channel=0 note=50 velocity=49 time=0', 'note_on channel=0 note=57 velocity=0 time=75', 'note_on channel=0 note=69 velocity=0 time=20')
Note: ('note_on channel=0 note=38 velocity=47 time=17', 'note_on channel=0 note=50 velocity=49 time=0', 'note_on channel=0 note=57 velocity=0 time=75', 'note_on channel=0 note=69 velocity=0 time=20', 'note_on channel=0 note=66 velocity=0 time=3')
Note: ('note_on channel=0 note=50 velocity=49 time=0', 'note_on channel=0 note=57 velocity=0 time=75', 'note_on channel=0 note=69 velocity=0 time=20', 'note_on channel=0 note=66 velocity=0 time=3', 'note_on channel=0 note=38 velocity=0 time=7')
Note: ('note_on channel=0 note=57 velocity=0 time=75', 'note_on channel=0 note=69 velocity=0 time=20', 'note_on channel=0 note=66 velocity=0 time=3', 'note_on channel=0 note=38 velocity=0 time=7', 'note_on channel=0 note=50 velocity=0 time=18')
